M48
METRIC,LZ,000.000
;FILE_FORMAT=3:3
;TYPE=PLATED
;Layer: PTH_Through
;EasyEDA v6.5.39, 2024-01-10 02:32:58
;c879e6b8726d4e35908b0b4345eef0b3,3d9c8b04885e45b7839bd8e85c0fd600,10
;Gerber Generator version 0.2
;Holesize 1 = 0.305 mm
T01C0.305
;Holesize 2 = 0.306 mm
T02C0.306
;Holesize 3 = 0.351 mm
T03C0.351
;Holesize 4 = 0.800 mm
T04C0.800
;Holesize 5 = 2.200 mm
T05C2.200
%
G05
G90
T01
X012827Y-000127
X013716Y-000127
X-012700Y014351
X-000635Y009525
X001143Y008382
X008382Y-008509
X005080Y-006350
X005080Y-005588
X011430Y-007874
X012827Y007239
X010795Y-013970
X-008150Y-007567
X004699Y-011303
X005715Y-008382
X002159Y-010668
X-008150Y-002387
X-008150Y-001215
X-008150Y-000047
X-014605Y012319
X-010414Y009652
X-014732Y008636
X-009525Y012954
X-009525Y013716
X001651Y011430
X000800Y011430
X-013335Y-004445
X014605Y-007874
X010795Y000635
X010795Y-007239
X001143Y006477
X001143Y004699
X004064Y-006350
X001397Y-005080
X-010602Y-012929
X-009398Y-010795
X-010160Y-010795
X-010414Y008636
X-006350Y002921
X-007112Y002921
X003175Y-010668
X006096Y-006350
X-000804Y-011684
X008382Y-007566
X008382Y-006350
X005603Y009898
X010925Y006538
X-005715Y012446
X-008636Y012446
X-002794Y012446
X001143Y-010668
X-001905Y-010668
X-004445Y013081
X006604Y005080
X006350Y001016
X003810Y009271
X003810Y008382
X014605Y007366
X-011303Y009652
X-014859Y-009017
X007493Y-013970
X008128Y-014605
X-008509Y-010795
X014605Y-003683
X014605Y002159
X013716Y-001143
X012827Y-001143
X011938Y-001143
X-005715Y008128
X-006985Y013081
X-005715Y006604
X-001778Y008255
X-006731Y-006985
X-006731Y-006223
X003683Y-002540
X-006223Y-012446
X-014732Y003302
X-002794Y-004191
X-010414Y-005969
X-008150Y-003756
X-008150Y-005026
X-004445Y-008346
X-013208Y-013462
X-012319Y-007747
X-010414Y-007747
X004445Y001143
X004445Y001905
X006096Y-002540
X006096Y-003683
X-005080Y-002540
X-002794Y-005715
X-002794Y-002540
X-003556Y-007366
X-002032Y-007366
X-001778Y007239
X-001778Y009525
X-012700Y016891
X000000Y016891
X006350Y016891
X012700Y016891
X010414Y010922
X012700Y014351
X-002794Y002921
X-001778Y005461
X012827Y003810
X012827Y-004699
X-006350Y016891
X008255Y-010033
X011938Y009144
X010795Y-010795
X010287Y003810
X012827Y-005715
X010795Y-008509
X-006731Y-013843
X012573Y-014859
X009271Y-012446
X009271Y-013716
X001143Y-011684
X-002450Y-011684
X004699Y-013081
X012065Y010414
X010795Y-011684
X006350Y000127
X-000835Y003295
X-000835Y001460
X-000835Y-000375
X002835Y001460
X003175Y-011684
X000000Y-011684
X006096Y-001270
X006604Y003429
X-012003Y-012928
X004064Y-004318
X001000Y003294
X001651Y-002540
X-005080Y002921
X014605Y-009144
X010922Y003048
X014605Y003048
X008800Y008945
X-010414Y-003429
X014605Y-000127
X-010414Y003810
X-010414Y001778
X-010429Y000000
X-011430Y000000
X-010414Y-002413
X-012319Y-003429
X-011303Y-004445
X-012319Y-004445
X-011938Y001778
X-005080Y001397
X-002794Y001397
X-010414Y006950
T02
X016665Y015240
X016665Y-015240
X-013815Y-015240
X-013815Y015240
T03
X013815Y015240
X015240Y016665
X015240Y013815
X016247Y014233
X016247Y016247
X014233Y016247
X014233Y014233
X013815Y-015240
X015240Y-013815
X015240Y-016665
X016247Y-016247
X016247Y-014233
X014233Y-014233
X014233Y-016247
X-016665Y-015240
X-015240Y-013815
X-015240Y-016665
X-014233Y-016247
X-014233Y-014233
X-016247Y-014233
X-016247Y-016247
X-016665Y015240
X-015240Y016665
X-015240Y013815
X-014233Y014233
X-014233Y016247
X-016247Y016247
X-016247Y014233
T04
X-011430Y-016510
X-008890Y-016510
X-006350Y-016510
X-003810Y-016510
X-001270Y-016510
X001270Y-016510
X003810Y-016510
X006350Y-016510
X008890Y-016510
X011430Y-016510
X-016510Y011430
X-016510Y008890
X-016510Y006350
X-016510Y003810
X-016510Y001270
X-016510Y-001270
X-016510Y-003810
X-016510Y-006350
X-016510Y-008890
X-016510Y-011430
X016510Y-011430
X016510Y-008890
X016510Y-006350
X016510Y-003810
X016510Y-001270
X016510Y001270
X016510Y003810
X016510Y006350
X016510Y008890
X016510Y011430
T05
X015240Y015240
X015240Y-015240
X-015240Y-015240
X-015240Y015240
M30
