G04 Layer: TopSilkscreenLayer*
G04 Panelize: , Column: 3, Row: 3, Board Size: 35.56mm x 35.56mm, Panelized Board Size: 110.68mm x 110.68mm*
G04 EasyEDA v6.5.39, 2024-01-10 02:32:58*
G04 c879e6b8726d4e35908b0b4345eef0b3,3d9c8b04885e45b7839bd8e85c0fd600,10*
G04 Gerber Generator version 0.2*
G04 Scale: 100 percent, Rotated: No, Reflected: No *
G04 Dimensions in millimeters *
G04 leading zeros omitted , absolute positions ,4 integer and 5 decimal *
%FSLAX45Y45*%
%MOMM*%

%ADD10C,0.2032*%
%ADD11C,0.2000*%
%ADD12C,0.1500*%
%ADD13C,0.2540*%
%ADD14C,0.1000*%
%ADD15C,0.1016*%
%ADD16C,0.1280*%
%ADD17C,0.0183*%

%LPD*%
G36*
X-187756Y242112D02*
G01*
X-209499Y136245D01*
X-238150Y558D01*
X-238658Y-762D01*
X-239318Y0D01*
X-240436Y3200D01*
X-243332Y14782D01*
X-257352Y78486D01*
X-281330Y78486D01*
X-289661Y38201D01*
X-294792Y15138D01*
X-299059Y-2540D01*
X-302310Y27482D01*
X-313537Y121818D01*
X-331927Y122478D01*
X-335178Y120548D01*
X-335330Y114249D01*
X-326491Y56794D01*
X-312470Y-39319D01*
X-289915Y-39319D01*
X-288391Y-30429D01*
X-270256Y48209D01*
X-269494Y49885D01*
X-268478Y48463D01*
X-266954Y43230D01*
X-254762Y-7873D01*
X-247700Y-38506D01*
X-226415Y-39471D01*
X-222859Y-24993D01*
X-219405Y-9601D01*
X-215087Y11074D01*
X-192024Y116179D01*
X-166065Y236220D01*
X-166217Y240538D01*
X-169418Y241960D01*
G37*
G36*
X-797052Y202844D02*
G01*
X-797052Y-111353D01*
X-116332Y-111353D01*
X-116332Y202844D01*
X-144170Y202844D01*
X-144170Y-83515D01*
X-769213Y-83515D01*
X-769213Y173380D01*
X-235661Y173380D01*
X-236626Y202031D01*
G37*
G36*
X-666242Y125933D02*
G01*
X-673760Y125831D01*
X-681177Y124714D01*
X-688390Y122529D01*
X-693978Y119837D01*
X-699211Y116230D01*
X-703935Y111810D01*
X-708253Y106527D01*
X-712063Y100431D01*
X-715314Y93573D01*
X-718108Y85953D01*
X-720293Y77673D01*
X-720953Y73812D01*
X-721918Y62839D01*
X-722423Y42164D01*
X-698855Y42164D01*
X-698652Y52984D01*
X-698093Y62687D01*
X-697179Y71374D01*
X-695807Y78994D01*
X-694029Y85598D01*
X-691845Y91287D01*
X-689203Y95961D01*
X-686054Y99771D01*
X-682498Y102666D01*
X-678434Y104698D01*
X-673862Y105867D01*
X-668782Y106273D01*
X-664819Y106070D01*
X-661212Y105460D01*
X-657961Y104444D01*
X-655167Y103073D01*
X-652221Y101041D01*
X-649630Y98704D01*
X-647395Y96012D01*
X-645464Y92862D01*
X-643839Y89154D01*
X-642518Y84886D01*
X-641400Y79857D01*
X-640588Y74117D01*
X-639521Y59893D01*
X-639216Y41656D01*
X-639267Y25552D01*
X-639724Y14630D01*
X-640638Y6959D01*
X-642162Y762D01*
X-644245Y-5232D01*
X-646582Y-10312D01*
X-649224Y-14427D01*
X-652221Y-17627D01*
X-655624Y-20066D01*
X-659485Y-21742D01*
X-663905Y-22656D01*
X-668934Y-22961D01*
X-673963Y-22555D01*
X-678484Y-21336D01*
X-682498Y-19304D01*
X-686054Y-16357D01*
X-689152Y-12496D01*
X-691794Y-7721D01*
X-693978Y-1981D01*
X-695756Y4724D01*
X-697128Y12496D01*
X-698042Y21285D01*
X-698652Y31191D01*
X-698855Y42164D01*
X-722423Y42164D01*
X-722376Y34442D01*
X-721868Y20624D01*
X-720953Y9601D01*
X-720293Y5638D01*
X-717956Y-3098D01*
X-714959Y-11074D01*
X-711403Y-18186D01*
X-707237Y-24434D01*
X-702513Y-29768D01*
X-697280Y-34188D01*
X-691540Y-37592D01*
X-685342Y-39979D01*
X-679246Y-41452D01*
X-673201Y-42316D01*
X-667308Y-42519D01*
X-661619Y-42164D01*
X-656082Y-41198D01*
X-650798Y-39624D01*
X-645769Y-37490D01*
X-641096Y-34848D01*
X-636676Y-31597D01*
X-632663Y-27838D01*
X-629056Y-23571D01*
X-625856Y-18745D01*
X-622909Y-13258D01*
X-620471Y-7772D01*
X-618591Y-2032D01*
X-617118Y4267D01*
X-616051Y11430D01*
X-615391Y19710D01*
X-614984Y29413D01*
X-614883Y50444D01*
X-615137Y59131D01*
X-615645Y66903D01*
X-616356Y73914D01*
X-617372Y80213D01*
X-618693Y85953D01*
X-620268Y91135D01*
X-622249Y95910D01*
X-624535Y100330D01*
X-627278Y104495D01*
X-630377Y108508D01*
X-633933Y112420D01*
X-639114Y116890D01*
X-645109Y120497D01*
X-651764Y123240D01*
X-658876Y125069D01*
G37*
G36*
X-534771Y125933D02*
G01*
X-540867Y125780D01*
X-546506Y125120D01*
X-551586Y124053D01*
X-558241Y121869D01*
X-563880Y119227D01*
X-568960Y115874D01*
X-573938Y111556D01*
X-579424Y105308D01*
X-583336Y98602D01*
X-585876Y91084D01*
X-587197Y82296D01*
X-587451Y75742D01*
X-587044Y69697D01*
X-585927Y64262D01*
X-584047Y59283D01*
X-581456Y54762D01*
X-578053Y50647D01*
X-573786Y46939D01*
X-568655Y43535D01*
X-562610Y40487D01*
X-555599Y37693D01*
X-547573Y35102D01*
X-529336Y30327D01*
X-521970Y27940D01*
X-516229Y25349D01*
X-511962Y22453D01*
X-508965Y18999D01*
X-507085Y14884D01*
X-506069Y9956D01*
X-505764Y4013D01*
X-506120Y-2641D01*
X-507390Y-7721D01*
X-509828Y-11938D01*
X-513588Y-15798D01*
X-517042Y-18237D01*
X-521106Y-20167D01*
X-525678Y-21590D01*
X-530758Y-22504D01*
X-536143Y-22910D01*
X-541832Y-22809D01*
X-547776Y-22250D01*
X-553770Y-21183D01*
X-559816Y-19659D01*
X-565810Y-17627D01*
X-571652Y-15189D01*
X-585012Y-8229D01*
X-585368Y-9194D01*
X-585876Y-15646D01*
X-585876Y-27178D01*
X-585317Y-30988D01*
X-583996Y-32918D01*
X-581456Y-34188D01*
X-576275Y-36068D01*
X-570738Y-37693D01*
X-564946Y-39065D01*
X-558901Y-40182D01*
X-552754Y-40995D01*
X-546557Y-41554D01*
X-534416Y-41808D01*
X-528624Y-41503D01*
X-523138Y-40944D01*
X-518007Y-40030D01*
X-513334Y-38811D01*
X-508304Y-36982D01*
X-503986Y-34696D01*
X-499770Y-31597D01*
X-495300Y-27381D01*
X-489254Y-20370D01*
X-485444Y-13309D01*
X-483463Y-5181D01*
X-482854Y5130D01*
X-483565Y14833D01*
X-485648Y23368D01*
X-489204Y30784D01*
X-494131Y37185D01*
X-497078Y39979D01*
X-500278Y42468D01*
X-503783Y44704D01*
X-507847Y46786D01*
X-512521Y48768D01*
X-518007Y50698D01*
X-541274Y57251D01*
X-548741Y59740D01*
X-554431Y62230D01*
X-558698Y64973D01*
X-561594Y68072D01*
X-563473Y71780D01*
X-564388Y76149D01*
X-564692Y81432D01*
X-564134Y87071D01*
X-562559Y92049D01*
X-559917Y96316D01*
X-556310Y99872D01*
X-551688Y102616D01*
X-546150Y104648D01*
X-539699Y105867D01*
X-532333Y106273D01*
X-523240Y105562D01*
X-513892Y103632D01*
X-505358Y100685D01*
X-494639Y94996D01*
X-493877Y94843D01*
X-493420Y95758D01*
X-493064Y98247D01*
X-493014Y106476D01*
X-493522Y118059D01*
X-507339Y122123D01*
X-514502Y123748D01*
X-521563Y124917D01*
X-528320Y125679D01*
G37*
G36*
X-455066Y122631D02*
G01*
X-455066Y-39319D01*
X-432155Y-39319D01*
X-432155Y37541D01*
X-373227Y37541D01*
X-373227Y-39471D01*
X-349504Y-38506D01*
X-348640Y122631D01*
X-373227Y122631D01*
X-373227Y57200D01*
X-432155Y57200D01*
X-432155Y122631D01*
G37*
G36*
X422148Y-689864D02*
G01*
X417423Y-690219D01*
X413054Y-691184D01*
X409143Y-692861D01*
X405638Y-695198D01*
X402640Y-698144D01*
X400558Y-701497D01*
X399338Y-705154D01*
X399034Y-709168D01*
X399288Y-709422D01*
X413004Y-709422D01*
X413156Y-707593D01*
X413664Y-706018D01*
X414426Y-704545D01*
X415543Y-703326D01*
X417017Y-702208D01*
X418592Y-701446D01*
X420319Y-700938D01*
X422148Y-700786D01*
X424332Y-700938D01*
X426262Y-701497D01*
X427990Y-702360D01*
X429514Y-703580D01*
X430631Y-704951D01*
X431444Y-706526D01*
X431901Y-708253D01*
X432054Y-710184D01*
X431901Y-712470D01*
X431444Y-714451D01*
X430631Y-716127D01*
X429514Y-717550D01*
X428091Y-718667D01*
X426313Y-719429D01*
X424281Y-719937D01*
X414020Y-720090D01*
X414020Y-731012D01*
X424535Y-731164D01*
X426770Y-731672D01*
X428701Y-732434D01*
X430276Y-733552D01*
X431495Y-735126D01*
X432358Y-737057D01*
X432917Y-739292D01*
X433070Y-741934D01*
X432866Y-744016D01*
X432308Y-745947D01*
X431342Y-747674D01*
X430022Y-749300D01*
X428396Y-750519D01*
X426516Y-751382D01*
X424434Y-751941D01*
X422148Y-752094D01*
X420065Y-751941D01*
X418236Y-751382D01*
X416509Y-750519D01*
X413715Y-747928D01*
X412750Y-746404D01*
X412191Y-744626D01*
X411988Y-742696D01*
X398272Y-742696D01*
X398018Y-742950D01*
X398475Y-747471D01*
X399796Y-751484D01*
X402031Y-754837D01*
X405130Y-757682D01*
X408940Y-760018D01*
X413054Y-761695D01*
X417474Y-762660D01*
X422148Y-763016D01*
X427482Y-762660D01*
X432257Y-761593D01*
X436473Y-759866D01*
X440182Y-757428D01*
X443280Y-754380D01*
X445516Y-750824D01*
X446836Y-746760D01*
X447293Y-742188D01*
X447090Y-739241D01*
X446532Y-736549D01*
X445566Y-734060D01*
X444246Y-731774D01*
X442569Y-729742D01*
X440537Y-728014D01*
X438251Y-726592D01*
X435609Y-725424D01*
X437997Y-724154D01*
X440131Y-722680D01*
X441959Y-721004D01*
X443484Y-719074D01*
X444703Y-716889D01*
X445566Y-714603D01*
X446125Y-712317D01*
X446278Y-709930D01*
X445871Y-705408D01*
X444652Y-701395D01*
X442569Y-698042D01*
X439674Y-695198D01*
X436219Y-692861D01*
X432104Y-691184D01*
X427431Y-690219D01*
G37*
G36*
X479043Y-689864D02*
G01*
X473862Y-690270D01*
X469239Y-691489D01*
X465226Y-693572D01*
X461772Y-696468D01*
X458876Y-699922D01*
X456895Y-703783D01*
X455726Y-707948D01*
X455422Y-712724D01*
X469392Y-712724D01*
X469544Y-710285D01*
X470052Y-708101D01*
X470814Y-706120D01*
X471932Y-704342D01*
X473354Y-702767D01*
X474980Y-701649D01*
X476859Y-700989D01*
X479043Y-700786D01*
X481177Y-700938D01*
X483006Y-701497D01*
X484479Y-702360D01*
X486664Y-704951D01*
X487375Y-706577D01*
X487781Y-708406D01*
X487934Y-710438D01*
X487426Y-714095D01*
X485901Y-718058D01*
X483006Y-722376D01*
X478790Y-727710D01*
X456692Y-752602D01*
X456692Y-762000D01*
X504443Y-762000D01*
X504443Y-751078D01*
X475488Y-751078D01*
X475234Y-750824D01*
X490931Y-732434D01*
X496773Y-725068D01*
X498856Y-722122D01*
X500278Y-719378D01*
X501345Y-716534D01*
X501954Y-713536D01*
X502158Y-710438D01*
X501802Y-705967D01*
X500634Y-702005D01*
X498703Y-698500D01*
X496062Y-695452D01*
X492709Y-693013D01*
X488746Y-691286D01*
X484225Y-690219D01*
G37*
G36*
X515112Y-690880D02*
G01*
X515112Y-762000D01*
X529336Y-762000D01*
X529336Y-732282D01*
X534416Y-732282D01*
X553974Y-762000D01*
X572262Y-762000D01*
X545846Y-723900D01*
X570484Y-690880D01*
X552704Y-690880D01*
X533146Y-719836D01*
X529336Y-719836D01*
X529336Y-690880D01*
G37*
G36*
X1417574Y612394D02*
G01*
X1417574Y597662D01*
X1358900Y597662D01*
X1358900Y583438D01*
X1431036Y583438D01*
X1428496Y612394D01*
G37*
G36*
X1380744Y560832D02*
G01*
X1375359Y560425D01*
X1370736Y558952D01*
X1366723Y556361D01*
X1363472Y552704D01*
X1361033Y548436D01*
X1359306Y543763D01*
X1358239Y538632D01*
X1357884Y533146D01*
X1358239Y527456D01*
X1359204Y522427D01*
X1360881Y517956D01*
X1363218Y514096D01*
X1366012Y510997D01*
X1369314Y508762D01*
X1373124Y507441D01*
X1377442Y506984D01*
X1381658Y507390D01*
X1385468Y508558D01*
X1388770Y510540D01*
X1391666Y513334D01*
X1394206Y516737D01*
X1396492Y520852D01*
X1398524Y525627D01*
X1401572Y534619D01*
X1403959Y539953D01*
X1405128Y541782D01*
X1406347Y543204D01*
X1407769Y544271D01*
X1409395Y544880D01*
X1411224Y545084D01*
X1413052Y544880D01*
X1414729Y544322D01*
X1416202Y543356D01*
X1417574Y542036D01*
X1418691Y540461D01*
X1419453Y538581D01*
X1419961Y536397D01*
X1420114Y533908D01*
X1419961Y531164D01*
X1419402Y528777D01*
X1418539Y526694D01*
X1417320Y525018D01*
X1415745Y523595D01*
X1413865Y522528D01*
X1411681Y521919D01*
X1409192Y521716D01*
X1409192Y508000D01*
X1409446Y507746D01*
X1414018Y508101D01*
X1418132Y509371D01*
X1421790Y511657D01*
X1424940Y514858D01*
X1427581Y518718D01*
X1429512Y523138D01*
X1430629Y528116D01*
X1431036Y533654D01*
X1430680Y538988D01*
X1429613Y543864D01*
X1427886Y548284D01*
X1425448Y552196D01*
X1422450Y555294D01*
X1419098Y557530D01*
X1415338Y558850D01*
X1411224Y559308D01*
X1407109Y558901D01*
X1403451Y557733D01*
X1400251Y555752D01*
X1397508Y552958D01*
X1395069Y549402D01*
X1392732Y545084D01*
X1390599Y540004D01*
X1386484Y528116D01*
X1385265Y525932D01*
X1384046Y524256D01*
X1382674Y522935D01*
X1381150Y521970D01*
X1379372Y521411D01*
X1377442Y521208D01*
X1375511Y521411D01*
X1373835Y521970D01*
X1372362Y522935D01*
X1371092Y524256D01*
X1369974Y525932D01*
X1369161Y528015D01*
X1368704Y530402D01*
X1368552Y533146D01*
X1368755Y536143D01*
X1369314Y538784D01*
X1370279Y541121D01*
X1371600Y543052D01*
X1373327Y544728D01*
X1375460Y545896D01*
X1378051Y546608D01*
X1380998Y546862D01*
X1380998Y560578D01*
G37*
G36*
X1244600Y653796D02*
G01*
X1244600Y607822D01*
X1255522Y607822D01*
X1255522Y639572D01*
X1315720Y639572D01*
X1315720Y653796D01*
G37*
G36*
X1244600Y597408D02*
G01*
X1244600Y582930D01*
X1315720Y582930D01*
X1315720Y597408D01*
G37*
G36*
X1244600Y568960D02*
G01*
X1244600Y554736D01*
X1304798Y554736D01*
X1304798Y541782D01*
X1304594Y538937D01*
X1303934Y536448D01*
X1302816Y534365D01*
X1301242Y532638D01*
X1299464Y531317D01*
X1297482Y530352D01*
X1295298Y529793D01*
X1292860Y529590D01*
X1290421Y529793D01*
X1288288Y530352D01*
X1286357Y531317D01*
X1284732Y532638D01*
X1283309Y534365D01*
X1282242Y536448D01*
X1281633Y538937D01*
X1281430Y541782D01*
X1281430Y554736D01*
X1270508Y554736D01*
X1270508Y541782D01*
X1270863Y535990D01*
X1272032Y530860D01*
X1273962Y526338D01*
X1276604Y522478D01*
X1279906Y519379D01*
X1283766Y517143D01*
X1288186Y515823D01*
X1293114Y515366D01*
X1297940Y515823D01*
X1302258Y517143D01*
X1306068Y519379D01*
X1309370Y522478D01*
X1312164Y526338D01*
X1314145Y530860D01*
X1315313Y535990D01*
X1315720Y541782D01*
X1315720Y568960D01*
G37*
G36*
X1273810Y506984D02*
G01*
X1267510Y506476D01*
X1261821Y504951D01*
X1256690Y502412D01*
X1252220Y498856D01*
X1248460Y494487D01*
X1245768Y489458D01*
X1244142Y483819D01*
X1243584Y477520D01*
X1254760Y477520D01*
X1255115Y480872D01*
X1256080Y483870D01*
X1257757Y486460D01*
X1260094Y488696D01*
X1262938Y490474D01*
X1266190Y491743D01*
X1269796Y492506D01*
X1273810Y492759D01*
X1286764Y492759D01*
X1290675Y492506D01*
X1294180Y491743D01*
X1297381Y490474D01*
X1300226Y488696D01*
X1302562Y486562D01*
X1304239Y483971D01*
X1305204Y480974D01*
X1305560Y477520D01*
X1305204Y474065D01*
X1304239Y470966D01*
X1302562Y468325D01*
X1300226Y466090D01*
X1297381Y464312D01*
X1294180Y463042D01*
X1290675Y462280D01*
X1286764Y462026D01*
X1273810Y462026D01*
X1269796Y462280D01*
X1266190Y463042D01*
X1262938Y464312D01*
X1260094Y466090D01*
X1257757Y468325D01*
X1256080Y470966D01*
X1255115Y474065D01*
X1254760Y477520D01*
X1243584Y477520D01*
X1244142Y471220D01*
X1245768Y465531D01*
X1248460Y460400D01*
X1252220Y455930D01*
X1256690Y452374D01*
X1261821Y449834D01*
X1267510Y448309D01*
X1273810Y447801D01*
X1286510Y447801D01*
X1292707Y448309D01*
X1298397Y449834D01*
X1303528Y452374D01*
X1308100Y455930D01*
X1311859Y460400D01*
X1314602Y465531D01*
X1316177Y471220D01*
X1316736Y477520D01*
X1316177Y483819D01*
X1314602Y489458D01*
X1311859Y494487D01*
X1308100Y498856D01*
X1303528Y502412D01*
X1298397Y504951D01*
X1292707Y506476D01*
X1286510Y506984D01*
G37*
G36*
X-513334Y389636D02*
G01*
X-518515Y389229D01*
X-523189Y388010D01*
X-527304Y385927D01*
X-530860Y383032D01*
X-533755Y379577D01*
X-535736Y375716D01*
X-536905Y371551D01*
X-537210Y367030D01*
X-536956Y366776D01*
X-523240Y366776D01*
X-523087Y369214D01*
X-522630Y371398D01*
X-521817Y373380D01*
X-520700Y375158D01*
X-519277Y376732D01*
X-517601Y377850D01*
X-515620Y378510D01*
X-513334Y378714D01*
X-511301Y378561D01*
X-509524Y378002D01*
X-508000Y377139D01*
X-506730Y375920D01*
X-505815Y374548D01*
X-504799Y371094D01*
X-504799Y367233D01*
X-505815Y363423D01*
X-507898Y359410D01*
X-513588Y351790D01*
X-535686Y326898D01*
X-535686Y317500D01*
X-487934Y317500D01*
X-487934Y328422D01*
X-517143Y328422D01*
X-517143Y328676D01*
X-501599Y347065D01*
X-495757Y354431D01*
X-493776Y357378D01*
X-492353Y360121D01*
X-491286Y362966D01*
X-490677Y365963D01*
X-490474Y369062D01*
X-490829Y373532D01*
X-491947Y377494D01*
X-493776Y381000D01*
X-496316Y384048D01*
X-499668Y386486D01*
X-503631Y388213D01*
X-508152Y389280D01*
G37*
G36*
X-426212Y389636D02*
G01*
X-431393Y389178D01*
X-436067Y387858D01*
X-440182Y385622D01*
X-443738Y382524D01*
X-446633Y378510D01*
X-448665Y373888D01*
X-449935Y368604D01*
X-450342Y362712D01*
X-450254Y341884D01*
X-436118Y341884D01*
X-436118Y364236D01*
X-435965Y367487D01*
X-435457Y370332D01*
X-434695Y372821D01*
X-433578Y374904D01*
X-432155Y376580D01*
X-430479Y377748D01*
X-428498Y378460D01*
X-426212Y378714D01*
X-424078Y378460D01*
X-422148Y377748D01*
X-420471Y376580D01*
X-419100Y374904D01*
X-417982Y372821D01*
X-417220Y370332D01*
X-416712Y367487D01*
X-416559Y364236D01*
X-416559Y341884D01*
X-416712Y338531D01*
X-417169Y335686D01*
X-417982Y333197D01*
X-419100Y331216D01*
X-420471Y329539D01*
X-422148Y328371D01*
X-424078Y327660D01*
X-426212Y327406D01*
X-428498Y327660D01*
X-430479Y328371D01*
X-432155Y329539D01*
X-433578Y331216D01*
X-434695Y333197D01*
X-435457Y335686D01*
X-435965Y338531D01*
X-436118Y341884D01*
X-450254Y341884D01*
X-449935Y337261D01*
X-448665Y332028D01*
X-446633Y327507D01*
X-443738Y323596D01*
X-440182Y320497D01*
X-436067Y318262D01*
X-431393Y316941D01*
X-426212Y316484D01*
X-421030Y316941D01*
X-416356Y318262D01*
X-412242Y320497D01*
X-408686Y323596D01*
X-405892Y327507D01*
X-403910Y332028D01*
X-402742Y337261D01*
X-402336Y343154D01*
X-402336Y362712D01*
X-402742Y368604D01*
X-404012Y373888D01*
X-406044Y378510D01*
X-408940Y382524D01*
X-412496Y385622D01*
X-416559Y387858D01*
X-421132Y389178D01*
G37*
G36*
X-742696Y388620D02*
G01*
X-742696Y377698D01*
X-718058Y377698D01*
X-715416Y377494D01*
X-713130Y376936D01*
X-711098Y375970D01*
X-709422Y374650D01*
X-708202Y373126D01*
X-707339Y371348D01*
X-706780Y369316D01*
X-706628Y367030D01*
X-706780Y364642D01*
X-707339Y362559D01*
X-708202Y360832D01*
X-709422Y359410D01*
X-711098Y358292D01*
X-713181Y357530D01*
X-715568Y357022D01*
X-728472Y356870D01*
X-728472Y377698D01*
X-742696Y377698D01*
X-742696Y317500D01*
X-728472Y317500D01*
X-728472Y345948D01*
X-717296Y345948D01*
X-714756Y345744D01*
X-712520Y345186D01*
X-710590Y344220D01*
X-708914Y342900D01*
X-707694Y341325D01*
X-706831Y339445D01*
X-706272Y337261D01*
X-705916Y326237D01*
X-705358Y322580D01*
X-704545Y319532D01*
X-703884Y318363D01*
X-703072Y317500D01*
X-688340Y317500D01*
X-688340Y318516D01*
X-689203Y319379D01*
X-690575Y321818D01*
X-691489Y324967D01*
X-691845Y328015D01*
X-692048Y337820D01*
X-692607Y340614D01*
X-693470Y343154D01*
X-694690Y345440D01*
X-696214Y347472D01*
X-698195Y349199D01*
X-700633Y350621D01*
X-703580Y351790D01*
X-700938Y353060D01*
X-698703Y354533D01*
X-696772Y356209D01*
X-695198Y358140D01*
X-693877Y360273D01*
X-692912Y362508D01*
X-692353Y364947D01*
X-692150Y367538D01*
X-692556Y372211D01*
X-693877Y376377D01*
X-696010Y379984D01*
X-699008Y383032D01*
X-702767Y385470D01*
X-707186Y387248D01*
X-712317Y388264D01*
X-718058Y388620D01*
G37*
G36*
X-678942Y388620D02*
G01*
X-678942Y317500D01*
X-633476Y317500D01*
X-633476Y328422D01*
X-664718Y328422D01*
X-664718Y348742D01*
X-638302Y348742D01*
X-638302Y359664D01*
X-664718Y359664D01*
X-664718Y377698D01*
X-633476Y377698D01*
X-633476Y388620D01*
G37*
G36*
X-629666Y388620D02*
G01*
X-605536Y317500D01*
X-590804Y317500D01*
X-566674Y388620D01*
X-581660Y388620D01*
X-597154Y336550D01*
X-597916Y332994D01*
X-598424Y332994D01*
X-599186Y336804D01*
X-614680Y388620D01*
G37*
G36*
X-477012Y329946D02*
G01*
X-477012Y317500D01*
X-462788Y317500D01*
X-462788Y329946D01*
G37*
G36*
X-1165860Y-1464564D02*
G01*
X-1171041Y-1464970D01*
X-1175613Y-1466189D01*
X-1179677Y-1468272D01*
X-1183132Y-1471168D01*
X-1186027Y-1474622D01*
X-1188008Y-1478483D01*
X-1189177Y-1482648D01*
X-1189482Y-1487424D01*
X-1175512Y-1487424D01*
X-1175359Y-1484985D01*
X-1174902Y-1482801D01*
X-1174089Y-1480820D01*
X-1172972Y-1479042D01*
X-1171549Y-1477467D01*
X-1169924Y-1476349D01*
X-1168044Y-1475689D01*
X-1165860Y-1475486D01*
X-1163726Y-1475638D01*
X-1161897Y-1476197D01*
X-1160424Y-1477060D01*
X-1158240Y-1479651D01*
X-1157528Y-1481277D01*
X-1157122Y-1483106D01*
X-1156970Y-1485138D01*
X-1157478Y-1488795D01*
X-1159002Y-1492758D01*
X-1161796Y-1497076D01*
X-1166114Y-1502410D01*
X-1188212Y-1527302D01*
X-1188212Y-1536700D01*
X-1140460Y-1536700D01*
X-1140460Y-1525778D01*
X-1169416Y-1525778D01*
X-1169416Y-1525524D01*
X-1153972Y-1507134D01*
X-1148130Y-1499768D01*
X-1146048Y-1496822D01*
X-1144625Y-1494078D01*
X-1143558Y-1491234D01*
X-1142949Y-1488236D01*
X-1142746Y-1485138D01*
X-1143101Y-1480667D01*
X-1144270Y-1476705D01*
X-1146149Y-1473200D01*
X-1148842Y-1470152D01*
X-1152194Y-1467713D01*
X-1156157Y-1465986D01*
X-1160678Y-1464919D01*
G37*
G36*
X-1107694Y-1464564D02*
G01*
X-1112875Y-1465021D01*
X-1117549Y-1466342D01*
X-1121664Y-1468577D01*
X-1125220Y-1471676D01*
X-1128115Y-1475689D01*
X-1130147Y-1480312D01*
X-1131417Y-1485595D01*
X-1131824Y-1491488D01*
X-1131736Y-1512316D01*
X-1117600Y-1512316D01*
X-1117600Y-1489964D01*
X-1117447Y-1486712D01*
X-1116939Y-1483868D01*
X-1116177Y-1481378D01*
X-1115060Y-1479296D01*
X-1113637Y-1477619D01*
X-1111961Y-1476451D01*
X-1109980Y-1475740D01*
X-1107694Y-1475486D01*
X-1105509Y-1475740D01*
X-1103630Y-1476451D01*
X-1102004Y-1477619D01*
X-1100582Y-1479296D01*
X-1099362Y-1481378D01*
X-1098499Y-1483868D01*
X-1097940Y-1486712D01*
X-1097788Y-1489964D01*
X-1097788Y-1512316D01*
X-1097940Y-1515668D01*
X-1098499Y-1518513D01*
X-1099362Y-1521002D01*
X-1100582Y-1522984D01*
X-1102004Y-1524660D01*
X-1103630Y-1525828D01*
X-1105509Y-1526540D01*
X-1107694Y-1526794D01*
X-1109980Y-1526540D01*
X-1111961Y-1525828D01*
X-1113637Y-1524660D01*
X-1115060Y-1522984D01*
X-1116177Y-1521002D01*
X-1116939Y-1518513D01*
X-1117447Y-1515668D01*
X-1117600Y-1512316D01*
X-1131736Y-1512316D01*
X-1131417Y-1516938D01*
X-1130147Y-1522171D01*
X-1128115Y-1526692D01*
X-1125220Y-1530604D01*
X-1121664Y-1533702D01*
X-1117549Y-1535938D01*
X-1112875Y-1537258D01*
X-1107694Y-1537716D01*
X-1102512Y-1537258D01*
X-1097838Y-1535938D01*
X-1093724Y-1533702D01*
X-1090168Y-1530604D01*
X-1087374Y-1526692D01*
X-1085392Y-1522171D01*
X-1084224Y-1516938D01*
X-1083818Y-1511046D01*
X-1083818Y-1491488D01*
X-1084224Y-1485595D01*
X-1085494Y-1480312D01*
X-1087526Y-1475689D01*
X-1090422Y-1471676D01*
X-1093978Y-1468577D01*
X-1098042Y-1466342D01*
X-1102614Y-1465021D01*
G37*
G36*
X1131062Y-1464564D02*
G01*
X1102106Y-1467104D01*
X1102106Y-1478026D01*
X1116838Y-1478026D01*
X1116838Y-1536700D01*
X1131062Y-1536700D01*
G37*
G36*
X1188466Y-1464564D02*
G01*
X1159459Y-1467104D01*
X1159459Y-1478026D01*
X1174191Y-1478026D01*
X1174191Y-1536700D01*
X1188466Y-1536700D01*
G37*
G36*
X1464564Y1175766D02*
G01*
X1467104Y1146810D01*
X1478026Y1146810D01*
X1478026Y1161542D01*
X1536700Y1161542D01*
X1536700Y1175766D01*
G37*
G36*
X1491488Y1132332D02*
G01*
X1485595Y1131925D01*
X1480312Y1130655D01*
X1475689Y1128623D01*
X1471676Y1125728D01*
X1468577Y1122172D01*
X1466342Y1118057D01*
X1465021Y1113383D01*
X1464564Y1108202D01*
X1475486Y1108202D01*
X1475740Y1110386D01*
X1476451Y1112266D01*
X1477619Y1113942D01*
X1479296Y1115314D01*
X1481378Y1116533D01*
X1483868Y1117396D01*
X1486712Y1117955D01*
X1489964Y1118108D01*
X1512316Y1118108D01*
X1515668Y1117955D01*
X1518513Y1117447D01*
X1521002Y1116685D01*
X1522984Y1115568D01*
X1524660Y1114044D01*
X1525828Y1112316D01*
X1526540Y1110386D01*
X1526794Y1108202D01*
X1526540Y1106017D01*
X1525828Y1104087D01*
X1524660Y1102360D01*
X1522984Y1100836D01*
X1521002Y1099718D01*
X1518513Y1098905D01*
X1515668Y1098448D01*
X1512316Y1098296D01*
X1489964Y1098296D01*
X1486712Y1098448D01*
X1483868Y1098905D01*
X1481378Y1099718D01*
X1479296Y1100836D01*
X1477619Y1102258D01*
X1476451Y1103934D01*
X1475740Y1105916D01*
X1475486Y1108202D01*
X1464564Y1108202D01*
X1465021Y1103020D01*
X1466342Y1098346D01*
X1468577Y1094232D01*
X1471676Y1090676D01*
X1475689Y1087780D01*
X1480312Y1085697D01*
X1485595Y1084478D01*
X1491488Y1084072D01*
X1511046Y1084072D01*
X1516938Y1084478D01*
X1522171Y1085697D01*
X1526692Y1087780D01*
X1530604Y1090676D01*
X1533702Y1094232D01*
X1535938Y1098346D01*
X1537258Y1103020D01*
X1537716Y1108202D01*
X1537258Y1113383D01*
X1535938Y1118057D01*
X1533702Y1122172D01*
X1530604Y1125728D01*
X1526692Y1128623D01*
X1522171Y1130655D01*
X1516938Y1131925D01*
X1511046Y1132332D01*
G37*
G36*
X1491488Y-1071118D02*
G01*
X1485595Y-1071524D01*
X1480312Y-1072794D01*
X1475689Y-1074826D01*
X1471676Y-1077722D01*
X1468577Y-1081278D01*
X1466342Y-1085342D01*
X1465021Y-1089914D01*
X1464564Y-1094994D01*
X1475486Y-1094994D01*
X1475740Y-1092809D01*
X1476451Y-1090930D01*
X1477619Y-1089304D01*
X1479296Y-1087882D01*
X1481378Y-1086662D01*
X1483868Y-1085799D01*
X1486712Y-1085240D01*
X1489964Y-1085088D01*
X1512316Y-1085088D01*
X1515668Y-1085240D01*
X1518513Y-1085799D01*
X1521002Y-1086662D01*
X1522984Y-1087882D01*
X1524660Y-1089304D01*
X1525828Y-1090930D01*
X1526540Y-1092860D01*
X1526794Y-1094994D01*
X1526540Y-1097280D01*
X1525828Y-1099261D01*
X1524660Y-1100937D01*
X1522984Y-1102360D01*
X1521002Y-1103477D01*
X1518513Y-1104239D01*
X1515668Y-1104747D01*
X1512316Y-1104900D01*
X1489964Y-1104900D01*
X1486712Y-1104747D01*
X1483868Y-1104239D01*
X1481378Y-1103477D01*
X1479296Y-1102360D01*
X1477619Y-1100937D01*
X1476451Y-1099261D01*
X1475740Y-1097280D01*
X1475486Y-1094994D01*
X1464564Y-1094994D01*
X1465021Y-1100175D01*
X1466342Y-1104849D01*
X1468577Y-1108964D01*
X1471676Y-1112520D01*
X1475689Y-1115415D01*
X1480312Y-1117447D01*
X1485595Y-1118717D01*
X1491488Y-1119124D01*
X1511046Y-1119124D01*
X1516938Y-1118717D01*
X1522171Y-1117447D01*
X1526692Y-1115415D01*
X1530604Y-1112520D01*
X1533702Y-1108964D01*
X1535938Y-1104849D01*
X1537258Y-1100175D01*
X1537716Y-1094994D01*
X1537258Y-1089812D01*
X1535938Y-1085138D01*
X1533702Y-1081024D01*
X1530604Y-1077468D01*
X1526692Y-1074674D01*
X1522171Y-1072692D01*
X1516938Y-1071524D01*
X1511046Y-1071118D01*
G37*
G36*
X1464564Y-1142238D02*
G01*
X1467104Y-1171194D01*
X1478026Y-1171194D01*
X1478026Y-1156462D01*
X1536700Y-1156462D01*
X1536700Y-1142238D01*
G37*
G36*
X-1517650Y1189482D02*
G01*
X-1522171Y1189024D01*
X-1526184Y1187704D01*
X-1529537Y1185468D01*
X-1532382Y1182370D01*
X-1534718Y1178560D01*
X-1536395Y1174445D01*
X-1537360Y1170025D01*
X-1537716Y1165352D01*
X-1537360Y1160018D01*
X-1536293Y1155242D01*
X-1534566Y1151026D01*
X-1532128Y1147318D01*
X-1529080Y1144219D01*
X-1525524Y1141984D01*
X-1521460Y1140663D01*
X-1516888Y1140206D01*
X-1513941Y1140409D01*
X-1511249Y1140968D01*
X-1508760Y1141933D01*
X-1506474Y1143254D01*
X-1504442Y1144930D01*
X-1502714Y1146962D01*
X-1501292Y1149248D01*
X-1500124Y1151890D01*
X-1498854Y1149502D01*
X-1497380Y1147368D01*
X-1495704Y1145540D01*
X-1493774Y1144016D01*
X-1491589Y1142796D01*
X-1489303Y1141933D01*
X-1487017Y1141374D01*
X-1484630Y1141222D01*
X-1480108Y1141628D01*
X-1476095Y1142847D01*
X-1472742Y1144930D01*
X-1469898Y1147826D01*
X-1467561Y1151280D01*
X-1465884Y1155395D01*
X-1464919Y1160068D01*
X-1464564Y1165352D01*
X-1464919Y1170076D01*
X-1465884Y1174445D01*
X-1467561Y1178356D01*
X-1469898Y1181862D01*
X-1472844Y1184859D01*
X-1476197Y1186942D01*
X-1479854Y1188161D01*
X-1483868Y1188466D01*
X-1484122Y1188212D01*
X-1484122Y1174496D01*
X-1482293Y1174343D01*
X-1480718Y1173835D01*
X-1479245Y1173073D01*
X-1478026Y1171956D01*
X-1476908Y1170482D01*
X-1476146Y1168908D01*
X-1475638Y1167180D01*
X-1475486Y1165352D01*
X-1475638Y1163167D01*
X-1476197Y1161237D01*
X-1477060Y1159510D01*
X-1478280Y1157986D01*
X-1479651Y1156868D01*
X-1481226Y1156055D01*
X-1482953Y1155598D01*
X-1484884Y1155446D01*
X-1487170Y1155598D01*
X-1489151Y1156055D01*
X-1490827Y1156868D01*
X-1492250Y1157986D01*
X-1493367Y1159408D01*
X-1494129Y1161186D01*
X-1494637Y1163218D01*
X-1494790Y1173480D01*
X-1505712Y1173480D01*
X-1505864Y1162964D01*
X-1506372Y1160729D01*
X-1507134Y1158798D01*
X-1508252Y1157224D01*
X-1509826Y1156004D01*
X-1511757Y1155141D01*
X-1513992Y1154582D01*
X-1516634Y1154430D01*
X-1518716Y1154633D01*
X-1520647Y1155192D01*
X-1522374Y1156157D01*
X-1524000Y1157478D01*
X-1525219Y1159103D01*
X-1526082Y1160983D01*
X-1526641Y1163066D01*
X-1526794Y1165352D01*
X-1526641Y1167434D01*
X-1526082Y1169263D01*
X-1525219Y1170990D01*
X-1522628Y1173784D01*
X-1521104Y1174750D01*
X-1519326Y1175308D01*
X-1517396Y1175512D01*
X-1517396Y1189228D01*
G37*
G36*
X-1511046Y1131824D02*
G01*
X-1516938Y1131417D01*
X-1522171Y1130147D01*
X-1526692Y1128115D01*
X-1530604Y1125220D01*
X-1533702Y1121664D01*
X-1535938Y1117549D01*
X-1537258Y1112875D01*
X-1537716Y1107694D01*
X-1526794Y1107694D01*
X-1526540Y1109980D01*
X-1525828Y1111961D01*
X-1524660Y1113637D01*
X-1522984Y1115060D01*
X-1521002Y1116177D01*
X-1518513Y1116939D01*
X-1515668Y1117447D01*
X-1512316Y1117600D01*
X-1489964Y1117600D01*
X-1486712Y1117447D01*
X-1483868Y1116939D01*
X-1481378Y1116177D01*
X-1479296Y1115060D01*
X-1477619Y1113637D01*
X-1476451Y1111961D01*
X-1475740Y1109980D01*
X-1475486Y1107694D01*
X-1475740Y1105509D01*
X-1476451Y1103630D01*
X-1477619Y1102004D01*
X-1479296Y1100582D01*
X-1481378Y1099362D01*
X-1483868Y1098499D01*
X-1486712Y1097940D01*
X-1489964Y1097788D01*
X-1512316Y1097788D01*
X-1515668Y1097940D01*
X-1518513Y1098499D01*
X-1521002Y1099362D01*
X-1522984Y1100582D01*
X-1524660Y1102004D01*
X-1525828Y1103630D01*
X-1526540Y1105560D01*
X-1526794Y1107694D01*
X-1537716Y1107694D01*
X-1537258Y1102512D01*
X-1535938Y1097838D01*
X-1533702Y1093724D01*
X-1530604Y1090168D01*
X-1526692Y1087374D01*
X-1522171Y1085392D01*
X-1516938Y1084224D01*
X-1511046Y1083818D01*
X-1491488Y1083818D01*
X-1485595Y1084224D01*
X-1480312Y1085494D01*
X-1475689Y1087526D01*
X-1471676Y1090422D01*
X-1468577Y1093978D01*
X-1466342Y1098042D01*
X-1465021Y1102614D01*
X-1464564Y1107694D01*
X-1465021Y1112875D01*
X-1466342Y1117549D01*
X-1468577Y1121664D01*
X-1471676Y1125220D01*
X-1475689Y1128115D01*
X-1480312Y1130147D01*
X-1485595Y1131417D01*
X-1491488Y1131824D01*
G37*
G36*
X-1487424Y-1083818D02*
G01*
X-1487424Y-1097788D01*
X-1484985Y-1097940D01*
X-1482801Y-1098397D01*
X-1480820Y-1099210D01*
X-1479042Y-1100328D01*
X-1477467Y-1101699D01*
X-1476349Y-1103376D01*
X-1475689Y-1105255D01*
X-1475486Y-1107440D01*
X-1475638Y-1109573D01*
X-1476197Y-1111402D01*
X-1477060Y-1112875D01*
X-1479651Y-1115060D01*
X-1481277Y-1115771D01*
X-1483106Y-1116177D01*
X-1485138Y-1116330D01*
X-1488795Y-1115822D01*
X-1492758Y-1114298D01*
X-1497076Y-1111504D01*
X-1502410Y-1107186D01*
X-1527302Y-1085088D01*
X-1536700Y-1085088D01*
X-1536700Y-1132840D01*
X-1525778Y-1132840D01*
X-1525778Y-1103884D01*
X-1525524Y-1103884D01*
X-1507134Y-1119327D01*
X-1496822Y-1127252D01*
X-1494078Y-1128674D01*
X-1491234Y-1129741D01*
X-1488236Y-1130350D01*
X-1485138Y-1130554D01*
X-1480667Y-1130198D01*
X-1476705Y-1129030D01*
X-1473200Y-1127150D01*
X-1470152Y-1124458D01*
X-1467713Y-1121105D01*
X-1465986Y-1117142D01*
X-1464919Y-1112621D01*
X-1464564Y-1107440D01*
X-1464970Y-1102258D01*
X-1466189Y-1097686D01*
X-1468272Y-1093622D01*
X-1471168Y-1090168D01*
X-1474622Y-1087272D01*
X-1478483Y-1085291D01*
X-1482648Y-1084122D01*
G37*
G36*
X-1478026Y-1146810D02*
G01*
X-1478026Y-1161542D01*
X-1536700Y-1161542D01*
X-1536700Y-1175766D01*
X-1464564Y-1175766D01*
X-1467104Y-1146810D01*
G37*
G36*
X38100Y-58419D02*
G01*
X38100Y-72644D01*
X109220Y-72644D01*
X109220Y-58419D01*
G37*
G36*
X59943Y-84328D02*
G01*
X54559Y-84734D01*
X49936Y-86156D01*
X45923Y-88646D01*
X42672Y-92202D01*
X40233Y-96570D01*
X38506Y-101346D01*
X37439Y-106476D01*
X37084Y-112014D01*
X37439Y-117551D01*
X38404Y-122580D01*
X40081Y-126949D01*
X42418Y-130810D01*
X45212Y-133908D01*
X48514Y-136144D01*
X52324Y-137464D01*
X56641Y-137922D01*
X60858Y-137566D01*
X64668Y-136398D01*
X67970Y-134518D01*
X70866Y-131826D01*
X73406Y-128422D01*
X75692Y-124358D01*
X77724Y-119532D01*
X80772Y-110489D01*
X83159Y-105054D01*
X84328Y-103124D01*
X85547Y-101803D01*
X86969Y-100838D01*
X88595Y-100279D01*
X90424Y-100076D01*
X92252Y-100279D01*
X93929Y-100787D01*
X95402Y-101650D01*
X96774Y-102870D01*
X97891Y-104546D01*
X98653Y-106426D01*
X99161Y-108610D01*
X99314Y-110998D01*
X99161Y-113741D01*
X98602Y-116230D01*
X97739Y-118313D01*
X96520Y-120142D01*
X94945Y-121615D01*
X93065Y-122631D01*
X90881Y-123240D01*
X88392Y-123444D01*
X88392Y-137160D01*
X93218Y-136855D01*
X97332Y-135585D01*
X100990Y-133400D01*
X104139Y-130302D01*
X106781Y-126441D01*
X108712Y-121970D01*
X109829Y-116941D01*
X110235Y-111252D01*
X109880Y-105918D01*
X108813Y-101092D01*
X107086Y-96774D01*
X104648Y-92964D01*
X101650Y-89865D01*
X98298Y-87630D01*
X94538Y-86309D01*
X90424Y-85852D01*
X86309Y-86258D01*
X82651Y-87426D01*
X79451Y-89408D01*
X76708Y-92202D01*
X74269Y-95758D01*
X71932Y-100025D01*
X69799Y-105003D01*
X65684Y-116992D01*
X64465Y-119227D01*
X63246Y-120904D01*
X61874Y-122123D01*
X60350Y-122986D01*
X58572Y-123545D01*
X56641Y-123698D01*
X54711Y-123494D01*
X53035Y-122935D01*
X51562Y-121970D01*
X50292Y-120650D01*
X49174Y-119075D01*
X48361Y-117094D01*
X47904Y-114757D01*
X47752Y-112014D01*
X47955Y-109016D01*
X48514Y-106324D01*
X49479Y-103936D01*
X50800Y-101854D01*
X52527Y-100279D01*
X54660Y-99212D01*
X57251Y-98501D01*
X60198Y-98298D01*
X60198Y-84328D01*
G37*
G36*
X38100Y-148590D02*
G01*
X38100Y-194056D01*
X49022Y-194056D01*
X49022Y-162814D01*
X69342Y-162814D01*
X69342Y-189230D01*
X80264Y-189230D01*
X80264Y-162814D01*
X98298Y-162814D01*
X98298Y-194056D01*
X109220Y-194056D01*
X109220Y-148590D01*
G37*
G36*
X98298Y-199136D02*
G01*
X98298Y-219202D01*
X38100Y-219202D01*
X38100Y-233425D01*
X98298Y-233425D01*
X98298Y-253746D01*
X109220Y-253746D01*
X109220Y-199136D01*
G37*
G36*
X829056Y-1261364D02*
G01*
X822756Y-1261922D01*
X817118Y-1263497D01*
X812088Y-1266240D01*
X807720Y-1270000D01*
X804164Y-1274572D01*
X801624Y-1279702D01*
X800100Y-1285392D01*
X799592Y-1291590D01*
X799592Y-1304290D01*
X813816Y-1304290D01*
X813816Y-1291336D01*
X814069Y-1287424D01*
X814832Y-1283919D01*
X816102Y-1280718D01*
X817880Y-1277874D01*
X820115Y-1275537D01*
X822706Y-1273860D01*
X825703Y-1272895D01*
X829056Y-1272540D01*
X832510Y-1272895D01*
X835609Y-1273860D01*
X838250Y-1275537D01*
X840486Y-1277874D01*
X842365Y-1280718D01*
X843737Y-1283919D01*
X844550Y-1287424D01*
X844803Y-1291336D01*
X844803Y-1304290D01*
X844550Y-1308303D01*
X843737Y-1311910D01*
X842365Y-1315161D01*
X840486Y-1318006D01*
X838250Y-1320342D01*
X835609Y-1322019D01*
X832510Y-1322984D01*
X829056Y-1323340D01*
X825703Y-1322984D01*
X822706Y-1322019D01*
X820115Y-1320342D01*
X817880Y-1318006D01*
X816102Y-1315161D01*
X814832Y-1311910D01*
X814069Y-1308303D01*
X813816Y-1304290D01*
X799592Y-1304290D01*
X800100Y-1310589D01*
X801624Y-1316278D01*
X804164Y-1321409D01*
X807720Y-1325880D01*
X812088Y-1329639D01*
X817118Y-1332331D01*
X822756Y-1333957D01*
X829056Y-1334516D01*
X835355Y-1333957D01*
X841044Y-1332331D01*
X846175Y-1329639D01*
X850646Y-1325880D01*
X854202Y-1321409D01*
X856742Y-1316278D01*
X858266Y-1310589D01*
X858774Y-1304290D01*
X858774Y-1291590D01*
X858266Y-1285392D01*
X856742Y-1279702D01*
X854202Y-1274572D01*
X850646Y-1270000D01*
X846175Y-1266240D01*
X841044Y-1263497D01*
X835355Y-1261922D01*
G37*
G36*
X679704Y-1262380D02*
G01*
X679704Y-1333500D01*
X725678Y-1333500D01*
X725678Y-1322578D01*
X693928Y-1322578D01*
X693928Y-1262380D01*
G37*
G36*
X735330Y-1262380D02*
G01*
X735330Y-1273302D01*
X759968Y-1273302D01*
X763371Y-1273657D01*
X766368Y-1274622D01*
X769061Y-1276299D01*
X771398Y-1278636D01*
X773277Y-1281379D01*
X774649Y-1284528D01*
X775462Y-1288135D01*
X775716Y-1292098D01*
X775716Y-1303782D01*
X775462Y-1307744D01*
X774649Y-1311351D01*
X773277Y-1314500D01*
X771398Y-1317244D01*
X769061Y-1319580D01*
X766368Y-1321257D01*
X763371Y-1322222D01*
X759968Y-1322578D01*
X749554Y-1322578D01*
X749554Y-1273302D01*
X735330Y-1273302D01*
X735330Y-1333500D01*
X759968Y-1333500D01*
X766267Y-1332992D01*
X771956Y-1331417D01*
X777087Y-1328775D01*
X781558Y-1325118D01*
X785215Y-1320749D01*
X787857Y-1315720D01*
X789432Y-1310081D01*
X789940Y-1303782D01*
X789940Y-1292098D01*
X789432Y-1285900D01*
X787857Y-1280261D01*
X785215Y-1275232D01*
X781558Y-1270762D01*
X777087Y-1267104D01*
X771956Y-1264462D01*
X766267Y-1262888D01*
X759968Y-1262380D01*
G37*
G36*
X895096Y-1262380D02*
G01*
X895096Y-1333500D01*
X940562Y-1333500D01*
X940562Y-1322578D01*
X909319Y-1322578D01*
X909319Y-1302258D01*
X935736Y-1302258D01*
X935736Y-1291336D01*
X909319Y-1291336D01*
X909319Y-1273302D01*
X940562Y-1273302D01*
X940562Y-1262380D01*
G37*
G36*
X950721Y-1262380D02*
G01*
X950721Y-1333500D01*
X964946Y-1333500D01*
X964946Y-1285494D01*
X965200Y-1285494D01*
X993902Y-1333500D01*
X1008126Y-1333500D01*
X1008126Y-1262380D01*
X993902Y-1262380D01*
X993902Y-1310132D01*
X993648Y-1310386D01*
X964946Y-1262380D01*
G37*
D10*
X1059510Y844562D02*
G01*
X1059510Y910094D01*
X1092276Y877328D02*
G01*
X1026744Y877328D01*
X292176Y877328D02*
G01*
X226644Y877328D01*
G36*
X-1128572Y-560374D02*
G01*
X-1142746Y-560882D01*
X-1156919Y-562203D01*
X-1170940Y-564337D01*
X-1184859Y-567283D01*
X-1198575Y-571042D01*
X-1212037Y-575513D01*
X-1225194Y-580796D01*
X-1238097Y-586841D01*
X-1244396Y-590092D01*
X-1256690Y-597204D01*
X-1268577Y-605028D01*
X-1279956Y-613511D01*
X-1290878Y-622604D01*
X-1301242Y-632307D01*
X-1310995Y-642620D01*
X-1320190Y-653440D01*
X-1328724Y-664768D01*
X-1336649Y-676605D01*
X-1343812Y-688848D01*
X-1350314Y-701497D01*
X-1356055Y-714502D01*
X-1361033Y-727811D01*
X-1365250Y-741375D01*
X-1368653Y-755142D01*
X-1371295Y-769112D01*
X-1373124Y-783183D01*
X-1374140Y-797356D01*
X-1374343Y-811580D01*
X-1373733Y-825753D01*
X-1372311Y-839927D01*
X-1370076Y-853948D01*
X-1367028Y-867816D01*
X-1365250Y-874674D01*
X-1361033Y-888237D01*
X-1356055Y-901547D01*
X-1350314Y-914552D01*
X-1343812Y-927201D01*
X-1336649Y-939444D01*
X-1328724Y-951280D01*
X-1320190Y-962609D01*
X-1310995Y-973429D01*
X-1301242Y-983742D01*
X-1290878Y-993444D01*
X-1279956Y-1002588D01*
X-1268577Y-1011021D01*
X-1256690Y-1018844D01*
X-1244396Y-1025956D01*
X-1231696Y-1032357D01*
X-1218641Y-1037996D01*
X-1205331Y-1042873D01*
X-1198575Y-1045057D01*
X-1184859Y-1048766D01*
X-1170940Y-1051712D01*
X-1156919Y-1053846D01*
X-1142746Y-1055166D01*
X-1128572Y-1055674D01*
X-1114348Y-1055370D01*
X-1100175Y-1054252D01*
X-1086104Y-1052322D01*
X-1072184Y-1049578D01*
X-1065276Y-1047953D01*
X-1051610Y-1044041D01*
X-1038199Y-1039317D01*
X-1025093Y-1033881D01*
X-1012291Y-1027684D01*
X-999896Y-1020724D01*
X-987907Y-1013104D01*
X-976376Y-1004824D01*
X-965352Y-995883D01*
X-954836Y-986332D01*
X-944880Y-976172D01*
X-935583Y-965453D01*
X-926846Y-954227D01*
X-918768Y-942543D01*
X-911402Y-930402D01*
X-904748Y-917854D01*
X-898804Y-904951D01*
X-893622Y-891743D01*
X-889203Y-878230D01*
X-885596Y-864463D01*
X-882751Y-850544D01*
X-880719Y-836523D01*
X-879500Y-822350D01*
X-879094Y-808177D01*
X-879195Y-800811D01*
X-880008Y-786638D01*
X-881634Y-772515D01*
X-884072Y-758494D01*
X-887323Y-744677D01*
X-889203Y-737819D01*
X-893622Y-724357D01*
X-898804Y-711098D01*
X-904748Y-698195D01*
X-911402Y-685647D01*
X-918768Y-673506D01*
X-926846Y-661822D01*
X-935583Y-650595D01*
X-944880Y-639876D01*
X-954836Y-629716D01*
X-965352Y-620166D01*
X-976376Y-611225D01*
X-987907Y-602945D01*
X-999896Y-595325D01*
X-1012291Y-588416D01*
X-1025093Y-582168D01*
X-1038199Y-576732D01*
X-1051610Y-572058D01*
X-1058418Y-569976D01*
X-1072184Y-566470D01*
X-1086104Y-563727D01*
X-1100175Y-561797D01*
X-1114348Y-560679D01*
G37*
D11*
X1231900Y-1524000D02*
G01*
X1270000Y-1524000D01*
X1270000Y-1562100D01*
X1562100Y0D02*
G01*
X1524000Y0D01*
X1524000Y38100D01*
X1524000Y-38100D02*
G01*
X1524000Y0D01*
X1562100Y0D01*
X1562100Y-1270000D02*
G01*
X1524000Y-1270000D01*
X1524000Y-1231900D01*
X0Y-1562100D02*
G01*
X0Y-1524000D01*
X38100Y-1524000D01*
X-38100Y-1524000D02*
G01*
X0Y-1524000D01*
X0Y-1562100D01*
X-1270000Y-1562100D02*
G01*
X-1270000Y-1524000D01*
X-1231900Y-1524000D01*
X-1524000Y-1231900D02*
G01*
X-1524000Y-1270000D01*
X-1562100Y-1270000D01*
X-1562100Y0D02*
G01*
X-1524000Y0D01*
X-1524000Y-38100D01*
X-1524000Y38100D02*
G01*
X-1524000Y0D01*
X-1562100Y0D01*
X-1562100Y1270000D02*
G01*
X-1524000Y1270000D01*
X-1524000Y1231900D01*
X1524000Y1231900D02*
G01*
X1524000Y1270000D01*
X1562100Y1270000D01*
D12*
X-123609Y602955D02*
G01*
X-3604Y602955D01*
X-123609Y525955D02*
G01*
X-123609Y602955D01*
X-123609Y412953D02*
G01*
X-3604Y412953D01*
X-123609Y489953D02*
G01*
X-123609Y412953D01*
X-3604Y489953D02*
G01*
X-3604Y412953D01*
X-3604Y525955D02*
G01*
X-3604Y602955D01*
X-232204Y412978D02*
G01*
X-352209Y412978D01*
X-232204Y489978D02*
G01*
X-232204Y412978D01*
X-232204Y602980D02*
G01*
X-352209Y602980D01*
X-232204Y525980D02*
G01*
X-232204Y602980D01*
X-352209Y525980D02*
G01*
X-352209Y602980D01*
X-352209Y489978D02*
G01*
X-352209Y412978D01*
X-1273530Y-274104D02*
G01*
X-1273530Y-212100D01*
X-1273530Y-310108D02*
G01*
X-1273530Y-372099D01*
X-1393535Y-310108D02*
G01*
X-1393535Y-372099D01*
X-1373535Y-387108D02*
G01*
X-1293538Y-387108D01*
X-1393535Y-274104D02*
G01*
X-1393535Y-212100D01*
X-1373535Y-197104D02*
G01*
X-1293538Y-197104D01*
X-1378526Y-387108D02*
G01*
X-1373535Y-387108D01*
X-1288539Y-387108D02*
G01*
X-1293538Y-387108D01*
X-1378539Y-197104D02*
G01*
X-1373535Y-197104D01*
X-1288526Y-197104D02*
G01*
X-1293538Y-197104D01*
X-1070330Y-274104D02*
G01*
X-1070330Y-212100D01*
X-1070330Y-310108D02*
G01*
X-1070330Y-372099D01*
X-1190335Y-310108D02*
G01*
X-1190335Y-372099D01*
X-1170335Y-387108D02*
G01*
X-1090338Y-387108D01*
X-1190335Y-274104D02*
G01*
X-1190335Y-212100D01*
X-1170335Y-197104D02*
G01*
X-1090338Y-197104D01*
X-1175326Y-387108D02*
G01*
X-1170335Y-387108D01*
X-1085339Y-387108D02*
G01*
X-1090338Y-387108D01*
X-1175339Y-197104D02*
G01*
X-1170335Y-197104D01*
X-1085326Y-197104D02*
G01*
X-1090338Y-197104D01*
X219354Y-525995D02*
G01*
X219354Y-587999D01*
X219354Y-489991D02*
G01*
X219354Y-428000D01*
X339359Y-489991D02*
G01*
X339359Y-428000D01*
X319359Y-412991D02*
G01*
X239361Y-412991D01*
X339359Y-525995D02*
G01*
X339359Y-587999D01*
X319359Y-602995D02*
G01*
X239361Y-602995D01*
X324350Y-412991D02*
G01*
X319359Y-412991D01*
X234363Y-412991D02*
G01*
X239361Y-412991D01*
X324363Y-602995D02*
G01*
X319359Y-602995D01*
X234350Y-602995D02*
G01*
X239361Y-602995D01*
D13*
X-726470Y582810D02*
G01*
X-726470Y762812D01*
X-416468Y582810D02*
G01*
X-416468Y762812D01*
D14*
X-755589Y-1238775D02*
G01*
X-895588Y-1238775D01*
X-755589Y-1148773D02*
G01*
X-894587Y-1148773D01*
X-895588Y-1238775D02*
G01*
X-895588Y-1148773D01*
X-755589Y-1238775D02*
G01*
X-755589Y-1148773D01*
D15*
X-739589Y-1230774D02*
G01*
X-739589Y-1159774D01*
D11*
X-1187300Y884674D02*
G01*
X-1327299Y884674D01*
X-1187300Y664674D02*
G01*
X-1327299Y664674D01*
D12*
X-1393502Y1187188D02*
G01*
X-1273497Y1187188D01*
X-1393502Y1110188D02*
G01*
X-1393502Y1187188D01*
X-1393502Y997186D02*
G01*
X-1273497Y997186D01*
X-1393502Y1074186D02*
G01*
X-1393502Y997186D01*
X-1273497Y1074186D02*
G01*
X-1273497Y997186D01*
X-1273497Y1110188D02*
G01*
X-1273497Y1187188D01*
X-232204Y679678D02*
G01*
X-352209Y679678D01*
X-232204Y756678D02*
G01*
X-232204Y679678D01*
X-232204Y869680D02*
G01*
X-352209Y869680D01*
X-232204Y792680D02*
G01*
X-232204Y869680D01*
X-352209Y792680D02*
G01*
X-352209Y869680D01*
X-352209Y756678D02*
G01*
X-352209Y679678D01*
X-791004Y679678D02*
G01*
X-911009Y679678D01*
X-791004Y756678D02*
G01*
X-791004Y679678D01*
X-791004Y869680D02*
G01*
X-911009Y869680D01*
X-791004Y792680D02*
G01*
X-791004Y869680D01*
X-911009Y792680D02*
G01*
X-911009Y869680D01*
X-911009Y756678D02*
G01*
X-911009Y679678D01*
X-916785Y-1406235D02*
G01*
X-916785Y-1286230D01*
X-839784Y-1406235D02*
G01*
X-916785Y-1406235D01*
X-726782Y-1406235D02*
G01*
X-726782Y-1286230D01*
X-803782Y-1406235D02*
G01*
X-726782Y-1406235D01*
X-803782Y-1286230D02*
G01*
X-726782Y-1286230D01*
X-839784Y-1286230D02*
G01*
X-916785Y-1286230D01*
D13*
X-1392999Y28600D02*
G01*
X-1392999Y428599D01*
X-893000Y417266D02*
G01*
X-893000Y284980D01*
X-893000Y176601D02*
G01*
X-893000Y39933D01*
D12*
X-123507Y756704D02*
G01*
X-123507Y694700D01*
X-123507Y792708D02*
G01*
X-123507Y854699D01*
X-3502Y792708D02*
G01*
X-3502Y854699D01*
X-23502Y869708D02*
G01*
X-103499Y869708D01*
X-3502Y756704D02*
G01*
X-3502Y694700D01*
X-23502Y679704D02*
G01*
X-103499Y679704D01*
X-18511Y869708D02*
G01*
X-23502Y869708D01*
X-108498Y869708D02*
G01*
X-103499Y869708D01*
X-18498Y679704D02*
G01*
X-23502Y679704D01*
X-108511Y679704D02*
G01*
X-103499Y679704D01*
X710311Y-101605D02*
G01*
X698497Y-101605D01*
X1003340Y-189750D02*
G01*
X1003300Y-101605D01*
X966142Y-101605D01*
X1003297Y-412244D02*
G01*
X1003297Y-248076D01*
X966144Y-558805D02*
G01*
X990597Y-558805D01*
X1003297Y-558805D01*
X1003297Y-470573D01*
X673097Y-470573D02*
G01*
X673097Y-508005D01*
X673097Y-533405D01*
X698497Y-558805D01*
X710311Y-558805D01*
X673097Y-248076D02*
G01*
X673097Y-412244D01*
X710311Y-101605D02*
G01*
X673097Y-101605D01*
X673097Y-189748D01*
D13*
X156202Y307395D02*
G01*
X-3802Y307395D01*
X-3291Y122334D02*
G01*
X-3291Y-2661D01*
X156712Y122334D02*
G01*
X156712Y-2661D01*
X-3802Y182392D02*
G01*
X-3802Y307395D01*
X156202Y182392D02*
G01*
X156202Y307395D01*
X156712Y-2661D02*
G01*
X-3291Y-2661D01*
X1092301Y67310D02*
G01*
X1092301Y259994D01*
X1422298Y259994D01*
X1422298Y313334D01*
X1092301Y313334D01*
X1092301Y259994D01*
X1422298Y-92710D02*
G01*
X1422298Y-285394D01*
X1092301Y-285394D01*
X1092301Y-92710D01*
X1422298Y67310D02*
G01*
X1422298Y259994D01*
D12*
X339369Y-172504D02*
G01*
X339369Y-110500D01*
X339369Y-208508D02*
G01*
X339369Y-270499D01*
X219364Y-208508D02*
G01*
X219364Y-270499D01*
X239364Y-285508D02*
G01*
X319361Y-285508D01*
X219364Y-172504D02*
G01*
X219364Y-110500D01*
X239364Y-95504D02*
G01*
X319361Y-95504D01*
X234373Y-285508D02*
G01*
X239364Y-285508D01*
X324360Y-285508D02*
G01*
X319361Y-285508D01*
X234360Y-95504D02*
G01*
X239364Y-95504D01*
X324373Y-95504D02*
G01*
X319361Y-95504D01*
X694969Y170395D02*
G01*
X694969Y232399D01*
X694969Y134391D02*
G01*
X694969Y72400D01*
X574964Y134391D02*
G01*
X574964Y72400D01*
X594964Y57391D02*
G01*
X674961Y57391D01*
X574964Y170395D02*
G01*
X574964Y232399D01*
X594964Y247395D02*
G01*
X674961Y247395D01*
X589973Y57391D02*
G01*
X594964Y57391D01*
X679960Y57391D02*
G01*
X674961Y57391D01*
X589960Y247395D02*
G01*
X594964Y247395D01*
X679973Y247395D02*
G01*
X674961Y247395D01*
X1351457Y778192D02*
G01*
X1413461Y778192D01*
X1315453Y778192D02*
G01*
X1253462Y778192D01*
X1315453Y898197D02*
G01*
X1253462Y898197D01*
X1238453Y878197D02*
G01*
X1238453Y798200D01*
X1351457Y898197D02*
G01*
X1413461Y898197D01*
X1428457Y878197D02*
G01*
X1428457Y798200D01*
X1238453Y883188D02*
G01*
X1238453Y878197D01*
X1238453Y793201D02*
G01*
X1238453Y798200D01*
X1428457Y883201D02*
G01*
X1428457Y878197D01*
X1428457Y793188D02*
G01*
X1428457Y798200D01*
X796569Y-756704D02*
G01*
X796569Y-694700D01*
X796569Y-792708D02*
G01*
X796569Y-854699D01*
X676564Y-792708D02*
G01*
X676564Y-854699D01*
X696564Y-869708D02*
G01*
X776561Y-869708D01*
X676564Y-756704D02*
G01*
X676564Y-694700D01*
X696564Y-679704D02*
G01*
X776561Y-679704D01*
X691573Y-869708D02*
G01*
X696564Y-869708D01*
X781560Y-869708D02*
G01*
X776561Y-869708D01*
X691560Y-679704D02*
G01*
X696564Y-679704D01*
X781573Y-679704D02*
G01*
X776561Y-679704D01*
D13*
X458302Y713803D02*
G01*
X278300Y713803D01*
X458302Y403801D02*
G01*
X278300Y403801D01*
X1413568Y1268785D02*
G01*
X1253563Y1268785D01*
X1254074Y1083724D02*
G01*
X1254074Y958728D01*
X1414078Y1083724D02*
G01*
X1414078Y958728D01*
X1253563Y1143782D02*
G01*
X1253563Y1268785D01*
X1413568Y1143782D02*
G01*
X1413568Y1268785D01*
X1414078Y958728D02*
G01*
X1254074Y958728D01*
D12*
X720295Y463778D02*
G01*
X600290Y463778D01*
X720295Y540778D02*
G01*
X720295Y463778D01*
X720295Y653780D02*
G01*
X600290Y653780D01*
X720295Y576780D02*
G01*
X720295Y653780D01*
X600290Y576780D02*
G01*
X600290Y653780D01*
X600290Y540778D02*
G01*
X600290Y463778D01*
X397090Y-95544D02*
G01*
X517095Y-95544D01*
X397090Y-172544D02*
G01*
X397090Y-95544D01*
X397090Y-285546D02*
G01*
X517095Y-285546D01*
X397090Y-208546D02*
G01*
X397090Y-285546D01*
X517095Y-208546D02*
G01*
X517095Y-285546D01*
X517095Y-172544D02*
G01*
X517095Y-95544D01*
D13*
X994468Y307395D02*
G01*
X834463Y307395D01*
X834974Y122334D02*
G01*
X834974Y-2661D01*
X994978Y122334D02*
G01*
X994978Y-2661D01*
X834463Y182392D02*
G01*
X834463Y307395D01*
X994468Y182392D02*
G01*
X994468Y307395D01*
X994978Y-2661D02*
G01*
X834974Y-2661D01*
X1357299Y-549899D02*
G01*
X1157300Y-549899D01*
X1357299Y-389900D02*
G01*
X1157300Y-389900D01*
X1292423Y-549899D02*
G01*
X1292423Y-389900D01*
X1097302Y-786297D02*
G01*
X1199182Y-786297D01*
X1410413Y-966299D02*
G01*
X1417302Y-966299D01*
X1220421Y-966299D02*
G01*
X1294178Y-966299D01*
X1097302Y-966299D02*
G01*
X1104186Y-966299D01*
X1417302Y-786297D02*
G01*
X1417302Y-966299D01*
X1097302Y-786297D02*
G01*
X1097302Y-966299D01*
X1315417Y-786297D02*
G01*
X1417302Y-786297D01*
D12*
X999802Y-1161788D02*
G01*
X879797Y-1161788D01*
X999802Y-1084788D02*
G01*
X999802Y-1161788D01*
X999802Y-971786D02*
G01*
X879797Y-971786D01*
X999802Y-1048786D02*
G01*
X999802Y-971786D01*
X879797Y-1048786D02*
G01*
X879797Y-971786D01*
X879797Y-1084788D02*
G01*
X879797Y-1161788D01*
D13*
X-79400Y-783399D02*
G01*
X-79400Y-768987D01*
X-79400Y-678812D02*
G01*
X-79400Y-641987D01*
X-479399Y-783399D02*
G01*
X-479399Y-768987D01*
X-479399Y-678812D02*
G01*
X-479399Y-641987D01*
X-479399Y-551812D02*
G01*
X-479399Y-514987D01*
X-479399Y-424812D02*
G01*
X-479399Y-387987D01*
X-221401Y-783399D02*
G01*
X-79400Y-783399D01*
X-79400Y-551812D02*
G01*
X-79400Y-514987D01*
X-79400Y-424812D02*
G01*
X-79400Y-387987D01*
X-79400Y-297812D02*
G01*
X-79400Y-283400D01*
X-479399Y-783399D02*
G01*
X-339399Y-783399D01*
X-479402Y-283400D02*
G01*
X-79400Y-283400D01*
X-479402Y-297812D02*
G01*
X-479402Y-283400D01*
X1042502Y713803D02*
G01*
X862500Y713803D01*
X1042502Y403801D02*
G01*
X862500Y403801D01*
D12*
X469826Y63D02*
G01*
X520626Y63D01*
X520626Y304863D01*
X469826Y304863D01*
X266626Y63D02*
G01*
X215826Y63D01*
X215826Y304863D01*
X266626Y304863D01*
X999807Y-756704D02*
G01*
X999807Y-694700D01*
X999807Y-792708D02*
G01*
X999807Y-854699D01*
X879802Y-792708D02*
G01*
X879802Y-854699D01*
X899802Y-869708D02*
G01*
X979799Y-869708D01*
X879802Y-756704D02*
G01*
X879802Y-694700D01*
X899802Y-679704D02*
G01*
X979799Y-679704D01*
X894811Y-869708D02*
G01*
X899802Y-869708D01*
X984798Y-869708D02*
G01*
X979799Y-869708D01*
X894798Y-679704D02*
G01*
X899802Y-679704D01*
X984811Y-679704D02*
G01*
X979799Y-679704D01*
D13*
X-952497Y990602D02*
G01*
X-1003297Y990602D01*
X-139700Y990600D02*
G01*
X-190500Y990600D01*
X-139700Y1193800D02*
G01*
X-139700Y1422400D01*
X-1003300Y1422400D02*
G01*
X-1003300Y1193800D01*
X-139700Y1600200D02*
G01*
X-139700Y1765300D01*
X-1003300Y1765300D01*
X-1003300Y1600200D01*
X1138402Y787387D02*
G01*
X177800Y787387D01*
X177800Y1765287D01*
X1138402Y1765287D01*
X1138402Y787387D01*
D11*
X434599Y-1334300D02*
G01*
X514598Y-1334300D01*
X514598Y-1219299D01*
X-625398Y-1009302D02*
G01*
X-625398Y-874301D01*
X354599Y-874301D01*
X-485399Y-1334300D02*
G01*
X-625398Y-1334300D01*
X-625398Y-1229301D01*
D12*
G75*
G01*
X-1393535Y-372100D02*
G03*
X-1378527Y-387109I15008J0D01*
G75*
G01*
X-1273531Y-372100D02*
G02*
X-1288539Y-387109I-15008J0D01*
G75*
G01*
X-1393535Y-212100D02*
G02*
X-1378539Y-197104I14996J0D01*
G75*
G01*
X-1273531Y-212100D02*
G03*
X-1288527Y-197104I-14996J0D01*
G75*
G01*
X-1190335Y-372100D02*
G03*
X-1175327Y-387109I15008J0D01*
G75*
G01*
X-1070331Y-372100D02*
G02*
X-1085339Y-387109I-15008J0D01*
G75*
G01*
X-1190335Y-212100D02*
G02*
X-1175339Y-197104I14996J0D01*
G75*
G01*
X-1070331Y-212100D02*
G03*
X-1085327Y-197104I-14996J0D01*
G75*
G01*
X339359Y-428000D02*
G03*
X324350Y-412991I-15009J0D01*
G75*
G01*
X219354Y-428000D02*
G02*
X234363Y-412991I15009J0D01*
G75*
G01*
X339359Y-588000D02*
G02*
X324363Y-602996I-14996J0D01*
G75*
G01*
X219354Y-588000D02*
G03*
X234351Y-602996I14997J0D01*
D11*
G75*
G01*
X-1366393Y884095D02*
G03*
X-1366647Y884095I-127J12499D01*
D13*
G75*
G01*
X-893000Y176601D02*
G02*
X-892962Y284899I389J54149D01*
D14*
G75*
G01*
X-84501Y769699D02*
G02*
X-59101Y769699I12700J0D01*
G75*
G01*
X-36500Y778700D02*
G02*
X-61900Y778700I-12700J0D01*
D12*
G75*
G01*
X219365Y-270500D02*
G03*
X234373Y-285509I15008J0D01*
G75*
G01*
X339369Y-270500D02*
G02*
X324361Y-285509I-15008J0D01*
G75*
G01*
X219365Y-110500D02*
G02*
X234361Y-95504I14996J0D01*
G75*
G01*
X339369Y-110500D02*
G03*
X324373Y-95504I-14996J0D01*
G75*
G01*
X574965Y72400D02*
G03*
X589973Y57391I15008J0D01*
G75*
G01*
X694969Y72400D02*
G02*
X679961Y57391I-15008J0D01*
G75*
G01*
X574965Y232400D02*
G02*
X589961Y247396I14996J0D01*
G75*
G01*
X694969Y232400D02*
G03*
X679973Y247396I-14996J0D01*
G75*
G01*
X1253462Y898197D02*
G03*
X1238453Y883188I0J-15009D01*
G75*
G01*
X1253462Y778192D02*
G02*
X1238453Y793201I0J15009D01*
G75*
G01*
X1413462Y898197D02*
G02*
X1428458Y883201I0J-14996D01*
G75*
G01*
X1413462Y778192D02*
G03*
X1428458Y793189I0J14997D01*
G75*
G01*
X676565Y-854700D02*
G03*
X691573Y-869709I15008J0D01*
G75*
G01*
X796569Y-854700D02*
G02*
X781561Y-869709I-15008J0D01*
G75*
G01*
X676565Y-694700D02*
G02*
X691561Y-679704I14996J0D01*
G75*
G01*
X796569Y-694700D02*
G03*
X781573Y-679704I-14996J0D01*
D13*
G75*
G01*
X-339400Y-782399D02*
G02*
X-221399Y-782399I59001J4468D01*
D12*
G75*
G01*
X879803Y-854700D02*
G03*
X894812Y-869709I15009J0D01*
G75*
G01*
X999808Y-854700D02*
G02*
X984799Y-869709I-15009J0D01*
G75*
G01*
X879803Y-694700D02*
G02*
X894799Y-679704I14996J0D01*
G75*
G01*
X999808Y-694700D02*
G03*
X984811Y-679704I-14997J0D01*
D13*
G75*
G01
X-393675Y812521D02*
G03X-393675Y812521I-12700J0D01*
D16*
G75*
G01
X1228395Y-1231900D02*
G03X1228395Y-1231900I-59995J0D01*
G75*
G01
X1406195Y-1231900D02*
G03X1406195Y-1231900I-59995J0D01*
G75*
G01
X796595Y-1066800D02*
G03X796595Y-1066800I-59995J0D01*
G75*
G01
X-879805Y-292100D02*
G03X-879805Y-292100I-59995J0D01*
G75*
G01
X339395Y-723900D02*
G03X339395Y-723900I-59995J0D01*
D13*
G75*
G01
X-848893Y507594D02*
G03X-848893Y507594I-17120J0D01*
D12*
G75*
G01
X747141Y-599161D02*
G03X747141Y-599161I-7899J0D01*
D13*
G75*
G01
X241300Y723900D02*
G03X241300Y723900I-12700J0D01*
G75*
G01
X6350Y-800100D02*
G03X6350Y-800100I-19050J0D01*
G75*
G01
X825500Y723900D02*
G03X825500Y723900I-12700J0D01*
D12*
G75*
G01
X248260Y-26543D02*
G03X248260Y-26543I-7010J0D01*
D11*
G75*
G01
X-790296Y-812800D02*
G03X-790296Y-812800I-340004J0D01*
M02*
