G04 Layer: BottomLayer*
G04 Panelize: , Column: 3, Row: 3, Board Size: 35.56mm x 35.56mm, Panelized Board Size: 110.68mm x 110.68mm*
G04 EasyEDA v6.5.39, 2024-01-10 02:32:58*
G04 c879e6b8726d4e35908b0b4345eef0b3,3d9c8b04885e45b7839bd8e85c0fd600,10*
G04 Gerber Generator version 0.2*
G04 Scale: 100 percent, Rotated: No, Reflected: No *
G04 Dimensions in millimeters *
G04 leading zeros omitted , absolute positions ,4 integer and 5 decimal *
%FSLAX45Y45*%
%MOMM*%

%AMMACRO1*21,1,$1,$2,0,0,$3*%
%ADD10C,0.1270*%
%ADD11C,0.2540*%
%ADD12MACRO1,1X1X0.0000*%
%ADD13MACRO1,0.5X0.8X-90.0000*%
%ADD14MACRO1,0.5X0.8X0.0000*%
%ADD15MACRO1,0.5X0.8X90.0000*%
%ADD16C,0.8000*%
%ADD17MACRO1,1X0.6X-90.0000*%
%ADD18MACRO1,1X0.6X90.0000*%
%ADD19MACRO1,0.55X0.8001X0.0000*%
%ADD20MACRO1,0.55X0.8001X90.0000*%
%ADD21MACRO1,0.7X0.7X-90.0000*%
%ADD22MACRO1,0.7X0.7X90.0000*%
%ADD23MACRO1,2X0.9X0.0000*%
%ADD24MACRO1,2X0.9X-90.0000*%
%ADD25MACRO1,1.33X1.33X90.0000*%
%ADD26MACRO1,1.33X1.33X89.9989*%
%ADD27MACRO1,1.35X2X0.0000*%
%ADD28C,1.6000*%
%ADD29C,3.5000*%
%ADD30C,0.6100*%
%ADD31C,0.6150*%
%ADD32C,0.0178*%

%LPD*%
G36*
X508050Y1086104D02*
G01*
X504342Y1086815D01*
X501142Y1088796D01*
X498856Y1091844D01*
X497890Y1095502D01*
X499059Y1105560D01*
X499059Y1184452D01*
X498348Y1190701D01*
X494385Y1201064D01*
X494741Y1205382D01*
X496824Y1209141D01*
X500278Y1211681D01*
X504443Y1212596D01*
X665429Y1212596D01*
X669645Y1211681D01*
X673100Y1209141D01*
X675132Y1205382D01*
X675487Y1201064D01*
X673455Y1196086D01*
X671576Y1190701D01*
X670864Y1184452D01*
X670864Y1105560D01*
X671982Y1095502D01*
X671017Y1091844D01*
X668782Y1088796D01*
X665581Y1086815D01*
X661873Y1086104D01*
G37*

%LPD*%
G36*
X271221Y1085697D02*
G01*
X266293Y1086104D01*
X212140Y1086104D01*
X208229Y1086866D01*
X204978Y1089101D01*
X202742Y1092352D01*
X201980Y1096264D01*
X202742Y1100175D01*
X204978Y1103426D01*
X208279Y1106779D01*
X213918Y1114806D01*
X218084Y1123746D01*
X220624Y1133195D01*
X221488Y1143000D01*
X220624Y1152804D01*
X218084Y1162253D01*
X213918Y1171194D01*
X207822Y1179830D01*
X199237Y1190904D01*
X197662Y1193850D01*
X197104Y1197152D01*
X197104Y1201724D01*
X197866Y1205636D01*
X200761Y1209598D01*
X204063Y1211834D01*
X207975Y1212596D01*
X275437Y1212596D01*
X279603Y1211681D01*
X283057Y1209141D01*
X285140Y1205382D01*
X285496Y1201064D01*
X281533Y1190701D01*
X280873Y1184452D01*
X280873Y1105560D01*
X282143Y1095248D01*
X281127Y1091336D01*
X278688Y1088186D01*
X275183Y1086205D01*
G37*

%LPD*%
G36*
X372364Y1056843D02*
G01*
X368452Y1057605D01*
X365201Y1059789D01*
X362966Y1063091D01*
X362204Y1067003D01*
X362204Y1071067D01*
X363067Y1075131D01*
X365455Y1078534D01*
X369011Y1080668D01*
X372618Y1081938D01*
X374446Y1083106D01*
X378409Y1084580D01*
X382625Y1084275D01*
X386334Y1082344D01*
X388975Y1079042D01*
X390042Y1074978D01*
X389331Y1070864D01*
X387045Y1067308D01*
X379526Y1059789D01*
X376275Y1057605D01*
G37*

%LPD*%
G36*
X425399Y990600D02*
G01*
X421487Y991362D01*
X418185Y993597D01*
X416001Y996848D01*
X415239Y1000760D01*
X416001Y1004671D01*
X418185Y1007922D01*
X429361Y1019098D01*
X432663Y1021334D01*
X436575Y1022096D01*
X497585Y1022096D01*
X501243Y1021435D01*
X504393Y1019505D01*
X506628Y1016558D01*
X507695Y1013002D01*
X507390Y1009294D01*
X503834Y996289D01*
X501599Y993292D01*
X498398Y991311D01*
X494741Y990600D01*
G37*

%LPD*%
G36*
X625906Y990600D02*
G01*
X621588Y991565D01*
X618083Y994257D01*
X616102Y998219D01*
X613206Y1009396D01*
X612952Y1013053D01*
X614019Y1016609D01*
X616305Y1019505D01*
X619404Y1021435D01*
X623062Y1022096D01*
X685292Y1022096D01*
X692454Y1022858D01*
X698347Y1024788D01*
X702818Y1025194D01*
X706983Y1023619D01*
X710133Y1020419D01*
X711555Y1016152D01*
X711047Y1011732D01*
X708660Y1007922D01*
X701649Y1000912D01*
X695299Y993190D01*
X692150Y991260D01*
X688492Y990600D01*
G37*

%LPD*%
G36*
X1328978Y972413D02*
G01*
X1325372Y973785D01*
X1323594Y974953D01*
X1320647Y977747D01*
X1319022Y981506D01*
X1319022Y985570D01*
X1320647Y989330D01*
X1323594Y992124D01*
X1325626Y993394D01*
X1329537Y994867D01*
X1333754Y994613D01*
X1337462Y992632D01*
X1340104Y989330D01*
X1341932Y984148D01*
X1341678Y980541D01*
X1340104Y977239D01*
X1336446Y973988D01*
X1332890Y972464D01*
G37*

%LPD*%
G36*
X-1338021Y972413D02*
G01*
X-1341628Y973785D01*
X-1343406Y974953D01*
X-1346352Y977747D01*
X-1347978Y981506D01*
X-1347978Y985570D01*
X-1346352Y989330D01*
X-1343406Y992124D01*
X-1341374Y993394D01*
X-1337462Y994867D01*
X-1333246Y994613D01*
X-1329537Y992632D01*
X-1326896Y989330D01*
X-1325067Y984148D01*
X-1325321Y980541D01*
X-1326896Y977239D01*
X-1330553Y973988D01*
X-1334109Y972464D01*
G37*

%LPD*%
G36*
X-1741728Y950163D02*
G01*
X-1745742Y950772D01*
X-1749196Y952957D01*
X-1751533Y956310D01*
X-1752346Y960272D01*
X-1752346Y1071727D01*
X-1751533Y1075690D01*
X-1749196Y1079042D01*
X-1745742Y1081227D01*
X-1741728Y1081836D01*
X-1737817Y1080871D01*
X-1734566Y1078382D01*
X-1725675Y1068324D01*
X-1715312Y1059180D01*
X-1703832Y1051509D01*
X-1691436Y1045413D01*
X-1678330Y1040942D01*
X-1664766Y1038250D01*
X-1651000Y1037386D01*
X-1637233Y1038250D01*
X-1623669Y1040942D01*
X-1610563Y1045413D01*
X-1598168Y1051509D01*
X-1586687Y1059180D01*
X-1576324Y1068324D01*
X-1573784Y1071168D01*
X-1570532Y1073607D01*
X-1566621Y1074623D01*
X-1562608Y1073962D01*
X-1559153Y1071778D01*
X-1556816Y1068476D01*
X-1556004Y1064463D01*
X-1556004Y967536D01*
X-1556816Y963523D01*
X-1559153Y960221D01*
X-1562608Y958037D01*
X-1566621Y957376D01*
X-1570532Y958392D01*
X-1573784Y960831D01*
X-1576324Y963676D01*
X-1586687Y972819D01*
X-1598168Y980490D01*
X-1610563Y986586D01*
X-1623669Y991057D01*
X-1637233Y993749D01*
X-1651000Y994613D01*
X-1664766Y993749D01*
X-1678330Y991057D01*
X-1691436Y986586D01*
X-1703832Y980490D01*
X-1715312Y972819D01*
X-1725675Y963676D01*
X-1734566Y953617D01*
X-1737817Y951128D01*
G37*

%LPD*%
G36*
X-1481836Y752043D02*
G01*
X-1485747Y752805D01*
X-1488998Y754989D01*
X-1491234Y758291D01*
X-1491996Y762203D01*
X-1491996Y1100124D01*
X-1491234Y1104036D01*
X-1488998Y1107338D01*
X-1475638Y1120698D01*
X-1472336Y1122934D01*
X-1468424Y1123696D01*
X-1446326Y1123696D01*
X-1442415Y1122934D01*
X-1439113Y1120698D01*
X-1436878Y1117346D01*
X-1436166Y1113434D01*
X-1436979Y1109522D01*
X-1439265Y1106220D01*
X-1444548Y1101090D01*
X-1447546Y1096314D01*
X-1449476Y1090879D01*
X-1450136Y1084630D01*
X-1450136Y1015796D01*
X-1449476Y1009497D01*
X-1447546Y1004112D01*
X-1444498Y999236D01*
X-1440484Y995222D01*
X-1435608Y992174D01*
X-1429512Y989990D01*
X-1426006Y987907D01*
X-1423619Y984605D01*
X-1422704Y980643D01*
X-1423416Y976630D01*
X-1425651Y973226D01*
X-1428546Y970381D01*
X-1431594Y965504D01*
X-1433474Y960119D01*
X-1434185Y953820D01*
X-1434185Y940765D01*
X-1402384Y940765D01*
X-1402384Y979373D01*
X-1401622Y983284D01*
X-1399438Y986586D01*
X-1396136Y988771D01*
X-1392224Y989533D01*
X-1374851Y989533D01*
X-1370939Y988771D01*
X-1367688Y986586D01*
X-1365453Y983284D01*
X-1364691Y979373D01*
X-1364691Y940765D01*
X-1344371Y940765D01*
X-1340459Y940003D01*
X-1337157Y937768D01*
X-1334973Y934466D01*
X-1334211Y930605D01*
X-1334211Y898194D01*
X-1334973Y894334D01*
X-1337157Y891032D01*
X-1340459Y888847D01*
X-1344371Y888034D01*
X-1364691Y888034D01*
X-1364691Y848766D01*
X-1359103Y848766D01*
X-1352854Y849477D01*
X-1347419Y851357D01*
X-1342593Y854405D01*
X-1340713Y856284D01*
X-1337411Y858469D01*
X-1333550Y859231D01*
X-1329639Y858469D01*
X-1326337Y856284D01*
X-1324508Y854405D01*
X-1319631Y851357D01*
X-1314246Y849477D01*
X-1307947Y848766D01*
X-1259128Y848766D01*
X-1252829Y849477D01*
X-1247444Y851357D01*
X-1242568Y854405D01*
X-1238554Y858469D01*
X-1234998Y864057D01*
X-1233220Y866190D01*
X-1230934Y867765D01*
X-1216507Y874979D01*
X-1211986Y876046D01*
X-1181608Y876046D01*
X-1173632Y876808D01*
X-1166418Y878992D01*
X-1159814Y882548D01*
X-1153617Y887628D01*
X-1138580Y902716D01*
X-1134719Y905103D01*
X-1123188Y909116D01*
X-1111046Y912215D01*
X-1102106Y916381D01*
X-1094079Y922019D01*
X-1087120Y928979D01*
X-1081481Y937006D01*
X-1077315Y945946D01*
X-1074775Y955395D01*
X-1073912Y965200D01*
X-1074775Y975004D01*
X-1077315Y984453D01*
X-1081481Y993394D01*
X-1087120Y1001420D01*
X-1094079Y1008380D01*
X-1102106Y1014018D01*
X-1111046Y1018184D01*
X-1120495Y1020724D01*
X-1130300Y1021587D01*
X-1140104Y1020724D01*
X-1149553Y1018184D01*
X-1158494Y1014018D01*
X-1166520Y1008380D01*
X-1173480Y1001420D01*
X-1179118Y993394D01*
X-1183284Y984453D01*
X-1186383Y972312D01*
X-1190396Y960780D01*
X-1192784Y956919D01*
X-1194003Y955751D01*
X-1197305Y953516D01*
X-1201216Y952753D01*
X-1211986Y952753D01*
X-1216507Y953820D01*
X-1229664Y960424D01*
X-1233170Y963269D01*
X-1235049Y967384D01*
X-1236675Y974801D01*
X-1236827Y978204D01*
X-1235811Y981506D01*
X-1230122Y992886D01*
X-1228242Y995527D01*
X-1224483Y999236D01*
X-1221435Y1004112D01*
X-1219555Y1009497D01*
X-1218844Y1015796D01*
X-1218844Y1084630D01*
X-1220216Y1094587D01*
X-1219555Y1098042D01*
X-1217828Y1101039D01*
X-1215136Y1103274D01*
X-1213002Y1104544D01*
X-1208989Y1107948D01*
X-1171549Y1145387D01*
X-1167028Y1150975D01*
X-1163980Y1156970D01*
X-1162202Y1163523D01*
X-1161796Y1168806D01*
X-1161796Y1290624D01*
X-1161034Y1294536D01*
X-1158798Y1297838D01*
X-1069238Y1387398D01*
X-1065936Y1389634D01*
X-1062024Y1390396D01*
X-1018286Y1390396D01*
X-1014221Y1389532D01*
X-1010818Y1387094D01*
X-1008684Y1383487D01*
X-1008176Y1379372D01*
X-1008887Y1371600D01*
X-1008024Y1361795D01*
X-1005484Y1352346D01*
X-1001318Y1343406D01*
X-998474Y1339342D01*
X-996797Y1335532D01*
X-996797Y1331468D01*
X-998474Y1327658D01*
X-1001318Y1323594D01*
X-1005484Y1314653D01*
X-1008024Y1305204D01*
X-1008887Y1295400D01*
X-1008024Y1285595D01*
X-1005484Y1276146D01*
X-1001318Y1267206D01*
X-995680Y1259179D01*
X-988720Y1252220D01*
X-980694Y1246581D01*
X-971753Y1242415D01*
X-962304Y1239875D01*
X-952500Y1239012D01*
X-942695Y1239875D01*
X-933246Y1242415D01*
X-924306Y1246581D01*
X-916279Y1252220D01*
X-909319Y1259179D01*
X-903681Y1267206D01*
X-899515Y1276146D01*
X-896924Y1285798D01*
X-894486Y1305153D01*
X-893521Y1308354D01*
X-891590Y1311046D01*
X-866038Y1336598D01*
X-862736Y1338834D01*
X-858824Y1339596D01*
X-761441Y1339596D01*
X-757783Y1338935D01*
X-754634Y1337005D01*
X-752398Y1334058D01*
X-751332Y1330502D01*
X-751636Y1326794D01*
X-754024Y1317904D01*
X-754888Y1308100D01*
X-754024Y1298295D01*
X-751484Y1288846D01*
X-747318Y1279906D01*
X-743559Y1274368D01*
X-739546Y1265986D01*
X-738632Y1263040D01*
X-738682Y1259941D01*
X-739597Y1257046D01*
X-744474Y1247343D01*
X-746810Y1244244D01*
X-750214Y1242314D01*
X-752602Y1241450D01*
X-757478Y1238402D01*
X-761492Y1234338D01*
X-764540Y1229512D01*
X-766470Y1224076D01*
X-767130Y1217828D01*
X-767130Y1118971D01*
X-766470Y1112723D01*
X-764540Y1107287D01*
X-761492Y1102461D01*
X-757478Y1098397D01*
X-752602Y1095349D01*
X-747217Y1093470D01*
X-740918Y1092758D01*
X-642061Y1092758D01*
X-635812Y1093470D01*
X-630377Y1095349D01*
X-625551Y1098397D01*
X-621487Y1102461D01*
X-618439Y1107287D01*
X-616559Y1112723D01*
X-615848Y1118971D01*
X-615848Y1217828D01*
X-616559Y1224076D01*
X-618439Y1229512D01*
X-621487Y1234338D01*
X-625551Y1238402D01*
X-630377Y1241450D01*
X-635812Y1243330D01*
X-642061Y1244041D01*
X-644601Y1244041D01*
X-648258Y1244752D01*
X-651459Y1246682D01*
X-653694Y1249680D01*
X-657402Y1257046D01*
X-658317Y1259941D01*
X-658368Y1263040D01*
X-657453Y1265986D01*
X-652576Y1275791D01*
X-649681Y1279906D01*
X-645515Y1288846D01*
X-642975Y1298295D01*
X-642112Y1308100D01*
X-642975Y1317904D01*
X-645363Y1326794D01*
X-645668Y1330502D01*
X-644601Y1334058D01*
X-642366Y1337005D01*
X-639216Y1338935D01*
X-635558Y1339596D01*
X-507441Y1339596D01*
X-503783Y1338935D01*
X-500634Y1337005D01*
X-498398Y1334058D01*
X-497332Y1330502D01*
X-497636Y1326794D01*
X-500024Y1317904D01*
X-500888Y1308100D01*
X-500024Y1298295D01*
X-497484Y1288846D01*
X-493318Y1279906D01*
X-489559Y1274368D01*
X-485546Y1265986D01*
X-484632Y1263040D01*
X-484682Y1259941D01*
X-485597Y1257046D01*
X-489305Y1249680D01*
X-491540Y1246682D01*
X-494741Y1244752D01*
X-498398Y1244041D01*
X-500938Y1244041D01*
X-507187Y1243330D01*
X-512622Y1241450D01*
X-517448Y1238402D01*
X-521512Y1234338D01*
X-524560Y1229512D01*
X-526440Y1224076D01*
X-527151Y1217828D01*
X-527151Y1118971D01*
X-526440Y1112723D01*
X-524560Y1107287D01*
X-521512Y1102461D01*
X-517448Y1098397D01*
X-512622Y1095349D01*
X-507187Y1093470D01*
X-500938Y1092758D01*
X-402082Y1092758D01*
X-395782Y1093470D01*
X-390398Y1095349D01*
X-385521Y1098397D01*
X-381508Y1102461D01*
X-378460Y1107287D01*
X-376529Y1112723D01*
X-375869Y1118971D01*
X-375869Y1217828D01*
X-376529Y1224076D01*
X-378460Y1229512D01*
X-381508Y1234338D01*
X-385521Y1238402D01*
X-390398Y1241450D01*
X-392836Y1242314D01*
X-396189Y1244244D01*
X-398526Y1247343D01*
X-403402Y1257046D01*
X-404317Y1259941D01*
X-404368Y1263040D01*
X-403453Y1265986D01*
X-398576Y1275791D01*
X-395681Y1279906D01*
X-391515Y1288846D01*
X-388975Y1298295D01*
X-388112Y1308100D01*
X-388975Y1317904D01*
X-391363Y1326794D01*
X-391668Y1330502D01*
X-390601Y1334058D01*
X-388366Y1337005D01*
X-385216Y1338935D01*
X-381558Y1339596D01*
X884224Y1339596D01*
X888136Y1338834D01*
X891438Y1336598D01*
X904798Y1323238D01*
X907034Y1319936D01*
X907796Y1316024D01*
X907796Y1194866D01*
X906983Y1190904D01*
X904697Y1187551D01*
X901293Y1185367D01*
X897331Y1184706D01*
X893368Y1185621D01*
X890117Y1188008D01*
X888034Y1191514D01*
X886460Y1196086D01*
X883412Y1200962D01*
X879348Y1205026D01*
X871016Y1210259D01*
X868730Y1213561D01*
X867918Y1217574D01*
X867918Y1220978D01*
X867156Y1228140D01*
X865124Y1234490D01*
X861669Y1240383D01*
X858266Y1244396D01*
X835812Y1266850D01*
X830224Y1271371D01*
X824230Y1274419D01*
X817676Y1276197D01*
X812393Y1276604D01*
X191008Y1276604D01*
X183845Y1275842D01*
X177495Y1273810D01*
X171602Y1270355D01*
X167589Y1266952D01*
X142849Y1242212D01*
X138328Y1236624D01*
X135280Y1230630D01*
X133502Y1224076D01*
X133096Y1218793D01*
X133096Y1210767D01*
X132334Y1206906D01*
X130098Y1203604D01*
X126847Y1201369D01*
X122935Y1200607D01*
X119024Y1201369D01*
X115773Y1203604D01*
X114350Y1205026D01*
X109474Y1208074D01*
X104089Y1209954D01*
X97790Y1210665D01*
X43942Y1210665D01*
X37693Y1209954D01*
X32258Y1208074D01*
X27432Y1205026D01*
X22555Y1200150D01*
X19253Y1197965D01*
X14478Y1197152D01*
X10617Y1197965D01*
X7315Y1200150D01*
X2438Y1205026D01*
X-2387Y1208074D01*
X-7823Y1209954D01*
X-14071Y1210665D01*
X-67919Y1210665D01*
X-74168Y1209954D01*
X-79603Y1208074D01*
X-84429Y1205026D01*
X-88493Y1200962D01*
X-91541Y1196086D01*
X-93472Y1190701D01*
X-94132Y1184452D01*
X-94132Y1105560D01*
X-93472Y1099312D01*
X-91541Y1093876D01*
X-88493Y1089050D01*
X-84429Y1084986D01*
X-79603Y1081938D01*
X-75488Y1080008D01*
X-73355Y1077772D01*
X-71932Y1075029D01*
X-70104Y1069289D01*
X-66649Y1063396D01*
X-63246Y1059383D01*
X-35712Y1031849D01*
X-30124Y1027328D01*
X-24130Y1024280D01*
X-17576Y1022502D01*
X-12293Y1022096D01*
X249224Y1022096D01*
X253136Y1021334D01*
X256438Y1019098D01*
X267614Y1007922D01*
X269798Y1004671D01*
X270560Y1000760D01*
X269798Y996848D01*
X267614Y993597D01*
X264312Y991362D01*
X260400Y990600D01*
X-875284Y990600D01*
X-876300Y989584D01*
X-876300Y848309D01*
X-877062Y844448D01*
X-879297Y841146D01*
X-882548Y838911D01*
X-886460Y838149D01*
X-926185Y838149D01*
X-930097Y838911D01*
X-933399Y841146D01*
X-935583Y844448D01*
X-936345Y848309D01*
X-936345Y865632D01*
X-1005636Y865632D01*
X-1005636Y850087D01*
X-1004976Y843787D01*
X-1003046Y838403D01*
X-1001826Y836421D01*
X-1000404Y832916D01*
X-1000404Y829106D01*
X-1001826Y825601D01*
X-1003046Y823620D01*
X-1004976Y818184D01*
X-1005636Y811936D01*
X-1005636Y791464D01*
X-1006449Y787552D01*
X-1008634Y784301D01*
X-1011936Y782066D01*
X-1015796Y781304D01*
X-1434592Y781304D01*
X-1441754Y780542D01*
X-1448104Y778510D01*
X-1453997Y775055D01*
X-1458010Y771652D01*
X-1474673Y754989D01*
X-1477924Y752805D01*
G37*

%LPC*%
G36*
X-1407972Y848766D02*
G01*
X-1402384Y848766D01*
X-1402384Y888034D01*
X-1434185Y888034D01*
X-1434185Y874979D01*
X-1433474Y868730D01*
X-1431594Y863295D01*
X-1428546Y858469D01*
X-1424482Y854405D01*
X-1419656Y851357D01*
X-1414221Y849477D01*
G37*
G36*
X-1005636Y923340D02*
G01*
X-936345Y923340D01*
X-936345Y965149D01*
X-979424Y965149D01*
X-985723Y964437D01*
X-991108Y962558D01*
X-995984Y959510D01*
X-999998Y955446D01*
X-1003046Y950620D01*
X-1004976Y945184D01*
X-1005636Y938936D01*
G37*
G36*
X-874521Y1086612D02*
G01*
X-864514Y1086612D01*
X-854659Y1088288D01*
X-845159Y1091539D01*
X-836371Y1096264D01*
X-828446Y1102461D01*
X-821690Y1109827D01*
X-816203Y1118209D01*
X-812190Y1127353D01*
X-809701Y1137056D01*
X-808888Y1147013D01*
X-809701Y1157020D01*
X-812190Y1166723D01*
X-816203Y1175867D01*
X-821690Y1184249D01*
X-828446Y1191615D01*
X-836371Y1197813D01*
X-845159Y1202537D01*
X-854659Y1205788D01*
X-864514Y1207465D01*
X-874521Y1207465D01*
X-884377Y1205788D01*
X-893876Y1202537D01*
X-902665Y1197813D01*
X-910590Y1191615D01*
X-917346Y1184249D01*
X-922832Y1175867D01*
X-926846Y1166723D01*
X-929335Y1157020D01*
X-930148Y1147013D01*
X-929335Y1137056D01*
X-926846Y1127353D01*
X-922832Y1118209D01*
X-917346Y1109827D01*
X-910590Y1102461D01*
X-902665Y1096264D01*
X-893876Y1091539D01*
X-884377Y1088288D01*
G37*
G36*
X-278536Y1086612D02*
G01*
X-268478Y1086612D01*
X-258622Y1088288D01*
X-249174Y1091539D01*
X-240334Y1096264D01*
X-232460Y1102461D01*
X-225653Y1109827D01*
X-220217Y1118209D01*
X-216154Y1127353D01*
X-213715Y1137056D01*
X-212902Y1147013D01*
X-213715Y1157020D01*
X-216154Y1166723D01*
X-220217Y1175867D01*
X-225653Y1184249D01*
X-232460Y1191615D01*
X-240334Y1197813D01*
X-249174Y1202537D01*
X-258622Y1205788D01*
X-268478Y1207465D01*
X-278536Y1207465D01*
X-288391Y1205788D01*
X-297840Y1202537D01*
X-306679Y1197813D01*
X-314553Y1191615D01*
X-321360Y1184249D01*
X-326796Y1175867D01*
X-330860Y1166723D01*
X-333298Y1157020D01*
X-334111Y1147013D01*
X-333298Y1137056D01*
X-330860Y1127353D01*
X-326796Y1118209D01*
X-321360Y1109827D01*
X-314553Y1102461D01*
X-306679Y1096264D01*
X-297840Y1091539D01*
X-288391Y1088288D01*
G37*

%LPD*%
G36*
X1121664Y702919D02*
G01*
X1117955Y703834D01*
X1111707Y706780D01*
X1103376Y709015D01*
X1099667Y710895D01*
X1096975Y714095D01*
X1095857Y718058D01*
X1096416Y722223D01*
X1098550Y725728D01*
X1101953Y728167D01*
X1106017Y728980D01*
X1122934Y728929D01*
X1127099Y728014D01*
X1130503Y725474D01*
X1132586Y721817D01*
X1132992Y717600D01*
X1132382Y711911D01*
X1131214Y708253D01*
X1128826Y705307D01*
X1125474Y703427D01*
G37*

%LPD*%
G36*
X-1741728Y696163D02*
G01*
X-1745742Y696772D01*
X-1749196Y698957D01*
X-1751533Y702310D01*
X-1752346Y706272D01*
X-1752346Y817727D01*
X-1751533Y821690D01*
X-1749196Y825042D01*
X-1745742Y827227D01*
X-1741728Y827836D01*
X-1737817Y826871D01*
X-1734566Y824382D01*
X-1725675Y814324D01*
X-1715312Y805180D01*
X-1703832Y797509D01*
X-1691436Y791413D01*
X-1678330Y786942D01*
X-1664766Y784250D01*
X-1651000Y783386D01*
X-1637233Y784250D01*
X-1623669Y786942D01*
X-1610563Y791413D01*
X-1598168Y797509D01*
X-1586687Y805180D01*
X-1576324Y814324D01*
X-1573784Y817168D01*
X-1570532Y819607D01*
X-1566621Y820623D01*
X-1562608Y819962D01*
X-1559153Y817778D01*
X-1556816Y814476D01*
X-1556004Y810463D01*
X-1556004Y713536D01*
X-1556816Y709523D01*
X-1559153Y706221D01*
X-1562608Y704037D01*
X-1566621Y703376D01*
X-1570532Y704392D01*
X-1573784Y706831D01*
X-1576324Y709676D01*
X-1586687Y718820D01*
X-1598168Y726490D01*
X-1610563Y732586D01*
X-1623669Y737057D01*
X-1637233Y739749D01*
X-1651000Y740613D01*
X-1664766Y739749D01*
X-1678330Y737057D01*
X-1691436Y732586D01*
X-1703832Y726490D01*
X-1715312Y718820D01*
X-1725675Y709676D01*
X-1734566Y699617D01*
X-1737817Y697128D01*
G37*

%LPD*%
G36*
X-1235151Y616661D02*
G01*
X-1238504Y616864D01*
X-1241653Y618185D01*
X-1246682Y621334D01*
X-1249222Y623620D01*
X-1250899Y626567D01*
X-1251458Y629920D01*
X-1251458Y707136D01*
X-1250696Y711047D01*
X-1248460Y714298D01*
X-1245209Y716534D01*
X-1241298Y717296D01*
X-1012342Y717296D01*
X-1008938Y716737D01*
X-1005992Y715060D01*
X-1003706Y712520D01*
X-1001776Y709371D01*
X-1000404Y705866D01*
X-1000404Y702106D01*
X-1001776Y698601D01*
X-1003046Y696620D01*
X-1004976Y691184D01*
X-1005636Y684936D01*
X-1005636Y682498D01*
X-1006449Y678586D01*
X-1008634Y675335D01*
X-1011936Y673100D01*
X-1015796Y672338D01*
X-1162558Y672338D01*
X-1169720Y671576D01*
X-1176070Y669544D01*
X-1181963Y666089D01*
X-1185976Y662686D01*
X-1229055Y619607D01*
X-1231849Y617626D01*
G37*

%LPD*%
G36*
X-1333601Y613918D02*
G01*
X-1337462Y614730D01*
X-1340764Y616915D01*
X-1342644Y618794D01*
X-1347470Y621842D01*
X-1352905Y623722D01*
X-1359154Y624433D01*
X-1408023Y624433D01*
X-1414272Y623722D01*
X-1419656Y621842D01*
X-1425600Y618083D01*
X-1429613Y616610D01*
X-1433931Y616915D01*
X-1437690Y618998D01*
X-1440281Y622452D01*
X-1441196Y626668D01*
X-1441196Y693724D01*
X-1440434Y697636D01*
X-1438198Y700938D01*
X-1424838Y714298D01*
X-1421536Y716534D01*
X-1417624Y717296D01*
X-1325626Y717296D01*
X-1321714Y716534D01*
X-1318463Y714298D01*
X-1316228Y711047D01*
X-1315466Y707136D01*
X-1315466Y630072D01*
X-1316024Y626719D01*
X-1317701Y623773D01*
X-1320241Y621487D01*
X-1324559Y618794D01*
X-1326388Y616915D01*
X-1329690Y614730D01*
G37*

%LPD*%
G36*
X-1331823Y464820D02*
G01*
X-1335278Y466090D01*
X-1338072Y468528D01*
X-1339799Y471779D01*
X-1342288Y479450D01*
X-1342796Y482549D01*
X-1342288Y485648D01*
X-1339799Y493369D01*
X-1338072Y496620D01*
X-1335278Y499008D01*
X-1331823Y500278D01*
X-1328166Y500227D01*
X-1324711Y498856D01*
X-1319682Y495706D01*
X-1314297Y493826D01*
X-1307998Y493115D01*
X-1259179Y493115D01*
X-1252880Y493826D01*
X-1248206Y494690D01*
X-1244447Y493776D01*
X-1241298Y491540D01*
X-1239215Y488340D01*
X-1238504Y484530D01*
X-1238504Y480618D01*
X-1239215Y476808D01*
X-1241298Y473557D01*
X-1244447Y471322D01*
X-1248206Y470458D01*
X-1252880Y471322D01*
X-1259179Y472033D01*
X-1307998Y472033D01*
X-1314297Y471322D01*
X-1319682Y469442D01*
X-1324711Y466242D01*
X-1328166Y464870D01*
G37*

%LPD*%
G36*
X-1741728Y442163D02*
G01*
X-1745742Y442772D01*
X-1749196Y444957D01*
X-1751533Y448309D01*
X-1752346Y452272D01*
X-1752346Y563727D01*
X-1751533Y567690D01*
X-1749196Y571042D01*
X-1745742Y573227D01*
X-1741728Y573836D01*
X-1737817Y572871D01*
X-1734566Y570382D01*
X-1725675Y560324D01*
X-1715312Y551180D01*
X-1703832Y543509D01*
X-1691436Y537413D01*
X-1678330Y532942D01*
X-1664766Y530250D01*
X-1651000Y529386D01*
X-1637233Y530250D01*
X-1623669Y532942D01*
X-1610563Y537413D01*
X-1598168Y543509D01*
X-1586687Y551180D01*
X-1576324Y560324D01*
X-1573784Y563168D01*
X-1570532Y565607D01*
X-1566621Y566623D01*
X-1562608Y565962D01*
X-1559153Y563778D01*
X-1556816Y560476D01*
X-1556004Y556463D01*
X-1556004Y459536D01*
X-1556816Y455523D01*
X-1559153Y452221D01*
X-1562608Y450037D01*
X-1566621Y449376D01*
X-1570532Y450392D01*
X-1573784Y452831D01*
X-1576324Y455676D01*
X-1586687Y464820D01*
X-1598168Y472490D01*
X-1610563Y478586D01*
X-1623669Y483057D01*
X-1637233Y485749D01*
X-1651000Y486613D01*
X-1664766Y485749D01*
X-1678330Y483057D01*
X-1691436Y478586D01*
X-1703832Y472490D01*
X-1715312Y464820D01*
X-1725675Y455676D01*
X-1734566Y445617D01*
X-1737817Y443128D01*
G37*

%LPD*%
G36*
X1521714Y419354D02*
G01*
X1517802Y420116D01*
X1514551Y422351D01*
X1512316Y425602D01*
X1511554Y429514D01*
X1511554Y634492D01*
X1510792Y642467D01*
X1508607Y649681D01*
X1505051Y656285D01*
X1499971Y662482D01*
X1488998Y673455D01*
X1486611Y677164D01*
X1486052Y681532D01*
X1487373Y685698D01*
X1490370Y688949D01*
X1496720Y693420D01*
X1503680Y700379D01*
X1509318Y708406D01*
X1513484Y717346D01*
X1516024Y726795D01*
X1516888Y736600D01*
X1516024Y746404D01*
X1513484Y755853D01*
X1509318Y764794D01*
X1505559Y770331D01*
X1499870Y782218D01*
X1498854Y786638D01*
X1498854Y875792D01*
X1498092Y883767D01*
X1495907Y890981D01*
X1492351Y897585D01*
X1487271Y903782D01*
X1449882Y941171D01*
X1443685Y946251D01*
X1439926Y948232D01*
X1436522Y951179D01*
X1434338Y954786D01*
X1433423Y960374D01*
X1430324Y974801D01*
X1430172Y978204D01*
X1431188Y981506D01*
X1436878Y992886D01*
X1438757Y995527D01*
X1442516Y999236D01*
X1445564Y1004112D01*
X1447444Y1009497D01*
X1448155Y1015796D01*
X1448155Y1084630D01*
X1447444Y1090879D01*
X1445564Y1096314D01*
X1442516Y1101140D01*
X1438452Y1105204D01*
X1433626Y1108252D01*
X1428191Y1110183D01*
X1421942Y1110843D01*
X1353058Y1110843D01*
X1346809Y1110183D01*
X1341374Y1108252D01*
X1337919Y1106068D01*
X1334363Y1104696D01*
X1330604Y1104696D01*
X1327099Y1106068D01*
X1323594Y1108252D01*
X1318209Y1110183D01*
X1311910Y1110843D01*
X1243076Y1110843D01*
X1236776Y1110183D01*
X1231392Y1108252D01*
X1226566Y1105255D01*
X1221587Y1100175D01*
X1217828Y1097737D01*
X1213459Y1097178D01*
X1206500Y1097788D01*
X1196695Y1096924D01*
X1187246Y1094384D01*
X1178306Y1090218D01*
X1170279Y1084580D01*
X1163320Y1077620D01*
X1157681Y1069594D01*
X1153515Y1060653D01*
X1150975Y1051204D01*
X1150112Y1041400D01*
X1150975Y1031595D01*
X1153515Y1022146D01*
X1157681Y1013206D01*
X1163320Y1005179D01*
X1170279Y998219D01*
X1178306Y992581D01*
X1187246Y988415D01*
X1196695Y985875D01*
X1206500Y985012D01*
X1216304Y985875D01*
X1225753Y988415D01*
X1229004Y989939D01*
X1232763Y990853D01*
X1237488Y989990D01*
X1240993Y987907D01*
X1243380Y984605D01*
X1244295Y980643D01*
X1243584Y976630D01*
X1241348Y973226D01*
X1238453Y970381D01*
X1235405Y965504D01*
X1233525Y960119D01*
X1232814Y953820D01*
X1232814Y940765D01*
X1264615Y940765D01*
X1264615Y979373D01*
X1265377Y983284D01*
X1267561Y986586D01*
X1270863Y988771D01*
X1274775Y989533D01*
X1292148Y989533D01*
X1296060Y988771D01*
X1299311Y986586D01*
X1301546Y983284D01*
X1302308Y979373D01*
X1302308Y940765D01*
X1322628Y940765D01*
X1326540Y940003D01*
X1329842Y937768D01*
X1332026Y934466D01*
X1332788Y930605D01*
X1332788Y898194D01*
X1332026Y894334D01*
X1329842Y891032D01*
X1326540Y888847D01*
X1322628Y888034D01*
X1302308Y888034D01*
X1302308Y848766D01*
X1307896Y848766D01*
X1314145Y849477D01*
X1319580Y851357D01*
X1324406Y854405D01*
X1326286Y856284D01*
X1329588Y858469D01*
X1333449Y859231D01*
X1337360Y858469D01*
X1340662Y856284D01*
X1342491Y854405D01*
X1347368Y851357D01*
X1352753Y849477D01*
X1359052Y848766D01*
X1407871Y848766D01*
X1410868Y849071D01*
X1415084Y848664D01*
X1418742Y846582D01*
X1421282Y843127D01*
X1422146Y839012D01*
X1422146Y786638D01*
X1421130Y782218D01*
X1415440Y770331D01*
X1412849Y766470D01*
X1409598Y763473D01*
X1405432Y762152D01*
X1401064Y762711D01*
X1397355Y765098D01*
X1368348Y794105D01*
X1362151Y799185D01*
X1355547Y802741D01*
X1348333Y804926D01*
X1340358Y805688D01*
X1167993Y805688D01*
X1164082Y806450D01*
X1160780Y808685D01*
X1158595Y811936D01*
X1157833Y815848D01*
X1157833Y850747D01*
X1157122Y856996D01*
X1155242Y862431D01*
X1152194Y867257D01*
X1150315Y869137D01*
X1148130Y872439D01*
X1147318Y876300D01*
X1148130Y880211D01*
X1150315Y883513D01*
X1152194Y885342D01*
X1155242Y890219D01*
X1157122Y895603D01*
X1157833Y901852D01*
X1157833Y907440D01*
X1118514Y907440D01*
X1118514Y887120D01*
X1117752Y883208D01*
X1115568Y879957D01*
X1112266Y877722D01*
X1108354Y876960D01*
X1075994Y876960D01*
X1072083Y877722D01*
X1068781Y879957D01*
X1066596Y883208D01*
X1065834Y887120D01*
X1065834Y907440D01*
X1026515Y907440D01*
X1026515Y901852D01*
X1027226Y895603D01*
X1029106Y890219D01*
X1032154Y885342D01*
X1034034Y883513D01*
X1036218Y880211D01*
X1036980Y876300D01*
X1036218Y872439D01*
X1034034Y869137D01*
X1032154Y867257D01*
X1029106Y862431D01*
X1027226Y856996D01*
X1026515Y850747D01*
X1026515Y820928D01*
X1025702Y816914D01*
X1023315Y813562D01*
X1019860Y811428D01*
X1015796Y810818D01*
X1011834Y811834D01*
X1009853Y812850D01*
X1006754Y815238D01*
X1004773Y818591D01*
X1003046Y823620D01*
X1001776Y825601D01*
X1000404Y829106D01*
X1000404Y832866D01*
X1001776Y836421D01*
X1003046Y838403D01*
X1004925Y843787D01*
X1005636Y850036D01*
X1005636Y865632D01*
X936345Y865632D01*
X936345Y848309D01*
X935532Y844397D01*
X933348Y841146D01*
X930046Y838911D01*
X926185Y838149D01*
X886460Y838149D01*
X882548Y838911D01*
X879297Y841146D01*
X877062Y844397D01*
X876300Y848309D01*
X876300Y973836D01*
X877062Y977747D01*
X879297Y980998D01*
X882548Y983234D01*
X886460Y983996D01*
X913892Y983996D01*
X921054Y984758D01*
X927404Y986790D01*
X933297Y990244D01*
X937310Y993648D01*
X987450Y1043787D01*
X991971Y1049375D01*
X995019Y1055370D01*
X996797Y1061923D01*
X997203Y1067206D01*
X997203Y1316736D01*
X997966Y1320647D01*
X1000201Y1323898D01*
X1003452Y1326134D01*
X1007364Y1326896D01*
X1316024Y1326896D01*
X1319936Y1326134D01*
X1323238Y1323898D01*
X1341272Y1305864D01*
X1343355Y1302867D01*
X1344218Y1299362D01*
X1343812Y1295755D01*
X1342186Y1292504D01*
X1337919Y1289100D01*
X1334363Y1287678D01*
X1330604Y1287678D01*
X1327099Y1289100D01*
X1323594Y1291285D01*
X1318209Y1293164D01*
X1311910Y1293876D01*
X1301343Y1293876D01*
X1301343Y1257046D01*
X1316685Y1257046D01*
X1320596Y1256284D01*
X1323848Y1254099D01*
X1326083Y1250797D01*
X1326845Y1246886D01*
X1326845Y1219504D01*
X1326083Y1215644D01*
X1323848Y1212342D01*
X1320596Y1210157D01*
X1316685Y1209344D01*
X1301343Y1209344D01*
X1301343Y1172565D01*
X1311910Y1172565D01*
X1318209Y1173276D01*
X1323594Y1175156D01*
X1327099Y1177340D01*
X1330604Y1178712D01*
X1334363Y1178712D01*
X1337919Y1177340D01*
X1341374Y1175156D01*
X1346809Y1173276D01*
X1353058Y1172565D01*
X1421942Y1172565D01*
X1428191Y1173276D01*
X1433626Y1175156D01*
X1438452Y1178204D01*
X1442516Y1182268D01*
X1445564Y1187094D01*
X1447444Y1192530D01*
X1448155Y1198778D01*
X1448155Y1267663D01*
X1447444Y1273911D01*
X1445564Y1279296D01*
X1442516Y1284173D01*
X1438452Y1288237D01*
X1433626Y1291285D01*
X1427124Y1293520D01*
X1423517Y1295704D01*
X1421130Y1299159D01*
X1419656Y1303731D01*
X1418844Y1311452D01*
X1416812Y1317802D01*
X1413357Y1323695D01*
X1409954Y1327708D01*
X1385874Y1351737D01*
X1383588Y1355394D01*
X1382928Y1359662D01*
X1384147Y1363776D01*
X1386992Y1367078D01*
X1390904Y1368856D01*
X1395222Y1368907D01*
X1399133Y1367129D01*
X1401724Y1365199D01*
X1401724Y1401673D01*
X1365199Y1401673D01*
X1368653Y1397050D01*
X1370380Y1393291D01*
X1370482Y1389126D01*
X1368856Y1385265D01*
X1365859Y1382369D01*
X1361948Y1380947D01*
X1357782Y1381201D01*
X1354074Y1383131D01*
X1350924Y1385671D01*
X1344930Y1388719D01*
X1338376Y1390497D01*
X1333093Y1390904D01*
X1008075Y1390904D01*
X1004163Y1391666D01*
X1000861Y1393901D01*
X950112Y1444650D01*
X944524Y1449171D01*
X938530Y1452219D01*
X931976Y1453997D01*
X926693Y1454404D01*
X-1078992Y1454404D01*
X-1086154Y1453642D01*
X-1092504Y1451610D01*
X-1098397Y1448155D01*
X-1102410Y1444752D01*
X-1216050Y1331112D01*
X-1220571Y1325524D01*
X-1223619Y1319530D01*
X-1225397Y1312976D01*
X-1225804Y1307693D01*
X-1225804Y1302918D01*
X-1226718Y1298752D01*
X-1229258Y1295298D01*
X-1232966Y1293215D01*
X-1237234Y1292860D01*
X-1245158Y1293876D01*
X-1313942Y1293876D01*
X-1320190Y1293164D01*
X-1325626Y1291285D01*
X-1329080Y1289100D01*
X-1332636Y1287678D01*
X-1336395Y1287678D01*
X-1339900Y1289100D01*
X-1343406Y1291285D01*
X-1348790Y1293164D01*
X-1355090Y1293876D01*
X-1365656Y1293876D01*
X-1365656Y1257046D01*
X-1350314Y1257046D01*
X-1346403Y1256284D01*
X-1343152Y1254099D01*
X-1340916Y1250797D01*
X-1340154Y1246886D01*
X-1340154Y1219504D01*
X-1340916Y1215644D01*
X-1343152Y1212342D01*
X-1346403Y1210157D01*
X-1350314Y1209344D01*
X-1365656Y1209344D01*
X-1365656Y1197864D01*
X-1366418Y1193952D01*
X-1368653Y1190701D01*
X-1371904Y1188466D01*
X-1375816Y1187704D01*
X-1403197Y1187704D01*
X-1407058Y1188466D01*
X-1410360Y1190701D01*
X-1412595Y1193952D01*
X-1413357Y1197864D01*
X-1413357Y1209344D01*
X-1450136Y1209344D01*
X-1450136Y1197864D01*
X-1450898Y1194003D01*
X-1453083Y1190701D01*
X-1456385Y1188466D01*
X-1460296Y1187704D01*
X-1485392Y1187704D01*
X-1492554Y1186942D01*
X-1498904Y1184910D01*
X-1504797Y1181455D01*
X-1508810Y1178052D01*
X-1530146Y1156716D01*
X-1533804Y1154379D01*
X-1538122Y1153769D01*
X-1542288Y1155039D01*
X-1545539Y1157935D01*
X-1547317Y1161897D01*
X-1548942Y1170330D01*
X-1553413Y1183436D01*
X-1559509Y1195832D01*
X-1567180Y1207312D01*
X-1576324Y1217676D01*
X-1586687Y1226820D01*
X-1598168Y1234490D01*
X-1610563Y1240586D01*
X-1623669Y1245057D01*
X-1637233Y1247749D01*
X-1651000Y1248613D01*
X-1664766Y1247749D01*
X-1678330Y1245057D01*
X-1691436Y1240586D01*
X-1703832Y1234490D01*
X-1715312Y1226820D01*
X-1725675Y1217676D01*
X-1734566Y1207617D01*
X-1737817Y1205128D01*
X-1741728Y1204163D01*
X-1745742Y1204772D01*
X-1749196Y1206957D01*
X-1751533Y1210310D01*
X-1752346Y1214272D01*
X-1752346Y1527251D01*
X-1751431Y1547977D01*
X-1748840Y1567383D01*
X-1744522Y1586484D01*
X-1738630Y1605127D01*
X-1731111Y1623212D01*
X-1722018Y1640535D01*
X-1711502Y1656994D01*
X-1699564Y1672539D01*
X-1686306Y1686915D01*
X-1671828Y1700123D01*
X-1656283Y1712010D01*
X-1639773Y1722475D01*
X-1622399Y1731467D01*
X-1604314Y1738934D01*
X-1585620Y1744776D01*
X-1566519Y1748993D01*
X-1547114Y1751482D01*
X-1527251Y1752346D01*
X1527251Y1752346D01*
X1547977Y1751431D01*
X1567383Y1748840D01*
X1586484Y1744522D01*
X1605127Y1738630D01*
X1623212Y1731111D01*
X1640535Y1722018D01*
X1656994Y1711502D01*
X1672539Y1699564D01*
X1686915Y1686306D01*
X1700123Y1671828D01*
X1712010Y1656283D01*
X1722475Y1639773D01*
X1731467Y1622399D01*
X1738934Y1604314D01*
X1744776Y1585620D01*
X1748993Y1566519D01*
X1751482Y1547114D01*
X1752346Y1527251D01*
X1752346Y1214272D01*
X1751533Y1210310D01*
X1749196Y1206957D01*
X1745742Y1204772D01*
X1741728Y1204163D01*
X1737817Y1205128D01*
X1734566Y1207617D01*
X1725675Y1217676D01*
X1715312Y1226820D01*
X1703832Y1234490D01*
X1691436Y1240586D01*
X1678330Y1245057D01*
X1664766Y1247749D01*
X1651000Y1248613D01*
X1637233Y1247749D01*
X1623669Y1245057D01*
X1610563Y1240586D01*
X1598168Y1234490D01*
X1586687Y1226820D01*
X1576324Y1217676D01*
X1567180Y1207312D01*
X1559509Y1195832D01*
X1553413Y1183436D01*
X1548942Y1170330D01*
X1546250Y1156766D01*
X1545386Y1143000D01*
X1546250Y1129233D01*
X1548942Y1115669D01*
X1553413Y1102563D01*
X1559509Y1090168D01*
X1567180Y1078687D01*
X1576324Y1068324D01*
X1586687Y1059180D01*
X1598168Y1051509D01*
X1610563Y1045413D01*
X1623669Y1040942D01*
X1637233Y1038250D01*
X1651000Y1037386D01*
X1664766Y1038250D01*
X1678330Y1040942D01*
X1691436Y1045413D01*
X1703832Y1051509D01*
X1715312Y1059180D01*
X1725675Y1068324D01*
X1734566Y1078382D01*
X1737817Y1080871D01*
X1741728Y1081836D01*
X1745742Y1081227D01*
X1749196Y1079042D01*
X1751533Y1075690D01*
X1752346Y1071727D01*
X1752346Y960272D01*
X1751533Y956310D01*
X1749196Y952957D01*
X1745742Y950772D01*
X1741728Y950163D01*
X1737817Y951128D01*
X1734566Y953617D01*
X1725675Y963676D01*
X1715312Y972819D01*
X1703832Y980490D01*
X1691436Y986586D01*
X1678330Y991057D01*
X1664766Y993749D01*
X1651000Y994613D01*
X1637233Y993749D01*
X1623669Y991057D01*
X1610563Y986586D01*
X1598168Y980490D01*
X1586687Y972819D01*
X1576324Y963676D01*
X1567180Y953312D01*
X1559509Y941832D01*
X1553413Y929436D01*
X1548942Y916330D01*
X1546250Y902766D01*
X1545386Y889000D01*
X1546250Y875233D01*
X1548942Y861669D01*
X1553413Y848563D01*
X1559509Y836168D01*
X1567180Y824687D01*
X1576324Y814324D01*
X1586687Y805180D01*
X1598168Y797509D01*
X1610563Y791413D01*
X1623669Y786942D01*
X1637233Y784250D01*
X1651000Y783386D01*
X1664766Y784250D01*
X1678330Y786942D01*
X1691436Y791413D01*
X1703832Y797509D01*
X1715312Y805180D01*
X1725675Y814324D01*
X1734566Y824382D01*
X1737817Y826871D01*
X1741728Y827836D01*
X1745742Y827227D01*
X1749196Y825042D01*
X1751533Y821690D01*
X1752346Y817727D01*
X1752346Y706272D01*
X1751533Y702310D01*
X1749196Y698957D01*
X1745742Y696772D01*
X1741728Y696163D01*
X1737817Y697128D01*
X1734566Y699617D01*
X1725675Y709676D01*
X1715312Y718820D01*
X1703832Y726490D01*
X1691436Y732586D01*
X1678330Y737057D01*
X1664766Y739749D01*
X1651000Y740613D01*
X1637233Y739749D01*
X1623669Y737057D01*
X1610563Y732586D01*
X1598168Y726490D01*
X1586687Y718820D01*
X1576324Y709676D01*
X1567180Y699312D01*
X1559509Y687832D01*
X1553413Y675436D01*
X1548942Y662330D01*
X1546250Y648766D01*
X1545386Y635000D01*
X1546250Y621233D01*
X1548942Y607669D01*
X1553413Y594563D01*
X1559509Y582168D01*
X1567180Y570687D01*
X1576324Y560324D01*
X1586687Y551180D01*
X1598168Y543509D01*
X1610563Y537413D01*
X1623669Y532942D01*
X1637233Y530250D01*
X1651000Y529386D01*
X1664766Y530250D01*
X1678330Y532942D01*
X1691436Y537413D01*
X1703832Y543509D01*
X1715312Y551180D01*
X1725675Y560324D01*
X1734566Y570382D01*
X1737817Y572871D01*
X1741728Y573836D01*
X1745742Y573227D01*
X1749196Y571042D01*
X1751533Y567690D01*
X1752346Y563727D01*
X1752346Y452272D01*
X1751533Y448309D01*
X1749196Y444957D01*
X1745742Y442772D01*
X1741728Y442163D01*
X1737817Y443128D01*
X1734566Y445617D01*
X1725675Y455676D01*
X1715312Y464820D01*
X1703832Y472490D01*
X1691436Y478586D01*
X1678330Y483057D01*
X1664766Y485749D01*
X1651000Y486613D01*
X1637233Y485749D01*
X1623669Y483057D01*
X1610563Y478586D01*
X1598168Y472490D01*
X1586687Y464820D01*
X1535531Y421741D01*
X1532483Y419963D01*
X1528978Y419354D01*
G37*

%LPC*%
G36*
X1259027Y848766D02*
G01*
X1264615Y848766D01*
X1264615Y888034D01*
X1232814Y888034D01*
X1232814Y874979D01*
X1233525Y868730D01*
X1235405Y863295D01*
X1238453Y858469D01*
X1242517Y854405D01*
X1247343Y851357D01*
X1252778Y849477D01*
G37*
G36*
X936345Y923340D02*
G01*
X1005636Y923340D01*
X1005636Y938936D01*
X1004925Y945184D01*
X1003046Y950569D01*
X999998Y955446D01*
X995934Y959510D01*
X991057Y962558D01*
X985672Y964437D01*
X979424Y965149D01*
X936345Y965149D01*
G37*
G36*
X1118514Y945134D02*
G01*
X1157833Y945134D01*
X1157833Y950721D01*
X1157122Y957021D01*
X1155242Y962406D01*
X1152194Y967282D01*
X1148130Y971296D01*
X1143254Y974344D01*
X1137869Y976274D01*
X1131620Y976934D01*
X1118514Y976934D01*
G37*
G36*
X1026515Y945134D02*
G01*
X1065834Y945134D01*
X1065834Y976934D01*
X1052728Y976934D01*
X1046480Y976274D01*
X1041044Y974344D01*
X1036218Y971296D01*
X1032154Y967282D01*
X1029106Y962406D01*
X1027226Y957021D01*
X1026515Y950721D01*
G37*
G36*
X1243076Y1172565D02*
G01*
X1253642Y1172565D01*
X1253642Y1209344D01*
X1216863Y1209344D01*
X1216863Y1198778D01*
X1217523Y1192530D01*
X1219454Y1187094D01*
X1222502Y1182268D01*
X1226515Y1178204D01*
X1231392Y1175156D01*
X1236776Y1173276D01*
G37*
G36*
X-1450136Y1257046D02*
G01*
X-1413357Y1257046D01*
X-1413357Y1293876D01*
X-1423924Y1293876D01*
X-1430223Y1293164D01*
X-1435608Y1291285D01*
X-1440484Y1288237D01*
X-1444498Y1284173D01*
X-1447546Y1279296D01*
X-1449476Y1273911D01*
X-1450136Y1267663D01*
G37*
G36*
X1216863Y1257046D02*
G01*
X1253642Y1257046D01*
X1253642Y1293876D01*
X1243076Y1293876D01*
X1236776Y1293164D01*
X1231392Y1291285D01*
X1226515Y1288237D01*
X1222502Y1284173D01*
X1219454Y1279296D01*
X1217523Y1273911D01*
X1216863Y1267663D01*
G37*
G36*
X-1401673Y1365199D02*
G01*
X-1396695Y1368907D01*
X-1382115Y1382115D01*
X-1368907Y1396695D01*
X-1365199Y1401673D01*
X-1401673Y1401673D01*
G37*
G36*
X-1646275Y1365199D02*
G01*
X-1646275Y1401673D01*
X-1682800Y1401673D01*
X-1679092Y1396695D01*
X-1665884Y1382115D01*
X-1651304Y1368907D01*
G37*
G36*
X1646326Y1365199D02*
G01*
X1651304Y1368907D01*
X1665884Y1382115D01*
X1679092Y1396695D01*
X1682800Y1401673D01*
X1646326Y1401673D01*
G37*
G36*
X-1682800Y1646275D02*
G01*
X-1646275Y1646275D01*
X-1646275Y1682800D01*
X-1651304Y1679092D01*
X-1665884Y1665884D01*
X-1679092Y1651304D01*
G37*
G36*
X1646326Y1646275D02*
G01*
X1682800Y1646275D01*
X1679092Y1651304D01*
X1665884Y1665884D01*
X1651304Y1679092D01*
X1646326Y1682800D01*
G37*
G36*
X1365199Y1646275D02*
G01*
X1401724Y1646275D01*
X1401724Y1682800D01*
X1396695Y1679092D01*
X1382115Y1665884D01*
X1368907Y1651304D01*
G37*
G36*
X-1401673Y1646275D02*
G01*
X-1365199Y1646275D01*
X-1368907Y1651304D01*
X-1382115Y1665884D01*
X-1396695Y1679092D01*
X-1401673Y1682800D01*
G37*

%LPD*%
G36*
X1121664Y353923D02*
G01*
X1117701Y354838D01*
X1111453Y357784D01*
X1102004Y360324D01*
X1093520Y361035D01*
X1089710Y362153D01*
X1086612Y364642D01*
X1084732Y368096D01*
X1084275Y372059D01*
X1085088Y381000D01*
X1084224Y390804D01*
X1081684Y400253D01*
X1077518Y409194D01*
X1071422Y417830D01*
X1062837Y428904D01*
X1061262Y431850D01*
X1060704Y435152D01*
X1060704Y558292D01*
X1059942Y565454D01*
X1057910Y571804D01*
X1054455Y577697D01*
X1051052Y581710D01*
X1019098Y613664D01*
X1007618Y629107D01*
X1006144Y632002D01*
X1005636Y635152D01*
X1005636Y684936D01*
X1004925Y691235D01*
X1003046Y696620D01*
X1001776Y698601D01*
X1000404Y702106D01*
X1000404Y705916D01*
X1001776Y709422D01*
X1003046Y711403D01*
X1004671Y716026D01*
X1006602Y719378D01*
X1009700Y721766D01*
X1021994Y727913D01*
X1026566Y728980D01*
X1078941Y728980D01*
X1083005Y728116D01*
X1086358Y725728D01*
X1088491Y722172D01*
X1089050Y718058D01*
X1087932Y714095D01*
X1085240Y710895D01*
X1081532Y709015D01*
X1073200Y706780D01*
X1064260Y702614D01*
X1056233Y696976D01*
X1049274Y690016D01*
X1043635Y681990D01*
X1039469Y673049D01*
X1036929Y663600D01*
X1036066Y653796D01*
X1036929Y643991D01*
X1039469Y634542D01*
X1043635Y625602D01*
X1049274Y617575D01*
X1056233Y610616D01*
X1064260Y604977D01*
X1073200Y600811D01*
X1082649Y598271D01*
X1092454Y597408D01*
X1102258Y598271D01*
X1111707Y600811D01*
X1121003Y605180D01*
X1125016Y606094D01*
X1129080Y605383D01*
X1132484Y603148D01*
X1137818Y594817D01*
X1141882Y590753D01*
X1146708Y587705D01*
X1152144Y585825D01*
X1158392Y585114D01*
X1217269Y585114D01*
X1223518Y585825D01*
X1228953Y587705D01*
X1233779Y590753D01*
X1237843Y594817D01*
X1240891Y599694D01*
X1242771Y605078D01*
X1243482Y611327D01*
X1243482Y664260D01*
X1244295Y668274D01*
X1246581Y671576D01*
X1249984Y673760D01*
X1253998Y674420D01*
X1257909Y673506D01*
X1263446Y670915D01*
X1272895Y668375D01*
X1282700Y667512D01*
X1292504Y668375D01*
X1301953Y670915D01*
X1307744Y673608D01*
X1311656Y674573D01*
X1315669Y673912D01*
X1319072Y671728D01*
X1321358Y668375D01*
X1322171Y664413D01*
X1322171Y611327D01*
X1322882Y605078D01*
X1324762Y599694D01*
X1327810Y594817D01*
X1331874Y590753D01*
X1336700Y587705D01*
X1342136Y585825D01*
X1348384Y585114D01*
X1407261Y585114D01*
X1413510Y585825D01*
X1423314Y589381D01*
X1427632Y589076D01*
X1431391Y586994D01*
X1433931Y583539D01*
X1434846Y579323D01*
X1434846Y466140D01*
X1434033Y462127D01*
X1431696Y458774D01*
X1428191Y456590D01*
X1424178Y455980D01*
X1420215Y456996D01*
X1416964Y459536D01*
X1415288Y461518D01*
X1409547Y472389D01*
X1404467Y478586D01*
X1373682Y509371D01*
X1367485Y514451D01*
X1360881Y518007D01*
X1353667Y520192D01*
X1345692Y520954D01*
X1219708Y520954D01*
X1211732Y520192D01*
X1204518Y518007D01*
X1197914Y514451D01*
X1191717Y509371D01*
X1160932Y478586D01*
X1155852Y472389D01*
X1150112Y461416D01*
X1138072Y447090D01*
X1134770Y441858D01*
X1132890Y436473D01*
X1132179Y430225D01*
X1132179Y364083D01*
X1131366Y360070D01*
X1129080Y356768D01*
X1125677Y354584D01*
G37*

%LPD*%
G36*
X-1223619Y291338D02*
G01*
X-1227734Y292201D01*
X-1231138Y294640D01*
X-1233271Y298246D01*
X-1235557Y305104D01*
X-1238605Y309930D01*
X-1242618Y313994D01*
X-1247495Y317042D01*
X-1252880Y318922D01*
X-1259179Y319633D01*
X-1307998Y319633D01*
X-1314297Y318922D01*
X-1319682Y317042D01*
X-1324711Y313842D01*
X-1328166Y312470D01*
X-1331823Y312420D01*
X-1335278Y313690D01*
X-1338072Y316128D01*
X-1339799Y319379D01*
X-1342288Y327050D01*
X-1342796Y330149D01*
X-1342288Y333248D01*
X-1339799Y340969D01*
X-1338072Y344220D01*
X-1335278Y346608D01*
X-1331823Y347878D01*
X-1328166Y347827D01*
X-1324711Y346456D01*
X-1319682Y343306D01*
X-1314297Y341426D01*
X-1307998Y340715D01*
X-1259179Y340715D01*
X-1252880Y341426D01*
X-1247495Y343306D01*
X-1242618Y346354D01*
X-1238605Y350418D01*
X-1235557Y355244D01*
X-1233627Y360680D01*
X-1232916Y366928D01*
X-1232916Y370433D01*
X-1232357Y373837D01*
X-1230680Y376834D01*
X-1228140Y379120D01*
X-1225804Y380542D01*
X-1221689Y384048D01*
X-1184249Y421487D01*
X-1179728Y427075D01*
X-1176680Y433070D01*
X-1174902Y439623D01*
X-1174496Y444906D01*
X-1174496Y579424D01*
X-1173734Y583336D01*
X-1171498Y586638D01*
X-1152804Y605332D01*
X-1149502Y607568D01*
X-1145590Y608330D01*
X-1015796Y608330D01*
X-1011936Y607568D01*
X-1008634Y605332D01*
X-1006449Y602081D01*
X-1005636Y598170D01*
X-1005636Y596087D01*
X-1004976Y589788D01*
X-1003046Y584403D01*
X-1001826Y582422D01*
X-1000404Y578916D01*
X-1000404Y575106D01*
X-1001826Y571601D01*
X-1003046Y569620D01*
X-1004976Y564184D01*
X-1005636Y557936D01*
X-1005636Y469087D01*
X-1004976Y462788D01*
X-1003046Y457403D01*
X-1001826Y455422D01*
X-1000404Y451916D01*
X-1000404Y448106D01*
X-1001826Y444601D01*
X-1003046Y442620D01*
X-1004976Y437184D01*
X-1005636Y430936D01*
X-1005636Y342087D01*
X-1004976Y335788D01*
X-1003046Y330403D01*
X-1001826Y328422D01*
X-1000404Y324916D01*
X-1000404Y321106D01*
X-1001826Y317601D01*
X-1003046Y315620D01*
X-1004976Y310184D01*
X-1005636Y303936D01*
X-1005636Y301498D01*
X-1006449Y297586D01*
X-1008634Y294335D01*
X-1011936Y292100D01*
X-1015796Y291338D01*
G37*

%LPD*%
G36*
X1282242Y283768D02*
G01*
X1278229Y284784D01*
X1271625Y284784D01*
X1267764Y285597D01*
X1264462Y287782D01*
X1262227Y291084D01*
X1261465Y294944D01*
X1261465Y349402D01*
X1253642Y349402D01*
X1249730Y350215D01*
X1246479Y352399D01*
X1244244Y355701D01*
X1243482Y359562D01*
X1243482Y401980D01*
X1244244Y405841D01*
X1246479Y409143D01*
X1249730Y411327D01*
X1253642Y412140D01*
X1261465Y412140D01*
X1261465Y434085D01*
X1262227Y437997D01*
X1264462Y441248D01*
X1267764Y443484D01*
X1271625Y444246D01*
X1294028Y444246D01*
X1297889Y443484D01*
X1301191Y441248D01*
X1303426Y437997D01*
X1304188Y434085D01*
X1304188Y412140D01*
X1312011Y412140D01*
X1315923Y411327D01*
X1319174Y409143D01*
X1321409Y405841D01*
X1322171Y401980D01*
X1322171Y359562D01*
X1321409Y355701D01*
X1319174Y352399D01*
X1315923Y350215D01*
X1312011Y349402D01*
X1304188Y349402D01*
X1304188Y307644D01*
X1303578Y304292D01*
X1301902Y301294D01*
X1300226Y299161D01*
X1297889Y294690D01*
X1295501Y291693D01*
X1289862Y286766D01*
X1286357Y284480D01*
G37*

%LPD*%
G36*
X1404213Y254254D02*
G01*
X1399692Y255320D01*
X1388821Y260756D01*
X1386078Y262737D01*
X1384147Y265480D01*
X1383131Y269798D01*
X1383639Y274269D01*
X1385976Y278079D01*
X1392682Y284886D01*
X1395882Y287121D01*
X1399692Y287934D01*
X1403553Y287274D01*
X1406855Y285242D01*
X1409141Y282092D01*
X1411681Y276606D01*
X1416151Y270256D01*
X1417828Y266192D01*
X1417624Y261772D01*
X1415592Y257860D01*
X1412138Y255219D01*
X1407820Y254254D01*
G37*

%LPD*%
G36*
X-1741728Y188163D02*
G01*
X-1745742Y188772D01*
X-1749196Y190957D01*
X-1751533Y194310D01*
X-1752346Y198272D01*
X-1752346Y309727D01*
X-1751533Y313690D01*
X-1749196Y317042D01*
X-1745742Y319227D01*
X-1741728Y319836D01*
X-1737817Y318871D01*
X-1734566Y316382D01*
X-1725675Y306324D01*
X-1715312Y297180D01*
X-1703832Y289509D01*
X-1691436Y283413D01*
X-1678330Y278942D01*
X-1664766Y276250D01*
X-1651000Y275386D01*
X-1637233Y276250D01*
X-1623669Y278942D01*
X-1610563Y283413D01*
X-1598168Y289509D01*
X-1586687Y297180D01*
X-1576324Y306324D01*
X-1573784Y309168D01*
X-1570532Y311607D01*
X-1566621Y312623D01*
X-1562608Y311962D01*
X-1559153Y309778D01*
X-1556816Y306476D01*
X-1556004Y302463D01*
X-1556004Y205536D01*
X-1556816Y201523D01*
X-1559153Y198221D01*
X-1562608Y196037D01*
X-1566621Y195376D01*
X-1570532Y196392D01*
X-1573784Y198831D01*
X-1576324Y201676D01*
X-1586687Y210820D01*
X-1598168Y218490D01*
X-1610563Y224586D01*
X-1623669Y229057D01*
X-1637233Y231749D01*
X-1651000Y232613D01*
X-1664766Y231749D01*
X-1678330Y229057D01*
X-1691436Y224586D01*
X-1703832Y218490D01*
X-1715312Y210820D01*
X-1725675Y201676D01*
X-1734566Y191617D01*
X-1737817Y189128D01*
G37*

%LPD*%
G36*
X1513179Y165354D02*
G01*
X1508861Y166319D01*
X1505407Y168960D01*
X1503375Y172872D01*
X1503172Y177292D01*
X1504848Y181356D01*
X1509318Y187706D01*
X1513484Y196646D01*
X1516024Y206095D01*
X1516888Y215900D01*
X1516024Y225704D01*
X1513484Y235153D01*
X1509318Y244094D01*
X1500428Y256438D01*
X1499666Y260350D01*
X1500428Y264261D01*
X1509318Y276606D01*
X1513484Y285546D01*
X1516024Y294995D01*
X1516888Y304800D01*
X1516024Y314604D01*
X1513484Y324053D01*
X1511554Y328168D01*
X1510588Y332130D01*
X1511249Y336143D01*
X1513433Y339547D01*
X1516786Y341833D01*
X1520748Y342646D01*
X1528978Y342646D01*
X1532483Y342036D01*
X1535531Y340258D01*
X1586534Y297281D01*
X1598168Y289509D01*
X1610563Y283413D01*
X1623669Y278942D01*
X1637233Y276250D01*
X1651000Y275386D01*
X1664766Y276250D01*
X1678330Y278942D01*
X1691436Y283413D01*
X1703832Y289509D01*
X1715312Y297180D01*
X1725675Y306324D01*
X1734566Y316382D01*
X1737817Y318871D01*
X1741728Y319836D01*
X1745742Y319227D01*
X1749196Y317042D01*
X1751533Y313690D01*
X1752346Y309727D01*
X1752346Y198272D01*
X1751533Y194310D01*
X1749196Y190957D01*
X1745742Y188772D01*
X1741728Y188163D01*
X1737817Y189128D01*
X1734566Y191617D01*
X1725675Y201676D01*
X1715312Y210820D01*
X1703832Y218490D01*
X1691436Y224586D01*
X1678330Y229057D01*
X1664766Y231749D01*
X1651000Y232613D01*
X1637233Y231749D01*
X1623669Y229057D01*
X1610563Y224586D01*
X1598168Y218490D01*
X1586687Y210820D01*
X1535531Y167741D01*
X1532483Y165963D01*
X1528978Y165354D01*
G37*

%LPD*%
G36*
X-1092962Y33578D02*
G01*
X-1096873Y34340D01*
X-1100124Y36576D01*
X-1106779Y43180D01*
X-1114806Y48818D01*
X-1123746Y52984D01*
X-1133195Y55524D01*
X-1143000Y56388D01*
X-1152804Y55524D01*
X-1162253Y52984D01*
X-1171194Y48818D01*
X-1179220Y43180D01*
X-1182573Y39878D01*
X-1185824Y37642D01*
X-1189736Y36880D01*
X-1193647Y37642D01*
X-1196898Y39878D01*
X-1199134Y43129D01*
X-1199896Y47040D01*
X-1199896Y88392D01*
X-1200658Y95554D01*
X-1202690Y101904D01*
X-1206144Y107797D01*
X-1209548Y111810D01*
X-1221689Y123952D01*
X-1225804Y127457D01*
X-1228140Y128879D01*
X-1230680Y131165D01*
X-1232357Y134162D01*
X-1232916Y137566D01*
X-1232916Y141020D01*
X-1233627Y147269D01*
X-1235557Y152654D01*
X-1238605Y157530D01*
X-1242618Y161594D01*
X-1247495Y164642D01*
X-1252880Y166522D01*
X-1259179Y167233D01*
X-1307998Y167233D01*
X-1314297Y166522D01*
X-1319682Y164642D01*
X-1324711Y161442D01*
X-1328166Y160070D01*
X-1331823Y160020D01*
X-1335278Y161290D01*
X-1338072Y163728D01*
X-1339799Y166979D01*
X-1342288Y174650D01*
X-1342796Y177749D01*
X-1342288Y180848D01*
X-1339799Y188569D01*
X-1338072Y191820D01*
X-1335278Y194208D01*
X-1331823Y195478D01*
X-1328166Y195427D01*
X-1324711Y194056D01*
X-1319682Y190906D01*
X-1314297Y189026D01*
X-1307998Y188315D01*
X-1259179Y188315D01*
X-1252880Y189026D01*
X-1247495Y190906D01*
X-1242618Y193954D01*
X-1238605Y198018D01*
X-1235557Y202844D01*
X-1233627Y208279D01*
X-1232916Y214528D01*
X-1232916Y217170D01*
X-1232154Y221081D01*
X-1229969Y224332D01*
X-1226667Y226567D01*
X-1222756Y227329D01*
X-1015796Y227329D01*
X-1011936Y226567D01*
X-1008634Y224332D01*
X-1006449Y221081D01*
X-1005636Y217170D01*
X-1005636Y215087D01*
X-1004976Y208788D01*
X-1003046Y203403D01*
X-1001826Y201422D01*
X-1000404Y197916D01*
X-1000404Y194106D01*
X-1001826Y190601D01*
X-1003046Y188620D01*
X-1004976Y183184D01*
X-1005636Y176936D01*
X-1005636Y88087D01*
X-1004976Y81788D01*
X-1003046Y76403D01*
X-1001826Y74422D01*
X-1000404Y70916D01*
X-1000404Y67106D01*
X-1001826Y63601D01*
X-1003046Y61620D01*
X-1004824Y56540D01*
X-1007008Y52933D01*
X-1010462Y50495D01*
X-1014628Y49733D01*
X-1018743Y50647D01*
X-1023670Y52984D01*
X-1033119Y55524D01*
X-1042924Y56388D01*
X-1052728Y55524D01*
X-1062177Y52984D01*
X-1071118Y48818D01*
X-1079144Y43180D01*
X-1085799Y36576D01*
X-1089050Y34340D01*
G37*

%LPD*%
G36*
X-1331823Y7620D02*
G01*
X-1335278Y8890D01*
X-1338072Y11328D01*
X-1339799Y14579D01*
X-1342288Y22250D01*
X-1342796Y25349D01*
X-1342288Y28448D01*
X-1339799Y36169D01*
X-1338072Y39420D01*
X-1335278Y41808D01*
X-1331823Y43078D01*
X-1328166Y43027D01*
X-1324711Y41656D01*
X-1319682Y38506D01*
X-1314297Y36626D01*
X-1307998Y35915D01*
X-1274064Y35915D01*
X-1270152Y35153D01*
X-1266901Y32918D01*
X-1264666Y29616D01*
X-1263904Y24993D01*
X-1264666Y21082D01*
X-1266901Y17780D01*
X-1270152Y15595D01*
X-1274064Y14833D01*
X-1307998Y14833D01*
X-1314297Y14122D01*
X-1319682Y12242D01*
X-1324711Y9042D01*
X-1328166Y7670D01*
G37*

%LPD*%
G36*
X-1095959Y-56896D02*
G01*
X-1099870Y-56134D01*
X-1103122Y-53898D01*
X-1105357Y-50647D01*
X-1106119Y-46736D01*
X-1105357Y-42824D01*
X-1103122Y-39573D01*
X-1100124Y-36576D01*
X-1096873Y-34340D01*
X-1092962Y-33578D01*
X-1089050Y-34340D01*
X-1085799Y-36576D01*
X-1082802Y-39573D01*
X-1080566Y-42824D01*
X-1079804Y-46736D01*
X-1080566Y-50647D01*
X-1082802Y-53898D01*
X-1086053Y-56134D01*
X-1089964Y-56896D01*
G37*

%LPD*%
G36*
X-1741728Y-65836D02*
G01*
X-1745742Y-65227D01*
X-1749196Y-63042D01*
X-1751533Y-59690D01*
X-1752346Y-55727D01*
X-1752346Y55727D01*
X-1751533Y59690D01*
X-1749196Y63042D01*
X-1745742Y65227D01*
X-1741728Y65836D01*
X-1737817Y64871D01*
X-1734566Y62382D01*
X-1725675Y52324D01*
X-1715312Y43180D01*
X-1703832Y35509D01*
X-1691436Y29413D01*
X-1678330Y24942D01*
X-1664766Y22250D01*
X-1651000Y21386D01*
X-1637233Y22250D01*
X-1623669Y24942D01*
X-1610563Y29413D01*
X-1598168Y35509D01*
X-1586687Y43180D01*
X-1576324Y52324D01*
X-1573784Y55168D01*
X-1570532Y57607D01*
X-1566621Y58623D01*
X-1562608Y57962D01*
X-1559153Y55778D01*
X-1556816Y52476D01*
X-1556004Y48463D01*
X-1556004Y-48463D01*
X-1556816Y-52476D01*
X-1559153Y-55778D01*
X-1562608Y-57962D01*
X-1566621Y-58623D01*
X-1570532Y-57607D01*
X-1573784Y-55168D01*
X-1576324Y-52324D01*
X-1586687Y-43180D01*
X-1598168Y-35509D01*
X-1610563Y-29413D01*
X-1623669Y-24942D01*
X-1637233Y-22250D01*
X-1651000Y-21386D01*
X-1664766Y-22250D01*
X-1678330Y-24942D01*
X-1691436Y-29413D01*
X-1703832Y-35509D01*
X-1715312Y-43180D01*
X-1725675Y-52324D01*
X-1734566Y-62382D01*
X-1737817Y-64871D01*
G37*

%LPD*%
G36*
X-1331823Y-144780D02*
G01*
X-1335278Y-143510D01*
X-1338072Y-141071D01*
X-1339799Y-137820D01*
X-1342288Y-130149D01*
X-1342796Y-127050D01*
X-1342288Y-123952D01*
X-1339799Y-116230D01*
X-1338072Y-112979D01*
X-1335278Y-110591D01*
X-1331823Y-109321D01*
X-1328166Y-109372D01*
X-1324711Y-110744D01*
X-1319682Y-113893D01*
X-1314297Y-115773D01*
X-1307998Y-116484D01*
X-1259179Y-116484D01*
X-1255420Y-116078D01*
X-1252372Y-116179D01*
X-1249527Y-117195D01*
X-1246225Y-119837D01*
X-1244041Y-123088D01*
X-1243279Y-127000D01*
X-1244041Y-130911D01*
X-1247140Y-135077D01*
X-1249578Y-136906D01*
X-1252423Y-137871D01*
X-1255471Y-137972D01*
X-1259179Y-137566D01*
X-1307998Y-137566D01*
X-1314297Y-138277D01*
X-1319682Y-140157D01*
X-1324711Y-143357D01*
X-1328166Y-144729D01*
G37*

%LPD*%
G36*
X-1741728Y-319836D02*
G01*
X-1745742Y-319227D01*
X-1749196Y-317042D01*
X-1751533Y-313690D01*
X-1752346Y-309727D01*
X-1752346Y-198272D01*
X-1751533Y-194310D01*
X-1749196Y-190957D01*
X-1745742Y-188772D01*
X-1741728Y-188163D01*
X-1737817Y-189128D01*
X-1734566Y-191617D01*
X-1725675Y-201676D01*
X-1715312Y-210820D01*
X-1703832Y-218490D01*
X-1691436Y-224586D01*
X-1678330Y-229057D01*
X-1664766Y-231749D01*
X-1651000Y-232613D01*
X-1637233Y-231749D01*
X-1623669Y-229057D01*
X-1610563Y-224586D01*
X-1598168Y-218490D01*
X-1586687Y-210820D01*
X-1576324Y-201676D01*
X-1573784Y-198831D01*
X-1570532Y-196392D01*
X-1566621Y-195376D01*
X-1562608Y-196037D01*
X-1559153Y-198221D01*
X-1556816Y-201523D01*
X-1556004Y-205536D01*
X-1556004Y-302463D01*
X-1556816Y-306476D01*
X-1559153Y-309778D01*
X-1562608Y-311962D01*
X-1566621Y-312623D01*
X-1570532Y-311607D01*
X-1573784Y-309168D01*
X-1576324Y-306324D01*
X-1586687Y-297180D01*
X-1598168Y-289509D01*
X-1610563Y-283413D01*
X-1623669Y-278942D01*
X-1637233Y-276250D01*
X-1651000Y-275386D01*
X-1664766Y-276250D01*
X-1678330Y-278942D01*
X-1691436Y-283413D01*
X-1703832Y-289509D01*
X-1715312Y-297180D01*
X-1725675Y-306324D01*
X-1734566Y-316382D01*
X-1737817Y-318871D01*
G37*

%LPD*%
G36*
X-1741728Y-573836D02*
G01*
X-1745742Y-573227D01*
X-1749196Y-571042D01*
X-1751533Y-567690D01*
X-1752346Y-563727D01*
X-1752346Y-452272D01*
X-1751533Y-448309D01*
X-1749196Y-444957D01*
X-1745742Y-442772D01*
X-1741728Y-442163D01*
X-1737817Y-443128D01*
X-1734566Y-445617D01*
X-1725675Y-455676D01*
X-1715312Y-464820D01*
X-1703832Y-472490D01*
X-1691436Y-478586D01*
X-1678330Y-483057D01*
X-1664766Y-485749D01*
X-1651000Y-486613D01*
X-1637233Y-485749D01*
X-1623669Y-483057D01*
X-1610563Y-478586D01*
X-1598168Y-472490D01*
X-1586687Y-464820D01*
X-1576324Y-455676D01*
X-1573784Y-452831D01*
X-1570532Y-450392D01*
X-1566621Y-449376D01*
X-1562608Y-450037D01*
X-1559153Y-452221D01*
X-1556816Y-455523D01*
X-1556004Y-459536D01*
X-1556004Y-556463D01*
X-1556816Y-560476D01*
X-1559153Y-563778D01*
X-1562608Y-565962D01*
X-1566621Y-566623D01*
X-1570532Y-565607D01*
X-1573784Y-563168D01*
X-1576324Y-560324D01*
X-1586687Y-551180D01*
X-1598168Y-543509D01*
X-1610563Y-537413D01*
X-1623669Y-532942D01*
X-1637233Y-530250D01*
X-1651000Y-529386D01*
X-1664766Y-530250D01*
X-1678330Y-532942D01*
X-1691436Y-537413D01*
X-1703832Y-543509D01*
X-1715312Y-551180D01*
X-1725675Y-560324D01*
X-1734566Y-570382D01*
X-1737817Y-572871D01*
G37*

%LPD*%
G36*
X1151890Y-863346D02*
G01*
X1147572Y-862380D01*
X1144117Y-859739D01*
X1142085Y-855827D01*
X1141882Y-851408D01*
X1143558Y-847344D01*
X1146810Y-844397D01*
X1150975Y-843076D01*
X1152804Y-842924D01*
X1162253Y-840384D01*
X1171194Y-836218D01*
X1179220Y-830580D01*
X1184910Y-824890D01*
X1187958Y-822807D01*
X1191564Y-821944D01*
X1195222Y-822452D01*
X1198473Y-824179D01*
X1201775Y-826871D01*
X1207770Y-829919D01*
X1214323Y-831697D01*
X1219606Y-832103D01*
X1228648Y-832103D01*
X1232865Y-833018D01*
X1236319Y-835558D01*
X1238402Y-839317D01*
X1238707Y-843635D01*
X1237234Y-847648D01*
X1234897Y-851408D01*
X1233170Y-853490D01*
X1230884Y-855065D01*
X1216456Y-862279D01*
X1214221Y-863092D01*
X1211884Y-863346D01*
G37*

%LPD*%
G36*
X-1536801Y-871423D02*
G01*
X-1540764Y-871372D01*
X-1544370Y-869848D01*
X-1547114Y-867054D01*
X-1548638Y-863396D01*
X-1548942Y-861669D01*
X-1553413Y-848563D01*
X-1559509Y-836168D01*
X-1567180Y-824687D01*
X-1576324Y-814324D01*
X-1586687Y-805180D01*
X-1598168Y-797509D01*
X-1610563Y-791413D01*
X-1623669Y-786942D01*
X-1637233Y-784250D01*
X-1651000Y-783386D01*
X-1664766Y-784250D01*
X-1678330Y-786942D01*
X-1691436Y-791413D01*
X-1703832Y-797509D01*
X-1715312Y-805180D01*
X-1725675Y-814324D01*
X-1734566Y-824382D01*
X-1737817Y-826871D01*
X-1741728Y-827836D01*
X-1745742Y-827227D01*
X-1749196Y-825042D01*
X-1751533Y-821690D01*
X-1752346Y-817727D01*
X-1752346Y-706272D01*
X-1751533Y-702310D01*
X-1749196Y-698957D01*
X-1745742Y-696772D01*
X-1741728Y-696163D01*
X-1737817Y-697128D01*
X-1734566Y-699617D01*
X-1725675Y-709676D01*
X-1715312Y-718820D01*
X-1703832Y-726490D01*
X-1691436Y-732586D01*
X-1678330Y-737057D01*
X-1664766Y-739749D01*
X-1651000Y-740613D01*
X-1637233Y-739749D01*
X-1623669Y-737057D01*
X-1610563Y-732586D01*
X-1598168Y-726490D01*
X-1586687Y-718820D01*
X-1576324Y-709676D01*
X-1573784Y-706831D01*
X-1570532Y-704392D01*
X-1566621Y-703376D01*
X-1562608Y-704037D01*
X-1559153Y-706221D01*
X-1556816Y-709523D01*
X-1556004Y-713536D01*
X-1556004Y-748792D01*
X-1555242Y-755954D01*
X-1553210Y-762304D01*
X-1549755Y-768197D01*
X-1546352Y-772210D01*
X-1508912Y-809650D01*
X-1503324Y-814171D01*
X-1497330Y-817219D01*
X-1490776Y-818997D01*
X-1485493Y-819403D01*
X-1424279Y-819403D01*
X-1420012Y-820318D01*
X-1416558Y-822960D01*
X-1414526Y-826769D01*
X-1414221Y-831087D01*
X-1415745Y-835152D01*
X-1418844Y-838149D01*
X-1424482Y-841705D01*
X-1428546Y-845769D01*
X-1432102Y-851408D01*
X-1433830Y-853490D01*
X-1436116Y-855065D01*
X-1441145Y-857554D01*
X-1444040Y-858519D01*
X-1447139Y-858519D01*
X-1452168Y-856640D01*
X-1457706Y-852881D01*
X-1466646Y-848715D01*
X-1476095Y-846175D01*
X-1485900Y-845312D01*
X-1495704Y-846175D01*
X-1505153Y-848715D01*
X-1514094Y-852881D01*
X-1522120Y-858519D01*
X-1529080Y-865479D01*
X-1530350Y-867257D01*
X-1533144Y-870000D01*
G37*

%LPD*%
G36*
X879652Y-971296D02*
G01*
X876350Y-970737D01*
X873404Y-969162D01*
X861517Y-959967D01*
X853694Y-954481D01*
X844753Y-950315D01*
X835304Y-947775D01*
X825500Y-946912D01*
X815695Y-947775D01*
X806246Y-950315D01*
X793242Y-956208D01*
X788822Y-956005D01*
X784910Y-953973D01*
X782269Y-950468D01*
X781304Y-946200D01*
X781304Y-886460D01*
X782066Y-882548D01*
X784301Y-879297D01*
X787552Y-877062D01*
X791464Y-876300D01*
X875284Y-876300D01*
X876300Y-875284D01*
X876300Y-837336D01*
X877062Y-833424D01*
X879297Y-830122D01*
X882548Y-827938D01*
X886460Y-827176D01*
X979424Y-827176D01*
X985418Y-826465D01*
X989634Y-826922D01*
X993292Y-829005D01*
X995832Y-832408D01*
X996696Y-836574D01*
X996696Y-947724D01*
X995934Y-951636D01*
X993698Y-954938D01*
X980338Y-968298D01*
X977036Y-970534D01*
X973124Y-971296D01*
G37*

%LPD*%
G36*
X-1212088Y-1009192D02*
G01*
X-1216152Y-1007618D01*
X-1219149Y-1004519D01*
X-1222502Y-999236D01*
X-1226515Y-995222D01*
X-1231392Y-992174D01*
X-1236776Y-990244D01*
X-1243076Y-989533D01*
X-1284122Y-989533D01*
X-1287322Y-989025D01*
X-1294079Y-986790D01*
X-1298498Y-983894D01*
X-1300734Y-980592D01*
X-1301496Y-976680D01*
X-1301496Y-826008D01*
X-1302258Y-818845D01*
X-1304290Y-812495D01*
X-1307744Y-806602D01*
X-1311148Y-802589D01*
X-1348587Y-765149D01*
X-1354175Y-760628D01*
X-1360170Y-757580D01*
X-1366723Y-755802D01*
X-1372006Y-755396D01*
X-1468424Y-755396D01*
X-1472336Y-754634D01*
X-1475638Y-752398D01*
X-1488998Y-739038D01*
X-1491234Y-735736D01*
X-1491996Y-731824D01*
X-1491996Y264414D01*
X-1491132Y268478D01*
X-1488694Y271881D01*
X-1485087Y274015D01*
X-1480972Y274523D01*
X-1473200Y273812D01*
X-1463395Y274675D01*
X-1453946Y277215D01*
X-1448714Y279654D01*
X-1444752Y280619D01*
X-1440789Y279958D01*
X-1437335Y277774D01*
X-1435049Y274421D01*
X-1434236Y270459D01*
X-1434134Y211988D01*
X-1432814Y205486D01*
X-1424838Y180898D01*
X-1424330Y177749D01*
X-1424838Y174650D01*
X-1433525Y147624D01*
X-1434236Y140868D01*
X-1434134Y59588D01*
X-1432814Y53086D01*
X-1424838Y28498D01*
X-1424330Y25349D01*
X-1424838Y22250D01*
X-1433525Y-4775D01*
X-1434236Y-11531D01*
X-1434134Y-92811D01*
X-1432814Y-99314D01*
X-1424838Y-123901D01*
X-1424330Y-127050D01*
X-1424838Y-130149D01*
X-1433525Y-157175D01*
X-1434236Y-163931D01*
X-1434236Y-242671D01*
X-1433474Y-249326D01*
X-1423111Y-283718D01*
X-1422654Y-286664D01*
X-1422654Y-397662D01*
X-1421536Y-406806D01*
X-1419047Y-413867D01*
X-1415237Y-420370D01*
X-1409903Y-426313D01*
X-1396288Y-438861D01*
X-1393748Y-442569D01*
X-1388719Y-455320D01*
X-1386484Y-463753D01*
X-1382318Y-472693D01*
X-1376680Y-480720D01*
X-1369720Y-487680D01*
X-1361694Y-493318D01*
X-1352753Y-497484D01*
X-1343304Y-500024D01*
X-1333500Y-500888D01*
X-1323695Y-500024D01*
X-1314246Y-497484D01*
X-1305306Y-493318D01*
X-1297279Y-487680D01*
X-1290320Y-480720D01*
X-1284681Y-472693D01*
X-1280515Y-463753D01*
X-1277975Y-454304D01*
X-1277112Y-444500D01*
X-1277975Y-434695D01*
X-1280515Y-425246D01*
X-1284681Y-416306D01*
X-1290320Y-408279D01*
X-1297279Y-401320D01*
X-1305306Y-395681D01*
X-1314246Y-391515D01*
X-1323695Y-388975D01*
X-1328115Y-388366D01*
X-1338732Y-385165D01*
X-1342491Y-383082D01*
X-1345031Y-379628D01*
X-1345946Y-375412D01*
X-1345946Y-287274D01*
X-1345387Y-283972D01*
X-1340053Y-268274D01*
X-1338275Y-265074D01*
X-1335481Y-262737D01*
X-1332026Y-261518D01*
X-1328420Y-261569D01*
X-1325016Y-262940D01*
X-1319682Y-266293D01*
X-1314297Y-268173D01*
X-1307998Y-268884D01*
X-1259179Y-268884D01*
X-1252880Y-268173D01*
X-1247495Y-266293D01*
X-1242618Y-263245D01*
X-1238605Y-259181D01*
X-1235557Y-254355D01*
X-1233627Y-248920D01*
X-1232916Y-242671D01*
X-1232916Y-239014D01*
X-1232306Y-235559D01*
X-1230528Y-232460D01*
X-1227836Y-230225D01*
X-1225956Y-229158D01*
X-1220571Y-224332D01*
X-1208430Y-210972D01*
X-1204264Y-205384D01*
X-1201521Y-199288D01*
X-1200099Y-192735D01*
X-1199896Y-188976D01*
X-1199896Y-182575D01*
X-1199134Y-178663D01*
X-1196238Y-174701D01*
X-1192936Y-172466D01*
X-1189024Y-171704D01*
X-1071575Y-171704D01*
X-1067257Y-172669D01*
X-1063752Y-175361D01*
X-1061770Y-179222D01*
X-1061567Y-183642D01*
X-1063244Y-187706D01*
X-1066495Y-190652D01*
X-1069238Y-192227D01*
X-1077620Y-198120D01*
X-1084580Y-205079D01*
X-1090218Y-213106D01*
X-1094384Y-222046D01*
X-1096924Y-231495D01*
X-1097788Y-241300D01*
X-1096924Y-251104D01*
X-1094384Y-260553D01*
X-1090218Y-269494D01*
X-1084580Y-277520D01*
X-1077620Y-284480D01*
X-1069594Y-290118D01*
X-1060653Y-294284D01*
X-1051204Y-296824D01*
X-1041400Y-297688D01*
X-1031595Y-296824D01*
X-1022146Y-294284D01*
X-1018997Y-292811D01*
X-1014933Y-291846D01*
X-1010767Y-292658D01*
X-1007313Y-295046D01*
X-1005128Y-298653D01*
X-1003046Y-304596D01*
X-1001826Y-306578D01*
X-1000404Y-310083D01*
X-1000404Y-313893D01*
X-1001826Y-317398D01*
X-1003046Y-319379D01*
X-1004976Y-324815D01*
X-1005636Y-331063D01*
X-1005636Y-419912D01*
X-1004976Y-426212D01*
X-1003046Y-431596D01*
X-1001826Y-433578D01*
X-1000404Y-437083D01*
X-1000404Y-440893D01*
X-1001826Y-444398D01*
X-1003046Y-446379D01*
X-1004976Y-451815D01*
X-1005636Y-458063D01*
X-1005636Y-535686D01*
X-1006449Y-539648D01*
X-1008786Y-542950D01*
X-1012190Y-545134D01*
X-1016152Y-545795D01*
X-1020114Y-544880D01*
X-1022146Y-543915D01*
X-1031595Y-541375D01*
X-1041400Y-540512D01*
X-1051204Y-541375D01*
X-1060653Y-543915D01*
X-1069594Y-548081D01*
X-1077620Y-553720D01*
X-1084580Y-560679D01*
X-1090218Y-568706D01*
X-1094384Y-577646D01*
X-1096924Y-587095D01*
X-1097788Y-596900D01*
X-1096924Y-606704D01*
X-1094384Y-616153D01*
X-1088491Y-629158D01*
X-1088694Y-633577D01*
X-1090726Y-637489D01*
X-1094232Y-640130D01*
X-1098499Y-641096D01*
X-1129792Y-641096D01*
X-1136954Y-641858D01*
X-1143304Y-643890D01*
X-1149197Y-647344D01*
X-1153210Y-650748D01*
X-1190650Y-688187D01*
X-1195171Y-693775D01*
X-1198219Y-699770D01*
X-1199997Y-706323D01*
X-1200404Y-711606D01*
X-1200404Y-999134D01*
X-1201318Y-1003350D01*
X-1203960Y-1006856D01*
X-1207770Y-1008887D01*
G37*

%LPC*%
G36*
X-1264666Y-967384D02*
G01*
X-1259128Y-967384D01*
X-1252829Y-966673D01*
X-1247444Y-964742D01*
X-1242568Y-961694D01*
X-1238504Y-957681D01*
X-1235456Y-952804D01*
X-1233576Y-947419D01*
X-1232865Y-941120D01*
X-1232865Y-928065D01*
X-1264666Y-928065D01*
G37*
G36*
X-1264666Y-875334D02*
G01*
X-1232865Y-875334D01*
X-1232865Y-862279D01*
X-1233576Y-856030D01*
X-1235456Y-850595D01*
X-1238504Y-845769D01*
X-1242568Y-841705D01*
X-1247444Y-838657D01*
X-1252829Y-836777D01*
X-1259128Y-836066D01*
X-1264666Y-836066D01*
G37*
G36*
X-1231900Y-399288D02*
G01*
X-1222095Y-398424D01*
X-1212646Y-395884D01*
X-1203706Y-391718D01*
X-1195679Y-386080D01*
X-1188720Y-379120D01*
X-1183081Y-371094D01*
X-1178915Y-362153D01*
X-1176375Y-352704D01*
X-1175512Y-342900D01*
X-1176375Y-333095D01*
X-1178915Y-323646D01*
X-1183081Y-314706D01*
X-1188720Y-306679D01*
X-1195679Y-299720D01*
X-1203706Y-294081D01*
X-1212646Y-289915D01*
X-1222095Y-287375D01*
X-1231900Y-286512D01*
X-1241704Y-287375D01*
X-1251153Y-289915D01*
X-1260094Y-294081D01*
X-1268120Y-299720D01*
X-1275080Y-306679D01*
X-1280718Y-314706D01*
X-1284884Y-323646D01*
X-1287424Y-333095D01*
X-1288288Y-342900D01*
X-1287424Y-352704D01*
X-1284884Y-362153D01*
X-1280718Y-371094D01*
X-1275080Y-379120D01*
X-1268120Y-386080D01*
X-1260094Y-391718D01*
X-1251153Y-395884D01*
X-1241704Y-398424D01*
G37*

%LPD*%
G36*
X590905Y-1020978D02*
G01*
X587146Y-1020521D01*
X583844Y-1018743D01*
X578764Y-1014628D01*
X572770Y-1011580D01*
X566216Y-1009802D01*
X560933Y-1009396D01*
X552856Y-1009396D01*
X548944Y-1008634D01*
X545642Y-1006398D01*
X543458Y-1003147D01*
X542696Y-999236D01*
X542696Y-950874D01*
X525322Y-950874D01*
X521411Y-950061D01*
X518159Y-947877D01*
X515924Y-944575D01*
X515162Y-940714D01*
X515162Y-886460D01*
X515924Y-882548D01*
X518159Y-879297D01*
X521411Y-877062D01*
X525322Y-876300D01*
X605536Y-876300D01*
X609447Y-877062D01*
X612698Y-879297D01*
X614934Y-882548D01*
X615696Y-886460D01*
X615696Y-940714D01*
X614934Y-944575D01*
X612698Y-947877D01*
X609447Y-950061D01*
X605536Y-950874D01*
X600354Y-950874D01*
X600354Y-1010818D01*
X599694Y-1014526D01*
X597662Y-1017778D01*
X594614Y-1020013D01*
G37*

%LPD*%
G36*
X-515924Y-1085596D02*
G01*
X-519836Y-1084834D01*
X-523138Y-1082598D01*
X-536498Y-1069238D01*
X-538734Y-1065936D01*
X-539496Y-1062024D01*
X-539496Y-1030325D01*
X-538734Y-1026414D01*
X-536498Y-1023112D01*
X-533247Y-1020927D01*
X-529336Y-1020165D01*
X-527050Y-1020165D01*
X-520801Y-1019454D01*
X-515416Y-1017574D01*
X-513384Y-1016304D01*
X-509879Y-1014933D01*
X-506120Y-1014933D01*
X-502615Y-1016304D01*
X-500583Y-1017574D01*
X-495198Y-1019454D01*
X-488950Y-1020165D01*
X-400050Y-1020165D01*
X-393801Y-1019454D01*
X-388416Y-1017574D01*
X-386384Y-1016304D01*
X-382879Y-1014933D01*
X-379120Y-1014933D01*
X-375615Y-1016304D01*
X-373583Y-1017574D01*
X-368198Y-1019454D01*
X-361950Y-1020165D01*
X-273050Y-1020165D01*
X-266801Y-1019454D01*
X-261416Y-1017574D01*
X-259384Y-1016304D01*
X-255879Y-1014933D01*
X-252120Y-1014933D01*
X-248615Y-1016304D01*
X-246583Y-1017574D01*
X-241554Y-1019302D01*
X-238353Y-1021181D01*
X-235966Y-1024077D01*
X-234848Y-1027633D01*
X-235051Y-1031341D01*
X-236575Y-1034745D01*
X-239318Y-1038606D01*
X-243484Y-1047546D01*
X-246024Y-1056995D01*
X-246888Y-1066800D01*
X-246176Y-1074572D01*
X-246684Y-1078687D01*
X-248818Y-1082294D01*
X-252221Y-1084732D01*
X-256286Y-1085596D01*
G37*

%LPD*%
G36*
X-1087424Y-1110996D02*
G01*
X-1091336Y-1110234D01*
X-1094638Y-1107998D01*
X-1107998Y-1094638D01*
X-1110234Y-1091336D01*
X-1110996Y-1087424D01*
X-1110996Y-741375D01*
X-1110234Y-737463D01*
X-1107338Y-733501D01*
X-1104036Y-731266D01*
X-1100124Y-730504D01*
X-1033475Y-730504D01*
X-1029563Y-731266D01*
X-1026261Y-733501D01*
X-1018133Y-741832D01*
X-1007618Y-756107D01*
X-1006144Y-758952D01*
X-1005636Y-762101D01*
X-1005636Y-800912D01*
X-1004976Y-807212D01*
X-1003046Y-812596D01*
X-999998Y-817473D01*
X-995984Y-821486D01*
X-991108Y-824534D01*
X-985723Y-826465D01*
X-979424Y-827125D01*
X-886460Y-827125D01*
X-882548Y-827938D01*
X-879297Y-830122D01*
X-877062Y-833424D01*
X-876300Y-837285D01*
X-876300Y-875284D01*
X-875284Y-876300D01*
X-727964Y-876300D01*
X-724052Y-877062D01*
X-720801Y-879297D01*
X-718566Y-882548D01*
X-717804Y-886460D01*
X-717804Y-935024D01*
X-718566Y-938936D01*
X-721461Y-942898D01*
X-724763Y-945134D01*
X-728675Y-945896D01*
X-913892Y-945896D01*
X-921054Y-946658D01*
X-927404Y-948690D01*
X-933297Y-952144D01*
X-937310Y-955548D01*
X-1002436Y-1020673D01*
X-1006144Y-1023061D01*
X-1010513Y-1023619D01*
X-1016000Y-1023112D01*
X-1025804Y-1023975D01*
X-1035253Y-1026515D01*
X-1044194Y-1030681D01*
X-1052220Y-1036319D01*
X-1059180Y-1043279D01*
X-1064818Y-1051306D01*
X-1068984Y-1060246D01*
X-1071524Y-1069695D01*
X-1072388Y-1079500D01*
X-1071524Y-1089304D01*
X-1069136Y-1098194D01*
X-1068832Y-1101902D01*
X-1069898Y-1105458D01*
X-1072134Y-1108405D01*
X-1075283Y-1110335D01*
X-1078941Y-1110996D01*
G37*

%LPD*%
G36*
X259842Y-1148232D02*
G01*
X255422Y-1148029D01*
X251561Y-1146048D01*
X248869Y-1142542D01*
X247904Y-1138224D01*
X247904Y-1120952D01*
X248462Y-1117650D01*
X250037Y-1114704D01*
X258673Y-1103579D01*
X261975Y-1100836D01*
X266090Y-1099667D01*
X270306Y-1100277D01*
X273913Y-1102614D01*
X281686Y-1110437D01*
X283921Y-1113688D01*
X284683Y-1117600D01*
X283921Y-1121511D01*
X281686Y-1124762D01*
X274320Y-1132179D01*
X268427Y-1140561D01*
X266852Y-1143304D01*
X263906Y-1146556D01*
G37*

%LPD*%
G36*
X381914Y-1191107D02*
G01*
X377698Y-1189786D01*
X374446Y-1186789D01*
X372770Y-1182725D01*
X373888Y-1168400D01*
X373024Y-1158595D01*
X370484Y-1149146D01*
X366318Y-1140206D01*
X360680Y-1132179D01*
X353314Y-1124813D01*
X350977Y-1121206D01*
X350367Y-1116990D01*
X351536Y-1112875D01*
X354279Y-1109573D01*
X365404Y-1100937D01*
X368350Y-1099362D01*
X371652Y-1098804D01*
X528624Y-1098804D01*
X532536Y-1099566D01*
X535838Y-1101801D01*
X561898Y-1127861D01*
X564134Y-1131163D01*
X564896Y-1135075D01*
X564896Y-1175207D01*
X564184Y-1178966D01*
X562102Y-1182217D01*
X558952Y-1184452D01*
X555193Y-1185367D01*
X551383Y-1184808D01*
X546709Y-1183132D01*
X540410Y-1182471D01*
X406552Y-1182471D01*
X400304Y-1183132D01*
X394868Y-1185062D01*
X386232Y-1190548D01*
G37*

%LPD*%
G36*
X370179Y-1243838D02*
G01*
X366268Y-1243076D01*
X363016Y-1240840D01*
X360629Y-1238504D01*
X355803Y-1235456D01*
X350367Y-1233576D01*
X346608Y-1231239D01*
X344220Y-1227531D01*
X343611Y-1223162D01*
X344932Y-1218946D01*
X347929Y-1215644D01*
X353720Y-1211580D01*
X360680Y-1204620D01*
X361848Y-1202944D01*
X364947Y-1200048D01*
X369011Y-1198676D01*
X373227Y-1199083D01*
X376936Y-1201166D01*
X379425Y-1204620D01*
X380339Y-1208786D01*
X380339Y-1233678D01*
X379577Y-1237538D01*
X377342Y-1240840D01*
X374040Y-1243076D01*
G37*

%LPD*%
G36*
X-76860Y-1281277D02*
G01*
X-80873Y-1279956D01*
X-84836Y-1276045D01*
X-86309Y-1273200D01*
X-86766Y-1270050D01*
X-86766Y-1259078D01*
X-87477Y-1252829D01*
X-89408Y-1247394D01*
X-92456Y-1242568D01*
X-95605Y-1238199D01*
X-96316Y-1234186D01*
X-95351Y-1230172D01*
X-92913Y-1226870D01*
X-89357Y-1224838D01*
X-85293Y-1224330D01*
X-80365Y-1224788D01*
X-75895Y-1224381D01*
X-71475Y-1224991D01*
X-67767Y-1227378D01*
X-65430Y-1231188D01*
X-64922Y-1235608D01*
X-65633Y-1242060D01*
X-65633Y-1271168D01*
X-66548Y-1275283D01*
X-68986Y-1278686D01*
X-72644Y-1280820D01*
G37*

%LPD*%
G36*
X228092Y-1415796D02*
G01*
X224231Y-1415034D01*
X220929Y-1412798D01*
X218744Y-1409547D01*
X217932Y-1405636D01*
X217932Y-1359103D01*
X217220Y-1352804D01*
X215341Y-1347419D01*
X212293Y-1342542D01*
X210464Y-1340713D01*
X208229Y-1337411D01*
X207467Y-1333500D01*
X208229Y-1329639D01*
X210464Y-1326337D01*
X212293Y-1324457D01*
X215341Y-1319631D01*
X217220Y-1314196D01*
X217932Y-1307947D01*
X217932Y-1259078D01*
X217220Y-1252829D01*
X215341Y-1247394D01*
X212293Y-1242568D01*
X208229Y-1238504D01*
X203403Y-1235456D01*
X197967Y-1233576D01*
X191719Y-1232865D01*
X112877Y-1232865D01*
X106578Y-1233576D01*
X101193Y-1235456D01*
X96316Y-1238504D01*
X92303Y-1242568D01*
X89255Y-1247394D01*
X87325Y-1252829D01*
X86664Y-1259078D01*
X86664Y-1270152D01*
X86156Y-1273302D01*
X84023Y-1277061D01*
X80873Y-1279906D01*
X76860Y-1281176D01*
X72644Y-1280718D01*
X69037Y-1278636D01*
X66548Y-1275181D01*
X65684Y-1271066D01*
X65684Y-1242060D01*
X64973Y-1235811D01*
X63042Y-1230376D01*
X59994Y-1225550D01*
X55981Y-1221486D01*
X51104Y-1218438D01*
X46380Y-1216050D01*
X44043Y-1213154D01*
X42926Y-1209649D01*
X43129Y-1205890D01*
X44653Y-1202486D01*
X48818Y-1196594D01*
X52984Y-1187653D01*
X55524Y-1178204D01*
X56388Y-1168400D01*
X55524Y-1158595D01*
X52984Y-1149146D01*
X48818Y-1140206D01*
X43180Y-1132179D01*
X36220Y-1125220D01*
X28194Y-1119581D01*
X25146Y-1118158D01*
X21996Y-1115872D01*
X19913Y-1112570D01*
X19304Y-1108710D01*
X20116Y-1104900D01*
X22352Y-1101699D01*
X25603Y-1099566D01*
X29464Y-1098804D01*
X60147Y-1098804D01*
X63449Y-1099362D01*
X66395Y-1100937D01*
X78282Y-1110132D01*
X86106Y-1115618D01*
X95046Y-1119784D01*
X104495Y-1122324D01*
X114300Y-1123188D01*
X124104Y-1122324D01*
X133553Y-1119784D01*
X142494Y-1115618D01*
X150520Y-1109980D01*
X157886Y-1102614D01*
X161493Y-1100277D01*
X165709Y-1099667D01*
X169824Y-1100836D01*
X173126Y-1103579D01*
X181762Y-1114704D01*
X183337Y-1117650D01*
X183896Y-1120952D01*
X183896Y-1155192D01*
X184658Y-1162354D01*
X186690Y-1168704D01*
X190144Y-1174597D01*
X193548Y-1178610D01*
X243890Y-1228953D01*
X245871Y-1231747D01*
X246837Y-1235049D01*
X246634Y-1238402D01*
X245313Y-1241552D01*
X241655Y-1247444D01*
X239725Y-1252829D01*
X239064Y-1259078D01*
X239064Y-1307947D01*
X239725Y-1314196D01*
X241655Y-1319631D01*
X244703Y-1324457D01*
X246532Y-1326337D01*
X248767Y-1329639D01*
X249529Y-1333500D01*
X248767Y-1337411D01*
X246532Y-1340713D01*
X244703Y-1342542D01*
X241655Y-1347419D01*
X239725Y-1352804D01*
X239064Y-1359103D01*
X239064Y-1405636D01*
X238252Y-1409547D01*
X236067Y-1412798D01*
X232765Y-1415034D01*
G37*

%LPD*%
G36*
X-229108Y-1415796D02*
G01*
X-232968Y-1415034D01*
X-236270Y-1412798D01*
X-238455Y-1409547D01*
X-239267Y-1405636D01*
X-239267Y-1359103D01*
X-239979Y-1352804D01*
X-241858Y-1347419D01*
X-244906Y-1342542D01*
X-246735Y-1340713D01*
X-248970Y-1337411D01*
X-249732Y-1333500D01*
X-248970Y-1329639D01*
X-246735Y-1326337D01*
X-244906Y-1324457D01*
X-241858Y-1319631D01*
X-239979Y-1314196D01*
X-239267Y-1307947D01*
X-239267Y-1259078D01*
X-239979Y-1252829D01*
X-241858Y-1247394D01*
X-244906Y-1242568D01*
X-248970Y-1238504D01*
X-253796Y-1235456D01*
X-259232Y-1233576D01*
X-265480Y-1232865D01*
X-344322Y-1232865D01*
X-350621Y-1233576D01*
X-356006Y-1235456D01*
X-360883Y-1238504D01*
X-363016Y-1240637D01*
X-366268Y-1242872D01*
X-370179Y-1243634D01*
X-374040Y-1242872D01*
X-377342Y-1240637D01*
X-379577Y-1237335D01*
X-380339Y-1233474D01*
X-380339Y-1208684D01*
X-381050Y-1202385D01*
X-382930Y-1197000D01*
X-385978Y-1192123D01*
X-390042Y-1188110D01*
X-394868Y-1185062D01*
X-400304Y-1183132D01*
X-406552Y-1182471D01*
X-540410Y-1182471D01*
X-546709Y-1183132D01*
X-552094Y-1185062D01*
X-556971Y-1188110D01*
X-560984Y-1192123D01*
X-564032Y-1197000D01*
X-565962Y-1202385D01*
X-566623Y-1208684D01*
X-566623Y-1265936D01*
X-567436Y-1269847D01*
X-569620Y-1273098D01*
X-572922Y-1275334D01*
X-576783Y-1276096D01*
X-757224Y-1276096D01*
X-761136Y-1275334D01*
X-765098Y-1272438D01*
X-767334Y-1269136D01*
X-768096Y-1265224D01*
X-768096Y-1168908D01*
X-768858Y-1161745D01*
X-770890Y-1155395D01*
X-774344Y-1149502D01*
X-777748Y-1145489D01*
X-801624Y-1121613D01*
X-803605Y-1118717D01*
X-804519Y-1115314D01*
X-804214Y-1111808D01*
X-802081Y-1107694D01*
X-797915Y-1098753D01*
X-795375Y-1089304D01*
X-794512Y-1079500D01*
X-795375Y-1069695D01*
X-797915Y-1060246D01*
X-803808Y-1047242D01*
X-803605Y-1042822D01*
X-801573Y-1038910D01*
X-798068Y-1036269D01*
X-793800Y-1035303D01*
X-699008Y-1035303D01*
X-691845Y-1034542D01*
X-685495Y-1032510D01*
X-679602Y-1029055D01*
X-675589Y-1025652D01*
X-654761Y-1004773D01*
X-651764Y-1002741D01*
X-648258Y-1001826D01*
X-644652Y-1002233D01*
X-641400Y-1003909D01*
X-638962Y-1006551D01*
X-636524Y-1010462D01*
X-632460Y-1014526D01*
X-627583Y-1017574D01*
X-622198Y-1019454D01*
X-615950Y-1020165D01*
X-613664Y-1020165D01*
X-609752Y-1020927D01*
X-606501Y-1023112D01*
X-604266Y-1026414D01*
X-603504Y-1030325D01*
X-603504Y-1078992D01*
X-602742Y-1086154D01*
X-600710Y-1092504D01*
X-597255Y-1098397D01*
X-593852Y-1102410D01*
X-556412Y-1139850D01*
X-550824Y-1144371D01*
X-544830Y-1147419D01*
X-538276Y-1149197D01*
X-532993Y-1149604D01*
X-174294Y-1149604D01*
X-170383Y-1150366D01*
X-167081Y-1152601D01*
X-164896Y-1155852D01*
X-164134Y-1159764D01*
X-164896Y-1163675D01*
X-167081Y-1166926D01*
X-179171Y-1179017D01*
X-184251Y-1185214D01*
X-187807Y-1191818D01*
X-189992Y-1199032D01*
X-190754Y-1207008D01*
X-190754Y-1211935D01*
X-191820Y-1216456D01*
X-199034Y-1230833D01*
X-200558Y-1233119D01*
X-202692Y-1234897D01*
X-208381Y-1238504D01*
X-212445Y-1242568D01*
X-215493Y-1247394D01*
X-217373Y-1252829D01*
X-218084Y-1259078D01*
X-218084Y-1307947D01*
X-217373Y-1314196D01*
X-215493Y-1319631D01*
X-212445Y-1324457D01*
X-210616Y-1326337D01*
X-208381Y-1329639D01*
X-207619Y-1333500D01*
X-208381Y-1337411D01*
X-210616Y-1340713D01*
X-212445Y-1342542D01*
X-215493Y-1347419D01*
X-217373Y-1352804D01*
X-218084Y-1359052D01*
X-218084Y-1364640D01*
X-178816Y-1364640D01*
X-178816Y-1344320D01*
X-178003Y-1340408D01*
X-175818Y-1337157D01*
X-172516Y-1334922D01*
X-168656Y-1334160D01*
X-136245Y-1334160D01*
X-132384Y-1334922D01*
X-129082Y-1337157D01*
X-126847Y-1340408D01*
X-126085Y-1344320D01*
X-126085Y-1364640D01*
X-86461Y-1364640D01*
X-84429Y-1360728D01*
X-80924Y-1358087D01*
X-75793Y-1357122D01*
X-71932Y-1357884D01*
X-68630Y-1360119D01*
X-66446Y-1363370D01*
X-65633Y-1367282D01*
X-65633Y-1405636D01*
X-66446Y-1409547D01*
X-68630Y-1412798D01*
X-71932Y-1415034D01*
X-76606Y-1415796D01*
X-80518Y-1415034D01*
X-83820Y-1412798D01*
X-86004Y-1409547D01*
X-86766Y-1405636D01*
X-86766Y-1402334D01*
X-126085Y-1402334D01*
X-126085Y-1405636D01*
X-126847Y-1409547D01*
X-129082Y-1412798D01*
X-132384Y-1415034D01*
X-136245Y-1415796D01*
X-168656Y-1415796D01*
X-172516Y-1415034D01*
X-175818Y-1412798D01*
X-178003Y-1409547D01*
X-178816Y-1405636D01*
X-178816Y-1402334D01*
X-218084Y-1402334D01*
X-218084Y-1405636D01*
X-218897Y-1409547D01*
X-221081Y-1412798D01*
X-224383Y-1415034D01*
G37*

%LPD*%
G36*
X-610158Y-1415796D02*
G01*
X-613816Y-1415135D01*
X-616966Y-1413205D01*
X-619201Y-1410258D01*
X-620268Y-1406702D01*
X-619963Y-1402994D01*
X-617575Y-1394104D01*
X-616712Y-1384300D01*
X-617575Y-1374495D01*
X-620115Y-1365046D01*
X-626008Y-1352042D01*
X-625805Y-1347622D01*
X-623773Y-1343710D01*
X-620268Y-1341069D01*
X-616000Y-1340104D01*
X-576783Y-1340104D01*
X-572922Y-1340866D01*
X-569620Y-1343101D01*
X-567436Y-1346352D01*
X-566623Y-1350264D01*
X-566623Y-1405636D01*
X-567436Y-1409547D01*
X-569620Y-1412798D01*
X-572922Y-1415034D01*
X-576783Y-1415796D01*
G37*

%LPD*%
G36*
X378256Y-1441196D02*
G01*
X372364Y-1440992D01*
X368249Y-1439976D01*
X364896Y-1437386D01*
X362915Y-1433626D01*
X362610Y-1429410D01*
X364083Y-1425448D01*
X366877Y-1421028D01*
X369671Y-1418082D01*
X373430Y-1416456D01*
X377494Y-1416456D01*
X381254Y-1418082D01*
X384098Y-1421028D01*
X388010Y-1427175D01*
X388772Y-1431137D01*
X387908Y-1435049D01*
X385622Y-1438351D01*
X382219Y-1440535D01*
G37*

%LPD*%
G36*
X198272Y-1752346D02*
G01*
X194310Y-1751533D01*
X190957Y-1749196D01*
X188772Y-1745742D01*
X188163Y-1741728D01*
X189128Y-1737817D01*
X191617Y-1734566D01*
X201676Y-1725675D01*
X210820Y-1715312D01*
X218490Y-1703832D01*
X224586Y-1691436D01*
X229057Y-1678330D01*
X231749Y-1664766D01*
X232613Y-1651000D01*
X231749Y-1637233D01*
X229057Y-1623669D01*
X224586Y-1610563D01*
X218490Y-1598168D01*
X210820Y-1586687D01*
X201676Y-1576324D01*
X198831Y-1573784D01*
X196392Y-1570532D01*
X195376Y-1566621D01*
X196037Y-1562608D01*
X198221Y-1559153D01*
X201523Y-1556816D01*
X205536Y-1556004D01*
X302463Y-1556004D01*
X306476Y-1556816D01*
X309778Y-1559153D01*
X311962Y-1562608D01*
X312623Y-1566621D01*
X311607Y-1570532D01*
X309168Y-1573784D01*
X306324Y-1576324D01*
X297180Y-1586687D01*
X289509Y-1598168D01*
X283413Y-1610563D01*
X278942Y-1623669D01*
X276250Y-1637233D01*
X275386Y-1651000D01*
X276250Y-1664766D01*
X278942Y-1678330D01*
X283413Y-1691436D01*
X289509Y-1703832D01*
X297180Y-1715312D01*
X306324Y-1725675D01*
X316382Y-1734566D01*
X318871Y-1737817D01*
X319836Y-1741728D01*
X319227Y-1745742D01*
X317042Y-1749196D01*
X313690Y-1751533D01*
X309727Y-1752346D01*
G37*

%LPD*%
G36*
X-55727Y-1752346D02*
G01*
X-59690Y-1751533D01*
X-63042Y-1749196D01*
X-65227Y-1745742D01*
X-65836Y-1741728D01*
X-64871Y-1737817D01*
X-62382Y-1734566D01*
X-52324Y-1725675D01*
X-43180Y-1715312D01*
X-35509Y-1703832D01*
X-29413Y-1691436D01*
X-24942Y-1678330D01*
X-22250Y-1664766D01*
X-21386Y-1651000D01*
X-22250Y-1637233D01*
X-24942Y-1623669D01*
X-29413Y-1610563D01*
X-35509Y-1598168D01*
X-43180Y-1586687D01*
X-52324Y-1576324D01*
X-55168Y-1573784D01*
X-57607Y-1570532D01*
X-58623Y-1566621D01*
X-57962Y-1562608D01*
X-55778Y-1559153D01*
X-52476Y-1556816D01*
X-48463Y-1556004D01*
X48463Y-1556004D01*
X52476Y-1556816D01*
X55778Y-1559153D01*
X57962Y-1562608D01*
X58623Y-1566621D01*
X57607Y-1570532D01*
X55168Y-1573784D01*
X52324Y-1576324D01*
X43180Y-1586687D01*
X35509Y-1598168D01*
X29413Y-1610563D01*
X24942Y-1623669D01*
X22250Y-1637233D01*
X21386Y-1651000D01*
X22250Y-1664766D01*
X24942Y-1678330D01*
X29413Y-1691436D01*
X35509Y-1703832D01*
X43180Y-1715312D01*
X52324Y-1725675D01*
X62382Y-1734566D01*
X64871Y-1737817D01*
X65836Y-1741728D01*
X65227Y-1745742D01*
X63042Y-1749196D01*
X59690Y-1751533D01*
X55727Y-1752346D01*
G37*

%LPD*%
G36*
X1214272Y-1752346D02*
G01*
X1210310Y-1751533D01*
X1206957Y-1749196D01*
X1204772Y-1745742D01*
X1204163Y-1741728D01*
X1205128Y-1737817D01*
X1207617Y-1734566D01*
X1217676Y-1725675D01*
X1226820Y-1715312D01*
X1234490Y-1703832D01*
X1240586Y-1691436D01*
X1245057Y-1678330D01*
X1247749Y-1664766D01*
X1248613Y-1651000D01*
X1247749Y-1637233D01*
X1245057Y-1623669D01*
X1240586Y-1610563D01*
X1234490Y-1598168D01*
X1226820Y-1586687D01*
X1217676Y-1576324D01*
X1207312Y-1567180D01*
X1195832Y-1559509D01*
X1183436Y-1553413D01*
X1170330Y-1548942D01*
X1156766Y-1546250D01*
X1147978Y-1545488D01*
X1085392Y-1544167D01*
X1081633Y-1543354D01*
X1078433Y-1541170D01*
X1039012Y-1501749D01*
X1033424Y-1497228D01*
X1027430Y-1494180D01*
X1020876Y-1492402D01*
X1015593Y-1491996D01*
X875741Y-1491996D01*
X872083Y-1491335D01*
X868934Y-1489405D01*
X866698Y-1486458D01*
X865632Y-1482902D01*
X865936Y-1479194D01*
X868324Y-1470304D01*
X869187Y-1460500D01*
X868324Y-1450695D01*
X867206Y-1446530D01*
X866902Y-1442872D01*
X867968Y-1439316D01*
X870203Y-1436370D01*
X873353Y-1434439D01*
X877011Y-1433779D01*
X883412Y-1433779D01*
X883412Y-1364437D01*
X842264Y-1364437D01*
X838352Y-1363675D01*
X835101Y-1361490D01*
X832866Y-1358188D01*
X832103Y-1354277D01*
X832103Y-1334008D01*
X831342Y-1326845D01*
X829310Y-1320495D01*
X825855Y-1314602D01*
X822452Y-1310589D01*
X784301Y-1272438D01*
X782066Y-1269136D01*
X781304Y-1265224D01*
X781304Y-1060399D01*
X782269Y-1056132D01*
X784910Y-1052626D01*
X788822Y-1050594D01*
X793242Y-1050391D01*
X806246Y-1056284D01*
X815695Y-1058824D01*
X825500Y-1059688D01*
X835304Y-1058824D01*
X844753Y-1056284D01*
X853694Y-1052118D01*
X862330Y-1046022D01*
X873404Y-1037437D01*
X876350Y-1035862D01*
X879652Y-1035303D01*
X990092Y-1035303D01*
X997254Y-1034542D01*
X1003604Y-1032510D01*
X1009497Y-1029055D01*
X1013510Y-1025652D01*
X1023823Y-1015339D01*
X1027074Y-1013155D01*
X1030986Y-1012393D01*
X1034897Y-1013155D01*
X1038148Y-1015339D01*
X1040384Y-1018641D01*
X1041146Y-1022553D01*
X1041146Y-1029462D01*
X1040130Y-1033881D01*
X1034440Y-1045768D01*
X1030681Y-1051306D01*
X1026515Y-1060246D01*
X1023975Y-1069695D01*
X1023112Y-1079500D01*
X1023975Y-1089304D01*
X1026515Y-1098753D01*
X1030681Y-1107694D01*
X1039571Y-1120038D01*
X1040333Y-1123950D01*
X1039571Y-1127861D01*
X1030681Y-1140206D01*
X1026515Y-1149146D01*
X1023975Y-1158595D01*
X1023112Y-1168400D01*
X1024077Y-1179068D01*
X1023721Y-1182674D01*
X1022146Y-1185926D01*
X1019556Y-1188415D01*
X1015644Y-1189990D01*
X1011631Y-1190142D01*
X1007922Y-1188720D01*
X1002131Y-1185062D01*
X996696Y-1183132D01*
X990447Y-1182471D01*
X963625Y-1182471D01*
X963625Y-1251762D01*
X1016660Y-1251762D01*
X1016660Y-1208786D01*
X1017574Y-1204620D01*
X1020064Y-1201166D01*
X1023772Y-1199083D01*
X1027988Y-1198676D01*
X1032052Y-1200048D01*
X1035151Y-1202944D01*
X1036319Y-1204620D01*
X1043279Y-1211580D01*
X1051306Y-1217218D01*
X1060246Y-1221384D01*
X1069898Y-1223975D01*
X1089253Y-1226413D01*
X1092454Y-1227378D01*
X1095146Y-1229309D01*
X1121257Y-1255420D01*
X1126845Y-1259941D01*
X1132840Y-1262989D01*
X1139393Y-1264767D01*
X1144676Y-1265174D01*
X1209497Y-1265174D01*
X1213053Y-1265834D01*
X1216152Y-1267663D01*
X1218387Y-1270457D01*
X1221435Y-1279296D01*
X1224483Y-1284173D01*
X1228547Y-1288237D01*
X1233373Y-1291285D01*
X1238808Y-1293164D01*
X1245057Y-1293876D01*
X1313942Y-1293876D01*
X1320190Y-1293164D01*
X1325626Y-1291285D01*
X1329080Y-1289100D01*
X1332636Y-1287678D01*
X1336395Y-1287678D01*
X1339900Y-1289100D01*
X1343406Y-1291285D01*
X1348790Y-1293164D01*
X1355090Y-1293876D01*
X1365656Y-1293876D01*
X1365656Y-1257046D01*
X1350314Y-1257046D01*
X1346403Y-1256284D01*
X1343152Y-1254099D01*
X1340916Y-1250797D01*
X1340154Y-1246886D01*
X1340154Y-1219504D01*
X1340916Y-1215644D01*
X1343152Y-1212342D01*
X1346403Y-1210157D01*
X1350314Y-1209344D01*
X1365656Y-1209344D01*
X1365656Y-1172565D01*
X1355090Y-1172565D01*
X1348790Y-1173276D01*
X1343406Y-1175156D01*
X1339900Y-1177340D01*
X1336395Y-1178712D01*
X1332636Y-1178712D01*
X1329080Y-1177340D01*
X1325626Y-1175156D01*
X1320190Y-1173276D01*
X1313942Y-1172565D01*
X1245057Y-1172565D01*
X1238808Y-1173276D01*
X1233373Y-1175156D01*
X1228547Y-1178204D01*
X1224483Y-1182268D01*
X1221435Y-1187094D01*
X1218387Y-1195933D01*
X1216101Y-1198727D01*
X1213002Y-1200556D01*
X1209497Y-1201166D01*
X1161745Y-1201166D01*
X1157833Y-1200404D01*
X1154531Y-1198168D01*
X1140409Y-1184046D01*
X1138478Y-1181354D01*
X1137513Y-1178153D01*
X1135075Y-1158798D01*
X1132484Y-1149146D01*
X1128318Y-1140206D01*
X1119428Y-1127861D01*
X1118666Y-1123950D01*
X1119428Y-1120038D01*
X1128318Y-1107694D01*
X1132484Y-1098753D01*
X1135024Y-1089304D01*
X1135888Y-1079500D01*
X1135024Y-1069695D01*
X1132484Y-1060246D01*
X1128318Y-1051306D01*
X1124559Y-1045768D01*
X1118870Y-1033881D01*
X1117854Y-1029462D01*
X1117854Y-972616D01*
X1118616Y-968705D01*
X1120851Y-965403D01*
X1143203Y-943051D01*
X1146505Y-940816D01*
X1150416Y-940053D01*
X1211884Y-940053D01*
X1216456Y-941120D01*
X1229614Y-947724D01*
X1233119Y-950569D01*
X1234998Y-954633D01*
X1238554Y-971042D01*
X1238707Y-974445D01*
X1237691Y-977696D01*
X1230122Y-992886D01*
X1228242Y-995527D01*
X1224483Y-999236D01*
X1221435Y-1004112D01*
X1219555Y-1009497D01*
X1218844Y-1015796D01*
X1218844Y-1084630D01*
X1219555Y-1090879D01*
X1221435Y-1096314D01*
X1224483Y-1101140D01*
X1228547Y-1105204D01*
X1233373Y-1108252D01*
X1238808Y-1110183D01*
X1245057Y-1110843D01*
X1313942Y-1110843D01*
X1320190Y-1110183D01*
X1325626Y-1108252D01*
X1329080Y-1106068D01*
X1332636Y-1104696D01*
X1336395Y-1104696D01*
X1339900Y-1106068D01*
X1343406Y-1108252D01*
X1348790Y-1110183D01*
X1355090Y-1110843D01*
X1423924Y-1110843D01*
X1430223Y-1110183D01*
X1435608Y-1108252D01*
X1440484Y-1105204D01*
X1444498Y-1101140D01*
X1447546Y-1096314D01*
X1449476Y-1090879D01*
X1450136Y-1084630D01*
X1450136Y-1015796D01*
X1449476Y-1009497D01*
X1447546Y-1004112D01*
X1444498Y-999236D01*
X1440484Y-995222D01*
X1435608Y-992174D01*
X1430223Y-990244D01*
X1423924Y-989533D01*
X1398422Y-989533D01*
X1395272Y-989025D01*
X1392428Y-987602D01*
X1389837Y-985723D01*
X1388262Y-983894D01*
X1386128Y-982980D01*
X1376934Y-976071D01*
X1368501Y-967638D01*
X1366266Y-964336D01*
X1365504Y-960424D01*
X1365504Y-826008D01*
X1364742Y-818845D01*
X1362710Y-812495D01*
X1359255Y-806602D01*
X1355852Y-802589D01*
X1348181Y-794918D01*
X1345996Y-791616D01*
X1345234Y-787755D01*
X1345234Y-754634D01*
X1305915Y-754634D01*
X1305915Y-757936D01*
X1305153Y-761847D01*
X1302918Y-765098D01*
X1299667Y-767334D01*
X1295755Y-768096D01*
X1236675Y-768096D01*
X1232763Y-767334D01*
X1228801Y-764438D01*
X1226566Y-761136D01*
X1225804Y-757224D01*
X1225804Y-753364D01*
X1226413Y-749858D01*
X1228191Y-746810D01*
X1243279Y-728980D01*
X1247749Y-723188D01*
X1253083Y-713943D01*
X1256842Y-704037D01*
X1258925Y-693724D01*
X1259382Y-683158D01*
X1258112Y-672693D01*
X1255166Y-662533D01*
X1250645Y-652983D01*
X1244650Y-644296D01*
X1237335Y-636676D01*
X1228852Y-630326D01*
X1219504Y-625449D01*
X1209497Y-622096D01*
X1199083Y-620369D01*
X1188516Y-620369D01*
X1178102Y-622096D01*
X1168095Y-625449D01*
X1158748Y-630326D01*
X1150264Y-636676D01*
X1142949Y-644296D01*
X1136954Y-652983D01*
X1132433Y-662533D01*
X1129233Y-673709D01*
X1127506Y-677164D01*
X1124610Y-679704D01*
X1121003Y-680974D01*
X1117142Y-680821D01*
X1113637Y-679246D01*
X1107694Y-675081D01*
X1098753Y-670915D01*
X1089304Y-668375D01*
X1079500Y-667512D01*
X1071727Y-668223D01*
X1067612Y-667715D01*
X1064006Y-665581D01*
X1061567Y-662178D01*
X1060704Y-658114D01*
X1060704Y-411226D01*
X1061466Y-407314D01*
X1063701Y-404063D01*
X1066952Y-401828D01*
X1070864Y-401066D01*
X1122375Y-401066D01*
X1125728Y-401624D01*
X1128725Y-403301D01*
X1131011Y-405841D01*
X1133703Y-410108D01*
X1135532Y-411937D01*
X1137767Y-415239D01*
X1138529Y-419150D01*
X1137767Y-423011D01*
X1135532Y-426313D01*
X1133703Y-428193D01*
X1130655Y-433019D01*
X1128725Y-438454D01*
X1128064Y-444703D01*
X1128064Y-450291D01*
X1167333Y-450291D01*
X1167333Y-429971D01*
X1168095Y-426059D01*
X1170330Y-422757D01*
X1173632Y-420573D01*
X1177493Y-419811D01*
X1209903Y-419811D01*
X1213764Y-420573D01*
X1217066Y-422757D01*
X1219250Y-426059D01*
X1220063Y-429971D01*
X1220063Y-450291D01*
X1259332Y-450291D01*
X1259332Y-444703D01*
X1258620Y-438454D01*
X1256741Y-433019D01*
X1253693Y-428193D01*
X1251864Y-426313D01*
X1249629Y-423011D01*
X1248867Y-419150D01*
X1249629Y-415239D01*
X1251864Y-411937D01*
X1253693Y-410108D01*
X1256741Y-405231D01*
X1258620Y-399846D01*
X1259332Y-393598D01*
X1259332Y-344728D01*
X1258620Y-338429D01*
X1256741Y-333044D01*
X1253693Y-328168D01*
X1249629Y-324154D01*
X1244803Y-321106D01*
X1239367Y-319176D01*
X1233119Y-318516D01*
X1229868Y-318516D01*
X1225956Y-317703D01*
X1222705Y-315518D01*
X1220470Y-312216D01*
X1219708Y-308356D01*
X1219708Y-299618D01*
X1220571Y-295554D01*
X1222959Y-292150D01*
X1226515Y-290017D01*
X1233424Y-287172D01*
X1237234Y-287172D01*
X1241704Y-289204D01*
X1247140Y-291084D01*
X1253388Y-291795D01*
X1261465Y-291795D01*
X1261465Y-247497D01*
X1253642Y-247497D01*
X1249730Y-246684D01*
X1246479Y-244500D01*
X1244244Y-241198D01*
X1243482Y-237337D01*
X1243482Y-194919D01*
X1244244Y-191058D01*
X1246479Y-187756D01*
X1249730Y-185572D01*
X1253642Y-184759D01*
X1261465Y-184759D01*
X1261465Y-140462D01*
X1253388Y-140462D01*
X1247140Y-141173D01*
X1241704Y-143052D01*
X1237234Y-145084D01*
X1233424Y-145084D01*
X1228953Y-143052D01*
X1223518Y-141173D01*
X1217269Y-140462D01*
X1158392Y-140462D01*
X1152144Y-141173D01*
X1146708Y-143052D01*
X1141882Y-146100D01*
X1137818Y-150164D01*
X1134770Y-155041D01*
X1132890Y-160426D01*
X1132179Y-166674D01*
X1132179Y-265531D01*
X1132890Y-271830D01*
X1134770Y-277215D01*
X1137818Y-282092D01*
X1141882Y-286105D01*
X1146708Y-289204D01*
X1148892Y-289915D01*
X1152448Y-292100D01*
X1154836Y-295452D01*
X1155700Y-299516D01*
X1155700Y-309270D01*
X1154836Y-313334D01*
X1152448Y-316738D01*
X1148892Y-318871D01*
X1142593Y-321106D01*
X1137716Y-324154D01*
X1133703Y-328168D01*
X1131112Y-332282D01*
X1128826Y-334822D01*
X1125880Y-336499D01*
X1122476Y-337058D01*
X1053846Y-337058D01*
X1046683Y-337820D01*
X1040333Y-339852D01*
X1034440Y-343306D01*
X1030427Y-346710D01*
X1023010Y-354126D01*
X1019708Y-356311D01*
X1015847Y-357124D01*
X1011936Y-356311D01*
X1008634Y-354126D01*
X1006449Y-350824D01*
X1005687Y-346964D01*
X1005687Y-331063D01*
X1004976Y-324815D01*
X1003046Y-319379D01*
X1001826Y-317398D01*
X1000455Y-313893D01*
X1000455Y-310083D01*
X1001826Y-306578D01*
X1003046Y-304596D01*
X1004976Y-299212D01*
X1005687Y-292912D01*
X1005687Y-204063D01*
X1004976Y-197815D01*
X1003046Y-192379D01*
X1001826Y-190398D01*
X1000404Y-186893D01*
X1000404Y-183083D01*
X1001826Y-179578D01*
X1003046Y-177596D01*
X1004925Y-172212D01*
X1005636Y-165912D01*
X1005636Y-77063D01*
X1004925Y-70815D01*
X1003046Y-65379D01*
X1001776Y-63398D01*
X1000404Y-59893D01*
X1000404Y-56083D01*
X1001776Y-52578D01*
X1003046Y-50596D01*
X1004925Y-45161D01*
X1005636Y-38912D01*
X1005636Y45059D01*
X1006500Y49123D01*
X1008887Y52476D01*
X1011478Y54051D01*
X1008481Y54864D01*
X1005382Y57251D01*
X1001776Y63601D01*
X1000404Y67106D01*
X1000404Y70916D01*
X1001776Y74422D01*
X1003046Y76403D01*
X1004925Y81838D01*
X1005636Y88087D01*
X1005636Y176936D01*
X1004925Y183235D01*
X1003046Y188620D01*
X1001776Y190601D01*
X1000404Y194157D01*
X1000404Y197916D01*
X1001776Y201422D01*
X1003046Y203403D01*
X1004925Y208838D01*
X1005636Y215087D01*
X1005636Y303936D01*
X1004925Y310235D01*
X1003909Y313080D01*
X1003401Y317398D01*
X1004773Y321564D01*
X1007719Y324764D01*
X1011783Y326440D01*
X1016152Y326237D01*
X1018895Y325475D01*
X1027379Y324764D01*
X1031189Y323646D01*
X1034287Y321157D01*
X1036167Y317703D01*
X1036624Y313740D01*
X1035812Y304800D01*
X1036675Y294995D01*
X1039215Y285546D01*
X1043381Y276606D01*
X1049020Y268579D01*
X1055979Y261620D01*
X1064006Y255981D01*
X1072946Y251815D01*
X1082395Y249275D01*
X1092200Y248412D01*
X1102004Y249275D01*
X1111453Y251815D01*
X1120394Y255981D01*
X1128420Y261620D01*
X1135380Y268579D01*
X1141018Y276606D01*
X1145184Y285546D01*
X1148791Y299466D01*
X1151026Y302463D01*
X1154226Y304444D01*
X1157884Y305104D01*
X1183690Y305104D01*
X1187551Y304342D01*
X1190853Y302158D01*
X1193088Y298856D01*
X1193850Y294944D01*
X1193088Y291084D01*
X1190853Y287782D01*
X1187653Y284581D01*
X1184605Y279704D01*
X1182725Y274320D01*
X1182014Y268020D01*
X1182014Y254965D01*
X1213815Y254965D01*
X1213815Y295656D01*
X1214475Y299262D01*
X1216406Y302412D01*
X1219301Y304698D01*
X1223518Y305816D01*
X1228953Y307695D01*
X1237437Y313334D01*
X1241348Y314147D01*
X1245260Y313334D01*
X1248511Y311150D01*
X1250746Y307848D01*
X1251508Y303987D01*
X1251508Y254965D01*
X1271828Y254965D01*
X1275740Y254203D01*
X1279042Y251967D01*
X1281226Y248666D01*
X1281988Y244805D01*
X1281988Y212394D01*
X1281226Y208534D01*
X1279042Y205232D01*
X1275740Y203047D01*
X1271828Y202234D01*
X1251508Y202234D01*
X1251508Y162966D01*
X1257096Y162966D01*
X1263345Y163677D01*
X1268780Y165557D01*
X1273606Y168605D01*
X1275486Y170484D01*
X1278788Y172669D01*
X1282649Y173431D01*
X1286560Y172669D01*
X1289862Y170484D01*
X1291691Y168605D01*
X1296568Y165557D01*
X1301953Y163677D01*
X1308252Y162966D01*
X1357071Y162966D01*
X1363573Y163677D01*
X1367180Y164795D01*
X1385824Y171907D01*
X1389735Y172618D01*
X1393647Y171704D01*
X1396847Y169418D01*
X1398981Y166065D01*
X1399641Y162153D01*
X1398727Y158242D01*
X1396441Y155041D01*
X1392377Y151180D01*
X1388821Y149047D01*
X1363878Y140106D01*
X1360474Y139547D01*
X1348384Y139547D01*
X1342136Y138836D01*
X1336700Y136906D01*
X1331874Y133858D01*
X1327810Y129844D01*
X1324762Y124968D01*
X1322882Y119583D01*
X1322171Y113283D01*
X1322171Y46786D01*
X1321358Y42824D01*
X1319072Y39471D01*
X1315669Y37287D01*
X1311656Y36626D01*
X1307744Y37592D01*
X1301953Y40284D01*
X1292504Y42824D01*
X1282700Y43688D01*
X1272895Y42824D01*
X1263446Y40284D01*
X1257909Y37693D01*
X1253998Y36779D01*
X1249984Y37439D01*
X1246581Y39624D01*
X1244295Y42926D01*
X1243482Y46939D01*
X1243482Y113283D01*
X1242771Y119583D01*
X1240891Y124968D01*
X1237843Y129844D01*
X1233779Y133858D01*
X1228953Y136906D01*
X1223518Y138836D01*
X1217269Y139547D01*
X1158392Y139547D01*
X1152144Y138836D01*
X1146708Y136906D01*
X1141882Y133858D01*
X1137818Y129844D01*
X1134770Y124968D01*
X1132890Y119583D01*
X1132179Y113487D01*
X1130858Y109524D01*
X1128064Y106426D01*
X1124305Y104698D01*
X1120089Y104648D01*
X1116279Y106324D01*
X1107694Y112318D01*
X1098753Y116484D01*
X1089304Y119024D01*
X1079500Y119887D01*
X1069695Y119024D01*
X1060246Y116484D01*
X1051306Y112318D01*
X1043279Y106680D01*
X1036319Y99720D01*
X1030681Y91694D01*
X1026515Y82753D01*
X1023975Y73304D01*
X1023112Y63093D01*
X1021994Y59334D01*
X1019556Y56235D01*
X1017320Y54965D01*
X1020521Y54051D01*
X1023721Y51409D01*
X1025601Y47701D01*
X1026515Y44246D01*
X1030681Y35306D01*
X1036319Y27279D01*
X1043279Y20320D01*
X1051306Y14681D01*
X1060246Y10515D01*
X1069695Y7975D01*
X1079500Y7112D01*
X1089304Y7975D01*
X1098753Y10515D01*
X1107694Y14681D01*
X1116330Y20777D01*
X1120190Y22402D01*
X1124356Y22352D01*
X1128166Y20624D01*
X1130960Y17526D01*
X1132281Y13563D01*
X1132890Y8178D01*
X1134770Y2794D01*
X1137818Y-2082D01*
X1141882Y-6146D01*
X1146708Y-9194D01*
X1152144Y-11074D01*
X1158392Y-11785D01*
X1216964Y-11785D01*
X1220622Y-12446D01*
X1223822Y-14427D01*
X1226058Y-17424D01*
X1227175Y-22504D01*
X1229715Y-31953D01*
X1233881Y-40894D01*
X1239520Y-48920D01*
X1246479Y-55880D01*
X1254506Y-61518D01*
X1263446Y-65684D01*
X1272895Y-68224D01*
X1282700Y-69088D01*
X1292504Y-68224D01*
X1301953Y-65684D01*
X1310894Y-61518D01*
X1316431Y-57759D01*
X1322730Y-54762D01*
X1325626Y-53848D01*
X1328674Y-53848D01*
X1331569Y-54762D01*
X1339291Y-58623D01*
X1343406Y-61518D01*
X1352346Y-65684D01*
X1361795Y-68224D01*
X1371600Y-69088D01*
X1381404Y-68224D01*
X1390853Y-65684D01*
X1399794Y-61518D01*
X1412138Y-52628D01*
X1416050Y-51866D01*
X1419961Y-52628D01*
X1432306Y-61518D01*
X1441246Y-65684D01*
X1450695Y-68224D01*
X1460500Y-69088D01*
X1470304Y-68224D01*
X1479753Y-65684D01*
X1488694Y-61518D01*
X1496720Y-55880D01*
X1503680Y-48920D01*
X1509318Y-40894D01*
X1513484Y-31953D01*
X1516024Y-22504D01*
X1516888Y-12700D01*
X1516024Y-2895D01*
X1513484Y6553D01*
X1509318Y15494D01*
X1503680Y23520D01*
X1496720Y30480D01*
X1488694Y36118D01*
X1479753Y40284D01*
X1470304Y42824D01*
X1460500Y43688D01*
X1450695Y42824D01*
X1446276Y41605D01*
X1442567Y41351D01*
X1439011Y42367D01*
X1436116Y44653D01*
X1434134Y47802D01*
X1433474Y51409D01*
X1433474Y59893D01*
X1433982Y62991D01*
X1439926Y81584D01*
X1442059Y85293D01*
X1445463Y87782D01*
X1449628Y88646D01*
X1528978Y88646D01*
X1532483Y88036D01*
X1535531Y86258D01*
X1586534Y43281D01*
X1598168Y35509D01*
X1610563Y29413D01*
X1623669Y24942D01*
X1637233Y22250D01*
X1651000Y21386D01*
X1664766Y22250D01*
X1678330Y24942D01*
X1691436Y29413D01*
X1703832Y35509D01*
X1715312Y43180D01*
X1725675Y52324D01*
X1734566Y62382D01*
X1737817Y64871D01*
X1741728Y65836D01*
X1745742Y65227D01*
X1749196Y63042D01*
X1751533Y59690D01*
X1752346Y55727D01*
X1752346Y-55727D01*
X1751533Y-59690D01*
X1749196Y-63042D01*
X1745742Y-65227D01*
X1741728Y-65836D01*
X1737817Y-64871D01*
X1734566Y-62382D01*
X1725675Y-52324D01*
X1715312Y-43180D01*
X1703832Y-35509D01*
X1697329Y-32308D01*
X1697329Y-80670D01*
X1742186Y-80670D01*
X1746097Y-81432D01*
X1749348Y-83616D01*
X1751584Y-86918D01*
X1752346Y-90830D01*
X1752346Y-163169D01*
X1751584Y-167081D01*
X1749348Y-170383D01*
X1746097Y-172567D01*
X1742186Y-173329D01*
X1697329Y-173329D01*
X1697329Y-221691D01*
X1703832Y-218490D01*
X1715312Y-210820D01*
X1725675Y-201676D01*
X1734566Y-191617D01*
X1737817Y-189128D01*
X1741728Y-188163D01*
X1745742Y-188772D01*
X1749196Y-190957D01*
X1751533Y-194310D01*
X1752346Y-198272D01*
X1752346Y-309727D01*
X1751533Y-313690D01*
X1749196Y-317042D01*
X1745742Y-319227D01*
X1741728Y-319836D01*
X1737817Y-318871D01*
X1734566Y-316382D01*
X1725675Y-306324D01*
X1715312Y-297180D01*
X1703832Y-289509D01*
X1697329Y-286308D01*
X1697329Y-334670D01*
X1742186Y-334670D01*
X1746097Y-335432D01*
X1749348Y-337616D01*
X1751584Y-340918D01*
X1752346Y-344830D01*
X1752346Y-417169D01*
X1751584Y-421081D01*
X1749348Y-424383D01*
X1746097Y-426567D01*
X1742186Y-427329D01*
X1697329Y-427329D01*
X1697329Y-475691D01*
X1703832Y-472490D01*
X1715312Y-464820D01*
X1725675Y-455676D01*
X1734566Y-445617D01*
X1737817Y-443128D01*
X1741728Y-442163D01*
X1745742Y-442772D01*
X1749196Y-444957D01*
X1751533Y-448309D01*
X1752346Y-452272D01*
X1752346Y-563727D01*
X1751533Y-567690D01*
X1749196Y-571042D01*
X1745742Y-573227D01*
X1741728Y-573836D01*
X1737817Y-572871D01*
X1734566Y-570382D01*
X1725675Y-560324D01*
X1715312Y-551180D01*
X1703832Y-543509D01*
X1691436Y-537413D01*
X1678330Y-532942D01*
X1664766Y-530250D01*
X1651000Y-529386D01*
X1637233Y-530250D01*
X1623669Y-532942D01*
X1610563Y-537413D01*
X1598168Y-543509D01*
X1586687Y-551180D01*
X1579727Y-557072D01*
X1534617Y-600506D01*
X1531416Y-602589D01*
X1527606Y-603351D01*
X1442720Y-603554D01*
X1439316Y-602996D01*
X1436370Y-601370D01*
X1434084Y-598830D01*
X1431594Y-594817D01*
X1427530Y-590804D01*
X1422654Y-587756D01*
X1417269Y-585825D01*
X1411020Y-585165D01*
X1407515Y-585165D01*
X1404112Y-584555D01*
X1401114Y-582930D01*
X1398879Y-580339D01*
X1397508Y-578154D01*
X1393952Y-573989D01*
X1369212Y-549249D01*
X1363624Y-544728D01*
X1357630Y-541680D01*
X1350416Y-539750D01*
X1346809Y-537921D01*
X1344168Y-534873D01*
X1342948Y-531012D01*
X1343304Y-526999D01*
X1345184Y-523443D01*
X1345184Y-487934D01*
X1305915Y-487934D01*
X1305915Y-493522D01*
X1306626Y-499821D01*
X1307947Y-503682D01*
X1308506Y-508050D01*
X1307134Y-512216D01*
X1304188Y-515416D01*
X1300124Y-517042D01*
X1295755Y-516890D01*
X1292504Y-515975D01*
X1282700Y-515112D01*
X1272895Y-515975D01*
X1269492Y-516890D01*
X1265123Y-517093D01*
X1261059Y-515467D01*
X1258112Y-512216D01*
X1256741Y-508101D01*
X1257300Y-503732D01*
X1258620Y-499821D01*
X1259332Y-493572D01*
X1259332Y-487984D01*
X1220063Y-487984D01*
X1220063Y-519785D01*
X1230833Y-519785D01*
X1235151Y-520750D01*
X1238605Y-523443D01*
X1240637Y-527354D01*
X1240840Y-531723D01*
X1239164Y-535787D01*
X1233881Y-543306D01*
X1229715Y-552246D01*
X1227175Y-561695D01*
X1226312Y-571500D01*
X1227175Y-581304D01*
X1229715Y-590753D01*
X1233881Y-599694D01*
X1239520Y-607720D01*
X1246479Y-614680D01*
X1254506Y-620318D01*
X1263446Y-624484D01*
X1272895Y-627024D01*
X1282700Y-627888D01*
X1296822Y-626567D01*
X1300378Y-627583D01*
X1303324Y-629869D01*
X1305255Y-633018D01*
X1305915Y-636625D01*
X1305915Y-660247D01*
X1306626Y-666496D01*
X1308506Y-671880D01*
X1311554Y-676757D01*
X1313434Y-678586D01*
X1315618Y-681888D01*
X1316380Y-685800D01*
X1315618Y-689660D01*
X1313434Y-692962D01*
X1311554Y-694842D01*
X1308506Y-699668D01*
X1306626Y-705104D01*
X1305915Y-711352D01*
X1305915Y-716940D01*
X1345234Y-716940D01*
X1345234Y-696620D01*
X1345996Y-692708D01*
X1348181Y-689406D01*
X1351483Y-687222D01*
X1355394Y-686460D01*
X1387754Y-686460D01*
X1391666Y-687222D01*
X1394968Y-689406D01*
X1397152Y-692708D01*
X1397914Y-696620D01*
X1397914Y-716940D01*
X1432915Y-716940D01*
X1437233Y-718007D01*
X1437233Y-711352D01*
X1436522Y-705104D01*
X1434642Y-699668D01*
X1431594Y-694842D01*
X1429715Y-692962D01*
X1427530Y-689660D01*
X1426718Y-685800D01*
X1427530Y-681888D01*
X1429715Y-678586D01*
X1431594Y-676757D01*
X1434338Y-672338D01*
X1436624Y-669798D01*
X1439570Y-668172D01*
X1442923Y-667562D01*
X1527810Y-667359D01*
X1531569Y-668070D01*
X1534820Y-670153D01*
X1575816Y-709218D01*
X1582674Y-715518D01*
X1586534Y-718718D01*
X1598168Y-726490D01*
X1610563Y-732586D01*
X1623669Y-737057D01*
X1637233Y-739749D01*
X1651000Y-740613D01*
X1664766Y-739749D01*
X1678330Y-737057D01*
X1691436Y-732586D01*
X1703832Y-726490D01*
X1715312Y-718820D01*
X1725675Y-709676D01*
X1734566Y-699617D01*
X1737817Y-697128D01*
X1741728Y-696163D01*
X1745742Y-696772D01*
X1749196Y-698957D01*
X1751533Y-702310D01*
X1752346Y-706272D01*
X1752346Y-817727D01*
X1751533Y-821690D01*
X1749196Y-825042D01*
X1745742Y-827227D01*
X1741728Y-827836D01*
X1737817Y-826871D01*
X1734566Y-824382D01*
X1725675Y-814324D01*
X1715312Y-805180D01*
X1703832Y-797509D01*
X1691436Y-791413D01*
X1678330Y-786942D01*
X1664766Y-784250D01*
X1651000Y-783386D01*
X1637233Y-784250D01*
X1623669Y-786942D01*
X1610563Y-791413D01*
X1598168Y-797509D01*
X1586687Y-805180D01*
X1576324Y-814324D01*
X1567180Y-824687D01*
X1559509Y-836168D01*
X1553413Y-848563D01*
X1548942Y-861669D01*
X1546250Y-875233D01*
X1545386Y-889000D01*
X1546250Y-902766D01*
X1548942Y-916330D01*
X1553413Y-929436D01*
X1559509Y-941832D01*
X1567180Y-953312D01*
X1576324Y-963676D01*
X1586687Y-972819D01*
X1598168Y-980490D01*
X1610563Y-986586D01*
X1623669Y-991057D01*
X1637233Y-993749D01*
X1651000Y-994613D01*
X1664766Y-993749D01*
X1678330Y-991057D01*
X1691436Y-986586D01*
X1703832Y-980490D01*
X1715312Y-972819D01*
X1725675Y-963676D01*
X1734566Y-953617D01*
X1737817Y-951128D01*
X1741728Y-950163D01*
X1745742Y-950772D01*
X1749196Y-952957D01*
X1751533Y-956310D01*
X1752346Y-960272D01*
X1752346Y-1071727D01*
X1751533Y-1075690D01*
X1749196Y-1079042D01*
X1745742Y-1081227D01*
X1741728Y-1081836D01*
X1737817Y-1080871D01*
X1734566Y-1078382D01*
X1725675Y-1068324D01*
X1715312Y-1059180D01*
X1703832Y-1051509D01*
X1691436Y-1045413D01*
X1678330Y-1040942D01*
X1664766Y-1038250D01*
X1651000Y-1037386D01*
X1637233Y-1038250D01*
X1623669Y-1040942D01*
X1610563Y-1045413D01*
X1598168Y-1051509D01*
X1586687Y-1059180D01*
X1576324Y-1068324D01*
X1567180Y-1078687D01*
X1559509Y-1090168D01*
X1553413Y-1102563D01*
X1548942Y-1115669D01*
X1546250Y-1129233D01*
X1545386Y-1143000D01*
X1546250Y-1156766D01*
X1548942Y-1170330D01*
X1553413Y-1183436D01*
X1559509Y-1195832D01*
X1567180Y-1207312D01*
X1576324Y-1217676D01*
X1586687Y-1226820D01*
X1598168Y-1234490D01*
X1610563Y-1240586D01*
X1623669Y-1245057D01*
X1637233Y-1247749D01*
X1651000Y-1248613D01*
X1664766Y-1247749D01*
X1678330Y-1245057D01*
X1691436Y-1240586D01*
X1703832Y-1234490D01*
X1715312Y-1226820D01*
X1725675Y-1217676D01*
X1734566Y-1207617D01*
X1737817Y-1205128D01*
X1741728Y-1204163D01*
X1745742Y-1204772D01*
X1749196Y-1206957D01*
X1751533Y-1210310D01*
X1752346Y-1214272D01*
X1752346Y-1527251D01*
X1751431Y-1547977D01*
X1748840Y-1567383D01*
X1744522Y-1586484D01*
X1738630Y-1605127D01*
X1731111Y-1623212D01*
X1722018Y-1640535D01*
X1711502Y-1656994D01*
X1699564Y-1672539D01*
X1686306Y-1686915D01*
X1671828Y-1700123D01*
X1656283Y-1712010D01*
X1639773Y-1722475D01*
X1622399Y-1731467D01*
X1604314Y-1738934D01*
X1585620Y-1744776D01*
X1566519Y-1748993D01*
X1547114Y-1751482D01*
X1527251Y-1752346D01*
G37*

%LPC*%
G36*
X1646326Y-1682800D02*
G01*
X1651304Y-1679092D01*
X1665884Y-1665884D01*
X1679092Y-1651304D01*
X1682800Y-1646326D01*
X1646326Y-1646326D01*
G37*
G36*
X1401724Y-1682800D02*
G01*
X1401724Y-1646326D01*
X1365199Y-1646326D01*
X1368907Y-1651304D01*
X1382115Y-1665884D01*
X1396695Y-1679092D01*
G37*
G36*
X1257300Y-1542288D02*
G01*
X1267104Y-1541424D01*
X1276553Y-1538884D01*
X1285494Y-1534718D01*
X1293520Y-1529080D01*
X1300480Y-1522120D01*
X1306118Y-1514094D01*
X1310284Y-1505153D01*
X1312824Y-1495704D01*
X1313688Y-1485900D01*
X1312824Y-1476095D01*
X1310284Y-1466646D01*
X1306118Y-1457706D01*
X1300480Y-1449679D01*
X1293520Y-1442720D01*
X1285494Y-1437081D01*
X1276553Y-1432915D01*
X1267104Y-1430375D01*
X1257300Y-1429512D01*
X1247495Y-1430375D01*
X1238046Y-1432915D01*
X1229106Y-1437081D01*
X1221079Y-1442720D01*
X1214120Y-1449679D01*
X1208481Y-1457706D01*
X1204315Y-1466646D01*
X1201775Y-1476095D01*
X1200912Y-1485900D01*
X1201775Y-1495704D01*
X1204315Y-1505153D01*
X1208481Y-1514094D01*
X1214120Y-1522120D01*
X1221079Y-1529080D01*
X1229106Y-1534718D01*
X1238046Y-1538884D01*
X1247495Y-1541424D01*
G37*
G36*
X1079500Y-1453388D02*
G01*
X1089304Y-1452524D01*
X1098753Y-1449984D01*
X1107694Y-1445818D01*
X1115720Y-1440180D01*
X1122680Y-1433220D01*
X1128318Y-1425194D01*
X1132484Y-1416253D01*
X1135024Y-1406804D01*
X1135888Y-1397000D01*
X1135024Y-1387195D01*
X1132484Y-1377746D01*
X1128318Y-1368806D01*
X1122680Y-1360779D01*
X1115720Y-1353820D01*
X1107694Y-1348181D01*
X1098753Y-1344015D01*
X1089304Y-1341475D01*
X1079500Y-1340612D01*
X1069695Y-1341475D01*
X1060246Y-1344015D01*
X1051306Y-1348181D01*
X1043279Y-1353820D01*
X1036319Y-1360779D01*
X1035151Y-1362456D01*
X1032103Y-1365300D01*
X1028192Y-1366672D01*
X1024026Y-1366367D01*
X1020368Y-1364437D01*
X963625Y-1364437D01*
X963625Y-1433779D01*
X990447Y-1433779D01*
X996696Y-1433068D01*
X1002131Y-1431137D01*
X1006957Y-1428089D01*
X1011021Y-1424076D01*
X1012088Y-1422349D01*
X1015085Y-1419250D01*
X1019149Y-1417726D01*
X1023467Y-1417980D01*
X1027277Y-1420012D01*
X1029868Y-1423466D01*
X1030681Y-1425194D01*
X1036319Y-1433220D01*
X1043279Y-1440180D01*
X1051306Y-1445818D01*
X1060246Y-1449984D01*
X1069695Y-1452524D01*
G37*
G36*
X1365199Y-1401724D02*
G01*
X1401724Y-1401724D01*
X1401724Y-1365199D01*
X1396695Y-1368907D01*
X1382115Y-1382115D01*
X1368907Y-1396695D01*
G37*
G36*
X1646326Y-1401724D02*
G01*
X1682800Y-1401724D01*
X1679092Y-1396695D01*
X1665884Y-1382115D01*
X1651304Y-1368907D01*
X1646326Y-1365199D01*
G37*
G36*
X1413357Y-1293876D02*
G01*
X1423924Y-1293876D01*
X1430223Y-1293164D01*
X1435608Y-1291285D01*
X1440484Y-1288237D01*
X1444498Y-1284173D01*
X1447546Y-1279296D01*
X1449476Y-1273911D01*
X1450136Y-1267663D01*
X1450136Y-1257046D01*
X1413357Y-1257046D01*
G37*
G36*
X830376Y-1251762D02*
G01*
X883412Y-1251762D01*
X883412Y-1182471D01*
X856589Y-1182471D01*
X850290Y-1183132D01*
X844905Y-1185062D01*
X840028Y-1188110D01*
X836015Y-1192123D01*
X832967Y-1197000D01*
X831037Y-1202385D01*
X830376Y-1208684D01*
G37*
G36*
X1413357Y-1209344D02*
G01*
X1450136Y-1209344D01*
X1450136Y-1198778D01*
X1449476Y-1192530D01*
X1447546Y-1187094D01*
X1444498Y-1182268D01*
X1440484Y-1178204D01*
X1435608Y-1175156D01*
X1430223Y-1173276D01*
X1423924Y-1172565D01*
X1413357Y-1172565D01*
G37*
G36*
X1402334Y-967384D02*
G01*
X1407871Y-967384D01*
X1414170Y-966673D01*
X1419555Y-964742D01*
X1424432Y-961694D01*
X1428496Y-957681D01*
X1431544Y-952804D01*
X1433423Y-947419D01*
X1434134Y-941120D01*
X1434134Y-928065D01*
X1402334Y-928065D01*
G37*
G36*
X1402334Y-875334D02*
G01*
X1434134Y-875334D01*
X1434134Y-862279D01*
X1433423Y-856030D01*
X1432915Y-854557D01*
X1432407Y-850239D01*
X1433728Y-846074D01*
X1436725Y-842873D01*
X1440789Y-841197D01*
X1445158Y-841400D01*
X1450695Y-842924D01*
X1460500Y-843787D01*
X1470304Y-842924D01*
X1479753Y-840384D01*
X1488694Y-836218D01*
X1496720Y-830580D01*
X1503680Y-823620D01*
X1509318Y-815594D01*
X1513484Y-806653D01*
X1516024Y-797204D01*
X1516888Y-787400D01*
X1516024Y-777595D01*
X1513484Y-768146D01*
X1509318Y-759206D01*
X1503680Y-751179D01*
X1496720Y-744220D01*
X1488694Y-738581D01*
X1479753Y-734415D01*
X1470304Y-731875D01*
X1460500Y-731012D01*
X1446326Y-732383D01*
X1442262Y-730910D01*
X1440332Y-734009D01*
X1437182Y-736295D01*
X1432306Y-738581D01*
X1424279Y-744220D01*
X1416812Y-751687D01*
X1413510Y-753872D01*
X1409649Y-754634D01*
X1397914Y-754634D01*
X1397914Y-786942D01*
X1401318Y-788873D01*
X1403756Y-791972D01*
X1407515Y-806653D01*
X1411681Y-815594D01*
X1414830Y-820064D01*
X1416507Y-824128D01*
X1416304Y-828548D01*
X1414272Y-832408D01*
X1410817Y-835101D01*
X1406499Y-836066D01*
X1402334Y-836066D01*
G37*
G36*
X1154277Y-519785D02*
G01*
X1167333Y-519785D01*
X1167333Y-487984D01*
X1128064Y-487984D01*
X1128064Y-493572D01*
X1128725Y-499821D01*
X1130655Y-505256D01*
X1133703Y-510082D01*
X1137716Y-514146D01*
X1142593Y-517194D01*
X1147978Y-519074D01*
G37*
G36*
X1397914Y-519734D02*
G01*
X1410970Y-519734D01*
X1417269Y-519074D01*
X1422654Y-517143D01*
X1427530Y-514096D01*
X1431544Y-510082D01*
X1434592Y-505206D01*
X1436522Y-499821D01*
X1437233Y-493522D01*
X1437233Y-487934D01*
X1397914Y-487934D01*
G37*
G36*
X1604670Y-475691D02*
G01*
X1604670Y-427329D01*
X1556308Y-427329D01*
X1559509Y-433832D01*
X1567180Y-445312D01*
X1576324Y-455676D01*
X1586687Y-464820D01*
X1598168Y-472490D01*
G37*
G36*
X1305915Y-450240D02*
G01*
X1345184Y-450240D01*
X1345184Y-429920D01*
X1345996Y-426008D01*
X1348181Y-422757D01*
X1351483Y-420522D01*
X1355344Y-419760D01*
X1387754Y-419760D01*
X1391615Y-420522D01*
X1394917Y-422757D01*
X1397152Y-426008D01*
X1397914Y-429920D01*
X1397914Y-450240D01*
X1437233Y-450240D01*
X1437233Y-444652D01*
X1436522Y-438404D01*
X1435760Y-436219D01*
X1435201Y-431901D01*
X1436573Y-427735D01*
X1439570Y-424535D01*
X1443583Y-422859D01*
X1447952Y-423062D01*
X1450695Y-423824D01*
X1460500Y-424688D01*
X1470304Y-423824D01*
X1479753Y-421284D01*
X1488694Y-417118D01*
X1496720Y-411480D01*
X1503680Y-404520D01*
X1509318Y-396494D01*
X1513484Y-387553D01*
X1516024Y-378104D01*
X1516888Y-368300D01*
X1516024Y-358495D01*
X1513484Y-349046D01*
X1509318Y-340106D01*
X1503680Y-332079D01*
X1496720Y-325120D01*
X1488694Y-319481D01*
X1479753Y-315315D01*
X1470304Y-312775D01*
X1460500Y-311912D01*
X1450695Y-312775D01*
X1441246Y-315315D01*
X1436014Y-317754D01*
X1432255Y-318719D01*
X1428394Y-318160D01*
X1424990Y-316179D01*
X1422654Y-313080D01*
X1420571Y-309016D01*
X1419504Y-304647D01*
X1420418Y-300228D01*
X1430934Y-277266D01*
X1432763Y-271881D01*
X1433474Y-265531D01*
X1433474Y-166674D01*
X1432763Y-160426D01*
X1430883Y-155041D01*
X1427835Y-150164D01*
X1423771Y-146100D01*
X1418945Y-143052D01*
X1413510Y-141173D01*
X1407261Y-140462D01*
X1348384Y-140462D01*
X1342136Y-141173D01*
X1336700Y-143052D01*
X1332230Y-145084D01*
X1328420Y-145084D01*
X1323949Y-143052D01*
X1318514Y-141173D01*
X1312265Y-140462D01*
X1304188Y-140462D01*
X1304188Y-184759D01*
X1312011Y-184759D01*
X1315923Y-185572D01*
X1319174Y-187756D01*
X1321409Y-191058D01*
X1322171Y-194919D01*
X1322171Y-237337D01*
X1321409Y-241198D01*
X1319174Y-244500D01*
X1315923Y-246684D01*
X1312011Y-247497D01*
X1304188Y-247497D01*
X1304188Y-291795D01*
X1312265Y-291795D01*
X1318514Y-291084D01*
X1320444Y-290372D01*
X1324152Y-289814D01*
X1327810Y-290626D01*
X1330909Y-292760D01*
X1333093Y-295808D01*
X1335024Y-300177D01*
X1335938Y-304546D01*
X1334871Y-308914D01*
X1332382Y-313842D01*
X1330045Y-316890D01*
X1326642Y-318871D01*
X1320444Y-321056D01*
X1315618Y-324104D01*
X1311554Y-328168D01*
X1308506Y-332994D01*
X1306626Y-338429D01*
X1305915Y-344678D01*
X1305915Y-393547D01*
X1306626Y-399796D01*
X1308506Y-405231D01*
X1311554Y-410057D01*
X1313383Y-411937D01*
X1315618Y-415239D01*
X1316380Y-419100D01*
X1315618Y-423011D01*
X1313383Y-426313D01*
X1311554Y-428142D01*
X1308506Y-433019D01*
X1306626Y-438404D01*
X1305915Y-444652D01*
G37*
G36*
X1556308Y-334670D02*
G01*
X1604670Y-334670D01*
X1604670Y-286308D01*
X1598168Y-289509D01*
X1586687Y-297180D01*
X1576324Y-306324D01*
X1567180Y-316687D01*
X1559509Y-328168D01*
G37*
G36*
X1604670Y-221691D02*
G01*
X1604670Y-173329D01*
X1556308Y-173329D01*
X1559509Y-179832D01*
X1567180Y-191312D01*
X1576324Y-201676D01*
X1586687Y-210820D01*
X1598168Y-218490D01*
G37*
G36*
X1556308Y-80670D02*
G01*
X1604670Y-80670D01*
X1604670Y-32308D01*
X1598168Y-35509D01*
X1586687Y-43180D01*
X1576324Y-52324D01*
X1567180Y-62687D01*
X1559509Y-74168D01*
G37*
G36*
X1208227Y162966D02*
G01*
X1213815Y162966D01*
X1213815Y202234D01*
X1182014Y202234D01*
X1182014Y189179D01*
X1182725Y182930D01*
X1184605Y177495D01*
X1187653Y172669D01*
X1191717Y168605D01*
X1196543Y165557D01*
X1201978Y163677D01*
G37*

%LPD*%
G36*
X452272Y-1752346D02*
G01*
X448309Y-1751533D01*
X444957Y-1749196D01*
X442772Y-1745742D01*
X442163Y-1741728D01*
X443128Y-1737817D01*
X445617Y-1734566D01*
X455676Y-1725675D01*
X464820Y-1715312D01*
X472490Y-1703832D01*
X478586Y-1691436D01*
X483057Y-1678330D01*
X485749Y-1664766D01*
X486613Y-1651000D01*
X485749Y-1637233D01*
X483057Y-1623669D01*
X478586Y-1610563D01*
X472490Y-1598168D01*
X464820Y-1586687D01*
X455676Y-1576324D01*
X452831Y-1573784D01*
X450392Y-1570532D01*
X449376Y-1566621D01*
X450037Y-1562608D01*
X452221Y-1559153D01*
X455523Y-1556816D01*
X459536Y-1556004D01*
X556463Y-1556004D01*
X560476Y-1556816D01*
X563778Y-1559153D01*
X565962Y-1562608D01*
X566623Y-1566621D01*
X565607Y-1570532D01*
X563168Y-1573784D01*
X560324Y-1576324D01*
X551180Y-1586687D01*
X543509Y-1598168D01*
X537413Y-1610563D01*
X532942Y-1623669D01*
X530250Y-1637233D01*
X529386Y-1651000D01*
X530250Y-1664766D01*
X532942Y-1678330D01*
X537413Y-1691436D01*
X543509Y-1703832D01*
X551180Y-1715312D01*
X560324Y-1725675D01*
X570382Y-1734566D01*
X572871Y-1737817D01*
X573836Y-1741728D01*
X573227Y-1745742D01*
X571042Y-1749196D01*
X567690Y-1751533D01*
X563727Y-1752346D01*
G37*

%LPD*%
G36*
X-563727Y-1752346D02*
G01*
X-567690Y-1751533D01*
X-571042Y-1749196D01*
X-573227Y-1745742D01*
X-573836Y-1741728D01*
X-572871Y-1737817D01*
X-570382Y-1734566D01*
X-560324Y-1725675D01*
X-551180Y-1715312D01*
X-543509Y-1703832D01*
X-537413Y-1691436D01*
X-532942Y-1678330D01*
X-530250Y-1664766D01*
X-529488Y-1655978D01*
X-528167Y-1593392D01*
X-527354Y-1589633D01*
X-525170Y-1586433D01*
X-497738Y-1559001D01*
X-494436Y-1556766D01*
X-490524Y-1556004D01*
X-459536Y-1556004D01*
X-455523Y-1556816D01*
X-452221Y-1559153D01*
X-450037Y-1562608D01*
X-449376Y-1566621D01*
X-450392Y-1570532D01*
X-452831Y-1573784D01*
X-455676Y-1576324D01*
X-464820Y-1586687D01*
X-472490Y-1598168D01*
X-478586Y-1610563D01*
X-483057Y-1623669D01*
X-485749Y-1637233D01*
X-486613Y-1651000D01*
X-485749Y-1664766D01*
X-483057Y-1678330D01*
X-478586Y-1691436D01*
X-472490Y-1703832D01*
X-464820Y-1715312D01*
X-455676Y-1725675D01*
X-445617Y-1734566D01*
X-443128Y-1737817D01*
X-442163Y-1741728D01*
X-442772Y-1745742D01*
X-444957Y-1749196D01*
X-448309Y-1751533D01*
X-452272Y-1752346D01*
G37*

%LPD*%
G36*
X-1071727Y-1752346D02*
G01*
X-1075690Y-1751533D01*
X-1079042Y-1749196D01*
X-1081227Y-1745742D01*
X-1081836Y-1741728D01*
X-1080871Y-1737817D01*
X-1078382Y-1734566D01*
X-1068324Y-1725675D01*
X-1059180Y-1715312D01*
X-1051509Y-1703832D01*
X-1045413Y-1691436D01*
X-1040942Y-1678330D01*
X-1038250Y-1664766D01*
X-1037488Y-1655978D01*
X-1036167Y-1593392D01*
X-1035354Y-1589633D01*
X-1033170Y-1586433D01*
X-954938Y-1508201D01*
X-951636Y-1505966D01*
X-947724Y-1505204D01*
X-813003Y-1505204D01*
X-809091Y-1505966D01*
X-805789Y-1508201D01*
X-803605Y-1511452D01*
X-802843Y-1515364D01*
X-803605Y-1519275D01*
X-805789Y-1522526D01*
X-824433Y-1541170D01*
X-827633Y-1543354D01*
X-831392Y-1544167D01*
X-897331Y-1545691D01*
X-902614Y-1546250D01*
X-916330Y-1548942D01*
X-929436Y-1553413D01*
X-941832Y-1559509D01*
X-953312Y-1567180D01*
X-963676Y-1576324D01*
X-972819Y-1586687D01*
X-980490Y-1598168D01*
X-986586Y-1610563D01*
X-991057Y-1623669D01*
X-993749Y-1637233D01*
X-994613Y-1651000D01*
X-993749Y-1664766D01*
X-991057Y-1678330D01*
X-986586Y-1691436D01*
X-980490Y-1703832D01*
X-972819Y-1715312D01*
X-963676Y-1725675D01*
X-953617Y-1734566D01*
X-951128Y-1737817D01*
X-950163Y-1741728D01*
X-950772Y-1745742D01*
X-952957Y-1749196D01*
X-956310Y-1751533D01*
X-960272Y-1752346D01*
G37*

%LPD*%
G36*
X-1527251Y-1752346D02*
G01*
X-1547977Y-1751431D01*
X-1567383Y-1748840D01*
X-1586484Y-1744522D01*
X-1605127Y-1738630D01*
X-1623212Y-1731111D01*
X-1640535Y-1722018D01*
X-1656994Y-1711502D01*
X-1672539Y-1699564D01*
X-1686915Y-1686306D01*
X-1700123Y-1671828D01*
X-1712010Y-1656283D01*
X-1722475Y-1639773D01*
X-1731467Y-1622399D01*
X-1738934Y-1604314D01*
X-1744776Y-1585620D01*
X-1748993Y-1566519D01*
X-1751482Y-1547114D01*
X-1752346Y-1527251D01*
X-1752346Y-1214272D01*
X-1751533Y-1210310D01*
X-1749196Y-1206957D01*
X-1745742Y-1204772D01*
X-1741728Y-1204163D01*
X-1737817Y-1205128D01*
X-1734566Y-1207617D01*
X-1725675Y-1217676D01*
X-1715312Y-1226820D01*
X-1703832Y-1234490D01*
X-1691436Y-1240586D01*
X-1678330Y-1245057D01*
X-1664766Y-1247749D01*
X-1651000Y-1248613D01*
X-1637233Y-1247749D01*
X-1623669Y-1245057D01*
X-1610563Y-1240586D01*
X-1598168Y-1234490D01*
X-1586687Y-1226820D01*
X-1576324Y-1217676D01*
X-1567180Y-1207312D01*
X-1559509Y-1195832D01*
X-1553413Y-1183436D01*
X-1548942Y-1170330D01*
X-1546250Y-1156766D01*
X-1545386Y-1143000D01*
X-1546250Y-1129233D01*
X-1548942Y-1115669D01*
X-1553413Y-1102563D01*
X-1559509Y-1090168D01*
X-1567180Y-1078687D01*
X-1576324Y-1068324D01*
X-1586687Y-1059180D01*
X-1598168Y-1051509D01*
X-1610563Y-1045413D01*
X-1623669Y-1040942D01*
X-1637233Y-1038250D01*
X-1651000Y-1037386D01*
X-1664766Y-1038250D01*
X-1678330Y-1040942D01*
X-1691436Y-1045413D01*
X-1703832Y-1051509D01*
X-1715312Y-1059180D01*
X-1725675Y-1068324D01*
X-1734566Y-1078382D01*
X-1737817Y-1080871D01*
X-1741728Y-1081836D01*
X-1745742Y-1081227D01*
X-1749196Y-1079042D01*
X-1751533Y-1075690D01*
X-1752346Y-1071727D01*
X-1752346Y-960272D01*
X-1751533Y-956310D01*
X-1749196Y-952957D01*
X-1745742Y-950772D01*
X-1741728Y-950163D01*
X-1737817Y-951128D01*
X-1734566Y-953617D01*
X-1725675Y-963676D01*
X-1715312Y-972819D01*
X-1703832Y-980490D01*
X-1691436Y-986586D01*
X-1678330Y-991057D01*
X-1664766Y-993749D01*
X-1651000Y-994613D01*
X-1637233Y-993749D01*
X-1623669Y-991057D01*
X-1610563Y-986586D01*
X-1598168Y-980490D01*
X-1586687Y-972819D01*
X-1576324Y-963676D01*
X-1567180Y-953312D01*
X-1559509Y-941832D01*
X-1553260Y-929182D01*
X-1551025Y-926134D01*
X-1547774Y-924153D01*
X-1544066Y-923493D01*
X-1540357Y-924255D01*
X-1537157Y-926287D01*
X-1529080Y-937920D01*
X-1522120Y-944880D01*
X-1514094Y-950518D01*
X-1505153Y-954684D01*
X-1495704Y-957224D01*
X-1485900Y-958087D01*
X-1476095Y-957224D01*
X-1466646Y-954684D01*
X-1457706Y-950518D01*
X-1452168Y-946759D01*
X-1447139Y-944880D01*
X-1444040Y-944880D01*
X-1441145Y-945845D01*
X-1437386Y-947724D01*
X-1433880Y-950569D01*
X-1432001Y-954633D01*
X-1428445Y-971042D01*
X-1428292Y-974445D01*
X-1429308Y-977696D01*
X-1436878Y-992886D01*
X-1438757Y-995527D01*
X-1442516Y-999236D01*
X-1445564Y-1004112D01*
X-1447444Y-1009497D01*
X-1448155Y-1015796D01*
X-1448155Y-1084630D01*
X-1447444Y-1090879D01*
X-1445564Y-1096314D01*
X-1442516Y-1101140D01*
X-1438452Y-1105204D01*
X-1433626Y-1108252D01*
X-1428191Y-1110183D01*
X-1421942Y-1110843D01*
X-1383842Y-1110843D01*
X-1379982Y-1111656D01*
X-1376680Y-1113840D01*
X-1374444Y-1117142D01*
X-1373682Y-1121003D01*
X-1374444Y-1124915D01*
X-1376680Y-1128217D01*
X-1409954Y-1161491D01*
X-1413510Y-1165656D01*
X-1416862Y-1170178D01*
X-1419453Y-1171803D01*
X-1422349Y-1172616D01*
X-1428191Y-1173276D01*
X-1433626Y-1175156D01*
X-1438452Y-1178204D01*
X-1442516Y-1182268D01*
X-1445564Y-1187094D01*
X-1447444Y-1192530D01*
X-1448155Y-1198778D01*
X-1448155Y-1267663D01*
X-1447444Y-1273911D01*
X-1445564Y-1279296D01*
X-1442516Y-1284173D01*
X-1438452Y-1288237D01*
X-1433626Y-1291285D01*
X-1428191Y-1293164D01*
X-1421942Y-1293876D01*
X-1353058Y-1293876D01*
X-1346809Y-1293164D01*
X-1341374Y-1291285D01*
X-1337919Y-1289100D01*
X-1334363Y-1287678D01*
X-1330604Y-1287678D01*
X-1327099Y-1289100D01*
X-1323594Y-1291285D01*
X-1318209Y-1293164D01*
X-1311910Y-1293876D01*
X-1301343Y-1293876D01*
X-1301343Y-1257046D01*
X-1316685Y-1257046D01*
X-1320596Y-1256284D01*
X-1323848Y-1254099D01*
X-1326083Y-1250797D01*
X-1326845Y-1246886D01*
X-1326845Y-1219504D01*
X-1326083Y-1215644D01*
X-1323848Y-1212342D01*
X-1320596Y-1210157D01*
X-1316685Y-1209344D01*
X-1301343Y-1209344D01*
X-1301343Y-1185164D01*
X-1300581Y-1181252D01*
X-1298346Y-1178001D01*
X-1295095Y-1175766D01*
X-1291183Y-1175004D01*
X-1263802Y-1175004D01*
X-1259941Y-1175766D01*
X-1256639Y-1178001D01*
X-1254404Y-1181252D01*
X-1253642Y-1185164D01*
X-1253642Y-1209344D01*
X-1216863Y-1209344D01*
X-1216863Y-1198778D01*
X-1217523Y-1192530D01*
X-1218946Y-1188516D01*
X-1219504Y-1184706D01*
X-1218590Y-1180947D01*
X-1216355Y-1177798D01*
X-1213154Y-1175715D01*
X-1209344Y-1175004D01*
X-1207008Y-1175004D01*
X-1199845Y-1174242D01*
X-1193495Y-1172210D01*
X-1187602Y-1168755D01*
X-1183589Y-1165352D01*
X-1162862Y-1144625D01*
X-1159611Y-1142441D01*
X-1155700Y-1141679D01*
X-1151788Y-1142441D01*
X-1148537Y-1144625D01*
X-1127912Y-1165250D01*
X-1122324Y-1169771D01*
X-1116330Y-1172819D01*
X-1109776Y-1174597D01*
X-1104493Y-1175004D01*
X-1018387Y-1175004D01*
X-1014577Y-1175766D01*
X-1011275Y-1177899D01*
X-1009091Y-1181150D01*
X-1008227Y-1184960D01*
X-1008938Y-1188821D01*
X-1014069Y-1197000D01*
X-1015949Y-1202385D01*
X-1016660Y-1208684D01*
X-1016660Y-1235303D01*
X-1017473Y-1239266D01*
X-1019759Y-1242568D01*
X-1023213Y-1244752D01*
X-1027176Y-1245412D01*
X-1031138Y-1244498D01*
X-1040942Y-1239875D01*
X-1050391Y-1237335D01*
X-1060196Y-1236472D01*
X-1070000Y-1237335D01*
X-1079449Y-1239875D01*
X-1088390Y-1244041D01*
X-1096416Y-1249680D01*
X-1103376Y-1256639D01*
X-1109014Y-1264666D01*
X-1113180Y-1273606D01*
X-1115720Y-1283055D01*
X-1116584Y-1292860D01*
X-1115720Y-1302664D01*
X-1113180Y-1312113D01*
X-1109014Y-1321054D01*
X-1103376Y-1329080D01*
X-1096416Y-1336040D01*
X-1088390Y-1341678D01*
X-1079449Y-1345844D01*
X-1070000Y-1348384D01*
X-1060196Y-1349248D01*
X-1050391Y-1348384D01*
X-1040942Y-1345844D01*
X-1031951Y-1341628D01*
X-1023975Y-1336040D01*
X-1017016Y-1329080D01*
X-1011377Y-1321054D01*
X-1007211Y-1312113D01*
X-1004671Y-1302664D01*
X-1003808Y-1292860D01*
X-1004671Y-1283055D01*
X-1007211Y-1273606D01*
X-1010666Y-1266190D01*
X-1011631Y-1262278D01*
X-1010970Y-1258265D01*
X-1008786Y-1254861D01*
X-1005433Y-1252575D01*
X-1001471Y-1251762D01*
X-963625Y-1251762D01*
X-963625Y-1185164D01*
X-962812Y-1181252D01*
X-960628Y-1178001D01*
X-957326Y-1175766D01*
X-953465Y-1175004D01*
X-893571Y-1175004D01*
X-889660Y-1175766D01*
X-886409Y-1178001D01*
X-884174Y-1181252D01*
X-883412Y-1185164D01*
X-883412Y-1251762D01*
X-842264Y-1251762D01*
X-838352Y-1252524D01*
X-835101Y-1254709D01*
X-832866Y-1258011D01*
X-832103Y-1261922D01*
X-832103Y-1282192D01*
X-831342Y-1289354D01*
X-829310Y-1295704D01*
X-825855Y-1301597D01*
X-822452Y-1305610D01*
X-797712Y-1330350D01*
X-792124Y-1334871D01*
X-786130Y-1337919D01*
X-779576Y-1339697D01*
X-774293Y-1340104D01*
X-730199Y-1340104D01*
X-725932Y-1341069D01*
X-722426Y-1343710D01*
X-720394Y-1347622D01*
X-720191Y-1352042D01*
X-726084Y-1365046D01*
X-728624Y-1374495D01*
X-729488Y-1384300D01*
X-728624Y-1394104D01*
X-726084Y-1403553D01*
X-721918Y-1412494D01*
X-716127Y-1420723D01*
X-712978Y-1424178D01*
X-710946Y-1427530D01*
X-710336Y-1431340D01*
X-711200Y-1435150D01*
X-713435Y-1438351D01*
X-716686Y-1440434D01*
X-720496Y-1441196D01*
X-828598Y-1441196D01*
X-832459Y-1440434D01*
X-835710Y-1438300D01*
X-837946Y-1435049D01*
X-838758Y-1431239D01*
X-838098Y-1427378D01*
X-832967Y-1419199D01*
X-831037Y-1413814D01*
X-830376Y-1407515D01*
X-830376Y-1364437D01*
X-883412Y-1364437D01*
X-883412Y-1431036D01*
X-884174Y-1434947D01*
X-886409Y-1438198D01*
X-889660Y-1440434D01*
X-893571Y-1441196D01*
X-953465Y-1441196D01*
X-957326Y-1440434D01*
X-960628Y-1438198D01*
X-962812Y-1434947D01*
X-963625Y-1431036D01*
X-963625Y-1364437D01*
X-1016660Y-1364437D01*
X-1016660Y-1407515D01*
X-1015949Y-1413814D01*
X-1014069Y-1419199D01*
X-1011021Y-1424076D01*
X-1006957Y-1428089D01*
X-1002131Y-1431137D01*
X-996696Y-1433068D01*
X-993952Y-1433372D01*
X-990346Y-1434490D01*
X-987399Y-1436827D01*
X-985469Y-1440078D01*
X-984910Y-1443837D01*
X-985774Y-1447495D01*
X-987907Y-1450644D01*
X-1078433Y-1541170D01*
X-1081633Y-1543354D01*
X-1085392Y-1544167D01*
X-1151331Y-1545691D01*
X-1156614Y-1546250D01*
X-1170330Y-1548942D01*
X-1183436Y-1553413D01*
X-1195832Y-1559509D01*
X-1207312Y-1567180D01*
X-1217676Y-1576324D01*
X-1226820Y-1586687D01*
X-1234490Y-1598168D01*
X-1240586Y-1610563D01*
X-1245057Y-1623669D01*
X-1247749Y-1637233D01*
X-1248613Y-1651000D01*
X-1247749Y-1664766D01*
X-1245057Y-1678330D01*
X-1240586Y-1691436D01*
X-1234490Y-1703832D01*
X-1226820Y-1715312D01*
X-1217676Y-1725675D01*
X-1207617Y-1734566D01*
X-1205128Y-1737817D01*
X-1204163Y-1741728D01*
X-1204772Y-1745742D01*
X-1206957Y-1749196D01*
X-1210310Y-1751533D01*
X-1214272Y-1752346D01*
G37*

%LPC*%
G36*
X-1646275Y-1682800D02*
G01*
X-1646275Y-1646326D01*
X-1682800Y-1646326D01*
X-1679092Y-1651304D01*
X-1665884Y-1665884D01*
X-1651304Y-1679092D01*
G37*
G36*
X-1401673Y-1682800D02*
G01*
X-1396695Y-1679092D01*
X-1382115Y-1665884D01*
X-1368907Y-1651304D01*
X-1365199Y-1646326D01*
X-1401673Y-1646326D01*
G37*
G36*
X-1682800Y-1401724D02*
G01*
X-1646275Y-1401724D01*
X-1646275Y-1365199D01*
X-1651304Y-1368907D01*
X-1665884Y-1382115D01*
X-1679092Y-1396695D01*
G37*
G36*
X-1401673Y-1401724D02*
G01*
X-1365199Y-1401724D01*
X-1368907Y-1396695D01*
X-1382115Y-1382115D01*
X-1396695Y-1368907D01*
X-1401673Y-1365199D01*
G37*
G36*
X-1253642Y-1293876D02*
G01*
X-1243076Y-1293876D01*
X-1236776Y-1293164D01*
X-1231392Y-1291285D01*
X-1226515Y-1288237D01*
X-1222502Y-1284173D01*
X-1219454Y-1279296D01*
X-1217523Y-1273911D01*
X-1216863Y-1267663D01*
X-1216863Y-1257046D01*
X-1253642Y-1257046D01*
G37*

%LPD*%
G36*
X-309727Y-1752346D02*
G01*
X-313690Y-1751533D01*
X-317042Y-1749196D01*
X-319227Y-1745742D01*
X-319836Y-1741728D01*
X-318871Y-1737817D01*
X-316382Y-1734566D01*
X-306324Y-1725675D01*
X-297180Y-1715312D01*
X-289509Y-1703832D01*
X-283413Y-1691436D01*
X-278942Y-1678330D01*
X-276250Y-1664766D01*
X-275386Y-1651000D01*
X-276250Y-1637233D01*
X-278942Y-1623669D01*
X-283413Y-1610563D01*
X-289509Y-1598168D01*
X-297180Y-1586687D01*
X-306324Y-1576324D01*
X-309168Y-1573784D01*
X-311607Y-1570532D01*
X-312623Y-1566621D01*
X-311962Y-1562608D01*
X-309778Y-1559153D01*
X-306476Y-1556816D01*
X-302463Y-1556004D01*
X-205536Y-1556004D01*
X-201523Y-1556816D01*
X-198221Y-1559153D01*
X-196037Y-1562608D01*
X-195376Y-1566621D01*
X-196392Y-1570532D01*
X-198831Y-1573784D01*
X-201676Y-1576324D01*
X-210820Y-1586687D01*
X-218490Y-1598168D01*
X-224586Y-1610563D01*
X-229057Y-1623669D01*
X-231749Y-1637233D01*
X-232613Y-1651000D01*
X-231749Y-1664766D01*
X-229057Y-1678330D01*
X-224586Y-1691436D01*
X-218490Y-1703832D01*
X-210820Y-1715312D01*
X-201676Y-1725675D01*
X-191617Y-1734566D01*
X-189128Y-1737817D01*
X-188163Y-1741728D01*
X-188772Y-1745742D01*
X-190957Y-1749196D01*
X-194310Y-1751533D01*
X-198272Y-1752346D01*
G37*

%LPD*%
G36*
X960272Y-1752346D02*
G01*
X956310Y-1751533D01*
X952957Y-1749196D01*
X950772Y-1745742D01*
X950163Y-1741728D01*
X951128Y-1737817D01*
X953617Y-1734566D01*
X963676Y-1725675D01*
X972819Y-1715312D01*
X980490Y-1703832D01*
X986586Y-1691436D01*
X991057Y-1678330D01*
X993749Y-1664766D01*
X994613Y-1651000D01*
X993749Y-1637233D01*
X991057Y-1623669D01*
X986586Y-1610563D01*
X980490Y-1598168D01*
X972819Y-1586687D01*
X963676Y-1576324D01*
X960831Y-1573784D01*
X958392Y-1570532D01*
X957376Y-1566621D01*
X958037Y-1562608D01*
X960221Y-1559153D01*
X963523Y-1556816D01*
X967536Y-1556004D01*
X998524Y-1556004D01*
X1002436Y-1556766D01*
X1005738Y-1559001D01*
X1033170Y-1586433D01*
X1035354Y-1589633D01*
X1036167Y-1593392D01*
X1037691Y-1659331D01*
X1038250Y-1664614D01*
X1040942Y-1678330D01*
X1045413Y-1691436D01*
X1051509Y-1703832D01*
X1059180Y-1715312D01*
X1068324Y-1725675D01*
X1078382Y-1734566D01*
X1080871Y-1737817D01*
X1081836Y-1741728D01*
X1081227Y-1745742D01*
X1079042Y-1749196D01*
X1075690Y-1751533D01*
X1071727Y-1752346D01*
G37*

%LPD*%
G36*
X706272Y-1752346D02*
G01*
X702310Y-1751533D01*
X698957Y-1749196D01*
X696772Y-1745742D01*
X696163Y-1741728D01*
X697128Y-1737817D01*
X699617Y-1734566D01*
X709676Y-1725675D01*
X718820Y-1715312D01*
X726490Y-1703832D01*
X732586Y-1691436D01*
X737057Y-1678330D01*
X739749Y-1664766D01*
X740613Y-1651000D01*
X739749Y-1637233D01*
X737057Y-1623669D01*
X732586Y-1610563D01*
X726490Y-1598168D01*
X718820Y-1586687D01*
X709676Y-1576324D01*
X699312Y-1567180D01*
X687832Y-1559509D01*
X675436Y-1553413D01*
X662330Y-1548942D01*
X648766Y-1546250D01*
X635000Y-1545386D01*
X621233Y-1546250D01*
X607669Y-1548942D01*
X605688Y-1549654D01*
X601167Y-1550111D01*
X596950Y-1548587D01*
X593801Y-1545386D01*
X592328Y-1541119D01*
X592836Y-1536649D01*
X595223Y-1532839D01*
X653237Y-1474825D01*
X656488Y-1472641D01*
X660400Y-1471879D01*
X664311Y-1472641D01*
X667562Y-1474825D01*
X779170Y-1586433D01*
X781354Y-1589633D01*
X782167Y-1593392D01*
X783691Y-1659331D01*
X784250Y-1664614D01*
X786942Y-1678330D01*
X791413Y-1691436D01*
X797509Y-1703832D01*
X805180Y-1715312D01*
X814324Y-1725675D01*
X824382Y-1734566D01*
X826871Y-1737817D01*
X827836Y-1741728D01*
X827227Y-1745742D01*
X825042Y-1749196D01*
X821690Y-1751533D01*
X817727Y-1752346D01*
G37*

%LPD*%
G36*
X-817727Y-1752346D02*
G01*
X-821690Y-1751533D01*
X-825042Y-1749196D01*
X-827227Y-1745742D01*
X-827836Y-1741728D01*
X-826871Y-1737817D01*
X-824382Y-1734566D01*
X-814324Y-1725675D01*
X-805180Y-1715312D01*
X-797509Y-1703832D01*
X-791413Y-1691436D01*
X-786942Y-1678330D01*
X-784250Y-1664766D01*
X-783488Y-1655978D01*
X-782167Y-1593392D01*
X-781354Y-1589633D01*
X-779170Y-1586433D01*
X-726338Y-1533601D01*
X-723036Y-1531366D01*
X-719124Y-1530604D01*
X-669798Y-1530604D01*
X-665784Y-1531416D01*
X-662482Y-1533702D01*
X-660298Y-1537157D01*
X-659638Y-1541119D01*
X-660603Y-1545082D01*
X-662990Y-1548333D01*
X-666496Y-1550365D01*
X-675436Y-1553413D01*
X-687832Y-1559509D01*
X-699312Y-1567180D01*
X-709676Y-1576324D01*
X-718820Y-1586687D01*
X-726490Y-1598168D01*
X-732586Y-1610563D01*
X-737057Y-1623669D01*
X-739749Y-1637233D01*
X-740613Y-1651000D01*
X-739749Y-1664766D01*
X-737057Y-1678330D01*
X-732586Y-1691436D01*
X-726490Y-1703832D01*
X-718820Y-1715312D01*
X-709676Y-1725675D01*
X-699617Y-1734566D01*
X-697128Y-1737817D01*
X-696163Y-1741728D01*
X-696772Y-1745742D01*
X-698957Y-1749196D01*
X-702310Y-1751533D01*
X-706272Y-1752346D01*
G37*

%LPD*%
G36*
X-541020Y-1292199D02*
G01*
X-560070Y-1301750D01*
X-560070Y-1314450D01*
X-541020Y-1323949D01*
G37*
G36*
X-405993Y-1267612D02*
G01*
X-405993Y-1299362D01*
X-386943Y-1289812D01*
X-386943Y-1277112D01*
G37*
G36*
X405993Y-1267612D02*
G01*
X386943Y-1277112D01*
X386943Y-1289812D01*
X405993Y-1299362D01*
G37*
G36*
X68326Y79502D02*
G01*
X87376Y41402D01*
X112776Y41402D01*
X131826Y79502D01*
G37*
G36*
X87376Y250596D02*
G01*
X68326Y212496D01*
X131826Y212496D01*
X112776Y250596D01*
G37*
G36*
X166471Y177800D02*
G01*
X166471Y114300D01*
X204571Y133350D01*
X204571Y158750D01*
G37*
G36*
X33477Y177800D02*
G01*
X-4622Y158750D01*
X-4622Y133350D01*
X33477Y114300D01*
G37*
G36*
X270764Y250596D02*
G01*
X251714Y212496D01*
X315214Y212496D01*
X296164Y250596D01*
G37*
G36*
X251714Y79502D02*
G01*
X270764Y41402D01*
X296164Y41402D01*
X315214Y79502D01*
G37*
G36*
X216966Y177800D02*
G01*
X178866Y158750D01*
X178866Y133350D01*
X216966Y114300D01*
G37*
G36*
X-96266Y250596D02*
G01*
X-115316Y212496D01*
X-51816Y212496D01*
X-70866Y250596D01*
G37*
G36*
X-115316Y79502D02*
G01*
X-96266Y41402D01*
X-70866Y41402D01*
X-51816Y79502D01*
G37*
G36*
X-17018Y177800D02*
G01*
X-17018Y114300D01*
X21082Y133350D01*
X21082Y158750D01*
G37*
G36*
X-115316Y262991D02*
G01*
X-96266Y224891D01*
X-70866Y224891D01*
X-51816Y262991D01*
G37*
G36*
X-17018Y361188D02*
G01*
X-17018Y297688D01*
X21082Y316738D01*
X21082Y342138D01*
G37*
G36*
X68326Y262991D02*
G01*
X87376Y224891D01*
X112776Y224891D01*
X131826Y262991D01*
G37*
G36*
X166471Y361188D02*
G01*
X166471Y297688D01*
X204571Y316738D01*
X204571Y342138D01*
G37*
G36*
X33477Y361188D02*
G01*
X-4622Y342138D01*
X-4622Y316738D01*
X33477Y297688D01*
G37*
G36*
X251714Y262991D02*
G01*
X270764Y224891D01*
X296164Y224891D01*
X315214Y262991D01*
G37*
G36*
X216966Y361188D02*
G01*
X178866Y342138D01*
X178866Y316738D01*
X216966Y297688D01*
G37*
G36*
X270764Y67106D02*
G01*
X251714Y29006D01*
X315214Y29006D01*
X296164Y67106D01*
G37*
G36*
X216966Y-5842D02*
G01*
X178866Y-24892D01*
X178866Y-50292D01*
X216966Y-69342D01*
G37*
G36*
X87376Y67106D02*
G01*
X68326Y29006D01*
X131826Y29006D01*
X112776Y67106D01*
G37*
G36*
X166471Y-5842D02*
G01*
X166471Y-69342D01*
X204571Y-50292D01*
X204571Y-24892D01*
G37*
G36*
X33477Y-5842D02*
G01*
X-4622Y-24892D01*
X-4622Y-50292D01*
X33477Y-69342D01*
G37*
G36*
X-96266Y67106D02*
G01*
X-115316Y29006D01*
X-51816Y29006D01*
X-70866Y67106D01*
G37*
G36*
X-17018Y-5842D02*
G01*
X-17018Y-69342D01*
X21082Y-50292D01*
X21082Y-24892D01*
G37*
G36*
X-979982Y765200D02*
G01*
X-999032Y755650D01*
X-999032Y742950D01*
X-979982Y733450D01*
G37*
G36*
X-979982Y656183D02*
G01*
X-999032Y646684D01*
X-999032Y633984D01*
X-979982Y624433D01*
G37*
G36*
X-779983Y503783D02*
G01*
X-779983Y472033D01*
X-760933Y459892D01*
X-760933Y477824D01*
G37*
G36*
X-760933Y429107D02*
G01*
X-779983Y416966D01*
X-779983Y385216D01*
X-760933Y411175D01*
G37*
G36*
X-979982Y275183D02*
G01*
X-999032Y265684D01*
X-999032Y252984D01*
X-979982Y243433D01*
G37*
G36*
X-979982Y-11633D02*
G01*
X-999032Y-37592D01*
X-999032Y-55524D01*
X-979982Y-39522D01*
G37*
G36*
X-979982Y-98399D02*
G01*
X-999032Y-107950D01*
X-999032Y-120650D01*
X-979982Y-130149D01*
G37*
G36*
X-999032Y-185775D02*
G01*
X-999032Y-203708D01*
X-979982Y-229666D01*
X-979982Y-203504D01*
G37*
G36*
X-979982Y-621233D02*
G01*
X-999032Y-647192D01*
X-999032Y-665124D01*
X-979982Y-652983D01*
G37*
G36*
X-999032Y-706475D02*
G01*
X-999032Y-724408D01*
X-979982Y-750366D01*
X-979982Y-718616D01*
G37*
G36*
X-587349Y-994511D02*
G01*
X-577850Y-1013561D01*
X-565150Y-1013561D01*
X-555599Y-994511D01*
G37*
G36*
X979982Y-486816D02*
G01*
X979982Y-518566D01*
X999032Y-509016D01*
X999032Y-496316D01*
G37*
G36*
X428650Y-994511D02*
G01*
X438150Y-1003300D01*
X450850Y-1003300D01*
X460400Y-994511D01*
G37*
G36*
X979982Y799084D02*
G01*
X979982Y735584D01*
X1018082Y754634D01*
X1018082Y780034D01*
G37*
G36*
X979982Y623366D02*
G01*
X979982Y595477D01*
X999032Y579475D01*
X999032Y597408D01*
G37*
G36*
X779983Y275183D02*
G01*
X769366Y265684D01*
X769366Y252984D01*
X779983Y243433D01*
G37*
G36*
X779983Y148183D02*
G01*
X769366Y138684D01*
X769366Y125983D01*
X779983Y116433D01*
G37*
G36*
X779983Y21183D02*
G01*
X767334Y11684D01*
X767334Y-1016D01*
X779983Y-10566D01*
G37*
G36*
X779983Y-105816D02*
G01*
X767334Y-115316D01*
X767334Y-128016D01*
X779983Y-137566D01*
G37*
G36*
X779983Y-232816D02*
G01*
X767334Y-242316D01*
X767334Y-255016D01*
X779983Y-264566D01*
G37*
G36*
X779983Y-359816D02*
G01*
X767334Y-369316D01*
X767334Y-382016D01*
X779983Y-391566D01*
G37*
G36*
X1342745Y-996137D02*
G01*
X1354937Y-1015187D01*
X1386687Y-1015187D01*
X1360728Y-996137D01*
G37*
G36*
X1244498Y-1217320D02*
G01*
X1225448Y-1226820D01*
X1225448Y-1239520D01*
X1244498Y-1249070D01*
G37*
G36*
X1266698Y-977087D02*
G01*
X1247648Y-1015187D01*
X1311148Y-1015187D01*
X1292098Y-977087D01*
G37*
G36*
X1242517Y1066190D02*
G01*
X1223467Y1056640D01*
X1223467Y1043940D01*
X1242517Y1034440D01*
G37*
G36*
X1381252Y1287272D02*
G01*
X1371701Y1268222D01*
X1403451Y1268222D01*
X1393952Y1287272D01*
G37*
G36*
X1355852Y1015187D02*
G01*
X1374902Y977087D01*
X1400302Y977087D01*
X1419352Y1015187D01*
G37*
G36*
X-1395984Y1099566D02*
G01*
X-1405483Y1085189D01*
X-1373733Y1085189D01*
X-1383284Y1099566D01*
G37*
G36*
X-1295298Y1198219D02*
G01*
X-1285748Y1184402D01*
X-1273048Y1184402D01*
X-1263548Y1198219D01*
G37*
G36*
X-1311148Y1015187D02*
G01*
X-1292098Y977087D01*
X-1266698Y977087D01*
X-1247648Y1015187D01*
G37*
G36*
X-1310233Y-1008481D02*
G01*
X-1319225Y-1017422D01*
X-1312519Y-1037539D01*
X-1289913Y-1015187D01*
G37*
G36*
X-1393952Y-1184402D02*
G01*
X-1403451Y-1198219D01*
X-1371701Y-1198219D01*
X-1381252Y-1184402D01*
G37*
G36*
X-1400302Y-977087D02*
G01*
X-1419352Y-1015187D01*
X-1355852Y-1015187D01*
X-1374902Y-977087D01*
G37*
G36*
X-56794Y1105001D02*
G01*
X-47244Y1085951D01*
X-34544Y1085951D01*
X-25044Y1105001D01*
G37*
G36*
X-6350Y-1222451D02*
G01*
X-15849Y-1241501D01*
X15900Y-1241501D01*
X6350Y-1222451D01*
G37*
G36*
X39979Y-1368399D02*
G01*
X39979Y-1400149D01*
X59029Y-1390650D01*
X59029Y-1377950D01*
G37*
G36*
X314350Y1105001D02*
G01*
X323850Y1085951D01*
X336550Y1085951D01*
X346100Y1105001D01*
G37*
G36*
X439420Y1204061D02*
G01*
X429920Y1185011D01*
X461670Y1185011D01*
X452120Y1204061D01*
G37*
G36*
X708050Y1105001D02*
G01*
X717550Y1092200D01*
X730250Y1092200D01*
X739800Y1105001D01*
G37*
G36*
X829564Y1204061D02*
G01*
X820013Y1185011D01*
X851763Y1185011D01*
X842264Y1204061D01*
G37*
G36*
X1153668Y-353212D02*
G01*
X1134618Y-362712D01*
X1134618Y-375412D01*
X1153668Y-384962D01*
G37*
G36*
X1181354Y-325069D02*
G01*
X1171854Y-344119D01*
X1203604Y-344119D01*
X1194054Y-325069D01*
G37*
G36*
X1364996Y-305968D02*
G01*
X1345946Y-344068D01*
X1409446Y-344068D01*
X1390396Y-305968D01*
G37*
G36*
X1411528Y-344068D02*
G01*
X1411528Y-394106D01*
X1449628Y-381000D01*
X1449628Y-355600D01*
G37*
G36*
X1344930Y278130D02*
G01*
X1319530Y277977D01*
X1307693Y268630D01*
X1357680Y268630D01*
G37*
G36*
X1357680Y247650D02*
G01*
X1357680Y188620D01*
X1395780Y203200D01*
X1395780Y228600D01*
G37*
G36*
X1219200Y279400D02*
G01*
X1207668Y268630D01*
X1257655Y268630D01*
X1244600Y279400D01*
G37*
G36*
X1347825Y13868D02*
G01*
X1365250Y-6350D01*
X1390650Y-6350D01*
X1407820Y13868D01*
G37*
G36*
X1405026Y127609D02*
G01*
X1366672Y113893D01*
X1407820Y65532D01*
X1421536Y108204D01*
G37*
G36*
X1171854Y-266141D02*
G01*
X1181354Y-285191D01*
X1194054Y-285191D01*
X1203604Y-266141D01*
G37*
G36*
X1347825Y-266141D02*
G01*
X1364996Y-304241D01*
X1390396Y-304241D01*
X1407820Y-266141D01*
G37*
G36*
X1407820Y692404D02*
G01*
X1407820Y628904D01*
X1445920Y647954D01*
X1445920Y673354D01*
G37*
G36*
X1364996Y730504D02*
G01*
X1347825Y710793D01*
X1407820Y710793D01*
X1390396Y730504D01*
G37*
G36*
X1175004Y451104D02*
G01*
X1157833Y430784D01*
X1217828Y430784D01*
X1200404Y451104D01*
G37*
G36*
X1252829Y330758D02*
G01*
X1269238Y329438D01*
X1294638Y329438D01*
X1312824Y330758D01*
G37*
G36*
X1364996Y451104D02*
G01*
X1347825Y430784D01*
X1407820Y430784D01*
X1390396Y451104D01*
G37*
G36*
X1347825Y330758D02*
G01*
X1364996Y324358D01*
X1390396Y324358D01*
X1407820Y330758D01*
G37*
G36*
X1060450Y801268D02*
G01*
X1079500Y767334D01*
X1104900Y767334D01*
X1123950Y801268D01*
G37*
G36*
X-1258620Y-34899D02*
G01*
X-1258620Y-66649D01*
X-1244600Y-57150D01*
X-1244600Y-44450D01*
G37*
G36*
X-1408633Y-90830D02*
G01*
X-1396238Y-128930D01*
X-1370838Y-128930D01*
X-1358595Y-90830D01*
G37*
G36*
X-1396238Y27279D02*
G01*
X-1408633Y-10820D01*
X-1358595Y-10820D01*
X-1370838Y27279D01*
G37*
G36*
X112268Y-1281887D02*
G01*
X93218Y-1307896D01*
X93218Y-1325930D01*
X112268Y-1308557D01*
G37*
G36*
X112268Y-1368399D02*
G01*
X93218Y-1377950D01*
X93218Y-1390650D01*
X112268Y-1400149D01*
G37*
G36*
X-1258620Y117500D02*
G01*
X-1258620Y85750D01*
X-1244600Y95250D01*
X-1244600Y107950D01*
G37*
G36*
X-1408633Y61569D02*
G01*
X-1396238Y23469D01*
X-1370838Y23469D01*
X-1358595Y61569D01*
G37*
G36*
X-1396238Y179679D02*
G01*
X-1408633Y141579D01*
X-1358595Y141579D01*
X-1370838Y179679D01*
G37*
G36*
X-1289812Y617829D02*
G01*
X-1299362Y598779D01*
X-1267612Y598779D01*
X-1277112Y617829D01*
G37*
G36*
X-1408633Y518769D02*
G01*
X-1396238Y480669D01*
X-1370838Y480669D01*
X-1358595Y518769D01*
G37*
G36*
X-1258620Y-187299D02*
G01*
X-1258620Y-219049D01*
X-1244600Y-209550D01*
X-1244600Y-196850D01*
G37*
G36*
X-1408633Y-243230D02*
G01*
X-1397000Y-281330D01*
X-1371600Y-281330D01*
X-1358595Y-243230D01*
G37*
G36*
X-1396238Y-125120D02*
G01*
X-1408633Y-163220D01*
X-1358595Y-163220D01*
X-1370838Y-125120D01*
G37*
G36*
X-1258620Y275183D02*
G01*
X-1258620Y243433D01*
X-1239570Y252984D01*
X-1239570Y265684D01*
G37*
G36*
X-1408633Y213969D02*
G01*
X-1396238Y175869D01*
X-1370838Y175869D01*
X-1358595Y213969D01*
G37*
G36*
X-1396238Y332079D02*
G01*
X-1408633Y293979D01*
X-1358595Y293979D01*
X-1370838Y332079D01*
G37*
G36*
X-1258620Y422300D02*
G01*
X-1258620Y390550D01*
X-1244600Y400050D01*
X-1244600Y412750D01*
G37*
G36*
X-1408633Y366369D02*
G01*
X-1396238Y328269D01*
X-1370838Y328269D01*
X-1358595Y366369D01*
G37*
G36*
X-1396238Y484479D02*
G01*
X-1408633Y446379D01*
X-1358595Y446379D01*
X-1370838Y484479D01*
G37*
G36*
X-344932Y-1267612D02*
G01*
X-363982Y-1277112D01*
X-363982Y-1289812D01*
X-344932Y-1299362D01*
G37*
G36*
X-320649Y-1408531D02*
G01*
X-311150Y-1427581D01*
X-298450Y-1427581D01*
X-288899Y-1408531D01*
G37*
G36*
X344678Y-1267612D02*
G01*
X344678Y-1299362D01*
X363728Y-1289812D01*
X363728Y-1277112D01*
G37*
G36*
X298450Y-1244600D02*
G01*
X288950Y-1258519D01*
X320700Y-1258519D01*
X311150Y-1244600D01*
G37*
G36*
X288950Y-1408531D02*
G01*
X298450Y-1422400D01*
X311150Y-1422400D01*
X320700Y-1408531D01*
G37*
G36*
X-112471Y-1281734D02*
G01*
X-112471Y-1308506D01*
X-93421Y-1325778D01*
X-93421Y-1307744D01*
G37*
G36*
X-165100Y-1220368D02*
G01*
X-184150Y-1258468D01*
X-120650Y-1258468D01*
X-139700Y-1220368D01*
G37*
G36*
X1258468Y-941730D02*
G01*
X1266698Y-979830D01*
X1292098Y-979830D01*
X1308455Y-941730D01*
G37*
G36*
X1258468Y-869950D02*
G01*
X1220368Y-889000D01*
X1220368Y-914400D01*
X1258468Y-933450D01*
G37*
G36*
X1408480Y946150D02*
G01*
X1408480Y882650D01*
X1422400Y901700D01*
X1422400Y927100D01*
G37*
G36*
X1374902Y992530D02*
G01*
X1358493Y954430D01*
X1408480Y954430D01*
X1400302Y992530D01*
G37*
G36*
X-1258519Y946150D02*
G01*
X-1258519Y882650D01*
X-1220419Y901700D01*
X-1220419Y927100D01*
G37*
G36*
X-1292098Y992530D02*
G01*
X-1308506Y954430D01*
X-1258519Y954430D01*
X-1266698Y992530D01*
G37*
G36*
X-1408531Y-869950D02*
G01*
X-1446631Y-889000D01*
X-1446631Y-914400D01*
X-1408531Y-933450D01*
G37*
G36*
X-1408531Y-941730D02*
G01*
X-1400302Y-979830D01*
X-1374902Y-979830D01*
X-1358544Y-941730D01*
G37*
G36*
X1365250Y-596900D02*
G01*
X1355750Y-610819D01*
X1387500Y-610819D01*
X1377950Y-596900D01*
G37*
G36*
X1411579Y-619760D02*
G01*
X1411579Y-651510D01*
X1430629Y-641959D01*
X1430629Y-629259D01*
G37*
G36*
X-457200Y1256487D02*
G01*
X-476250Y1218387D01*
X-412750Y1218387D01*
X-431800Y1256487D01*
G37*
G36*
X-711200Y1256487D02*
G01*
X-730250Y1218387D01*
X-666750Y1218387D01*
X-685800Y1256487D01*
G37*
G36*
X195783Y-252069D02*
G01*
X163169Y-284683D01*
X185724Y-292557D01*
X203657Y-274624D01*
G37*
G36*
X123088Y309118D02*
G01*
X76962Y309067D01*
X87376Y287528D01*
X112776Y287578D01*
G37*
G36*
X120345Y352501D02*
G01*
X120345Y306374D01*
X141884Y316738D01*
X141884Y342138D01*
G37*
G36*
X79654Y352501D02*
G01*
X58115Y342138D01*
X58115Y316738D01*
X79654Y306374D01*
G37*
G36*
X584504Y-92913D02*
G01*
X575513Y-101904D01*
X578916Y-128930D01*
X611530Y-96316D01*
G37*
G36*
X-23063Y-1188720D02*
G01*
X-6350Y-1210259D01*
X6350Y-1210259D01*
X23063Y-1188720D01*
G37*
G36*
X-25095Y-1134313D02*
G01*
X-34086Y-1143304D01*
X-30683Y-1170330D01*
X1930Y-1137716D01*
G37*
G36*
X270764Y187858D02*
G01*
X260400Y166319D01*
X306527Y166370D01*
X296164Y187858D01*
G37*
G36*
X260400Y125679D02*
G01*
X270764Y104139D01*
X296164Y104139D01*
X306527Y125628D01*
G37*
G36*
X263194Y169062D02*
G01*
X241655Y158750D01*
X241604Y133350D01*
X263144Y122986D01*
G37*
G36*
X-96266Y4368D02*
G01*
X-106578Y-17170D01*
X-60452Y-17119D01*
X-70866Y4368D01*
G37*
G36*
X-63093Y-14478D02*
G01*
X-63195Y-60604D01*
X-41656Y-50292D01*
X-41605Y-24892D01*
G37*
G36*
X-70866Y187909D02*
G01*
X-96266Y187858D01*
X-106578Y166319D01*
X-60452Y166370D01*
G37*
G36*
X-106578Y125679D02*
G01*
X-96266Y104139D01*
X-70866Y104139D01*
X-60452Y125628D01*
G37*
G36*
X-63195Y169062D02*
G01*
X-63144Y122986D01*
X-41605Y133350D01*
X-41656Y158750D01*
G37*
G36*
X-106578Y309219D02*
G01*
X-96266Y287680D01*
X-70866Y287629D01*
X-60452Y309118D01*
G37*
G36*
X-63093Y352552D02*
G01*
X-63195Y306425D01*
X-41656Y316738D01*
X-41605Y342138D01*
G37*
G36*
X1110183Y-1166469D02*
G01*
X1077569Y-1199083D01*
X1104595Y-1202486D01*
X1113586Y-1193495D01*
G37*
G36*
X1221486Y1068273D02*
G01*
X1231290Y1023162D01*
X1248765Y1043940D01*
X1246022Y1056640D01*
G37*
G36*
X474218Y-1277670D02*
G01*
X453643Y-1279296D01*
X443992Y-1287627D01*
X439166Y-1307642D01*
G37*
G36*
X-696163Y-1404620D02*
G01*
X-679450Y-1422400D01*
X-666750Y-1422400D01*
X-650036Y-1404620D01*
G37*
G36*
X1303020Y-548436D02*
G01*
X1303020Y-594563D01*
X1324559Y-577850D01*
X1324559Y-565150D01*
G37*
G36*
X1022350Y422859D02*
G01*
X1005636Y401320D01*
X1051763Y401320D01*
X1035050Y422859D01*
G37*
G36*
X1066800Y-1037640D02*
G01*
X1056436Y-1059180D01*
X1102563Y-1059180D01*
X1092200Y-1037640D01*
G37*
G36*
X845819Y-980236D02*
G01*
X845819Y-1026363D01*
X867359Y-1009650D01*
X867359Y-996950D01*
G37*
G36*
X1259281Y361086D02*
G01*
X1269238Y339394D01*
X1294638Y338937D01*
X1305407Y360222D01*
G37*
G36*
X-1479550Y372059D02*
G01*
X-1496263Y350520D01*
X-1450136Y350520D01*
X-1466850Y372059D01*
G37*
G36*
X-721563Y1287780D02*
G01*
X-711200Y1266240D01*
X-685800Y1266240D01*
X-675436Y1287780D01*
G37*
G36*
X1440180Y238963D02*
G01*
X1418640Y228600D01*
X1418640Y203200D01*
X1440180Y192836D01*
G37*
G36*
X1440180Y-345236D02*
G01*
X1418640Y-355600D01*
X1418640Y-381000D01*
X1440180Y-391363D01*
G37*
G36*
X806450Y-1418590D02*
G01*
X793750Y-1422654D01*
X784656Y-1448104D01*
X828598Y-1434134D01*
G37*
G36*
X742950Y-1355140D02*
G01*
X726236Y-1376680D01*
X772363Y-1376680D01*
X755650Y-1355140D01*
G37*
G36*
X-1465580Y-878636D02*
G01*
X-1465580Y-924763D01*
X-1444040Y-914400D01*
X-1444040Y-889000D01*
G37*
G36*
X-1160983Y967130D02*
G01*
X-1168857Y944575D01*
X-1150924Y926642D01*
X-1128369Y934516D01*
G37*
G36*
X1447800Y778459D02*
G01*
X1437436Y756920D01*
X1483563Y756920D01*
X1473200Y778459D01*
G37*
G36*
X355904Y872286D02*
G01*
X346913Y863295D01*
X350316Y836269D01*
X382930Y868883D01*
G37*
G36*
X374650Y968959D02*
G01*
X357936Y947419D01*
X404063Y947419D01*
X387350Y968959D01*
G37*
G36*
X-467563Y1287780D02*
G01*
X-457200Y1266240D01*
X-431800Y1266240D01*
X-421436Y1287780D01*
G37*
G36*
X-170180Y-1043736D02*
G01*
X-170180Y-1089863D01*
X-148640Y-1073150D01*
X-148640Y-1060450D01*
G37*
G36*
X93980Y-1043736D02*
G01*
X72440Y-1060450D01*
X72440Y-1073150D01*
X93980Y-1089863D01*
G37*
G36*
X-100736Y-1145336D02*
G01*
X-114300Y-1155700D01*
X-114300Y-1181100D01*
X-100736Y-1191463D01*
G37*
G36*
X586536Y-655320D02*
G01*
X603250Y-676859D01*
X615950Y-676859D01*
X632663Y-655320D01*
G37*
G36*
X337820Y-1043736D02*
G01*
X337820Y-1089863D01*
X359359Y-1073150D01*
X359359Y-1060450D01*
G37*
G36*
X-717550Y330200D02*
G01*
X-734263Y312420D01*
X-688136Y312420D01*
X-704850Y330200D01*
G37*
G36*
X-641350Y330200D02*
G01*
X-658063Y312420D01*
X-611936Y312420D01*
X-628650Y330200D01*
G37*
G36*
X-1355699Y-406806D02*
G01*
X-1372920Y-425500D01*
X-1364081Y-447700D01*
X-1332839Y-413766D01*
G37*
G36*
X158750Y1184859D02*
G01*
X142036Y1163320D01*
X188163Y1163320D01*
X171450Y1184859D01*
G37*
G36*
X-932180Y1394663D02*
G01*
X-932180Y1348536D01*
X-914400Y1365250D01*
X-914400Y1377950D01*
G37*
G36*
X-927404Y1329486D02*
G01*
X-954430Y1326083D01*
X-921816Y1293469D01*
X-918413Y1320495D01*
G37*
G36*
X192836Y-1087120D02*
G01*
X209550Y-1108659D01*
X222250Y-1108659D01*
X238963Y-1087120D01*
G37*
G36*
X1270000Y765759D02*
G01*
X1259636Y744220D01*
X1305763Y744220D01*
X1295400Y765759D01*
G37*
G36*
X495300Y-516940D02*
G01*
X484936Y-538480D01*
X531063Y-538480D01*
X520700Y-516940D01*
G37*
G36*
X1365250Y30632D02*
G01*
X1351889Y10922D01*
X1397457Y3911D01*
X1390650Y26720D01*
G37*
G36*
X1351280Y10363D02*
G01*
X1329740Y0D01*
X1329740Y-25400D01*
X1351280Y-35763D01*
G37*
G36*
X1303020Y10363D02*
G01*
X1303020Y-35763D01*
X1324559Y-25400D01*
X1324559Y0D01*
G37*
G36*
X1598066Y440994D02*
G01*
X1542084Y393700D01*
X1542084Y368300D01*
X1598066Y321005D01*
G37*
G36*
X1598066Y186994D02*
G01*
X1542084Y139700D01*
X1542084Y114300D01*
X1598066Y67005D01*
G37*
G36*
X1597914Y-575157D02*
G01*
X1542084Y-628954D01*
X1542084Y-641654D01*
X1598269Y-695147D01*
G37*
G36*
X1070457Y-1569516D02*
G01*
X1061516Y-1578457D01*
X1063142Y-1656029D01*
X1148029Y-1571142D01*
G37*
G36*
X816457Y-1569516D02*
G01*
X807516Y-1578457D01*
X809142Y-1656029D01*
X894029Y-1571142D01*
G37*
G36*
X-562457Y-1569516D02*
G01*
X-640029Y-1571142D01*
X-555142Y-1656029D01*
X-553516Y-1578457D01*
G37*
G36*
X-816457Y-1569516D02*
G01*
X-894029Y-1571142D01*
X-809142Y-1656029D01*
X-807516Y-1578457D01*
G37*
G36*
X-1070457Y-1569516D02*
G01*
X-1148029Y-1571142D01*
X-1063142Y-1656029D01*
X-1061516Y-1578457D01*
G37*
G36*
X1163777Y-712266D02*
G01*
X1187450Y-740257D01*
X1200150Y-740257D01*
X1223822Y-712266D01*
G37*
D10*
X0Y-1384300D02*
G01*
X152400Y-1384300D01*
X1389634Y-1050289D02*
G01*
X1389634Y-1034034D01*
X1333500Y-977900D01*
X1333500Y-825500D01*
X1308100Y-800100D01*
X1219200Y-800100D01*
X1193800Y-774700D01*
X1193800Y-685800D01*
X1016000Y-502665D02*
G01*
X1028700Y-502665D01*
X1028700Y-965200D01*
X990600Y-1003300D01*
X825500Y-1003300D01*
D11*
X1079500Y-1079500D02*
G01*
X1079500Y-952500D01*
X1130300Y-901700D01*
X1283462Y-901700D01*
X1092200Y767334D02*
G01*
X1340865Y767334D01*
X1377695Y730504D01*
X1377695Y660654D01*
X880110Y767334D02*
G01*
X1092200Y767334D01*
X1092200Y826262D01*
X1377695Y63754D02*
G01*
X1377695Y82295D01*
X1422400Y127000D01*
X1651000Y127000D01*
X1282700Y723900D02*
G01*
X1282700Y767334D01*
X-1383537Y-901700D02*
G01*
X-1387602Y-905763D01*
X-1387602Y-1050289D01*
X-1383537Y-901700D02*
G01*
X-1460500Y-901700D01*
X-1485900Y-901700D01*
X1460500Y-368300D02*
G01*
X1372362Y-368300D01*
X1371600Y-369062D01*
X1460500Y215900D02*
G01*
X1345437Y215900D01*
X1332737Y228600D01*
X1371600Y-369062D02*
G01*
X1377695Y-362965D01*
X1377695Y-216154D01*
X-1283462Y914400D02*
G01*
X-1279397Y918463D01*
X-1279397Y1050289D01*
X1383537Y914400D02*
G01*
X1387602Y918463D01*
X1387602Y1050289D01*
X1283462Y-901700D02*
G01*
X1279397Y-905763D01*
X1279397Y-1050289D01*
D10*
X-473455Y-1308100D02*
G01*
X-448818Y-1283462D01*
X-304800Y-1283462D01*
X1143000Y-1651000D02*
G01*
X1016000Y-1524000D01*
X800100Y-1524000D01*
X698500Y-1422400D01*
X698500Y-190500D01*
X767334Y-121665D01*
X880110Y-121665D01*
X-190500Y-1066800D02*
G01*
X114300Y-1066800D01*
D11*
X-152400Y-1283462D02*
G01*
X-152400Y-1206500D01*
X-114300Y-1168400D01*
X-80518Y-1168400D01*
D10*
X-1143000Y-1651000D02*
G01*
X-965200Y-1473200D01*
X533400Y-1473200D01*
X596900Y-1409700D01*
X596900Y-1117600D01*
X546100Y-1066800D01*
X317500Y-1066800D01*
X1371600Y-635762D02*
G01*
X1651000Y-635000D01*
X1193800Y-369062D02*
G01*
X1187704Y-362965D01*
X1187704Y-216154D01*
X-1283462Y254000D02*
G01*
X-1278128Y259334D01*
X-879855Y259334D01*
X-889000Y-1651000D02*
G01*
X-736600Y-1498600D01*
X546100Y-1498600D01*
X622300Y-1422400D01*
X622300Y-1102360D01*
X561339Y-1041400D01*
X482600Y-1041400D01*
X444500Y-1003300D01*
X444500Y-894587D01*
X-939800Y-1079500D02*
G01*
X-863600Y-1003300D01*
X-698500Y-1003300D01*
X-660400Y-965200D01*
X-660400Y-762000D01*
X-622300Y-723900D01*
X-622300Y-698500D01*
X-673100Y-698500D01*
X880110Y640334D02*
G01*
X947165Y640334D01*
X1016000Y571500D01*
X1028700Y558800D01*
X1028700Y381000D01*
X880110Y-502665D02*
G01*
X1028700Y-502665D01*
X1028700Y-393700D01*
X1053337Y-369062D01*
X1193800Y-369062D01*
X1282700Y-571500D02*
G01*
X1346200Y-571500D01*
X1371600Y-596900D01*
X1371600Y-635762D01*
D11*
X1383537Y914400D02*
G01*
X1422400Y914400D01*
X1460500Y876300D01*
X1460500Y736600D01*
D10*
X-304800Y-1396237D02*
G01*
X-304800Y-1447800D01*
X279400Y-1447800D01*
X304800Y-1422400D01*
X304800Y-1396237D01*
X-304800Y-1447800D02*
G01*
X-647700Y-1447800D01*
X-673100Y-1422400D01*
X-673100Y-1384300D01*
X889000Y-1651000D02*
G01*
X673100Y-1435100D01*
X673100Y-88900D01*
X767334Y5334D01*
X880110Y5334D01*
X1206500Y1041400D02*
G01*
X1215389Y1050289D01*
X1277365Y1050289D01*
D11*
X-83565Y329437D02*
G01*
X100076Y329437D01*
X100076Y329437D02*
G01*
X283463Y329437D01*
X-83565Y146050D02*
G01*
X283463Y146050D01*
X-83565Y-37592D02*
G01*
X283463Y-37592D01*
X-83565Y146050D02*
G01*
X-83565Y-37592D01*
X-83565Y329437D02*
G01*
X-83565Y146050D01*
X100076Y329437D02*
G01*
X100076Y-37592D01*
X283463Y146050D02*
G01*
X283463Y-37592D01*
X283463Y329437D02*
G01*
X283463Y146050D01*
D10*
X215900Y-1066800D02*
G01*
X215900Y-1155700D01*
X304800Y-1244600D01*
X304800Y-1283462D01*
X749300Y-1397000D02*
G01*
X749300Y-1320800D01*
X723900Y-1295400D01*
X723900Y-292100D01*
X767334Y-248665D01*
X880110Y-248665D01*
X812800Y-1460500D02*
G01*
X800100Y-1460500D01*
X800100Y-1333500D01*
X749300Y-1282700D01*
X749300Y-393700D01*
X767334Y-375665D01*
X880110Y-375665D01*
D11*
X1377695Y660654D02*
G01*
X1447545Y660654D01*
X1473200Y635000D01*
X1473200Y406400D01*
X1498600Y381000D01*
X1651000Y381000D01*
D10*
X473455Y-1308100D02*
G01*
X448818Y-1283462D01*
X304800Y-1283462D01*
X-152400Y-1283462D02*
G01*
X-126492Y-1283462D01*
X-85089Y-1325118D01*
X85089Y-1325118D01*
X126492Y-1283462D01*
X152400Y-1283462D01*
X-571500Y-894079D02*
G01*
X-571500Y-1079500D01*
X-533400Y-1117600D01*
X-50800Y-1117600D01*
X0Y-1168400D01*
X0Y-1268984D01*
X165100Y1143000D02*
G01*
X165100Y1219200D01*
X190500Y1244600D01*
X445770Y1244600D01*
X381000Y838200D02*
G01*
X330200Y889000D01*
X330200Y1143000D01*
X326389Y1143000D01*
X609600Y-127000D02*
G01*
X571500Y-88900D01*
X571500Y749300D01*
X533400Y787400D01*
X342900Y787400D01*
X304800Y825500D01*
X304800Y1016000D01*
X266700Y1054100D01*
X-12700Y1054100D01*
X-40894Y1082294D01*
X-40894Y1145031D01*
X381000Y927100D02*
G01*
X381000Y1016000D01*
X419100Y1054100D01*
X685800Y1054100D01*
X723900Y1092200D01*
X723900Y1145031D01*
X-635000Y-1651000D02*
G01*
X-508000Y-1524000D01*
X558800Y-1524000D01*
X647700Y-1435100D01*
X647700Y-723900D01*
X609600Y-685800D01*
X609600Y-635000D01*
X-879855Y259334D02*
G01*
X-780034Y259334D01*
X-685800Y165100D01*
X-685800Y-558800D01*
X-723900Y-596900D01*
X-723900Y-622300D01*
X-673100Y-622300D01*
X-673100Y-622300D02*
G01*
X-723900Y-622300D01*
X-723900Y-723900D01*
X-685800Y-762000D01*
X-685800Y-952500D01*
X-711200Y-977900D01*
X-914400Y-977900D01*
X-1016000Y-1079500D01*
D11*
X1282700Y-12700D02*
G01*
X1371600Y-12700D01*
X1371600Y-12700D02*
G01*
X1377950Y-6350D01*
X1377950Y63754D01*
D10*
X445770Y1145031D02*
G01*
X445770Y1244600D01*
X812800Y1244600D01*
X835913Y1221486D01*
X835913Y1145031D01*
X880110Y132334D02*
G01*
X769365Y132334D01*
X723900Y177800D01*
X723900Y977900D01*
X787400Y1041400D01*
X901700Y1041400D01*
X939800Y1079500D01*
X939800Y1333500D01*
X901700Y1371600D01*
X-876300Y1371600D01*
X-952500Y1295400D01*
X880110Y259334D02*
G01*
X769365Y259334D01*
X749300Y279400D01*
X749300Y965200D01*
X800100Y1016000D01*
X914400Y1016000D01*
X965200Y1066800D01*
X965200Y1346200D01*
X914400Y1397000D01*
X-889000Y1397000D01*
X-914400Y1371600D01*
X-952500Y1371600D01*
X-1389634Y1050289D02*
G01*
X-1389634Y1099565D01*
X-1358900Y1130300D01*
X-1231900Y1130300D01*
X-1193800Y1168400D01*
X-1193800Y1308100D01*
X-1079500Y1422400D01*
X927100Y1422400D01*
X990600Y1358900D01*
X1333500Y1358900D01*
X1387602Y1304797D01*
X1387602Y1233170D01*
D11*
X-691387Y1168400D02*
G01*
X-698500Y1168400D01*
X-698500Y1308100D01*
X-444500Y1308100D02*
G01*
X-444500Y1168400D01*
X-451612Y1168400D01*
X-1130300Y965200D02*
G01*
X-1181100Y914400D01*
X-1283462Y914400D01*
D10*
X1079500Y-1168400D02*
G01*
X1144270Y-1233170D01*
X1279397Y-1233170D01*
D11*
X-1383537Y558800D02*
G01*
X-1383537Y-203200D01*
D10*
X-1277365Y-1050289D02*
G01*
X-1333500Y-994155D01*
X-1333500Y-825500D01*
X-1371600Y-787400D01*
X-1485900Y-787400D01*
X-1524000Y-749300D01*
X-1524000Y1117600D01*
X-1485900Y1155700D01*
X-1308100Y1155700D01*
X-1279397Y1184402D01*
X-1279397Y1233170D01*
X-1473200Y330200D02*
G01*
X-1473200Y711200D01*
X-1435100Y749300D01*
X-1283462Y749300D01*
X-1283462Y636015D01*
X-1283462Y558800D02*
G01*
X-1283462Y749300D01*
X-879855Y749300D01*
X-879855Y767334D01*
X-879855Y640334D02*
G01*
X-818134Y640334D01*
X-584200Y406400D01*
X-584200Y241300D01*
X-660400Y165100D01*
X-660400Y-558800D01*
X-622300Y-596900D01*
X-622300Y-698500D01*
X-673100Y-698500D01*
X-879855Y513334D02*
G01*
X-805434Y513334D01*
X-749300Y457200D01*
X-685800Y457200D01*
X-660400Y431800D01*
X-660400Y355600D01*
X-635000Y330200D01*
X-635000Y292100D01*
X-1282700Y-50800D02*
G01*
X-1244600Y-50800D01*
X-1231900Y-63500D01*
X-1231900Y-88900D01*
X-1206500Y-114300D01*
X-879855Y-114300D01*
X-879855Y-121665D01*
X-879855Y5334D02*
G01*
X-947165Y5334D01*
X-1041400Y-88900D01*
X-1193800Y-88900D01*
X-1206500Y-76200D01*
X-1206500Y-50800D01*
X-1231900Y-25400D01*
X-1231900Y88900D01*
X-1244600Y101600D01*
X-1283462Y101600D01*
X-1283462Y-203200D02*
G01*
X-1244600Y-203200D01*
X-1231900Y-189229D01*
X-1231900Y-165100D01*
X-1206500Y-139700D01*
X-1054100Y-139700D01*
X-945134Y-248665D01*
X-879855Y-248665D01*
X-1283462Y406400D02*
G01*
X-1244600Y406400D01*
X-1206500Y444500D01*
X-1206500Y596900D01*
X-1163065Y640334D01*
X-879855Y640334D01*
X-879855Y-756665D02*
G01*
X-957834Y-756665D01*
X-1016000Y-698500D01*
X-1117600Y-698500D01*
X-1143000Y-723900D01*
X-1143000Y-1104900D01*
X-1104900Y-1143000D01*
X-825500Y-1143000D01*
X-800100Y-1168400D01*
X-800100Y-1282700D01*
X-774700Y-1308100D01*
X-473455Y-1308100D01*
X-1387602Y-1233170D02*
G01*
X-1387602Y-1184402D01*
X-1346200Y-1143000D01*
X-1206500Y-1143000D01*
X-1168400Y-1104900D01*
X-1168400Y-711200D01*
X-1130300Y-673100D01*
X-1016000Y-673100D01*
X-972565Y-629665D01*
X-879855Y-629665D01*
D11*
X1377695Y380745D02*
G01*
X1377695Y324357D01*
X1332229Y278129D01*
X1332737Y228600D01*
X1231900Y228600D02*
G01*
X1231900Y279400D01*
X1281937Y329437D01*
X1281937Y380745D01*
X1187704Y380745D02*
G01*
X1187704Y451104D01*
X1219200Y482600D01*
X1346200Y482600D01*
X1377695Y451104D01*
X1377695Y380745D01*
X-1384300Y-203200D02*
G01*
X-1384300Y-397763D01*
X-1333500Y-444500D01*
X165100Y-254000D02*
G01*
X228600Y-317500D01*
X457200Y-317500D01*
X508000Y-368300D01*
X508000Y-558800D01*
D10*
X-879855Y386334D02*
G01*
X-794765Y386334D01*
X-749300Y431800D01*
X-698500Y431800D01*
X-685800Y419100D01*
X-685800Y355600D01*
X-711200Y330200D01*
X-711200Y292100D01*
D12*
G01*
X-691499Y1168400D03*
G01*
X-451500Y1168400D03*
D13*
G01*
X1371569Y-635808D03*
G01*
X1371569Y-735808D03*
D14*
G01*
X-1283547Y-901707D03*
G01*
X-1383546Y-901707D03*
G01*
X-1383529Y914407D03*
G01*
X-1283529Y914407D03*
G01*
X1283470Y914407D03*
G01*
X1383470Y914407D03*
G01*
X1383452Y-901707D03*
G01*
X1283453Y-901707D03*
D15*
G01*
X-152445Y-1383491D03*
G01*
X-152445Y-1283491D03*
D13*
G01*
X304693Y-1383534D03*
G01*
X304693Y-1283534D03*
G01*
X-304906Y-1383534D03*
G01*
X-304906Y-1283534D03*
D14*
G01*
X-1383607Y406366D03*
G01*
X-1283608Y406366D03*
G01*
X-1383607Y253966D03*
G01*
X-1283608Y253966D03*
G01*
X-1383607Y-203233D03*
G01*
X-1283608Y-203233D03*
G01*
X-1383607Y558766D03*
G01*
X-1283608Y558766D03*
G01*
X-1383607Y101566D03*
G01*
X-1283608Y101566D03*
D13*
G01*
X152293Y-1383534D03*
G01*
X152293Y-1283534D03*
D14*
G01*
X-1383607Y-50833D03*
G01*
X-1283608Y-50833D03*
D16*
G01*
X1193800Y-685800D03*
D13*
G01*
X1092169Y926291D03*
G01*
X1092169Y826291D03*
D17*
G01*
X1377828Y380776D03*
G01*
X1282826Y380776D03*
G01*
X1187825Y380776D03*
D18*
G01*
X1187825Y660775D03*
G01*
X1377828Y660775D03*
D17*
G01*
X1377828Y-216123D03*
G01*
X1282826Y-216123D03*
G01*
X1187825Y-216123D03*
D18*
G01*
X1187825Y63875D03*
G01*
X1377828Y63875D03*
D14*
G01*
X1232670Y228607D03*
G01*
X1332670Y228607D03*
D15*
G01*
X1371554Y-469091D03*
G01*
X1371554Y-369091D03*
G01*
X1193693Y-369131D03*
G01*
X1193693Y-469131D03*
D19*
G01*
X835880Y1144996D03*
G01*
X724001Y1144996D03*
G01*
X445881Y1144996D03*
G01*
X334002Y1144996D03*
D20*
G01*
X0Y-1380878D03*
G01*
X0Y-1268999D03*
D19*
G01*
X70881Y1144996D03*
G01*
X-40998Y1144996D03*
D21*
G01*
X-1387508Y-1050201D03*
D22*
G01*
X-1387508Y-1233208D03*
G01*
X-1277500Y-1233208D03*
D21*
G01*
X-1277500Y-1050201D03*
D22*
G01*
X-1279491Y1050201D03*
D21*
G01*
X-1279491Y1233208D03*
G01*
X-1389499Y1233208D03*
D22*
G01*
X-1389499Y1050201D03*
G01*
X1387508Y1050201D03*
D21*
G01*
X1387508Y1233208D03*
G01*
X1277500Y1233208D03*
D22*
G01*
X1277500Y1050201D03*
D21*
G01*
X1279491Y-1050201D03*
D22*
G01*
X1279491Y-1233208D03*
G01*
X1389499Y-1233208D03*
D21*
G01*
X1389499Y-1050201D03*
D23*
G01*
X880000Y-375498D03*
G01*
X880000Y-248498D03*
G01*
X880000Y-121498D03*
G01*
X880000Y5501D03*
G01*
X880000Y132501D03*
G01*
X880000Y259501D03*
G01*
X880000Y386501D03*
G01*
X880000Y513501D03*
G01*
X880000Y640501D03*
G01*
X880000Y767501D03*
G01*
X880000Y894501D03*
D24*
G01*
X444500Y-894499D03*
G01*
X571500Y-894499D03*
D23*
G01*
X880000Y-756498D03*
G01*
X880000Y-629498D03*
G01*
X880000Y-502498D03*
D24*
G01*
X317500Y-894499D03*
G01*
X190500Y-894499D03*
G01*
X63500Y-894499D03*
G01*
X-63500Y-894499D03*
G01*
X-190500Y-894499D03*
G01*
X-317500Y-894499D03*
G01*
X-444500Y-894499D03*
G01*
X-571500Y-894499D03*
D23*
G01*
X-880000Y-756498D03*
G01*
X-880000Y-629498D03*
G01*
X-880000Y-502498D03*
G01*
X-880000Y-375498D03*
G01*
X-880000Y-248498D03*
G01*
X-880000Y-121498D03*
G01*
X-880000Y5501D03*
G01*
X-880000Y132501D03*
G01*
X-880000Y259501D03*
G01*
X-880000Y386501D03*
G01*
X-880000Y513501D03*
G01*
X-880000Y640501D03*
G01*
X-880000Y767501D03*
G01*
X-880000Y894501D03*
D25*
G01*
X-83512Y-37499D03*
G01*
X99987Y-37499D03*
G01*
X283486Y-37499D03*
G01*
X283486Y329500D03*
G01*
X99987Y329498D03*
G01*
X-83512Y329500D03*
G01*
X-83512Y146000D03*
G01*
X283486Y146000D03*
D26*
G01*
X99987Y146000D03*
D27*
G01*
X923500Y-1308100D03*
G01*
X473499Y-1308100D03*
G01*
X-923500Y-1308100D03*
G01*
X-473499Y-1308100D03*
D28*
G01*
X-1143000Y-1651000D03*
G01*
X-889000Y-1651000D03*
G01*
X-635000Y-1651000D03*
G01*
X-381000Y-1651000D03*
G01*
X-127000Y-1651000D03*
G01*
X127000Y-1651000D03*
G01*
X381000Y-1651000D03*
G01*
X635000Y-1651000D03*
G01*
X889000Y-1651000D03*
G01*
X1143000Y-1651000D03*
G01*
X-1651000Y1143000D03*
G01*
X-1651000Y889000D03*
G01*
X-1651000Y635000D03*
G01*
X-1651000Y381000D03*
G01*
X-1651000Y127000D03*
G01*
X-1651000Y-127000D03*
G01*
X-1651000Y-381000D03*
G01*
X-1651000Y-635000D03*
G01*
X-1651000Y-889000D03*
G01*
X-1651000Y-1143000D03*
G01*
X1651000Y-1143000D03*
G01*
X1651000Y-889000D03*
G01*
X1651000Y-635000D03*
G01*
X1651000Y-381000D03*
G01*
X1651000Y-127000D03*
G01*
X1651000Y127000D03*
G01*
X1651000Y381000D03*
G01*
X1651000Y635000D03*
G01*
X1651000Y889000D03*
G01*
X1651000Y1143000D03*
D29*
G01*
X1524000Y1524000D03*
D30*
G01*
X1666494Y1524000D03*
G01*
X1381505Y1524000D03*
G01*
X1524000Y1666494D03*
G01*
X1524000Y1381505D03*
G01*
X1624711Y1423288D03*
G01*
X1624711Y1624711D03*
G01*
X1423288Y1624711D03*
G01*
X1423288Y1423288D03*
D29*
G01*
X1524000Y-1524000D03*
D30*
G01*
X1666494Y-1524000D03*
G01*
X1381505Y-1524000D03*
G01*
X1524000Y-1381505D03*
G01*
X1524000Y-1666494D03*
G01*
X1624711Y-1624711D03*
G01*
X1624711Y-1423288D03*
G01*
X1423288Y-1423288D03*
G01*
X1423288Y-1624711D03*
D29*
G01*
X-1524000Y-1524000D03*
D30*
G01*
X-1381505Y-1524000D03*
G01*
X-1666494Y-1524000D03*
G01*
X-1524000Y-1381505D03*
G01*
X-1524000Y-1666494D03*
G01*
X-1423288Y-1624711D03*
G01*
X-1423288Y-1423288D03*
G01*
X-1624711Y-1423288D03*
G01*
X-1624711Y-1624711D03*
D29*
G01*
X-1524000Y1524000D03*
D30*
G01*
X-1381505Y1524000D03*
G01*
X-1666494Y1524000D03*
G01*
X-1524000Y1666494D03*
G01*
X-1524000Y1381505D03*
G01*
X-1423288Y1423288D03*
G01*
X-1423288Y1624711D03*
G01*
X-1624711Y1624711D03*
G01*
X-1624711Y1423288D03*
D31*
G01*
X1282700Y-12700D03*
G01*
X1371600Y-12700D03*
G01*
X-1270000Y1435100D03*
G01*
X-63500Y952500D03*
G01*
X114300Y838200D03*
G01*
X838200Y-850900D03*
G01*
X508000Y-635000D03*
G01*
X508000Y-558800D03*
G01*
X1143000Y-787400D03*
G01*
X1282700Y723900D03*
G01*
X1079500Y-1397000D03*
G01*
X-815009Y-756665D03*
G01*
X469900Y-1130300D03*
G01*
X571500Y-838200D03*
G01*
X215900Y-1066800D03*
G01*
X-815009Y-238709D03*
G01*
X-815009Y-121513D03*
G01*
X-815009Y-4698D03*
G01*
X-1460500Y1231900D03*
G01*
X-1041400Y965200D03*
G01*
X-1473200Y863600D03*
G01*
X-952500Y1295400D03*
G01*
X-952500Y1371600D03*
G01*
X165100Y1143000D03*
G01*
X80010Y1143000D03*
G01*
X-1333500Y-444500D03*
G01*
X1460500Y-787400D03*
G01*
X1079500Y63500D03*
G01*
X1079500Y-723900D03*
G01*
X114300Y647700D03*
G01*
X114300Y469900D03*
G01*
X406400Y-635000D03*
G01*
X139700Y-508000D03*
G01*
X-1060195Y-1292860D03*
G01*
X-939800Y-1079500D03*
G01*
X-1016000Y-1079500D03*
G01*
X-1041400Y863600D03*
G01*
X-635000Y292100D03*
G01*
X-711200Y292100D03*
G01*
X317500Y-1066800D03*
G01*
X609600Y-635000D03*
G01*
X-80390Y-1168400D03*
G01*
X838200Y-756615D03*
G01*
X838200Y-635000D03*
G01*
X560323Y989837D03*
G01*
X1092454Y653795D03*
G01*
X-571500Y1244600D03*
G01*
X-863600Y1244600D03*
G01*
X-279400Y1244600D03*
G01*
X114300Y-1066800D03*
G01*
X-190500Y-1066800D03*
G01*
X-444500Y1308100D03*
G01*
X660400Y508000D03*
G01*
X635000Y101600D03*
G01*
X381000Y927100D03*
G01*
X381000Y838200D03*
G01*
X1460500Y736600D03*
G01*
X-1130300Y965200D03*
G01*
X-1485900Y-901700D03*
G01*
X749300Y-1397000D03*
G01*
X812800Y-1460500D03*
G01*
X-850900Y-1079500D03*
G01*
X1460500Y-368300D03*
G01*
X1460500Y215900D03*
G01*
X1371600Y-114300D03*
G01*
X1282700Y-114300D03*
G01*
X1193800Y-114300D03*
G01*
X-571500Y812800D03*
G01*
X-698500Y1308100D03*
G01*
X-571500Y660400D03*
G01*
X-177800Y825500D03*
G01*
X-673100Y-698500D03*
G01*
X-673100Y-622300D03*
G01*
X368300Y-254000D03*
G01*
X-622300Y-1244600D03*
G01*
X-1473200Y330200D03*
G01*
X-279400Y-419100D03*
G01*
X-1041400Y-596900D03*
G01*
X-815009Y-375615D03*
G01*
X-815009Y-502615D03*
G01*
X-444474Y-834593D03*
G01*
X-1320800Y-1346200D03*
G01*
X-1231900Y-774700D03*
G01*
X-1041400Y-774700D03*
G01*
X444500Y114300D03*
G01*
X444500Y190500D03*
G01*
X609600Y-254000D03*
G01*
X609600Y-368300D03*
G01*
X-508000Y-254000D03*
G01*
X-279400Y-571500D03*
G01*
X-279400Y-254000D03*
G01*
X-355600Y-736600D03*
G01*
X-203200Y-736600D03*
G01*
X-177800Y723900D03*
G01*
X-177800Y952500D03*
G01*
X-1270000Y1689100D03*
G01*
X0Y1689100D03*
G01*
X635000Y1689100D03*
G01*
X1270000Y1689100D03*
G01*
X1041400Y1092200D03*
G01*
X1270000Y1435100D03*
G01*
X-279400Y292100D03*
G01*
X-177800Y546100D03*
G01*
X1282700Y381000D03*
G01*
X1282700Y-469900D03*
G01*
X-635000Y1689100D03*
G01*
X825500Y-1003300D03*
G01*
X1193800Y914400D03*
G01*
X1079500Y-1079500D03*
G01*
X1028700Y381000D03*
G01*
X1282700Y-571500D03*
G01*
X1079500Y-850900D03*
G01*
X-673100Y-1384300D03*
G01*
X1257300Y-1485900D03*
G01*
X927100Y-1244600D03*
G01*
X927100Y-1371600D03*
G01*
X114300Y-1168400D03*
G01*
X-245008Y-1168400D03*
G01*
X469900Y-1308100D03*
G01*
X1206500Y1041400D03*
G01*
X1079500Y-1168400D03*
G01*
X635000Y12700D03*
G01*
X-83489Y329514D03*
G01*
X-83489Y145999D03*
G01*
X-83489Y-37490D03*
G01*
X283489Y145999D03*
G01*
X317500Y-1168400D03*
G01*
X0Y-1168400D03*
G01*
X609600Y-127000D03*
G01*
X660400Y342900D03*
G01*
X-1200302Y-1292809D03*
G01*
X406400Y-431800D03*
G01*
X99999Y329437D03*
G01*
X165100Y-254000D03*
G01*
X-508000Y292100D03*
G01*
X1460500Y-914400D03*
G01*
X1092200Y304800D03*
G01*
X1460500Y304800D03*
G01*
X880008Y894511D03*
G01*
X-1041400Y-342900D03*
G01*
X1460500Y-12700D03*
G01*
X-1041400Y381000D03*
G01*
X-1041400Y177800D03*
G01*
X-1042923Y0D03*
G01*
X-1143000Y0D03*
G01*
X-1041400Y-241300D03*
G01*
X-1231900Y-342900D03*
G01*
X-1130300Y-444500D03*
G01*
X-1231900Y-444500D03*
G01*
X-1193800Y177800D03*
G01*
X-508000Y139700D03*
G01*
X-279400Y139700D03*
G01*
X-1041400Y694994D03*
M02*
