G04 Layer: TopAssemblyLayer*
G04 Panelize: , Column: 3, Row: 3, Board Size: 35.56mm x 35.56mm, Panelized Board Size: 110.68mm x 110.68mm*
G04 EasyEDA v6.5.39, 2024-01-10 02:32:58*
G04 c879e6b8726d4e35908b0b4345eef0b3,3d9c8b04885e45b7839bd8e85c0fd600,10*
G04 Gerber Generator version 0.2*
G04 Scale: 100 percent, Rotated: No, Reflected: No *
G04 Dimensions in millimeters *
G04 leading zeros omitted , absolute positions ,4 integer and 5 decimal *
%FSLAX45Y45*%
%MOMM*%

%ADD10C,0.1000*%

%LPD*%
D10*
X-38277Y546227D02*
G01*
X-86029Y546227D01*
X-38277Y546227D02*
G01*
X-38277Y525653D01*
X-40563Y518795D01*
X-42849Y516509D01*
X-47421Y514222D01*
X-51993Y514222D01*
X-56565Y516509D01*
X-58851Y518795D01*
X-61137Y525653D01*
X-61137Y546227D01*
X-61137Y530225D02*
G01*
X-86029Y514222D01*
X-38277Y494664D02*
G01*
X-38277Y469772D01*
X-56565Y483488D01*
X-56565Y476630D01*
X-58851Y472059D01*
X-61137Y469772D01*
X-67995Y467487D01*
X-72313Y467487D01*
X-79171Y469772D01*
X-83743Y474345D01*
X-86029Y481203D01*
X-86029Y488061D01*
X-83743Y494664D01*
X-81457Y496951D01*
X-76885Y499237D01*
X-266877Y546227D02*
G01*
X-314629Y546227D01*
X-266877Y546227D02*
G01*
X-266877Y525653D01*
X-269163Y518795D01*
X-271449Y516509D01*
X-276021Y514222D01*
X-280593Y514222D01*
X-285165Y516509D01*
X-287451Y518795D01*
X-289737Y525653D01*
X-289737Y546227D01*
X-289737Y530225D02*
G01*
X-314629Y514222D01*
X-266877Y467487D02*
G01*
X-314629Y490093D01*
X-266877Y499237D02*
G01*
X-266877Y467487D01*
X-1319784Y-275336D02*
G01*
X-1315212Y-273050D01*
X-1310639Y-268478D01*
X-1308354Y-263905D01*
X-1308354Y-255015D01*
X-1310639Y-250444D01*
X-1315212Y-245871D01*
X-1319784Y-243586D01*
X-1326642Y-241300D01*
X-1338071Y-241300D01*
X-1344929Y-243586D01*
X-1349247Y-245871D01*
X-1353820Y-250444D01*
X-1356105Y-255015D01*
X-1356105Y-263905D01*
X-1353820Y-268478D01*
X-1349247Y-273050D01*
X-1344929Y-275336D01*
X-1317497Y-290321D02*
G01*
X-1315212Y-294894D01*
X-1308354Y-301752D01*
X-1356105Y-301752D01*
X-1317497Y-316737D02*
G01*
X-1315212Y-321310D01*
X-1308354Y-328168D01*
X-1356105Y-328168D01*
X-1116584Y-288036D02*
G01*
X-1112012Y-285750D01*
X-1107439Y-281178D01*
X-1105154Y-276605D01*
X-1105154Y-267715D01*
X-1107439Y-263144D01*
X-1112012Y-258571D01*
X-1116584Y-256286D01*
X-1123442Y-254000D01*
X-1134871Y-254000D01*
X-1141729Y-256286D01*
X-1146047Y-258571D01*
X-1150620Y-263144D01*
X-1152905Y-267715D01*
X-1152905Y-276605D01*
X-1150620Y-281178D01*
X-1146047Y-285750D01*
X-1141729Y-288036D01*
X-1114297Y-303021D02*
G01*
X-1112012Y-307594D01*
X-1105154Y-314452D01*
X-1152905Y-314452D01*
X-1116584Y-331723D02*
G01*
X-1114297Y-331723D01*
X-1109726Y-334010D01*
X-1107439Y-336295D01*
X-1105154Y-340868D01*
X-1105154Y-350012D01*
X-1107439Y-354329D01*
X-1109726Y-356615D01*
X-1114297Y-358902D01*
X-1118870Y-358902D01*
X-1123442Y-356615D01*
X-1130300Y-352297D01*
X-1152905Y-329437D01*
X-1152905Y-361187D01*
X293115Y-491236D02*
G01*
X297687Y-488950D01*
X302260Y-484378D01*
X304545Y-479805D01*
X304545Y-470915D01*
X302260Y-466344D01*
X297687Y-461771D01*
X293115Y-459486D01*
X286257Y-457200D01*
X274828Y-457200D01*
X267970Y-459486D01*
X263652Y-461771D01*
X259079Y-466344D01*
X256794Y-470915D01*
X256794Y-479805D01*
X259079Y-484378D01*
X263652Y-488950D01*
X267970Y-491236D01*
X295402Y-506221D02*
G01*
X297687Y-510794D01*
X304545Y-517652D01*
X256794Y-517652D01*
X304545Y-555497D02*
G01*
X272542Y-532637D01*
X272542Y-566673D01*
X304545Y-555497D02*
G01*
X256794Y-555497D01*
X-609600Y698245D02*
G01*
X-609600Y650494D01*
X-609600Y698245D02*
G01*
X-593597Y698245D01*
X-586994Y695960D01*
X-582421Y691387D01*
X-580136Y686815D01*
X-577850Y679957D01*
X-577850Y668528D01*
X-580136Y661670D01*
X-582421Y657352D01*
X-586994Y652779D01*
X-593597Y650494D01*
X-609600Y650494D01*
X-558292Y698245D02*
G01*
X-533145Y698245D01*
X-546862Y679957D01*
X-540004Y679957D01*
X-535431Y677671D01*
X-533145Y675386D01*
X-530860Y668528D01*
X-530860Y663955D01*
X-533145Y657352D01*
X-537718Y652779D01*
X-544576Y650494D01*
X-551434Y650494D01*
X-558292Y652779D01*
X-560578Y655065D01*
X-562863Y659637D01*
X-863600Y-1168654D02*
G01*
X-863600Y-1216405D01*
X-863600Y-1168654D02*
G01*
X-847597Y-1168654D01*
X-840994Y-1170939D01*
X-836421Y-1175512D01*
X-834136Y-1180084D01*
X-831850Y-1186942D01*
X-831850Y-1198371D01*
X-834136Y-1205229D01*
X-836421Y-1209547D01*
X-840994Y-1214120D01*
X-847597Y-1216405D01*
X-863600Y-1216405D01*
X-789431Y-1168654D02*
G01*
X-812292Y-1168654D01*
X-814578Y-1189228D01*
X-812292Y-1186942D01*
X-805434Y-1184655D01*
X-798576Y-1184655D01*
X-791718Y-1186942D01*
X-787145Y-1191513D01*
X-784860Y-1198371D01*
X-784860Y-1202944D01*
X-787145Y-1209547D01*
X-791718Y-1214120D01*
X-798576Y-1216405D01*
X-805434Y-1216405D01*
X-812292Y-1214120D01*
X-814578Y-1211834D01*
X-816863Y-1207262D01*
X-1282445Y750315D02*
G01*
X-1280160Y745744D01*
X-1275587Y741171D01*
X-1271015Y738886D01*
X-1264157Y736600D01*
X-1252728Y736600D01*
X-1245870Y738886D01*
X-1241552Y741171D01*
X-1236979Y745744D01*
X-1234694Y750315D01*
X-1234694Y759205D01*
X-1236979Y763778D01*
X-1241552Y768350D01*
X-1245870Y770636D01*
X-1252728Y772921D01*
X-1264157Y772921D01*
X-1271015Y770636D01*
X-1275587Y768350D01*
X-1280160Y763778D01*
X-1282445Y759205D01*
X-1282445Y750315D01*
X-1243837Y757173D02*
G01*
X-1230121Y770636D01*
X-1282445Y792479D02*
G01*
X-1282445Y817626D01*
X-1264157Y803910D01*
X-1264157Y810768D01*
X-1261871Y815339D01*
X-1259586Y817626D01*
X-1252728Y819657D01*
X-1248155Y819657D01*
X-1241552Y817626D01*
X-1236979Y813054D01*
X-1234694Y806195D01*
X-1234694Y799337D01*
X-1236979Y792479D01*
X-1239265Y790194D01*
X-1243837Y787907D01*
X-1308320Y1130193D02*
G01*
X-1356072Y1130193D01*
X-1308320Y1130193D02*
G01*
X-1308320Y1109619D01*
X-1310606Y1103015D01*
X-1312892Y1100729D01*
X-1317464Y1098443D01*
X-1322036Y1098443D01*
X-1326608Y1100729D01*
X-1328894Y1103015D01*
X-1331180Y1109619D01*
X-1331180Y1130193D01*
X-1331180Y1114191D02*
G01*
X-1356072Y1098443D01*
X-1317464Y1083457D02*
G01*
X-1315178Y1078885D01*
X-1308320Y1072027D01*
X-1356072Y1072027D01*
X-1308320Y1043325D02*
G01*
X-1310606Y1050183D01*
X-1317464Y1054755D01*
X-1328894Y1057041D01*
X-1335752Y1057041D01*
X-1346928Y1054755D01*
X-1353786Y1050183D01*
X-1356072Y1043325D01*
X-1356072Y1038753D01*
X-1353786Y1031895D01*
X-1346928Y1027577D01*
X-1335752Y1025291D01*
X-1328894Y1025291D01*
X-1317464Y1027577D01*
X-1310606Y1031895D01*
X-1308320Y1038753D01*
X-1308320Y1043325D01*
X-266954Y825500D02*
G01*
X-314705Y825500D01*
X-266954Y825500D02*
G01*
X-266954Y804926D01*
X-269239Y798321D01*
X-271526Y796036D01*
X-276097Y793750D01*
X-280670Y793750D01*
X-285242Y796036D01*
X-287528Y798321D01*
X-289813Y804926D01*
X-289813Y825500D01*
X-289813Y809497D02*
G01*
X-314705Y793750D01*
X-276097Y778763D02*
G01*
X-273812Y774192D01*
X-266954Y767334D01*
X-314705Y767334D01*
X-276097Y752347D02*
G01*
X-273812Y747776D01*
X-266954Y740918D01*
X-314705Y740918D01*
X-825677Y825627D02*
G01*
X-873429Y825627D01*
X-825677Y825627D02*
G01*
X-825677Y805053D01*
X-827963Y798195D01*
X-830249Y795909D01*
X-834821Y793622D01*
X-839393Y793622D01*
X-843965Y795909D01*
X-846251Y798195D01*
X-848537Y805053D01*
X-848537Y825627D01*
X-848537Y809625D02*
G01*
X-873429Y793622D01*
X-834821Y778637D02*
G01*
X-832535Y774064D01*
X-825677Y767461D01*
X-873429Y767461D01*
X-837107Y750188D02*
G01*
X-834821Y750188D01*
X-830249Y747903D01*
X-827963Y745617D01*
X-825677Y741045D01*
X-825677Y731901D01*
X-827963Y727329D01*
X-830249Y725043D01*
X-834821Y722756D01*
X-839393Y722756D01*
X-843965Y725043D01*
X-850823Y729614D01*
X-873429Y752220D01*
X-873429Y720470D01*
X-889000Y-1321054D02*
G01*
X-889000Y-1368805D01*
X-889000Y-1321054D02*
G01*
X-868426Y-1321054D01*
X-861821Y-1323339D01*
X-859536Y-1325626D01*
X-857250Y-1330197D01*
X-857250Y-1334770D01*
X-859536Y-1339342D01*
X-861821Y-1341628D01*
X-868426Y-1343913D01*
X-889000Y-1343913D01*
X-872997Y-1343913D02*
G01*
X-857250Y-1368805D01*
X-839978Y-1332484D02*
G01*
X-839978Y-1330197D01*
X-837692Y-1325626D01*
X-835405Y-1323339D01*
X-830834Y-1321054D01*
X-821689Y-1321054D01*
X-817118Y-1323339D01*
X-814831Y-1325626D01*
X-812545Y-1330197D01*
X-812545Y-1334770D01*
X-814831Y-1339342D01*
X-819404Y-1346200D01*
X-842263Y-1368805D01*
X-810260Y-1368805D01*
X-795273Y-1330197D02*
G01*
X-790702Y-1327912D01*
X-784097Y-1321054D01*
X-784097Y-1368805D01*
X1120902Y-1333754D02*
G01*
X1120902Y-1381505D01*
X1104900Y-1333754D02*
G01*
X1136650Y-1333754D01*
X1151636Y-1333754D02*
G01*
X1151636Y-1381505D01*
X1151636Y-1333754D02*
G01*
X1172210Y-1333754D01*
X1179068Y-1336039D01*
X1181354Y-1338326D01*
X1183639Y-1342897D01*
X1183639Y-1349755D01*
X1181354Y-1354328D01*
X1179068Y-1356613D01*
X1172210Y-1358900D01*
X1151636Y-1358900D01*
X1198626Y-1342897D02*
G01*
X1203197Y-1340612D01*
X1209802Y-1333754D01*
X1209802Y-1381505D01*
X1298702Y-1333754D02*
G01*
X1298702Y-1381505D01*
X1282700Y-1333754D02*
G01*
X1314450Y-1333754D01*
X1329436Y-1333754D02*
G01*
X1329436Y-1381505D01*
X1329436Y-1333754D02*
G01*
X1350010Y-1333754D01*
X1356868Y-1336039D01*
X1359154Y-1338326D01*
X1361439Y-1342897D01*
X1361439Y-1349755D01*
X1359154Y-1354328D01*
X1356868Y-1356613D01*
X1350010Y-1358900D01*
X1329436Y-1358900D01*
X1378712Y-1345184D02*
G01*
X1378712Y-1342897D01*
X1380997Y-1338326D01*
X1383029Y-1336039D01*
X1387602Y-1333754D01*
X1396745Y-1333754D01*
X1401318Y-1336039D01*
X1403604Y-1338326D01*
X1405889Y-1342897D01*
X1405889Y-1347470D01*
X1403604Y-1352042D01*
X1399031Y-1358900D01*
X1376426Y-1381505D01*
X1408176Y-1381505D01*
X701802Y-1168654D02*
G01*
X701802Y-1216405D01*
X685800Y-1168654D02*
G01*
X717550Y-1168654D01*
X732536Y-1168654D02*
G01*
X732536Y-1216405D01*
X732536Y-1168654D02*
G01*
X753110Y-1168654D01*
X759968Y-1170939D01*
X762254Y-1173226D01*
X764539Y-1177797D01*
X764539Y-1184655D01*
X762254Y-1189228D01*
X759968Y-1191513D01*
X753110Y-1193800D01*
X732536Y-1193800D01*
X784097Y-1168654D02*
G01*
X808989Y-1168654D01*
X795273Y-1186942D01*
X802131Y-1186942D01*
X806704Y-1189228D01*
X808989Y-1191513D01*
X811276Y-1198371D01*
X811276Y-1202944D01*
X808989Y-1209547D01*
X804418Y-1214120D01*
X797560Y-1216405D01*
X790702Y-1216405D01*
X784097Y-1214120D01*
X781812Y-1211834D01*
X779526Y-1207262D01*
X-822197Y-266954D02*
G01*
X-822197Y-314705D01*
X-838200Y-266954D02*
G01*
X-806450Y-266954D01*
X-791463Y-266954D02*
G01*
X-791463Y-314705D01*
X-791463Y-266954D02*
G01*
X-770889Y-266954D01*
X-764031Y-269239D01*
X-761745Y-271526D01*
X-759460Y-276097D01*
X-759460Y-282955D01*
X-761745Y-287528D01*
X-764031Y-289813D01*
X-770889Y-292100D01*
X-791463Y-292100D01*
X-721868Y-266954D02*
G01*
X-744473Y-298957D01*
X-710437Y-298957D01*
X-721868Y-266954D02*
G01*
X-721868Y-314705D01*
X79502Y-698754D02*
G01*
X79502Y-746505D01*
X63500Y-698754D02*
G01*
X95250Y-698754D01*
X110236Y-698754D02*
G01*
X110236Y-746505D01*
X110236Y-698754D02*
G01*
X130810Y-698754D01*
X137668Y-701039D01*
X139954Y-703326D01*
X142239Y-707897D01*
X142239Y-714755D01*
X139954Y-719328D01*
X137668Y-721613D01*
X130810Y-723900D01*
X110236Y-723900D01*
X184404Y-698754D02*
G01*
X161797Y-698754D01*
X159512Y-719328D01*
X161797Y-717042D01*
X168402Y-714755D01*
X175260Y-714755D01*
X182118Y-717042D01*
X186689Y-721613D01*
X188976Y-728471D01*
X188976Y-733044D01*
X186689Y-739647D01*
X182118Y-744220D01*
X175260Y-746505D01*
X168402Y-746505D01*
X161797Y-744220D01*
X159512Y-741934D01*
X157226Y-737362D01*
X-1181100Y253568D02*
G01*
X-1181100Y219532D01*
X-1178813Y212674D01*
X-1174242Y208102D01*
X-1167384Y205816D01*
X-1162812Y205816D01*
X-1156207Y208102D01*
X-1151636Y212674D01*
X-1149350Y219532D01*
X-1149350Y253568D01*
X-1106931Y246710D02*
G01*
X-1109218Y251282D01*
X-1116076Y253568D01*
X-1120647Y253568D01*
X-1127505Y251282D01*
X-1132078Y244678D01*
X-1134363Y233248D01*
X-1134363Y221818D01*
X-1132078Y212674D01*
X-1127505Y208102D01*
X-1120647Y205816D01*
X-1118362Y205816D01*
X-1111504Y208102D01*
X-1106931Y212674D01*
X-1104645Y219532D01*
X-1104645Y221818D01*
X-1106931Y228676D01*
X-1111504Y233248D01*
X-1118362Y235534D01*
X-1120647Y235534D01*
X-1127505Y233248D01*
X-1132078Y228676D01*
X-1134363Y221818D01*
X-88912Y952030D02*
G01*
X-88912Y904532D01*
X-88912Y952030D02*
G01*
X-59448Y952030D01*
X-88912Y929424D02*
G01*
X-70624Y929424D01*
X-44462Y943140D02*
G01*
X-39890Y945426D01*
X-33032Y952030D01*
X-33032Y904532D01*
X800100Y-317754D02*
G01*
X800100Y-352044D01*
X802386Y-358647D01*
X806957Y-363220D01*
X813815Y-365505D01*
X818387Y-365505D01*
X824992Y-363220D01*
X829563Y-358647D01*
X831850Y-352044D01*
X831850Y-317754D01*
X874268Y-317754D02*
G01*
X851407Y-317754D01*
X849121Y-338328D01*
X851407Y-336042D01*
X858265Y-333755D01*
X865123Y-333755D01*
X871981Y-336042D01*
X876554Y-340613D01*
X878839Y-347471D01*
X878839Y-352044D01*
X876554Y-358647D01*
X871981Y-363220D01*
X865123Y-365505D01*
X858265Y-365505D01*
X851407Y-363220D01*
X849121Y-360934D01*
X846836Y-356362D01*
X101533Y190500D02*
G01*
X53781Y190500D01*
X101533Y190500D02*
G01*
X101533Y169926D01*
X99247Y163321D01*
X96961Y161036D01*
X92389Y158750D01*
X87817Y158750D01*
X83245Y161036D01*
X80959Y163321D01*
X78673Y169926D01*
X78673Y190500D01*
X78673Y174497D02*
G01*
X53781Y158750D01*
X101533Y120904D02*
G01*
X69529Y143763D01*
X69529Y109473D01*
X101533Y120904D02*
G01*
X53781Y120904D01*
X1253236Y13715D02*
G01*
X1250950Y18287D01*
X1246378Y22860D01*
X1241805Y25145D01*
X1232915Y25145D01*
X1228344Y22860D01*
X1223771Y18287D01*
X1221486Y13715D01*
X1219200Y6857D01*
X1219200Y-4571D01*
X1221486Y-11429D01*
X1223771Y-15747D01*
X1228344Y-20320D01*
X1232915Y-22605D01*
X1241805Y-22605D01*
X1246378Y-20320D01*
X1250950Y-15747D01*
X1253236Y-11429D01*
X1268221Y16002D02*
G01*
X1272794Y18287D01*
X1279652Y25145D01*
X1279652Y-22605D01*
X293115Y-186436D02*
G01*
X297687Y-184150D01*
X302260Y-179578D01*
X304545Y-175005D01*
X304545Y-166115D01*
X302260Y-161544D01*
X297687Y-156971D01*
X293115Y-154686D01*
X286257Y-152400D01*
X274828Y-152400D01*
X267970Y-154686D01*
X263652Y-156971D01*
X259079Y-161544D01*
X256794Y-166115D01*
X256794Y-175005D01*
X259079Y-179578D01*
X263652Y-184150D01*
X267970Y-186436D01*
X297687Y-228854D02*
G01*
X302260Y-226568D01*
X304545Y-219710D01*
X304545Y-215137D01*
X302260Y-208279D01*
X295402Y-203707D01*
X283971Y-201421D01*
X272542Y-201421D01*
X263652Y-203707D01*
X259079Y-208279D01*
X256794Y-215137D01*
X256794Y-217423D01*
X259079Y-224281D01*
X263652Y-228854D01*
X270255Y-231139D01*
X272542Y-231139D01*
X279400Y-228854D01*
X283971Y-224281D01*
X286257Y-217423D01*
X286257Y-215137D01*
X283971Y-208279D01*
X279400Y-203707D01*
X272542Y-201421D01*
X648715Y156463D02*
G01*
X653287Y158750D01*
X657860Y163321D01*
X660145Y167894D01*
X660145Y176784D01*
X657860Y181355D01*
X653287Y185928D01*
X648715Y188213D01*
X641857Y190500D01*
X630428Y190500D01*
X623570Y188213D01*
X619252Y185928D01*
X614679Y181355D01*
X612394Y176784D01*
X612394Y167894D01*
X614679Y163321D01*
X619252Y158750D01*
X623570Y156463D01*
X660145Y109473D02*
G01*
X612394Y132334D01*
X660145Y141478D02*
G01*
X660145Y109473D01*
X1329436Y851915D02*
G01*
X1327150Y856487D01*
X1322578Y861060D01*
X1318005Y863345D01*
X1309115Y863345D01*
X1304544Y861060D01*
X1299971Y856487D01*
X1297686Y851915D01*
X1295400Y845057D01*
X1295400Y833628D01*
X1297686Y826770D01*
X1299971Y822452D01*
X1304544Y817879D01*
X1309115Y815594D01*
X1318005Y815594D01*
X1322578Y817879D01*
X1327150Y822452D01*
X1329436Y826770D01*
X1355852Y863345D02*
G01*
X1348994Y861060D01*
X1346707Y856487D01*
X1346707Y851915D01*
X1348994Y847344D01*
X1353565Y845057D01*
X1362710Y842771D01*
X1369568Y840486D01*
X1374139Y835913D01*
X1376426Y831342D01*
X1376426Y824737D01*
X1374139Y820165D01*
X1371854Y817879D01*
X1364995Y815594D01*
X1355852Y815594D01*
X1348994Y817879D01*
X1346707Y820165D01*
X1344421Y824737D01*
X1344421Y831342D01*
X1346707Y835913D01*
X1351279Y840486D01*
X1358137Y842771D01*
X1367281Y845057D01*
X1371854Y847344D01*
X1374139Y851915D01*
X1374139Y856487D01*
X1371854Y861060D01*
X1364995Y863345D01*
X1355852Y863345D01*
X750315Y-770636D02*
G01*
X754887Y-768350D01*
X759460Y-763778D01*
X761745Y-759205D01*
X761745Y-750315D01*
X759460Y-745744D01*
X754887Y-741171D01*
X750315Y-738886D01*
X743457Y-736600D01*
X732028Y-736600D01*
X725170Y-738886D01*
X720852Y-741171D01*
X716279Y-745744D01*
X713994Y-750315D01*
X713994Y-759205D01*
X716279Y-763778D01*
X720852Y-768350D01*
X725170Y-770636D01*
X752602Y-785621D02*
G01*
X754887Y-790194D01*
X761745Y-797052D01*
X713994Y-797052D01*
X761745Y-825754D02*
G01*
X759460Y-818895D01*
X752602Y-814323D01*
X741171Y-812037D01*
X734313Y-812037D01*
X723137Y-814323D01*
X716279Y-818895D01*
X713994Y-825754D01*
X713994Y-830326D01*
X716279Y-836929D01*
X723137Y-841502D01*
X734313Y-843787D01*
X741171Y-843787D01*
X752602Y-841502D01*
X759460Y-836929D01*
X761745Y-830326D01*
X761745Y-825754D01*
X343915Y583945D02*
G01*
X339344Y581660D01*
X334771Y577087D01*
X332486Y572515D01*
X330200Y565657D01*
X330200Y554228D01*
X332486Y547370D01*
X334771Y543052D01*
X339344Y538479D01*
X343915Y536194D01*
X352805Y536194D01*
X357378Y538479D01*
X361950Y543052D01*
X364236Y547370D01*
X366521Y554228D01*
X366521Y565657D01*
X364236Y572515D01*
X361950Y577087D01*
X357378Y581660D01*
X352805Y583945D01*
X343915Y583945D01*
X350773Y545337D02*
G01*
X364236Y531621D01*
X383794Y572515D02*
G01*
X383794Y574802D01*
X386079Y579373D01*
X388365Y581660D01*
X392937Y583945D01*
X402081Y583945D01*
X406654Y581660D01*
X408939Y579373D01*
X411226Y574802D01*
X411226Y570229D01*
X408939Y565657D01*
X404368Y558800D01*
X381507Y536194D01*
X413257Y536194D01*
X1358645Y1143000D02*
G01*
X1310894Y1143000D01*
X1358645Y1143000D02*
G01*
X1358645Y1122426D01*
X1356360Y1115821D01*
X1354073Y1113536D01*
X1349502Y1111250D01*
X1344929Y1111250D01*
X1340357Y1113536D01*
X1338071Y1115821D01*
X1335786Y1122426D01*
X1335786Y1143000D01*
X1335786Y1126997D02*
G01*
X1310894Y1111250D01*
X1358645Y1068831D02*
G01*
X1358645Y1091692D01*
X1338071Y1093978D01*
X1340357Y1091692D01*
X1342644Y1084834D01*
X1342644Y1077976D01*
X1340357Y1071118D01*
X1335786Y1066545D01*
X1328928Y1064260D01*
X1324355Y1064260D01*
X1317752Y1066545D01*
X1313179Y1071118D01*
X1310894Y1077976D01*
X1310894Y1084834D01*
X1313179Y1091692D01*
X1315465Y1093978D01*
X1320037Y1096263D01*
X685545Y596900D02*
G01*
X637794Y596900D01*
X685545Y596900D02*
G01*
X685545Y576326D01*
X683260Y569721D01*
X680973Y567436D01*
X676402Y565150D01*
X671829Y565150D01*
X667257Y567436D01*
X664971Y569721D01*
X662686Y576326D01*
X662686Y596900D01*
X662686Y580897D02*
G01*
X637794Y565150D01*
X678687Y522731D02*
G01*
X683260Y525018D01*
X685545Y531876D01*
X685545Y536447D01*
X683260Y543305D01*
X676402Y547878D01*
X664971Y550163D01*
X653542Y550163D01*
X644652Y547878D01*
X640079Y543305D01*
X637794Y536447D01*
X637794Y534162D01*
X640079Y527304D01*
X644652Y522731D01*
X651255Y520445D01*
X653542Y520445D01*
X660400Y522731D01*
X664971Y527304D01*
X667257Y534162D01*
X667257Y536447D01*
X664971Y543305D01*
X660400Y547878D01*
X653542Y550163D01*
X482345Y-152400D02*
G01*
X434594Y-152400D01*
X482345Y-152400D02*
G01*
X482345Y-172973D01*
X480060Y-179578D01*
X477773Y-181863D01*
X473202Y-184150D01*
X468629Y-184150D01*
X464057Y-181863D01*
X461771Y-179578D01*
X459486Y-172973D01*
X459486Y-152400D01*
X459486Y-168402D02*
G01*
X434594Y-184150D01*
X482345Y-210565D02*
G01*
X480060Y-203707D01*
X475487Y-201421D01*
X470915Y-201421D01*
X466344Y-203707D01*
X464057Y-208279D01*
X461771Y-217423D01*
X459486Y-224281D01*
X454913Y-228854D01*
X450342Y-231139D01*
X443737Y-231139D01*
X439165Y-228854D01*
X436879Y-226568D01*
X434594Y-219710D01*
X434594Y-210565D01*
X436879Y-203707D01*
X439165Y-201421D01*
X443737Y-199136D01*
X450342Y-199136D01*
X454913Y-201421D01*
X459486Y-205994D01*
X461771Y-212852D01*
X464057Y-221995D01*
X466344Y-226568D01*
X470915Y-228854D01*
X475487Y-228854D01*
X480060Y-226568D01*
X482345Y-219710D01*
X482345Y-210565D01*
X939545Y190500D02*
G01*
X891794Y190500D01*
X939545Y190500D02*
G01*
X939545Y169926D01*
X937260Y163321D01*
X934973Y161036D01*
X930402Y158750D01*
X925829Y158750D01*
X921257Y161036D01*
X918971Y163321D01*
X916686Y169926D01*
X916686Y190500D01*
X916686Y174497D02*
G01*
X891794Y158750D01*
X923544Y114045D02*
G01*
X916686Y116331D01*
X912113Y120904D01*
X909828Y127762D01*
X909828Y130047D01*
X912113Y136905D01*
X916686Y141478D01*
X923544Y143763D01*
X925829Y143763D01*
X932687Y141478D01*
X937260Y136905D01*
X939545Y130047D01*
X939545Y127762D01*
X937260Y120904D01*
X932687Y116331D01*
X923544Y114045D01*
X912113Y114045D01*
X900937Y116331D01*
X894079Y120904D01*
X891794Y127762D01*
X891794Y132334D01*
X894079Y139192D01*
X898652Y141478D01*
X1168425Y-444728D02*
G01*
X1168425Y-492480D01*
X1168425Y-444728D02*
G01*
X1184427Y-444728D01*
X1191031Y-447014D01*
X1195603Y-451586D01*
X1197889Y-456158D01*
X1200175Y-463016D01*
X1200175Y-474446D01*
X1197889Y-481304D01*
X1195603Y-485876D01*
X1191031Y-490194D01*
X1184427Y-492480D01*
X1168425Y-492480D01*
X1215161Y-453872D02*
G01*
X1219733Y-451586D01*
X1226591Y-444728D01*
X1226591Y-492480D01*
X1232915Y-851154D02*
G01*
X1228344Y-853439D01*
X1223771Y-858012D01*
X1221486Y-862584D01*
X1219200Y-869442D01*
X1219200Y-880871D01*
X1221486Y-887729D01*
X1223771Y-892047D01*
X1228344Y-896620D01*
X1232915Y-898905D01*
X1241805Y-898905D01*
X1246378Y-896620D01*
X1250950Y-892047D01*
X1253236Y-887729D01*
X1255521Y-880871D01*
X1255521Y-869442D01*
X1253236Y-862584D01*
X1250950Y-858012D01*
X1246378Y-853439D01*
X1241805Y-851154D01*
X1232915Y-851154D01*
X1239773Y-889762D02*
G01*
X1253236Y-903478D01*
X1270507Y-860297D02*
G01*
X1275079Y-858012D01*
X1281937Y-851154D01*
X1281937Y-898905D01*
X962484Y-1034127D02*
G01*
X914732Y-1034127D01*
X962484Y-1034127D02*
G01*
X962484Y-1054701D01*
X960198Y-1061559D01*
X957912Y-1063845D01*
X953594Y-1066131D01*
X949022Y-1066131D01*
X944450Y-1063845D01*
X942164Y-1061559D01*
X939878Y-1054701D01*
X939878Y-1034127D01*
X939878Y-1050129D02*
G01*
X914732Y-1066131D01*
X953594Y-1081117D02*
G01*
X955626Y-1085689D01*
X962484Y-1092293D01*
X914732Y-1092293D01*
X-317500Y-508254D02*
G01*
X-317500Y-542544D01*
X-315213Y-549147D01*
X-310642Y-553720D01*
X-303784Y-556005D01*
X-299212Y-556005D01*
X-292607Y-553720D01*
X-288036Y-549147D01*
X-285750Y-542544D01*
X-285750Y-508254D01*
X-259334Y-508254D02*
G01*
X-266192Y-510539D01*
X-268478Y-515112D01*
X-268478Y-519684D01*
X-266192Y-524255D01*
X-261620Y-526542D01*
X-252476Y-528828D01*
X-245618Y-531113D01*
X-241045Y-535686D01*
X-238760Y-540257D01*
X-238760Y-546862D01*
X-241045Y-551434D01*
X-243331Y-553720D01*
X-250189Y-556005D01*
X-259334Y-556005D01*
X-266192Y-553720D01*
X-268478Y-551434D01*
X-270763Y-546862D01*
X-270763Y-540257D01*
X-268478Y-535686D01*
X-263905Y-531113D01*
X-257047Y-528828D01*
X-247904Y-526542D01*
X-243331Y-524255D01*
X-241045Y-519684D01*
X-241045Y-515112D01*
X-243331Y-510539D01*
X-250189Y-508254D01*
X-259334Y-508254D01*
X914400Y583945D02*
G01*
X914400Y549655D01*
X916686Y543052D01*
X921257Y538479D01*
X928115Y536194D01*
X932687Y536194D01*
X939292Y538479D01*
X943863Y543052D01*
X946150Y549655D01*
X946150Y583945D01*
X983995Y583945D02*
G01*
X961136Y551942D01*
X995426Y551942D01*
X983995Y583945D02*
G01*
X983995Y536194D01*
X330250Y164668D02*
G01*
X330250Y130632D01*
X332536Y123774D01*
X337108Y119202D01*
X343712Y116916D01*
X348284Y116916D01*
X355142Y119202D01*
X359714Y123774D01*
X362000Y130632D01*
X362000Y164668D01*
X381558Y164668D02*
G01*
X406450Y164668D01*
X392988Y146634D01*
X399846Y146634D01*
X404164Y144348D01*
X406450Y142062D01*
X408736Y135204D01*
X408736Y130632D01*
X406450Y123774D01*
X402132Y119202D01*
X395274Y116916D01*
X388416Y116916D01*
X381558Y119202D01*
X379272Y121488D01*
X376986Y126060D01*
X953081Y-771763D02*
G01*
X957653Y-769477D01*
X962225Y-764905D01*
X964511Y-760333D01*
X964511Y-751189D01*
X962225Y-746617D01*
X957653Y-742299D01*
X953081Y-740013D01*
X946223Y-737727D01*
X934793Y-737727D01*
X927935Y-740013D01*
X923617Y-742299D01*
X919045Y-746617D01*
X916759Y-751189D01*
X916759Y-760333D01*
X919045Y-764905D01*
X923617Y-769477D01*
X927935Y-771763D01*
X948509Y-816213D02*
G01*
X941651Y-813927D01*
X937079Y-809355D01*
X934793Y-802751D01*
X934793Y-800465D01*
X937079Y-793607D01*
X941651Y-789035D01*
X948509Y-786749D01*
X950795Y-786749D01*
X957653Y-789035D01*
X962225Y-793607D01*
X964511Y-800465D01*
X964511Y-802751D01*
X962225Y-809355D01*
X957653Y-813927D01*
X948509Y-816213D01*
X937079Y-816213D01*
X925903Y-813927D01*
X919045Y-809355D01*
X916759Y-802751D01*
X916759Y-798179D01*
X919045Y-791321D01*
X923617Y-789035D01*
X-918337Y1702815D02*
G01*
X-920622Y1707387D01*
X-925195Y1711960D01*
X-929767Y1714245D01*
X-938911Y1714245D01*
X-943482Y1711960D01*
X-948054Y1707387D01*
X-950340Y1702815D01*
X-952372Y1695957D01*
X-952372Y1684528D01*
X-950340Y1677670D01*
X-948054Y1673352D01*
X-943482Y1668779D01*
X-938911Y1666494D01*
X-929767Y1666494D01*
X-925195Y1668779D01*
X-920622Y1673352D01*
X-918337Y1677670D01*
X-903351Y1714245D02*
G01*
X-903351Y1666494D01*
X-903351Y1714245D02*
G01*
X-871601Y1666494D01*
X-871601Y1714245D02*
G01*
X-871601Y1666494D01*
X-854329Y1702815D02*
G01*
X-854329Y1705102D01*
X-852043Y1709673D01*
X-849756Y1711960D01*
X-845185Y1714245D01*
X-836040Y1714245D01*
X-831469Y1711960D01*
X-829437Y1709673D01*
X-827151Y1705102D01*
X-827151Y1700529D01*
X-829437Y1695957D01*
X-833754Y1689100D01*
X-856614Y1666494D01*
X-824864Y1666494D01*
X262813Y1702790D02*
G01*
X260527Y1707362D01*
X255955Y1711934D01*
X251383Y1714220D01*
X242239Y1714220D01*
X237667Y1711934D01*
X233095Y1707362D01*
X230809Y1702790D01*
X228523Y1695932D01*
X228523Y1684502D01*
X230809Y1677898D01*
X233095Y1673326D01*
X237667Y1668754D01*
X242239Y1666468D01*
X251383Y1666468D01*
X255955Y1668754D01*
X260527Y1673326D01*
X262813Y1677898D01*
X277799Y1714220D02*
G01*
X277799Y1666468D01*
X277799Y1714220D02*
G01*
X309549Y1666468D01*
X309549Y1714220D02*
G01*
X309549Y1666468D01*
X324535Y1705076D02*
G01*
X329107Y1707362D01*
X335965Y1714220D01*
X335965Y1666468D01*
X-1206500Y-1206754D02*
G01*
X-1206500Y-1254505D01*
X-1206500Y-1206754D02*
G01*
X-1185926Y-1206754D01*
X-1179321Y-1209039D01*
X-1177036Y-1211326D01*
X-1174750Y-1215897D01*
X-1174750Y-1220470D01*
X-1177036Y-1225042D01*
X-1179321Y-1227328D01*
X-1185926Y-1229613D01*
X-1206500Y-1229613D02*
G01*
X-1185926Y-1229613D01*
X-1179321Y-1231900D01*
X-1177036Y-1234186D01*
X-1174750Y-1238757D01*
X-1174750Y-1245362D01*
X-1177036Y-1249934D01*
X-1179321Y-1252220D01*
X-1185926Y-1254505D01*
X-1206500Y-1254505D01*
X-1141476Y-1206754D02*
G01*
X-1159763Y-1254505D01*
X-1141476Y-1206754D02*
G01*
X-1123442Y-1254505D01*
X-1152905Y-1238757D02*
G01*
X-1130045Y-1238757D01*
X-1092454Y-1206754D02*
G01*
X-1092454Y-1254505D01*
X-1108202Y-1206754D02*
G01*
X-1076452Y-1206754D01*
X-1061465Y-1215897D02*
G01*
X-1056894Y-1213612D01*
X-1050036Y-1206754D01*
X-1050036Y-1254505D01*
X-537463Y-938784D02*
G01*
X-539750Y-934212D01*
X-544321Y-929639D01*
X-548894Y-927354D01*
X-557784Y-927354D01*
X-562355Y-929639D01*
X-566928Y-934212D01*
X-569213Y-938784D01*
X-571500Y-945642D01*
X-571500Y-957071D01*
X-569213Y-963929D01*
X-566928Y-968247D01*
X-562355Y-972820D01*
X-557784Y-975105D01*
X-548894Y-975105D01*
X-544321Y-972820D01*
X-539750Y-968247D01*
X-537463Y-963929D01*
X-504189Y-927354D02*
G01*
X-522478Y-975105D01*
X-504189Y-927354D02*
G01*
X-486155Y-975105D01*
X-515620Y-959357D02*
G01*
X-492760Y-959357D01*
X-471170Y-927354D02*
G01*
X-471170Y-975105D01*
X-471170Y-927354D02*
G01*
X-450595Y-927354D01*
X-443737Y-929639D01*
X-441452Y-931926D01*
X-439165Y-936497D01*
X-439165Y-941070D01*
X-441452Y-945642D01*
X-443737Y-947928D01*
X-450595Y-950213D01*
X-471170Y-950213D01*
X-455168Y-950213D02*
G01*
X-439165Y-975105D01*
X-424179Y-927354D02*
G01*
X-424179Y-975105D01*
X-424179Y-927354D02*
G01*
X-408431Y-927354D01*
X-401573Y-929639D01*
X-397002Y-934212D01*
X-394715Y-938784D01*
X-392429Y-945642D01*
X-392429Y-957071D01*
X-394715Y-963929D01*
X-397002Y-968247D01*
X-401573Y-972820D01*
X-408431Y-975105D01*
X-424179Y-975105D01*
X-377444Y-936497D02*
G01*
X-372871Y-934212D01*
X-366013Y-927354D01*
X-366013Y-975105D01*
M02*
