G04 Layer: InnerLayer1*
G04 Panelize: , Column: 3, Row: 3, Board Size: 35.56mm x 35.56mm, Panelized Board Size: 110.68mm x 110.68mm*
G04 EasyEDA v6.5.39, 2024-01-10 02:32:58*
G04 c879e6b8726d4e35908b0b4345eef0b3,3d9c8b04885e45b7839bd8e85c0fd600,10*
G04 Gerber Generator version 0.2*
G04 Scale: 100 percent, Rotated: No, Reflected: No *
G04 Dimensions in millimeters *
G04 leading zeros omitted , absolute positions ,4 integer and 5 decimal *
%FSLAX45Y45*%
%MOMM*%

%ADD10C,0.1270*%
%ADD11C,0.2540*%
%ADD12C,0.3180*%
%ADD13C,1.6000*%
%ADD14C,3.5000*%
%ADD15C,0.6100*%
%ADD16C,0.6150*%
%ADD17C,0.0122*%

%LPD*%
G36*
X1741728Y950163D02*
G01*
X1737817Y951128D01*
X1734566Y953617D01*
X1725675Y963676D01*
X1715312Y972819D01*
X1703832Y980490D01*
X1691436Y986586D01*
X1678330Y991057D01*
X1664766Y993749D01*
X1651000Y994613D01*
X1637233Y993749D01*
X1623669Y991057D01*
X1610563Y986586D01*
X1598168Y980490D01*
X1586687Y972819D01*
X1579219Y966266D01*
X1575866Y964285D01*
X1572056Y963726D01*
X1568297Y964641D01*
X1565198Y966876D01*
X1563065Y970076D01*
X1562354Y973886D01*
X1562354Y1057706D01*
X1563370Y1062126D01*
X1566164Y1065631D01*
X1570177Y1067612D01*
X1574698Y1067663D01*
X1578762Y1065733D01*
X1583232Y1062228D01*
X1586687Y1059180D01*
X1598168Y1051509D01*
X1610563Y1045413D01*
X1623669Y1040942D01*
X1637233Y1038250D01*
X1651000Y1037386D01*
X1664766Y1038250D01*
X1678330Y1040942D01*
X1691436Y1045413D01*
X1703832Y1051509D01*
X1715312Y1059180D01*
X1725675Y1068324D01*
X1734566Y1078382D01*
X1737817Y1080871D01*
X1741728Y1081836D01*
X1745742Y1081227D01*
X1749196Y1079042D01*
X1751533Y1075690D01*
X1752346Y1071727D01*
X1752346Y960272D01*
X1751533Y956310D01*
X1749196Y952957D01*
X1745742Y950772D01*
G37*

%LPD*%
G36*
X-1741728Y950163D02*
G01*
X-1745742Y950772D01*
X-1749196Y952957D01*
X-1751533Y956310D01*
X-1752346Y960272D01*
X-1752346Y1071727D01*
X-1751533Y1075690D01*
X-1749196Y1079042D01*
X-1745742Y1081227D01*
X-1741728Y1081836D01*
X-1737817Y1080871D01*
X-1734566Y1078382D01*
X-1725675Y1068324D01*
X-1715312Y1059180D01*
X-1703832Y1051509D01*
X-1691436Y1045413D01*
X-1678330Y1040942D01*
X-1664766Y1038250D01*
X-1655978Y1037488D01*
X-1593392Y1036167D01*
X-1589633Y1035354D01*
X-1586433Y1033170D01*
X-1576425Y1023162D01*
X-1574241Y1019911D01*
X-1573479Y1016000D01*
X-1574241Y1012088D01*
X-1576425Y1008837D01*
X-1586433Y998829D01*
X-1589633Y996645D01*
X-1593392Y995832D01*
X-1659331Y994308D01*
X-1664614Y993749D01*
X-1678330Y991057D01*
X-1691436Y986586D01*
X-1703832Y980490D01*
X-1715312Y972819D01*
X-1725675Y963676D01*
X-1734566Y953617D01*
X-1737817Y951128D01*
G37*

%LPD*%
G36*
X1741728Y696163D02*
G01*
X1737817Y697128D01*
X1734566Y699617D01*
X1725675Y709676D01*
X1715312Y718820D01*
X1703832Y726490D01*
X1691436Y732586D01*
X1678330Y737057D01*
X1664766Y739749D01*
X1651000Y740613D01*
X1637233Y739749D01*
X1623669Y737057D01*
X1610563Y732586D01*
X1598168Y726490D01*
X1586687Y718820D01*
X1579219Y712266D01*
X1575866Y710285D01*
X1572056Y709726D01*
X1568297Y710641D01*
X1565198Y712876D01*
X1563065Y716076D01*
X1562354Y719886D01*
X1562354Y804113D01*
X1563065Y807923D01*
X1565198Y811123D01*
X1568297Y813358D01*
X1572056Y814273D01*
X1575866Y813714D01*
X1579219Y811733D01*
X1586687Y805180D01*
X1598168Y797509D01*
X1610563Y791413D01*
X1623669Y786942D01*
X1637233Y784250D01*
X1651000Y783386D01*
X1664766Y784250D01*
X1678330Y786942D01*
X1691436Y791413D01*
X1703832Y797509D01*
X1715312Y805180D01*
X1725675Y814324D01*
X1734566Y824382D01*
X1737817Y826871D01*
X1741728Y827836D01*
X1745742Y827227D01*
X1749196Y825042D01*
X1751533Y821690D01*
X1752346Y817727D01*
X1752346Y706272D01*
X1751533Y702310D01*
X1749196Y698957D01*
X1745742Y696772D01*
G37*

%LPD*%
G36*
X1741728Y442163D02*
G01*
X1737817Y443128D01*
X1734566Y445617D01*
X1725675Y455676D01*
X1715312Y464820D01*
X1703832Y472490D01*
X1691436Y478586D01*
X1678330Y483057D01*
X1664766Y485749D01*
X1651000Y486613D01*
X1637233Y485749D01*
X1623669Y483057D01*
X1610563Y478586D01*
X1598168Y472490D01*
X1586687Y464820D01*
X1579219Y458266D01*
X1575866Y456285D01*
X1572056Y455726D01*
X1568297Y456641D01*
X1565198Y458876D01*
X1563065Y462076D01*
X1562354Y465886D01*
X1562354Y550113D01*
X1563065Y553923D01*
X1565198Y557123D01*
X1568297Y559358D01*
X1572056Y560273D01*
X1575866Y559714D01*
X1579219Y557733D01*
X1586687Y551180D01*
X1598168Y543509D01*
X1610563Y537413D01*
X1623669Y532942D01*
X1637233Y530250D01*
X1651000Y529386D01*
X1664766Y530250D01*
X1678330Y532942D01*
X1691436Y537413D01*
X1703832Y543509D01*
X1715312Y551180D01*
X1725675Y560324D01*
X1734566Y570382D01*
X1737817Y572871D01*
X1741728Y573836D01*
X1745742Y573227D01*
X1749196Y571042D01*
X1751533Y567690D01*
X1752346Y563727D01*
X1752346Y452272D01*
X1751533Y448309D01*
X1749196Y444957D01*
X1745742Y442772D01*
G37*

%LPD*%
G36*
X-1741728Y442163D02*
G01*
X-1745742Y442772D01*
X-1749196Y444957D01*
X-1751533Y448309D01*
X-1752346Y452272D01*
X-1752346Y563727D01*
X-1751533Y567690D01*
X-1749196Y571042D01*
X-1745742Y573227D01*
X-1741728Y573836D01*
X-1737817Y572871D01*
X-1734566Y570382D01*
X-1725675Y560324D01*
X-1715312Y551180D01*
X-1703832Y543509D01*
X-1691436Y537413D01*
X-1678330Y532942D01*
X-1664766Y530250D01*
X-1655978Y529488D01*
X-1593392Y528167D01*
X-1589633Y527354D01*
X-1586433Y525170D01*
X-1576425Y515162D01*
X-1574241Y511911D01*
X-1573479Y508000D01*
X-1574241Y504088D01*
X-1576425Y500837D01*
X-1586433Y490829D01*
X-1589633Y488645D01*
X-1593392Y487832D01*
X-1659331Y486308D01*
X-1664614Y485749D01*
X-1678330Y483057D01*
X-1691436Y478586D01*
X-1703832Y472490D01*
X-1715312Y464820D01*
X-1725675Y455676D01*
X-1734566Y445617D01*
X-1737817Y443128D01*
G37*

%LPD*%
G36*
X1741728Y-65836D02*
G01*
X1737817Y-64871D01*
X1734566Y-62382D01*
X1725675Y-52324D01*
X1715312Y-43180D01*
X1703832Y-35509D01*
X1691436Y-29413D01*
X1678330Y-24942D01*
X1664766Y-22250D01*
X1651000Y-21386D01*
X1637233Y-22250D01*
X1623669Y-24942D01*
X1610563Y-29413D01*
X1598168Y-35509D01*
X1586687Y-43180D01*
X1579219Y-49733D01*
X1575866Y-51714D01*
X1572056Y-52273D01*
X1568297Y-51358D01*
X1565198Y-49123D01*
X1563065Y-45923D01*
X1562354Y-42113D01*
X1562354Y42113D01*
X1563065Y45923D01*
X1565198Y49123D01*
X1568297Y51358D01*
X1572056Y52273D01*
X1575866Y51714D01*
X1579219Y49733D01*
X1586687Y43180D01*
X1598168Y35509D01*
X1604670Y32308D01*
X1604670Y80670D01*
X1572514Y80670D01*
X1568602Y81432D01*
X1565351Y83616D01*
X1563116Y86918D01*
X1562354Y90830D01*
X1562354Y163169D01*
X1563116Y167081D01*
X1565351Y170383D01*
X1568602Y172567D01*
X1572514Y173329D01*
X1604670Y173329D01*
X1604670Y221691D01*
X1598168Y218490D01*
X1586687Y210820D01*
X1579219Y204266D01*
X1575866Y202285D01*
X1572056Y201726D01*
X1568297Y202641D01*
X1565198Y204876D01*
X1563065Y208076D01*
X1562354Y211886D01*
X1562354Y296113D01*
X1563065Y299923D01*
X1565198Y303123D01*
X1568297Y305358D01*
X1572056Y306273D01*
X1575866Y305714D01*
X1579219Y303733D01*
X1586687Y297180D01*
X1598168Y289509D01*
X1610563Y283413D01*
X1623669Y278942D01*
X1637233Y276250D01*
X1651000Y275386D01*
X1664766Y276250D01*
X1678330Y278942D01*
X1691436Y283413D01*
X1703832Y289509D01*
X1715312Y297180D01*
X1725675Y306324D01*
X1734566Y316382D01*
X1737817Y318871D01*
X1741728Y319836D01*
X1745742Y319227D01*
X1749196Y317042D01*
X1751533Y313690D01*
X1752346Y309727D01*
X1752346Y198272D01*
X1751533Y194310D01*
X1749196Y190957D01*
X1745742Y188772D01*
X1741728Y188163D01*
X1737817Y189128D01*
X1734566Y191617D01*
X1725675Y201676D01*
X1715312Y210820D01*
X1703832Y218490D01*
X1697329Y221691D01*
X1697329Y173329D01*
X1742186Y173329D01*
X1746097Y172567D01*
X1749348Y170383D01*
X1751584Y167081D01*
X1752346Y163169D01*
X1752346Y90830D01*
X1751584Y86918D01*
X1749348Y83616D01*
X1746097Y81432D01*
X1742186Y80670D01*
X1697329Y80670D01*
X1697329Y32308D01*
X1703832Y35509D01*
X1715312Y43180D01*
X1725675Y52324D01*
X1734566Y62382D01*
X1737817Y64871D01*
X1741728Y65836D01*
X1745742Y65227D01*
X1749196Y63042D01*
X1751533Y59690D01*
X1752346Y55727D01*
X1752346Y-55727D01*
X1751533Y-59690D01*
X1749196Y-63042D01*
X1745742Y-65227D01*
G37*

%LPD*%
G36*
X-1534617Y-88239D02*
G01*
X-1538478Y-87528D01*
X-1541780Y-85445D01*
X-1582420Y-46685D01*
X-1586534Y-43281D01*
X-1598168Y-35509D01*
X-1610563Y-29413D01*
X-1623669Y-24942D01*
X-1637233Y-22250D01*
X-1651000Y-21386D01*
X-1664766Y-22250D01*
X-1678330Y-24942D01*
X-1691436Y-29413D01*
X-1703832Y-35509D01*
X-1715312Y-43180D01*
X-1725675Y-52324D01*
X-1734566Y-62382D01*
X-1737817Y-64871D01*
X-1741728Y-65836D01*
X-1745742Y-65227D01*
X-1749196Y-63042D01*
X-1751533Y-59690D01*
X-1752346Y-55727D01*
X-1752346Y55727D01*
X-1751533Y59690D01*
X-1749196Y63042D01*
X-1745742Y65227D01*
X-1741728Y65836D01*
X-1737817Y64871D01*
X-1734566Y62382D01*
X-1725675Y52324D01*
X-1715312Y43180D01*
X-1703832Y35509D01*
X-1691436Y29413D01*
X-1678330Y24942D01*
X-1664766Y22250D01*
X-1651000Y21386D01*
X-1637233Y22250D01*
X-1623669Y24942D01*
X-1610563Y29413D01*
X-1598168Y35509D01*
X-1586687Y43180D01*
X-1576324Y52324D01*
X-1567180Y62687D01*
X-1559509Y74168D01*
X-1553413Y86563D01*
X-1548942Y99669D01*
X-1546250Y113233D01*
X-1545386Y127000D01*
X-1546250Y140766D01*
X-1548942Y154330D01*
X-1553413Y167436D01*
X-1559509Y179832D01*
X-1567180Y191312D01*
X-1576324Y201676D01*
X-1586687Y210820D01*
X-1598168Y218490D01*
X-1610563Y224586D01*
X-1623669Y229057D01*
X-1637233Y231749D01*
X-1651000Y232613D01*
X-1664766Y231749D01*
X-1678330Y229057D01*
X-1691436Y224586D01*
X-1703832Y218490D01*
X-1715312Y210820D01*
X-1725675Y201676D01*
X-1734566Y191617D01*
X-1737817Y189128D01*
X-1741728Y188163D01*
X-1745742Y188772D01*
X-1749196Y190957D01*
X-1751533Y194310D01*
X-1752346Y198272D01*
X-1752346Y309727D01*
X-1751533Y313690D01*
X-1749196Y317042D01*
X-1745742Y319227D01*
X-1741728Y319836D01*
X-1737817Y318871D01*
X-1734566Y316382D01*
X-1725675Y306324D01*
X-1715312Y297180D01*
X-1703832Y289509D01*
X-1691436Y283413D01*
X-1678330Y278942D01*
X-1664766Y276250D01*
X-1651000Y275386D01*
X-1637233Y276250D01*
X-1623669Y278942D01*
X-1610563Y283413D01*
X-1598168Y289509D01*
X-1586687Y297180D01*
X-1576324Y306324D01*
X-1567180Y316687D01*
X-1559509Y328168D01*
X-1553413Y340563D01*
X-1548942Y353669D01*
X-1546250Y367233D01*
X-1545488Y376021D01*
X-1544167Y438607D01*
X-1543354Y442366D01*
X-1541170Y445566D01*
X-1526438Y460298D01*
X-1523136Y462534D01*
X-1519224Y463296D01*
X-1452575Y463296D01*
X-1448663Y462534D01*
X-1444701Y459638D01*
X-1442466Y456336D01*
X-1441704Y452424D01*
X-1441704Y393141D01*
X-1442364Y389483D01*
X-1444294Y386334D01*
X-1447241Y384098D01*
X-1450797Y383032D01*
X-1454505Y383336D01*
X-1463395Y385724D01*
X-1473200Y386588D01*
X-1483004Y385724D01*
X-1492453Y383184D01*
X-1501394Y379018D01*
X-1509420Y373380D01*
X-1516380Y366420D01*
X-1522018Y358394D01*
X-1526184Y349453D01*
X-1528724Y340004D01*
X-1529588Y330200D01*
X-1528724Y320395D01*
X-1526184Y310946D01*
X-1522018Y302006D01*
X-1516380Y293979D01*
X-1509420Y287020D01*
X-1501394Y281381D01*
X-1492453Y277215D01*
X-1483004Y274675D01*
X-1473200Y273812D01*
X-1463395Y274675D01*
X-1454505Y277063D01*
X-1450797Y277368D01*
X-1447241Y276301D01*
X-1444294Y274066D01*
X-1442364Y270916D01*
X-1441704Y267258D01*
X-1441704Y-37592D01*
X-1440942Y-44754D01*
X-1438910Y-51104D01*
X-1436979Y-54356D01*
X-1435709Y-58369D01*
X-1436116Y-62585D01*
X-1438249Y-66243D01*
X-1441653Y-68732D01*
X-1445818Y-69596D01*
X-1498092Y-69596D01*
X-1505254Y-70358D01*
X-1511604Y-72390D01*
X-1517497Y-75844D01*
X-1521510Y-79248D01*
X-1527556Y-85293D01*
X-1530807Y-87477D01*
G37*

%LPD*%
G36*
X-888796Y-94996D02*
G01*
X-892708Y-94234D01*
X-896010Y-91998D01*
X-898194Y-88747D01*
X-898956Y-84836D01*
X-898194Y-80924D01*
X-896010Y-77673D01*
X-866038Y-47701D01*
X-863142Y-45669D01*
X-859688Y-44754D01*
X-856183Y-45059D01*
X-852982Y-46583D01*
X-839266Y-56134D01*
X-837234Y-59334D01*
X-836472Y-63093D01*
X-837234Y-66852D01*
X-839266Y-70104D01*
X-851357Y-78384D01*
X-865073Y-91998D01*
X-868375Y-94234D01*
X-872286Y-94996D01*
G37*

%LPD*%
G36*
X-865428Y-203301D02*
G01*
X-868984Y-202438D01*
X-871982Y-200355D01*
X-896010Y-176326D01*
X-898194Y-173075D01*
X-898956Y-169164D01*
X-898194Y-165252D01*
X-896010Y-162001D01*
X-892708Y-159766D01*
X-888796Y-159004D01*
X-865327Y-159004D01*
X-862685Y-159359D01*
X-860247Y-160375D01*
X-841298Y-171246D01*
X-837996Y-174193D01*
X-836269Y-178257D01*
X-836421Y-182676D01*
X-838453Y-186639D01*
X-841959Y-189331D01*
X-843178Y-189890D01*
X-851814Y-195986D01*
X-858570Y-201218D01*
X-861771Y-202895D01*
G37*

%LPD*%
G36*
X1741728Y-319836D02*
G01*
X1737817Y-318871D01*
X1734566Y-316382D01*
X1725675Y-306324D01*
X1715312Y-297180D01*
X1703832Y-289509D01*
X1691436Y-283413D01*
X1678330Y-278942D01*
X1664766Y-276250D01*
X1651000Y-275386D01*
X1637233Y-276250D01*
X1623669Y-278942D01*
X1610563Y-283413D01*
X1598168Y-289509D01*
X1586687Y-297180D01*
X1579219Y-303733D01*
X1575866Y-305714D01*
X1572056Y-306273D01*
X1568297Y-305358D01*
X1565198Y-303123D01*
X1563065Y-299923D01*
X1562354Y-296113D01*
X1562354Y-211886D01*
X1563065Y-208076D01*
X1565198Y-204876D01*
X1568297Y-202641D01*
X1572056Y-201726D01*
X1575866Y-202285D01*
X1579219Y-204266D01*
X1586687Y-210820D01*
X1598168Y-218490D01*
X1610563Y-224586D01*
X1623669Y-229057D01*
X1637233Y-231749D01*
X1651000Y-232613D01*
X1664766Y-231749D01*
X1678330Y-229057D01*
X1691436Y-224586D01*
X1703832Y-218490D01*
X1715312Y-210820D01*
X1725675Y-201676D01*
X1734566Y-191617D01*
X1737817Y-189128D01*
X1741728Y-188163D01*
X1745742Y-188772D01*
X1749196Y-190957D01*
X1751533Y-194310D01*
X1752346Y-198272D01*
X1752346Y-309727D01*
X1751533Y-313690D01*
X1749196Y-317042D01*
X1745742Y-319227D01*
G37*

%LPD*%
G36*
X-1741728Y-319836D02*
G01*
X-1745742Y-319227D01*
X-1749196Y-317042D01*
X-1751533Y-313690D01*
X-1752346Y-309727D01*
X-1752346Y-198272D01*
X-1751533Y-194310D01*
X-1749196Y-190957D01*
X-1745742Y-188772D01*
X-1741728Y-188163D01*
X-1737817Y-189128D01*
X-1734566Y-191617D01*
X-1725675Y-201676D01*
X-1715312Y-210820D01*
X-1703832Y-218490D01*
X-1691436Y-224586D01*
X-1678330Y-229057D01*
X-1664766Y-231749D01*
X-1651000Y-232613D01*
X-1637233Y-231749D01*
X-1623669Y-229057D01*
X-1610563Y-224586D01*
X-1598168Y-218490D01*
X-1586687Y-210820D01*
X-1579930Y-205130D01*
X-1573174Y-198678D01*
X-1569872Y-196545D01*
X-1566011Y-195834D01*
X-1562150Y-196646D01*
X-1558950Y-198882D01*
X-1556766Y-202184D01*
X-1556004Y-205994D01*
X-1556004Y-236524D01*
X-1556766Y-240436D01*
X-1559001Y-243738D01*
X-1586433Y-271170D01*
X-1589633Y-273354D01*
X-1593392Y-274167D01*
X-1659331Y-275691D01*
X-1664614Y-276250D01*
X-1678330Y-278942D01*
X-1691436Y-283413D01*
X-1703832Y-289509D01*
X-1715312Y-297180D01*
X-1725675Y-306324D01*
X-1734566Y-316382D01*
X-1737817Y-318871D01*
G37*

%LPD*%
G36*
X1741728Y-573836D02*
G01*
X1737817Y-572871D01*
X1734566Y-570382D01*
X1725675Y-560324D01*
X1715312Y-551180D01*
X1703832Y-543509D01*
X1691436Y-537413D01*
X1678330Y-532942D01*
X1664766Y-530250D01*
X1651000Y-529386D01*
X1637233Y-530250D01*
X1623669Y-532942D01*
X1610563Y-537413D01*
X1598168Y-543509D01*
X1586687Y-551180D01*
X1579219Y-557733D01*
X1575866Y-559714D01*
X1572056Y-560273D01*
X1568297Y-559358D01*
X1565198Y-557123D01*
X1563065Y-553923D01*
X1562354Y-550113D01*
X1562354Y-465886D01*
X1563065Y-462076D01*
X1565198Y-458876D01*
X1568297Y-456641D01*
X1572056Y-455726D01*
X1575866Y-456285D01*
X1579219Y-458266D01*
X1586687Y-464820D01*
X1598168Y-472490D01*
X1610563Y-478586D01*
X1623669Y-483057D01*
X1637233Y-485749D01*
X1651000Y-486613D01*
X1664766Y-485749D01*
X1678330Y-483057D01*
X1691436Y-478586D01*
X1703832Y-472490D01*
X1715312Y-464820D01*
X1725675Y-455676D01*
X1734566Y-445617D01*
X1737817Y-443128D01*
X1741728Y-442163D01*
X1745742Y-442772D01*
X1749196Y-444957D01*
X1751533Y-448309D01*
X1752346Y-452272D01*
X1752346Y-563727D01*
X1751533Y-567690D01*
X1749196Y-571042D01*
X1745742Y-573227D01*
G37*

%LPD*%
G36*
X-1741728Y-573836D02*
G01*
X-1745742Y-573227D01*
X-1749196Y-571042D01*
X-1751533Y-567690D01*
X-1752346Y-563727D01*
X-1752346Y-452272D01*
X-1751533Y-448309D01*
X-1749196Y-444957D01*
X-1745742Y-442772D01*
X-1741728Y-442163D01*
X-1737817Y-443128D01*
X-1734566Y-445617D01*
X-1725675Y-455676D01*
X-1715312Y-464820D01*
X-1703832Y-472490D01*
X-1691436Y-478586D01*
X-1678330Y-483057D01*
X-1664766Y-485749D01*
X-1651000Y-486613D01*
X-1637233Y-485749D01*
X-1623669Y-483057D01*
X-1610563Y-478586D01*
X-1598168Y-472490D01*
X-1586687Y-464820D01*
X-1576324Y-455676D01*
X-1567180Y-445312D01*
X-1559509Y-433832D01*
X-1553413Y-421436D01*
X-1550365Y-412496D01*
X-1548333Y-408990D01*
X-1545082Y-406603D01*
X-1541119Y-405638D01*
X-1537157Y-406298D01*
X-1533702Y-408482D01*
X-1531416Y-411784D01*
X-1530604Y-415798D01*
X-1530604Y-465124D01*
X-1531366Y-469036D01*
X-1533601Y-472338D01*
X-1586433Y-525170D01*
X-1589633Y-527354D01*
X-1593392Y-528167D01*
X-1659331Y-529691D01*
X-1664614Y-530250D01*
X-1678330Y-532942D01*
X-1691436Y-537413D01*
X-1703832Y-543509D01*
X-1715312Y-551180D01*
X-1725675Y-560324D01*
X-1734566Y-570382D01*
X-1737817Y-572871D01*
G37*

%LPD*%
G36*
X1741728Y-827836D02*
G01*
X1737817Y-826871D01*
X1734566Y-824382D01*
X1725675Y-814324D01*
X1715312Y-805180D01*
X1703832Y-797509D01*
X1691436Y-791413D01*
X1678330Y-786942D01*
X1664766Y-784250D01*
X1651000Y-783386D01*
X1637233Y-784250D01*
X1623669Y-786942D01*
X1610563Y-791413D01*
X1598168Y-797509D01*
X1586687Y-805180D01*
X1579219Y-811733D01*
X1575866Y-813714D01*
X1572056Y-814273D01*
X1568297Y-813358D01*
X1565198Y-811123D01*
X1563065Y-807923D01*
X1562354Y-804113D01*
X1562354Y-719886D01*
X1563065Y-716076D01*
X1565198Y-712876D01*
X1568297Y-710641D01*
X1572056Y-709726D01*
X1575866Y-710285D01*
X1579219Y-712266D01*
X1586687Y-718820D01*
X1598168Y-726490D01*
X1610563Y-732586D01*
X1623669Y-737057D01*
X1637233Y-739749D01*
X1651000Y-740613D01*
X1664766Y-739749D01*
X1678330Y-737057D01*
X1691436Y-732586D01*
X1703832Y-726490D01*
X1715312Y-718820D01*
X1725675Y-709676D01*
X1734566Y-699617D01*
X1737817Y-697128D01*
X1741728Y-696163D01*
X1745742Y-696772D01*
X1749196Y-698957D01*
X1751533Y-702310D01*
X1752346Y-706272D01*
X1752346Y-817727D01*
X1751533Y-821690D01*
X1749196Y-825042D01*
X1745742Y-827227D01*
G37*

%LPD*%
G36*
X1507540Y-971296D02*
G01*
X1503629Y-970534D01*
X1500378Y-968298D01*
X1498142Y-965047D01*
X1497380Y-961136D01*
X1498142Y-957224D01*
X1500378Y-953973D01*
X1503680Y-950620D01*
X1509318Y-942594D01*
X1513484Y-933653D01*
X1516024Y-924204D01*
X1516888Y-914400D01*
X1516024Y-904595D01*
X1513433Y-895096D01*
X1513281Y-890574D01*
X1515059Y-886460D01*
X1518462Y-883513D01*
X1519885Y-882751D01*
X1526082Y-877671D01*
X1528267Y-875487D01*
X1531620Y-873252D01*
X1535582Y-872490D01*
X1539494Y-873353D01*
X1542796Y-875639D01*
X1544929Y-879043D01*
X1545590Y-883005D01*
X1544269Y-946810D01*
X1543456Y-950620D01*
X1541322Y-953820D01*
X1526895Y-968298D01*
X1523593Y-970534D01*
X1519682Y-971296D01*
G37*

%LPD*%
G36*
X1741728Y-1081836D02*
G01*
X1737817Y-1080871D01*
X1734566Y-1078382D01*
X1725675Y-1068324D01*
X1715312Y-1059180D01*
X1703832Y-1051509D01*
X1691436Y-1045413D01*
X1678330Y-1040942D01*
X1664766Y-1038250D01*
X1655978Y-1037488D01*
X1593392Y-1036167D01*
X1589633Y-1035354D01*
X1586433Y-1033170D01*
X1576679Y-1023416D01*
X1574444Y-1020114D01*
X1573682Y-1016203D01*
X1574444Y-1012342D01*
X1576628Y-1009040D01*
X1586687Y-998982D01*
X1589887Y-996797D01*
X1593646Y-995984D01*
X1659585Y-994257D01*
X1664614Y-993749D01*
X1678330Y-991057D01*
X1691436Y-986586D01*
X1703832Y-980490D01*
X1715312Y-972819D01*
X1725675Y-963676D01*
X1734566Y-953617D01*
X1737817Y-951128D01*
X1741728Y-950163D01*
X1745742Y-950772D01*
X1749196Y-952957D01*
X1751533Y-956310D01*
X1752346Y-960272D01*
X1752346Y-1071727D01*
X1751533Y-1075690D01*
X1749196Y-1079042D01*
X1745742Y-1081227D01*
G37*

%LPD*%
G36*
X706272Y-1752346D02*
G01*
X702310Y-1751533D01*
X698957Y-1749196D01*
X696772Y-1745742D01*
X696163Y-1741728D01*
X697128Y-1737817D01*
X699617Y-1734566D01*
X709676Y-1725675D01*
X718820Y-1715312D01*
X726490Y-1703832D01*
X732586Y-1691436D01*
X737057Y-1678330D01*
X739749Y-1664766D01*
X740613Y-1651000D01*
X739749Y-1637233D01*
X737057Y-1623669D01*
X732586Y-1610563D01*
X726490Y-1598168D01*
X718820Y-1586687D01*
X712266Y-1579219D01*
X710285Y-1575866D01*
X709726Y-1572056D01*
X710641Y-1568297D01*
X712876Y-1565198D01*
X716076Y-1563065D01*
X719886Y-1562354D01*
X804113Y-1562354D01*
X807923Y-1563065D01*
X811123Y-1565198D01*
X813358Y-1568297D01*
X814273Y-1572056D01*
X813714Y-1575866D01*
X811733Y-1579219D01*
X805180Y-1586687D01*
X797509Y-1598168D01*
X791413Y-1610563D01*
X786942Y-1623669D01*
X784250Y-1637233D01*
X783386Y-1651000D01*
X784250Y-1664766D01*
X786942Y-1678330D01*
X791413Y-1691436D01*
X797509Y-1703832D01*
X805180Y-1715312D01*
X814324Y-1725675D01*
X824382Y-1734566D01*
X826871Y-1737817D01*
X827836Y-1741728D01*
X827227Y-1745742D01*
X825042Y-1749196D01*
X821690Y-1751533D01*
X817727Y-1752346D01*
G37*

%LPD*%
G36*
X-309727Y-1752346D02*
G01*
X-313690Y-1751533D01*
X-317042Y-1749196D01*
X-319227Y-1745742D01*
X-319836Y-1741728D01*
X-318871Y-1737817D01*
X-316382Y-1734566D01*
X-306324Y-1725675D01*
X-297180Y-1715312D01*
X-289509Y-1703832D01*
X-283413Y-1691436D01*
X-278942Y-1678330D01*
X-276250Y-1664766D01*
X-275386Y-1651000D01*
X-276250Y-1637233D01*
X-278942Y-1623669D01*
X-283413Y-1610563D01*
X-289509Y-1598168D01*
X-297180Y-1586687D01*
X-306324Y-1576324D01*
X-309168Y-1573784D01*
X-311607Y-1570532D01*
X-312623Y-1566621D01*
X-311962Y-1562608D01*
X-309778Y-1559153D01*
X-306476Y-1556816D01*
X-302463Y-1556004D01*
X-271475Y-1556004D01*
X-267563Y-1556766D01*
X-264261Y-1559001D01*
X-236829Y-1586433D01*
X-234645Y-1589633D01*
X-233832Y-1593392D01*
X-232308Y-1659331D01*
X-231749Y-1664614D01*
X-229057Y-1678330D01*
X-224586Y-1691436D01*
X-218490Y-1703832D01*
X-210820Y-1715312D01*
X-201676Y-1725675D01*
X-191617Y-1734566D01*
X-189128Y-1737817D01*
X-188163Y-1741728D01*
X-188772Y-1745742D01*
X-190957Y-1749196D01*
X-194310Y-1751533D01*
X-198272Y-1752346D01*
G37*

%LPD*%
G36*
X960272Y-1752346D02*
G01*
X956310Y-1751533D01*
X952957Y-1749196D01*
X950772Y-1745742D01*
X950163Y-1741728D01*
X951128Y-1737817D01*
X953617Y-1734566D01*
X963676Y-1725675D01*
X972819Y-1715312D01*
X980490Y-1703832D01*
X986586Y-1691436D01*
X991057Y-1678330D01*
X993749Y-1664766D01*
X994613Y-1651000D01*
X993749Y-1637233D01*
X991057Y-1623669D01*
X986586Y-1610563D01*
X980490Y-1598168D01*
X972819Y-1586687D01*
X966266Y-1579219D01*
X964285Y-1575866D01*
X963726Y-1572056D01*
X964641Y-1568297D01*
X966876Y-1565198D01*
X970076Y-1563065D01*
X973886Y-1562354D01*
X1058113Y-1562354D01*
X1061923Y-1563065D01*
X1065123Y-1565198D01*
X1067358Y-1568297D01*
X1068273Y-1572056D01*
X1067714Y-1575866D01*
X1065733Y-1579219D01*
X1059180Y-1586687D01*
X1051509Y-1598168D01*
X1045413Y-1610563D01*
X1040942Y-1623669D01*
X1038250Y-1637233D01*
X1037386Y-1651000D01*
X1038250Y-1664766D01*
X1040942Y-1678330D01*
X1045413Y-1691436D01*
X1051509Y-1703832D01*
X1059180Y-1715312D01*
X1068324Y-1725675D01*
X1078382Y-1734566D01*
X1080871Y-1737817D01*
X1081836Y-1741728D01*
X1081227Y-1745742D01*
X1079042Y-1749196D01*
X1075690Y-1751533D01*
X1071727Y-1752346D01*
G37*

%LPD*%
G36*
X-563727Y-1752346D02*
G01*
X-567690Y-1751533D01*
X-571042Y-1749196D01*
X-573227Y-1745742D01*
X-573836Y-1741728D01*
X-572871Y-1737817D01*
X-570382Y-1734566D01*
X-560324Y-1725675D01*
X-551180Y-1715312D01*
X-543509Y-1703832D01*
X-537413Y-1691436D01*
X-532942Y-1678330D01*
X-530250Y-1664766D01*
X-529386Y-1651000D01*
X-530250Y-1637233D01*
X-532942Y-1623669D01*
X-537413Y-1610563D01*
X-543509Y-1598168D01*
X-551180Y-1586687D01*
X-560324Y-1576324D01*
X-563168Y-1573784D01*
X-565607Y-1570532D01*
X-566623Y-1566621D01*
X-565962Y-1562608D01*
X-563778Y-1559153D01*
X-560476Y-1556816D01*
X-556463Y-1556004D01*
X-459536Y-1556004D01*
X-455523Y-1556816D01*
X-452221Y-1559153D01*
X-450037Y-1562608D01*
X-449376Y-1566621D01*
X-450392Y-1570532D01*
X-452831Y-1573784D01*
X-455676Y-1576324D01*
X-464820Y-1586687D01*
X-472490Y-1598168D01*
X-478586Y-1610563D01*
X-483057Y-1623669D01*
X-485749Y-1637233D01*
X-486613Y-1651000D01*
X-485749Y-1664766D01*
X-483057Y-1678330D01*
X-478586Y-1691436D01*
X-472490Y-1703832D01*
X-464820Y-1715312D01*
X-455676Y-1725675D01*
X-445617Y-1734566D01*
X-443128Y-1737817D01*
X-442163Y-1741728D01*
X-442772Y-1745742D01*
X-444957Y-1749196D01*
X-448309Y-1751533D01*
X-452272Y-1752346D01*
G37*

%LPD*%
G36*
X198272Y-1752346D02*
G01*
X194310Y-1751533D01*
X190957Y-1749196D01*
X188772Y-1745742D01*
X188163Y-1741728D01*
X189128Y-1737817D01*
X191617Y-1734566D01*
X201676Y-1725675D01*
X210820Y-1715312D01*
X218490Y-1703832D01*
X224586Y-1691436D01*
X229057Y-1678330D01*
X231749Y-1664766D01*
X232613Y-1651000D01*
X231749Y-1637233D01*
X229057Y-1623669D01*
X224586Y-1610563D01*
X218490Y-1598168D01*
X210820Y-1586687D01*
X204266Y-1579219D01*
X202285Y-1575866D01*
X201726Y-1572056D01*
X202641Y-1568297D01*
X204876Y-1565198D01*
X208076Y-1563065D01*
X211886Y-1562354D01*
X296113Y-1562354D01*
X299923Y-1563065D01*
X303123Y-1565198D01*
X305358Y-1568297D01*
X306273Y-1572056D01*
X305714Y-1575866D01*
X303733Y-1579219D01*
X297180Y-1586687D01*
X289509Y-1598168D01*
X283413Y-1610563D01*
X278942Y-1623669D01*
X276250Y-1637233D01*
X275386Y-1651000D01*
X276250Y-1664766D01*
X278942Y-1678330D01*
X283413Y-1691436D01*
X289509Y-1703832D01*
X297180Y-1715312D01*
X306324Y-1725675D01*
X316382Y-1734566D01*
X318871Y-1737817D01*
X319836Y-1741728D01*
X319227Y-1745742D01*
X317042Y-1749196D01*
X313690Y-1751533D01*
X309727Y-1752346D01*
G37*

%LPD*%
G36*
X452272Y-1752346D02*
G01*
X448309Y-1751533D01*
X444957Y-1749196D01*
X442772Y-1745742D01*
X442163Y-1741728D01*
X443128Y-1737817D01*
X445617Y-1734566D01*
X455676Y-1725675D01*
X464820Y-1715312D01*
X472490Y-1703832D01*
X478586Y-1691436D01*
X483057Y-1678330D01*
X485749Y-1664766D01*
X486613Y-1651000D01*
X485749Y-1637233D01*
X483057Y-1623669D01*
X478586Y-1610563D01*
X472490Y-1598168D01*
X464820Y-1586687D01*
X458266Y-1579219D01*
X456285Y-1575866D01*
X455726Y-1572056D01*
X456641Y-1568297D01*
X458876Y-1565198D01*
X462076Y-1563065D01*
X465886Y-1562354D01*
X550113Y-1562354D01*
X553923Y-1563065D01*
X557123Y-1565198D01*
X559358Y-1568297D01*
X560273Y-1572056D01*
X559714Y-1575866D01*
X557733Y-1579219D01*
X551180Y-1586687D01*
X543509Y-1598168D01*
X537413Y-1610563D01*
X532942Y-1623669D01*
X530250Y-1637233D01*
X529386Y-1651000D01*
X530250Y-1664766D01*
X532942Y-1678330D01*
X537413Y-1691436D01*
X543509Y-1703832D01*
X551180Y-1715312D01*
X560324Y-1725675D01*
X570382Y-1734566D01*
X572871Y-1737817D01*
X573836Y-1741728D01*
X573227Y-1745742D01*
X571042Y-1749196D01*
X567690Y-1751533D01*
X563727Y-1752346D01*
G37*

%LPD*%
G36*
X-55727Y-1752346D02*
G01*
X-59690Y-1751533D01*
X-63042Y-1749196D01*
X-65227Y-1745742D01*
X-65836Y-1741728D01*
X-64871Y-1737817D01*
X-62382Y-1734566D01*
X-52324Y-1725675D01*
X-43180Y-1715312D01*
X-35509Y-1703832D01*
X-29413Y-1691436D01*
X-24942Y-1678330D01*
X-22250Y-1664766D01*
X-21386Y-1651000D01*
X-22250Y-1637233D01*
X-24942Y-1623669D01*
X-29413Y-1610563D01*
X-35509Y-1598168D01*
X-43180Y-1586687D01*
X-52324Y-1576324D01*
X-62687Y-1567180D01*
X-74168Y-1559509D01*
X-86563Y-1553413D01*
X-95504Y-1550365D01*
X-99009Y-1548333D01*
X-101396Y-1545082D01*
X-102362Y-1541119D01*
X-101701Y-1537157D01*
X-99517Y-1533702D01*
X-96215Y-1531416D01*
X-92202Y-1530604D01*
X-42875Y-1530604D01*
X-38963Y-1531366D01*
X-35661Y-1533601D01*
X17170Y-1586433D01*
X19354Y-1589633D01*
X20167Y-1593392D01*
X21691Y-1659331D01*
X22250Y-1664614D01*
X24942Y-1678330D01*
X29413Y-1691436D01*
X35509Y-1703832D01*
X43180Y-1715312D01*
X52324Y-1725675D01*
X62382Y-1734566D01*
X64871Y-1737817D01*
X65836Y-1741728D01*
X65227Y-1745742D01*
X63042Y-1749196D01*
X59690Y-1751533D01*
X55727Y-1752346D01*
G37*

%LPD*%
G36*
X1214272Y-1752346D02*
G01*
X1210310Y-1751533D01*
X1206957Y-1749196D01*
X1204772Y-1745742D01*
X1204163Y-1741728D01*
X1205128Y-1737817D01*
X1207617Y-1734566D01*
X1217676Y-1725675D01*
X1226820Y-1715312D01*
X1234490Y-1703832D01*
X1240586Y-1691436D01*
X1245057Y-1678330D01*
X1247749Y-1664766D01*
X1248613Y-1651000D01*
X1247749Y-1637233D01*
X1245057Y-1623669D01*
X1240586Y-1610563D01*
X1234490Y-1598168D01*
X1226820Y-1586687D01*
X1219555Y-1578406D01*
X1217422Y-1574546D01*
X1217168Y-1570126D01*
X1218793Y-1566011D01*
X1221994Y-1563014D01*
X1233881Y-1559407D01*
X1240485Y-1555851D01*
X1246682Y-1550771D01*
X1250797Y-1546961D01*
X1252880Y-1545996D01*
X1264412Y-1541983D01*
X1276553Y-1538884D01*
X1285494Y-1534718D01*
X1293520Y-1529080D01*
X1300480Y-1522120D01*
X1305001Y-1515668D01*
X1308150Y-1512773D01*
X1312316Y-1511401D01*
X1316583Y-1511909D01*
X1320292Y-1514144D01*
X1322730Y-1517751D01*
X1323441Y-1522018D01*
X1323340Y-1524000D01*
X1324305Y-1543659D01*
X1327200Y-1563166D01*
X1331976Y-1582267D01*
X1338630Y-1600758D01*
X1347063Y-1618589D01*
X1357172Y-1635455D01*
X1368907Y-1651304D01*
X1382115Y-1665884D01*
X1396695Y-1679092D01*
X1412544Y-1690827D01*
X1429410Y-1700936D01*
X1447241Y-1709369D01*
X1465732Y-1716024D01*
X1484833Y-1720799D01*
X1504340Y-1723694D01*
X1524000Y-1724660D01*
X1543659Y-1723694D01*
X1563166Y-1720799D01*
X1582267Y-1716024D01*
X1600758Y-1709369D01*
X1618589Y-1700936D01*
X1635455Y-1690827D01*
X1651304Y-1679092D01*
X1665884Y-1665884D01*
X1679092Y-1651304D01*
X1690827Y-1635455D01*
X1700936Y-1618589D01*
X1709369Y-1600758D01*
X1716024Y-1582267D01*
X1720799Y-1563166D01*
X1723694Y-1543659D01*
X1724660Y-1524000D01*
X1723694Y-1504340D01*
X1720799Y-1484833D01*
X1716024Y-1465732D01*
X1709369Y-1447241D01*
X1700936Y-1429410D01*
X1690827Y-1412544D01*
X1679092Y-1396695D01*
X1665884Y-1382115D01*
X1651304Y-1368907D01*
X1635455Y-1357172D01*
X1618589Y-1347063D01*
X1600758Y-1338630D01*
X1582267Y-1331976D01*
X1563166Y-1327200D01*
X1543659Y-1324305D01*
X1524000Y-1323340D01*
X1504340Y-1324305D01*
X1484833Y-1327200D01*
X1465732Y-1331976D01*
X1447241Y-1338630D01*
X1429410Y-1347063D01*
X1412544Y-1357172D01*
X1396695Y-1368907D01*
X1382115Y-1382115D01*
X1368907Y-1396695D01*
X1357172Y-1412544D01*
X1347063Y-1429410D01*
X1338630Y-1447241D01*
X1331976Y-1465732D01*
X1330909Y-1470101D01*
X1328928Y-1474063D01*
X1325473Y-1476806D01*
X1321155Y-1477772D01*
X1316786Y-1476857D01*
X1313281Y-1474165D01*
X1311249Y-1470253D01*
X1310284Y-1466646D01*
X1306118Y-1457706D01*
X1300480Y-1449679D01*
X1293520Y-1442720D01*
X1285494Y-1437081D01*
X1282954Y-1435912D01*
X1279804Y-1433626D01*
X1277772Y-1430324D01*
X1277061Y-1426514D01*
X1277874Y-1422704D01*
X1280058Y-1419504D01*
X1495450Y-1204112D01*
X1499971Y-1198524D01*
X1503019Y-1192530D01*
X1504797Y-1185976D01*
X1505204Y-1180693D01*
X1505204Y-1071575D01*
X1505966Y-1067663D01*
X1508861Y-1063701D01*
X1512163Y-1061466D01*
X1516075Y-1060704D01*
X1519224Y-1060704D01*
X1523136Y-1061466D01*
X1526438Y-1063701D01*
X1541170Y-1078433D01*
X1543354Y-1081633D01*
X1544167Y-1085392D01*
X1545691Y-1151331D01*
X1546250Y-1156614D01*
X1548942Y-1170330D01*
X1553413Y-1183436D01*
X1559509Y-1195832D01*
X1567180Y-1207312D01*
X1576324Y-1217676D01*
X1586687Y-1226820D01*
X1598168Y-1234490D01*
X1610563Y-1240586D01*
X1623669Y-1245057D01*
X1637233Y-1247749D01*
X1651000Y-1248613D01*
X1664766Y-1247749D01*
X1678330Y-1245057D01*
X1691436Y-1240586D01*
X1703832Y-1234490D01*
X1715312Y-1226820D01*
X1725675Y-1217676D01*
X1734566Y-1207617D01*
X1737817Y-1205128D01*
X1741728Y-1204163D01*
X1745742Y-1204772D01*
X1749196Y-1206957D01*
X1751533Y-1210310D01*
X1752346Y-1214272D01*
X1752346Y-1527251D01*
X1751431Y-1547977D01*
X1748840Y-1567383D01*
X1744522Y-1586484D01*
X1738630Y-1605127D01*
X1731111Y-1623212D01*
X1722018Y-1640535D01*
X1711502Y-1656994D01*
X1699564Y-1672539D01*
X1686306Y-1686915D01*
X1671828Y-1700123D01*
X1656283Y-1712010D01*
X1639773Y-1722475D01*
X1622399Y-1731467D01*
X1604314Y-1738934D01*
X1585620Y-1744776D01*
X1566519Y-1748993D01*
X1547114Y-1751482D01*
X1527251Y-1752346D01*
G37*

%LPD*%
G36*
X-1527251Y-1752346D02*
G01*
X-1547977Y-1751431D01*
X-1567383Y-1748840D01*
X-1586484Y-1744522D01*
X-1605127Y-1738630D01*
X-1623212Y-1731111D01*
X-1640535Y-1722018D01*
X-1656994Y-1711502D01*
X-1672539Y-1699564D01*
X-1686915Y-1686306D01*
X-1700123Y-1671828D01*
X-1712010Y-1656283D01*
X-1722475Y-1639773D01*
X-1731467Y-1622399D01*
X-1738934Y-1604314D01*
X-1744776Y-1585620D01*
X-1748993Y-1566519D01*
X-1751482Y-1547114D01*
X-1752346Y-1527251D01*
X-1752346Y-1214272D01*
X-1751533Y-1210310D01*
X-1749196Y-1206957D01*
X-1745742Y-1204772D01*
X-1741728Y-1204163D01*
X-1737817Y-1205128D01*
X-1734566Y-1207617D01*
X-1725675Y-1217676D01*
X-1715312Y-1226820D01*
X-1703832Y-1234490D01*
X-1691436Y-1240586D01*
X-1678330Y-1245057D01*
X-1664766Y-1247749D01*
X-1651000Y-1248613D01*
X-1637233Y-1247749D01*
X-1623669Y-1245057D01*
X-1610563Y-1240586D01*
X-1598168Y-1234490D01*
X-1586687Y-1226820D01*
X-1576324Y-1217676D01*
X-1567180Y-1207312D01*
X-1559509Y-1195832D01*
X-1553413Y-1183436D01*
X-1548942Y-1170330D01*
X-1546250Y-1156766D01*
X-1545386Y-1143000D01*
X-1546250Y-1129233D01*
X-1548942Y-1115669D01*
X-1553413Y-1102563D01*
X-1559509Y-1090168D01*
X-1567180Y-1078687D01*
X-1576324Y-1068324D01*
X-1586687Y-1059180D01*
X-1598168Y-1051509D01*
X-1610563Y-1045413D01*
X-1623669Y-1040942D01*
X-1637233Y-1038250D01*
X-1651000Y-1037386D01*
X-1664766Y-1038250D01*
X-1678330Y-1040942D01*
X-1691436Y-1045413D01*
X-1703832Y-1051509D01*
X-1715312Y-1059180D01*
X-1725675Y-1068324D01*
X-1734566Y-1078382D01*
X-1737817Y-1080871D01*
X-1741728Y-1081836D01*
X-1745742Y-1081227D01*
X-1749196Y-1079042D01*
X-1751533Y-1075690D01*
X-1752346Y-1071727D01*
X-1752346Y-960272D01*
X-1751533Y-956310D01*
X-1749196Y-952957D01*
X-1745742Y-950772D01*
X-1741728Y-950163D01*
X-1737817Y-951128D01*
X-1734566Y-953617D01*
X-1725675Y-963676D01*
X-1715312Y-972819D01*
X-1703832Y-980490D01*
X-1691436Y-986586D01*
X-1678330Y-991057D01*
X-1664766Y-993749D01*
X-1651000Y-994613D01*
X-1637233Y-993749D01*
X-1623669Y-991057D01*
X-1610563Y-986586D01*
X-1598168Y-980490D01*
X-1586687Y-972819D01*
X-1576324Y-963676D01*
X-1567180Y-953312D01*
X-1559509Y-941832D01*
X-1553413Y-929436D01*
X-1548942Y-916330D01*
X-1546250Y-902766D01*
X-1545386Y-889000D01*
X-1546250Y-875233D01*
X-1548942Y-861669D01*
X-1553413Y-848563D01*
X-1559509Y-836168D01*
X-1567180Y-824687D01*
X-1576324Y-814324D01*
X-1586687Y-805180D01*
X-1598168Y-797509D01*
X-1610563Y-791413D01*
X-1623669Y-786942D01*
X-1637233Y-784250D01*
X-1651000Y-783386D01*
X-1664766Y-784250D01*
X-1678330Y-786942D01*
X-1691436Y-791413D01*
X-1703832Y-797509D01*
X-1715312Y-805180D01*
X-1725675Y-814324D01*
X-1734566Y-824382D01*
X-1737817Y-826871D01*
X-1741728Y-827836D01*
X-1745742Y-827227D01*
X-1749196Y-825042D01*
X-1751533Y-821690D01*
X-1752346Y-817727D01*
X-1752346Y-706272D01*
X-1751533Y-702310D01*
X-1749196Y-698957D01*
X-1745742Y-696772D01*
X-1741728Y-696163D01*
X-1737817Y-697128D01*
X-1734566Y-699617D01*
X-1725675Y-709676D01*
X-1715312Y-718820D01*
X-1703832Y-726490D01*
X-1691436Y-732586D01*
X-1678330Y-737057D01*
X-1664766Y-739749D01*
X-1651000Y-740613D01*
X-1637233Y-739749D01*
X-1623669Y-737057D01*
X-1610563Y-732586D01*
X-1598168Y-726490D01*
X-1586687Y-718820D01*
X-1576324Y-709676D01*
X-1567180Y-699312D01*
X-1559509Y-687832D01*
X-1553413Y-675436D01*
X-1548942Y-662330D01*
X-1546250Y-648766D01*
X-1545488Y-639978D01*
X-1544167Y-577392D01*
X-1543354Y-573633D01*
X-1541170Y-570433D01*
X-1476349Y-505612D01*
X-1471828Y-500024D01*
X-1468780Y-494030D01*
X-1467002Y-487476D01*
X-1466596Y-482193D01*
X-1466596Y-195275D01*
X-1465834Y-191363D01*
X-1462938Y-187401D01*
X-1459636Y-185166D01*
X-1455724Y-184404D01*
X-1092250Y-184404D01*
X-1088237Y-185216D01*
X-1084884Y-187553D01*
X-1082700Y-190957D01*
X-1082090Y-195021D01*
X-1083056Y-198932D01*
X-1085545Y-202184D01*
X-1089050Y-204216D01*
X-1094079Y-205841D01*
X-1100785Y-209448D01*
X-1106982Y-214528D01*
X-1187602Y-295148D01*
X-1190447Y-297180D01*
X-1193901Y-298094D01*
X-1197406Y-297789D01*
X-1200607Y-296265D01*
X-1203706Y-294081D01*
X-1212646Y-289915D01*
X-1222095Y-287375D01*
X-1231900Y-286512D01*
X-1241704Y-287375D01*
X-1251153Y-289915D01*
X-1260094Y-294081D01*
X-1268120Y-299720D01*
X-1275080Y-306679D01*
X-1280718Y-314706D01*
X-1284884Y-323646D01*
X-1287424Y-333095D01*
X-1288288Y-342900D01*
X-1287424Y-352704D01*
X-1284884Y-362153D01*
X-1280718Y-371094D01*
X-1275080Y-379120D01*
X-1267714Y-386537D01*
X-1265478Y-389788D01*
X-1264716Y-393700D01*
X-1265478Y-397611D01*
X-1267714Y-400862D01*
X-1275080Y-408279D01*
X-1280718Y-416306D01*
X-1284884Y-425246D01*
X-1287424Y-434695D01*
X-1288288Y-444500D01*
X-1287424Y-454304D01*
X-1284884Y-463753D01*
X-1280718Y-472693D01*
X-1275080Y-480720D01*
X-1268120Y-487680D01*
X-1260094Y-493318D01*
X-1251153Y-497484D01*
X-1241704Y-500024D01*
X-1231900Y-500888D01*
X-1222095Y-500024D01*
X-1212646Y-497484D01*
X-1203706Y-493318D01*
X-1195679Y-487680D01*
X-1188262Y-480314D01*
X-1185011Y-478078D01*
X-1181100Y-477316D01*
X-1177188Y-478078D01*
X-1173937Y-480314D01*
X-1166520Y-487680D01*
X-1158494Y-493318D01*
X-1149553Y-497484D01*
X-1140104Y-500024D01*
X-1130300Y-500888D01*
X-1120495Y-500024D01*
X-1111046Y-497484D01*
X-1102106Y-493318D01*
X-1094079Y-487680D01*
X-1087120Y-480720D01*
X-1081481Y-472693D01*
X-1077315Y-463753D01*
X-1074775Y-454304D01*
X-1073912Y-444500D01*
X-1074775Y-434695D01*
X-1077315Y-425246D01*
X-1081481Y-416306D01*
X-1087120Y-408279D01*
X-1094079Y-401320D01*
X-1102106Y-395681D01*
X-1111046Y-391515D01*
X-1120495Y-388975D01*
X-1130300Y-388112D01*
X-1140104Y-388975D01*
X-1149705Y-391566D01*
X-1153617Y-391820D01*
X-1156665Y-390855D01*
X-1157935Y-394309D01*
X-1160729Y-397256D01*
X-1166520Y-401320D01*
X-1173937Y-408686D01*
X-1177188Y-410921D01*
X-1181100Y-411683D01*
X-1185011Y-410921D01*
X-1188262Y-408686D01*
X-1195374Y-401624D01*
X-1197508Y-398424D01*
X-1198321Y-394665D01*
X-1197660Y-390855D01*
X-1195679Y-387604D01*
X-1192580Y-385318D01*
X-1186281Y-382270D01*
X-1182776Y-381304D01*
X-1173581Y-380441D01*
X-1169517Y-379222D01*
X-1165453Y-378866D01*
X-1162202Y-379882D01*
X-1161288Y-376936D01*
X-1158798Y-373888D01*
X-1153617Y-369671D01*
X-1114704Y-330758D01*
X-1111300Y-328472D01*
X-1107236Y-327761D01*
X-1103223Y-328726D01*
X-1099921Y-331165D01*
X-1097889Y-334721D01*
X-1097432Y-338836D01*
X-1097788Y-342900D01*
X-1096924Y-352704D01*
X-1094384Y-362153D01*
X-1090218Y-371094D01*
X-1084580Y-379120D01*
X-1077620Y-386080D01*
X-1069594Y-391718D01*
X-1060653Y-395884D01*
X-1051204Y-398424D01*
X-1041400Y-399288D01*
X-1031595Y-398424D01*
X-1022146Y-395884D01*
X-1013206Y-391718D01*
X-1005179Y-386080D01*
X-998219Y-379120D01*
X-992581Y-371094D01*
X-988415Y-362153D01*
X-985875Y-352704D01*
X-985012Y-342900D01*
X-985875Y-333095D01*
X-988415Y-323646D01*
X-992581Y-314706D01*
X-998219Y-306679D01*
X-1005586Y-299262D01*
X-1007821Y-296011D01*
X-1008583Y-292100D01*
X-1007821Y-288188D01*
X-1005586Y-284937D01*
X-998219Y-277520D01*
X-992581Y-269494D01*
X-988415Y-260553D01*
X-985875Y-251104D01*
X-985012Y-241300D01*
X-985875Y-231495D01*
X-988415Y-222046D01*
X-992581Y-213106D01*
X-998219Y-205079D01*
X-1001521Y-201726D01*
X-1003757Y-198475D01*
X-1004519Y-194564D01*
X-1003757Y-190652D01*
X-1001521Y-187401D01*
X-998270Y-185166D01*
X-994359Y-184404D01*
X-982675Y-184404D01*
X-978763Y-185166D01*
X-975461Y-187401D01*
X-901852Y-261010D01*
X-896264Y-265531D01*
X-890269Y-268579D01*
X-883716Y-270357D01*
X-878433Y-270764D01*
X-869086Y-270764D01*
X-865835Y-271322D01*
X-862888Y-272897D01*
X-850900Y-282092D01*
X-843178Y-287528D01*
X-834288Y-291693D01*
X-824788Y-294233D01*
X-814984Y-295097D01*
X-805230Y-294233D01*
X-795731Y-291693D01*
X-786841Y-287528D01*
X-778764Y-281889D01*
X-771855Y-274929D01*
X-766216Y-266903D01*
X-762050Y-257962D01*
X-759510Y-248513D01*
X-758647Y-238709D01*
X-759510Y-228904D01*
X-762050Y-219456D01*
X-766216Y-210515D01*
X-771855Y-202488D01*
X-778764Y-195529D01*
X-791159Y-187096D01*
X-793191Y-183845D01*
X-793953Y-180136D01*
X-793191Y-176377D01*
X-791159Y-173126D01*
X-778764Y-164693D01*
X-771855Y-157734D01*
X-766216Y-149707D01*
X-762050Y-140766D01*
X-759510Y-131318D01*
X-758647Y-121513D01*
X-759510Y-111709D01*
X-762050Y-102260D01*
X-766216Y-93319D01*
X-771855Y-85293D01*
X-778764Y-78333D01*
X-790752Y-70104D01*
X-792784Y-66852D01*
X-793546Y-63093D01*
X-792784Y-59334D01*
X-790752Y-56134D01*
X-778764Y-47853D01*
X-771855Y-40944D01*
X-766216Y-32867D01*
X-762050Y-23977D01*
X-759510Y-14478D01*
X-758647Y-4724D01*
X-759510Y5080D01*
X-762050Y14579D01*
X-766216Y23469D01*
X-771855Y31546D01*
X-778764Y38455D01*
X-786841Y44094D01*
X-795731Y48260D01*
X-805230Y50800D01*
X-814984Y51663D01*
X-824788Y50800D01*
X-834288Y48260D01*
X-843178Y44094D01*
X-851865Y37998D01*
X-863092Y29209D01*
X-865530Y27838D01*
X-868273Y27127D01*
X-875080Y26416D01*
X-881430Y24384D01*
X-887323Y20929D01*
X-891336Y17526D01*
X-975461Y-66598D01*
X-978763Y-68834D01*
X-982675Y-69596D01*
X-1013460Y-69596D01*
X-1017320Y-68834D01*
X-1020571Y-66700D01*
X-1022807Y-63500D01*
X-1023619Y-59690D01*
X-1023010Y-55829D01*
X-1020927Y-52527D01*
X-1017778Y-50241D01*
X-1014730Y-48818D01*
X-1006703Y-43180D01*
X-999744Y-36220D01*
X-994105Y-28194D01*
X-989939Y-19253D01*
X-987399Y-9804D01*
X-986536Y0D01*
X-987399Y9804D01*
X-989939Y19253D01*
X-994105Y28194D01*
X-999744Y36220D01*
X-1006703Y43180D01*
X-1014730Y48818D01*
X-1023670Y52984D01*
X-1033119Y55524D01*
X-1042924Y56388D01*
X-1052728Y55524D01*
X-1062177Y52984D01*
X-1071118Y48818D01*
X-1079144Y43180D01*
X-1085799Y36576D01*
X-1089050Y34340D01*
X-1092962Y33578D01*
X-1096873Y34340D01*
X-1100124Y36576D01*
X-1106779Y43180D01*
X-1114806Y48818D01*
X-1123746Y52984D01*
X-1133195Y55524D01*
X-1143000Y56388D01*
X-1152804Y55524D01*
X-1162253Y52984D01*
X-1171194Y48818D01*
X-1179220Y43180D01*
X-1186180Y36220D01*
X-1191818Y28194D01*
X-1195984Y19253D01*
X-1198575Y9601D01*
X-1201013Y-9753D01*
X-1201978Y-12954D01*
X-1204061Y-15798D01*
X-1207363Y-18034D01*
X-1211275Y-18796D01*
X-1341424Y-18796D01*
X-1345336Y-18034D01*
X-1349298Y-15138D01*
X-1351534Y-11836D01*
X-1352296Y-7924D01*
X-1352296Y482092D01*
X-1353058Y489254D01*
X-1355090Y495604D01*
X-1358544Y501497D01*
X-1361948Y505510D01*
X-1399387Y542950D01*
X-1404975Y547471D01*
X-1410970Y550519D01*
X-1417523Y552297D01*
X-1422806Y552704D01*
X-1519224Y552704D01*
X-1523136Y553466D01*
X-1526438Y555701D01*
X-1541170Y570433D01*
X-1543354Y573633D01*
X-1544167Y577392D01*
X-1545691Y643331D01*
X-1546250Y648614D01*
X-1548942Y662330D01*
X-1553413Y675436D01*
X-1559509Y687832D01*
X-1567180Y699312D01*
X-1576324Y709676D01*
X-1586687Y718820D01*
X-1598168Y726490D01*
X-1610563Y732586D01*
X-1623669Y737057D01*
X-1637233Y739749D01*
X-1651000Y740613D01*
X-1664766Y739749D01*
X-1678330Y737057D01*
X-1691436Y732586D01*
X-1703832Y726490D01*
X-1715312Y718820D01*
X-1725675Y709676D01*
X-1734566Y699617D01*
X-1737817Y697128D01*
X-1741728Y696163D01*
X-1745742Y696772D01*
X-1749196Y698957D01*
X-1751533Y702310D01*
X-1752346Y706272D01*
X-1752346Y817727D01*
X-1751533Y821690D01*
X-1749196Y825042D01*
X-1745742Y827227D01*
X-1741728Y827836D01*
X-1737817Y826871D01*
X-1734566Y824382D01*
X-1725675Y814324D01*
X-1715312Y805180D01*
X-1703832Y797509D01*
X-1691436Y791413D01*
X-1678330Y786942D01*
X-1664766Y784250D01*
X-1651000Y783386D01*
X-1637233Y784250D01*
X-1623669Y786942D01*
X-1610563Y791413D01*
X-1598168Y797509D01*
X-1586687Y805180D01*
X-1576324Y814324D01*
X-1567180Y824687D01*
X-1559509Y836168D01*
X-1553413Y848563D01*
X-1548942Y861771D01*
X-1546961Y865174D01*
X-1543862Y867562D01*
X-1540052Y868629D01*
X-1536192Y868121D01*
X-1532737Y866241D01*
X-1530299Y863142D01*
X-1529181Y859383D01*
X-1528724Y853795D01*
X-1526184Y844346D01*
X-1522018Y835406D01*
X-1516380Y827379D01*
X-1509420Y820419D01*
X-1501394Y814781D01*
X-1492453Y810615D01*
X-1483004Y808075D01*
X-1473200Y807212D01*
X-1463395Y808075D01*
X-1453946Y810615D01*
X-1445006Y814781D01*
X-1436979Y820419D01*
X-1430020Y827379D01*
X-1424381Y835406D01*
X-1420215Y844346D01*
X-1417675Y853795D01*
X-1416812Y863600D01*
X-1417675Y873404D01*
X-1420215Y882853D01*
X-1424381Y891794D01*
X-1430020Y899820D01*
X-1436979Y906780D01*
X-1445006Y912418D01*
X-1453946Y916584D01*
X-1463395Y919124D01*
X-1473200Y919987D01*
X-1483004Y919124D01*
X-1492453Y916584D01*
X-1501394Y912418D01*
X-1509420Y906780D01*
X-1516380Y899820D01*
X-1522018Y891794D01*
X-1526032Y883107D01*
X-1528368Y879957D01*
X-1531721Y877874D01*
X-1535633Y877265D01*
X-1539443Y878128D01*
X-1542643Y880414D01*
X-1544726Y883767D01*
X-1545437Y887628D01*
X-1544167Y946607D01*
X-1543354Y950366D01*
X-1541170Y953566D01*
X-1526438Y968298D01*
X-1523136Y970534D01*
X-1519224Y971296D01*
X-1448308Y971296D01*
X-1441145Y972058D01*
X-1434795Y974090D01*
X-1428902Y977544D01*
X-1424889Y980948D01*
X-1120038Y1285798D01*
X-1116736Y1288034D01*
X-1112824Y1288796D01*
X-1046175Y1288796D01*
X-1042263Y1288034D01*
X-1038961Y1285798D01*
X-1026312Y1273149D01*
X-1020724Y1268628D01*
X-1014628Y1265529D01*
X-1010056Y1264158D01*
X-1006094Y1263751D01*
X-1003350Y1263091D01*
X-1000963Y1261668D01*
X-988517Y1252067D01*
X-980694Y1246581D01*
X-971753Y1242415D01*
X-962304Y1239875D01*
X-952500Y1239012D01*
X-942746Y1239875D01*
X-931824Y1242872D01*
X-927862Y1243126D01*
X-924102Y1241856D01*
X-921105Y1239215D01*
X-919327Y1235659D01*
X-916584Y1225346D01*
X-912418Y1216456D01*
X-906068Y1207465D01*
X-904494Y1203960D01*
X-904290Y1200099D01*
X-905560Y1196441D01*
X-908100Y1193546D01*
X-910590Y1191615D01*
X-917346Y1184249D01*
X-922832Y1175867D01*
X-926846Y1166723D01*
X-929335Y1157020D01*
X-930148Y1147013D01*
X-929335Y1137056D01*
X-926846Y1127353D01*
X-922832Y1118209D01*
X-917346Y1109827D01*
X-910590Y1102461D01*
X-902665Y1096264D01*
X-893876Y1091539D01*
X-884377Y1088288D01*
X-874521Y1086612D01*
X-864514Y1086612D01*
X-854659Y1088288D01*
X-845159Y1091539D01*
X-836371Y1096264D01*
X-828446Y1102461D01*
X-821690Y1109827D01*
X-816203Y1118209D01*
X-812190Y1127353D01*
X-809701Y1137056D01*
X-808888Y1147013D01*
X-809701Y1157020D01*
X-812190Y1166723D01*
X-816203Y1175867D01*
X-821690Y1184249D01*
X-826008Y1188974D01*
X-828040Y1192276D01*
X-828700Y1196086D01*
X-827887Y1199845D01*
X-825753Y1203045D01*
X-820419Y1208379D01*
X-814781Y1216406D01*
X-810615Y1225346D01*
X-808075Y1234795D01*
X-807212Y1244600D01*
X-808075Y1254404D01*
X-810615Y1263853D01*
X-814781Y1272794D01*
X-820419Y1280820D01*
X-827379Y1287780D01*
X-835406Y1293418D01*
X-844346Y1297584D01*
X-853795Y1300124D01*
X-863600Y1300988D01*
X-873353Y1300124D01*
X-884275Y1297127D01*
X-888237Y1296873D01*
X-891997Y1298143D01*
X-894994Y1300784D01*
X-896772Y1304340D01*
X-899515Y1314653D01*
X-903681Y1323594D01*
X-906526Y1327658D01*
X-908202Y1331468D01*
X-908202Y1335532D01*
X-906526Y1339342D01*
X-903681Y1343406D01*
X-899515Y1352346D01*
X-896975Y1361795D01*
X-896112Y1371600D01*
X-896975Y1381404D01*
X-899515Y1390853D01*
X-903681Y1399794D01*
X-909319Y1407820D01*
X-916279Y1414780D01*
X-924306Y1420418D01*
X-933246Y1424584D01*
X-942695Y1427124D01*
X-952500Y1427988D01*
X-962304Y1427124D01*
X-971753Y1424584D01*
X-980694Y1420418D01*
X-989330Y1414322D01*
X-1000912Y1405331D01*
X-1003350Y1403908D01*
X-1006094Y1403248D01*
X-1009954Y1402842D01*
X-1016304Y1400810D01*
X-1022197Y1397355D01*
X-1026210Y1393952D01*
X-1038961Y1381201D01*
X-1042263Y1378966D01*
X-1046175Y1378204D01*
X-1142492Y1378204D01*
X-1149654Y1377442D01*
X-1156004Y1375410D01*
X-1161897Y1371955D01*
X-1165910Y1368552D01*
X-1470761Y1063701D01*
X-1474063Y1061466D01*
X-1477975Y1060704D01*
X-1519224Y1060704D01*
X-1523136Y1061466D01*
X-1526438Y1063701D01*
X-1541170Y1078433D01*
X-1543354Y1081633D01*
X-1544167Y1085392D01*
X-1545691Y1151331D01*
X-1546250Y1156614D01*
X-1548942Y1170330D01*
X-1553413Y1183436D01*
X-1559509Y1195832D01*
X-1567180Y1207312D01*
X-1576324Y1217676D01*
X-1586687Y1226820D01*
X-1598168Y1234490D01*
X-1610563Y1240586D01*
X-1623669Y1245057D01*
X-1637233Y1247749D01*
X-1651000Y1248613D01*
X-1664766Y1247749D01*
X-1678330Y1245057D01*
X-1691436Y1240586D01*
X-1703832Y1234490D01*
X-1715312Y1226820D01*
X-1725675Y1217676D01*
X-1734566Y1207617D01*
X-1737817Y1205128D01*
X-1741728Y1204163D01*
X-1745742Y1204772D01*
X-1749196Y1206957D01*
X-1751533Y1210310D01*
X-1752346Y1214272D01*
X-1752346Y1527251D01*
X-1751431Y1547977D01*
X-1748840Y1567383D01*
X-1744522Y1586484D01*
X-1738630Y1605127D01*
X-1731111Y1623212D01*
X-1722018Y1640535D01*
X-1711502Y1656994D01*
X-1699564Y1672539D01*
X-1686306Y1686915D01*
X-1671828Y1700123D01*
X-1656283Y1712010D01*
X-1639773Y1722475D01*
X-1622399Y1731467D01*
X-1604314Y1738934D01*
X-1585620Y1744776D01*
X-1566519Y1748993D01*
X-1547114Y1751482D01*
X-1527251Y1752346D01*
X-1309776Y1752346D01*
X-1305610Y1751431D01*
X-1302207Y1748942D01*
X-1300124Y1745234D01*
X-1299718Y1741017D01*
X-1301089Y1736953D01*
X-1303985Y1733854D01*
X-1306220Y1732280D01*
X-1313180Y1725320D01*
X-1318818Y1717293D01*
X-1322984Y1708353D01*
X-1325524Y1698904D01*
X-1326388Y1689100D01*
X-1325524Y1679295D01*
X-1322984Y1669846D01*
X-1318818Y1660906D01*
X-1313180Y1652879D01*
X-1306220Y1645920D01*
X-1298194Y1640281D01*
X-1289253Y1636115D01*
X-1279804Y1633575D01*
X-1270000Y1632712D01*
X-1260195Y1633575D01*
X-1250746Y1636115D01*
X-1241806Y1640281D01*
X-1233779Y1645920D01*
X-1226820Y1652879D01*
X-1221181Y1660906D01*
X-1217015Y1669846D01*
X-1214475Y1679295D01*
X-1213612Y1689100D01*
X-1214475Y1698904D01*
X-1217015Y1708353D01*
X-1221181Y1717293D01*
X-1226820Y1725320D01*
X-1233779Y1732280D01*
X-1236014Y1733854D01*
X-1238910Y1736953D01*
X-1240282Y1741017D01*
X-1239875Y1745234D01*
X-1237792Y1748942D01*
X-1234389Y1751431D01*
X-1230223Y1752346D01*
X-674776Y1752346D01*
X-670610Y1751431D01*
X-667207Y1748942D01*
X-665124Y1745234D01*
X-664718Y1741017D01*
X-666089Y1736953D01*
X-668985Y1733854D01*
X-671220Y1732280D01*
X-678180Y1725320D01*
X-683818Y1717293D01*
X-687984Y1708353D01*
X-690524Y1698904D01*
X-691388Y1689100D01*
X-690524Y1679295D01*
X-687984Y1669846D01*
X-683818Y1660906D01*
X-678180Y1652879D01*
X-671220Y1645920D01*
X-663194Y1640281D01*
X-654253Y1636115D01*
X-644804Y1633575D01*
X-635000Y1632712D01*
X-625195Y1633575D01*
X-615746Y1636115D01*
X-606806Y1640281D01*
X-598779Y1645920D01*
X-591820Y1652879D01*
X-586181Y1660906D01*
X-582015Y1669846D01*
X-579475Y1679295D01*
X-578612Y1689100D01*
X-579475Y1698904D01*
X-582015Y1708353D01*
X-586181Y1717293D01*
X-591820Y1725320D01*
X-598779Y1732280D01*
X-601014Y1733854D01*
X-603910Y1736953D01*
X-605282Y1741017D01*
X-604875Y1745234D01*
X-602792Y1748942D01*
X-599389Y1751431D01*
X-595223Y1752346D01*
X-39776Y1752346D01*
X-35610Y1751431D01*
X-32207Y1748942D01*
X-30124Y1745234D01*
X-29718Y1741017D01*
X-31089Y1736953D01*
X-33985Y1733854D01*
X-36220Y1732280D01*
X-43180Y1725320D01*
X-48818Y1717293D01*
X-52984Y1708353D01*
X-55524Y1698904D01*
X-56388Y1689100D01*
X-55524Y1679295D01*
X-52984Y1669846D01*
X-48818Y1660906D01*
X-43180Y1652879D01*
X-36220Y1645920D01*
X-28194Y1640281D01*
X-19253Y1636115D01*
X-9804Y1633575D01*
X0Y1632712D01*
X9804Y1633575D01*
X19253Y1636115D01*
X28194Y1640281D01*
X36220Y1645920D01*
X43180Y1652879D01*
X48818Y1660906D01*
X52984Y1669846D01*
X55524Y1679295D01*
X56388Y1689100D01*
X55524Y1698904D01*
X52984Y1708353D01*
X48818Y1717293D01*
X43180Y1725320D01*
X36220Y1732280D01*
X33985Y1733854D01*
X31089Y1736953D01*
X29718Y1741017D01*
X30124Y1745234D01*
X32207Y1748942D01*
X35610Y1751431D01*
X39776Y1752346D01*
X595223Y1752346D01*
X599389Y1751431D01*
X602792Y1748942D01*
X604875Y1745234D01*
X605282Y1741017D01*
X603910Y1736953D01*
X601014Y1733854D01*
X598779Y1732280D01*
X591820Y1725320D01*
X586181Y1717293D01*
X582015Y1708353D01*
X579475Y1698904D01*
X578612Y1689100D01*
X579475Y1679295D01*
X582015Y1669846D01*
X586181Y1660906D01*
X591820Y1652879D01*
X598779Y1645920D01*
X606806Y1640281D01*
X615746Y1636115D01*
X625195Y1633575D01*
X635000Y1632712D01*
X644804Y1633575D01*
X654253Y1636115D01*
X663194Y1640281D01*
X671220Y1645920D01*
X678180Y1652879D01*
X683818Y1660906D01*
X687984Y1669846D01*
X690524Y1679295D01*
X691388Y1689100D01*
X690524Y1698904D01*
X687984Y1708353D01*
X683818Y1717293D01*
X678180Y1725320D01*
X671220Y1732280D01*
X668985Y1733854D01*
X666089Y1736953D01*
X664718Y1741017D01*
X665124Y1745234D01*
X667207Y1748942D01*
X670610Y1751431D01*
X674776Y1752346D01*
X1230223Y1752346D01*
X1234389Y1751431D01*
X1237792Y1748942D01*
X1239875Y1745234D01*
X1240282Y1741017D01*
X1238910Y1736953D01*
X1236014Y1733854D01*
X1233779Y1732280D01*
X1226820Y1725320D01*
X1221181Y1717293D01*
X1217015Y1708353D01*
X1214475Y1698904D01*
X1213612Y1689100D01*
X1214475Y1679295D01*
X1217015Y1669846D01*
X1221181Y1660906D01*
X1226820Y1652879D01*
X1233779Y1645920D01*
X1241806Y1640281D01*
X1250746Y1636115D01*
X1260195Y1633575D01*
X1270000Y1632712D01*
X1279804Y1633575D01*
X1289253Y1636115D01*
X1298194Y1640281D01*
X1306220Y1645920D01*
X1313180Y1652879D01*
X1318818Y1660906D01*
X1322984Y1669846D01*
X1325524Y1679295D01*
X1326388Y1689100D01*
X1325524Y1698904D01*
X1322984Y1708353D01*
X1318818Y1717293D01*
X1313180Y1725320D01*
X1306220Y1732280D01*
X1303985Y1733854D01*
X1301089Y1736953D01*
X1299718Y1741017D01*
X1300124Y1745234D01*
X1302207Y1748942D01*
X1305610Y1751431D01*
X1309776Y1752346D01*
X1527251Y1752346D01*
X1547977Y1751431D01*
X1567383Y1748840D01*
X1586484Y1744522D01*
X1605127Y1738630D01*
X1623212Y1731111D01*
X1640535Y1722018D01*
X1656994Y1711502D01*
X1672539Y1699564D01*
X1686915Y1686306D01*
X1700123Y1671828D01*
X1712010Y1656283D01*
X1722475Y1639773D01*
X1731467Y1622399D01*
X1738934Y1604314D01*
X1744776Y1585620D01*
X1748993Y1566519D01*
X1751482Y1547114D01*
X1752346Y1527251D01*
X1752346Y1214272D01*
X1751533Y1210310D01*
X1749196Y1206957D01*
X1745742Y1204772D01*
X1741728Y1204163D01*
X1737817Y1205128D01*
X1734566Y1207617D01*
X1725675Y1217676D01*
X1715312Y1226820D01*
X1703832Y1234490D01*
X1691436Y1240586D01*
X1678330Y1245057D01*
X1664766Y1247749D01*
X1651000Y1248613D01*
X1637233Y1247749D01*
X1623669Y1245057D01*
X1610563Y1240586D01*
X1598168Y1234490D01*
X1586687Y1226820D01*
X1536852Y1184859D01*
X1533601Y1182979D01*
X1529842Y1182471D01*
X1526184Y1183335D01*
X1523085Y1185418D01*
X1373682Y1334871D01*
X1367485Y1339951D01*
X1360881Y1343507D01*
X1353667Y1345692D01*
X1345692Y1346454D01*
X-394462Y1346454D01*
X-398881Y1347470D01*
X-410768Y1353159D01*
X-416306Y1356918D01*
X-425246Y1361084D01*
X-434695Y1363624D01*
X-444500Y1364488D01*
X-454304Y1363624D01*
X-463753Y1361084D01*
X-472693Y1356918D01*
X-480720Y1351280D01*
X-487680Y1344320D01*
X-493318Y1336294D01*
X-497484Y1327353D01*
X-500024Y1317904D01*
X-500888Y1308100D01*
X-500024Y1298295D01*
X-497484Y1288846D01*
X-493318Y1279906D01*
X-487680Y1271879D01*
X-480720Y1264920D01*
X-472693Y1259281D01*
X-463753Y1255115D01*
X-454304Y1252575D01*
X-444500Y1251712D01*
X-434695Y1252575D01*
X-425246Y1255115D01*
X-416306Y1259281D01*
X-410768Y1263040D01*
X-398881Y1268730D01*
X-394462Y1269746D01*
X-344017Y1269746D01*
X-340410Y1269085D01*
X-337210Y1267155D01*
X-334975Y1264208D01*
X-333908Y1260652D01*
X-334213Y1256944D01*
X-334924Y1254404D01*
X-335788Y1244600D01*
X-334924Y1234795D01*
X-332384Y1225346D01*
X-328218Y1216406D01*
X-322580Y1208379D01*
X-317296Y1203045D01*
X-315112Y1199896D01*
X-314299Y1196086D01*
X-314960Y1192276D01*
X-316992Y1189024D01*
X-321360Y1184249D01*
X-326796Y1175867D01*
X-330860Y1166723D01*
X-333298Y1157020D01*
X-334111Y1147013D01*
X-333298Y1137056D01*
X-330860Y1127353D01*
X-326796Y1118209D01*
X-321360Y1109827D01*
X-314553Y1102461D01*
X-306679Y1096264D01*
X-297840Y1091539D01*
X-288391Y1088288D01*
X-278536Y1086612D01*
X-268478Y1086612D01*
X-258622Y1088288D01*
X-249174Y1091539D01*
X-240334Y1096264D01*
X-232460Y1102461D01*
X-225653Y1109827D01*
X-220217Y1118209D01*
X-216154Y1127353D01*
X-213715Y1137056D01*
X-212902Y1147013D01*
X-213715Y1157020D01*
X-216154Y1166723D01*
X-220217Y1175867D01*
X-225653Y1184249D01*
X-232460Y1191615D01*
X-234899Y1193546D01*
X-237439Y1196441D01*
X-238709Y1200099D01*
X-238556Y1203909D01*
X-236931Y1207414D01*
X-230581Y1216456D01*
X-226415Y1225346D01*
X-223875Y1234795D01*
X-223012Y1244600D01*
X-223875Y1254404D01*
X-224586Y1256944D01*
X-224891Y1260652D01*
X-223824Y1264208D01*
X-221589Y1267155D01*
X-218389Y1269085D01*
X-214782Y1269746D01*
X1326083Y1269746D01*
X1329994Y1268984D01*
X1333296Y1266748D01*
X1482648Y1117396D01*
X1484884Y1114094D01*
X1485646Y1110183D01*
X1485646Y369417D01*
X1484985Y365810D01*
X1483055Y362610D01*
X1480108Y360375D01*
X1476552Y359308D01*
X1472844Y359613D01*
X1470304Y360324D01*
X1460500Y361188D01*
X1450695Y360324D01*
X1441246Y357784D01*
X1432306Y353618D01*
X1424279Y347980D01*
X1417320Y341020D01*
X1411681Y332994D01*
X1407515Y324053D01*
X1404975Y314604D01*
X1404112Y304800D01*
X1404975Y294995D01*
X1407515Y285546D01*
X1411681Y276606D01*
X1420571Y264261D01*
X1421333Y260350D01*
X1420571Y256438D01*
X1411681Y244094D01*
X1407515Y235153D01*
X1404975Y225704D01*
X1404112Y215900D01*
X1404975Y206095D01*
X1407515Y196646D01*
X1411681Y187706D01*
X1415440Y182168D01*
X1421130Y170281D01*
X1422146Y165862D01*
X1422146Y37338D01*
X1421130Y32918D01*
X1415440Y21031D01*
X1411681Y15494D01*
X1407515Y6553D01*
X1404975Y-2895D01*
X1404112Y-12700D01*
X1404975Y-22504D01*
X1407515Y-31953D01*
X1411681Y-40894D01*
X1415440Y-46431D01*
X1420317Y-56641D01*
X1421333Y-60960D01*
X1420418Y-65278D01*
X1417777Y-68834D01*
X1413865Y-70866D01*
X1409446Y-71069D01*
X1405331Y-69392D01*
X1399794Y-65481D01*
X1390853Y-61315D01*
X1381404Y-58775D01*
X1371600Y-57912D01*
X1361795Y-58775D01*
X1352346Y-61315D01*
X1343406Y-65481D01*
X1331061Y-74371D01*
X1327150Y-75133D01*
X1323238Y-74371D01*
X1310894Y-65481D01*
X1301953Y-61315D01*
X1292504Y-58775D01*
X1282700Y-57912D01*
X1272895Y-58775D01*
X1263446Y-61315D01*
X1254506Y-65481D01*
X1242161Y-74371D01*
X1238250Y-75133D01*
X1234338Y-74371D01*
X1221994Y-65481D01*
X1213053Y-61315D01*
X1203604Y-58775D01*
X1193800Y-57912D01*
X1183995Y-58775D01*
X1174546Y-61315D01*
X1165606Y-65481D01*
X1157579Y-71120D01*
X1150620Y-78079D01*
X1144981Y-86106D01*
X1140815Y-95046D01*
X1138275Y-104495D01*
X1138123Y-106324D01*
X1136802Y-110489D01*
X1133856Y-113741D01*
X1132484Y-114300D01*
X1133856Y-114858D01*
X1136802Y-118110D01*
X1138123Y-122275D01*
X1138275Y-124104D01*
X1140815Y-133553D01*
X1144981Y-142494D01*
X1150620Y-150520D01*
X1157579Y-157480D01*
X1165606Y-163118D01*
X1174546Y-167284D01*
X1183995Y-169824D01*
X1193800Y-170688D01*
X1203604Y-169824D01*
X1213053Y-167284D01*
X1221994Y-163118D01*
X1234338Y-154228D01*
X1238250Y-153466D01*
X1242161Y-154228D01*
X1254506Y-163118D01*
X1263446Y-167284D01*
X1272895Y-169824D01*
X1282700Y-170688D01*
X1292504Y-169824D01*
X1301953Y-167284D01*
X1310894Y-163118D01*
X1323238Y-154228D01*
X1327150Y-153466D01*
X1331061Y-154228D01*
X1343406Y-163118D01*
X1352346Y-167284D01*
X1361795Y-169824D01*
X1371600Y-170688D01*
X1381404Y-169824D01*
X1390853Y-167284D01*
X1399794Y-163118D01*
X1406144Y-158648D01*
X1410208Y-156972D01*
X1414627Y-157175D01*
X1418539Y-159207D01*
X1421180Y-162661D01*
X1422146Y-166979D01*
X1422146Y-318262D01*
X1421130Y-322681D01*
X1415440Y-334568D01*
X1411681Y-340106D01*
X1407515Y-349046D01*
X1404975Y-358495D01*
X1404112Y-368300D01*
X1404975Y-378104D01*
X1407515Y-387553D01*
X1411681Y-396494D01*
X1415440Y-402031D01*
X1421130Y-413918D01*
X1422146Y-418338D01*
X1422146Y-737362D01*
X1421130Y-741781D01*
X1415440Y-753668D01*
X1411681Y-759206D01*
X1407515Y-768146D01*
X1404975Y-777595D01*
X1404112Y-787400D01*
X1404975Y-797204D01*
X1405686Y-799744D01*
X1405991Y-803452D01*
X1404924Y-807008D01*
X1402689Y-809955D01*
X1399489Y-811885D01*
X1395882Y-812546D01*
X1207617Y-812546D01*
X1204010Y-811885D01*
X1200810Y-809955D01*
X1198575Y-807008D01*
X1197508Y-803452D01*
X1197813Y-799744D01*
X1198524Y-797204D01*
X1199388Y-787400D01*
X1198524Y-777595D01*
X1195984Y-768146D01*
X1191818Y-759206D01*
X1186180Y-751179D01*
X1179220Y-744220D01*
X1171194Y-738581D01*
X1162253Y-734415D01*
X1152804Y-731875D01*
X1144930Y-731215D01*
X1141526Y-730300D01*
X1138631Y-728268D01*
X1136599Y-725373D01*
X1135684Y-721969D01*
X1135024Y-714095D01*
X1132484Y-704646D01*
X1128318Y-695706D01*
X1124559Y-690168D01*
X1118870Y-678281D01*
X1117854Y-673862D01*
X1117854Y-123189D01*
X1118819Y-118872D01*
X1121460Y-115417D01*
X1123594Y-114300D01*
X1121460Y-113182D01*
X1118819Y-109728D01*
X1117854Y-105410D01*
X1117854Y13462D01*
X1118870Y17881D01*
X1124559Y29768D01*
X1128318Y35306D01*
X1132484Y44246D01*
X1135024Y53695D01*
X1135888Y63500D01*
X1135024Y73304D01*
X1132484Y82753D01*
X1128318Y91694D01*
X1122680Y99720D01*
X1115720Y106680D01*
X1107694Y112318D01*
X1098804Y116433D01*
X1087882Y119278D01*
X1084122Y121158D01*
X1081430Y124460D01*
X1080312Y128524D01*
X1080922Y132740D01*
X1083259Y136296D01*
X1165250Y218287D01*
X1169771Y223875D01*
X1172819Y229870D01*
X1174597Y236423D01*
X1175004Y241706D01*
X1175004Y848614D01*
X1175867Y852678D01*
X1178306Y856081D01*
X1181912Y858215D01*
X1186027Y858723D01*
X1193800Y858012D01*
X1203604Y858875D01*
X1213053Y861415D01*
X1221994Y865581D01*
X1230020Y871219D01*
X1236980Y878179D01*
X1242618Y886206D01*
X1246784Y895146D01*
X1249324Y904595D01*
X1250188Y914400D01*
X1249324Y924204D01*
X1246784Y933653D01*
X1242618Y942594D01*
X1236980Y950620D01*
X1230020Y957580D01*
X1221994Y963218D01*
X1214323Y966774D01*
X1211021Y969264D01*
X1208989Y972819D01*
X1208481Y976884D01*
X1209649Y980795D01*
X1212291Y983945D01*
X1215999Y985824D01*
X1225753Y988415D01*
X1234694Y992581D01*
X1242720Y998219D01*
X1249680Y1005179D01*
X1255318Y1013206D01*
X1259484Y1022146D01*
X1262024Y1031595D01*
X1262888Y1041400D01*
X1262024Y1051204D01*
X1259484Y1060653D01*
X1255318Y1069594D01*
X1249680Y1077620D01*
X1242720Y1084580D01*
X1234694Y1090218D01*
X1225753Y1094384D01*
X1216304Y1096924D01*
X1206500Y1097788D01*
X1196695Y1096924D01*
X1187246Y1094384D01*
X1178306Y1090218D01*
X1170025Y1084376D01*
X1155801Y1071118D01*
X1153922Y1069746D01*
X1149502Y1067155D01*
X1145489Y1063752D01*
X1120749Y1039012D01*
X1116228Y1033424D01*
X1113180Y1027430D01*
X1111402Y1020876D01*
X1110996Y1015593D01*
X1110996Y1004316D01*
X1110234Y1000404D01*
X1107998Y997102D01*
X1104747Y994918D01*
X1100836Y994156D01*
X1096924Y994918D01*
X1093673Y997102D01*
X1071880Y1018844D01*
X1064463Y1024940D01*
X1061923Y1028090D01*
X1060805Y1032052D01*
X1061313Y1036066D01*
X1063345Y1039571D01*
X1066647Y1042009D01*
X1069594Y1043381D01*
X1077620Y1049020D01*
X1084580Y1055979D01*
X1090218Y1064006D01*
X1094384Y1072946D01*
X1096924Y1082395D01*
X1097788Y1092200D01*
X1096924Y1102004D01*
X1094384Y1111453D01*
X1090218Y1120394D01*
X1084580Y1128420D01*
X1077620Y1135380D01*
X1069594Y1141018D01*
X1060653Y1145184D01*
X1051204Y1147724D01*
X1041400Y1148588D01*
X1031595Y1147724D01*
X1022146Y1145184D01*
X1013206Y1141018D01*
X1005179Y1135380D01*
X998219Y1128420D01*
X992581Y1120394D01*
X988415Y1111453D01*
X985875Y1102004D01*
X985012Y1092200D01*
X985875Y1082395D01*
X988415Y1072946D01*
X992581Y1064006D01*
X998219Y1055979D01*
X1005433Y1048715D01*
X1007668Y1045464D01*
X1008430Y1041552D01*
X1007668Y1037640D01*
X1005433Y1034389D01*
X1002182Y1032154D01*
X998270Y1031392D01*
X607974Y1031392D01*
X604774Y1031900D01*
X593496Y1035659D01*
X588518Y1038656D01*
X579577Y1042822D01*
X570128Y1045362D01*
X560324Y1046226D01*
X550519Y1045362D01*
X541070Y1042822D01*
X532130Y1038656D01*
X524103Y1033018D01*
X517143Y1026058D01*
X511505Y1018032D01*
X507339Y1009091D01*
X504799Y999642D01*
X503935Y989837D01*
X504799Y980033D01*
X507339Y970584D01*
X511505Y961644D01*
X517143Y953617D01*
X524103Y946658D01*
X532130Y941019D01*
X541070Y936853D01*
X550519Y934313D01*
X560324Y933450D01*
X570128Y934313D01*
X579577Y936853D01*
X588518Y941019D01*
X593496Y944016D01*
X604774Y947775D01*
X607974Y948283D01*
X829868Y948283D01*
X833729Y947521D01*
X837031Y945286D01*
X839216Y942035D01*
X840028Y938123D01*
X839216Y934212D01*
X831189Y922680D01*
X827024Y913790D01*
X824484Y904290D01*
X823620Y894486D01*
X824484Y884732D01*
X827024Y875233D01*
X831189Y866343D01*
X836828Y858266D01*
X843787Y851357D01*
X851814Y845718D01*
X860755Y841552D01*
X870203Y839012D01*
X880008Y838149D01*
X889812Y839012D01*
X899261Y841552D01*
X908202Y845718D01*
X916228Y851357D01*
X923188Y858266D01*
X928827Y866343D01*
X932992Y875233D01*
X935532Y884732D01*
X936396Y894486D01*
X935532Y904290D01*
X932992Y913790D01*
X928827Y922680D01*
X920800Y934212D01*
X919987Y938123D01*
X920800Y942035D01*
X922985Y945286D01*
X926287Y947521D01*
X930148Y948283D01*
X1020724Y948283D01*
X1024636Y947521D01*
X1027937Y945286D01*
X1047902Y925321D01*
X1050137Y922019D01*
X1050899Y918108D01*
X1050899Y701446D01*
X1050391Y698246D01*
X1046632Y686968D01*
X1043635Y681990D01*
X1039469Y673049D01*
X1036929Y663600D01*
X1036066Y653796D01*
X1036929Y643991D01*
X1039469Y634542D01*
X1043635Y625602D01*
X1049274Y617575D01*
X1056233Y610616D01*
X1064260Y604977D01*
X1073200Y600811D01*
X1082649Y598271D01*
X1092454Y597408D01*
X1099972Y598068D01*
X1104087Y597611D01*
X1107694Y595477D01*
X1110132Y592074D01*
X1110996Y587959D01*
X1110996Y370586D01*
X1110132Y366522D01*
X1107694Y363118D01*
X1104087Y360984D01*
X1099972Y360476D01*
X1093520Y361035D01*
X1089710Y362153D01*
X1086612Y364642D01*
X1084732Y368096D01*
X1084275Y372059D01*
X1085088Y381000D01*
X1084224Y390804D01*
X1081684Y400253D01*
X1077518Y409194D01*
X1071880Y417220D01*
X1064920Y424180D01*
X1056894Y429818D01*
X1047953Y433984D01*
X1038504Y436524D01*
X1028700Y437388D01*
X1018895Y436524D01*
X1009446Y433984D01*
X1000506Y429818D01*
X992479Y424180D01*
X985519Y417220D01*
X979881Y409194D01*
X975715Y400253D01*
X973175Y390804D01*
X972312Y381000D01*
X973175Y371195D01*
X975715Y361746D01*
X979881Y352806D01*
X985519Y344779D01*
X992479Y337820D01*
X1000506Y332181D01*
X1009446Y328015D01*
X1018895Y325475D01*
X1027379Y324764D01*
X1031189Y323646D01*
X1034287Y321157D01*
X1036167Y317703D01*
X1036624Y313740D01*
X1035812Y304800D01*
X1036675Y294995D01*
X1039215Y285546D01*
X1043381Y276606D01*
X1045565Y273507D01*
X1047089Y270306D01*
X1047394Y266801D01*
X1046480Y263347D01*
X1044448Y260502D01*
X963828Y179882D01*
X958748Y173685D01*
X955192Y167081D01*
X953008Y159867D01*
X952246Y151892D01*
X952246Y83616D01*
X951484Y79705D01*
X949248Y76403D01*
X926896Y54051D01*
X923594Y51816D01*
X919683Y51054D01*
X687679Y51054D01*
X683361Y52019D01*
X679907Y54660D01*
X677875Y58572D01*
X677672Y62991D01*
X679348Y67056D01*
X683818Y73406D01*
X687984Y82346D01*
X690524Y91795D01*
X691388Y101600D01*
X690524Y111404D01*
X687984Y120853D01*
X683818Y129794D01*
X678180Y137820D01*
X671220Y144780D01*
X663194Y150418D01*
X654253Y154584D01*
X644804Y157124D01*
X635000Y157988D01*
X625195Y157124D01*
X615746Y154584D01*
X606806Y150418D01*
X598779Y144780D01*
X591820Y137820D01*
X586181Y129794D01*
X582015Y120853D01*
X579475Y111404D01*
X578612Y101600D01*
X579475Y91795D01*
X582015Y82346D01*
X586181Y73406D01*
X595071Y61061D01*
X595833Y57150D01*
X595071Y53238D01*
X586181Y40894D01*
X582015Y31953D01*
X579475Y22504D01*
X578612Y12700D01*
X579475Y2895D01*
X582015Y-6553D01*
X586181Y-15494D01*
X591820Y-23520D01*
X598779Y-30480D01*
X606806Y-36118D01*
X615746Y-40284D01*
X625195Y-42824D01*
X635000Y-43688D01*
X644804Y-42824D01*
X654253Y-40284D01*
X663194Y-36118D01*
X668731Y-32359D01*
X680618Y-26670D01*
X685038Y-25654D01*
X939292Y-25654D01*
X947267Y-24892D01*
X954481Y-22707D01*
X961085Y-19151D01*
X967282Y-14071D01*
X979373Y-1981D01*
X982624Y203D01*
X986536Y965D01*
X990447Y203D01*
X993698Y-1981D01*
X995934Y-5283D01*
X996696Y-9194D01*
X996696Y-1117092D01*
X997458Y-1124254D01*
X999490Y-1130604D01*
X1002944Y-1136497D01*
X1006348Y-1140510D01*
X1018590Y-1152753D01*
X1020521Y-1155446D01*
X1021486Y-1158646D01*
X1023924Y-1178001D01*
X1026515Y-1187653D01*
X1030681Y-1196594D01*
X1036319Y-1204620D01*
X1043279Y-1211580D01*
X1051306Y-1217218D01*
X1060246Y-1221384D01*
X1069695Y-1223924D01*
X1079500Y-1224788D01*
X1089304Y-1223924D01*
X1098753Y-1221384D01*
X1107694Y-1217218D01*
X1115720Y-1211580D01*
X1122680Y-1204620D01*
X1128318Y-1196594D01*
X1132484Y-1187653D01*
X1135024Y-1178204D01*
X1135888Y-1168400D01*
X1135024Y-1158595D01*
X1132484Y-1149146D01*
X1128318Y-1140206D01*
X1122680Y-1132179D01*
X1115720Y-1125220D01*
X1107694Y-1119581D01*
X1098753Y-1115415D01*
X1089101Y-1112824D01*
X1069746Y-1110386D01*
X1066546Y-1109421D01*
X1063701Y-1107338D01*
X1061466Y-1104036D01*
X1060704Y-1100124D01*
X1060704Y-916686D01*
X1061567Y-912621D01*
X1064006Y-909218D01*
X1067612Y-907084D01*
X1071727Y-906576D01*
X1079500Y-907287D01*
X1089304Y-906424D01*
X1098753Y-903884D01*
X1107694Y-899718D01*
X1113231Y-895959D01*
X1125118Y-890269D01*
X1129538Y-889253D01*
X1395882Y-889253D01*
X1399489Y-889914D01*
X1402689Y-891844D01*
X1404924Y-894791D01*
X1405991Y-898347D01*
X1405686Y-902055D01*
X1404975Y-904595D01*
X1404112Y-914400D01*
X1404975Y-924204D01*
X1407515Y-933653D01*
X1411681Y-942594D01*
X1417320Y-950620D01*
X1424279Y-957580D01*
X1432306Y-963218D01*
X1441196Y-967333D01*
X1452118Y-970178D01*
X1455877Y-972058D01*
X1458569Y-975360D01*
X1459687Y-979424D01*
X1459077Y-983640D01*
X1456740Y-987196D01*
X1425549Y-1018387D01*
X1421028Y-1023975D01*
X1417980Y-1029969D01*
X1416202Y-1036523D01*
X1415796Y-1041806D01*
X1415796Y-1150924D01*
X1415034Y-1154836D01*
X1412798Y-1158138D01*
X1158138Y-1412798D01*
X1154836Y-1415034D01*
X1150924Y-1415796D01*
X1145286Y-1415796D01*
X1141222Y-1414932D01*
X1137818Y-1412494D01*
X1135684Y-1408887D01*
X1135176Y-1404772D01*
X1135888Y-1397000D01*
X1135024Y-1387195D01*
X1132484Y-1377746D01*
X1128318Y-1368806D01*
X1122680Y-1360779D01*
X1115720Y-1353820D01*
X1107694Y-1348181D01*
X1098753Y-1344015D01*
X1089304Y-1341475D01*
X1079500Y-1340612D01*
X1069695Y-1341475D01*
X1060246Y-1344015D01*
X1051306Y-1348181D01*
X1043279Y-1353820D01*
X1036319Y-1360779D01*
X1030681Y-1368806D01*
X1026515Y-1377746D01*
X1023975Y-1387195D01*
X1023112Y-1397000D01*
X1023823Y-1404772D01*
X1023315Y-1408887D01*
X1021181Y-1412494D01*
X1017778Y-1414932D01*
X1013714Y-1415796D01*
X984199Y-1415796D01*
X979932Y-1414830D01*
X976426Y-1412189D01*
X974394Y-1408277D01*
X974191Y-1403858D01*
X980084Y-1390853D01*
X982624Y-1381404D01*
X983487Y-1371600D01*
X982624Y-1361795D01*
X980084Y-1352346D01*
X975918Y-1343406D01*
X970280Y-1335379D01*
X963320Y-1328420D01*
X955294Y-1322781D01*
X946353Y-1318615D01*
X943711Y-1317904D01*
X939800Y-1315872D01*
X937107Y-1312418D01*
X936142Y-1308100D01*
X937107Y-1303782D01*
X939800Y-1300327D01*
X943711Y-1298295D01*
X946353Y-1297584D01*
X955294Y-1293418D01*
X963320Y-1287780D01*
X970280Y-1280820D01*
X975918Y-1272794D01*
X980084Y-1263853D01*
X982624Y-1254404D01*
X983487Y-1244600D01*
X982624Y-1234795D01*
X980084Y-1225346D01*
X975918Y-1216406D01*
X970280Y-1208379D01*
X963320Y-1201420D01*
X955294Y-1195781D01*
X946353Y-1191615D01*
X936904Y-1189075D01*
X927100Y-1188212D01*
X917295Y-1189075D01*
X907846Y-1191615D01*
X898906Y-1195781D01*
X890879Y-1201420D01*
X883919Y-1208379D01*
X878281Y-1216406D01*
X874115Y-1225346D01*
X871575Y-1234795D01*
X870712Y-1244600D01*
X871575Y-1254404D01*
X874115Y-1263853D01*
X878281Y-1272794D01*
X883919Y-1280820D01*
X890879Y-1287780D01*
X898906Y-1293418D01*
X907846Y-1297584D01*
X910488Y-1298295D01*
X914400Y-1300327D01*
X917092Y-1303782D01*
X918057Y-1308100D01*
X917092Y-1312418D01*
X914400Y-1315872D01*
X910488Y-1317904D01*
X907846Y-1318615D01*
X898906Y-1322781D01*
X890879Y-1328420D01*
X883919Y-1335379D01*
X878281Y-1343406D01*
X877112Y-1345946D01*
X874826Y-1349095D01*
X871524Y-1351127D01*
X867714Y-1351838D01*
X863904Y-1351026D01*
X860704Y-1348841D01*
X708812Y-1196949D01*
X703224Y-1192428D01*
X697230Y-1189380D01*
X690676Y-1187602D01*
X685393Y-1187196D01*
X516940Y-1187196D01*
X513029Y-1186434D01*
X509778Y-1184198D01*
X507542Y-1180947D01*
X506780Y-1177036D01*
X507542Y-1173124D01*
X509778Y-1169873D01*
X513080Y-1166520D01*
X518718Y-1158494D01*
X522884Y-1149553D01*
X525424Y-1140104D01*
X526288Y-1130300D01*
X525424Y-1120495D01*
X522884Y-1111046D01*
X518718Y-1102106D01*
X513080Y-1094079D01*
X506120Y-1087120D01*
X498093Y-1081481D01*
X489153Y-1077315D01*
X479704Y-1074775D01*
X469900Y-1073912D01*
X460095Y-1074775D01*
X450646Y-1077315D01*
X441706Y-1081481D01*
X433679Y-1087120D01*
X426720Y-1094079D01*
X421081Y-1102106D01*
X419912Y-1104646D01*
X417626Y-1107795D01*
X414324Y-1109827D01*
X410514Y-1110538D01*
X406704Y-1109726D01*
X403504Y-1107541D01*
X391312Y-1095349D01*
X385724Y-1090828D01*
X378510Y-1087221D01*
X375361Y-1084783D01*
X373380Y-1081278D01*
X372973Y-1077264D01*
X373888Y-1066800D01*
X373024Y-1056995D01*
X370484Y-1047546D01*
X366318Y-1038606D01*
X360222Y-1029969D01*
X351637Y-1018895D01*
X350062Y-1015949D01*
X349504Y-1012647D01*
X349504Y-830275D01*
X350266Y-826363D01*
X352501Y-823061D01*
X383895Y-791667D01*
X387197Y-789432D01*
X391109Y-788670D01*
X518109Y-788670D01*
X522427Y-789584D01*
X525932Y-792276D01*
X527964Y-796188D01*
X528116Y-800557D01*
X526440Y-804621D01*
X522681Y-810006D01*
X518515Y-818946D01*
X515975Y-828395D01*
X515112Y-838200D01*
X515975Y-848004D01*
X518515Y-857453D01*
X522681Y-866394D01*
X528320Y-874420D01*
X535279Y-881380D01*
X543306Y-887018D01*
X552246Y-891184D01*
X561695Y-893724D01*
X571500Y-894587D01*
X581304Y-893724D01*
X590753Y-891184D01*
X599694Y-887018D01*
X607720Y-881380D01*
X614680Y-874420D01*
X620318Y-866394D01*
X624484Y-857453D01*
X627024Y-848004D01*
X627888Y-838200D01*
X627024Y-828395D01*
X624484Y-818946D01*
X620318Y-810006D01*
X616559Y-804621D01*
X614832Y-800557D01*
X615035Y-796188D01*
X617067Y-792276D01*
X620572Y-789584D01*
X624840Y-788619D01*
X784047Y-788619D01*
X787349Y-789178D01*
X790295Y-790752D01*
X797306Y-796188D01*
X800049Y-799490D01*
X801217Y-803605D01*
X800608Y-807821D01*
X798271Y-811428D01*
X795020Y-814679D01*
X789381Y-822706D01*
X785215Y-831646D01*
X782675Y-841095D01*
X781812Y-850900D01*
X782675Y-860704D01*
X785215Y-870153D01*
X789381Y-879094D01*
X795020Y-887120D01*
X801979Y-894080D01*
X810006Y-899718D01*
X818946Y-903884D01*
X828395Y-906424D01*
X838200Y-907287D01*
X848004Y-906424D01*
X857453Y-903884D01*
X866394Y-899718D01*
X874420Y-894080D01*
X881380Y-887120D01*
X887018Y-879094D01*
X891184Y-870153D01*
X893724Y-860704D01*
X894587Y-850900D01*
X893724Y-841095D01*
X891184Y-831646D01*
X887018Y-822706D01*
X881380Y-814679D01*
X877671Y-810920D01*
X875436Y-807669D01*
X874674Y-803757D01*
X875436Y-799846D01*
X877671Y-796594D01*
X881380Y-792835D01*
X887018Y-784809D01*
X891184Y-775868D01*
X893724Y-766419D01*
X894587Y-756615D01*
X893724Y-746810D01*
X891184Y-737362D01*
X887018Y-728421D01*
X881380Y-720394D01*
X874420Y-713435D01*
X866394Y-707796D01*
X860399Y-705002D01*
X857300Y-702767D01*
X855268Y-699566D01*
X854557Y-695807D01*
X855268Y-692048D01*
X857300Y-688848D01*
X860399Y-686612D01*
X866394Y-683818D01*
X874420Y-678180D01*
X881380Y-671220D01*
X887018Y-663194D01*
X891184Y-654253D01*
X893724Y-644804D01*
X894587Y-635000D01*
X893724Y-625195D01*
X891184Y-615746D01*
X887018Y-606806D01*
X881380Y-598779D01*
X874420Y-591820D01*
X866394Y-586181D01*
X857453Y-582015D01*
X848004Y-579475D01*
X838200Y-578612D01*
X828395Y-579475D01*
X818946Y-582015D01*
X810006Y-586181D01*
X801370Y-592277D01*
X790295Y-600862D01*
X787349Y-602437D01*
X784047Y-602996D01*
X663752Y-602996D01*
X660450Y-602437D01*
X657504Y-600862D01*
X645617Y-591667D01*
X637794Y-586181D01*
X628853Y-582015D01*
X619404Y-579475D01*
X609600Y-578612D01*
X599795Y-579475D01*
X590346Y-582015D01*
X581406Y-586181D01*
X576427Y-589686D01*
X572668Y-591312D01*
X568553Y-591312D01*
X564794Y-589686D01*
X561949Y-586689D01*
X560578Y-582828D01*
X560781Y-578713D01*
X563524Y-568604D01*
X564388Y-558800D01*
X563524Y-548995D01*
X560984Y-539546D01*
X556818Y-530606D01*
X551180Y-522579D01*
X544220Y-515620D01*
X536194Y-509981D01*
X527253Y-505815D01*
X517804Y-503275D01*
X508000Y-502412D01*
X498195Y-503275D01*
X488746Y-505815D01*
X479806Y-509981D01*
X471779Y-515620D01*
X464820Y-522579D01*
X459181Y-530606D01*
X455015Y-539546D01*
X452475Y-548995D01*
X451612Y-558800D01*
X452475Y-568604D01*
X455015Y-578053D01*
X459181Y-586994D01*
X462026Y-591058D01*
X463702Y-594868D01*
X463702Y-598932D01*
X462026Y-602742D01*
X459181Y-606806D01*
X455015Y-615746D01*
X452475Y-625195D01*
X451612Y-635000D01*
X452475Y-644804D01*
X455015Y-654253D01*
X459181Y-663194D01*
X464820Y-671220D01*
X471779Y-678180D01*
X479806Y-683818D01*
X488746Y-687984D01*
X498195Y-690524D01*
X508000Y-691388D01*
X517804Y-690524D01*
X527253Y-687984D01*
X536194Y-683818D01*
X544220Y-678180D01*
X551637Y-670814D01*
X554888Y-668578D01*
X558800Y-667816D01*
X562711Y-668578D01*
X565962Y-670814D01*
X573379Y-678180D01*
X581406Y-683818D01*
X590346Y-687984D01*
X599795Y-690524D01*
X609600Y-691388D01*
X619404Y-690524D01*
X628853Y-687984D01*
X637794Y-683818D01*
X646430Y-677722D01*
X657504Y-669137D01*
X660450Y-667562D01*
X663752Y-667004D01*
X784047Y-667004D01*
X787349Y-667562D01*
X790295Y-669137D01*
X802182Y-678332D01*
X810006Y-683818D01*
X816000Y-686612D01*
X819099Y-688848D01*
X821131Y-692048D01*
X821842Y-695807D01*
X821131Y-699566D01*
X819099Y-702767D01*
X816000Y-705002D01*
X810006Y-707796D01*
X801370Y-713892D01*
X790295Y-722477D01*
X787349Y-724052D01*
X784047Y-724611D01*
X374142Y-724662D01*
X366979Y-725424D01*
X360629Y-727506D01*
X354736Y-730910D01*
X350723Y-734314D01*
X295249Y-789787D01*
X290728Y-795375D01*
X287680Y-801370D01*
X285902Y-807923D01*
X285496Y-813206D01*
X285496Y-1012647D01*
X284937Y-1015949D01*
X283362Y-1018895D01*
X274726Y-1030020D01*
X271424Y-1032814D01*
X267309Y-1033932D01*
X263093Y-1033322D01*
X259486Y-1030986D01*
X252120Y-1023619D01*
X244094Y-1017981D01*
X235153Y-1013815D01*
X225704Y-1011275D01*
X215900Y-1010412D01*
X206095Y-1011275D01*
X196646Y-1013815D01*
X187706Y-1017981D01*
X179679Y-1023619D01*
X172262Y-1030986D01*
X169011Y-1033221D01*
X165100Y-1033983D01*
X161188Y-1033221D01*
X157937Y-1030986D01*
X150520Y-1023619D01*
X142494Y-1017981D01*
X133553Y-1013815D01*
X124104Y-1011275D01*
X114300Y-1010412D01*
X104495Y-1011275D01*
X95046Y-1013815D01*
X86106Y-1017981D01*
X78079Y-1023619D01*
X71120Y-1030579D01*
X65481Y-1038606D01*
X61315Y-1047546D01*
X58775Y-1056995D01*
X57912Y-1066800D01*
X58623Y-1074775D01*
X58216Y-1078687D01*
X56337Y-1082141D01*
X53340Y-1084630D01*
X49580Y-1085799D01*
X44145Y-1086358D01*
X37795Y-1088390D01*
X31902Y-1091844D01*
X27889Y-1095248D01*
X15646Y-1107490D01*
X12954Y-1109421D01*
X9753Y-1110386D01*
X-9601Y-1112824D01*
X-19253Y-1115415D01*
X-28194Y-1119581D01*
X-36220Y-1125220D01*
X-43180Y-1132179D01*
X-48818Y-1140206D01*
X-52984Y-1149146D01*
X-55524Y-1158595D01*
X-56388Y-1168400D01*
X-55524Y-1178204D01*
X-52984Y-1187653D01*
X-48818Y-1196594D01*
X-43180Y-1204620D01*
X-36220Y-1211580D01*
X-28194Y-1217218D01*
X-19253Y-1221384D01*
X-9804Y-1223924D01*
X0Y-1224788D01*
X9804Y-1223924D01*
X19253Y-1221384D01*
X28194Y-1217218D01*
X36220Y-1211580D01*
X43180Y-1204620D01*
X48818Y-1196543D01*
X51612Y-1193850D01*
X55219Y-1192428D01*
X59080Y-1192428D01*
X62687Y-1193850D01*
X65481Y-1196543D01*
X71120Y-1204620D01*
X78079Y-1211580D01*
X86106Y-1217218D01*
X95046Y-1221384D01*
X104495Y-1223924D01*
X114300Y-1224788D01*
X124104Y-1223924D01*
X133553Y-1221384D01*
X142494Y-1217218D01*
X150520Y-1211580D01*
X157480Y-1204620D01*
X163118Y-1196594D01*
X167284Y-1187653D01*
X169824Y-1178204D01*
X170688Y-1168400D01*
X169976Y-1160627D01*
X170484Y-1156512D01*
X172618Y-1152906D01*
X176022Y-1150467D01*
X180086Y-1149604D01*
X251714Y-1149604D01*
X255778Y-1150467D01*
X259181Y-1152906D01*
X261315Y-1156512D01*
X261823Y-1160627D01*
X261112Y-1168400D01*
X261975Y-1178204D01*
X264515Y-1187653D01*
X268681Y-1196594D01*
X274320Y-1204620D01*
X281279Y-1211580D01*
X289306Y-1217218D01*
X298246Y-1221384D01*
X307695Y-1223924D01*
X317500Y-1224788D01*
X327304Y-1223924D01*
X336753Y-1221384D01*
X345694Y-1217218D01*
X354330Y-1211122D01*
X360832Y-1206093D01*
X364083Y-1204417D01*
X367690Y-1203960D01*
X371246Y-1204823D01*
X374243Y-1206906D01*
X425856Y-1258519D01*
X427837Y-1261364D01*
X428751Y-1264818D01*
X428447Y-1268323D01*
X426974Y-1271524D01*
X421081Y-1279906D01*
X416915Y-1288846D01*
X414375Y-1298295D01*
X413512Y-1308100D01*
X414375Y-1317904D01*
X416915Y-1327353D01*
X421081Y-1336294D01*
X426720Y-1344320D01*
X433679Y-1351280D01*
X441706Y-1356918D01*
X450646Y-1361084D01*
X460095Y-1363624D01*
X469900Y-1364488D01*
X479704Y-1363624D01*
X489153Y-1361084D01*
X498093Y-1356918D01*
X506120Y-1351280D01*
X513080Y-1344320D01*
X518718Y-1336294D01*
X522884Y-1327353D01*
X525424Y-1317904D01*
X526288Y-1308100D01*
X525424Y-1298295D01*
X523036Y-1289405D01*
X522732Y-1285697D01*
X523798Y-1282141D01*
X526034Y-1279194D01*
X529183Y-1277264D01*
X532841Y-1276604D01*
X655624Y-1276604D01*
X659536Y-1277366D01*
X662838Y-1279601D01*
X718616Y-1335379D01*
X721004Y-1339088D01*
X721563Y-1343456D01*
X720242Y-1347622D01*
X717245Y-1350873D01*
X713079Y-1353820D01*
X706120Y-1360779D01*
X700481Y-1368806D01*
X696315Y-1377746D01*
X693775Y-1387195D01*
X692912Y-1397000D01*
X693775Y-1406804D01*
X696315Y-1416253D01*
X700481Y-1425194D01*
X706120Y-1433220D01*
X713079Y-1440180D01*
X721106Y-1445818D01*
X730046Y-1449984D01*
X739495Y-1452524D01*
X747369Y-1453184D01*
X750773Y-1454099D01*
X753668Y-1456131D01*
X755700Y-1459026D01*
X756615Y-1462430D01*
X757275Y-1470304D01*
X757986Y-1472844D01*
X758291Y-1476552D01*
X757224Y-1480108D01*
X754989Y-1483055D01*
X751789Y-1484985D01*
X748182Y-1485646D01*
X70916Y-1485646D01*
X67005Y-1484884D01*
X63703Y-1482648D01*
X14782Y-1433728D01*
X8585Y-1428648D01*
X1981Y-1425092D01*
X-5232Y-1422908D01*
X-13208Y-1422146D01*
X-612851Y-1422146D01*
X-616813Y-1421333D01*
X-620166Y-1419047D01*
X-622350Y-1415643D01*
X-623011Y-1411630D01*
X-622046Y-1407668D01*
X-620115Y-1403553D01*
X-617575Y-1394104D01*
X-616712Y-1384300D01*
X-617575Y-1374495D01*
X-620115Y-1365046D01*
X-624281Y-1356106D01*
X-629920Y-1348079D01*
X-636879Y-1341120D01*
X-644906Y-1335481D01*
X-653846Y-1331315D01*
X-663295Y-1328775D01*
X-673100Y-1327912D01*
X-682904Y-1328775D01*
X-691794Y-1331163D01*
X-695502Y-1331468D01*
X-699058Y-1330401D01*
X-702005Y-1328166D01*
X-703935Y-1325016D01*
X-704596Y-1321358D01*
X-704596Y-761441D01*
X-703935Y-757783D01*
X-702005Y-754634D01*
X-699058Y-752398D01*
X-695502Y-751332D01*
X-691794Y-751636D01*
X-682904Y-754024D01*
X-673100Y-754888D01*
X-663295Y-754024D01*
X-653846Y-751484D01*
X-644906Y-747318D01*
X-636879Y-741680D01*
X-629920Y-734720D01*
X-624281Y-726694D01*
X-620115Y-717753D01*
X-617575Y-708304D01*
X-616712Y-698500D01*
X-617575Y-688695D01*
X-620115Y-679246D01*
X-624281Y-670306D01*
X-627126Y-666242D01*
X-628802Y-662432D01*
X-628802Y-658368D01*
X-627126Y-654558D01*
X-624281Y-650494D01*
X-620115Y-641553D01*
X-617575Y-632104D01*
X-616712Y-622300D01*
X-617575Y-612495D01*
X-620115Y-603046D01*
X-624281Y-594106D01*
X-629920Y-586079D01*
X-636879Y-579120D01*
X-644906Y-573481D01*
X-653846Y-569315D01*
X-663295Y-566775D01*
X-673100Y-565912D01*
X-682904Y-566775D01*
X-691794Y-569163D01*
X-695502Y-569468D01*
X-699058Y-568401D01*
X-702005Y-566166D01*
X-703935Y-563016D01*
X-704596Y-559358D01*
X-704596Y-454406D01*
X-705358Y-447243D01*
X-707390Y-440893D01*
X-710793Y-435000D01*
X-714298Y-430936D01*
X-754075Y-391261D01*
X-756056Y-388569D01*
X-757021Y-385318D01*
X-759460Y-366014D01*
X-762050Y-356362D01*
X-766216Y-347421D01*
X-771855Y-339394D01*
X-778764Y-332435D01*
X-786841Y-326796D01*
X-795731Y-322630D01*
X-805230Y-320090D01*
X-814984Y-319227D01*
X-824788Y-320090D01*
X-834288Y-322630D01*
X-843178Y-326796D01*
X-851255Y-332435D01*
X-858164Y-339394D01*
X-863803Y-347421D01*
X-867968Y-356362D01*
X-870508Y-365810D01*
X-871372Y-375615D01*
X-870508Y-385419D01*
X-867968Y-394868D01*
X-863803Y-403809D01*
X-858164Y-411835D01*
X-851255Y-418795D01*
X-843178Y-424434D01*
X-834288Y-428599D01*
X-831596Y-429310D01*
X-827684Y-431342D01*
X-825042Y-434797D01*
X-824077Y-439115D01*
X-825042Y-443433D01*
X-827684Y-446887D01*
X-831596Y-448919D01*
X-834288Y-449630D01*
X-843178Y-453796D01*
X-851255Y-459435D01*
X-858164Y-466394D01*
X-863803Y-474421D01*
X-867968Y-483362D01*
X-870508Y-492810D01*
X-871372Y-502615D01*
X-870508Y-512419D01*
X-867968Y-521868D01*
X-863803Y-530809D01*
X-858164Y-538835D01*
X-851255Y-545795D01*
X-843178Y-551434D01*
X-834288Y-555599D01*
X-824585Y-558190D01*
X-805180Y-560628D01*
X-802030Y-561594D01*
X-799338Y-563524D01*
X-797001Y-565810D01*
X-794766Y-569112D01*
X-794004Y-573024D01*
X-794004Y-691032D01*
X-794867Y-695147D01*
X-797306Y-698550D01*
X-800912Y-700684D01*
X-805027Y-701192D01*
X-814984Y-700278D01*
X-824788Y-701141D01*
X-834288Y-703681D01*
X-843178Y-707847D01*
X-851255Y-713486D01*
X-858164Y-720445D01*
X-863803Y-728472D01*
X-867968Y-737412D01*
X-870508Y-746861D01*
X-871372Y-756666D01*
X-870508Y-766470D01*
X-867968Y-775919D01*
X-863803Y-784860D01*
X-858164Y-792886D01*
X-851255Y-799846D01*
X-843178Y-805484D01*
X-834288Y-809650D01*
X-824788Y-812190D01*
X-814984Y-813053D01*
X-805027Y-812139D01*
X-800912Y-812647D01*
X-797306Y-814781D01*
X-794867Y-818184D01*
X-794004Y-822299D01*
X-794004Y-1434592D01*
X-793242Y-1441754D01*
X-791210Y-1448104D01*
X-787755Y-1453997D01*
X-784352Y-1458010D01*
X-696112Y-1546250D01*
X-694080Y-1547876D01*
X-691642Y-1550771D01*
X-690422Y-1554327D01*
X-690626Y-1558137D01*
X-692150Y-1561592D01*
X-694842Y-1564233D01*
X-699312Y-1567180D01*
X-709676Y-1576324D01*
X-718820Y-1586687D01*
X-726490Y-1598168D01*
X-732586Y-1610563D01*
X-737057Y-1623669D01*
X-739749Y-1637233D01*
X-740613Y-1651000D01*
X-739749Y-1664766D01*
X-737057Y-1678330D01*
X-732586Y-1691436D01*
X-726490Y-1703832D01*
X-718820Y-1715312D01*
X-709676Y-1725675D01*
X-699617Y-1734566D01*
X-697128Y-1737817D01*
X-696163Y-1741728D01*
X-696772Y-1745742D01*
X-698957Y-1749196D01*
X-702310Y-1751533D01*
X-706272Y-1752346D01*
X-817727Y-1752346D01*
X-821690Y-1751533D01*
X-825042Y-1749196D01*
X-827227Y-1745742D01*
X-827836Y-1741728D01*
X-826871Y-1737817D01*
X-824382Y-1734566D01*
X-814324Y-1725675D01*
X-805180Y-1715312D01*
X-797509Y-1703832D01*
X-791413Y-1691436D01*
X-786942Y-1678330D01*
X-784250Y-1664766D01*
X-783386Y-1651000D01*
X-784250Y-1637233D01*
X-786942Y-1623669D01*
X-791413Y-1610563D01*
X-797509Y-1598168D01*
X-805180Y-1586687D01*
X-814324Y-1576324D01*
X-824687Y-1567180D01*
X-836168Y-1559509D01*
X-848563Y-1553413D01*
X-861669Y-1548942D01*
X-875233Y-1546250D01*
X-889000Y-1545386D01*
X-902766Y-1546250D01*
X-916330Y-1548942D01*
X-929436Y-1553413D01*
X-941832Y-1559509D01*
X-953312Y-1567180D01*
X-963676Y-1576324D01*
X-972819Y-1586687D01*
X-980490Y-1598168D01*
X-986586Y-1610563D01*
X-991057Y-1623669D01*
X-993749Y-1637233D01*
X-994613Y-1651000D01*
X-993749Y-1664766D01*
X-991057Y-1678330D01*
X-986586Y-1691436D01*
X-980490Y-1703832D01*
X-972819Y-1715312D01*
X-963676Y-1725675D01*
X-953617Y-1734566D01*
X-951128Y-1737817D01*
X-950163Y-1741728D01*
X-950772Y-1745742D01*
X-952957Y-1749196D01*
X-956310Y-1751533D01*
X-960272Y-1752346D01*
X-1071727Y-1752346D01*
X-1075690Y-1751533D01*
X-1079042Y-1749196D01*
X-1081227Y-1745742D01*
X-1081836Y-1741728D01*
X-1080871Y-1737817D01*
X-1078382Y-1734566D01*
X-1068324Y-1725675D01*
X-1059180Y-1715312D01*
X-1051509Y-1703832D01*
X-1045413Y-1691436D01*
X-1040942Y-1678330D01*
X-1038250Y-1664766D01*
X-1037386Y-1651000D01*
X-1038250Y-1637233D01*
X-1040942Y-1623669D01*
X-1045413Y-1610563D01*
X-1051509Y-1598168D01*
X-1059180Y-1586687D01*
X-1068324Y-1576324D01*
X-1078687Y-1567180D01*
X-1090168Y-1559509D01*
X-1102563Y-1553413D01*
X-1115669Y-1548942D01*
X-1129233Y-1546250D01*
X-1143000Y-1545386D01*
X-1156766Y-1546250D01*
X-1170330Y-1548942D01*
X-1183436Y-1553413D01*
X-1195832Y-1559509D01*
X-1207312Y-1567180D01*
X-1217676Y-1576324D01*
X-1226820Y-1586687D01*
X-1234490Y-1598168D01*
X-1240586Y-1610563D01*
X-1245057Y-1623669D01*
X-1247749Y-1637233D01*
X-1248613Y-1651000D01*
X-1247749Y-1664766D01*
X-1245057Y-1678330D01*
X-1240586Y-1691436D01*
X-1234490Y-1703832D01*
X-1226820Y-1715312D01*
X-1217676Y-1725675D01*
X-1207617Y-1734566D01*
X-1205128Y-1737817D01*
X-1204163Y-1741728D01*
X-1204772Y-1745742D01*
X-1206957Y-1749196D01*
X-1210310Y-1751533D01*
X-1214272Y-1752346D01*
G37*

%LPC*%
G36*
X-1524000Y-1724660D02*
G01*
X-1504340Y-1723694D01*
X-1484833Y-1720799D01*
X-1465732Y-1716024D01*
X-1447241Y-1709369D01*
X-1429410Y-1700936D01*
X-1412544Y-1690827D01*
X-1396695Y-1679092D01*
X-1382115Y-1665884D01*
X-1368907Y-1651304D01*
X-1357172Y-1635455D01*
X-1347063Y-1618589D01*
X-1338630Y-1600758D01*
X-1331976Y-1582267D01*
X-1327200Y-1563166D01*
X-1324305Y-1543659D01*
X-1323340Y-1524000D01*
X-1324305Y-1504340D01*
X-1327200Y-1484833D01*
X-1331976Y-1465732D01*
X-1338630Y-1447241D01*
X-1347063Y-1429410D01*
X-1357477Y-1412138D01*
X-1359255Y-1408074D01*
X-1359154Y-1403604D01*
X-1357172Y-1399641D01*
X-1353718Y-1396898D01*
X-1349349Y-1395933D01*
X-1345031Y-1396847D01*
X-1340053Y-1399184D01*
X-1330604Y-1401724D01*
X-1320800Y-1402588D01*
X-1310995Y-1401724D01*
X-1301546Y-1399184D01*
X-1292606Y-1395018D01*
X-1284579Y-1389380D01*
X-1277620Y-1382420D01*
X-1271981Y-1374394D01*
X-1267815Y-1365453D01*
X-1265275Y-1356004D01*
X-1264412Y-1346200D01*
X-1265275Y-1336395D01*
X-1267104Y-1329690D01*
X-1267358Y-1325626D01*
X-1265986Y-1321816D01*
X-1269238Y-1320596D01*
X-1272133Y-1317802D01*
X-1277620Y-1309979D01*
X-1284579Y-1303020D01*
X-1292606Y-1297381D01*
X-1301546Y-1293215D01*
X-1310995Y-1290675D01*
X-1320800Y-1289812D01*
X-1330604Y-1290675D01*
X-1340053Y-1293215D01*
X-1348994Y-1297381D01*
X-1357020Y-1303020D01*
X-1363980Y-1309979D01*
X-1369618Y-1318006D01*
X-1373784Y-1326946D01*
X-1376324Y-1336395D01*
X-1377188Y-1346200D01*
X-1376324Y-1356004D01*
X-1374140Y-1364132D01*
X-1373936Y-1368450D01*
X-1375511Y-1372463D01*
X-1378661Y-1375460D01*
X-1382725Y-1376832D01*
X-1387043Y-1376476D01*
X-1390751Y-1374292D01*
X-1396695Y-1368907D01*
X-1412544Y-1357172D01*
X-1429410Y-1347063D01*
X-1447241Y-1338630D01*
X-1465732Y-1331976D01*
X-1484833Y-1327200D01*
X-1504340Y-1324305D01*
X-1524000Y-1323340D01*
X-1543659Y-1324305D01*
X-1563166Y-1327200D01*
X-1582267Y-1331976D01*
X-1600758Y-1338630D01*
X-1618589Y-1347063D01*
X-1635455Y-1357172D01*
X-1651304Y-1368907D01*
X-1665884Y-1382115D01*
X-1679092Y-1396695D01*
X-1690827Y-1412544D01*
X-1700936Y-1429410D01*
X-1709369Y-1447241D01*
X-1716024Y-1465732D01*
X-1720799Y-1484833D01*
X-1723694Y-1504340D01*
X-1724660Y-1524000D01*
X-1723694Y-1543659D01*
X-1720799Y-1563166D01*
X-1716024Y-1582267D01*
X-1709369Y-1600758D01*
X-1700936Y-1618589D01*
X-1690827Y-1635455D01*
X-1679092Y-1651304D01*
X-1665884Y-1665884D01*
X-1651304Y-1679092D01*
X-1635455Y-1690827D01*
X-1618589Y-1700936D01*
X-1600758Y-1709369D01*
X-1582267Y-1716024D01*
X-1563166Y-1720799D01*
X-1543659Y-1723694D01*
G37*
G36*
X-1060196Y-1349248D02*
G01*
X-1050391Y-1348384D01*
X-1040942Y-1345844D01*
X-1032002Y-1341678D01*
X-1023975Y-1336040D01*
X-1017016Y-1329080D01*
X-1011377Y-1321054D01*
X-1007211Y-1312113D01*
X-1004671Y-1302664D01*
X-1003808Y-1292860D01*
X-1004671Y-1283055D01*
X-1007211Y-1273606D01*
X-1011377Y-1264666D01*
X-1017016Y-1256639D01*
X-1023975Y-1249680D01*
X-1032002Y-1244041D01*
X-1040892Y-1239926D01*
X-1052474Y-1236827D01*
X-1063904Y-1232560D01*
X-1067562Y-1230223D01*
X-1088948Y-1208836D01*
X-1091184Y-1205534D01*
X-1091946Y-1201623D01*
X-1091946Y-1088390D01*
X-1090980Y-1084072D01*
X-1088339Y-1080617D01*
X-1086205Y-1079500D01*
X-1088339Y-1078382D01*
X-1090980Y-1074928D01*
X-1091946Y-1070610D01*
X-1091946Y-827379D01*
X-1090980Y-823061D01*
X-1088339Y-819607D01*
X-1084427Y-817575D01*
X-1080008Y-817372D01*
X-1075944Y-819048D01*
X-1069594Y-823518D01*
X-1060653Y-827684D01*
X-1051204Y-830224D01*
X-1041400Y-831087D01*
X-1031595Y-830224D01*
X-1022146Y-827684D01*
X-1013206Y-823518D01*
X-1005179Y-817880D01*
X-998219Y-810920D01*
X-992581Y-802894D01*
X-988415Y-793953D01*
X-985875Y-784504D01*
X-985012Y-774700D01*
X-985875Y-764895D01*
X-988415Y-755446D01*
X-992581Y-746506D01*
X-998219Y-738479D01*
X-1005179Y-731520D01*
X-1013206Y-725881D01*
X-1022146Y-721715D01*
X-1031595Y-719175D01*
X-1041400Y-718312D01*
X-1051204Y-719175D01*
X-1060653Y-721715D01*
X-1069594Y-725881D01*
X-1075944Y-730351D01*
X-1080008Y-732028D01*
X-1084427Y-731824D01*
X-1088339Y-729792D01*
X-1090980Y-726338D01*
X-1091946Y-722020D01*
X-1091946Y-654710D01*
X-1091184Y-650798D01*
X-1088948Y-647496D01*
X-1085951Y-644499D01*
X-1083056Y-642467D01*
X-1079652Y-641553D01*
X-1076147Y-641858D01*
X-1072946Y-643331D01*
X-1069594Y-645718D01*
X-1060653Y-649884D01*
X-1051204Y-652424D01*
X-1041400Y-653288D01*
X-1031595Y-652424D01*
X-1022146Y-649884D01*
X-1013206Y-645718D01*
X-1005179Y-640080D01*
X-998219Y-633120D01*
X-992581Y-625094D01*
X-988415Y-616153D01*
X-985875Y-606704D01*
X-985012Y-596900D01*
X-985875Y-587095D01*
X-988415Y-577646D01*
X-992581Y-568706D01*
X-998219Y-560679D01*
X-1005179Y-553720D01*
X-1013206Y-548081D01*
X-1022146Y-543915D01*
X-1031595Y-541375D01*
X-1041400Y-540512D01*
X-1051204Y-541375D01*
X-1060653Y-543915D01*
X-1069594Y-548081D01*
X-1075131Y-551840D01*
X-1087018Y-557530D01*
X-1090523Y-558495D01*
X-1100124Y-559358D01*
X-1107287Y-561492D01*
X-1113891Y-565048D01*
X-1120089Y-570128D01*
X-1157071Y-607110D01*
X-1162151Y-613308D01*
X-1165707Y-619912D01*
X-1167892Y-627126D01*
X-1168654Y-635101D01*
X-1168654Y-734923D01*
X-1169568Y-739089D01*
X-1172057Y-742492D01*
X-1175766Y-744575D01*
X-1179982Y-744982D01*
X-1184046Y-743610D01*
X-1187145Y-740714D01*
X-1188720Y-738479D01*
X-1195679Y-731520D01*
X-1203706Y-725881D01*
X-1212646Y-721715D01*
X-1222095Y-719175D01*
X-1231900Y-718312D01*
X-1241704Y-719175D01*
X-1251153Y-721715D01*
X-1260094Y-725881D01*
X-1268120Y-731520D01*
X-1275080Y-738479D01*
X-1280718Y-746506D01*
X-1284884Y-755446D01*
X-1287424Y-764895D01*
X-1288288Y-774700D01*
X-1287424Y-784504D01*
X-1284884Y-793953D01*
X-1280718Y-802894D01*
X-1275080Y-810920D01*
X-1268120Y-817880D01*
X-1260094Y-823518D01*
X-1251153Y-827684D01*
X-1241704Y-830224D01*
X-1231900Y-831087D01*
X-1222095Y-830224D01*
X-1212646Y-827684D01*
X-1203706Y-823518D01*
X-1195679Y-817880D01*
X-1188720Y-810920D01*
X-1187145Y-808685D01*
X-1184046Y-805789D01*
X-1179982Y-804418D01*
X-1175766Y-804824D01*
X-1172057Y-806907D01*
X-1169568Y-810310D01*
X-1168654Y-814476D01*
X-1168654Y-1221232D01*
X-1167892Y-1229156D01*
X-1168247Y-1233017D01*
X-1170025Y-1236472D01*
X-1173022Y-1239012D01*
X-1176731Y-1240231D01*
X-1180592Y-1239977D01*
X-1190498Y-1237284D01*
X-1200302Y-1236421D01*
X-1210106Y-1237284D01*
X-1219555Y-1239824D01*
X-1228496Y-1243990D01*
X-1236522Y-1249629D01*
X-1243482Y-1256588D01*
X-1249121Y-1264615D01*
X-1253286Y-1273556D01*
X-1255826Y-1283004D01*
X-1256690Y-1292809D01*
X-1255826Y-1302613D01*
X-1253998Y-1309319D01*
X-1253744Y-1313383D01*
X-1255115Y-1317193D01*
X-1251864Y-1318412D01*
X-1248968Y-1321206D01*
X-1243482Y-1329029D01*
X-1236522Y-1335989D01*
X-1228496Y-1341628D01*
X-1219555Y-1345793D01*
X-1210106Y-1348333D01*
X-1200302Y-1349197D01*
X-1190498Y-1348333D01*
X-1181049Y-1345793D01*
X-1172108Y-1341628D01*
X-1164082Y-1335989D01*
X-1157122Y-1329029D01*
X-1151483Y-1321003D01*
X-1147318Y-1312062D01*
X-1144778Y-1302613D01*
X-1143914Y-1292809D01*
X-1144422Y-1287221D01*
X-1143965Y-1283157D01*
X-1141882Y-1279601D01*
X-1138580Y-1277112D01*
X-1134618Y-1276197D01*
X-1130554Y-1276908D01*
X-1127099Y-1279144D01*
X-1122578Y-1283716D01*
X-1120089Y-1287729D01*
X-1116279Y-1299260D01*
X-1115720Y-1302664D01*
X-1113180Y-1312113D01*
X-1109014Y-1321054D01*
X-1103376Y-1329080D01*
X-1096416Y-1336040D01*
X-1088390Y-1341678D01*
X-1079449Y-1345844D01*
X-1070000Y-1348384D01*
G37*
G36*
X-622300Y-1300988D02*
G01*
X-612495Y-1300124D01*
X-603046Y-1297584D01*
X-594106Y-1293418D01*
X-586079Y-1287780D01*
X-579120Y-1280820D01*
X-573481Y-1272794D01*
X-569315Y-1263853D01*
X-566775Y-1254404D01*
X-565912Y-1244600D01*
X-566775Y-1234795D01*
X-569315Y-1225346D01*
X-573481Y-1216406D01*
X-579120Y-1208379D01*
X-586079Y-1201420D01*
X-594106Y-1195781D01*
X-603046Y-1191615D01*
X-612495Y-1189075D01*
X-622300Y-1188212D01*
X-632104Y-1189075D01*
X-641553Y-1191615D01*
X-650494Y-1195781D01*
X-658520Y-1201420D01*
X-665480Y-1208379D01*
X-671118Y-1216406D01*
X-675284Y-1225346D01*
X-677824Y-1234795D01*
X-678688Y-1244600D01*
X-677824Y-1254404D01*
X-675284Y-1263853D01*
X-671118Y-1272794D01*
X-665480Y-1280820D01*
X-658520Y-1287780D01*
X-650494Y-1293418D01*
X-641553Y-1297584D01*
X-632104Y-1300124D01*
G37*
G36*
X-245008Y-1224788D02*
G01*
X-235204Y-1223924D01*
X-225755Y-1221384D01*
X-216814Y-1217218D01*
X-208788Y-1211580D01*
X-201828Y-1204620D01*
X-196189Y-1196594D01*
X-192024Y-1187653D01*
X-189484Y-1178204D01*
X-188620Y-1168400D01*
X-189484Y-1158595D01*
X-192024Y-1149146D01*
X-198678Y-1135126D01*
X-198577Y-1130909D01*
X-196799Y-1127099D01*
X-193649Y-1124305D01*
X-189585Y-1123086D01*
X-180695Y-1122324D01*
X-171246Y-1119784D01*
X-162306Y-1115618D01*
X-154279Y-1109980D01*
X-147320Y-1103020D01*
X-141681Y-1094994D01*
X-137515Y-1086053D01*
X-134975Y-1076604D01*
X-134112Y-1066800D01*
X-134975Y-1056995D01*
X-137515Y-1047546D01*
X-141681Y-1038606D01*
X-147320Y-1030579D01*
X-154279Y-1023619D01*
X-162306Y-1017981D01*
X-171246Y-1013815D01*
X-180695Y-1011275D01*
X-190500Y-1010412D01*
X-200304Y-1011275D01*
X-209753Y-1013815D01*
X-218694Y-1017981D01*
X-226720Y-1023619D01*
X-233679Y-1030579D01*
X-239318Y-1038606D01*
X-243484Y-1047546D01*
X-246024Y-1056995D01*
X-246888Y-1066800D01*
X-246024Y-1076604D01*
X-243484Y-1086053D01*
X-236829Y-1100074D01*
X-236931Y-1104290D01*
X-238709Y-1108100D01*
X-241858Y-1110894D01*
X-245922Y-1112113D01*
X-254812Y-1112875D01*
X-264261Y-1115415D01*
X-273202Y-1119581D01*
X-281228Y-1125220D01*
X-288188Y-1132179D01*
X-293827Y-1140206D01*
X-297992Y-1149146D01*
X-300532Y-1158595D01*
X-301396Y-1168400D01*
X-300532Y-1178204D01*
X-297992Y-1187653D01*
X-293827Y-1196594D01*
X-288188Y-1204620D01*
X-281228Y-1211580D01*
X-273202Y-1217218D01*
X-264261Y-1221384D01*
X-254812Y-1223924D01*
G37*
G36*
X-1016000Y-1135888D02*
G01*
X-1006195Y-1135024D01*
X-996746Y-1132484D01*
X-987806Y-1128318D01*
X-983742Y-1125474D01*
X-979932Y-1123797D01*
X-975868Y-1123797D01*
X-972058Y-1125474D01*
X-967994Y-1128318D01*
X-959053Y-1132484D01*
X-949604Y-1135024D01*
X-939800Y-1135888D01*
X-929995Y-1135024D01*
X-920546Y-1132484D01*
X-911606Y-1128318D01*
X-903579Y-1122680D01*
X-896619Y-1115720D01*
X-890981Y-1107694D01*
X-886815Y-1098753D01*
X-884275Y-1089304D01*
X-883412Y-1079500D01*
X-884275Y-1069695D01*
X-886815Y-1060246D01*
X-890981Y-1051306D01*
X-896619Y-1043279D01*
X-903579Y-1036319D01*
X-911606Y-1030681D01*
X-920546Y-1026515D01*
X-929995Y-1023975D01*
X-939800Y-1023112D01*
X-949604Y-1023975D01*
X-959053Y-1026515D01*
X-967994Y-1030681D01*
X-972058Y-1033526D01*
X-975868Y-1035202D01*
X-979932Y-1035202D01*
X-983742Y-1033526D01*
X-987806Y-1030681D01*
X-996746Y-1026515D01*
X-1006195Y-1023975D01*
X-1016000Y-1023112D01*
X-1025804Y-1023975D01*
X-1035253Y-1026515D01*
X-1044194Y-1030681D01*
X-1052220Y-1036319D01*
X-1059180Y-1043279D01*
X-1064818Y-1051306D01*
X-1068984Y-1060246D01*
X-1071524Y-1069695D01*
X-1071676Y-1071524D01*
X-1072997Y-1075690D01*
X-1075944Y-1078941D01*
X-1077315Y-1079500D01*
X-1075944Y-1080058D01*
X-1072997Y-1083310D01*
X-1071676Y-1087475D01*
X-1071524Y-1089304D01*
X-1068984Y-1098753D01*
X-1064818Y-1107694D01*
X-1059180Y-1115720D01*
X-1052220Y-1122680D01*
X-1044194Y-1128318D01*
X-1035253Y-1132484D01*
X-1025804Y-1135024D01*
G37*
G36*
X825500Y-1059688D02*
G01*
X835304Y-1058824D01*
X844753Y-1056284D01*
X853694Y-1052118D01*
X861720Y-1046480D01*
X868680Y-1039520D01*
X874318Y-1031494D01*
X878484Y-1022553D01*
X881024Y-1013104D01*
X881887Y-1003300D01*
X881024Y-993495D01*
X878484Y-984046D01*
X874318Y-975106D01*
X868680Y-967079D01*
X861720Y-960119D01*
X853694Y-954481D01*
X844753Y-950315D01*
X835304Y-947775D01*
X825500Y-946912D01*
X815695Y-947775D01*
X806246Y-950315D01*
X797306Y-954481D01*
X789279Y-960119D01*
X782320Y-967079D01*
X776681Y-975106D01*
X772515Y-984046D01*
X769975Y-993495D01*
X769112Y-1003300D01*
X769975Y-1013104D01*
X772515Y-1022553D01*
X776681Y-1031494D01*
X782320Y-1039520D01*
X789279Y-1046480D01*
X797306Y-1052118D01*
X806246Y-1056284D01*
X815695Y-1058824D01*
G37*
G36*
X-444449Y-890981D02*
G01*
X-434695Y-890117D01*
X-425196Y-887577D01*
X-416306Y-883412D01*
X-408228Y-877773D01*
X-401320Y-870813D01*
X-395681Y-862787D01*
X-391515Y-853846D01*
X-388975Y-844397D01*
X-388112Y-834593D01*
X-388975Y-824788D01*
X-391515Y-815340D01*
X-395681Y-806399D01*
X-401320Y-798372D01*
X-403301Y-796391D01*
X-405587Y-792784D01*
X-405841Y-791972D01*
X-409803Y-790346D01*
X-416306Y-785774D01*
X-425196Y-781608D01*
X-434695Y-779068D01*
X-444449Y-778205D01*
X-454253Y-779068D01*
X-463753Y-781608D01*
X-472643Y-785774D01*
X-480720Y-791413D01*
X-487629Y-798372D01*
X-493268Y-806399D01*
X-497433Y-815340D01*
X-499973Y-824788D01*
X-500837Y-834593D01*
X-499973Y-844397D01*
X-497433Y-853846D01*
X-493268Y-862787D01*
X-487629Y-870813D01*
X-480720Y-877773D01*
X-472643Y-883412D01*
X-463753Y-887577D01*
X-454253Y-890117D01*
G37*
G36*
X-355600Y-792988D02*
G01*
X-345795Y-792124D01*
X-336346Y-789584D01*
X-327406Y-785418D01*
X-319379Y-779780D01*
X-312420Y-772820D01*
X-306781Y-764794D01*
X-302615Y-755853D01*
X-300075Y-746404D01*
X-299212Y-736600D01*
X-300075Y-726795D01*
X-302615Y-717346D01*
X-306781Y-708406D01*
X-312420Y-700379D01*
X-319379Y-693420D01*
X-327406Y-687781D01*
X-336346Y-683615D01*
X-345795Y-681075D01*
X-355600Y-680212D01*
X-365404Y-681075D01*
X-374853Y-683615D01*
X-383794Y-687781D01*
X-391820Y-693420D01*
X-398780Y-700379D01*
X-404418Y-708406D01*
X-408584Y-717346D01*
X-411124Y-726795D01*
X-411988Y-736600D01*
X-411124Y-746404D01*
X-408584Y-755853D01*
X-404418Y-764794D01*
X-398780Y-772820D01*
X-396798Y-774801D01*
X-394462Y-778408D01*
X-394208Y-779221D01*
X-390296Y-780846D01*
X-383794Y-785418D01*
X-374853Y-789584D01*
X-365404Y-792124D01*
G37*
G36*
X-203200Y-792988D02*
G01*
X-193395Y-792124D01*
X-183946Y-789584D01*
X-175006Y-785418D01*
X-166979Y-779780D01*
X-160020Y-772820D01*
X-154381Y-764794D01*
X-150215Y-755853D01*
X-147675Y-746404D01*
X-146812Y-736600D01*
X-147675Y-726795D01*
X-150215Y-717346D01*
X-154381Y-708406D01*
X-160020Y-700379D01*
X-166979Y-693420D01*
X-175006Y-687781D01*
X-183946Y-683615D01*
X-193395Y-681075D01*
X-203200Y-680212D01*
X-213004Y-681075D01*
X-222453Y-683615D01*
X-231394Y-687781D01*
X-239420Y-693420D01*
X-246379Y-700379D01*
X-252018Y-708406D01*
X-256184Y-717346D01*
X-258724Y-726795D01*
X-259588Y-736600D01*
X-258724Y-746404D01*
X-256184Y-755853D01*
X-252018Y-764794D01*
X-246379Y-772820D01*
X-239420Y-779780D01*
X-231394Y-785418D01*
X-222453Y-789584D01*
X-213004Y-792124D01*
G37*
G36*
X-279400Y-627888D02*
G01*
X-269595Y-627024D01*
X-260146Y-624484D01*
X-251206Y-620318D01*
X-243179Y-614680D01*
X-236220Y-607720D01*
X-230581Y-599694D01*
X-226415Y-590753D01*
X-223875Y-581304D01*
X-223012Y-571500D01*
X-223875Y-561695D01*
X-226415Y-552246D01*
X-230581Y-543306D01*
X-236220Y-535279D01*
X-243179Y-528320D01*
X-251206Y-522681D01*
X-260146Y-518515D01*
X-269595Y-515975D01*
X-279400Y-515112D01*
X-289204Y-515975D01*
X-298653Y-518515D01*
X-307594Y-522681D01*
X-315620Y-528320D01*
X-322580Y-535279D01*
X-328218Y-543306D01*
X-332384Y-552246D01*
X-334924Y-561695D01*
X-335788Y-571500D01*
X-334924Y-581304D01*
X-332384Y-590753D01*
X-328218Y-599694D01*
X-322580Y-607720D01*
X-315620Y-614680D01*
X-307594Y-620318D01*
X-298653Y-624484D01*
X-289204Y-627024D01*
G37*
G36*
X1282700Y-627888D02*
G01*
X1292504Y-627024D01*
X1301953Y-624484D01*
X1310894Y-620318D01*
X1318920Y-614680D01*
X1325880Y-607720D01*
X1331518Y-599694D01*
X1335684Y-590753D01*
X1338224Y-581304D01*
X1339088Y-571500D01*
X1338224Y-561695D01*
X1335684Y-552246D01*
X1331518Y-543306D01*
X1325880Y-535279D01*
X1318514Y-527862D01*
X1316278Y-524611D01*
X1315516Y-520700D01*
X1316278Y-516788D01*
X1318514Y-513537D01*
X1325880Y-506120D01*
X1331518Y-498093D01*
X1335684Y-489153D01*
X1338224Y-479704D01*
X1339088Y-469900D01*
X1338224Y-460095D01*
X1335684Y-450646D01*
X1331518Y-441706D01*
X1325880Y-433679D01*
X1318920Y-426720D01*
X1310894Y-421081D01*
X1301953Y-416915D01*
X1292504Y-414375D01*
X1282700Y-413512D01*
X1272895Y-414375D01*
X1263446Y-416915D01*
X1254506Y-421081D01*
X1246479Y-426720D01*
X1239520Y-433679D01*
X1233881Y-441706D01*
X1229715Y-450646D01*
X1227175Y-460095D01*
X1226312Y-469900D01*
X1227175Y-479704D01*
X1229715Y-489153D01*
X1233881Y-498093D01*
X1239520Y-506120D01*
X1246886Y-513537D01*
X1249121Y-516788D01*
X1249883Y-520700D01*
X1249121Y-524611D01*
X1246886Y-527862D01*
X1239520Y-535279D01*
X1233881Y-543306D01*
X1229715Y-552246D01*
X1227175Y-561695D01*
X1226312Y-571500D01*
X1227175Y-581304D01*
X1229715Y-590753D01*
X1233881Y-599694D01*
X1239520Y-607720D01*
X1246479Y-614680D01*
X1254506Y-620318D01*
X1263446Y-624484D01*
X1272895Y-627024D01*
G37*
G36*
X139700Y-564388D02*
G01*
X149504Y-563524D01*
X158953Y-560984D01*
X167894Y-556818D01*
X175920Y-551180D01*
X182880Y-544220D01*
X188518Y-536194D01*
X192684Y-527253D01*
X195224Y-517804D01*
X196088Y-508000D01*
X195224Y-498195D01*
X192684Y-488746D01*
X188518Y-479806D01*
X182880Y-471779D01*
X175920Y-464820D01*
X167894Y-459181D01*
X158953Y-455015D01*
X149504Y-452475D01*
X139700Y-451612D01*
X129895Y-452475D01*
X120446Y-455015D01*
X111506Y-459181D01*
X103479Y-464820D01*
X96520Y-471779D01*
X90881Y-479806D01*
X86715Y-488746D01*
X84175Y-498195D01*
X83312Y-508000D01*
X84175Y-517804D01*
X86715Y-527253D01*
X90881Y-536194D01*
X96520Y-544220D01*
X103479Y-551180D01*
X111506Y-556818D01*
X120446Y-560984D01*
X129895Y-563524D01*
G37*
G36*
X406400Y-488188D02*
G01*
X416204Y-487324D01*
X425653Y-484784D01*
X434593Y-480618D01*
X442620Y-474980D01*
X449580Y-468020D01*
X455218Y-459993D01*
X459384Y-451053D01*
X461924Y-441604D01*
X462788Y-431800D01*
X461924Y-421995D01*
X459384Y-412546D01*
X455218Y-403606D01*
X449580Y-395579D01*
X442620Y-388620D01*
X434593Y-382981D01*
X425653Y-378815D01*
X416204Y-376275D01*
X406400Y-375412D01*
X396595Y-376275D01*
X387146Y-378815D01*
X378206Y-382981D01*
X370179Y-388620D01*
X363220Y-395579D01*
X357581Y-403606D01*
X353415Y-412546D01*
X350875Y-421995D01*
X350012Y-431800D01*
X350875Y-441604D01*
X353415Y-451053D01*
X357581Y-459993D01*
X363220Y-468020D01*
X370179Y-474980D01*
X378206Y-480618D01*
X387146Y-484784D01*
X396595Y-487324D01*
G37*
G36*
X-279400Y-475488D02*
G01*
X-269595Y-474624D01*
X-260146Y-472084D01*
X-251206Y-467918D01*
X-243179Y-462280D01*
X-236220Y-455320D01*
X-230581Y-447293D01*
X-226415Y-438353D01*
X-223875Y-428904D01*
X-223012Y-419100D01*
X-223875Y-409295D01*
X-226415Y-399846D01*
X-230581Y-390906D01*
X-236220Y-382879D01*
X-243179Y-375920D01*
X-251206Y-370281D01*
X-260146Y-366115D01*
X-269595Y-363575D01*
X-279400Y-362712D01*
X-289204Y-363575D01*
X-298653Y-366115D01*
X-307594Y-370281D01*
X-315620Y-375920D01*
X-322580Y-382879D01*
X-328218Y-390906D01*
X-332384Y-399846D01*
X-334924Y-409295D01*
X-335788Y-419100D01*
X-334924Y-428904D01*
X-332384Y-438353D01*
X-328218Y-447293D01*
X-322580Y-455320D01*
X-315620Y-462280D01*
X-307594Y-467918D01*
X-298653Y-472084D01*
X-289204Y-474624D01*
G37*
G36*
X609600Y-424688D02*
G01*
X619404Y-423824D01*
X628853Y-421284D01*
X637794Y-417118D01*
X645820Y-411480D01*
X652780Y-404520D01*
X658418Y-396494D01*
X662584Y-387553D01*
X665124Y-378104D01*
X665988Y-368300D01*
X665124Y-358495D01*
X662584Y-349046D01*
X658418Y-340106D01*
X652780Y-332079D01*
X645820Y-325120D01*
X637743Y-319481D01*
X635050Y-316687D01*
X633628Y-313080D01*
X633628Y-309219D01*
X635050Y-305612D01*
X637743Y-302818D01*
X645820Y-297180D01*
X652780Y-290220D01*
X658418Y-282194D01*
X662584Y-273253D01*
X665124Y-263804D01*
X665988Y-254000D01*
X665124Y-244195D01*
X662584Y-234746D01*
X658418Y-225806D01*
X652780Y-217779D01*
X645820Y-210820D01*
X637794Y-205181D01*
X628853Y-201015D01*
X626211Y-200304D01*
X622300Y-198272D01*
X619607Y-194818D01*
X618642Y-190500D01*
X619607Y-186182D01*
X622300Y-182727D01*
X626211Y-180695D01*
X628853Y-179984D01*
X637794Y-175818D01*
X645820Y-170180D01*
X652780Y-163220D01*
X658418Y-155194D01*
X662584Y-146253D01*
X665124Y-136804D01*
X665988Y-127000D01*
X665124Y-117195D01*
X662584Y-107746D01*
X658418Y-98806D01*
X652780Y-90779D01*
X645820Y-83820D01*
X637794Y-78181D01*
X628853Y-74015D01*
X619404Y-71475D01*
X609600Y-70612D01*
X599795Y-71475D01*
X590346Y-74015D01*
X581406Y-78181D01*
X573379Y-83820D01*
X566420Y-90779D01*
X560781Y-98806D01*
X556615Y-107746D01*
X554075Y-117195D01*
X553212Y-127000D01*
X554075Y-136804D01*
X556615Y-146253D01*
X560781Y-155194D01*
X566420Y-163220D01*
X573379Y-170180D01*
X581406Y-175818D01*
X590346Y-179984D01*
X592988Y-180695D01*
X596900Y-182727D01*
X599592Y-186182D01*
X600557Y-190500D01*
X599592Y-194818D01*
X596900Y-198272D01*
X592988Y-200304D01*
X590346Y-201015D01*
X581406Y-205181D01*
X573379Y-210820D01*
X566420Y-217779D01*
X560781Y-225806D01*
X556615Y-234746D01*
X554075Y-244195D01*
X553212Y-254000D01*
X554075Y-263804D01*
X556615Y-273253D01*
X560781Y-282194D01*
X566420Y-290220D01*
X573379Y-297180D01*
X581456Y-302818D01*
X584149Y-305612D01*
X585571Y-309219D01*
X585571Y-313080D01*
X584149Y-316687D01*
X581456Y-319481D01*
X573379Y-325120D01*
X566420Y-332079D01*
X560781Y-340106D01*
X556615Y-349046D01*
X554075Y-358495D01*
X553212Y-368300D01*
X554075Y-378104D01*
X556615Y-387553D01*
X560781Y-396494D01*
X566420Y-404520D01*
X573379Y-411480D01*
X581406Y-417118D01*
X590346Y-421284D01*
X599795Y-423824D01*
G37*
G36*
X165100Y-310388D02*
G01*
X174904Y-309524D01*
X184353Y-306984D01*
X193294Y-302818D01*
X201320Y-297180D01*
X208279Y-290220D01*
X213918Y-282194D01*
X218084Y-273253D01*
X220624Y-263804D01*
X221488Y-254000D01*
X220624Y-244195D01*
X218084Y-234746D01*
X213918Y-225806D01*
X208279Y-217779D01*
X201320Y-210820D01*
X193294Y-205181D01*
X184353Y-201015D01*
X174904Y-198475D01*
X165100Y-197612D01*
X155295Y-198475D01*
X145846Y-201015D01*
X136906Y-205181D01*
X128879Y-210820D01*
X121920Y-217779D01*
X116281Y-225806D01*
X112115Y-234746D01*
X109575Y-244195D01*
X108712Y-254000D01*
X109575Y-263804D01*
X112115Y-273253D01*
X116281Y-282194D01*
X121920Y-290220D01*
X128879Y-297180D01*
X136906Y-302818D01*
X145846Y-306984D01*
X155295Y-309524D01*
G37*
G36*
X-279400Y-310388D02*
G01*
X-269595Y-309524D01*
X-260146Y-306984D01*
X-251206Y-302818D01*
X-243179Y-297180D01*
X-236220Y-290220D01*
X-230581Y-282194D01*
X-226415Y-273253D01*
X-223875Y-263804D01*
X-223012Y-254000D01*
X-223875Y-244195D01*
X-226415Y-234746D01*
X-230581Y-225806D01*
X-236220Y-217779D01*
X-243179Y-210820D01*
X-251206Y-205181D01*
X-260146Y-201015D01*
X-269595Y-198475D01*
X-279400Y-197612D01*
X-289204Y-198475D01*
X-298653Y-201015D01*
X-307594Y-205181D01*
X-315620Y-210820D01*
X-322580Y-217779D01*
X-328218Y-225806D01*
X-332384Y-234746D01*
X-334924Y-244195D01*
X-335788Y-254000D01*
X-334924Y-263804D01*
X-332384Y-273253D01*
X-328218Y-282194D01*
X-322580Y-290220D01*
X-315620Y-297180D01*
X-307594Y-302818D01*
X-298653Y-306984D01*
X-289204Y-309524D01*
G37*
G36*
X368300Y-310388D02*
G01*
X378104Y-309524D01*
X387553Y-306984D01*
X396494Y-302818D01*
X404520Y-297180D01*
X411480Y-290220D01*
X417118Y-282194D01*
X421284Y-273253D01*
X423824Y-263804D01*
X424688Y-254000D01*
X423824Y-244195D01*
X421284Y-234746D01*
X417118Y-225806D01*
X411480Y-217779D01*
X404520Y-210820D01*
X396494Y-205181D01*
X387553Y-201015D01*
X378104Y-198475D01*
X368300Y-197612D01*
X358495Y-198475D01*
X349046Y-201015D01*
X340106Y-205181D01*
X332079Y-210820D01*
X325120Y-217779D01*
X319481Y-225806D01*
X315315Y-234746D01*
X312775Y-244195D01*
X311912Y-254000D01*
X312775Y-263804D01*
X315315Y-273253D01*
X319481Y-282194D01*
X325120Y-290220D01*
X332079Y-297180D01*
X340106Y-302818D01*
X349046Y-306984D01*
X358495Y-309524D01*
G37*
G36*
X-508000Y-310388D02*
G01*
X-498195Y-309524D01*
X-488746Y-306984D01*
X-479806Y-302818D01*
X-471779Y-297180D01*
X-464820Y-290220D01*
X-459181Y-282194D01*
X-455015Y-273253D01*
X-452475Y-263804D01*
X-451612Y-254000D01*
X-452475Y-244195D01*
X-455015Y-234746D01*
X-459181Y-225806D01*
X-464820Y-217779D01*
X-471779Y-210820D01*
X-479806Y-205181D01*
X-488746Y-201015D01*
X-498195Y-198475D01*
X-508000Y-197612D01*
X-517804Y-198475D01*
X-527253Y-201015D01*
X-536194Y-205181D01*
X-544220Y-210820D01*
X-551180Y-217779D01*
X-556818Y-225806D01*
X-560984Y-234746D01*
X-563524Y-244195D01*
X-564388Y-254000D01*
X-563524Y-263804D01*
X-560984Y-273253D01*
X-556818Y-282194D01*
X-551180Y-290220D01*
X-544220Y-297180D01*
X-536194Y-302818D01*
X-527253Y-306984D01*
X-517804Y-309524D01*
G37*
G36*
X-83464Y-93878D02*
G01*
X-73710Y-93014D01*
X-64211Y-90474D01*
X-55321Y-86309D01*
X-47244Y-80670D01*
X-40335Y-73710D01*
X-34696Y-65684D01*
X-30530Y-56743D01*
X-27990Y-47294D01*
X-27127Y-37490D01*
X-27990Y-27686D01*
X-30530Y-18237D01*
X-34696Y-9296D01*
X-40335Y-1270D01*
X-47244Y5689D01*
X-55321Y11328D01*
X-64211Y15494D01*
X-73710Y18034D01*
X-83464Y18897D01*
X-93268Y18034D01*
X-102768Y15494D01*
X-111658Y11328D01*
X-119735Y5689D01*
X-126644Y-1270D01*
X-132283Y-9296D01*
X-136448Y-18237D01*
X-138988Y-27686D01*
X-139852Y-37490D01*
X-138988Y-47294D01*
X-136448Y-56743D01*
X-132283Y-65684D01*
X-126644Y-73710D01*
X-119735Y-80670D01*
X-111658Y-86309D01*
X-102768Y-90474D01*
X-93268Y-93014D01*
G37*
G36*
X444500Y57912D02*
G01*
X454304Y58775D01*
X463753Y61315D01*
X472693Y65481D01*
X480720Y71120D01*
X487680Y78079D01*
X493318Y86106D01*
X497484Y95046D01*
X500024Y104495D01*
X500888Y114300D01*
X500024Y124104D01*
X497484Y133553D01*
X493318Y142494D01*
X490474Y146558D01*
X488797Y150368D01*
X488797Y154432D01*
X490474Y158242D01*
X493318Y162306D01*
X497484Y171246D01*
X500024Y180695D01*
X500888Y190500D01*
X500024Y200304D01*
X497484Y209753D01*
X493318Y218694D01*
X487680Y226720D01*
X480720Y233679D01*
X472693Y239318D01*
X463753Y243484D01*
X454304Y246024D01*
X444500Y246888D01*
X434695Y246024D01*
X425246Y243484D01*
X416306Y239318D01*
X408279Y233679D01*
X401320Y226720D01*
X395681Y218694D01*
X391515Y209753D01*
X388975Y200304D01*
X388112Y190500D01*
X388975Y180695D01*
X391515Y171246D01*
X395681Y162306D01*
X398526Y158242D01*
X400202Y154432D01*
X400202Y150368D01*
X398526Y146558D01*
X395681Y142494D01*
X391515Y133553D01*
X388975Y124104D01*
X388112Y114300D01*
X388975Y104495D01*
X391515Y95046D01*
X395681Y86106D01*
X401320Y78079D01*
X408279Y71120D01*
X416306Y65481D01*
X425246Y61315D01*
X434695Y58775D01*
G37*
G36*
X-279400Y83312D02*
G01*
X-269595Y84175D01*
X-260146Y86715D01*
X-251206Y90881D01*
X-243179Y96520D01*
X-236220Y103479D01*
X-230581Y111506D01*
X-226415Y120446D01*
X-223875Y129895D01*
X-223012Y139700D01*
X-223875Y149504D01*
X-226415Y158953D01*
X-230581Y167894D01*
X-236220Y175920D01*
X-243179Y182880D01*
X-251206Y188518D01*
X-260146Y192684D01*
X-269595Y195224D01*
X-279400Y196088D01*
X-289204Y195224D01*
X-298653Y192684D01*
X-307594Y188518D01*
X-315620Y182880D01*
X-322580Y175920D01*
X-328218Y167894D01*
X-332384Y158953D01*
X-334924Y149504D01*
X-335788Y139700D01*
X-334924Y129895D01*
X-332384Y120446D01*
X-328218Y111506D01*
X-322580Y103479D01*
X-315620Y96520D01*
X-307594Y90881D01*
X-298653Y86715D01*
X-289204Y84175D01*
G37*
G36*
X-508000Y83312D02*
G01*
X-498195Y84175D01*
X-488746Y86715D01*
X-479806Y90881D01*
X-471779Y96520D01*
X-464820Y103479D01*
X-459181Y111506D01*
X-455015Y120446D01*
X-452475Y129895D01*
X-451612Y139700D01*
X-452475Y149504D01*
X-455015Y158953D01*
X-459181Y167894D01*
X-464820Y175920D01*
X-471779Y182880D01*
X-479806Y188518D01*
X-488746Y192684D01*
X-498195Y195224D01*
X-508000Y196088D01*
X-517804Y195224D01*
X-527253Y192684D01*
X-536194Y188518D01*
X-544220Y182880D01*
X-551180Y175920D01*
X-556818Y167894D01*
X-560984Y158953D01*
X-563524Y149504D01*
X-564388Y139700D01*
X-563524Y129895D01*
X-560984Y120446D01*
X-556818Y111506D01*
X-551180Y103479D01*
X-544220Y96520D01*
X-536194Y90881D01*
X-527253Y86715D01*
X-517804Y84175D01*
G37*
G36*
X-83464Y89611D02*
G01*
X-73710Y90474D01*
X-64211Y93014D01*
X-55321Y97180D01*
X-47244Y102819D01*
X-40335Y109778D01*
X-34696Y117805D01*
X-30530Y126746D01*
X-27990Y136194D01*
X-27127Y145999D01*
X-27990Y155803D01*
X-30530Y165252D01*
X-34696Y174193D01*
X-40335Y182219D01*
X-47244Y189179D01*
X-55321Y194818D01*
X-64211Y198983D01*
X-73710Y201523D01*
X-83464Y202387D01*
X-93268Y201523D01*
X-102768Y198983D01*
X-111658Y194818D01*
X-119735Y189179D01*
X-126644Y182219D01*
X-132283Y174193D01*
X-136448Y165252D01*
X-138988Y155803D01*
X-139852Y145999D01*
X-138988Y136194D01*
X-136448Y126746D01*
X-132283Y117805D01*
X-126644Y109778D01*
X-119735Y102819D01*
X-111658Y97180D01*
X-102768Y93014D01*
X-93268Y90474D01*
G37*
G36*
X283514Y89611D02*
G01*
X293268Y90474D01*
X302768Y93014D01*
X311658Y97180D01*
X319735Y102819D01*
X326644Y109778D01*
X332282Y117805D01*
X336448Y126746D01*
X338988Y136194D01*
X339852Y145999D01*
X338988Y155803D01*
X336448Y165252D01*
X332282Y174193D01*
X326644Y182219D01*
X319735Y189179D01*
X311658Y194818D01*
X302768Y198983D01*
X293268Y201523D01*
X283514Y202387D01*
X273710Y201523D01*
X264210Y198983D01*
X255320Y194818D01*
X247243Y189179D01*
X240334Y182219D01*
X234696Y174193D01*
X230530Y165252D01*
X227990Y155803D01*
X227126Y145999D01*
X227990Y136194D01*
X230530Y126746D01*
X234696Y117805D01*
X240334Y109778D01*
X247243Y102819D01*
X255320Y97180D01*
X264210Y93014D01*
X273710Y90474D01*
G37*
G36*
X-1041400Y121412D02*
G01*
X-1031595Y122275D01*
X-1022146Y124815D01*
X-1013206Y128981D01*
X-1005179Y134620D01*
X-998219Y141579D01*
X-992581Y149606D01*
X-988415Y158546D01*
X-985875Y167995D01*
X-985012Y177800D01*
X-985875Y187604D01*
X-988415Y197053D01*
X-992581Y205994D01*
X-998219Y214020D01*
X-1005179Y220979D01*
X-1013206Y226618D01*
X-1022146Y230784D01*
X-1031595Y233324D01*
X-1041400Y234188D01*
X-1051204Y233324D01*
X-1060653Y230784D01*
X-1069594Y226618D01*
X-1077620Y220979D01*
X-1084580Y214020D01*
X-1090218Y205994D01*
X-1094384Y197053D01*
X-1096924Y187604D01*
X-1097788Y177800D01*
X-1096924Y167995D01*
X-1094384Y158546D01*
X-1090218Y149606D01*
X-1084580Y141579D01*
X-1077620Y134620D01*
X-1069594Y128981D01*
X-1060653Y124815D01*
X-1051204Y122275D01*
G37*
G36*
X-1193800Y121412D02*
G01*
X-1183995Y122275D01*
X-1174546Y124815D01*
X-1165606Y128981D01*
X-1157579Y134620D01*
X-1150620Y141579D01*
X-1144981Y149606D01*
X-1140815Y158546D01*
X-1138275Y167995D01*
X-1137412Y177800D01*
X-1138275Y187604D01*
X-1140815Y197053D01*
X-1144981Y205994D01*
X-1150620Y214020D01*
X-1157579Y220979D01*
X-1165606Y226618D01*
X-1174546Y230784D01*
X-1183995Y233324D01*
X-1193800Y234188D01*
X-1203604Y233324D01*
X-1213053Y230784D01*
X-1221994Y226618D01*
X-1230020Y220979D01*
X-1236980Y214020D01*
X-1242618Y205994D01*
X-1246784Y197053D01*
X-1249324Y187604D01*
X-1250188Y177800D01*
X-1249324Y167995D01*
X-1246784Y158546D01*
X-1242618Y149606D01*
X-1236980Y141579D01*
X-1230020Y134620D01*
X-1221994Y128981D01*
X-1213053Y124815D01*
X-1203604Y122275D01*
G37*
G36*
X-279400Y235712D02*
G01*
X-269595Y236575D01*
X-260146Y239115D01*
X-251206Y243281D01*
X-243179Y248920D01*
X-236220Y255879D01*
X-230581Y263906D01*
X-226415Y272846D01*
X-223875Y282295D01*
X-223012Y292100D01*
X-223875Y301904D01*
X-226415Y311353D01*
X-230581Y320294D01*
X-236220Y328320D01*
X-243179Y335280D01*
X-251206Y340918D01*
X-260146Y345084D01*
X-269595Y347624D01*
X-279400Y348488D01*
X-289204Y347624D01*
X-298653Y345084D01*
X-307594Y340918D01*
X-315620Y335280D01*
X-322580Y328320D01*
X-328218Y320294D01*
X-332384Y311353D01*
X-334924Y301904D01*
X-335788Y292100D01*
X-334924Y282295D01*
X-332384Y272846D01*
X-328218Y263906D01*
X-322580Y255879D01*
X-315620Y248920D01*
X-307594Y243281D01*
X-298653Y239115D01*
X-289204Y236575D01*
G37*
G36*
X-711200Y235712D02*
G01*
X-701395Y236575D01*
X-691946Y239115D01*
X-683006Y243281D01*
X-678942Y246125D01*
X-675132Y247802D01*
X-671068Y247802D01*
X-667258Y246125D01*
X-663194Y243281D01*
X-654253Y239115D01*
X-644804Y236575D01*
X-635000Y235712D01*
X-625195Y236575D01*
X-615746Y239115D01*
X-606806Y243281D01*
X-598779Y248920D01*
X-591820Y255879D01*
X-586181Y263906D01*
X-582015Y272846D01*
X-581304Y275488D01*
X-579272Y279400D01*
X-575818Y282092D01*
X-571500Y283057D01*
X-567182Y282092D01*
X-563727Y279400D01*
X-561695Y275488D01*
X-560984Y272846D01*
X-556818Y263906D01*
X-551180Y255879D01*
X-544220Y248920D01*
X-536194Y243281D01*
X-527253Y239115D01*
X-517804Y236575D01*
X-508000Y235712D01*
X-498195Y236575D01*
X-488746Y239115D01*
X-479806Y243281D01*
X-471779Y248920D01*
X-464820Y255879D01*
X-459181Y263906D01*
X-455015Y272846D01*
X-452475Y282295D01*
X-451612Y292100D01*
X-452475Y301904D01*
X-455015Y311353D01*
X-459181Y320294D01*
X-464820Y328320D01*
X-471779Y335280D01*
X-479806Y340918D01*
X-488746Y345084D01*
X-498195Y347624D01*
X-508000Y348488D01*
X-517804Y347624D01*
X-527253Y345084D01*
X-536194Y340918D01*
X-544220Y335280D01*
X-551180Y328320D01*
X-556818Y320294D01*
X-560984Y311353D01*
X-561695Y308711D01*
X-563727Y304800D01*
X-567182Y302107D01*
X-571500Y301142D01*
X-575818Y302107D01*
X-579272Y304800D01*
X-581304Y308711D01*
X-582015Y311353D01*
X-586181Y320294D01*
X-591820Y328320D01*
X-598779Y335280D01*
X-606806Y340918D01*
X-615746Y345084D01*
X-625195Y347624D01*
X-635000Y348488D01*
X-644804Y347624D01*
X-654253Y345084D01*
X-663194Y340918D01*
X-667258Y338074D01*
X-671068Y336397D01*
X-675132Y336397D01*
X-678942Y338074D01*
X-683006Y340918D01*
X-691946Y345084D01*
X-701395Y347624D01*
X-711200Y348488D01*
X-721004Y347624D01*
X-730453Y345084D01*
X-739394Y340918D01*
X-747420Y335280D01*
X-754380Y328320D01*
X-760018Y320294D01*
X-764184Y311353D01*
X-766724Y301904D01*
X-767588Y292100D01*
X-766724Y282295D01*
X-764184Y272846D01*
X-760018Y263906D01*
X-754380Y255879D01*
X-747420Y248920D01*
X-739394Y243281D01*
X-730453Y239115D01*
X-721004Y236575D01*
G37*
G36*
X100025Y273050D02*
G01*
X109778Y273913D01*
X119278Y276453D01*
X128168Y280619D01*
X136245Y286258D01*
X143154Y293217D01*
X148793Y301244D01*
X152958Y310184D01*
X155498Y319633D01*
X156362Y329438D01*
X155498Y339242D01*
X152958Y348691D01*
X148793Y357632D01*
X143154Y365658D01*
X136245Y372618D01*
X128168Y378256D01*
X119278Y382422D01*
X109778Y384962D01*
X100025Y385826D01*
X90220Y384962D01*
X80721Y382422D01*
X71831Y378256D01*
X63754Y372618D01*
X56845Y365658D01*
X51206Y357632D01*
X47040Y348691D01*
X44500Y339242D01*
X43637Y329438D01*
X44500Y319633D01*
X47040Y310184D01*
X51206Y301244D01*
X56845Y293217D01*
X63754Y286258D01*
X71831Y280619D01*
X80721Y276453D01*
X90220Y273913D01*
G37*
G36*
X-83464Y273151D02*
G01*
X-73710Y274015D01*
X-64211Y276555D01*
X-55321Y280720D01*
X-47244Y286359D01*
X-40335Y293268D01*
X-34696Y301345D01*
X-30530Y310235D01*
X-27990Y319735D01*
X-27127Y329488D01*
X-27990Y339293D01*
X-30530Y348792D01*
X-34696Y357682D01*
X-40335Y365760D01*
X-47244Y372668D01*
X-55321Y378307D01*
X-64211Y382473D01*
X-73710Y385013D01*
X-83464Y385876D01*
X-93268Y385013D01*
X-102768Y382473D01*
X-111658Y378307D01*
X-119735Y372668D01*
X-126644Y365760D01*
X-132283Y357682D01*
X-136448Y348792D01*
X-138988Y339293D01*
X-139852Y329488D01*
X-138988Y319735D01*
X-136448Y310235D01*
X-132283Y301345D01*
X-126644Y293268D01*
X-119735Y286359D01*
X-111658Y280720D01*
X-102768Y276555D01*
X-93268Y274015D01*
G37*
G36*
X660400Y286512D02*
G01*
X670204Y287375D01*
X679653Y289915D01*
X688594Y294081D01*
X696620Y299720D01*
X703580Y306679D01*
X709218Y314706D01*
X713384Y323646D01*
X715924Y333095D01*
X716788Y342900D01*
X715924Y352704D01*
X713384Y362153D01*
X709218Y371094D01*
X703580Y379120D01*
X696620Y386080D01*
X688594Y391718D01*
X679653Y395884D01*
X670204Y398424D01*
X660400Y399288D01*
X650595Y398424D01*
X641146Y395884D01*
X632206Y391718D01*
X624179Y386080D01*
X617220Y379120D01*
X611581Y371094D01*
X607415Y362153D01*
X604875Y352704D01*
X604012Y342900D01*
X604875Y333095D01*
X607415Y323646D01*
X611581Y314706D01*
X617220Y306679D01*
X624179Y299720D01*
X632206Y294081D01*
X641146Y289915D01*
X650595Y287375D01*
G37*
G36*
X-1041400Y324612D02*
G01*
X-1031595Y325475D01*
X-1022146Y328015D01*
X-1013206Y332181D01*
X-1005179Y337820D01*
X-998219Y344779D01*
X-992581Y352806D01*
X-988415Y361746D01*
X-985875Y371195D01*
X-985012Y381000D01*
X-985875Y390804D01*
X-988415Y400253D01*
X-992581Y409194D01*
X-998219Y417220D01*
X-1005179Y424180D01*
X-1013206Y429818D01*
X-1022146Y433984D01*
X-1031595Y436524D01*
X-1041400Y437388D01*
X-1051204Y436524D01*
X-1060653Y433984D01*
X-1069594Y429818D01*
X-1077620Y424180D01*
X-1084580Y417220D01*
X-1090218Y409194D01*
X-1094384Y400253D01*
X-1096924Y390804D01*
X-1097788Y381000D01*
X-1096924Y371195D01*
X-1094384Y361746D01*
X-1090218Y352806D01*
X-1084580Y344779D01*
X-1077620Y337820D01*
X-1069594Y332181D01*
X-1060653Y328015D01*
X-1051204Y325475D01*
G37*
G36*
X1282700Y324612D02*
G01*
X1292504Y325475D01*
X1301953Y328015D01*
X1310894Y332181D01*
X1318920Y337820D01*
X1325880Y344779D01*
X1331518Y352806D01*
X1335684Y361746D01*
X1338224Y371195D01*
X1339088Y381000D01*
X1338224Y390804D01*
X1335684Y400253D01*
X1331518Y409194D01*
X1325880Y417220D01*
X1318920Y424180D01*
X1310894Y429818D01*
X1301953Y433984D01*
X1292504Y436524D01*
X1282700Y437388D01*
X1272895Y436524D01*
X1263446Y433984D01*
X1254506Y429818D01*
X1246479Y424180D01*
X1239520Y417220D01*
X1233881Y409194D01*
X1229715Y400253D01*
X1227175Y390804D01*
X1226312Y381000D01*
X1227175Y371195D01*
X1229715Y361746D01*
X1233881Y352806D01*
X1239520Y344779D01*
X1246479Y337820D01*
X1254506Y332181D01*
X1263446Y328015D01*
X1272895Y325475D01*
G37*
G36*
X114300Y413512D02*
G01*
X124104Y414375D01*
X133553Y416915D01*
X142494Y421081D01*
X150520Y426720D01*
X157480Y433679D01*
X163118Y441706D01*
X167284Y450646D01*
X169824Y460095D01*
X170688Y469900D01*
X169824Y479704D01*
X167284Y489153D01*
X163118Y498093D01*
X157480Y506120D01*
X150520Y513080D01*
X142494Y518718D01*
X133553Y522884D01*
X124104Y525424D01*
X114300Y526288D01*
X104495Y525424D01*
X95046Y522884D01*
X86106Y518718D01*
X78079Y513080D01*
X71120Y506120D01*
X65481Y498093D01*
X61315Y489153D01*
X58775Y479704D01*
X57912Y469900D01*
X58775Y460095D01*
X61315Y450646D01*
X65481Y441706D01*
X71120Y433679D01*
X78079Y426720D01*
X86106Y421081D01*
X95046Y416915D01*
X104495Y414375D01*
G37*
G36*
X660400Y451612D02*
G01*
X670204Y452475D01*
X679653Y455015D01*
X688594Y459181D01*
X696620Y464820D01*
X703580Y471779D01*
X709218Y479806D01*
X713384Y488746D01*
X715924Y498195D01*
X716788Y508000D01*
X715924Y517804D01*
X713384Y527253D01*
X709218Y536194D01*
X703580Y544220D01*
X696620Y551180D01*
X688594Y556818D01*
X679653Y560984D01*
X670204Y563524D01*
X660400Y564388D01*
X650595Y563524D01*
X641146Y560984D01*
X632206Y556818D01*
X624179Y551180D01*
X617220Y544220D01*
X611581Y536194D01*
X607415Y527253D01*
X604875Y517804D01*
X604012Y508000D01*
X604875Y498195D01*
X607415Y488746D01*
X611581Y479806D01*
X617220Y471779D01*
X624179Y464820D01*
X632206Y459181D01*
X641146Y455015D01*
X650595Y452475D01*
G37*
G36*
X-177800Y489712D02*
G01*
X-167995Y490575D01*
X-158546Y493115D01*
X-149606Y497281D01*
X-141579Y502920D01*
X-134620Y509879D01*
X-128981Y517906D01*
X-124815Y526846D01*
X-122275Y536295D01*
X-121412Y546100D01*
X-122275Y555904D01*
X-124815Y565353D01*
X-128981Y574294D01*
X-134620Y582320D01*
X-141579Y589280D01*
X-149606Y594918D01*
X-158546Y599084D01*
X-167995Y601624D01*
X-177800Y602488D01*
X-187604Y601624D01*
X-197053Y599084D01*
X-205994Y594918D01*
X-214020Y589280D01*
X-220979Y582320D01*
X-226618Y574294D01*
X-230784Y565353D01*
X-233324Y555904D01*
X-234188Y546100D01*
X-233324Y536295D01*
X-230784Y526846D01*
X-226618Y517906D01*
X-220979Y509879D01*
X-214020Y502920D01*
X-205994Y497281D01*
X-197053Y493115D01*
X-187604Y490575D01*
G37*
G36*
X114300Y591312D02*
G01*
X124104Y592175D01*
X133553Y594715D01*
X142494Y598881D01*
X150520Y604520D01*
X157480Y611479D01*
X163118Y619506D01*
X167284Y628446D01*
X169824Y637895D01*
X170688Y647700D01*
X169824Y657504D01*
X167284Y666953D01*
X163118Y675894D01*
X157480Y683920D01*
X150520Y690880D01*
X142494Y696518D01*
X133553Y700684D01*
X124104Y703224D01*
X114300Y704088D01*
X104495Y703224D01*
X95046Y700684D01*
X86106Y696518D01*
X78079Y690880D01*
X71120Y683920D01*
X65481Y675894D01*
X61315Y666953D01*
X58775Y657504D01*
X57912Y647700D01*
X58775Y637895D01*
X61315Y628446D01*
X65481Y619506D01*
X71120Y611479D01*
X78079Y604520D01*
X86106Y598881D01*
X95046Y594715D01*
X104495Y592175D01*
G37*
G36*
X-571500Y604012D02*
G01*
X-561695Y604875D01*
X-552246Y607415D01*
X-543306Y611581D01*
X-535279Y617220D01*
X-528320Y624179D01*
X-522681Y632206D01*
X-518515Y641146D01*
X-515975Y650595D01*
X-515112Y660400D01*
X-515975Y670204D01*
X-518515Y679653D01*
X-522681Y688594D01*
X-528320Y696620D01*
X-535279Y703580D01*
X-543306Y709218D01*
X-552246Y713384D01*
X-561695Y715924D01*
X-571500Y716788D01*
X-581304Y715924D01*
X-590753Y713384D01*
X-599694Y709218D01*
X-605231Y705459D01*
X-617118Y699770D01*
X-621538Y698754D01*
X-640283Y698754D01*
X-644194Y699516D01*
X-647496Y701751D01*
X-657148Y711403D01*
X-659384Y714705D01*
X-660146Y718616D01*
X-660146Y1258062D01*
X-659130Y1262481D01*
X-653440Y1274368D01*
X-649681Y1279906D01*
X-645515Y1288846D01*
X-642975Y1298295D01*
X-642112Y1308100D01*
X-642975Y1317904D01*
X-645515Y1327353D01*
X-649681Y1336294D01*
X-655320Y1344320D01*
X-662279Y1351280D01*
X-670306Y1356918D01*
X-679246Y1361084D01*
X-688695Y1363624D01*
X-698500Y1364488D01*
X-708304Y1363624D01*
X-717753Y1361084D01*
X-726694Y1356918D01*
X-734720Y1351280D01*
X-741680Y1344320D01*
X-747318Y1336294D01*
X-751484Y1327353D01*
X-754024Y1317904D01*
X-754888Y1308100D01*
X-754024Y1298295D01*
X-751484Y1288846D01*
X-747318Y1279906D01*
X-743559Y1274368D01*
X-737870Y1262481D01*
X-736854Y1258062D01*
X-736854Y699008D01*
X-736092Y691032D01*
X-733907Y683818D01*
X-730351Y677214D01*
X-725271Y671017D01*
X-687882Y633628D01*
X-681685Y628548D01*
X-675081Y624992D01*
X-667867Y622808D01*
X-659892Y622046D01*
X-621538Y622046D01*
X-617118Y621030D01*
X-605231Y615340D01*
X-599694Y611581D01*
X-590753Y607415D01*
X-581304Y604875D01*
G37*
G36*
X-1041400Y638606D02*
G01*
X-1031595Y639470D01*
X-1022146Y642010D01*
X-1013206Y646176D01*
X-1005179Y651814D01*
X-998219Y658774D01*
X-992581Y666800D01*
X-988415Y675741D01*
X-985875Y685190D01*
X-985012Y694994D01*
X-985875Y704799D01*
X-988415Y714248D01*
X-992581Y723188D01*
X-998219Y731215D01*
X-1005179Y738174D01*
X-1013206Y743813D01*
X-1022146Y747979D01*
X-1031595Y750519D01*
X-1041400Y751382D01*
X-1051204Y750519D01*
X-1060653Y747979D01*
X-1069594Y743813D01*
X-1077620Y738174D01*
X-1084580Y731215D01*
X-1090218Y723188D01*
X-1094384Y714248D01*
X-1096924Y704799D01*
X-1097788Y694994D01*
X-1096924Y685190D01*
X-1094384Y675741D01*
X-1090218Y666800D01*
X-1084580Y658774D01*
X-1077620Y651814D01*
X-1069594Y646176D01*
X-1060653Y642010D01*
X-1051204Y639470D01*
G37*
G36*
X1282700Y667512D02*
G01*
X1292504Y668375D01*
X1301953Y670915D01*
X1310894Y675081D01*
X1318920Y680720D01*
X1325880Y687679D01*
X1331518Y695706D01*
X1335684Y704646D01*
X1338224Y714095D01*
X1339088Y723900D01*
X1338224Y733704D01*
X1335684Y743153D01*
X1331518Y752094D01*
X1325880Y760120D01*
X1318920Y767080D01*
X1310894Y772718D01*
X1301953Y776884D01*
X1292504Y779424D01*
X1282700Y780288D01*
X1272895Y779424D01*
X1263446Y776884D01*
X1254506Y772718D01*
X1246479Y767080D01*
X1239520Y760120D01*
X1233881Y752094D01*
X1229715Y743153D01*
X1227175Y733704D01*
X1226312Y723900D01*
X1227175Y714095D01*
X1229715Y704646D01*
X1233881Y695706D01*
X1239520Y687679D01*
X1246479Y680720D01*
X1254506Y675081D01*
X1263446Y670915D01*
X1272895Y668375D01*
G37*
G36*
X-177800Y667512D02*
G01*
X-167995Y668375D01*
X-158546Y670915D01*
X-149606Y675081D01*
X-141579Y680720D01*
X-134620Y687679D01*
X-128981Y695706D01*
X-124815Y704646D01*
X-122275Y714095D01*
X-121412Y723900D01*
X-122275Y733704D01*
X-124815Y743153D01*
X-128981Y752094D01*
X-134620Y760120D01*
X-141986Y767537D01*
X-144221Y770788D01*
X-144983Y774700D01*
X-144221Y778611D01*
X-141986Y781862D01*
X-134620Y789279D01*
X-128981Y797306D01*
X-124815Y806246D01*
X-122275Y815695D01*
X-121412Y825500D01*
X-122275Y835304D01*
X-124815Y844753D01*
X-128981Y853694D01*
X-134620Y861720D01*
X-141579Y868680D01*
X-149606Y874318D01*
X-158546Y878484D01*
X-161188Y879195D01*
X-165100Y881227D01*
X-167792Y884682D01*
X-168757Y889000D01*
X-167792Y893318D01*
X-165100Y896772D01*
X-161188Y898804D01*
X-158546Y899515D01*
X-149606Y903681D01*
X-141579Y909319D01*
X-134620Y916279D01*
X-128981Y924356D01*
X-126187Y927049D01*
X-122580Y928471D01*
X-118719Y928471D01*
X-115112Y927049D01*
X-112318Y924356D01*
X-106680Y916279D01*
X-99720Y909319D01*
X-91694Y903681D01*
X-82753Y899515D01*
X-73304Y896975D01*
X-63500Y896112D01*
X-53695Y896975D01*
X-44246Y899515D01*
X-35306Y903681D01*
X-27279Y909319D01*
X-20320Y916279D01*
X-14681Y924306D01*
X-10515Y933246D01*
X-7975Y942695D01*
X-7112Y952500D01*
X-7975Y962304D01*
X-10515Y971753D01*
X-14681Y980694D01*
X-20320Y988720D01*
X-27279Y995680D01*
X-35306Y1001318D01*
X-44246Y1005484D01*
X-53695Y1008024D01*
X-63500Y1008887D01*
X-73304Y1008024D01*
X-82753Y1005484D01*
X-91694Y1001318D01*
X-99720Y995680D01*
X-106680Y988720D01*
X-112318Y980643D01*
X-115112Y977950D01*
X-118719Y976528D01*
X-122580Y976528D01*
X-126187Y977950D01*
X-128981Y980643D01*
X-134620Y988720D01*
X-141579Y995680D01*
X-149606Y1001318D01*
X-158546Y1005484D01*
X-167995Y1008024D01*
X-177800Y1008887D01*
X-187604Y1008024D01*
X-197053Y1005484D01*
X-205994Y1001318D01*
X-214020Y995680D01*
X-220979Y988720D01*
X-226618Y980694D01*
X-230784Y971753D01*
X-233324Y962304D01*
X-234188Y952500D01*
X-233324Y942695D01*
X-230784Y933246D01*
X-226618Y924306D01*
X-220979Y916279D01*
X-214020Y909319D01*
X-205994Y903681D01*
X-197053Y899515D01*
X-194411Y898804D01*
X-190500Y896772D01*
X-187807Y893318D01*
X-186842Y889000D01*
X-187807Y884682D01*
X-190500Y881227D01*
X-194411Y879195D01*
X-197053Y878484D01*
X-205994Y874318D01*
X-214020Y868680D01*
X-220979Y861720D01*
X-226618Y853694D01*
X-230784Y844753D01*
X-233324Y835304D01*
X-234188Y825500D01*
X-233324Y815695D01*
X-230784Y806246D01*
X-226618Y797306D01*
X-220979Y789279D01*
X-213614Y781862D01*
X-211378Y778611D01*
X-210616Y774700D01*
X-211378Y770788D01*
X-213614Y767537D01*
X-220979Y760120D01*
X-226618Y752094D01*
X-230784Y743153D01*
X-233324Y733704D01*
X-234188Y723900D01*
X-233324Y714095D01*
X-230784Y704646D01*
X-226618Y695706D01*
X-220979Y687679D01*
X-214020Y680720D01*
X-205994Y675081D01*
X-197053Y670915D01*
X-187604Y668375D01*
G37*
G36*
X-571500Y756412D02*
G01*
X-561695Y757275D01*
X-552246Y759815D01*
X-543306Y763981D01*
X-535279Y769620D01*
X-528320Y776579D01*
X-522681Y784606D01*
X-518515Y793546D01*
X-515975Y802995D01*
X-515112Y812800D01*
X-515975Y822604D01*
X-518515Y832053D01*
X-522681Y840994D01*
X-528320Y849020D01*
X-535279Y855980D01*
X-543306Y861618D01*
X-552246Y865784D01*
X-561695Y868324D01*
X-571500Y869187D01*
X-581304Y868324D01*
X-590753Y865784D01*
X-599694Y861618D01*
X-607720Y855980D01*
X-614680Y849020D01*
X-620318Y840994D01*
X-624484Y832053D01*
X-627024Y822604D01*
X-627888Y812800D01*
X-627024Y802995D01*
X-624484Y793546D01*
X-620318Y784606D01*
X-614680Y776579D01*
X-607720Y769620D01*
X-599694Y763981D01*
X-590753Y759815D01*
X-581304Y757275D01*
G37*
G36*
X114300Y781812D02*
G01*
X124104Y782675D01*
X133553Y785215D01*
X142494Y789381D01*
X150520Y795020D01*
X157480Y801979D01*
X163118Y810006D01*
X167284Y818946D01*
X169824Y828395D01*
X170688Y838200D01*
X169824Y848004D01*
X167284Y857453D01*
X163118Y866394D01*
X157480Y874420D01*
X150520Y881380D01*
X142494Y887018D01*
X133553Y891184D01*
X124104Y893724D01*
X114300Y894587D01*
X104495Y893724D01*
X95046Y891184D01*
X86106Y887018D01*
X78079Y881380D01*
X71120Y874420D01*
X65481Y866394D01*
X61315Y857453D01*
X58775Y848004D01*
X57912Y838200D01*
X58775Y828395D01*
X61315Y818946D01*
X65481Y810006D01*
X71120Y801979D01*
X78079Y795020D01*
X86106Y789381D01*
X95046Y785215D01*
X104495Y782675D01*
G37*
G36*
X381000Y781812D02*
G01*
X390804Y782675D01*
X400253Y785215D01*
X409194Y789381D01*
X417220Y795020D01*
X424180Y801979D01*
X429818Y810006D01*
X433984Y818946D01*
X436524Y828395D01*
X437388Y838200D01*
X436524Y848004D01*
X433984Y857453D01*
X429818Y866394D01*
X420928Y878738D01*
X420166Y882650D01*
X420928Y886561D01*
X429818Y898906D01*
X433984Y907846D01*
X436524Y917295D01*
X437388Y927100D01*
X436524Y936904D01*
X433984Y946353D01*
X429818Y955294D01*
X424180Y963320D01*
X417220Y970280D01*
X409194Y975918D01*
X400253Y980084D01*
X390804Y982624D01*
X381000Y983487D01*
X371195Y982624D01*
X361746Y980084D01*
X352806Y975918D01*
X344779Y970280D01*
X337820Y963320D01*
X332181Y955294D01*
X328015Y946353D01*
X325475Y936904D01*
X324612Y927100D01*
X325475Y917295D01*
X328015Y907846D01*
X332181Y898906D01*
X341071Y886561D01*
X341833Y882650D01*
X341071Y878738D01*
X332181Y866394D01*
X328015Y857453D01*
X325475Y848004D01*
X324612Y838200D01*
X325475Y828395D01*
X328015Y818946D01*
X332181Y810006D01*
X337820Y801979D01*
X344779Y795020D01*
X352806Y789381D01*
X361746Y785215D01*
X371195Y782675D01*
G37*
G36*
X-1041400Y807212D02*
G01*
X-1031595Y808075D01*
X-1022146Y810615D01*
X-1013206Y814781D01*
X-1005179Y820419D01*
X-998219Y827379D01*
X-992581Y835406D01*
X-988415Y844346D01*
X-985875Y853795D01*
X-985012Y863600D01*
X-985875Y873404D01*
X-988415Y882853D01*
X-992581Y891794D01*
X-998219Y899820D01*
X-1005586Y907237D01*
X-1007821Y910488D01*
X-1008583Y914400D01*
X-1007821Y918311D01*
X-1005586Y921562D01*
X-998219Y928979D01*
X-992581Y937006D01*
X-988415Y945946D01*
X-985875Y955395D01*
X-985012Y965200D01*
X-985875Y975004D01*
X-988415Y984453D01*
X-992581Y993394D01*
X-998219Y1001420D01*
X-1005179Y1008380D01*
X-1013206Y1014018D01*
X-1022146Y1018184D01*
X-1031595Y1020724D01*
X-1041400Y1021587D01*
X-1051204Y1020724D01*
X-1060653Y1018184D01*
X-1069594Y1014018D01*
X-1077620Y1008380D01*
X-1084580Y1001420D01*
X-1090218Y993394D01*
X-1094384Y984453D01*
X-1096924Y975004D01*
X-1097788Y965200D01*
X-1096924Y955395D01*
X-1094384Y945946D01*
X-1090218Y937006D01*
X-1084580Y928979D01*
X-1077214Y921562D01*
X-1074978Y918311D01*
X-1074216Y914400D01*
X-1074978Y910488D01*
X-1077214Y907237D01*
X-1084580Y899820D01*
X-1090218Y891794D01*
X-1094384Y882853D01*
X-1096924Y873404D01*
X-1097788Y863600D01*
X-1096924Y853795D01*
X-1094384Y844346D01*
X-1090218Y835406D01*
X-1084580Y827379D01*
X-1077620Y820419D01*
X-1069594Y814781D01*
X-1060653Y810615D01*
X-1051204Y808075D01*
G37*
G36*
X80010Y1086612D02*
G01*
X89814Y1087475D01*
X99263Y1090015D01*
X108204Y1094181D01*
X116738Y1100175D01*
X120497Y1101801D01*
X124612Y1101801D01*
X128371Y1100175D01*
X136906Y1094181D01*
X145846Y1090015D01*
X155295Y1087475D01*
X165100Y1086612D01*
X174904Y1087475D01*
X184353Y1090015D01*
X193294Y1094181D01*
X201320Y1099820D01*
X208279Y1106779D01*
X213918Y1114806D01*
X218084Y1123746D01*
X220624Y1133195D01*
X221488Y1143000D01*
X220624Y1152804D01*
X218084Y1162253D01*
X213918Y1171194D01*
X208279Y1179220D01*
X201320Y1186180D01*
X193294Y1191818D01*
X184353Y1195984D01*
X174904Y1198524D01*
X165100Y1199388D01*
X155295Y1198524D01*
X145846Y1195984D01*
X136906Y1191818D01*
X128371Y1185824D01*
X124612Y1184198D01*
X120497Y1184198D01*
X116738Y1185824D01*
X108204Y1191818D01*
X99263Y1195984D01*
X89814Y1198524D01*
X80010Y1199388D01*
X70205Y1198524D01*
X60756Y1195984D01*
X51816Y1191818D01*
X43789Y1186180D01*
X36830Y1179220D01*
X31191Y1171194D01*
X27025Y1162253D01*
X24485Y1152804D01*
X23622Y1143000D01*
X24485Y1133195D01*
X27025Y1123746D01*
X31191Y1114806D01*
X36830Y1106779D01*
X43789Y1099820D01*
X51816Y1094181D01*
X60756Y1090015D01*
X70205Y1087475D01*
G37*
G36*
X-1460500Y1175512D02*
G01*
X-1450695Y1176375D01*
X-1441246Y1178915D01*
X-1432306Y1183081D01*
X-1424279Y1188720D01*
X-1417320Y1195679D01*
X-1411681Y1203706D01*
X-1407515Y1212646D01*
X-1404975Y1222095D01*
X-1404112Y1231900D01*
X-1404975Y1241704D01*
X-1407515Y1251153D01*
X-1411681Y1260094D01*
X-1417320Y1268120D01*
X-1424279Y1275080D01*
X-1432306Y1280718D01*
X-1441246Y1284884D01*
X-1450695Y1287424D01*
X-1460500Y1288288D01*
X-1470304Y1287424D01*
X-1479753Y1284884D01*
X-1488694Y1280718D01*
X-1496720Y1275080D01*
X-1503680Y1268120D01*
X-1509318Y1260094D01*
X-1513484Y1251153D01*
X-1516024Y1241704D01*
X-1516888Y1231900D01*
X-1516024Y1222095D01*
X-1513484Y1212646D01*
X-1509318Y1203706D01*
X-1503680Y1195679D01*
X-1496720Y1188720D01*
X-1488694Y1183081D01*
X-1479753Y1178915D01*
X-1470304Y1176375D01*
G37*
G36*
X-571500Y1188212D02*
G01*
X-561695Y1189075D01*
X-552246Y1191615D01*
X-543306Y1195781D01*
X-535279Y1201420D01*
X-528320Y1208379D01*
X-522681Y1216406D01*
X-518515Y1225346D01*
X-515975Y1234795D01*
X-515112Y1244600D01*
X-515975Y1254404D01*
X-518515Y1263853D01*
X-522681Y1272794D01*
X-528320Y1280820D01*
X-535279Y1287780D01*
X-543306Y1293418D01*
X-552246Y1297584D01*
X-561695Y1300124D01*
X-571500Y1300988D01*
X-581304Y1300124D01*
X-590753Y1297584D01*
X-599694Y1293418D01*
X-607720Y1287780D01*
X-614680Y1280820D01*
X-620318Y1272794D01*
X-624484Y1263853D01*
X-627024Y1254404D01*
X-627888Y1244600D01*
X-627024Y1234795D01*
X-624484Y1225346D01*
X-620318Y1216406D01*
X-614680Y1208379D01*
X-607720Y1201420D01*
X-599694Y1195781D01*
X-590753Y1191615D01*
X-581304Y1189075D01*
G37*
G36*
X1524000Y1323340D02*
G01*
X1543659Y1324305D01*
X1563166Y1327200D01*
X1582267Y1331976D01*
X1600758Y1338630D01*
X1618589Y1347063D01*
X1635455Y1357172D01*
X1651304Y1368907D01*
X1665884Y1382115D01*
X1679092Y1396695D01*
X1690827Y1412544D01*
X1700936Y1429410D01*
X1709369Y1447241D01*
X1716024Y1465732D01*
X1720799Y1484833D01*
X1723694Y1504340D01*
X1724660Y1524000D01*
X1723694Y1543659D01*
X1720799Y1563166D01*
X1716024Y1582267D01*
X1709369Y1600758D01*
X1700936Y1618589D01*
X1690827Y1635455D01*
X1679092Y1651304D01*
X1665884Y1665884D01*
X1651304Y1679092D01*
X1635455Y1690827D01*
X1618589Y1700936D01*
X1600758Y1709369D01*
X1582267Y1716024D01*
X1563166Y1720799D01*
X1543659Y1723694D01*
X1524000Y1724660D01*
X1504340Y1723694D01*
X1484833Y1720799D01*
X1465732Y1716024D01*
X1447241Y1709369D01*
X1429410Y1700936D01*
X1412544Y1690827D01*
X1396695Y1679092D01*
X1382115Y1665884D01*
X1368907Y1651304D01*
X1357172Y1635455D01*
X1347063Y1618589D01*
X1338630Y1600758D01*
X1331976Y1582267D01*
X1327200Y1563166D01*
X1324305Y1543659D01*
X1323340Y1524000D01*
X1324305Y1504340D01*
X1327200Y1484833D01*
X1327607Y1479346D01*
X1325930Y1475333D01*
X1322679Y1472387D01*
X1318463Y1471117D01*
X1314145Y1471676D01*
X1310487Y1474063D01*
X1306220Y1478280D01*
X1298194Y1483918D01*
X1289253Y1488084D01*
X1279804Y1490624D01*
X1270000Y1491488D01*
X1260195Y1490624D01*
X1250746Y1488084D01*
X1241806Y1483918D01*
X1233779Y1478280D01*
X1226820Y1471320D01*
X1221181Y1463294D01*
X1217015Y1454353D01*
X1214475Y1444904D01*
X1213612Y1435100D01*
X1214475Y1425295D01*
X1217015Y1415846D01*
X1221181Y1406906D01*
X1226820Y1398879D01*
X1233779Y1391920D01*
X1241806Y1386281D01*
X1250746Y1382115D01*
X1260195Y1379575D01*
X1270000Y1378712D01*
X1279804Y1379575D01*
X1289253Y1382115D01*
X1298194Y1386281D01*
X1306220Y1391920D01*
X1313180Y1398879D01*
X1318818Y1406906D01*
X1322984Y1415846D01*
X1325524Y1425295D01*
X1325880Y1429867D01*
X1327200Y1434033D01*
X1330198Y1437284D01*
X1334211Y1438960D01*
X1338630Y1438808D01*
X1342542Y1436776D01*
X1345234Y1433322D01*
X1347063Y1429410D01*
X1357172Y1412544D01*
X1368907Y1396695D01*
X1382115Y1382115D01*
X1396695Y1368907D01*
X1412544Y1357172D01*
X1429410Y1347063D01*
X1447241Y1338630D01*
X1465732Y1331976D01*
X1484833Y1327200D01*
X1504340Y1324305D01*
G37*
G36*
X-1524000Y1323340D02*
G01*
X-1504340Y1324305D01*
X-1484833Y1327200D01*
X-1465732Y1331976D01*
X-1447241Y1338630D01*
X-1429410Y1347063D01*
X-1412544Y1357172D01*
X-1396695Y1368907D01*
X-1382115Y1382115D01*
X-1368907Y1396695D01*
X-1357172Y1412544D01*
X-1347063Y1429410D01*
X-1345234Y1433322D01*
X-1342542Y1436776D01*
X-1338630Y1438808D01*
X-1334211Y1438960D01*
X-1330198Y1437284D01*
X-1327200Y1434033D01*
X-1325880Y1429867D01*
X-1325524Y1425295D01*
X-1322984Y1415846D01*
X-1318818Y1406906D01*
X-1313180Y1398879D01*
X-1306220Y1391920D01*
X-1298194Y1386281D01*
X-1289253Y1382115D01*
X-1279804Y1379575D01*
X-1270000Y1378712D01*
X-1260195Y1379575D01*
X-1250746Y1382115D01*
X-1241806Y1386281D01*
X-1233779Y1391920D01*
X-1226820Y1398879D01*
X-1221181Y1406906D01*
X-1217015Y1415846D01*
X-1214475Y1425295D01*
X-1213612Y1435100D01*
X-1214475Y1444904D01*
X-1217015Y1454353D01*
X-1221181Y1463294D01*
X-1226820Y1471320D01*
X-1233779Y1478280D01*
X-1241806Y1483918D01*
X-1250746Y1488084D01*
X-1260195Y1490624D01*
X-1270000Y1491488D01*
X-1279804Y1490624D01*
X-1289253Y1488084D01*
X-1298194Y1483918D01*
X-1306220Y1478280D01*
X-1310487Y1474063D01*
X-1314145Y1471676D01*
X-1318463Y1471117D01*
X-1322679Y1472387D01*
X-1325930Y1475333D01*
X-1327607Y1479346D01*
X-1327200Y1484833D01*
X-1324305Y1504340D01*
X-1323340Y1524000D01*
X-1324305Y1543659D01*
X-1327200Y1563166D01*
X-1331976Y1582267D01*
X-1338630Y1600758D01*
X-1347063Y1618589D01*
X-1357172Y1635455D01*
X-1368907Y1651304D01*
X-1382115Y1665884D01*
X-1396695Y1679092D01*
X-1412544Y1690827D01*
X-1429410Y1700936D01*
X-1447241Y1709369D01*
X-1465732Y1716024D01*
X-1484833Y1720799D01*
X-1504340Y1723694D01*
X-1524000Y1724660D01*
X-1543659Y1723694D01*
X-1563166Y1720799D01*
X-1582267Y1716024D01*
X-1600758Y1709369D01*
X-1618589Y1700936D01*
X-1635455Y1690827D01*
X-1651304Y1679092D01*
X-1665884Y1665884D01*
X-1679092Y1651304D01*
X-1690827Y1635455D01*
X-1700936Y1618589D01*
X-1709369Y1600758D01*
X-1716024Y1582267D01*
X-1720799Y1563166D01*
X-1723694Y1543659D01*
X-1724660Y1524000D01*
X-1723694Y1504340D01*
X-1720799Y1484833D01*
X-1716024Y1465732D01*
X-1709369Y1447241D01*
X-1700936Y1429410D01*
X-1690827Y1412544D01*
X-1679092Y1396695D01*
X-1665884Y1382115D01*
X-1651304Y1368907D01*
X-1635455Y1357172D01*
X-1618589Y1347063D01*
X-1600758Y1338630D01*
X-1582267Y1331976D01*
X-1563166Y1327200D01*
X-1543659Y1324305D01*
G37*

%LPD*%
G36*
X-199542Y-1569516D02*
G01*
X-208483Y-1578457D01*
X-206857Y-1656029D01*
X-121970Y-1571142D01*
G37*
G36*
X54457Y-1569516D02*
G01*
X45516Y-1578457D01*
X47142Y-1656029D01*
X132029Y-1571142D01*
G37*
G36*
X-1571142Y1148029D02*
G01*
X-1656029Y1063142D01*
X-1578457Y1061516D01*
X-1569516Y1070457D01*
G37*
G36*
X-1578457Y970483D02*
G01*
X-1656029Y968857D01*
X-1571142Y883970D01*
X-1569516Y961542D01*
G37*
G36*
X-1571142Y640029D02*
G01*
X-1656029Y555142D01*
X-1578457Y553516D01*
X-1569516Y562457D01*
G37*
G36*
X-1578457Y462483D02*
G01*
X-1656029Y460857D01*
X-1571142Y375970D01*
X-1569516Y453542D01*
G37*
G36*
X-1598066Y-67005D02*
G01*
X-1598066Y-186994D01*
X-1542084Y-133350D01*
X-1542084Y-120650D01*
G37*
G36*
X-1578457Y-299516D02*
G01*
X-1656029Y-301142D01*
X-1571142Y-386029D01*
X-1569516Y-308457D01*
G37*
G36*
X-1578457Y-553516D02*
G01*
X-1656029Y-555142D01*
X-1571142Y-640029D01*
X-1569516Y-562457D01*
G37*
G36*
X1578457Y-1061516D02*
G01*
X1569516Y-1070457D01*
X1571142Y-1148029D01*
X1656029Y-1063142D01*
G37*
G36*
X1571142Y-884174D02*
G01*
X1569669Y-961694D01*
X1578660Y-970686D01*
X1656181Y-968806D01*
G37*
G36*
X1598066Y1202994D02*
G01*
X1542084Y1155700D01*
X1542084Y1130300D01*
X1598066Y1083005D01*
G37*
G36*
X1598066Y1202994D02*
G01*
X1542084Y1155700D01*
X1542084Y1130300D01*
X1598066Y1083005D01*
G37*
G36*
X-835355Y-215646D02*
G01*
X-856894Y-232410D01*
X-856843Y-245110D01*
X-835304Y-261772D01*
G37*
G36*
X-838200Y-101295D02*
G01*
X-857351Y-120650D01*
X-855675Y-133350D01*
X-832154Y-147066D01*
G37*
G36*
X-835406Y18288D02*
G01*
X-856894Y1524D01*
X-856843Y-11176D01*
X-835253Y-27838D01*
G37*
G36*
X-972819Y1318463D02*
G01*
X-994359Y1301750D01*
X-994359Y1289050D01*
X-972819Y1272336D01*
G37*
G36*
X-972819Y1394663D02*
G01*
X-994359Y1377950D01*
X-994359Y1365250D01*
X-972819Y1348536D01*
G37*
G36*
X1447800Y-745540D02*
G01*
X1437436Y-767080D01*
X1483563Y-767080D01*
X1473200Y-745540D01*
G37*
G36*
X1056436Y43180D02*
G01*
X1066800Y21640D01*
X1092200Y21640D01*
X1102563Y43180D01*
G37*
G36*
X1066800Y-682040D02*
G01*
X1056436Y-703580D01*
X1102563Y-703580D01*
X1092200Y-682040D01*
G37*
G36*
X-1080160Y-1253947D02*
G01*
X-1098397Y-1271574D01*
X-1090930Y-1294231D01*
X-1057757Y-1262227D01*
G37*
G36*
X311150Y-1024940D02*
G01*
X294436Y-1046480D01*
X340563Y-1046480D01*
X323850Y-1024940D01*
G37*
G36*
X629920Y-611936D02*
G01*
X629920Y-658063D01*
X651459Y-641350D01*
X651459Y-628650D01*
G37*
G36*
X817880Y-733552D02*
G01*
X796340Y-750265D01*
X796340Y-762965D01*
X817880Y-779678D01*
G37*
G36*
X817880Y-611936D02*
G01*
X796340Y-628650D01*
X796340Y-641350D01*
X817880Y-658063D01*
G37*
G36*
X580644Y1012901D02*
G01*
X580644Y966774D01*
X602183Y973937D01*
X602183Y1005738D01*
G37*
G36*
X1076553Y695655D02*
G01*
X1069390Y674116D01*
X1115517Y674116D01*
X1108354Y695655D01*
G37*
G36*
X-424180Y1331163D02*
G01*
X-424180Y1285036D01*
X-402640Y1295400D01*
X-402640Y1320800D01*
G37*
G36*
X1437436Y-388620D02*
G01*
X1447800Y-410159D01*
X1473200Y-410159D01*
X1483563Y-388620D01*
G37*
G36*
X1447800Y-326440D02*
G01*
X1437436Y-347980D01*
X1483563Y-347980D01*
X1473200Y-326440D01*
G37*
G36*
X1437436Y195580D02*
G01*
X1447800Y174040D01*
X1473200Y174040D01*
X1483563Y195580D01*
G37*
G36*
X-721563Y1287780D02*
G01*
X-711200Y1266240D01*
X-685800Y1266240D01*
X-675436Y1287780D01*
G37*
G36*
X-591820Y683463D02*
G01*
X-613359Y673100D01*
X-613359Y647700D01*
X-591820Y637336D01*
G37*
G36*
X-1061720Y-573836D02*
G01*
X-1083259Y-584200D01*
X-1083259Y-609600D01*
X-1061720Y-619963D01*
G37*
G36*
X-784301Y-373684D02*
G01*
X-816965Y-406298D01*
X-789940Y-409701D01*
X-780948Y-400761D01*
G37*
G36*
X-784301Y-500684D02*
G01*
X-816914Y-533298D01*
X-789889Y-536702D01*
X-780897Y-527710D01*
G37*
G36*
X1099820Y-827836D02*
G01*
X1099820Y-873963D01*
X1121359Y-863600D01*
X1121359Y-838200D01*
G37*
G36*
X-696163Y-1404620D02*
G01*
X-685800Y-1426159D01*
X-660400Y-1426159D01*
X-650036Y-1404620D01*
G37*
G36*
X1226616Y-1483969D02*
G01*
X1218742Y-1506524D01*
X1236675Y-1524457D01*
X1259230Y-1516583D01*
G37*
G36*
X1186180Y1064463D02*
G01*
X1168400Y1047750D01*
X1168400Y1035050D01*
X1186180Y1018336D01*
G37*
G36*
X1054404Y-1134313D02*
G01*
X1045413Y-1143304D01*
X1048816Y-1170330D01*
X1081430Y-1137716D01*
G37*
G36*
X655320Y35763D02*
G01*
X655320Y-10363D01*
X676859Y0D01*
X676859Y25400D01*
G37*
G36*
X337820Y-1145336D02*
G01*
X337820Y-1191463D01*
X359359Y-1174750D01*
X359359Y-1162050D01*
G37*
G36*
X25095Y-1134313D02*
G01*
X-1930Y-1137716D01*
X30683Y-1170330D01*
X34086Y-1143304D01*
G37*
G36*
X1069136Y284480D02*
G01*
X1079500Y262940D01*
X1104900Y262940D01*
X1115263Y284480D01*
G37*
G36*
X1480820Y327863D02*
G01*
X1480820Y281736D01*
X1502359Y292100D01*
X1502359Y317500D01*
G37*
G36*
X1437436Y-33020D02*
G01*
X1447800Y-54559D01*
X1473200Y-54559D01*
X1483563Y-33020D01*
G37*
G36*
X1447800Y29159D02*
G01*
X1437436Y7620D01*
X1483563Y7620D01*
X1473200Y29159D01*
G37*
G36*
X-1073607Y1930D02*
G01*
X-1077010Y-25095D01*
X-1068019Y-34086D01*
X-1040993Y-30683D01*
G37*
G36*
X-1173683Y1930D02*
G01*
X-1177086Y-25095D01*
X-1168095Y-34086D01*
X-1141069Y-30683D01*
G37*
G36*
X-1061720Y-218236D02*
G01*
X-1079500Y-228600D01*
X-1079500Y-254000D01*
X-1061720Y-264363D01*
G37*
G36*
X-1211580Y-319836D02*
G01*
X-1211580Y-365963D01*
X-1190040Y-355600D01*
X-1190040Y-330200D01*
G37*
D10*
X609600Y-635000D02*
G01*
X832817Y-635000D01*
X838200Y-635000D01*
D11*
X-1041400Y-241300D02*
G01*
X-1079500Y-241300D01*
X-1181100Y-342900D01*
X-1231900Y-342900D01*
X-1041400Y-596900D02*
G01*
X-1092608Y-596900D01*
X-1130300Y-634591D01*
X-1130300Y-1221742D01*
X-1059179Y-1292857D01*
X-698500Y1308100D02*
G01*
X-698500Y698500D01*
X-660400Y660400D01*
X-571500Y660400D01*
D10*
X-1651000Y381000D02*
G01*
X-1536700Y495300D01*
X-1435100Y495300D01*
X-1409700Y469900D01*
X-1409700Y-38100D01*
X-1371600Y-76200D01*
X-1119123Y-76200D01*
X-1042923Y0D01*
X-1143000Y0D02*
G01*
X-1193800Y-50800D01*
X-1358900Y-50800D01*
X-1384300Y-25400D01*
X-1384300Y482600D01*
X-1422400Y520700D01*
X-1536700Y520700D01*
X-1651000Y635000D01*
X-1651000Y-635000D02*
G01*
X-1498600Y-482600D01*
X-1498600Y-177800D01*
X-1473200Y-152400D01*
X-965200Y-152400D01*
X-878839Y-238760D01*
X-815086Y-238760D01*
X-1651000Y-381000D02*
G01*
X-1524000Y-254000D01*
X-1524000Y-165100D01*
X-1485900Y-127000D01*
X-815086Y-127000D01*
X-1651000Y-127000D02*
G01*
X-1524000Y-127000D01*
X-1498600Y-101600D01*
X-965200Y-101600D01*
X-868426Y-4826D01*
X-815086Y-4826D01*
D11*
X1651000Y1143000D02*
G01*
X1524000Y1143000D01*
X1524000Y-825500D01*
X1498600Y-850900D01*
X1079500Y-850900D01*
X1079500Y63500D02*
G01*
X1079500Y-723900D01*
X1460500Y304800D02*
G01*
X1524000Y304800D01*
X1524000Y382778D01*
X635000Y12700D02*
G01*
X939800Y12700D01*
X990600Y63500D01*
X990600Y152400D01*
X1092200Y254000D01*
X1092200Y304800D01*
X1651000Y1143000D02*
G01*
X1511300Y1143000D01*
X1346200Y1308100D01*
X-444500Y1308100D01*
D10*
X317500Y-1066800D02*
G01*
X317500Y-812800D01*
X373634Y-756665D01*
X838200Y-756615D01*
D11*
X1460500Y-368300D02*
G01*
X1460500Y-787400D01*
X-673100Y-1384300D02*
G01*
X-673100Y-1435100D01*
X-647700Y-1460500D01*
X-12700Y-1460500D01*
X50800Y-1524000D01*
X1219200Y-1524000D01*
X1257300Y-1485900D01*
D10*
X1651000Y-889000D02*
G01*
X1537207Y-1003300D01*
X1485900Y-1003300D01*
X1447800Y-1041400D01*
X1447800Y-1168400D01*
X1168400Y-1447800D01*
X914400Y-1447800D01*
X685800Y-1219200D01*
X469900Y-1219200D01*
X368300Y-1117600D01*
X50800Y-1117600D01*
X0Y-1168400D01*
X317500Y-1168400D02*
G01*
X381000Y-1168400D01*
X457200Y-1244600D01*
X673100Y-1244600D01*
X901700Y-1473200D01*
X1181100Y-1473200D01*
X1473200Y-1181100D01*
X1473200Y-1054100D01*
X1498600Y-1028700D01*
X1536700Y-1028700D01*
X1651000Y-1143000D01*
X-127000Y-1651000D02*
G01*
X-254000Y-1524000D01*
X-673100Y-1524000D01*
X-762000Y-1435100D01*
X-762000Y-555497D01*
X-815086Y-502665D01*
X127000Y-1651000D02*
G01*
X-25400Y-1498600D01*
X-660400Y-1498600D01*
X-736600Y-1422400D01*
X-736600Y-453897D01*
X-815086Y-375665D01*
D11*
X1460500Y-368300D02*
G01*
X1460500Y-12700D01*
X1460500Y-12700D02*
G01*
X1460500Y215900D01*
D10*
X-1651000Y889000D02*
G01*
X-1536700Y1003300D01*
X-1447800Y1003300D01*
X-1130300Y1320800D01*
X-1028700Y1320800D01*
X-1003300Y1295400D01*
X-952500Y1295400D01*
X-1651000Y1143000D02*
G01*
X-1536700Y1028700D01*
X-1460500Y1028700D01*
X-1143000Y1346200D01*
X-1028700Y1346200D01*
X-1003300Y1371600D01*
X-952500Y1371600D01*
D12*
X560323Y989837D02*
G01*
X1042162Y989837D01*
X1092454Y939545D01*
X1092454Y653795D01*
D10*
X1206500Y1041400D02*
G01*
X1168400Y1041400D01*
X1143000Y1016000D01*
X1143000Y241300D01*
X1028700Y127000D01*
X1028700Y-1117600D01*
X1079500Y-1168400D01*
D13*
G01*
X-1143000Y-1651000D03*
G01*
X-889000Y-1651000D03*
G01*
X-635000Y-1651000D03*
G01*
X-381000Y-1651000D03*
G01*
X-127000Y-1651000D03*
G01*
X127000Y-1651000D03*
G01*
X381000Y-1651000D03*
G01*
X635000Y-1651000D03*
G01*
X889000Y-1651000D03*
G01*
X1143000Y-1651000D03*
G01*
X-1651000Y1143000D03*
G01*
X-1651000Y889000D03*
G01*
X-1651000Y635000D03*
G01*
X-1651000Y381000D03*
G01*
X-1651000Y127000D03*
G01*
X-1651000Y-127000D03*
G01*
X-1651000Y-381000D03*
G01*
X-1651000Y-635000D03*
G01*
X-1651000Y-889000D03*
G01*
X-1651000Y-1143000D03*
G01*
X1651000Y-1143000D03*
G01*
X1651000Y-889000D03*
G01*
X1651000Y-635000D03*
G01*
X1651000Y-381000D03*
G01*
X1651000Y-127000D03*
G01*
X1651000Y127000D03*
G01*
X1651000Y381000D03*
G01*
X1651000Y635000D03*
G01*
X1651000Y889000D03*
G01*
X1651000Y1143000D03*
D14*
G01*
X1524000Y1524000D03*
D15*
G01*
X1666494Y1524000D03*
G01*
X1381505Y1524000D03*
G01*
X1524000Y1666494D03*
G01*
X1524000Y1381505D03*
G01*
X1624711Y1423288D03*
G01*
X1624711Y1624711D03*
G01*
X1423288Y1624711D03*
G01*
X1423288Y1423288D03*
D14*
G01*
X1524000Y-1524000D03*
D15*
G01*
X1666494Y-1524000D03*
G01*
X1381505Y-1524000D03*
G01*
X1524000Y-1381505D03*
G01*
X1524000Y-1666494D03*
G01*
X1624711Y-1624711D03*
G01*
X1624711Y-1423288D03*
G01*
X1423288Y-1423288D03*
G01*
X1423288Y-1624711D03*
D14*
G01*
X-1524000Y-1524000D03*
D15*
G01*
X-1381505Y-1524000D03*
G01*
X-1666494Y-1524000D03*
G01*
X-1524000Y-1381505D03*
G01*
X-1524000Y-1666494D03*
G01*
X-1423288Y-1624711D03*
G01*
X-1423288Y-1423288D03*
G01*
X-1624711Y-1423288D03*
G01*
X-1624711Y-1624711D03*
D14*
G01*
X-1524000Y1524000D03*
D15*
G01*
X-1381505Y1524000D03*
G01*
X-1666494Y1524000D03*
G01*
X-1524000Y1666494D03*
G01*
X-1524000Y1381505D03*
G01*
X-1423288Y1423288D03*
G01*
X-1423288Y1624711D03*
G01*
X-1624711Y1624711D03*
G01*
X-1624711Y1423288D03*
D16*
G01*
X1282700Y-12700D03*
G01*
X1371600Y-12700D03*
G01*
X-1270000Y1435100D03*
G01*
X-63500Y952500D03*
G01*
X114300Y838200D03*
G01*
X838200Y-850900D03*
G01*
X508000Y-635000D03*
G01*
X508000Y-558800D03*
G01*
X1143000Y-787400D03*
G01*
X1282700Y723900D03*
G01*
X1079500Y-1397000D03*
G01*
X-815009Y-756665D03*
G01*
X469900Y-1130300D03*
G01*
X571500Y-838200D03*
G01*
X215900Y-1066800D03*
G01*
X-815009Y-238709D03*
G01*
X-815009Y-121513D03*
G01*
X-815009Y-4698D03*
G01*
X-1460500Y1231900D03*
G01*
X-1041400Y965200D03*
G01*
X-1473200Y863600D03*
G01*
X-952500Y1295400D03*
G01*
X-952500Y1371600D03*
G01*
X165100Y1143000D03*
G01*
X80010Y1143000D03*
G01*
X-1333500Y-444500D03*
G01*
X1460500Y-787400D03*
G01*
X1079500Y63500D03*
G01*
X1079500Y-723900D03*
G01*
X114300Y647700D03*
G01*
X114300Y469900D03*
G01*
X406400Y-635000D03*
G01*
X139700Y-508000D03*
G01*
X-1060195Y-1292860D03*
G01*
X-939800Y-1079500D03*
G01*
X-1016000Y-1079500D03*
G01*
X-1041400Y863600D03*
G01*
X-635000Y292100D03*
G01*
X-711200Y292100D03*
G01*
X317500Y-1066800D03*
G01*
X609600Y-635000D03*
G01*
X-80390Y-1168400D03*
G01*
X838200Y-756615D03*
G01*
X838200Y-635000D03*
G01*
X560323Y989837D03*
G01*
X1092454Y653795D03*
G01*
X-571500Y1244600D03*
G01*
X-863600Y1244600D03*
G01*
X-279400Y1244600D03*
G01*
X114300Y-1066800D03*
G01*
X-190500Y-1066800D03*
G01*
X-444500Y1308100D03*
G01*
X660400Y508000D03*
G01*
X635000Y101600D03*
G01*
X381000Y927100D03*
G01*
X381000Y838200D03*
G01*
X1460500Y736600D03*
G01*
X-1130300Y965200D03*
G01*
X-1485900Y-901700D03*
G01*
X749300Y-1397000D03*
G01*
X812800Y-1460500D03*
G01*
X-850900Y-1079500D03*
G01*
X1460500Y-368300D03*
G01*
X1460500Y215900D03*
G01*
X1371600Y-114300D03*
G01*
X1282700Y-114300D03*
G01*
X1193800Y-114300D03*
G01*
X-571500Y812800D03*
G01*
X-698500Y1308100D03*
G01*
X-571500Y660400D03*
G01*
X-177800Y825500D03*
G01*
X-673100Y-698500D03*
G01*
X-673100Y-622300D03*
G01*
X368300Y-254000D03*
G01*
X-622300Y-1244600D03*
G01*
X-1473200Y330200D03*
G01*
X-279400Y-419100D03*
G01*
X-1041400Y-596900D03*
G01*
X-815009Y-375615D03*
G01*
X-815009Y-502615D03*
G01*
X-444474Y-834593D03*
G01*
X-1320800Y-1346200D03*
G01*
X-1231900Y-774700D03*
G01*
X-1041400Y-774700D03*
G01*
X444500Y114300D03*
G01*
X444500Y190500D03*
G01*
X609600Y-254000D03*
G01*
X609600Y-368300D03*
G01*
X-508000Y-254000D03*
G01*
X-279400Y-571500D03*
G01*
X-279400Y-254000D03*
G01*
X-355600Y-736600D03*
G01*
X-203200Y-736600D03*
G01*
X-177800Y723900D03*
G01*
X-177800Y952500D03*
G01*
X-1270000Y1689100D03*
G01*
X0Y1689100D03*
G01*
X635000Y1689100D03*
G01*
X1270000Y1689100D03*
G01*
X1041400Y1092200D03*
G01*
X1270000Y1435100D03*
G01*
X-279400Y292100D03*
G01*
X-177800Y546100D03*
G01*
X1282700Y381000D03*
G01*
X1282700Y-469900D03*
G01*
X-635000Y1689100D03*
G01*
X825500Y-1003300D03*
G01*
X1193800Y914400D03*
G01*
X1079500Y-1079500D03*
G01*
X1028700Y381000D03*
G01*
X1282700Y-571500D03*
G01*
X1079500Y-850900D03*
G01*
X-673100Y-1384300D03*
G01*
X1257300Y-1485900D03*
G01*
X927100Y-1244600D03*
G01*
X927100Y-1371600D03*
G01*
X114300Y-1168400D03*
G01*
X-245008Y-1168400D03*
G01*
X469900Y-1308100D03*
G01*
X1206500Y1041400D03*
G01*
X1079500Y-1168400D03*
G01*
X635000Y12700D03*
G01*
X-83489Y329514D03*
G01*
X-83489Y145999D03*
G01*
X-83489Y-37490D03*
G01*
X283489Y145999D03*
G01*
X317500Y-1168400D03*
G01*
X0Y-1168400D03*
G01*
X609600Y-127000D03*
G01*
X660400Y342900D03*
G01*
X-1200302Y-1292809D03*
G01*
X406400Y-431800D03*
G01*
X99999Y329437D03*
G01*
X165100Y-254000D03*
G01*
X-508000Y292100D03*
G01*
X1460500Y-914400D03*
G01*
X1092200Y304800D03*
G01*
X1460500Y304800D03*
G01*
X880008Y894511D03*
G01*
X-1041400Y-342900D03*
G01*
X1460500Y-12700D03*
G01*
X-1041400Y381000D03*
G01*
X-1041400Y177800D03*
G01*
X-1042923Y0D03*
G01*
X-1143000Y0D03*
G01*
X-1041400Y-241300D03*
G01*
X-1231900Y-342900D03*
G01*
X-1130300Y-444500D03*
G01*
X-1231900Y-444500D03*
G01*
X-1193800Y177800D03*
G01*
X-508000Y139700D03*
G01*
X-279400Y139700D03*
G01*
X-1041400Y694994D03*
M02*
