G04 Layer: BottomPasteMaskLayer*
G04 Panelize: , Column: 3, Row: 3, Board Size: 35.56mm x 35.56mm, Panelized Board Size: 110.68mm x 110.68mm*
G04 EasyEDA v6.5.39, 2024-01-10 02:32:58*
G04 c879e6b8726d4e35908b0b4345eef0b3,3d9c8b04885e45b7839bd8e85c0fd600,10*
G04 Gerber Generator version 0.2*
G04 Scale: 100 percent, Rotated: No, Reflected: No *
G04 Dimensions in millimeters *
G04 leading zeros omitted , absolute positions ,4 integer and 5 decimal *
%FSLAX45Y45*%
%MOMM*%

%AMMACRO1*21,1,$1,$2,0,0,$3*%
%ADD10MACRO1,1X1X0.0000*%
%ADD11MACRO1,0.4999X0.8001X-90.0000*%
%ADD12MACRO1,0.5001X0.7998X0.0000*%
%ADD13MACRO1,0.5001X0.8001X0.0000*%
%ADD14MACRO1,0.4999X0.8001X90.0000*%
%ADD15C,0.8000*%
%ADD16MACRO1,1X0.5999X-90.0000*%
%ADD17MACRO1,1X0.5999X90.0000*%
%ADD18MACRO1,0.5499X0.8001X0.0000*%
%ADD19MACRO1,0.5502X0.8001X0.0000*%
%ADD20MACRO1,0.5499X0.8001X90.0000*%
%ADD21MACRO1,0.7X0.7X-90.0000*%
%ADD22MACRO1,0.7X0.7X90.0000*%
%ADD23MACRO1,2X0.8999X0.0000*%
%ADD24MACRO1,2X0.9002X-90.0000*%
%ADD25MACRO1,1.3302X1.3299X90.0000*%
%ADD26MACRO1,1.3302X1.3302X90.0000*%
%ADD27MACRO1,1.3299X1.3299X90.0000*%
%ADD28MACRO1,1.3299X1.3302X90.0000*%
%ADD29MACRO1,1.35X2X0.0000*%

%LPD*%
D10*
G01*
X-691502Y1168387D03*
G01*
X-451497Y1168387D03*
D11*
G01*
X1371574Y-635812D03*
G01*
X1371574Y-735812D03*
D12*
G01*
X-1283550Y-901712D03*
G01*
X-1383550Y-901712D03*
D13*
G01*
X-1383525Y914400D03*
G01*
X-1283525Y914400D03*
G01*
X1283474Y914400D03*
G01*
X1383474Y914400D03*
D12*
G01*
X1383449Y-901712D03*
G01*
X1283449Y-901712D03*
D14*
G01*
X-152450Y-1383487D03*
G01*
X-152450Y-1283487D03*
D11*
G01*
X304698Y-1383538D03*
G01*
X304698Y-1283538D03*
G01*
X-304901Y-1383538D03*
G01*
X-304901Y-1283538D03*
D12*
G01*
X-1383601Y406361D03*
G01*
X-1283601Y406361D03*
G01*
X-1383601Y253961D03*
G01*
X-1283601Y253961D03*
G01*
X-1383601Y-203238D03*
G01*
X-1283601Y-203238D03*
G01*
X-1383601Y558761D03*
G01*
X-1283601Y558761D03*
G01*
X-1383601Y101561D03*
G01*
X-1283601Y101561D03*
D11*
G01*
X152298Y-1383538D03*
G01*
X152298Y-1283538D03*
D12*
G01*
X-1383601Y-50838D03*
G01*
X-1283601Y-50838D03*
D15*
G01*
X1193800Y-685800D03*
D11*
G01*
X1092174Y926287D03*
G01*
X1092174Y826287D03*
D16*
G01*
X1377822Y380784D03*
G01*
X1282827Y380784D03*
G01*
X1187830Y380784D03*
D17*
G01*
X1187830Y660768D03*
G01*
X1377822Y660768D03*
D16*
G01*
X1377822Y-216115D03*
G01*
X1282827Y-216115D03*
G01*
X1187830Y-216115D03*
D17*
G01*
X1187830Y63868D03*
G01*
X1377822Y63868D03*
D13*
G01*
X1232674Y228600D03*
G01*
X1332674Y228600D03*
D14*
G01*
X1371549Y-469087D03*
G01*
X1371549Y-369087D03*
G01*
X1193698Y-369138D03*
G01*
X1193698Y-469138D03*
D18*
G01*
X835875Y1145006D03*
D19*
G01*
X724001Y1145006D03*
D18*
G01*
X445884Y1145006D03*
G01*
X333997Y1145006D03*
D20*
G01*
X0Y-1380883D03*
G01*
X0Y-1268996D03*
D18*
G01*
X70878Y1145006D03*
D19*
G01*
X-40995Y1145006D03*
D21*
G01*
X-1387500Y-1050213D03*
D22*
G01*
X-1387500Y-1233220D03*
G01*
X-1277492Y-1233220D03*
D21*
G01*
X-1277492Y-1050213D03*
D22*
G01*
X-1279499Y1050188D03*
D21*
G01*
X-1279499Y1233195D03*
G01*
X-1389507Y1233195D03*
D22*
G01*
X-1389507Y1050188D03*
G01*
X1387500Y1050188D03*
D21*
G01*
X1387500Y1233195D03*
G01*
X1277492Y1233195D03*
D22*
G01*
X1277492Y1050188D03*
D21*
G01*
X1279499Y-1050213D03*
D22*
G01*
X1279499Y-1233220D03*
G01*
X1389507Y-1233220D03*
D21*
G01*
X1389507Y-1050213D03*
D23*
G01*
X880008Y-375500D03*
G01*
X880008Y-248500D03*
G01*
X880008Y-121500D03*
G01*
X880008Y5499D03*
G01*
X880008Y132499D03*
G01*
X880008Y259499D03*
G01*
X880008Y386499D03*
G01*
X880008Y513499D03*
G01*
X880008Y640499D03*
G01*
X880008Y767499D03*
G01*
X880008Y894499D03*
D24*
G01*
X444500Y-894511D03*
G01*
X571500Y-894511D03*
D23*
G01*
X880008Y-756500D03*
G01*
X880008Y-629500D03*
G01*
X880008Y-502500D03*
D24*
G01*
X317500Y-894511D03*
G01*
X190500Y-894511D03*
G01*
X63500Y-894511D03*
G01*
X-63500Y-894511D03*
G01*
X-190500Y-894511D03*
G01*
X-317500Y-894511D03*
G01*
X-444500Y-894511D03*
G01*
X-571500Y-894511D03*
D23*
G01*
X-880008Y-756500D03*
G01*
X-880008Y-629500D03*
G01*
X-880008Y-502500D03*
G01*
X-880008Y-375500D03*
G01*
X-880008Y-248500D03*
G01*
X-880008Y-121500D03*
G01*
X-880008Y5499D03*
G01*
X-880008Y132499D03*
G01*
X-880008Y259499D03*
G01*
X-880008Y386499D03*
G01*
X-880008Y513499D03*
G01*
X-880008Y640499D03*
G01*
X-880008Y767499D03*
G01*
X-880008Y894499D03*
D25*
G01*
X-83515Y-37503D03*
D26*
G01*
X99987Y-37503D03*
D25*
G01*
X283489Y-37503D03*
G01*
X283489Y329501D03*
D26*
G01*
X99987Y329501D03*
D25*
G01*
X-83515Y329501D03*
D27*
G01*
X-83515Y145999D03*
G01*
X283489Y145999D03*
D28*
G01*
X99987Y145999D03*
D29*
G01*
X923505Y-1308100D03*
G01*
X473494Y-1308100D03*
G01*
X-923505Y-1308100D03*
G01*
X-473494Y-1308100D03*
M02*
