G04 Layer: BottomSilkscreenLayer*
G04 Panelize: , Column: 3, Row: 3, Board Size: 35.56mm x 35.56mm, Panelized Board Size: 110.68mm x 110.68mm*
G04 EasyEDA v6.5.39, 2024-01-10 02:32:58*
G04 c879e6b8726d4e35908b0b4345eef0b3,3d9c8b04885e45b7839bd8e85c0fd600,10*
G04 Gerber Generator version 0.2*
G04 Scale: 100 percent, Rotated: No, Reflected: No *
G04 Dimensions in millimeters *
G04 leading zeros omitted , absolute positions ,4 integer and 5 decimal *
%FSLAX45Y45*%
%MOMM*%

%ADD10C,0.2000*%
%ADD11C,0.2540*%
%ADD12C,0.1500*%
%ADD13C,0.1524*%
%ADD14C,0.1501*%
%ADD15C,0.1280*%
%ADD16C,0.0157*%

%LPD*%
G36*
X-722376Y1627632D02*
G01*
X-863752Y1626209D01*
X-873556Y1619808D01*
X-878128Y1616506D01*
X-882446Y1612696D01*
X-886409Y1608531D01*
X-889914Y1604010D01*
X-893064Y1599234D01*
X-895705Y1594205D01*
X-897788Y1589024D01*
X-899363Y1583740D01*
X-900633Y1577441D01*
X-900834Y1573174D01*
X-864463Y1573174D01*
X-864209Y1576730D01*
X-863041Y1579930D01*
X-860958Y1583283D01*
X-856386Y1589379D01*
X-756869Y1590649D01*
X-756869Y1553768D01*
X-815289Y1553819D01*
X-834542Y1554175D01*
X-841806Y1554632D01*
X-847699Y1555242D01*
X-852424Y1556156D01*
X-856030Y1557324D01*
X-858824Y1558848D01*
X-860806Y1560728D01*
X-862228Y1563014D01*
X-863244Y1565706D01*
X-863955Y1568907D01*
X-864463Y1573174D01*
X-900834Y1573174D01*
X-900887Y1572056D01*
X-900074Y1566316D01*
X-898245Y1559102D01*
X-895807Y1552549D01*
X-892556Y1546199D01*
X-888542Y1540357D01*
X-884021Y1535023D01*
X-879043Y1530451D01*
X-873810Y1526692D01*
X-868476Y1524050D01*
X-863142Y1522577D01*
X-853592Y1521002D01*
X-889304Y1449933D01*
X-899414Y1428699D01*
X-897991Y1428191D01*
X-894080Y1427734D01*
X-881278Y1427327D01*
X-873048Y1427530D01*
X-866952Y1428089D01*
X-862837Y1429054D01*
X-860602Y1430477D01*
X-858316Y1434185D01*
X-848207Y1452880D01*
X-823976Y1499362D01*
X-820978Y1504696D01*
X-818286Y1508302D01*
X-814984Y1511401D01*
X-810920Y1513890D01*
X-806145Y1515922D01*
X-800455Y1517446D01*
X-793851Y1518462D01*
X-786231Y1519072D01*
X-777494Y1519275D01*
X-756869Y1519275D01*
X-756869Y1427327D01*
X-722376Y1427327D01*
G37*
G36*
X864971Y1627327D02*
G01*
X736904Y1499057D01*
X710539Y1472133D01*
X690575Y1451254D01*
X678027Y1437589D01*
X674878Y1433779D01*
X674014Y1432204D01*
X676198Y1431137D01*
X681075Y1430324D01*
X688390Y1429816D01*
X697839Y1429613D01*
X720140Y1429613D01*
X854964Y1564589D01*
X899769Y1610106D01*
X911555Y1622348D01*
X914400Y1625600D01*
X912469Y1626260D01*
X907135Y1626819D01*
X889660Y1627327D01*
G37*
G36*
X782269Y1627327D02*
G01*
X708050Y1552956D01*
X686511Y1530502D01*
X679551Y1522933D01*
X675792Y1518462D01*
X675335Y1517599D01*
X676554Y1516227D01*
X680567Y1515313D01*
X687832Y1514856D01*
X722426Y1514703D01*
X783488Y1575765D01*
X809193Y1602232D01*
X818286Y1612036D01*
X824433Y1619199D01*
X827481Y1623364D01*
X827735Y1624228D01*
X826058Y1625701D01*
X821893Y1626666D01*
X814882Y1627174D01*
G37*
G36*
X190246Y1627327D02*
G01*
X190246Y1590548D01*
X343966Y1590548D01*
X348691Y1584502D01*
X350926Y1581048D01*
X352399Y1577035D01*
X353212Y1572158D01*
X353466Y1566113D01*
X353466Y1553768D01*
X227025Y1553768D01*
X227025Y1519275D01*
X353466Y1519275D01*
X353314Y1485239D01*
X352602Y1477924D01*
X350926Y1473403D01*
X347827Y1469745D01*
X342188Y1464106D01*
X190246Y1464106D01*
X190246Y1427327D01*
X299821Y1427480D01*
X331165Y1428242D01*
X341071Y1428800D01*
X347319Y1429562D01*
X349097Y1430020D01*
X356057Y1432763D01*
X362305Y1436065D01*
X367893Y1439875D01*
X372872Y1444294D01*
X377291Y1449324D01*
X381101Y1455064D01*
X384454Y1461465D01*
X387350Y1468678D01*
X387959Y1471066D01*
X388975Y1478940D01*
X389686Y1490218D01*
X390144Y1503883D01*
X390347Y1519072D01*
X390042Y1550060D01*
X389483Y1564030D01*
X388670Y1575714D01*
X387604Y1584147D01*
X386994Y1586839D01*
X384606Y1593494D01*
X381711Y1599590D01*
X378155Y1605076D01*
X374091Y1610004D01*
X369366Y1614322D01*
X364083Y1618132D01*
X358241Y1621383D01*
X351739Y1624076D01*
X347167Y1625092D01*
X339648Y1625904D01*
X328422Y1626514D01*
X292608Y1627124D01*
G37*
G36*
X-37338Y1627327D02*
G01*
X-37236Y1490116D01*
X-36982Y1458671D01*
X-36372Y1431645D01*
X-36118Y1429613D01*
X-31038Y1432864D01*
X27381Y1477365D01*
X41503Y1488440D01*
X74980Y1513789D01*
X89052Y1525270D01*
X110489Y1541627D01*
X121361Y1550314D01*
X122935Y1551178D01*
X124002Y1551482D01*
X124358Y1550212D01*
X125120Y1540916D01*
X125780Y1524304D01*
X126288Y1502308D01*
X127050Y1428496D01*
X143764Y1427784D01*
X151485Y1427683D01*
X156870Y1427988D01*
X160121Y1428750D01*
X161594Y1430121D01*
X162001Y1438859D01*
X162204Y1460449D01*
X162153Y1519326D01*
X161544Y1625193D01*
X97993Y1576984D01*
X71882Y1556461D01*
X15138Y1513179D01*
X4622Y1504746D01*
X-558Y1500073D01*
X-558Y1627327D01*
G37*
G36*
X-262636Y1627327D02*
G01*
X-262636Y1590548D01*
X-182219Y1590548D01*
X-181000Y1428496D01*
X-145389Y1427124D01*
X-145389Y1590548D01*
X-64922Y1590548D01*
X-64922Y1627327D01*
G37*
G36*
X503732Y1627022D02*
G01*
X486460Y1626819D01*
X471830Y1626362D01*
X461670Y1625701D01*
X458876Y1625295D01*
X453593Y1623720D01*
X448513Y1621485D01*
X443636Y1618691D01*
X439013Y1615338D01*
X434746Y1611528D01*
X430834Y1607210D01*
X427380Y1602486D01*
X424434Y1597456D01*
X421893Y1592021D01*
X419862Y1586687D01*
X418439Y1581912D01*
X417880Y1578508D01*
X417830Y1572158D01*
X444550Y1572310D01*
X449935Y1573072D01*
X452729Y1575155D01*
X456133Y1582013D01*
X457911Y1584706D01*
X459841Y1586941D01*
X461670Y1588363D01*
X467004Y1589176D01*
X478434Y1589887D01*
X494334Y1590395D01*
X560019Y1590548D01*
X564794Y1584502D01*
X568350Y1578102D01*
X569417Y1571498D01*
X567893Y1565148D01*
X563930Y1559407D01*
X562000Y1557578D01*
X559968Y1556156D01*
X557326Y1555191D01*
X553567Y1554480D01*
X548081Y1554073D01*
X529894Y1553768D01*
X504443Y1553718D01*
X485495Y1553210D01*
X477875Y1552702D01*
X471220Y1551940D01*
X465429Y1550924D01*
X460349Y1549603D01*
X455828Y1547977D01*
X451713Y1545996D01*
X447801Y1543659D01*
X444042Y1540865D01*
X440131Y1537614D01*
X436016Y1533652D01*
X432308Y1529486D01*
X429056Y1525117D01*
X426212Y1520596D01*
X423824Y1515922D01*
X421893Y1511096D01*
X420319Y1506220D01*
X419201Y1501292D01*
X418490Y1496314D01*
X418185Y1491284D01*
X418338Y1486306D01*
X418846Y1481378D01*
X419760Y1476451D01*
X421081Y1471676D01*
X422757Y1466951D01*
X424840Y1462430D01*
X427329Y1458010D01*
X430225Y1453794D01*
X433476Y1449832D01*
X437083Y1446072D01*
X441045Y1442567D01*
X445414Y1439367D01*
X450138Y1436522D01*
X455218Y1433982D01*
X462838Y1431036D01*
X466902Y1430070D01*
X471678Y1429308D01*
X477570Y1428750D01*
X494385Y1428038D01*
X515975Y1427581D01*
X532333Y1427683D01*
X545084Y1428394D01*
X550367Y1429004D01*
X555091Y1429867D01*
X559409Y1430985D01*
X563422Y1432306D01*
X570890Y1435811D01*
X574598Y1437995D01*
X582015Y1443278D01*
X585368Y1446022D01*
X587908Y1448460D01*
X590600Y1451864D01*
X593394Y1456131D01*
X596087Y1461058D01*
X600811Y1471625D01*
X602538Y1476603D01*
X603656Y1481074D01*
X604062Y1484680D01*
X604062Y1491691D01*
X577189Y1491589D01*
X571957Y1490878D01*
X569620Y1488897D01*
X567385Y1482039D01*
X565454Y1478534D01*
X562914Y1475028D01*
X560120Y1471930D01*
X553161Y1465275D01*
X468731Y1465275D01*
X461721Y1471980D01*
X457657Y1476705D01*
X454863Y1481734D01*
X453440Y1486966D01*
X453237Y1492300D01*
X454355Y1497584D01*
X456742Y1502714D01*
X460349Y1507642D01*
X465226Y1512163D01*
X467309Y1513687D01*
X469646Y1514805D01*
X472643Y1515668D01*
X476758Y1516278D01*
X490067Y1516888D01*
X533501Y1517192D01*
X549097Y1517904D01*
X561035Y1519377D01*
X565912Y1520393D01*
X570280Y1521714D01*
X574243Y1523238D01*
X577900Y1525117D01*
X581406Y1527251D01*
X584860Y1529740D01*
X588670Y1533194D01*
X592175Y1537309D01*
X595274Y1542034D01*
X597966Y1547266D01*
X600252Y1552803D01*
X602030Y1558645D01*
X603300Y1564589D01*
X604113Y1570532D01*
X604316Y1576374D01*
X603910Y1582013D01*
X602945Y1587296D01*
X601268Y1592173D01*
X598373Y1598015D01*
X594969Y1603451D01*
X591007Y1608429D01*
X586587Y1612900D01*
X581761Y1616811D01*
X576529Y1620215D01*
X570941Y1623009D01*
X564997Y1625193D01*
X558546Y1626006D01*
X546506Y1626565D01*
X530656Y1626920D01*
G37*
G36*
X-597103Y1626971D02*
G01*
X-603402Y1626920D01*
X-609701Y1626463D01*
X-615950Y1625600D01*
X-622147Y1624330D01*
X-628243Y1622704D01*
X-634238Y1620672D01*
X-640080Y1618234D01*
X-645820Y1615490D01*
X-651357Y1612341D01*
X-656742Y1608886D01*
X-661873Y1605127D01*
X-666800Y1601012D01*
X-671525Y1596593D01*
X-675944Y1591919D01*
X-680059Y1586941D01*
X-683869Y1581658D01*
X-687374Y1576120D01*
X-693013Y1565300D01*
X-694893Y1561084D01*
X-696264Y1557223D01*
X-697179Y1553260D01*
X-697738Y1548790D01*
X-698144Y1536293D01*
X-698129Y1526032D01*
X-664413Y1526032D01*
X-664159Y1532890D01*
X-663244Y1539595D01*
X-661720Y1546098D01*
X-659536Y1552346D01*
X-656691Y1558290D01*
X-653288Y1563878D01*
X-649274Y1569161D01*
X-644702Y1573987D01*
X-639521Y1578406D01*
X-633831Y1582318D01*
X-627227Y1586077D01*
X-621182Y1588262D01*
X-614019Y1589379D01*
X-604012Y1589836D01*
X-596442Y1589887D01*
X-589534Y1589684D01*
X-583996Y1589278D01*
X-580593Y1588719D01*
X-576732Y1587144D01*
X-572414Y1584756D01*
X-567893Y1581708D01*
X-563321Y1578152D01*
X-558800Y1574190D01*
X-554532Y1570024D01*
X-550722Y1565808D01*
X-547522Y1561592D01*
X-543458Y1555140D01*
X-541020Y1549247D01*
X-539699Y1542084D01*
X-538937Y1531823D01*
X-538734Y1524304D01*
X-539089Y1517497D01*
X-539953Y1511300D01*
X-541375Y1505610D01*
X-543509Y1500174D01*
X-546252Y1494993D01*
X-549757Y1489862D01*
X-554024Y1484630D01*
X-558596Y1479956D01*
X-563422Y1475943D01*
X-568655Y1472641D01*
X-574243Y1469948D01*
X-580339Y1467916D01*
X-586892Y1466494D01*
X-594004Y1465681D01*
X-601675Y1465427D01*
X-609549Y1465681D01*
X-616458Y1466443D01*
X-622655Y1467815D01*
X-628294Y1469898D01*
X-633577Y1472742D01*
X-638759Y1476502D01*
X-643991Y1481277D01*
X-649528Y1487068D01*
X-654761Y1493367D01*
X-658418Y1499057D01*
X-660958Y1505000D01*
X-662787Y1511909D01*
X-663956Y1519021D01*
X-664413Y1526032D01*
X-698129Y1526032D01*
X-697890Y1511554D01*
X-697534Y1506067D01*
X-696976Y1501546D01*
X-696061Y1497685D01*
X-694740Y1493926D01*
X-690524Y1485138D01*
X-687374Y1479397D01*
X-683869Y1473911D01*
X-680059Y1468678D01*
X-675894Y1463700D01*
X-671474Y1458976D01*
X-666750Y1454556D01*
X-661822Y1450441D01*
X-656691Y1446631D01*
X-651357Y1443126D01*
X-645871Y1439976D01*
X-640232Y1437132D01*
X-634492Y1434693D01*
X-628650Y1432610D01*
X-622706Y1430883D01*
X-616762Y1429613D01*
X-610768Y1428750D01*
X-604774Y1428242D01*
X-598830Y1428242D01*
X-592886Y1428648D01*
X-587044Y1429562D01*
X-579069Y1431340D01*
X-571500Y1433576D01*
X-564337Y1436319D01*
X-557530Y1439468D01*
X-550976Y1443177D01*
X-544626Y1447444D01*
X-538480Y1452270D01*
X-532434Y1457756D01*
X-528421Y1461770D01*
X-524713Y1466037D01*
X-521258Y1470406D01*
X-515264Y1479600D01*
X-512724Y1484426D01*
X-508406Y1494332D01*
X-506679Y1499412D01*
X-505256Y1504594D01*
X-504139Y1509826D01*
X-503275Y1515110D01*
X-502412Y1525778D01*
X-502767Y1536446D01*
X-503326Y1541780D01*
X-504190Y1547114D01*
X-505358Y1552397D01*
X-506831Y1557578D01*
X-508609Y1562760D01*
X-510641Y1567840D01*
X-512978Y1572818D01*
X-515569Y1577695D01*
X-518515Y1582470D01*
X-521716Y1587093D01*
X-525221Y1591614D01*
X-528980Y1595983D01*
X-532180Y1599133D01*
X-535889Y1602333D01*
X-544677Y1608582D01*
X-549503Y1611579D01*
X-559765Y1617116D01*
X-570128Y1621586D01*
X-575157Y1623364D01*
X-579983Y1624787D01*
X-584454Y1625752D01*
X-590753Y1626565D01*
G37*
G36*
X-375107Y1626870D02*
G01*
X-440791Y1626209D01*
X-452170Y1619148D01*
X-456946Y1615795D01*
X-461467Y1611782D01*
X-465632Y1607261D01*
X-469341Y1602384D01*
X-472541Y1597202D01*
X-475081Y1591868D01*
X-476961Y1586534D01*
X-478078Y1581302D01*
X-479298Y1572158D01*
X-452120Y1572260D01*
X-446633Y1573072D01*
X-443839Y1575155D01*
X-440435Y1582013D01*
X-438658Y1584706D01*
X-436676Y1586941D01*
X-434848Y1588363D01*
X-433070Y1588770D01*
X-424484Y1589582D01*
X-410616Y1590192D01*
X-393192Y1590497D01*
X-336499Y1590548D01*
X-331774Y1584502D01*
X-328168Y1578102D01*
X-327152Y1571498D01*
X-328625Y1565148D01*
X-332638Y1559407D01*
X-334568Y1557578D01*
X-336600Y1556156D01*
X-339191Y1555191D01*
X-343001Y1554480D01*
X-348488Y1554073D01*
X-366674Y1553768D01*
X-392074Y1553718D01*
X-411073Y1553210D01*
X-418693Y1552702D01*
X-425348Y1551940D01*
X-431139Y1550924D01*
X-436168Y1549603D01*
X-440690Y1547977D01*
X-444855Y1545996D01*
X-448716Y1543659D01*
X-452526Y1540865D01*
X-456387Y1537614D01*
X-460552Y1533652D01*
X-464261Y1529486D01*
X-467512Y1525117D01*
X-470306Y1520596D01*
X-472693Y1515922D01*
X-474675Y1511096D01*
X-476199Y1506220D01*
X-477367Y1501292D01*
X-478078Y1496314D01*
X-478332Y1491284D01*
X-478231Y1486306D01*
X-477723Y1481378D01*
X-476808Y1476451D01*
X-475488Y1471676D01*
X-473811Y1466951D01*
X-471678Y1462430D01*
X-469188Y1458010D01*
X-466343Y1453794D01*
X-463092Y1449832D01*
X-459485Y1446072D01*
X-455472Y1442567D01*
X-451154Y1439367D01*
X-446430Y1436522D01*
X-441350Y1433982D01*
X-433730Y1431036D01*
X-429666Y1430070D01*
X-424891Y1429308D01*
X-418998Y1428750D01*
X-402183Y1428038D01*
X-380593Y1427581D01*
X-364236Y1427683D01*
X-351485Y1428394D01*
X-346202Y1429004D01*
X-341426Y1429867D01*
X-337159Y1430985D01*
X-333146Y1432306D01*
X-325678Y1435811D01*
X-321970Y1437995D01*
X-314553Y1443278D01*
X-311200Y1446022D01*
X-308660Y1448460D01*
X-305968Y1451864D01*
X-303174Y1456131D01*
X-300482Y1461058D01*
X-297942Y1466342D01*
X-295757Y1471625D01*
X-294030Y1476603D01*
X-292912Y1481074D01*
X-292506Y1484680D01*
X-292506Y1491691D01*
X-319379Y1491589D01*
X-324612Y1490878D01*
X-326948Y1488897D01*
X-329184Y1482039D01*
X-331114Y1478534D01*
X-333654Y1475028D01*
X-336448Y1471930D01*
X-343357Y1465275D01*
X-427837Y1465275D01*
X-434848Y1471980D01*
X-440232Y1478686D01*
X-443077Y1485950D01*
X-443331Y1493570D01*
X-440943Y1501343D01*
X-439267Y1504645D01*
X-437489Y1507439D01*
X-435508Y1509826D01*
X-433120Y1511757D01*
X-430225Y1513281D01*
X-426669Y1514500D01*
X-422249Y1515414D01*
X-416915Y1516126D01*
X-402640Y1516837D01*
X-362712Y1517192D01*
X-347268Y1517954D01*
X-340969Y1518564D01*
X-335432Y1519377D01*
X-330555Y1520444D01*
X-326237Y1521714D01*
X-322275Y1523288D01*
X-318617Y1525117D01*
X-315112Y1527251D01*
X-311658Y1529740D01*
X-307086Y1533906D01*
X-303072Y1538681D01*
X-299720Y1544066D01*
X-297027Y1549908D01*
X-294944Y1556156D01*
X-293573Y1562658D01*
X-292912Y1569262D01*
X-292963Y1575968D01*
X-293776Y1582572D01*
X-295300Y1589024D01*
X-297586Y1595221D01*
X-300634Y1601012D01*
X-306425Y1609191D01*
X-312521Y1615389D01*
X-319582Y1620164D01*
X-328269Y1623974D01*
X-331266Y1624888D01*
X-335076Y1625600D01*
X-339953Y1626158D01*
X-353872Y1626768D01*
G37*
G36*
X864920Y1542288D02*
G01*
X803554Y1480820D01*
X789635Y1466646D01*
X768705Y1444447D01*
X762406Y1437182D01*
X759307Y1433017D01*
X759053Y1432204D01*
X761238Y1431137D01*
X766165Y1430324D01*
X773480Y1429816D01*
X782929Y1429613D01*
X805180Y1429613D01*
X887272Y1511960D01*
X906932Y1532178D01*
X914400Y1540510D01*
X912469Y1541221D01*
X907135Y1541780D01*
X889660Y1542288D01*
G37*
G36*
X-1511046Y1189482D02*
G01*
X-1516938Y1189075D01*
X-1522171Y1187907D01*
X-1526692Y1185926D01*
X-1530604Y1183132D01*
X-1533702Y1179576D01*
X-1535938Y1175461D01*
X-1537258Y1170787D01*
X-1537716Y1165606D01*
X-1526794Y1165606D01*
X-1526540Y1167739D01*
X-1525828Y1169670D01*
X-1524660Y1171295D01*
X-1522984Y1172718D01*
X-1521002Y1173937D01*
X-1518513Y1174800D01*
X-1515668Y1175359D01*
X-1512316Y1175512D01*
X-1489964Y1175512D01*
X-1486712Y1175359D01*
X-1483868Y1174800D01*
X-1481378Y1173937D01*
X-1479296Y1172718D01*
X-1477619Y1171295D01*
X-1476451Y1169670D01*
X-1475740Y1167790D01*
X-1475486Y1165606D01*
X-1475740Y1163320D01*
X-1476451Y1161338D01*
X-1477619Y1159662D01*
X-1479296Y1158240D01*
X-1481378Y1157122D01*
X-1483868Y1156360D01*
X-1486712Y1155852D01*
X-1489964Y1155700D01*
X-1512316Y1155700D01*
X-1515668Y1155852D01*
X-1518513Y1156360D01*
X-1521002Y1157122D01*
X-1522984Y1158240D01*
X-1524660Y1159662D01*
X-1525828Y1161338D01*
X-1526540Y1163320D01*
X-1526794Y1165606D01*
X-1537716Y1165606D01*
X-1537258Y1160424D01*
X-1535938Y1155750D01*
X-1533702Y1151636D01*
X-1530604Y1148080D01*
X-1526692Y1145184D01*
X-1522171Y1143152D01*
X-1516938Y1141882D01*
X-1511046Y1141476D01*
X-1491488Y1141476D01*
X-1485595Y1141882D01*
X-1480312Y1143152D01*
X-1475689Y1145184D01*
X-1471676Y1148080D01*
X-1468577Y1151636D01*
X-1466342Y1155750D01*
X-1465021Y1160424D01*
X-1464564Y1165606D01*
X-1465021Y1170686D01*
X-1466342Y1175258D01*
X-1468577Y1179322D01*
X-1471676Y1182878D01*
X-1475689Y1185773D01*
X-1480312Y1187805D01*
X-1485595Y1189075D01*
X-1491488Y1189482D01*
G37*
G36*
X-1516888Y1133094D02*
G01*
X-1521460Y1132636D01*
X-1525524Y1131316D01*
X-1529080Y1129080D01*
X-1532128Y1125982D01*
X-1534566Y1122273D01*
X-1536293Y1118057D01*
X-1537360Y1113282D01*
X-1537716Y1107948D01*
X-1537360Y1103274D01*
X-1536395Y1098854D01*
X-1534718Y1094740D01*
X-1532382Y1090930D01*
X-1529537Y1087831D01*
X-1526184Y1085596D01*
X-1522171Y1084275D01*
X-1517650Y1083818D01*
X-1517396Y1084072D01*
X-1517396Y1097788D01*
X-1519326Y1097991D01*
X-1521104Y1098550D01*
X-1522628Y1099515D01*
X-1525219Y1102309D01*
X-1526082Y1104036D01*
X-1526641Y1105865D01*
X-1526794Y1107948D01*
X-1526641Y1110234D01*
X-1526082Y1112316D01*
X-1525219Y1114196D01*
X-1524000Y1115822D01*
X-1522374Y1117142D01*
X-1520647Y1118108D01*
X-1518716Y1118666D01*
X-1516634Y1118870D01*
X-1513992Y1118717D01*
X-1511757Y1118158D01*
X-1509826Y1117295D01*
X-1508252Y1116076D01*
X-1507134Y1114501D01*
X-1506372Y1112570D01*
X-1505864Y1110335D01*
X-1505712Y1099820D01*
X-1494790Y1099820D01*
X-1494637Y1110081D01*
X-1494129Y1112113D01*
X-1493367Y1113891D01*
X-1492250Y1115314D01*
X-1490827Y1116431D01*
X-1489151Y1117244D01*
X-1487170Y1117701D01*
X-1484884Y1117854D01*
X-1482953Y1117701D01*
X-1481226Y1117244D01*
X-1479651Y1116431D01*
X-1478280Y1115314D01*
X-1477060Y1113790D01*
X-1476197Y1112062D01*
X-1475638Y1110132D01*
X-1475486Y1107948D01*
X-1475638Y1106119D01*
X-1476146Y1104392D01*
X-1476908Y1102817D01*
X-1478026Y1101344D01*
X-1479245Y1100226D01*
X-1480718Y1099464D01*
X-1482293Y1098956D01*
X-1484122Y1098804D01*
X-1484122Y1085088D01*
X-1483868Y1084834D01*
X-1479854Y1085138D01*
X-1476197Y1086358D01*
X-1472844Y1088440D01*
X-1469898Y1091438D01*
X-1467561Y1094943D01*
X-1465884Y1098854D01*
X-1464919Y1103223D01*
X-1464564Y1107948D01*
X-1464919Y1113231D01*
X-1465884Y1117904D01*
X-1467561Y1122019D01*
X-1469898Y1125474D01*
X-1472742Y1128369D01*
X-1476095Y1130452D01*
X-1480108Y1131671D01*
X-1484630Y1132078D01*
X-1487017Y1131925D01*
X-1489303Y1131366D01*
X-1491589Y1130503D01*
X-1493774Y1129284D01*
X-1495704Y1127760D01*
X-1497380Y1125931D01*
X-1498854Y1123797D01*
X-1500124Y1121410D01*
X-1501292Y1124051D01*
X-1502714Y1126337D01*
X-1504442Y1128369D01*
X-1506474Y1130046D01*
X-1508760Y1131366D01*
X-1511249Y1132332D01*
X-1513941Y1132890D01*
G37*
G36*
X-1536700Y-1084834D02*
G01*
X-1536700Y-1099058D01*
X-1478026Y-1099058D01*
X-1478026Y-1113790D01*
X-1467104Y-1113790D01*
X-1464564Y-1084834D01*
G37*
G36*
X-1536700Y-1127760D02*
G01*
X-1536700Y-1175512D01*
X-1527302Y-1175512D01*
X-1499616Y-1151077D01*
X-1494790Y-1147521D01*
X-1492758Y-1146302D01*
X-1488795Y-1144778D01*
X-1485138Y-1144270D01*
X-1483106Y-1144422D01*
X-1481277Y-1144828D01*
X-1479651Y-1145540D01*
X-1477060Y-1147724D01*
X-1476197Y-1149197D01*
X-1475638Y-1151026D01*
X-1475486Y-1153160D01*
X-1475689Y-1155344D01*
X-1476349Y-1157224D01*
X-1477467Y-1158849D01*
X-1479042Y-1160272D01*
X-1480820Y-1161389D01*
X-1482801Y-1162202D01*
X-1484985Y-1162659D01*
X-1487424Y-1162812D01*
X-1487424Y-1176782D01*
X-1482648Y-1176477D01*
X-1478483Y-1175308D01*
X-1474622Y-1173327D01*
X-1471168Y-1170432D01*
X-1468272Y-1166977D01*
X-1466189Y-1162913D01*
X-1464970Y-1158341D01*
X-1464564Y-1153160D01*
X-1464919Y-1147978D01*
X-1465986Y-1143457D01*
X-1467713Y-1139494D01*
X-1470152Y-1136142D01*
X-1473200Y-1133449D01*
X-1476705Y-1131570D01*
X-1480667Y-1130401D01*
X-1485138Y-1130046D01*
X-1488236Y-1130249D01*
X-1491234Y-1130858D01*
X-1494078Y-1131925D01*
X-1496822Y-1133348D01*
X-1503172Y-1138021D01*
X-1525524Y-1156716D01*
X-1525778Y-1156716D01*
X-1525778Y-1127760D01*
G37*
G36*
X-1107440Y-1464564D02*
G01*
X-1112621Y-1464919D01*
X-1117142Y-1465986D01*
X-1121105Y-1467713D01*
X-1124458Y-1470152D01*
X-1127150Y-1473200D01*
X-1129030Y-1476705D01*
X-1130198Y-1480667D01*
X-1130554Y-1485138D01*
X-1130350Y-1488236D01*
X-1129741Y-1491234D01*
X-1128674Y-1494078D01*
X-1127252Y-1496822D01*
X-1122578Y-1503172D01*
X-1103884Y-1525524D01*
X-1103884Y-1525778D01*
X-1132840Y-1525778D01*
X-1132840Y-1536700D01*
X-1085088Y-1536700D01*
X-1085088Y-1527302D01*
X-1109522Y-1499616D01*
X-1113078Y-1494790D01*
X-1114298Y-1492758D01*
X-1115822Y-1488795D01*
X-1116330Y-1485138D01*
X-1116177Y-1483106D01*
X-1115771Y-1481277D01*
X-1115060Y-1479651D01*
X-1112875Y-1477060D01*
X-1111402Y-1476197D01*
X-1109573Y-1475638D01*
X-1107440Y-1475486D01*
X-1105255Y-1475689D01*
X-1103376Y-1476349D01*
X-1101699Y-1477467D01*
X-1100328Y-1479042D01*
X-1099210Y-1480820D01*
X-1098397Y-1482801D01*
X-1097940Y-1484985D01*
X-1097788Y-1487424D01*
X-1083818Y-1487424D01*
X-1084122Y-1482648D01*
X-1085291Y-1478483D01*
X-1087272Y-1474622D01*
X-1090168Y-1471168D01*
X-1093622Y-1468272D01*
X-1097686Y-1466189D01*
X-1102258Y-1464970D01*
G37*
G36*
X-1165606Y-1464564D02*
G01*
X-1170686Y-1465021D01*
X-1175258Y-1466342D01*
X-1179322Y-1468577D01*
X-1182878Y-1471676D01*
X-1185773Y-1475689D01*
X-1187805Y-1480312D01*
X-1189075Y-1485595D01*
X-1189482Y-1491488D01*
X-1189394Y-1512316D01*
X-1175512Y-1512316D01*
X-1175512Y-1489964D01*
X-1175359Y-1486712D01*
X-1174800Y-1483868D01*
X-1173937Y-1481378D01*
X-1172718Y-1479296D01*
X-1171295Y-1477619D01*
X-1169670Y-1476451D01*
X-1167790Y-1475740D01*
X-1165606Y-1475486D01*
X-1163320Y-1475740D01*
X-1161338Y-1476451D01*
X-1159662Y-1477619D01*
X-1158240Y-1479296D01*
X-1157122Y-1481378D01*
X-1156360Y-1483868D01*
X-1155852Y-1486712D01*
X-1155700Y-1489964D01*
X-1155700Y-1512316D01*
X-1155852Y-1515668D01*
X-1156360Y-1518513D01*
X-1157122Y-1521002D01*
X-1158240Y-1522984D01*
X-1159662Y-1524660D01*
X-1161338Y-1525828D01*
X-1163320Y-1526540D01*
X-1165606Y-1526794D01*
X-1167790Y-1526540D01*
X-1169670Y-1525828D01*
X-1171295Y-1524660D01*
X-1172718Y-1522984D01*
X-1173937Y-1521002D01*
X-1174800Y-1518513D01*
X-1175359Y-1515668D01*
X-1175512Y-1512316D01*
X-1189394Y-1512316D01*
X-1189075Y-1516938D01*
X-1187907Y-1522171D01*
X-1185926Y-1526692D01*
X-1183132Y-1530604D01*
X-1179576Y-1533702D01*
X-1175461Y-1535938D01*
X-1170787Y-1537258D01*
X-1165606Y-1537716D01*
X-1160424Y-1537258D01*
X-1155750Y-1535938D01*
X-1151636Y-1533702D01*
X-1148080Y-1530604D01*
X-1145184Y-1526692D01*
X-1143152Y-1522171D01*
X-1141882Y-1516938D01*
X-1141476Y-1511046D01*
X-1141476Y-1491488D01*
X-1141882Y-1485595D01*
X-1143152Y-1480312D01*
X-1145184Y-1475689D01*
X-1148080Y-1471676D01*
X-1151636Y-1468577D01*
X-1155750Y-1466342D01*
X-1160424Y-1465021D01*
G37*
G36*
X1154938Y-1464564D02*
G01*
X1154938Y-1536700D01*
X1169162Y-1536700D01*
X1169162Y-1478026D01*
X1183894Y-1478026D01*
X1183894Y-1467104D01*
G37*
G36*
X1097534Y-1464564D02*
G01*
X1097534Y-1536700D01*
X1111758Y-1536700D01*
X1111758Y-1478026D01*
X1126490Y-1478026D01*
X1126490Y-1467104D01*
G37*
G36*
X1467104Y-1076706D02*
G01*
X1464564Y-1105662D01*
X1536700Y-1105662D01*
X1536700Y-1091438D01*
X1478026Y-1091438D01*
X1478026Y-1076706D01*
G37*
G36*
X1491488Y-1128776D02*
G01*
X1485595Y-1129182D01*
X1480312Y-1130452D01*
X1475689Y-1132484D01*
X1471676Y-1135380D01*
X1468577Y-1138936D01*
X1466342Y-1143050D01*
X1465021Y-1147724D01*
X1464564Y-1152906D01*
X1475486Y-1152906D01*
X1475740Y-1150620D01*
X1476451Y-1148638D01*
X1477619Y-1146962D01*
X1479296Y-1145540D01*
X1481378Y-1144422D01*
X1483868Y-1143660D01*
X1486712Y-1143152D01*
X1489964Y-1143000D01*
X1512316Y-1143000D01*
X1515668Y-1143152D01*
X1518513Y-1143660D01*
X1521002Y-1144422D01*
X1522984Y-1145540D01*
X1524660Y-1146962D01*
X1525828Y-1148638D01*
X1526540Y-1150620D01*
X1526794Y-1152906D01*
X1526540Y-1155039D01*
X1525828Y-1156970D01*
X1524660Y-1158595D01*
X1522984Y-1160018D01*
X1521002Y-1161237D01*
X1518513Y-1162100D01*
X1515668Y-1162659D01*
X1512316Y-1162812D01*
X1489964Y-1162812D01*
X1486712Y-1162659D01*
X1483868Y-1162100D01*
X1481378Y-1161237D01*
X1479296Y-1160018D01*
X1477619Y-1158595D01*
X1476451Y-1156970D01*
X1475740Y-1155090D01*
X1475486Y-1152906D01*
X1464564Y-1152906D01*
X1465021Y-1157986D01*
X1466342Y-1162558D01*
X1468577Y-1166622D01*
X1471676Y-1170178D01*
X1475689Y-1173073D01*
X1480312Y-1175105D01*
X1485595Y-1176375D01*
X1491488Y-1176782D01*
X1511046Y-1176782D01*
X1516938Y-1176375D01*
X1522171Y-1175207D01*
X1526692Y-1173226D01*
X1530604Y-1170432D01*
X1533702Y-1166876D01*
X1535938Y-1162761D01*
X1537258Y-1158087D01*
X1537716Y-1152906D01*
X1537258Y-1147724D01*
X1535938Y-1143050D01*
X1533702Y-1138936D01*
X1530604Y-1135380D01*
X1526692Y-1132484D01*
X1522171Y-1130452D01*
X1516938Y-1129182D01*
X1511046Y-1128776D01*
G37*
G36*
X1491488Y1176528D02*
G01*
X1485595Y1176121D01*
X1480312Y1174902D01*
X1475689Y1172819D01*
X1471676Y1169924D01*
X1468577Y1166368D01*
X1466342Y1162253D01*
X1465021Y1157579D01*
X1464564Y1152398D01*
X1475486Y1152398D01*
X1475740Y1154684D01*
X1476451Y1156665D01*
X1477619Y1158341D01*
X1479296Y1159764D01*
X1481378Y1160881D01*
X1483868Y1161694D01*
X1486712Y1162151D01*
X1489964Y1162304D01*
X1512316Y1162304D01*
X1515668Y1162151D01*
X1518513Y1161694D01*
X1521002Y1160881D01*
X1522984Y1159764D01*
X1524660Y1158240D01*
X1525828Y1156512D01*
X1526540Y1154582D01*
X1526794Y1152398D01*
X1526540Y1150213D01*
X1525828Y1148283D01*
X1524660Y1146556D01*
X1522984Y1145032D01*
X1521002Y1143914D01*
X1518513Y1143152D01*
X1515668Y1142644D01*
X1512316Y1142492D01*
X1489964Y1142492D01*
X1486712Y1142644D01*
X1483868Y1143203D01*
X1481378Y1144066D01*
X1479296Y1145286D01*
X1477619Y1146657D01*
X1476451Y1148334D01*
X1475740Y1150213D01*
X1475486Y1152398D01*
X1464564Y1152398D01*
X1465021Y1147216D01*
X1466342Y1142542D01*
X1468577Y1138428D01*
X1471676Y1134872D01*
X1475689Y1131976D01*
X1480312Y1129944D01*
X1485595Y1128674D01*
X1491488Y1128268D01*
X1511046Y1128268D01*
X1516938Y1128674D01*
X1522171Y1129944D01*
X1526692Y1131976D01*
X1530604Y1134872D01*
X1533702Y1138428D01*
X1535938Y1142542D01*
X1537258Y1147216D01*
X1537716Y1152398D01*
X1537258Y1157579D01*
X1535938Y1162253D01*
X1533702Y1166368D01*
X1530604Y1169924D01*
X1526692Y1172819D01*
X1522171Y1174902D01*
X1516938Y1176121D01*
X1511046Y1176528D01*
G37*
G36*
X1467104Y1113790D02*
G01*
X1464564Y1084834D01*
X1536700Y1084834D01*
X1536700Y1099058D01*
X1478026Y1099058D01*
X1478026Y1113790D01*
G37*
G36*
X100330Y1328420D02*
G01*
X85322Y1283716D01*
X99568Y1283716D01*
X107442Y1308862D01*
X107696Y1308862D01*
X115570Y1283716D01*
X85322Y1283716D01*
X76454Y1257300D01*
X91186Y1257300D01*
X96012Y1272540D01*
X119126Y1272540D01*
X123952Y1257300D01*
X138938Y1257300D01*
X114808Y1328420D01*
G37*
G36*
X55372Y1328420D02*
G01*
X55372Y1268222D01*
X23368Y1268222D01*
X23368Y1257300D01*
X69596Y1257300D01*
X69596Y1328420D01*
G37*
G36*
X-10668Y1328420D02*
G01*
X-16408Y1328064D01*
X-21539Y1327048D01*
X-25958Y1325270D01*
X-29718Y1322832D01*
X-32715Y1319784D01*
X-34848Y1316177D01*
X-36169Y1312011D01*
X-36536Y1306830D01*
X-22352Y1306830D01*
X-22148Y1309116D01*
X-21590Y1311148D01*
X-20624Y1312926D01*
X-19304Y1314450D01*
X-17627Y1315770D01*
X-15646Y1316736D01*
X-13309Y1317294D01*
X-10668Y1317498D01*
X-254Y1317498D01*
X-254Y1296670D01*
X-13258Y1296822D01*
X-15697Y1297330D01*
X-17678Y1298092D01*
X-19304Y1299210D01*
X-20624Y1300632D01*
X-21590Y1302359D01*
X-22148Y1304442D01*
X-22352Y1306830D01*
X-36536Y1306830D01*
X-36372Y1304747D01*
X-35814Y1302308D01*
X-34848Y1300073D01*
X-33528Y1297940D01*
X-31953Y1296009D01*
X-30022Y1294333D01*
X-27787Y1292860D01*
X-25146Y1291590D01*
X-28092Y1290421D01*
X-30581Y1288999D01*
X-32664Y1287272D01*
X-34290Y1285240D01*
X-35509Y1282954D01*
X-36372Y1280414D01*
X-36931Y1277620D01*
X-37287Y1266342D01*
X-37846Y1263142D01*
X-38912Y1260297D01*
X-40640Y1258316D01*
X-40640Y1257300D01*
X-25908Y1257300D01*
X-24993Y1258163D01*
X-24231Y1259332D01*
X-23368Y1262380D01*
X-22860Y1269492D01*
X-22860Y1274572D01*
X-22656Y1277061D01*
X-22098Y1279245D01*
X-21132Y1281125D01*
X-19812Y1282700D01*
X-18237Y1284020D01*
X-16408Y1284986D01*
X-14173Y1285544D01*
X-11684Y1285748D01*
X-254Y1285748D01*
X-254Y1257300D01*
X13970Y1257300D01*
X13970Y1328420D01*
G37*
G36*
X-123698Y1328420D02*
G01*
X-123698Y1257300D01*
X-109474Y1257300D01*
X-109474Y1305814D01*
X-109220Y1305814D01*
X-91440Y1257300D01*
X-81788Y1257300D01*
X-64262Y1306068D01*
X-64008Y1305814D01*
X-64008Y1257300D01*
X-49784Y1257300D01*
X-49784Y1328420D01*
X-68580Y1328420D01*
X-86614Y1276096D01*
X-86868Y1276096D01*
X-105156Y1328420D01*
G37*
G36*
X442214Y1328420D02*
G01*
X442214Y1317498D01*
X474472Y1317498D01*
X474472Y1297940D01*
X447293Y1297940D01*
X447293Y1286764D01*
X474472Y1286764D01*
X474472Y1257300D01*
X488696Y1257300D01*
X488696Y1328420D01*
G37*
G36*
X376682Y1328420D02*
G01*
X376682Y1281938D01*
X377190Y1276197D01*
X378714Y1271117D01*
X381254Y1266799D01*
X384810Y1263142D01*
X389026Y1260144D01*
X393903Y1258011D01*
X399338Y1256690D01*
X405384Y1256284D01*
X411429Y1256690D01*
X416864Y1258011D01*
X421741Y1260144D01*
X425958Y1263142D01*
X429412Y1266799D01*
X431850Y1271117D01*
X433324Y1276197D01*
X433832Y1281938D01*
X433832Y1328420D01*
X419608Y1328420D01*
X419608Y1281938D01*
X419354Y1278585D01*
X418642Y1275638D01*
X417474Y1273149D01*
X415798Y1271016D01*
X413715Y1269339D01*
X411276Y1268171D01*
X408533Y1267460D01*
X405384Y1267206D01*
X402234Y1267460D01*
X399491Y1268171D01*
X397052Y1269339D01*
X394970Y1271016D01*
X393293Y1273149D01*
X392125Y1275638D01*
X391414Y1278585D01*
X391160Y1281938D01*
X391160Y1328420D01*
G37*
G36*
X350266Y1328420D02*
G01*
X350266Y1268222D01*
X318262Y1268222D01*
X318262Y1257300D01*
X364490Y1257300D01*
X364490Y1328420D01*
G37*
G36*
X294640Y1328420D02*
G01*
X294640Y1268222D01*
X262890Y1268222D01*
X262890Y1257300D01*
X308864Y1257300D01*
X308864Y1328420D01*
G37*
G36*
X869187Y1329436D02*
G01*
X862939Y1329029D01*
X857503Y1327861D01*
X852779Y1325880D01*
X848868Y1323086D01*
X845667Y1319580D01*
X843381Y1315466D01*
X842111Y1310690D01*
X841756Y1304798D01*
X855726Y1304798D01*
X855929Y1307998D01*
X856538Y1310843D01*
X857605Y1313230D01*
X859028Y1315212D01*
X860806Y1316634D01*
X863092Y1317701D01*
X865886Y1318310D01*
X869187Y1318514D01*
X872185Y1318158D01*
X874826Y1317193D01*
X877163Y1315516D01*
X879094Y1313180D01*
X880668Y1310436D01*
X881786Y1307338D01*
X882446Y1303832D01*
X882650Y1299972D01*
X882650Y1285748D01*
X882396Y1281836D01*
X881684Y1278331D01*
X880516Y1275130D01*
X878840Y1272286D01*
X876757Y1270050D01*
X874318Y1268476D01*
X871575Y1267510D01*
X868426Y1267206D01*
X865428Y1267409D01*
X862837Y1268018D01*
X860602Y1269085D01*
X858774Y1270508D01*
X857453Y1272387D01*
X856487Y1274775D01*
X855929Y1277620D01*
X855726Y1280922D01*
X841756Y1280922D01*
X842111Y1275232D01*
X843330Y1270457D01*
X845515Y1266240D01*
X848614Y1262634D01*
X852525Y1259840D01*
X857148Y1257858D01*
X862431Y1256690D01*
X868426Y1256284D01*
X874471Y1256792D01*
X879906Y1258316D01*
X884783Y1260856D01*
X889000Y1264412D01*
X892454Y1268882D01*
X894892Y1273911D01*
X896366Y1279550D01*
X896874Y1285748D01*
X896874Y1299972D01*
X896416Y1306169D01*
X894994Y1311706D01*
X892606Y1316685D01*
X889253Y1321054D01*
X885139Y1324711D01*
X880414Y1327353D01*
X875131Y1328928D01*
G37*
G36*
X670560Y1329436D02*
G01*
X664464Y1329080D01*
X659079Y1327912D01*
X654405Y1325981D01*
X650494Y1323340D01*
X647496Y1319936D01*
X645414Y1316024D01*
X644194Y1311656D01*
X643890Y1306576D01*
X657352Y1306576D01*
X657555Y1309217D01*
X658164Y1311554D01*
X659231Y1313535D01*
X660654Y1315212D01*
X662482Y1316634D01*
X664718Y1317701D01*
X667308Y1318310D01*
X670306Y1318514D01*
X673354Y1318209D01*
X676097Y1317244D01*
X678535Y1315669D01*
X680720Y1313434D01*
X682498Y1310741D01*
X683768Y1307642D01*
X684530Y1304239D01*
X684784Y1300480D01*
X684784Y1285494D01*
X684530Y1281633D01*
X683768Y1278128D01*
X682498Y1275029D01*
X680720Y1272286D01*
X678484Y1270050D01*
X675894Y1268476D01*
X672896Y1267510D01*
X669544Y1267206D01*
X665175Y1267460D01*
X661670Y1268222D01*
X658977Y1269339D01*
X657098Y1270762D01*
X657098Y1284478D01*
X670814Y1284478D01*
X670814Y1294384D01*
X642874Y1294384D01*
X642874Y1266952D01*
X644753Y1264869D01*
X646988Y1262938D01*
X649681Y1261211D01*
X652780Y1259586D01*
X656285Y1258163D01*
X660247Y1257096D01*
X664667Y1256487D01*
X669544Y1256284D01*
X675741Y1256792D01*
X681329Y1258316D01*
X686409Y1260856D01*
X690880Y1264412D01*
X694436Y1268780D01*
X696976Y1273759D01*
X698500Y1279296D01*
X699008Y1285494D01*
X699008Y1300226D01*
X698500Y1306423D01*
X697026Y1311960D01*
X694588Y1316939D01*
X691134Y1321308D01*
X686816Y1324864D01*
X681939Y1327404D01*
X676503Y1328928D01*
G37*
G36*
X773938Y1328420D02*
G01*
X773938Y1257300D01*
X788416Y1257300D01*
X788416Y1286764D01*
X817372Y1286764D01*
X817372Y1257300D01*
X831596Y1257300D01*
X831596Y1328420D01*
X817372Y1328420D01*
X817372Y1297940D01*
X788416Y1297940D01*
X788416Y1328420D01*
G37*
G36*
X736346Y1328420D02*
G01*
X730605Y1328064D01*
X725474Y1327048D01*
X721055Y1325270D01*
X717296Y1322832D01*
X714298Y1319784D01*
X712165Y1316177D01*
X710844Y1312011D01*
X710477Y1306830D01*
X724662Y1306830D01*
X724865Y1309116D01*
X725424Y1311148D01*
X726389Y1312926D01*
X727710Y1314450D01*
X729386Y1315770D01*
X731418Y1316736D01*
X733704Y1317294D01*
X736346Y1317498D01*
X746760Y1317498D01*
X746760Y1296670D01*
X733755Y1296822D01*
X731316Y1297330D01*
X729335Y1298092D01*
X727710Y1299210D01*
X726389Y1300632D01*
X725424Y1302359D01*
X724865Y1304442D01*
X724662Y1306830D01*
X710477Y1306830D01*
X710641Y1304747D01*
X711200Y1302308D01*
X712165Y1300073D01*
X713486Y1297940D01*
X715060Y1296009D01*
X716991Y1294333D01*
X719226Y1292860D01*
X721868Y1291590D01*
X718921Y1290421D01*
X716381Y1288999D01*
X714349Y1287272D01*
X712724Y1285240D01*
X711504Y1282954D01*
X710641Y1280414D01*
X710082Y1277620D01*
X709726Y1266342D01*
X709168Y1263142D01*
X708101Y1260297D01*
X706374Y1258316D01*
X706374Y1257300D01*
X721106Y1257300D01*
X722020Y1258163D01*
X723290Y1260754D01*
X723849Y1264259D01*
X724103Y1267815D01*
X724154Y1274572D01*
X724357Y1277061D01*
X724916Y1279245D01*
X725881Y1281125D01*
X727202Y1282700D01*
X728776Y1284020D01*
X730656Y1284986D01*
X732840Y1285544D01*
X735330Y1285748D01*
X746760Y1285748D01*
X746760Y1257300D01*
X760984Y1257300D01*
X760984Y1328420D01*
G37*
G36*
X1109980Y-1022603D02*
G01*
X1109980Y-1036828D01*
X1141730Y-1036828D01*
X1141577Y-1049731D01*
X1141069Y-1052118D01*
X1140307Y-1054201D01*
X1139190Y-1055878D01*
X1137767Y-1057097D01*
X1136040Y-1057960D01*
X1133957Y-1058519D01*
X1131570Y-1058672D01*
X1129284Y-1058519D01*
X1127252Y-1057960D01*
X1125474Y-1057097D01*
X1123950Y-1055878D01*
X1122629Y-1054201D01*
X1121664Y-1052169D01*
X1121105Y-1049883D01*
X1120902Y-1047242D01*
X1120902Y-1036828D01*
X1109980Y-1036828D01*
X1109980Y-1047242D01*
X1110335Y-1052982D01*
X1111351Y-1058113D01*
X1113129Y-1062532D01*
X1115568Y-1066292D01*
X1118616Y-1069289D01*
X1122222Y-1071422D01*
X1126388Y-1072743D01*
X1131062Y-1073150D01*
X1133652Y-1072946D01*
X1136091Y-1072388D01*
X1138326Y-1071422D01*
X1140460Y-1070102D01*
X1142390Y-1068527D01*
X1144066Y-1066596D01*
X1145540Y-1064361D01*
X1146810Y-1061720D01*
X1147978Y-1064666D01*
X1149400Y-1067104D01*
X1151128Y-1069086D01*
X1153160Y-1070610D01*
X1155446Y-1071829D01*
X1157986Y-1072692D01*
X1160780Y-1073251D01*
X1172057Y-1073607D01*
X1175258Y-1074166D01*
X1178102Y-1075385D01*
X1179220Y-1076096D01*
X1180084Y-1076960D01*
X1181100Y-1076960D01*
X1181100Y-1062228D01*
X1180236Y-1061415D01*
X1179068Y-1060754D01*
X1176020Y-1059942D01*
X1172362Y-1059383D01*
X1161338Y-1059027D01*
X1159154Y-1058468D01*
X1157274Y-1057605D01*
X1155700Y-1056386D01*
X1154379Y-1054709D01*
X1153414Y-1052779D01*
X1152855Y-1050544D01*
X1152652Y-1048003D01*
X1152652Y-1036828D01*
X1181100Y-1036828D01*
X1181100Y-1022603D01*
G37*
G36*
X1138174Y-1084580D02*
G01*
X1131976Y-1085088D01*
X1126439Y-1086561D01*
X1121460Y-1088999D01*
X1117092Y-1092454D01*
X1113536Y-1096772D01*
X1110996Y-1101648D01*
X1109472Y-1107084D01*
X1108964Y-1113028D01*
X1109370Y-1119124D01*
X1110488Y-1124458D01*
X1112418Y-1129030D01*
X1115060Y-1132840D01*
X1118463Y-1135938D01*
X1122375Y-1138123D01*
X1126744Y-1139342D01*
X1131570Y-1139698D01*
X1131824Y-1139444D01*
X1131824Y-1125982D01*
X1129182Y-1125778D01*
X1126845Y-1125220D01*
X1124864Y-1124254D01*
X1123188Y-1122934D01*
X1121765Y-1121105D01*
X1120698Y-1118870D01*
X1120089Y-1116279D01*
X1119886Y-1113282D01*
X1120190Y-1110132D01*
X1121156Y-1107389D01*
X1122730Y-1104950D01*
X1124966Y-1102868D01*
X1127658Y-1101090D01*
X1130757Y-1099820D01*
X1134160Y-1099058D01*
X1137920Y-1098804D01*
X1152906Y-1098804D01*
X1156766Y-1099058D01*
X1160272Y-1099820D01*
X1163370Y-1101090D01*
X1166114Y-1102868D01*
X1168349Y-1105052D01*
X1169924Y-1107643D01*
X1170889Y-1110538D01*
X1171194Y-1113790D01*
X1170940Y-1118362D01*
X1170178Y-1121918D01*
X1169060Y-1124458D01*
X1167638Y-1126490D01*
X1153922Y-1126490D01*
X1153922Y-1112774D01*
X1144016Y-1112774D01*
X1144016Y-1140714D01*
X1171448Y-1140714D01*
X1173530Y-1138834D01*
X1175461Y-1136599D01*
X1177188Y-1133906D01*
X1178814Y-1130808D01*
X1180236Y-1127252D01*
X1181303Y-1123238D01*
X1181912Y-1118768D01*
X1182116Y-1113790D01*
X1181608Y-1107592D01*
X1180084Y-1102055D01*
X1177544Y-1097076D01*
X1173988Y-1092708D01*
X1169619Y-1089152D01*
X1164640Y-1086612D01*
X1159103Y-1085088D01*
X1152906Y-1084580D01*
G37*
G36*
X1109980Y-1152906D02*
G01*
X1109980Y-1167130D01*
X1170178Y-1167130D01*
X1170025Y-1182979D01*
X1169568Y-1185265D01*
X1168755Y-1187297D01*
X1167638Y-1188974D01*
X1166317Y-1190294D01*
X1164640Y-1191260D01*
X1162659Y-1191818D01*
X1160272Y-1192022D01*
X1157884Y-1191818D01*
X1155750Y-1191260D01*
X1153922Y-1190294D01*
X1152398Y-1188974D01*
X1151178Y-1187348D01*
X1150315Y-1185367D01*
X1149756Y-1182928D01*
X1149604Y-1167130D01*
X1139698Y-1167130D01*
X1139545Y-1179271D01*
X1139139Y-1181658D01*
X1138428Y-1183741D01*
X1137412Y-1185418D01*
X1136142Y-1186738D01*
X1134567Y-1187704D01*
X1132687Y-1188262D01*
X1130554Y-1188466D01*
X1128318Y-1188262D01*
X1126388Y-1187704D01*
X1124762Y-1186738D01*
X1123442Y-1185418D01*
X1122324Y-1183690D01*
X1121511Y-1181608D01*
X1121054Y-1179118D01*
X1120902Y-1167130D01*
X1109980Y-1167130D01*
X1109980Y-1176274D01*
X1110284Y-1182166D01*
X1111199Y-1187399D01*
X1112672Y-1191920D01*
X1114806Y-1195832D01*
X1117650Y-1198829D01*
X1121003Y-1200962D01*
X1125016Y-1202283D01*
X1129538Y-1202690D01*
X1131874Y-1202537D01*
X1134110Y-1202029D01*
X1136192Y-1201267D01*
X1138174Y-1200150D01*
X1139952Y-1198727D01*
X1141526Y-1197051D01*
X1142898Y-1195070D01*
X1144016Y-1192784D01*
X1144879Y-1195882D01*
X1146098Y-1198575D01*
X1147775Y-1200810D01*
X1149858Y-1202690D01*
X1152245Y-1204264D01*
X1154734Y-1205331D01*
X1157427Y-1206042D01*
X1160272Y-1206246D01*
X1165148Y-1205839D01*
X1169365Y-1204518D01*
X1172870Y-1202385D01*
X1175766Y-1199388D01*
X1178102Y-1195730D01*
X1179779Y-1191310D01*
X1180744Y-1186180D01*
X1181100Y-1180338D01*
X1181100Y-1152906D01*
G37*
G36*
X1157224Y-1212850D02*
G01*
X1109980Y-1242314D01*
X1128776Y-1242314D01*
X1128776Y-1242060D01*
X1131824Y-1240536D01*
X1154684Y-1225804D01*
X1154684Y-1242314D01*
X1109980Y-1242314D01*
X1109980Y-1256792D01*
X1154684Y-1256792D01*
X1154684Y-1264666D01*
X1165606Y-1264666D01*
X1165606Y-1256792D01*
X1181100Y-1256792D01*
X1181100Y-1242314D01*
X1165606Y-1242314D01*
X1165606Y-1213358D01*
G37*
G36*
X1109980Y1263396D02*
G01*
X1109980Y1249172D01*
X1141730Y1249172D01*
X1141577Y1236268D01*
X1141069Y1233881D01*
X1140307Y1231798D01*
X1139190Y1230122D01*
X1137767Y1228902D01*
X1136040Y1228039D01*
X1133957Y1227480D01*
X1131570Y1227328D01*
X1129284Y1227480D01*
X1127252Y1228039D01*
X1125474Y1228902D01*
X1123950Y1230122D01*
X1122629Y1231798D01*
X1121664Y1233830D01*
X1121105Y1236116D01*
X1120902Y1238758D01*
X1120902Y1249172D01*
X1109980Y1249172D01*
X1109980Y1238758D01*
X1110335Y1233017D01*
X1111351Y1227886D01*
X1113129Y1223467D01*
X1115568Y1219708D01*
X1118616Y1216710D01*
X1122222Y1214577D01*
X1126388Y1213256D01*
X1131062Y1212850D01*
X1133652Y1213053D01*
X1136091Y1213612D01*
X1138326Y1214577D01*
X1140460Y1215898D01*
X1142390Y1217472D01*
X1144066Y1219403D01*
X1145540Y1221638D01*
X1146810Y1224280D01*
X1147978Y1221333D01*
X1149400Y1218895D01*
X1151128Y1216914D01*
X1153160Y1215390D01*
X1155446Y1214170D01*
X1157986Y1213307D01*
X1160780Y1212748D01*
X1172057Y1212392D01*
X1175258Y1211834D01*
X1178102Y1210614D01*
X1179220Y1209903D01*
X1180084Y1209040D01*
X1181100Y1209040D01*
X1181100Y1223772D01*
X1180236Y1224584D01*
X1179068Y1225245D01*
X1176020Y1226058D01*
X1172362Y1226616D01*
X1161338Y1226972D01*
X1159154Y1227531D01*
X1157274Y1228394D01*
X1155700Y1229614D01*
X1154379Y1231290D01*
X1153414Y1233220D01*
X1152855Y1235456D01*
X1152652Y1237996D01*
X1152652Y1249172D01*
X1181100Y1249172D01*
X1181100Y1263396D01*
G37*
G36*
X1138174Y1201420D02*
G01*
X1131976Y1200912D01*
X1126439Y1199438D01*
X1121460Y1197000D01*
X1117092Y1193546D01*
X1113536Y1189228D01*
X1110996Y1184351D01*
X1109472Y1178915D01*
X1108964Y1172972D01*
X1109370Y1166876D01*
X1110488Y1161542D01*
X1112418Y1156970D01*
X1115060Y1153160D01*
X1118463Y1150061D01*
X1122375Y1147876D01*
X1126744Y1146657D01*
X1131570Y1146302D01*
X1131824Y1146556D01*
X1131824Y1160018D01*
X1129182Y1160221D01*
X1126845Y1160780D01*
X1124864Y1161745D01*
X1123188Y1163066D01*
X1121765Y1164894D01*
X1120698Y1167130D01*
X1120089Y1169720D01*
X1119886Y1172718D01*
X1120190Y1175867D01*
X1121156Y1178610D01*
X1122730Y1181049D01*
X1124966Y1183132D01*
X1127658Y1184910D01*
X1130757Y1186180D01*
X1134160Y1186942D01*
X1137920Y1187196D01*
X1152906Y1187196D01*
X1156766Y1186942D01*
X1160272Y1186180D01*
X1163370Y1184910D01*
X1166114Y1183132D01*
X1168349Y1180947D01*
X1169924Y1178356D01*
X1170889Y1175461D01*
X1171194Y1172210D01*
X1170940Y1167638D01*
X1170178Y1164082D01*
X1169060Y1161542D01*
X1167638Y1159510D01*
X1153922Y1159510D01*
X1153922Y1173226D01*
X1144016Y1173226D01*
X1144016Y1145286D01*
X1171448Y1145286D01*
X1173530Y1147165D01*
X1175461Y1149400D01*
X1177188Y1152093D01*
X1178814Y1155192D01*
X1180236Y1158748D01*
X1181303Y1162761D01*
X1181912Y1167231D01*
X1182116Y1172210D01*
X1181608Y1178407D01*
X1180084Y1183944D01*
X1177544Y1188923D01*
X1173988Y1193292D01*
X1169619Y1196848D01*
X1164640Y1199388D01*
X1159103Y1200912D01*
X1152906Y1201420D01*
G37*
G36*
X1109980Y1133094D02*
G01*
X1109980Y1118870D01*
X1170178Y1118870D01*
X1170025Y1103020D01*
X1169568Y1100734D01*
X1168755Y1098702D01*
X1167638Y1097026D01*
X1166317Y1095705D01*
X1164640Y1094740D01*
X1162659Y1094181D01*
X1160272Y1093978D01*
X1157884Y1094181D01*
X1155750Y1094740D01*
X1153922Y1095705D01*
X1152398Y1097026D01*
X1151178Y1098651D01*
X1150315Y1100632D01*
X1149756Y1103071D01*
X1149604Y1118870D01*
X1139698Y1118870D01*
X1139545Y1106728D01*
X1139139Y1104341D01*
X1138428Y1102258D01*
X1137412Y1100582D01*
X1136142Y1099261D01*
X1134567Y1098296D01*
X1132687Y1097737D01*
X1130554Y1097534D01*
X1128318Y1097737D01*
X1126388Y1098296D01*
X1124762Y1099261D01*
X1123442Y1100582D01*
X1122324Y1102309D01*
X1121511Y1104392D01*
X1121054Y1106881D01*
X1120902Y1118870D01*
X1109980Y1118870D01*
X1109980Y1109726D01*
X1110284Y1103833D01*
X1111199Y1098600D01*
X1112672Y1094079D01*
X1114806Y1090168D01*
X1117650Y1087170D01*
X1121003Y1085037D01*
X1125016Y1083716D01*
X1129538Y1083310D01*
X1131874Y1083462D01*
X1134110Y1083970D01*
X1136192Y1084732D01*
X1138174Y1085850D01*
X1139952Y1087272D01*
X1141526Y1088948D01*
X1142898Y1090930D01*
X1144016Y1093216D01*
X1144879Y1090117D01*
X1146098Y1087424D01*
X1147775Y1085189D01*
X1149858Y1083310D01*
X1152245Y1081735D01*
X1154734Y1080668D01*
X1157427Y1079957D01*
X1160272Y1079754D01*
X1165148Y1080160D01*
X1169365Y1081481D01*
X1172870Y1083614D01*
X1175766Y1086612D01*
X1178102Y1090269D01*
X1179779Y1094689D01*
X1180744Y1099820D01*
X1181100Y1105662D01*
X1181100Y1133094D01*
G37*
G36*
X1162050Y1071626D02*
G01*
X1161796Y1071372D01*
X1161796Y1057656D01*
X1163726Y1057503D01*
X1165504Y1056944D01*
X1167028Y1056081D01*
X1168400Y1054862D01*
X1169619Y1053236D01*
X1170482Y1051509D01*
X1171041Y1049578D01*
X1171194Y1047496D01*
X1171041Y1045210D01*
X1170482Y1043127D01*
X1169619Y1041247D01*
X1168400Y1039621D01*
X1166774Y1038301D01*
X1165047Y1037336D01*
X1163116Y1036777D01*
X1161034Y1036574D01*
X1158392Y1036726D01*
X1156157Y1037285D01*
X1154226Y1038148D01*
X1152652Y1039368D01*
X1151534Y1040942D01*
X1150772Y1042873D01*
X1150264Y1045108D01*
X1150112Y1055624D01*
X1139190Y1055624D01*
X1139037Y1045362D01*
X1138529Y1043279D01*
X1137767Y1041552D01*
X1136650Y1040130D01*
X1135227Y1039012D01*
X1133551Y1038250D01*
X1131570Y1037742D01*
X1129284Y1037590D01*
X1127353Y1037742D01*
X1125626Y1038301D01*
X1124051Y1039164D01*
X1121460Y1041755D01*
X1120597Y1043432D01*
X1120038Y1045311D01*
X1119886Y1047496D01*
X1120038Y1049324D01*
X1120546Y1051052D01*
X1121308Y1052626D01*
X1122426Y1054100D01*
X1123645Y1055217D01*
X1125118Y1056030D01*
X1126693Y1056487D01*
X1128522Y1056640D01*
X1128522Y1070610D01*
X1124254Y1070305D01*
X1120597Y1069136D01*
X1117244Y1067155D01*
X1114298Y1064260D01*
X1111961Y1060653D01*
X1110284Y1056640D01*
X1109319Y1052271D01*
X1108964Y1047496D01*
X1109319Y1042314D01*
X1110284Y1037640D01*
X1111961Y1033526D01*
X1114298Y1029969D01*
X1117142Y1027074D01*
X1120495Y1025042D01*
X1124508Y1023772D01*
X1129030Y1023366D01*
X1131417Y1023518D01*
X1133703Y1024077D01*
X1135989Y1024940D01*
X1138174Y1026160D01*
X1140104Y1027785D01*
X1141780Y1029665D01*
X1143254Y1031748D01*
X1144524Y1034034D01*
X1145692Y1031392D01*
X1147114Y1029055D01*
X1148842Y1027074D01*
X1150874Y1025398D01*
X1153160Y1024077D01*
X1155649Y1023112D01*
X1158341Y1022553D01*
X1161288Y1022350D01*
X1165860Y1022807D01*
X1169924Y1024128D01*
X1173480Y1026363D01*
X1176528Y1029462D01*
X1178966Y1033271D01*
X1180693Y1037539D01*
X1181760Y1042263D01*
X1182116Y1047496D01*
X1181760Y1052169D01*
X1180795Y1056589D01*
X1179118Y1060704D01*
X1176782Y1064514D01*
X1173937Y1067714D01*
X1170584Y1070000D01*
X1166571Y1071270D01*
G37*
G36*
X-1181100Y1263396D02*
G01*
X-1181100Y1215644D01*
X-1171702Y1215644D01*
X-1144016Y1240078D01*
X-1139190Y1243634D01*
X-1135176Y1245768D01*
X-1131366Y1246784D01*
X-1127506Y1246733D01*
X-1125677Y1246327D01*
X-1124051Y1245616D01*
X-1121460Y1243431D01*
X-1120597Y1241907D01*
X-1120038Y1240129D01*
X-1119886Y1237996D01*
X-1120089Y1235811D01*
X-1120749Y1233932D01*
X-1121867Y1232255D01*
X-1123442Y1230884D01*
X-1125220Y1229766D01*
X-1127201Y1229004D01*
X-1129385Y1228496D01*
X-1131824Y1228344D01*
X-1131824Y1214374D01*
X-1127048Y1214678D01*
X-1122883Y1215847D01*
X-1119022Y1217828D01*
X-1115568Y1220724D01*
X-1112672Y1224178D01*
X-1110589Y1228242D01*
X-1109370Y1232814D01*
X-1108964Y1237996D01*
X-1109319Y1243177D01*
X-1110386Y1247698D01*
X-1112113Y1251661D01*
X-1114552Y1255014D01*
X-1117600Y1257655D01*
X-1121105Y1259586D01*
X-1125067Y1260754D01*
X-1129538Y1261110D01*
X-1132636Y1260906D01*
X-1135634Y1260297D01*
X-1138478Y1259230D01*
X-1141222Y1257808D01*
X-1147572Y1253134D01*
X-1169924Y1234186D01*
X-1170178Y1234440D01*
X-1170178Y1263396D01*
G37*
G36*
X-1160272Y1206246D02*
G01*
X-1165148Y1205839D01*
X-1169365Y1204518D01*
X-1172870Y1202385D01*
X-1175766Y1199388D01*
X-1178102Y1195730D01*
X-1179779Y1191310D01*
X-1180744Y1186180D01*
X-1181100Y1180338D01*
X-1181100Y1167130D01*
X-1170178Y1167130D01*
X-1170025Y1182979D01*
X-1169568Y1185265D01*
X-1168755Y1187297D01*
X-1167638Y1188974D01*
X-1166317Y1190294D01*
X-1164640Y1191260D01*
X-1162659Y1191818D01*
X-1160272Y1192022D01*
X-1157884Y1191818D01*
X-1155750Y1191260D01*
X-1153922Y1190294D01*
X-1152398Y1188974D01*
X-1151178Y1187348D01*
X-1150315Y1185367D01*
X-1149756Y1182928D01*
X-1149604Y1167130D01*
X-1139698Y1167130D01*
X-1139545Y1179271D01*
X-1139139Y1181658D01*
X-1138428Y1183741D01*
X-1137412Y1185418D01*
X-1136142Y1186738D01*
X-1134567Y1187704D01*
X-1132687Y1188262D01*
X-1130554Y1188466D01*
X-1128318Y1188262D01*
X-1126388Y1187704D01*
X-1124762Y1186738D01*
X-1123442Y1185418D01*
X-1122324Y1183690D01*
X-1121511Y1181608D01*
X-1121054Y1179118D01*
X-1120902Y1167130D01*
X-1181100Y1167130D01*
X-1181100Y1152906D01*
X-1109980Y1152906D01*
X-1109980Y1176274D01*
X-1110284Y1182166D01*
X-1111199Y1187399D01*
X-1112672Y1191920D01*
X-1114806Y1195832D01*
X-1117650Y1198829D01*
X-1121003Y1200962D01*
X-1125016Y1202283D01*
X-1129538Y1202690D01*
X-1131874Y1202537D01*
X-1134110Y1202029D01*
X-1136192Y1201267D01*
X-1138174Y1200150D01*
X-1139952Y1198727D01*
X-1141526Y1197051D01*
X-1142898Y1195070D01*
X-1144016Y1192784D01*
X-1144879Y1195882D01*
X-1146098Y1198575D01*
X-1147775Y1200810D01*
X-1149858Y1202690D01*
X-1152245Y1204264D01*
X-1154734Y1205331D01*
X-1157427Y1206042D01*
G37*
G36*
X-1171448Y1140714D02*
G01*
X-1173530Y1138834D01*
X-1175461Y1136599D01*
X-1177188Y1133906D01*
X-1178814Y1130808D01*
X-1180236Y1127252D01*
X-1181303Y1123238D01*
X-1181912Y1118768D01*
X-1182116Y1113790D01*
X-1181608Y1107592D01*
X-1180084Y1102055D01*
X-1177544Y1097076D01*
X-1173988Y1092708D01*
X-1169619Y1089152D01*
X-1164640Y1086612D01*
X-1159103Y1085088D01*
X-1152906Y1084580D01*
X-1138174Y1084580D01*
X-1131976Y1085088D01*
X-1126439Y1086561D01*
X-1121460Y1088999D01*
X-1117092Y1092454D01*
X-1113536Y1096772D01*
X-1110996Y1101648D01*
X-1109472Y1107084D01*
X-1108964Y1113028D01*
X-1109370Y1119124D01*
X-1110488Y1124458D01*
X-1112418Y1129030D01*
X-1115060Y1132840D01*
X-1118463Y1135938D01*
X-1122375Y1138123D01*
X-1126744Y1139342D01*
X-1131570Y1139698D01*
X-1131824Y1139444D01*
X-1131824Y1125982D01*
X-1129182Y1125778D01*
X-1126845Y1125220D01*
X-1124864Y1124254D01*
X-1123188Y1122934D01*
X-1121765Y1121105D01*
X-1120698Y1118870D01*
X-1120089Y1116279D01*
X-1119886Y1113282D01*
X-1120190Y1110132D01*
X-1121156Y1107389D01*
X-1122730Y1104950D01*
X-1124966Y1102868D01*
X-1127658Y1101090D01*
X-1130757Y1099820D01*
X-1134160Y1099058D01*
X-1137920Y1098804D01*
X-1152906Y1098804D01*
X-1156766Y1099058D01*
X-1160272Y1099820D01*
X-1163370Y1101090D01*
X-1166114Y1102868D01*
X-1168349Y1105052D01*
X-1169924Y1107643D01*
X-1170889Y1110538D01*
X-1171194Y1113790D01*
X-1170940Y1118362D01*
X-1170178Y1121918D01*
X-1169060Y1124458D01*
X-1167638Y1126490D01*
X-1153922Y1126490D01*
X-1153922Y1112774D01*
X-1144016Y1112774D01*
X-1144016Y1140714D01*
G37*
G36*
X-1181100Y1076960D02*
G01*
X-1181100Y1062228D01*
X-1180236Y1061415D01*
X-1179068Y1060754D01*
X-1176020Y1059942D01*
X-1172362Y1059383D01*
X-1161338Y1059027D01*
X-1159154Y1058468D01*
X-1157274Y1057605D01*
X-1155700Y1056386D01*
X-1154379Y1054709D01*
X-1153414Y1052779D01*
X-1152855Y1050544D01*
X-1152652Y1048003D01*
X-1152652Y1036828D01*
X-1141730Y1036828D01*
X-1141577Y1049731D01*
X-1141069Y1052118D01*
X-1140307Y1054201D01*
X-1139190Y1055878D01*
X-1137767Y1057097D01*
X-1136040Y1057960D01*
X-1133957Y1058519D01*
X-1131570Y1058672D01*
X-1129284Y1058519D01*
X-1127252Y1057960D01*
X-1125474Y1057097D01*
X-1123950Y1055878D01*
X-1122629Y1054201D01*
X-1121664Y1052169D01*
X-1121105Y1049883D01*
X-1120902Y1047242D01*
X-1120902Y1036828D01*
X-1181100Y1036828D01*
X-1181100Y1022603D01*
X-1109980Y1022603D01*
X-1109980Y1047242D01*
X-1110335Y1052982D01*
X-1111351Y1058113D01*
X-1113129Y1062532D01*
X-1115568Y1066292D01*
X-1118616Y1069289D01*
X-1122222Y1071422D01*
X-1126388Y1072743D01*
X-1131062Y1073150D01*
X-1133652Y1072946D01*
X-1136091Y1072388D01*
X-1138326Y1071422D01*
X-1140460Y1070102D01*
X-1142390Y1068527D01*
X-1144066Y1066596D01*
X-1145540Y1064361D01*
X-1146810Y1061720D01*
X-1147978Y1064666D01*
X-1149400Y1067104D01*
X-1151128Y1069086D01*
X-1153160Y1070610D01*
X-1155446Y1071829D01*
X-1157986Y1072692D01*
X-1160780Y1073251D01*
X-1172057Y1073607D01*
X-1175258Y1074166D01*
X-1178102Y1075385D01*
X-1179220Y1076096D01*
X-1180084Y1076960D01*
G37*
G36*
X-1181100Y-1037082D02*
G01*
X-1181100Y-1051306D01*
X-1122426Y-1051306D01*
X-1122426Y-1066038D01*
X-1111504Y-1066038D01*
X-1108964Y-1037082D01*
G37*
G36*
X-1160272Y-1079754D02*
G01*
X-1165148Y-1080160D01*
X-1169365Y-1081481D01*
X-1172870Y-1083614D01*
X-1175766Y-1086612D01*
X-1178102Y-1090269D01*
X-1179779Y-1094689D01*
X-1180744Y-1099820D01*
X-1181100Y-1105662D01*
X-1181100Y-1118870D01*
X-1170178Y-1118870D01*
X-1170025Y-1103020D01*
X-1169568Y-1100734D01*
X-1168755Y-1098702D01*
X-1167638Y-1097026D01*
X-1166317Y-1095705D01*
X-1164640Y-1094740D01*
X-1162659Y-1094181D01*
X-1160272Y-1093978D01*
X-1157884Y-1094181D01*
X-1155750Y-1094740D01*
X-1153922Y-1095705D01*
X-1152398Y-1097026D01*
X-1151178Y-1098651D01*
X-1150315Y-1100632D01*
X-1149756Y-1103071D01*
X-1149604Y-1118870D01*
X-1139698Y-1118870D01*
X-1139545Y-1106728D01*
X-1139139Y-1104341D01*
X-1138428Y-1102258D01*
X-1137412Y-1100582D01*
X-1136142Y-1099261D01*
X-1134567Y-1098296D01*
X-1132687Y-1097737D01*
X-1130554Y-1097534D01*
X-1128318Y-1097737D01*
X-1126388Y-1098296D01*
X-1124762Y-1099261D01*
X-1123442Y-1100582D01*
X-1122324Y-1102309D01*
X-1121511Y-1104392D01*
X-1121054Y-1106881D01*
X-1120902Y-1118870D01*
X-1181100Y-1118870D01*
X-1181100Y-1133094D01*
X-1109980Y-1133094D01*
X-1109980Y-1109726D01*
X-1110284Y-1103833D01*
X-1111199Y-1098600D01*
X-1112672Y-1094079D01*
X-1114806Y-1090168D01*
X-1117650Y-1087170D01*
X-1121003Y-1085037D01*
X-1125016Y-1083716D01*
X-1129538Y-1083310D01*
X-1131874Y-1083462D01*
X-1134110Y-1083970D01*
X-1136192Y-1084732D01*
X-1138174Y-1085850D01*
X-1139952Y-1087272D01*
X-1141526Y-1088948D01*
X-1142898Y-1090930D01*
X-1144016Y-1093216D01*
X-1144879Y-1090117D01*
X-1146098Y-1087424D01*
X-1147775Y-1085189D01*
X-1149858Y-1083310D01*
X-1152245Y-1081735D01*
X-1154734Y-1080668D01*
X-1157427Y-1079957D01*
G37*
G36*
X-1171448Y-1145286D02*
G01*
X-1173530Y-1147165D01*
X-1175461Y-1149400D01*
X-1177188Y-1152093D01*
X-1178814Y-1155192D01*
X-1180236Y-1158748D01*
X-1181303Y-1162761D01*
X-1181912Y-1167231D01*
X-1182116Y-1172210D01*
X-1181608Y-1178407D01*
X-1180084Y-1183944D01*
X-1177544Y-1188923D01*
X-1173988Y-1193292D01*
X-1169619Y-1196848D01*
X-1164640Y-1199388D01*
X-1159103Y-1200912D01*
X-1152906Y-1201420D01*
X-1138174Y-1201420D01*
X-1131976Y-1200912D01*
X-1126439Y-1199438D01*
X-1121460Y-1197000D01*
X-1117092Y-1193546D01*
X-1113536Y-1189228D01*
X-1110996Y-1184351D01*
X-1109472Y-1178915D01*
X-1108964Y-1172972D01*
X-1109370Y-1166876D01*
X-1110488Y-1161542D01*
X-1112418Y-1156970D01*
X-1115060Y-1153160D01*
X-1118463Y-1150061D01*
X-1122375Y-1147876D01*
X-1126744Y-1146657D01*
X-1131570Y-1146302D01*
X-1131824Y-1146556D01*
X-1131824Y-1160018D01*
X-1129182Y-1160221D01*
X-1126845Y-1160780D01*
X-1124864Y-1161745D01*
X-1123188Y-1163066D01*
X-1121765Y-1164894D01*
X-1120698Y-1167130D01*
X-1120089Y-1169720D01*
X-1119886Y-1172718D01*
X-1120190Y-1175867D01*
X-1121156Y-1178610D01*
X-1122730Y-1181049D01*
X-1124966Y-1183132D01*
X-1127658Y-1184910D01*
X-1130757Y-1186180D01*
X-1134160Y-1186942D01*
X-1137920Y-1187196D01*
X-1152906Y-1187196D01*
X-1156766Y-1186942D01*
X-1160272Y-1186180D01*
X-1163370Y-1184910D01*
X-1166114Y-1183132D01*
X-1168349Y-1180947D01*
X-1169924Y-1178356D01*
X-1170889Y-1175461D01*
X-1171194Y-1172210D01*
X-1170940Y-1167638D01*
X-1170178Y-1164082D01*
X-1169060Y-1161542D01*
X-1167638Y-1159510D01*
X-1153922Y-1159510D01*
X-1153922Y-1173226D01*
X-1144016Y-1173226D01*
X-1144016Y-1145286D01*
G37*
G36*
X-1181100Y-1209040D02*
G01*
X-1181100Y-1223772D01*
X-1180236Y-1224584D01*
X-1179068Y-1225245D01*
X-1176020Y-1226058D01*
X-1172362Y-1226616D01*
X-1161338Y-1226972D01*
X-1159154Y-1227531D01*
X-1157274Y-1228394D01*
X-1155700Y-1229614D01*
X-1154379Y-1231290D01*
X-1153414Y-1233220D01*
X-1152855Y-1235456D01*
X-1152652Y-1237996D01*
X-1152652Y-1249172D01*
X-1141730Y-1249172D01*
X-1141577Y-1236268D01*
X-1141069Y-1233881D01*
X-1140307Y-1231798D01*
X-1139190Y-1230122D01*
X-1137767Y-1228902D01*
X-1136040Y-1228039D01*
X-1133957Y-1227480D01*
X-1131570Y-1227328D01*
X-1129284Y-1227480D01*
X-1127252Y-1228039D01*
X-1125474Y-1228902D01*
X-1123950Y-1230122D01*
X-1122629Y-1231798D01*
X-1121664Y-1233830D01*
X-1121105Y-1236116D01*
X-1120902Y-1238758D01*
X-1120902Y-1249172D01*
X-1181100Y-1249172D01*
X-1181100Y-1263396D01*
X-1109980Y-1263396D01*
X-1109980Y-1238758D01*
X-1110335Y-1233017D01*
X-1111351Y-1227886D01*
X-1113129Y-1223467D01*
X-1115568Y-1219708D01*
X-1118616Y-1216710D01*
X-1122222Y-1214577D01*
X-1126388Y-1213256D01*
X-1131062Y-1212850D01*
X-1133652Y-1213053D01*
X-1136091Y-1213612D01*
X-1138326Y-1214577D01*
X-1140460Y-1215898D01*
X-1142390Y-1217472D01*
X-1144066Y-1219403D01*
X-1145540Y-1221638D01*
X-1146810Y-1224280D01*
X-1147978Y-1221333D01*
X-1149400Y-1218895D01*
X-1151128Y-1216914D01*
X-1153160Y-1215390D01*
X-1155446Y-1214170D01*
X-1157986Y-1213307D01*
X-1160780Y-1212748D01*
X-1172057Y-1212392D01*
X-1175258Y-1211834D01*
X-1178102Y-1210614D01*
X-1179220Y-1209903D01*
X-1180084Y-1209040D01*
G37*
G36*
X-1131824Y569874D02*
G01*
X-1146911Y567232D01*
X-1159002Y559460D01*
X-1167028Y547624D01*
X-1169670Y532536D01*
X-1155700Y532536D01*
X-1155293Y536956D01*
X-1154074Y540816D01*
X-1151991Y544169D01*
X-1149096Y547014D01*
X-1145540Y549198D01*
X-1141476Y550824D01*
X-1136904Y551738D01*
X-1131824Y552094D01*
X-1115822Y552094D01*
X-1110894Y551738D01*
X-1106373Y550722D01*
X-1102360Y549046D01*
X-1098804Y546760D01*
X-1095908Y543966D01*
X-1093876Y540664D01*
X-1092606Y536854D01*
X-1092200Y532536D01*
X-1092606Y528218D01*
X-1093876Y524459D01*
X-1095908Y521208D01*
X-1098804Y518566D01*
X-1102360Y516331D01*
X-1106373Y514756D01*
X-1110894Y513791D01*
X-1115822Y513486D01*
X-1131824Y513486D01*
X-1136904Y513791D01*
X-1141476Y514756D01*
X-1145540Y516331D01*
X-1149096Y518566D01*
X-1151991Y521309D01*
X-1154074Y524560D01*
X-1155293Y528320D01*
X-1155700Y532536D01*
X-1169670Y532536D01*
X-1167028Y517702D01*
X-1159002Y505866D01*
X-1146911Y498246D01*
X-1131824Y495706D01*
X-1116076Y495706D01*
X-1101039Y498246D01*
X-1088898Y505866D01*
X-1080922Y517601D01*
X-1078230Y532536D01*
X-1080922Y547522D01*
X-1088898Y559460D01*
X-1101039Y567232D01*
X-1116076Y569874D01*
G37*
G36*
X-1168400Y486308D02*
G01*
X-1168400Y468020D01*
X-1167231Y466851D01*
X-1165758Y465988D01*
X-1163929Y465328D01*
X-1157478Y464362D01*
X-1146810Y464210D01*
X-1143711Y463956D01*
X-1140968Y463296D01*
X-1138631Y462178D01*
X-1136650Y460654D01*
X-1135024Y458571D01*
X-1133805Y456133D01*
X-1133094Y453339D01*
X-1132840Y450240D01*
X-1132840Y436016D01*
X-1119124Y436016D01*
X-1118971Y452272D01*
X-1118362Y455320D01*
X-1117447Y457860D01*
X-1116076Y459892D01*
X-1114247Y461416D01*
X-1112113Y462534D01*
X-1109573Y463194D01*
X-1106678Y463448D01*
X-1103680Y463194D01*
X-1101039Y462534D01*
X-1098753Y461416D01*
X-1096772Y459892D01*
X-1095248Y457758D01*
X-1094130Y455218D01*
X-1093470Y452272D01*
X-1093216Y448970D01*
X-1093216Y436016D01*
X-1168400Y436016D01*
X-1168400Y418236D01*
X-1079500Y418236D01*
X-1079500Y448970D01*
X-1081227Y462534D01*
X-1086358Y472846D01*
X-1090269Y476605D01*
X-1094740Y479298D01*
X-1099921Y480923D01*
X-1105662Y481482D01*
X-1109014Y481228D01*
X-1112113Y480517D01*
X-1114958Y479298D01*
X-1117600Y477672D01*
X-1119936Y475640D01*
X-1122019Y473252D01*
X-1123848Y470458D01*
X-1125474Y467258D01*
X-1126947Y470865D01*
X-1128725Y473964D01*
X-1130858Y476453D01*
X-1133348Y478434D01*
X-1136192Y479958D01*
X-1139393Y481076D01*
X-1142949Y481736D01*
X-1146810Y481990D01*
X-1155242Y482041D01*
X-1159052Y482549D01*
X-1162964Y483565D01*
X-1166012Y485241D01*
X-1167130Y486308D01*
G37*
G36*
X-1139444Y405536D02*
G01*
X-1152093Y403504D01*
X-1161542Y396900D01*
X-1167638Y386283D01*
X-1169670Y372262D01*
X-1167079Y357784D01*
X-1159256Y346354D01*
X-1147572Y339090D01*
X-1132840Y336702D01*
X-1115060Y336702D01*
X-1100328Y339039D01*
X-1088644Y346100D01*
X-1080871Y357174D01*
X-1078230Y371246D01*
X-1080211Y385724D01*
X-1086104Y396646D01*
X-1095654Y403402D01*
X-1108964Y405536D01*
X-1108964Y388264D01*
X-1104950Y387959D01*
X-1101496Y387146D01*
X-1098600Y385826D01*
X-1096264Y383946D01*
X-1094384Y381609D01*
X-1093063Y378714D01*
X-1092250Y375259D01*
X-1091946Y371246D01*
X-1092352Y367487D01*
X-1093571Y364185D01*
X-1095552Y361289D01*
X-1098296Y358800D01*
X-1101852Y356870D01*
X-1105814Y355549D01*
X-1110234Y354736D01*
X-1115060Y354482D01*
X-1132840Y354482D01*
X-1137716Y354736D01*
X-1142136Y355600D01*
X-1146098Y357022D01*
X-1149604Y359054D01*
X-1152398Y361645D01*
X-1154379Y364744D01*
X-1155598Y368249D01*
X-1155954Y372262D01*
X-1155700Y375920D01*
X-1154938Y379171D01*
X-1153668Y381914D01*
X-1151890Y384200D01*
X-1149502Y385826D01*
X-1146505Y387045D01*
X-1143000Y387756D01*
X-1138936Y388010D01*
X-1138936Y405282D01*
G37*
G36*
X-1168400Y321208D02*
G01*
X-1168400Y303174D01*
X-1079500Y303174D01*
X-1079500Y321208D01*
G37*
G36*
X-1168400Y285648D02*
G01*
X-1168400Y267868D01*
X-1107694Y267868D01*
X-1107694Y267614D01*
X-1168400Y245516D01*
X-1168400Y233578D01*
X-1107440Y211480D01*
X-1107694Y211226D01*
X-1168400Y211226D01*
X-1168400Y193192D01*
X-1079500Y193192D01*
X-1079500Y216560D01*
X-1145032Y239166D01*
X-1145032Y239674D01*
X-1079500Y262534D01*
X-1079500Y285648D01*
G37*
G36*
X-1168400Y148996D02*
G01*
X-1168400Y89306D01*
X-1156716Y89306D01*
X-1125474Y116992D01*
X-1118870Y122174D01*
X-1113282Y125628D01*
X-1110843Y126847D01*
X-1108456Y127711D01*
X-1106271Y128219D01*
X-1104138Y128422D01*
X-1101496Y128219D01*
X-1099159Y127711D01*
X-1097076Y126847D01*
X-1095248Y125628D01*
X-1093825Y124053D01*
X-1092809Y122123D01*
X-1092149Y119837D01*
X-1091946Y117246D01*
X-1092250Y114452D01*
X-1093063Y112064D01*
X-1094384Y110032D01*
X-1096264Y108356D01*
X-1098448Y106883D01*
X-1100988Y105867D01*
X-1103782Y105257D01*
X-1106932Y105054D01*
X-1106932Y87782D01*
X-1100785Y88138D01*
X-1095603Y89560D01*
X-1090777Y91948D01*
X-1086358Y95402D01*
X-1082802Y99771D01*
X-1080262Y104902D01*
X-1078738Y110693D01*
X-1078230Y117246D01*
X-1078687Y123698D01*
X-1080008Y129438D01*
X-1082243Y134366D01*
X-1085342Y138582D01*
X-1089101Y141884D01*
X-1093419Y144272D01*
X-1098346Y145694D01*
X-1103884Y146202D01*
X-1107846Y145897D01*
X-1111656Y145084D01*
X-1115212Y143764D01*
X-1118616Y141884D01*
X-1122273Y139344D01*
X-1131417Y131978D01*
X-1136904Y127152D01*
X-1154430Y112674D01*
X-1154684Y112674D01*
X-1154684Y148996D01*
G37*
G36*
X-1143508Y77622D02*
G01*
X-1149299Y77063D01*
X-1154379Y75387D01*
X-1158798Y72593D01*
X-1162558Y68732D01*
X-1165707Y63957D01*
X-1167892Y58623D01*
X-1169263Y52679D01*
X-1169670Y46126D01*
X-1169263Y40182D01*
X-1168044Y34696D01*
X-1165961Y29514D01*
X-1163066Y24790D01*
X-1159459Y20878D01*
X-1155141Y18186D01*
X-1150162Y16560D01*
X-1144270Y16154D01*
X-1144270Y33680D01*
X-1146606Y33883D01*
X-1148791Y34493D01*
X-1150823Y35509D01*
X-1152652Y36982D01*
X-1154125Y38862D01*
X-1155141Y41046D01*
X-1155750Y43434D01*
X-1155954Y46126D01*
X-1155750Y49022D01*
X-1155090Y51612D01*
X-1153972Y53949D01*
X-1152398Y56032D01*
X-1150518Y57658D01*
X-1148334Y58877D01*
X-1145946Y59588D01*
X-1143254Y59842D01*
X-1140053Y59588D01*
X-1137259Y58928D01*
X-1134821Y57810D01*
X-1132840Y56286D01*
X-1131417Y54254D01*
X-1130401Y51866D01*
X-1129741Y49072D01*
X-1129538Y45872D01*
X-1129538Y35966D01*
X-1116076Y35966D01*
X-1116076Y45872D01*
X-1115872Y48818D01*
X-1115263Y51358D01*
X-1114247Y53492D01*
X-1112774Y55270D01*
X-1110996Y56591D01*
X-1108862Y57556D01*
X-1106424Y58115D01*
X-1103630Y58318D01*
X-1101242Y58115D01*
X-1099007Y57556D01*
X-1097026Y56591D01*
X-1095248Y55270D01*
X-1093825Y53441D01*
X-1092809Y51308D01*
X-1092149Y48869D01*
X-1091946Y46126D01*
X-1092149Y43789D01*
X-1092708Y41656D01*
X-1093673Y39725D01*
X-1094994Y37998D01*
X-1096619Y36525D01*
X-1098448Y35509D01*
X-1100429Y34899D01*
X-1102614Y34696D01*
X-1102614Y17424D01*
X-1102106Y17170D01*
X-1097178Y17576D01*
X-1092657Y19050D01*
X-1088644Y21640D01*
X-1085088Y25298D01*
X-1082090Y29718D01*
X-1079957Y34696D01*
X-1078687Y40132D01*
X-1078230Y46126D01*
X-1078636Y52628D01*
X-1079906Y58419D01*
X-1081938Y63550D01*
X-1084834Y67970D01*
X-1088390Y71526D01*
X-1092657Y74066D01*
X-1097686Y75590D01*
X-1103376Y76098D01*
X-1106373Y75844D01*
X-1109218Y75184D01*
X-1111961Y74066D01*
X-1114552Y72542D01*
X-1116990Y70713D01*
X-1119124Y68529D01*
X-1121054Y65989D01*
X-1122680Y63144D01*
X-1124153Y66344D01*
X-1125931Y69240D01*
X-1128064Y71678D01*
X-1130554Y73812D01*
X-1133398Y75438D01*
X-1136497Y76657D01*
X-1139850Y77368D01*
G37*
G36*
X-1107948Y5994D02*
G01*
X-1113993Y5435D01*
X-1119479Y3759D01*
X-1124305Y965D01*
X-1128522Y-2895D01*
X-1134262Y-13258D01*
X-1136142Y-27025D01*
X-1136142Y-43027D01*
X-1122426Y-43027D01*
X-1122426Y-27025D01*
X-1122172Y-23469D01*
X-1121410Y-20370D01*
X-1120140Y-17780D01*
X-1118362Y-15595D01*
X-1116228Y-13970D01*
X-1113739Y-12750D01*
X-1110996Y-12039D01*
X-1107948Y-11785D01*
X-1104950Y-12039D01*
X-1102207Y-12750D01*
X-1099718Y-13970D01*
X-1097534Y-15595D01*
X-1095654Y-17780D01*
X-1094333Y-20370D01*
X-1093520Y-23469D01*
X-1093216Y-27025D01*
X-1093216Y-43027D01*
X-1168400Y-43027D01*
X-1168400Y-60807D01*
X-1079500Y-60807D01*
X-1079500Y-27025D01*
X-1081481Y-13258D01*
X-1087374Y-2895D01*
X-1091641Y965D01*
X-1096467Y3759D01*
X-1101902Y5435D01*
G37*
G36*
X-1145032Y-74015D02*
G01*
X-1150467Y-74574D01*
X-1155293Y-76250D01*
X-1159459Y-79044D01*
X-1163066Y-82905D01*
X-1168044Y-93268D01*
X-1169670Y-106527D01*
X-1167892Y-119837D01*
X-1162558Y-131165D01*
X-1153668Y-138734D01*
X-1140968Y-141071D01*
X-1140968Y-123799D01*
X-1144676Y-123545D01*
X-1147775Y-122631D01*
X-1150366Y-121107D01*
X-1152398Y-118973D01*
X-1154074Y-116484D01*
X-1155293Y-113588D01*
X-1156004Y-110286D01*
X-1156208Y-106527D01*
X-1156055Y-103225D01*
X-1155446Y-100279D01*
X-1154531Y-97739D01*
X-1153160Y-95605D01*
X-1151534Y-93980D01*
X-1149705Y-92760D01*
X-1147622Y-92049D01*
X-1145286Y-91795D01*
X-1142796Y-92049D01*
X-1140561Y-92710D01*
X-1138580Y-93827D01*
X-1136904Y-95351D01*
X-1135430Y-97485D01*
X-1133957Y-100330D01*
X-1132484Y-103835D01*
X-1126083Y-121513D01*
X-1120140Y-131419D01*
X-1116736Y-134874D01*
X-1112723Y-137363D01*
X-1108202Y-138836D01*
X-1103122Y-139293D01*
X-1097940Y-138785D01*
X-1093165Y-137109D01*
X-1088898Y-134315D01*
X-1085088Y-130403D01*
X-1082090Y-125577D01*
X-1079957Y-120142D01*
X-1078687Y-114147D01*
X-1078230Y-107543D01*
X-1080109Y-94081D01*
X-1085596Y-83667D01*
X-1089710Y-79705D01*
X-1094333Y-76962D01*
X-1099464Y-75387D01*
X-1105662Y-75031D01*
X-1105662Y-92303D01*
X-1102461Y-92557D01*
X-1099667Y-93319D01*
X-1097229Y-94589D01*
X-1095248Y-96367D01*
X-1093724Y-98602D01*
X-1092606Y-101193D01*
X-1091946Y-104190D01*
X-1091692Y-107543D01*
X-1091895Y-110693D01*
X-1092555Y-113487D01*
X-1093571Y-115925D01*
X-1094994Y-117957D01*
X-1096670Y-119532D01*
X-1098550Y-120650D01*
X-1100734Y-121310D01*
X-1103122Y-121513D01*
X-1105306Y-121259D01*
X-1107287Y-120497D01*
X-1109014Y-119227D01*
X-1110488Y-117449D01*
X-1111910Y-115214D01*
X-1113434Y-112217D01*
X-1121359Y-91186D01*
X-1127506Y-81635D01*
X-1131112Y-78333D01*
X-1135227Y-75946D01*
X-1139850Y-74523D01*
G37*
G36*
X-1168400Y-150723D02*
G01*
X-1168400Y-207619D01*
X-1079500Y-207619D01*
X-1079500Y-150723D01*
X-1093216Y-150723D01*
X-1093216Y-189839D01*
X-1115568Y-189839D01*
X-1115568Y-156819D01*
X-1129284Y-156819D01*
X-1129284Y-189839D01*
X-1154684Y-189839D01*
X-1154684Y-150723D01*
G37*
G36*
X128778Y-1045464D02*
G01*
X123088Y-1045819D01*
X118059Y-1046987D01*
X113588Y-1048918D01*
X109728Y-1051560D01*
X106629Y-1054709D01*
X104444Y-1058367D01*
X103225Y-1062482D01*
X102870Y-1067308D01*
X116585Y-1067308D01*
X116789Y-1064818D01*
X117398Y-1062634D01*
X118465Y-1060754D01*
X119887Y-1059180D01*
X121716Y-1057960D01*
X123850Y-1057097D01*
X126288Y-1056538D01*
X129032Y-1056386D01*
X131470Y-1056538D01*
X133604Y-1057046D01*
X135534Y-1057808D01*
X137160Y-1058926D01*
X138379Y-1060297D01*
X139242Y-1061770D01*
X139801Y-1063447D01*
X139954Y-1065276D01*
X139750Y-1067104D01*
X139192Y-1068730D01*
X138226Y-1070152D01*
X136906Y-1071372D01*
X132537Y-1073708D01*
X125983Y-1076198D01*
X120497Y-1077976D01*
X115671Y-1080008D01*
X111607Y-1082294D01*
X108204Y-1084834D01*
X105562Y-1087729D01*
X103632Y-1091031D01*
X102463Y-1094841D01*
X102108Y-1099058D01*
X102565Y-1103376D01*
X103885Y-1107186D01*
X106121Y-1110488D01*
X109220Y-1113282D01*
X113080Y-1115618D01*
X117500Y-1117295D01*
X122478Y-1118260D01*
X128016Y-1118616D01*
X133553Y-1118260D01*
X138684Y-1117193D01*
X143459Y-1115466D01*
X147828Y-1113028D01*
X151384Y-1109776D01*
X153873Y-1105763D01*
X155295Y-1101140D01*
X155702Y-1095502D01*
X141732Y-1095502D01*
X141528Y-1098448D01*
X140868Y-1101039D01*
X139750Y-1103172D01*
X138176Y-1104900D01*
X136093Y-1106220D01*
X133756Y-1107186D01*
X131013Y-1107744D01*
X128016Y-1107948D01*
X125374Y-1107795D01*
X123088Y-1107338D01*
X121056Y-1106525D01*
X119380Y-1105408D01*
X118059Y-1104138D01*
X117094Y-1102664D01*
X116535Y-1100988D01*
X116332Y-1099058D01*
X116484Y-1097127D01*
X117043Y-1095349D01*
X117906Y-1093825D01*
X119126Y-1092454D01*
X120802Y-1091234D01*
X123088Y-1090015D01*
X135026Y-1085900D01*
X140004Y-1083767D01*
X144272Y-1081430D01*
X147828Y-1078992D01*
X150622Y-1076248D01*
X152603Y-1073048D01*
X153771Y-1069390D01*
X154178Y-1065276D01*
X153720Y-1061161D01*
X152400Y-1057402D01*
X150164Y-1054049D01*
X147066Y-1051052D01*
X143256Y-1048613D01*
X138938Y-1046886D01*
X134112Y-1045819D01*
G37*
G36*
X165608Y-1046480D02*
G01*
X165608Y-1092962D01*
X166116Y-1098702D01*
X167640Y-1103782D01*
X170180Y-1108100D01*
X173736Y-1111758D01*
X177952Y-1114755D01*
X182829Y-1116888D01*
X188264Y-1118209D01*
X194310Y-1118616D01*
X200355Y-1118209D01*
X205790Y-1116888D01*
X210667Y-1114755D01*
X214884Y-1111758D01*
X218338Y-1108100D01*
X220776Y-1103782D01*
X222250Y-1098702D01*
X222758Y-1092962D01*
X222758Y-1046480D01*
X208534Y-1046480D01*
X208534Y-1092962D01*
X208279Y-1096314D01*
X207568Y-1099261D01*
X206400Y-1101750D01*
X204724Y-1103884D01*
X202641Y-1105560D01*
X200202Y-1106728D01*
X197459Y-1107440D01*
X194310Y-1107694D01*
X191160Y-1107440D01*
X188417Y-1106728D01*
X185978Y-1105560D01*
X183896Y-1103884D01*
X182219Y-1101750D01*
X181051Y-1099261D01*
X180340Y-1096314D01*
X180086Y-1092962D01*
X180086Y-1046480D01*
G37*
G36*
X45974Y-1046480D02*
G01*
X45974Y-1057402D01*
X77216Y-1057402D01*
X77216Y-1075436D01*
X50800Y-1075436D01*
X50800Y-1086358D01*
X77216Y-1086358D01*
X77216Y-1106678D01*
X45974Y-1106678D01*
X45974Y-1117600D01*
X91440Y-1117600D01*
X91440Y-1046480D01*
G37*
G36*
X11430Y-1046480D02*
G01*
X5689Y-1046835D01*
X558Y-1047851D01*
X-3860Y-1049629D01*
X-7620Y-1052068D01*
X-10617Y-1055116D01*
X-12750Y-1058722D01*
X-14071Y-1062888D01*
X-14448Y-1068070D01*
X-254Y-1068070D01*
X-101Y-1065784D01*
X457Y-1063752D01*
X1320Y-1061974D01*
X2540Y-1060450D01*
X4216Y-1059129D01*
X6299Y-1058164D01*
X8686Y-1057605D01*
X11430Y-1057402D01*
X21590Y-1057402D01*
X21590Y-1078230D01*
X8839Y-1078077D01*
X6350Y-1077569D01*
X4267Y-1076807D01*
X2540Y-1075690D01*
X1320Y-1074267D01*
X457Y-1072540D01*
X-101Y-1070457D01*
X-254Y-1068070D01*
X-14448Y-1068070D01*
X-14325Y-1070152D01*
X-13766Y-1072591D01*
X-12903Y-1074826D01*
X-11684Y-1076960D01*
X-10007Y-1078890D01*
X-8077Y-1080566D01*
X-5842Y-1082040D01*
X-3302Y-1083310D01*
X-6146Y-1084478D01*
X-8585Y-1085900D01*
X-10566Y-1087628D01*
X-12192Y-1089660D01*
X-13411Y-1091946D01*
X-14274Y-1094486D01*
X-14833Y-1097280D01*
X-15189Y-1108557D01*
X-15747Y-1111758D01*
X-16814Y-1114602D01*
X-18542Y-1116584D01*
X-18542Y-1117600D01*
X-3810Y-1117600D01*
X-2997Y-1116736D01*
X-1727Y-1114145D01*
X-1270Y-1112520D01*
X-762Y-1105408D01*
X-609Y-1097838D01*
X-50Y-1095654D01*
X812Y-1093774D01*
X2032Y-1092200D01*
X3708Y-1090879D01*
X5638Y-1089914D01*
X7873Y-1089355D01*
X10414Y-1089152D01*
X21590Y-1089152D01*
X21590Y-1117600D01*
X35814Y-1117600D01*
X35814Y-1046480D01*
G37*
G36*
X-67056Y-1046480D02*
G01*
X-67056Y-1106678D01*
X-98806Y-1106678D01*
X-98806Y-1117600D01*
X-52578Y-1117600D01*
X-52578Y-1046480D01*
G37*
G36*
X-153670Y-1046480D02*
G01*
X-153670Y-1057402D01*
X-122428Y-1057402D01*
X-122428Y-1075436D01*
X-148844Y-1075436D01*
X-148844Y-1086358D01*
X-122428Y-1086358D01*
X-122428Y-1106678D01*
X-153924Y-1106678D01*
X-153924Y-1117600D01*
X-108204Y-1117600D01*
X-108204Y-1046480D01*
G37*
G36*
X-188722Y-1046480D02*
G01*
X-194919Y-1046987D01*
X-200507Y-1048562D01*
X-205587Y-1051204D01*
X-210058Y-1054862D01*
X-213817Y-1059332D01*
X-216560Y-1064361D01*
X-218135Y-1070000D01*
X-218694Y-1076198D01*
X-218694Y-1087882D01*
X-204216Y-1087882D01*
X-204216Y-1076198D01*
X-203962Y-1072235D01*
X-203149Y-1068628D01*
X-201777Y-1065479D01*
X-199898Y-1062736D01*
X-197662Y-1060399D01*
X-195072Y-1058722D01*
X-192074Y-1057757D01*
X-188722Y-1057402D01*
X-178054Y-1057402D01*
X-178054Y-1106678D01*
X-188722Y-1106678D01*
X-192074Y-1106322D01*
X-195072Y-1105357D01*
X-197662Y-1103680D01*
X-199898Y-1101344D01*
X-201777Y-1098600D01*
X-203149Y-1095451D01*
X-203962Y-1091844D01*
X-204216Y-1087882D01*
X-218694Y-1087882D01*
X-218135Y-1094181D01*
X-216560Y-1099820D01*
X-213817Y-1104849D01*
X-210058Y-1109218D01*
X-205587Y-1112875D01*
X-200507Y-1115517D01*
X-194919Y-1117092D01*
X-188722Y-1117600D01*
X-163830Y-1117600D01*
X-163830Y-1046480D01*
G37*
G36*
X700532Y-1045464D02*
G01*
X694842Y-1045819D01*
X689813Y-1046987D01*
X685342Y-1048918D01*
X681482Y-1051560D01*
X678281Y-1054709D01*
X675995Y-1058367D01*
X674725Y-1062482D01*
X674370Y-1067054D01*
X674624Y-1067308D01*
X688340Y-1067308D01*
X688543Y-1064818D01*
X689152Y-1062634D01*
X690219Y-1060754D01*
X691642Y-1059180D01*
X693318Y-1057960D01*
X695401Y-1057097D01*
X697788Y-1056538D01*
X700532Y-1056386D01*
X703021Y-1056538D01*
X705205Y-1057046D01*
X707085Y-1057808D01*
X708660Y-1058926D01*
X709980Y-1060297D01*
X710946Y-1061770D01*
X711504Y-1063447D01*
X711708Y-1065276D01*
X711504Y-1067104D01*
X710895Y-1068730D01*
X709828Y-1070152D01*
X708406Y-1071372D01*
X706577Y-1072540D01*
X701243Y-1074928D01*
X692251Y-1077976D01*
X687476Y-1080008D01*
X683361Y-1082294D01*
X679958Y-1084834D01*
X677164Y-1087729D01*
X675182Y-1091031D01*
X674014Y-1094841D01*
X673608Y-1099058D01*
X674065Y-1103376D01*
X675386Y-1107186D01*
X677621Y-1110488D01*
X680720Y-1113282D01*
X684682Y-1115618D01*
X689152Y-1117295D01*
X694182Y-1118260D01*
X699770Y-1118616D01*
X705256Y-1118260D01*
X710387Y-1117193D01*
X715060Y-1115466D01*
X719328Y-1113028D01*
X722985Y-1109776D01*
X725576Y-1105763D01*
X727049Y-1101140D01*
X727456Y-1095756D01*
X727202Y-1095502D01*
X713486Y-1095502D01*
X713232Y-1098448D01*
X712520Y-1101039D01*
X711352Y-1103172D01*
X709676Y-1104900D01*
X707745Y-1106220D01*
X705408Y-1107186D01*
X702767Y-1107744D01*
X699770Y-1107948D01*
X697026Y-1107795D01*
X694639Y-1107338D01*
X692556Y-1106525D01*
X690880Y-1105408D01*
X689660Y-1104138D01*
X688797Y-1102664D01*
X688238Y-1100988D01*
X688086Y-1099058D01*
X688238Y-1097127D01*
X688797Y-1095349D01*
X689660Y-1093825D01*
X690880Y-1092454D01*
X692556Y-1091234D01*
X694740Y-1090015D01*
X706628Y-1085900D01*
X711708Y-1083767D01*
X716026Y-1081430D01*
X719582Y-1078992D01*
X722376Y-1076248D01*
X724357Y-1073048D01*
X725525Y-1069390D01*
X725932Y-1065276D01*
X725474Y-1061161D01*
X724154Y-1057402D01*
X721918Y-1054049D01*
X718820Y-1051052D01*
X714908Y-1048613D01*
X710539Y-1046886D01*
X705764Y-1045819D01*
G37*
G36*
X819658Y-1046480D02*
G01*
X813917Y-1046835D01*
X808786Y-1047851D01*
X804367Y-1049629D01*
X800608Y-1052068D01*
X797610Y-1055116D01*
X795477Y-1058722D01*
X794156Y-1062888D01*
X793789Y-1068070D01*
X808228Y-1068070D01*
X808380Y-1065784D01*
X808939Y-1063752D01*
X809802Y-1061974D01*
X811022Y-1060450D01*
X812698Y-1059129D01*
X814730Y-1058164D01*
X817016Y-1057605D01*
X819658Y-1057402D01*
X830071Y-1057402D01*
X830071Y-1078230D01*
X817168Y-1078077D01*
X814781Y-1077569D01*
X812698Y-1076807D01*
X811022Y-1075690D01*
X809802Y-1074267D01*
X808939Y-1072540D01*
X808380Y-1070457D01*
X808228Y-1068070D01*
X793789Y-1068070D01*
X793953Y-1070152D01*
X794512Y-1072591D01*
X795477Y-1074826D01*
X796798Y-1076960D01*
X798372Y-1078890D01*
X800303Y-1080566D01*
X802538Y-1082040D01*
X805180Y-1083310D01*
X802233Y-1084478D01*
X799795Y-1085900D01*
X797814Y-1087628D01*
X796290Y-1089660D01*
X795070Y-1091946D01*
X794207Y-1094486D01*
X793648Y-1097280D01*
X793292Y-1108557D01*
X792734Y-1111758D01*
X791514Y-1114602D01*
X790803Y-1115720D01*
X789940Y-1116584D01*
X789940Y-1117600D01*
X804672Y-1117600D01*
X805484Y-1116736D01*
X806145Y-1115568D01*
X806958Y-1112520D01*
X807516Y-1108862D01*
X807872Y-1097838D01*
X808431Y-1095654D01*
X809294Y-1093774D01*
X810514Y-1092200D01*
X812190Y-1090879D01*
X814120Y-1089914D01*
X816356Y-1089355D01*
X818896Y-1089152D01*
X830071Y-1089152D01*
X830071Y-1117600D01*
X844296Y-1117600D01*
X844296Y-1046480D01*
G37*
G36*
X735076Y-1046480D02*
G01*
X735076Y-1057402D01*
X766318Y-1057402D01*
X766318Y-1075436D01*
X739902Y-1075436D01*
X739902Y-1086358D01*
X766318Y-1086358D01*
X766318Y-1106678D01*
X735076Y-1106678D01*
X735076Y-1117600D01*
X780542Y-1117600D01*
X780542Y-1046480D01*
G37*
G36*
X617728Y-1046480D02*
G01*
X617728Y-1057402D01*
X648970Y-1057402D01*
X648970Y-1075436D01*
X622554Y-1075436D01*
X622554Y-1086358D01*
X648970Y-1086358D01*
X648970Y-1106678D01*
X617474Y-1106678D01*
X617474Y-1117600D01*
X663194Y-1117600D01*
X663194Y-1046480D01*
G37*
G36*
X558038Y-1046480D02*
G01*
X558038Y-1057402D01*
X578358Y-1057402D01*
X578358Y-1117600D01*
X592582Y-1117600D01*
X592582Y-1057402D01*
X612648Y-1057402D01*
X612648Y-1046480D01*
G37*
G36*
X-669544Y-1045464D02*
G01*
X-675843Y-1046022D01*
X-681482Y-1047597D01*
X-686511Y-1050340D01*
X-690880Y-1054100D01*
X-694537Y-1058672D01*
X-697179Y-1063802D01*
X-698754Y-1069492D01*
X-699262Y-1075690D01*
X-699262Y-1088390D01*
X-685038Y-1088390D01*
X-685038Y-1075436D01*
X-684784Y-1071524D01*
X-684022Y-1068019D01*
X-682752Y-1064818D01*
X-680974Y-1061974D01*
X-678637Y-1059637D01*
X-675944Y-1057960D01*
X-672947Y-1056995D01*
X-669544Y-1056640D01*
X-666089Y-1056995D01*
X-662990Y-1057960D01*
X-660349Y-1059637D01*
X-658114Y-1061974D01*
X-656336Y-1064818D01*
X-655066Y-1068019D01*
X-654304Y-1071524D01*
X-654050Y-1075436D01*
X-654050Y-1088390D01*
X-654304Y-1092403D01*
X-655066Y-1096010D01*
X-656336Y-1099261D01*
X-658114Y-1102106D01*
X-660349Y-1104442D01*
X-662990Y-1106119D01*
X-666089Y-1107084D01*
X-669544Y-1107440D01*
X-672998Y-1107084D01*
X-676097Y-1106119D01*
X-678738Y-1104442D01*
X-680974Y-1102106D01*
X-682752Y-1099261D01*
X-684022Y-1096010D01*
X-684784Y-1092403D01*
X-685038Y-1088390D01*
X-699262Y-1088390D01*
X-698754Y-1094689D01*
X-697230Y-1100378D01*
X-694690Y-1105509D01*
X-691134Y-1109980D01*
X-686663Y-1113739D01*
X-681532Y-1116431D01*
X-675843Y-1118057D01*
X-669544Y-1118616D01*
X-663244Y-1118057D01*
X-657606Y-1116431D01*
X-652576Y-1113739D01*
X-648208Y-1109980D01*
X-644652Y-1105509D01*
X-642112Y-1100378D01*
X-640588Y-1094689D01*
X-640080Y-1088390D01*
X-640080Y-1075690D01*
X-640588Y-1069492D01*
X-642112Y-1063802D01*
X-644652Y-1058672D01*
X-648208Y-1054100D01*
X-652576Y-1050340D01*
X-657606Y-1047597D01*
X-663244Y-1046022D01*
G37*
G36*
X-738124Y-1045464D02*
G01*
X-744524Y-1046022D01*
X-750265Y-1047597D01*
X-755294Y-1050340D01*
X-759714Y-1054100D01*
X-763371Y-1058672D01*
X-766013Y-1063802D01*
X-767588Y-1069492D01*
X-768096Y-1075690D01*
X-768096Y-1088390D01*
X-753872Y-1088390D01*
X-753872Y-1075436D01*
X-753618Y-1071524D01*
X-752856Y-1068019D01*
X-751586Y-1064818D01*
X-749808Y-1061974D01*
X-747471Y-1059637D01*
X-744728Y-1057960D01*
X-741629Y-1056995D01*
X-738124Y-1056640D01*
X-734771Y-1056995D01*
X-731774Y-1057960D01*
X-729183Y-1059637D01*
X-726948Y-1061974D01*
X-725170Y-1064818D01*
X-723900Y-1068019D01*
X-723138Y-1071524D01*
X-722884Y-1075436D01*
X-722884Y-1088390D01*
X-723138Y-1092403D01*
X-723900Y-1096010D01*
X-725170Y-1099261D01*
X-726948Y-1102106D01*
X-729183Y-1104442D01*
X-731824Y-1106119D01*
X-734923Y-1107084D01*
X-738378Y-1107440D01*
X-741832Y-1107084D01*
X-744931Y-1106119D01*
X-747572Y-1104442D01*
X-749808Y-1102106D01*
X-751586Y-1099261D01*
X-752856Y-1096010D01*
X-753618Y-1092403D01*
X-753872Y-1088390D01*
X-768096Y-1088390D01*
X-767588Y-1094689D01*
X-766013Y-1100378D01*
X-763371Y-1105509D01*
X-759714Y-1109980D01*
X-755345Y-1113739D01*
X-750316Y-1116431D01*
X-744677Y-1118057D01*
X-738378Y-1118616D01*
X-732078Y-1118057D01*
X-726440Y-1116431D01*
X-721410Y-1113739D01*
X-717042Y-1109980D01*
X-713384Y-1105509D01*
X-710742Y-1100378D01*
X-709168Y-1094689D01*
X-708660Y-1088390D01*
X-708660Y-1075690D01*
X-709168Y-1069492D01*
X-710742Y-1063802D01*
X-713384Y-1058672D01*
X-717042Y-1054100D01*
X-721410Y-1050340D01*
X-726389Y-1047597D01*
X-731926Y-1046022D01*
G37*
G36*
X-601218Y-1046480D02*
G01*
X-607212Y-1046784D01*
X-612495Y-1047699D01*
X-617118Y-1049172D01*
X-621030Y-1051306D01*
X-624027Y-1054150D01*
X-626160Y-1057503D01*
X-627481Y-1061516D01*
X-627888Y-1066038D01*
X-627821Y-1067054D01*
X-613664Y-1067054D01*
X-613460Y-1064818D01*
X-612902Y-1062888D01*
X-611936Y-1061262D01*
X-610616Y-1059942D01*
X-608888Y-1058824D01*
X-606755Y-1058011D01*
X-604164Y-1057554D01*
X-592328Y-1057402D01*
X-592328Y-1076198D01*
X-604469Y-1076045D01*
X-606856Y-1075639D01*
X-608939Y-1074928D01*
X-610616Y-1073912D01*
X-611936Y-1072642D01*
X-612902Y-1071067D01*
X-613460Y-1069187D01*
X-613664Y-1067054D01*
X-627821Y-1067054D01*
X-627735Y-1068374D01*
X-627227Y-1070610D01*
X-626465Y-1072692D01*
X-625348Y-1074674D01*
X-623925Y-1076452D01*
X-622249Y-1078026D01*
X-620268Y-1079398D01*
X-617982Y-1080516D01*
X-621080Y-1081379D01*
X-623773Y-1082598D01*
X-626008Y-1084275D01*
X-627888Y-1086358D01*
X-629462Y-1088745D01*
X-630580Y-1091234D01*
X-631240Y-1093927D01*
X-631444Y-1096772D01*
X-617220Y-1096772D01*
X-617016Y-1094384D01*
X-616458Y-1092250D01*
X-615492Y-1090422D01*
X-614172Y-1088898D01*
X-612546Y-1087678D01*
X-610565Y-1086815D01*
X-608126Y-1086256D01*
X-592328Y-1086104D01*
X-592328Y-1106678D01*
X-608177Y-1106525D01*
X-610463Y-1106068D01*
X-612495Y-1105255D01*
X-614172Y-1104138D01*
X-615492Y-1102817D01*
X-616458Y-1101140D01*
X-617016Y-1099159D01*
X-617220Y-1096772D01*
X-631444Y-1096772D01*
X-631037Y-1101648D01*
X-629716Y-1105865D01*
X-627583Y-1109370D01*
X-624586Y-1112266D01*
X-620928Y-1114602D01*
X-616508Y-1116279D01*
X-611378Y-1117244D01*
X-605536Y-1117600D01*
X-578104Y-1117600D01*
X-578104Y-1046480D01*
G37*
G36*
X-827532Y-1046480D02*
G01*
X-827532Y-1057402D01*
X-807212Y-1057402D01*
X-807212Y-1117600D01*
X-792988Y-1117600D01*
X-792988Y-1057402D01*
X-772922Y-1057402D01*
X-772922Y-1046480D01*
G37*
G36*
X-1389684Y-1105712D02*
G01*
X-1415084Y-1131112D01*
X-1364284Y-1131112D01*
G37*
G36*
X-1302715Y1131112D02*
G01*
X-1277315Y1105712D01*
X-1251915Y1131112D01*
G37*
G36*
X1364284Y1131112D02*
G01*
X1389684Y1105712D01*
X1415084Y1131112D01*
G37*
G36*
X1277315Y-1105712D02*
G01*
X1251915Y-1131112D01*
X1302715Y-1131112D01*
G37*
D10*
X-1270000Y-1562102D02*
G01*
X-1270000Y-1524000D01*
X-1231897Y-1524000D01*
X-1523997Y38102D02*
G01*
X-1523997Y0D01*
X-1562100Y0D01*
X-1562100Y0D02*
G01*
X-1523997Y0D01*
X-1523997Y-38105D01*
X-38102Y-1523997D02*
G01*
X0Y-1523997D01*
X0Y-1562100D01*
X0Y-1562100D02*
G01*
X0Y-1523997D01*
X38102Y-1523997D01*
X1562102Y2D02*
G01*
X1524000Y2D01*
X1524000Y38105D01*
X1524000Y-38100D02*
G01*
X1524000Y2D01*
X1562102Y2D01*
X1524000Y1231897D02*
G01*
X1524000Y1270000D01*
X1562102Y1270000D01*
X1562100Y-1270000D02*
G01*
X1524000Y-1270000D01*
X1524000Y-1231900D01*
X1231900Y-1524000D02*
G01*
X1270000Y-1524000D01*
X1270000Y-1562100D01*
X-1562100Y1270000D02*
G01*
X-1524000Y1270000D01*
X-1524000Y1231900D01*
X-1524000Y-1231900D02*
G01*
X-1524000Y-1270000D01*
X-1562100Y-1270000D01*
D11*
X-471500Y1248399D02*
G01*
X-671499Y1248399D01*
X-471500Y1088400D02*
G01*
X-671499Y1088400D01*
X-536376Y1248399D02*
G01*
X-536376Y1088400D01*
D12*
X1431569Y-703795D02*
G01*
X1431569Y-765799D01*
X1431569Y-667791D02*
G01*
X1431569Y-605800D01*
X1311564Y-667791D02*
G01*
X1311564Y-605800D01*
X1331564Y-590791D02*
G01*
X1411561Y-590791D01*
X1311564Y-703795D02*
G01*
X1311564Y-765799D01*
X1331564Y-780795D02*
G01*
X1411561Y-780795D01*
X1326573Y-590791D02*
G01*
X1331564Y-590791D01*
X1416560Y-590791D02*
G01*
X1411561Y-590791D01*
X1326560Y-780795D02*
G01*
X1331564Y-780795D01*
X1416573Y-780795D02*
G01*
X1411561Y-780795D01*
X-1351534Y-961707D02*
G01*
X-1413537Y-961707D01*
X-1315529Y-961707D02*
G01*
X-1253538Y-961707D01*
X-1315529Y-841702D02*
G01*
X-1253538Y-841702D01*
X-1238529Y-861702D02*
G01*
X-1238529Y-941699D01*
X-1351534Y-841702D02*
G01*
X-1413537Y-841702D01*
X-1428534Y-861702D02*
G01*
X-1428534Y-941699D01*
X-1238529Y-856711D02*
G01*
X-1238529Y-861702D01*
X-1238529Y-946698D02*
G01*
X-1238529Y-941699D01*
X-1428534Y-856698D02*
G01*
X-1428534Y-861702D01*
X-1428534Y-946711D02*
G01*
X-1428534Y-941699D01*
X-1315542Y974407D02*
G01*
X-1253538Y974407D01*
X-1351546Y974407D02*
G01*
X-1413537Y974407D01*
X-1351546Y854402D02*
G01*
X-1413537Y854402D01*
X-1428546Y874402D02*
G01*
X-1428546Y954399D01*
X-1315542Y854402D02*
G01*
X-1253538Y854402D01*
X-1238542Y874402D02*
G01*
X-1238542Y954399D01*
X-1428546Y869411D02*
G01*
X-1428546Y874402D01*
X-1428546Y959398D02*
G01*
X-1428546Y954399D01*
X-1238542Y869398D02*
G01*
X-1238542Y874402D01*
X-1238542Y959411D02*
G01*
X-1238542Y954399D01*
X1351457Y974407D02*
G01*
X1413461Y974407D01*
X1315453Y974407D02*
G01*
X1253462Y974407D01*
X1315453Y854402D02*
G01*
X1253462Y854402D01*
X1238453Y874402D02*
G01*
X1238453Y954399D01*
X1351457Y854402D02*
G01*
X1413461Y854402D01*
X1428457Y874402D02*
G01*
X1428457Y954399D01*
X1238453Y869411D02*
G01*
X1238453Y874402D01*
X1238453Y959398D02*
G01*
X1238453Y954399D01*
X1428457Y869398D02*
G01*
X1428457Y874402D01*
X1428457Y959411D02*
G01*
X1428457Y954399D01*
X1315465Y-961707D02*
G01*
X1253462Y-961707D01*
X1351470Y-961707D02*
G01*
X1413461Y-961707D01*
X1351470Y-841702D02*
G01*
X1413461Y-841702D01*
X1428470Y-861702D02*
G01*
X1428470Y-941699D01*
X1315465Y-841702D02*
G01*
X1253462Y-841702D01*
X1238465Y-861702D02*
G01*
X1238465Y-941699D01*
X1428470Y-856711D02*
G01*
X1428470Y-861702D01*
X1428470Y-946698D02*
G01*
X1428470Y-941699D01*
X1238465Y-856698D02*
G01*
X1238465Y-861702D01*
X1238465Y-946711D02*
G01*
X1238465Y-941699D01*
X-212445Y-1315504D02*
G01*
X-212445Y-1253500D01*
X-212445Y-1351508D02*
G01*
X-212445Y-1413499D01*
X-92440Y-1351508D02*
G01*
X-92440Y-1413499D01*
X-112440Y-1428508D02*
G01*
X-192438Y-1428508D01*
X-92440Y-1315504D02*
G01*
X-92440Y-1253500D01*
X-112440Y-1238504D02*
G01*
X-192438Y-1238504D01*
X-107449Y-1428508D02*
G01*
X-112440Y-1428508D01*
X-197436Y-1428508D02*
G01*
X-192438Y-1428508D01*
X-107436Y-1238504D02*
G01*
X-112440Y-1238504D01*
X-197449Y-1238504D02*
G01*
X-192438Y-1238504D01*
X244690Y-1428521D02*
G01*
X364695Y-1428521D01*
X244690Y-1351521D02*
G01*
X244690Y-1428521D01*
X244690Y-1238519D02*
G01*
X364695Y-1238519D01*
X244690Y-1315519D02*
G01*
X244690Y-1238519D01*
X364695Y-1315519D02*
G01*
X364695Y-1238519D01*
X364695Y-1351521D02*
G01*
X364695Y-1428521D01*
X-364909Y-1428521D02*
G01*
X-244904Y-1428521D01*
X-364909Y-1351521D02*
G01*
X-364909Y-1428521D01*
X-364909Y-1238519D02*
G01*
X-244904Y-1238519D01*
X-364909Y-1315519D02*
G01*
X-364909Y-1238519D01*
X-244904Y-1315519D02*
G01*
X-244904Y-1238519D01*
X-244904Y-1351521D02*
G01*
X-244904Y-1428521D01*
X-1428595Y466369D02*
G01*
X-1428595Y346364D01*
X-1351594Y466369D02*
G01*
X-1428595Y466369D01*
X-1238592Y466369D02*
G01*
X-1238592Y346364D01*
X-1315593Y466369D02*
G01*
X-1238592Y466369D01*
X-1315593Y346364D02*
G01*
X-1238592Y346364D01*
X-1351594Y346364D02*
G01*
X-1428595Y346364D01*
X-1428595Y313969D02*
G01*
X-1428595Y193964D01*
X-1351594Y313969D02*
G01*
X-1428595Y313969D01*
X-1238592Y313969D02*
G01*
X-1238592Y193964D01*
X-1315593Y313969D02*
G01*
X-1238592Y313969D01*
X-1315593Y193964D02*
G01*
X-1238592Y193964D01*
X-1351594Y193964D02*
G01*
X-1428595Y193964D01*
X-1428595Y-143230D02*
G01*
X-1428595Y-263235D01*
X-1351594Y-143230D02*
G01*
X-1428595Y-143230D01*
X-1238592Y-143230D02*
G01*
X-1238592Y-263235D01*
X-1315593Y-143230D02*
G01*
X-1238592Y-143230D01*
X-1315593Y-263235D02*
G01*
X-1238592Y-263235D01*
X-1351594Y-263235D02*
G01*
X-1428595Y-263235D01*
X-1428595Y618769D02*
G01*
X-1428595Y498764D01*
X-1351594Y618769D02*
G01*
X-1428595Y618769D01*
X-1238592Y618769D02*
G01*
X-1238592Y498764D01*
X-1315593Y618769D02*
G01*
X-1238592Y618769D01*
X-1315593Y498764D02*
G01*
X-1238592Y498764D01*
X-1351594Y498764D02*
G01*
X-1428595Y498764D01*
X-1428595Y161569D02*
G01*
X-1428595Y41564D01*
X-1351594Y161569D02*
G01*
X-1428595Y161569D01*
X-1238592Y161569D02*
G01*
X-1238592Y41564D01*
X-1315593Y161569D02*
G01*
X-1238592Y161569D01*
X-1315593Y41564D02*
G01*
X-1238592Y41564D01*
X-1351594Y41564D02*
G01*
X-1428595Y41564D01*
X92290Y-1428521D02*
G01*
X212295Y-1428521D01*
X92290Y-1351521D02*
G01*
X92290Y-1428521D01*
X92290Y-1238519D02*
G01*
X212295Y-1238519D01*
X92290Y-1315519D02*
G01*
X92290Y-1238519D01*
X212295Y-1315519D02*
G01*
X212295Y-1238519D01*
X212295Y-1351521D02*
G01*
X212295Y-1428521D01*
X-1428595Y9169D02*
G01*
X-1428595Y-110835D01*
X-1351594Y9169D02*
G01*
X-1428595Y9169D01*
X-1238592Y9169D02*
G01*
X-1238592Y-110835D01*
X-1315593Y9169D02*
G01*
X-1238592Y9169D01*
X-1315593Y-110835D02*
G01*
X-1238592Y-110835D01*
X-1351594Y-110835D02*
G01*
X-1428595Y-110835D01*
X1152169Y858304D02*
G01*
X1152169Y796300D01*
X1152169Y894308D02*
G01*
X1152169Y956299D01*
X1032164Y894308D02*
G01*
X1032164Y956299D01*
X1052164Y971308D02*
G01*
X1132161Y971308D01*
X1032164Y858304D02*
G01*
X1032164Y796300D01*
X1052164Y781304D02*
G01*
X1132161Y781304D01*
X1047173Y971308D02*
G01*
X1052164Y971308D01*
X1137160Y971308D02*
G01*
X1132161Y971308D01*
X1047160Y781304D02*
G01*
X1052164Y781304D01*
X1137173Y781304D02*
G01*
X1132161Y781304D01*
D11*
X1427827Y600776D02*
G01*
X1427827Y440776D01*
X1137823Y600776D02*
G01*
X1137823Y440776D01*
X1327017Y600776D02*
G01*
X1238636Y600776D01*
X1427827Y3876D02*
G01*
X1427827Y-156123D01*
X1137823Y3876D02*
G01*
X1137823Y-156123D01*
X1327017Y3876D02*
G01*
X1238636Y3876D01*
D12*
X1300657Y288607D02*
G01*
X1362661Y288607D01*
X1264653Y288607D02*
G01*
X1202662Y288607D01*
X1264653Y168602D02*
G01*
X1202662Y168602D01*
X1187653Y188602D02*
G01*
X1187653Y268599D01*
X1300657Y168602D02*
G01*
X1362661Y168602D01*
X1377657Y188602D02*
G01*
X1377657Y268599D01*
X1187653Y183611D02*
G01*
X1187653Y188602D01*
X1187653Y273598D02*
G01*
X1187653Y268599D01*
X1377657Y183598D02*
G01*
X1377657Y188602D01*
X1377657Y273611D02*
G01*
X1377657Y268599D01*
X1311554Y-401104D02*
G01*
X1311554Y-339100D01*
X1311554Y-437108D02*
G01*
X1311554Y-499099D01*
X1431559Y-437108D02*
G01*
X1431559Y-499099D01*
X1411559Y-514108D02*
G01*
X1331561Y-514108D01*
X1431559Y-401104D02*
G01*
X1431559Y-339100D01*
X1411559Y-324104D02*
G01*
X1331561Y-324104D01*
X1416550Y-514108D02*
G01*
X1411559Y-514108D01*
X1326563Y-514108D02*
G01*
X1331561Y-514108D01*
X1416563Y-324104D02*
G01*
X1411559Y-324104D01*
X1326550Y-324104D02*
G01*
X1331561Y-324104D01*
X1253695Y-324144D02*
G01*
X1133690Y-324144D01*
X1253695Y-401144D02*
G01*
X1253695Y-324144D01*
X1253695Y-514146D02*
G01*
X1133690Y-514146D01*
X1253695Y-437146D02*
G01*
X1253695Y-514146D01*
X1133690Y-437146D02*
G01*
X1133690Y-514146D01*
X1133690Y-401144D02*
G01*
X1133690Y-324144D01*
D13*
X760493Y1204991D02*
G01*
X682998Y1204991D01*
X658563Y1180556D01*
X658563Y1109436D01*
X683023Y1084976D01*
X760493Y1084976D01*
D12*
X883500Y1204996D02*
G01*
X883500Y1084991D01*
X800000Y1204996D02*
G01*
X883503Y1205001D01*
X800000Y1084996D02*
G01*
X883503Y1084996D01*
D13*
X370494Y1204991D02*
G01*
X292999Y1204991D01*
X268564Y1180556D01*
X268564Y1109436D01*
X293024Y1084976D01*
X370494Y1084976D01*
D12*
X493501Y1204996D02*
G01*
X493501Y1084991D01*
X410001Y1204996D02*
G01*
X493504Y1205001D01*
X410001Y1084996D02*
G01*
X493504Y1084996D01*
D13*
X59994Y-1305491D02*
G01*
X59994Y-1227996D01*
X35560Y-1203561D01*
X-35560Y-1203561D01*
X-60020Y-1228021D01*
X-60020Y-1305491D01*
D12*
X59999Y-1428498D02*
G01*
X-60004Y-1428498D01*
X59999Y-1344998D02*
G01*
X60004Y-1428501D01*
X-59999Y-1344998D02*
G01*
X-59999Y-1428501D01*
D13*
X-4505Y1204991D02*
G01*
X-82001Y1204991D01*
X-106436Y1180556D01*
X-106436Y1109436D01*
X-81975Y1084976D01*
X-4505Y1084976D01*
D12*
X118501Y1204996D02*
G01*
X118501Y1084991D01*
X35001Y1204996D02*
G01*
X118503Y1205001D01*
X35001Y1084996D02*
G01*
X118503Y1084996D01*
D14*
X-1435907Y-1022301D02*
G01*
X-1231183Y-1022301D01*
X-1231183Y-1262331D01*
X-1435907Y-1262331D01*
X-1435907Y-1022301D01*
X-1231092Y1022301D02*
G01*
X-1435816Y1022301D01*
X-1435816Y1262331D01*
X-1231092Y1262331D01*
X-1231092Y1022301D01*
X1435907Y1022301D02*
G01*
X1231183Y1022301D01*
X1231183Y1262331D01*
X1435907Y1262331D01*
X1435907Y1022301D01*
X1231092Y-1022301D02*
G01*
X1435816Y-1022301D01*
X1435816Y-1262331D01*
X1231092Y-1262331D01*
X1231092Y-1022301D01*
D11*
X899988Y1014999D02*
G01*
X899988Y964112D01*
X-901712Y964112D02*
G01*
X-901712Y1014999D01*
X-639625Y-906594D02*
G01*
X-901712Y-906594D01*
X-901712Y-823114D01*
X-900013Y1014999D02*
G01*
X899988Y1014999D01*
X899988Y-823114D02*
G01*
X899988Y-906594D01*
X639599Y-906594D01*
X898499Y-1163099D02*
G01*
X498500Y-1163099D01*
X898499Y-1453100D02*
G01*
X498500Y-1453100D01*
X898499Y-1163099D02*
G01*
X898499Y-1184986D01*
X898499Y-1431213D02*
G01*
X898499Y-1453100D01*
X498500Y-1163099D02*
G01*
X498500Y-1184986D01*
X498500Y-1431213D02*
G01*
X498500Y-1453100D01*
X-898499Y-1453100D02*
G01*
X-498500Y-1453100D01*
X-898499Y-1163099D02*
G01*
X-498500Y-1163099D01*
X-898499Y-1453100D02*
G01*
X-898499Y-1431213D01*
X-898499Y-1184986D02*
G01*
X-898499Y-1163099D01*
X-498500Y-1453100D02*
G01*
X-498500Y-1431213D01*
X-498500Y-1184986D02*
G01*
X-498500Y-1163099D01*
D12*
G75*
G01*
X1311565Y-605800D02*
G02*
X1326573Y-590791I15008J0D01*
G75*
G01*
X1431569Y-605800D02*
G03*
X1416561Y-590791I-15008J0D01*
G75*
G01*
X1311565Y-765800D02*
G03*
X1326561Y-780796I14996J0D01*
G75*
G01*
X1431569Y-765800D02*
G02*
X1416573Y-780796I-14996J0D01*
G75*
G01*
X-1253538Y-841703D02*
G02*
X-1238529Y-856712I0J-15009D01*
G75*
G01*
X-1253538Y-961708D02*
G03*
X-1238529Y-946699I0J15009D01*
G75*
G01*
X-1413538Y-841703D02*
G03*
X-1428534Y-856699I0J-14996D01*
G75*
G01*
X-1413538Y-961708D02*
G02*
X-1428534Y-946711I0J14997D01*
G75*
G01*
X-1413538Y854403D02*
G02*
X-1428547Y869412I0J15009D01*
G75*
G01*
X-1413538Y974408D02*
G03*
X-1428547Y959399I0J-15009D01*
G75*
G01*
X-1253538Y854403D02*
G03*
X-1238542Y869399I0J14996D01*
G75*
G01*
X-1253538Y974408D02*
G02*
X-1238542Y959411I0J-14997D01*
G75*
G01*
X1253462Y854403D02*
G02*
X1238453Y869412I0J15009D01*
G75*
G01*
X1253462Y974408D02*
G03*
X1238453Y959399I0J-15009D01*
G75*
G01*
X1413462Y854403D02*
G03*
X1428458Y869399I0J14996D01*
G75*
G01*
X1413462Y974408D02*
G02*
X1428458Y959411I0J-14997D01*
G75*
G01*
X1413462Y-841703D02*
G02*
X1428471Y-856712I0J-15009D01*
G75*
G01*
X1413462Y-961708D02*
G03*
X1428471Y-946699I0J15009D01*
G75*
G01*
X1253462Y-841703D02*
G03*
X1238466Y-856699I0J-14996D01*
G75*
G01*
X1253462Y-961708D02*
G02*
X1238466Y-946711I0J14997D01*
G75*
G01*
X-92441Y-1413500D02*
G02*
X-107450Y-1428509I-15009J0D01*
G75*
G01*
X-212446Y-1413500D02*
G03*
X-197437Y-1428509I15009J0D01*
G75*
G01*
X-92441Y-1253500D02*
G03*
X-107437Y-1238504I-14996J0D01*
G75*
G01*
X-212446Y-1253500D02*
G02*
X-197449Y-1238504I14997J0D01*
G75*
G01*
X1032165Y956300D02*
G02*
X1047173Y971309I15008J0D01*
G75*
G01*
X1152169Y956300D02*
G03*
X1137161Y971309I-15008J0D01*
G75*
G01*
X1032165Y796300D02*
G03*
X1047161Y781304I14996J0D01*
G75*
G01*
X1152169Y796300D02*
G02*
X1137173Y781304I-14996J0D01*
G75*
G01*
X1202662Y168603D02*
G02*
X1187653Y183612I0J15009D01*
G75*
G01*
X1202662Y288608D02*
G03*
X1187653Y273599I0J-15009D01*
G75*
G01*
X1362662Y168603D02*
G03*
X1377658Y183599I0J14996D01*
G75*
G01*
X1362662Y288608D02*
G02*
X1377658Y273611I0J-14997D01*
G75*
G01*
X1431559Y-499100D02*
G02*
X1416550Y-514109I-15009J0D01*
G75*
G01*
X1311554Y-499100D02*
G03*
X1326563Y-514109I15009J0D01*
G75*
G01*
X1431559Y-339100D02*
G03*
X1416563Y-324104I-14996J0D01*
G75*
G01*
X1311554Y-339100D02*
G02*
X1326551Y-324104I14997J0D01*
D15*
G75*
G01
X1253795Y-685800D02*
G03X1253795Y-685800I-59995J0D01*
D11*
G75*
G01
X1448206Y385775D02*
G03X1448206Y385775I-6401J0D01*
G75*
G01
X1448206Y-211125D02*
G03X1448206Y-211125I-6401J0D01*
G75*
G01
X-471500Y825500D02*
G03X-471500Y825500I-100000J0D01*
G75*
G01
X783514Y-1308100D02*
G03X783514Y-1308100I-85014J0D01*
G75*
G01
X-613486Y-1308100D02*
G03X-613486Y-1308100I-85014J0D01*
G36*
X-1435100Y-609600D02*
G01*
X-1075105Y-609600D01*
X-1075105Y-723900D01*
X-1435100Y-723900D01*
G37*
G36*
X-1435100Y-482600D02*
G01*
X-1075105Y-482600D01*
X-1075105Y-596900D01*
X-1435100Y-596900D01*
G37*
M02*
