G04 Layer: TopPasteMaskLayer*
G04 Panelize: , Column: 3, Row: 3, Board Size: 35.56mm x 35.56mm, Panelized Board Size: 110.68mm x 110.68mm*
G04 EasyEDA v6.5.39, 2024-01-10 02:32:58*
G04 c879e6b8726d4e35908b0b4345eef0b3,3d9c8b04885e45b7839bd8e85c0fd600,10*
G04 Gerber Generator version 0.2*
G04 Scale: 100 percent, Rotated: No, Reflected: No *
G04 Dimensions in millimeters *
G04 leading zeros omitted , absolute positions ,4 integer and 5 decimal *
%FSLAX45Y45*%
%MOMM*%

%AMMACRO1*4,1,6,0.205,-0.3,0.205,0.3,-0.125,0.3,-0.205,0.1999,-0.205,-0.3,0.205,-0.3,0.205,-0.3,0*%
%AMMACRO2*4,1,12,-1.651,1.27,1.651,1.27,1.651,1.016,1.016,1.016,1.016,-1.016,1.651,-1.016,1.651,-1.27,-1.651,-1.27,-1.651,-1.016,-1.016,-1.016,-1.016,1.016,-1.651,1.016,-1.651,1.27,0*%
%ADD10R,0.8000X0.5000*%
%ADD11R,0.5500X1.0000*%
%ADD12R,0.4000X0.5999*%
%ADD13MACRO1*%
%ADD14R,0.6000X0.4200*%
%ADD15R,0.5000X0.8000*%
%ADD16C,0.8000*%
%ADD17O,0.5999988X1.499997*%
%ADD18R,2.5000X2.0000*%
%ADD19R,0.2000X0.8500*%
%ADD20MACRO2*%
%ADD21R,1.1000X1.0000*%
%ADD22R,2.6000X1.8000*%
%ADD23R,1.0000X0.5500*%
%ADD24R,1.0000X1.0000*%
%ADD25R,0.7000X1.2500*%
%ADD26O,1.499997X0.5999988*%
%ADD27R,2.4000X1.2700*%
%ADD28R,0.2500X0.6300*%
%ADD29R,0.6000X1.4500*%
%ADD30R,0.3000X1.4500*%
%ADD31R,1.8000X1.4500*%
%ADD32R,1.8000X1.2000*%
%ADD33R,1.0000X3.5000*%
%ADD34R,1.5000X3.5000*%
%ADD35R,0.6000X2.3000*%
%ADD36R,0.8000X1.6000*%
%ADD37R,1.8000X1.5000*%
%ADD38R,1.5000X3.0000*%

%LPD*%
D10*
G01*
X-63601Y557961D03*
G01*
X-63601Y457962D03*
G01*
X-292201Y457962D03*
G01*
X-292201Y557961D03*
G01*
X-1333525Y-342087D03*
G01*
X-1333525Y-242087D03*
G01*
X-1130325Y-342087D03*
G01*
X-1130325Y-242087D03*
G01*
X279349Y-458012D03*
G01*
X279349Y-558012D03*
D11*
G01*
X-666470Y812800D03*
G01*
X-571474Y812800D03*
G01*
X-476478Y812800D03*
G01*
X-476478Y532790D03*
G01*
X-571474Y532790D03*
G01*
X-666470Y532790D03*
D12*
G01*
X-858088Y-1193774D03*
D13*
G01*
X-793089Y-1193774D03*
D14*
G01*
X-1162304Y839673D03*
G01*
X-1162304Y774674D03*
G01*
X-1162304Y709676D03*
G01*
X-1352295Y709676D03*
G01*
X-1352295Y774674D03*
G01*
X-1352295Y839673D03*
D10*
G01*
X-1333500Y1142212D03*
G01*
X-1333500Y1042212D03*
G01*
X-292201Y724662D03*
G01*
X-292201Y824661D03*
G01*
X-851001Y724662D03*
G01*
X-851001Y824661D03*
D15*
G01*
X-871804Y-1346225D03*
G01*
X-771804Y-1346225D03*
D16*
G01*
X1168400Y-1231900D03*
G01*
X1346200Y-1231900D03*
G01*
X736600Y-1066800D03*
G01*
X-939800Y-292100D03*
G01*
X279400Y-723900D03*
D17*
G01*
X-943000Y503580D03*
G01*
X-1043000Y503580D03*
G01*
X-1143000Y503580D03*
G01*
X-1242999Y503580D03*
G01*
X-1342999Y503580D03*
G01*
X-1342999Y-46405D03*
G01*
X-1242999Y-46405D03*
G01*
X-1143000Y-46405D03*
G01*
X-1043000Y-46405D03*
G01*
X-943000Y-46405D03*
D18*
G01*
X-1143000Y228600D03*
D10*
G01*
X-63500Y819683D03*
G01*
X-63500Y729691D03*
D19*
G01*
X738225Y-132664D03*
G01*
X778230Y-132664D03*
G01*
X818235Y-132664D03*
G01*
X858240Y-132664D03*
G01*
X898220Y-132664D03*
G01*
X938225Y-132664D03*
G01*
X938225Y-527659D03*
G01*
X898220Y-527659D03*
G01*
X858215Y-527659D03*
G01*
X818235Y-527659D03*
G01*
X778230Y-527659D03*
G01*
X738225Y-527659D03*
D20*
G01*
X838250Y-330174D03*
D21*
G01*
X76200Y72389D03*
G01*
X76200Y232384D03*
D22*
G01*
X1257300Y137413D03*
G01*
X1257300Y-162813D03*
D10*
G01*
X279374Y-240487D03*
G01*
X279374Y-140487D03*
G01*
X634974Y102412D03*
G01*
X634974Y202412D03*
D15*
G01*
X1283462Y838200D03*
G01*
X1383461Y838200D03*
D10*
G01*
X736574Y-824687D03*
G01*
X736574Y-724687D03*
D23*
G01*
X228295Y463804D03*
G01*
X228295Y558800D03*
G01*
X228295Y653795D03*
G01*
X508304Y653795D03*
G01*
X508304Y558800D03*
G01*
X508304Y463804D03*
D21*
G01*
X1333576Y1033779D03*
G01*
X1333576Y1193774D03*
D10*
G01*
X660298Y508762D03*
G01*
X660298Y608761D03*
G01*
X457098Y-140538D03*
G01*
X457098Y-240537D03*
D21*
G01*
X914476Y72389D03*
G01*
X914476Y232384D03*
D24*
G01*
X1137310Y-469900D03*
G01*
X1377289Y-469900D03*
D25*
G01*
X1162304Y-1001268D03*
G01*
X1352295Y-1001268D03*
G01*
X1257300Y-751331D03*
D10*
G01*
X939800Y-1116812D03*
G01*
X939800Y-1016812D03*
D26*
G01*
X-553389Y-342900D03*
G01*
X-553389Y-469900D03*
G01*
X-553389Y-596900D03*
G01*
X-553389Y-723900D03*
G01*
X-5410Y-342900D03*
G01*
X-5410Y-469900D03*
G01*
X-5410Y-596900D03*
G01*
X-5410Y-723900D03*
D23*
G01*
X812495Y463804D03*
G01*
X812495Y558800D03*
G01*
X812495Y653795D03*
G01*
X1092504Y653795D03*
G01*
X1092504Y558800D03*
G01*
X1092504Y463804D03*
D27*
G01*
X368223Y152450D03*
D28*
G01*
X293217Y297459D03*
G01*
X343230Y297459D03*
G01*
X393217Y297459D03*
G01*
X443229Y297459D03*
G01*
X443229Y7467D03*
G01*
X393217Y7467D03*
G01*
X343230Y7467D03*
G01*
X293217Y7467D03*
D10*
G01*
X939800Y-824687D03*
G01*
X939800Y-724687D03*
D29*
G01*
X-248996Y1002537D03*
G01*
X-326491Y1002537D03*
D30*
G01*
X-396494Y1002537D03*
G01*
X-446506Y1002563D03*
G01*
X-496493Y1002537D03*
G01*
X-546506Y1002537D03*
G01*
X-596493Y1002537D03*
G01*
X-646506Y1002537D03*
G01*
X-696493Y1002537D03*
G01*
X-746505Y1002537D03*
D29*
G01*
X-816508Y1002537D03*
G01*
X-893495Y1002537D03*
D31*
G01*
X-64490Y1094054D03*
G01*
X-1078509Y1094054D03*
D32*
G01*
X-64490Y1512036D03*
G01*
X-1078509Y1512036D03*
D33*
G01*
X760399Y989787D03*
G01*
X560400Y989787D03*
D34*
G01*
X995400Y1524787D03*
G01*
X325399Y1524787D03*
D35*
G01*
X-1060297Y-1292809D03*
G01*
X-1200302Y-1292809D03*
D36*
G01*
X-410387Y-1304289D03*
G01*
X-300405Y-1304315D03*
G01*
X-190398Y-1304289D03*
G01*
X-80390Y-1304315D03*
G01*
X29590Y-1304289D03*
G01*
X139598Y-1304289D03*
G01*
X249605Y-1304289D03*
G01*
X359613Y-1304315D03*
D37*
G01*
X-553389Y-1118311D03*
D38*
G01*
X469595Y-1034313D03*
M02*
