M48
METRIC,LZ,000.000
;FILE_FORMAT=3:3
;TYPE=PLATED
;Layer: PTH_Through_Via
;EasyEDA v6.5.39, 2024-01-10 14:41:16
;52a2ae1d1fff4fd0b89a8512cd0fdb0d,3d9c8b04885e45b7839bd8e85c0fd600,10
;Gerber Generator version 0.2
;Holesize 1 = 0.200 mm
T01C0.200
;Holesize 2 = 0.305 mm
T02C0.305
%
G05
G90
T01
X-007747Y003708
X-007747Y004699
X-007747Y005715
X-007747Y002667
X-007747Y001524
X-006604Y001524
X-006604Y002667
X-006604Y003708
X-006604Y004699
X-006604Y005715
X-008890Y001524
X-008890Y002667
X-008890Y003708
X-008890Y004699
X-008890Y005715
X-005461Y005715
X-005461Y004699
X-005461Y003708
X-005461Y002667
X-005461Y001524
X-010033Y005715
X-010033Y004699
X-010033Y003708
X-010033Y002667
X-010033Y001524
T02
X-019050Y007645
X-019050Y006375
X-024003Y002946
X-024003Y000406
X-024003Y-002134
X-024003Y-004674
X-034163Y000406
X-034163Y-002134
X-034163Y-004674
X-033782Y003327
X000000Y008788
X000000Y005105
X009271Y009423
X010795Y006883
X040513Y-009881
X058547Y-028310
X058547Y-018404
X058547Y-008244
X058547Y001789
X040132Y-020676
X038735Y-020676
X037509Y-020676
X035941Y-020676
X034417Y-020676
X034309Y-015723
X028709Y-015723
X035917Y-035408
X039567Y-038964
X029267Y-038964
X033782Y-037158
X034417Y-026010
X043053Y005613
X048514Y-013310
X054356Y009169
X054991Y-002018
X054991Y-011913
X054991Y-022073
X057658Y-026010
X057658Y-016104
X057658Y-005944
X057658Y004089
X021082Y-000864
X-021463Y-014707
X-021463Y-017247
X-021463Y-019787
X-021463Y-022327
X-035306Y-017247
X-035306Y-019787
X-035306Y-022327
X-028067Y-019787
X-029464Y-030836
X-021463Y003937
X-020447Y010947
X-026924Y010566
X-019431Y-026899
X-019431Y-032258
X-010033Y-032995
X-006731Y-033528
X001397Y-030709
X-000279Y-030709
X-014224Y-024994
X-003874Y-030391
X-009144Y-020168
X-005334Y-022073
X-007925Y-025451
X-007239Y-017120
X-015367Y-031725
X-018415Y-038837
X-011034Y-034900
X-011684Y-034290
X-008636Y-021057
X-009144Y-021692
X-028702Y-032995
X-030226Y-032995
X-011430Y-018263
X-012319Y-014834
X000000Y011430
X-013741Y-008230
X-001905Y002692
X-002794Y003073
X-015240Y008788
X002642Y010160
X000000Y002565
X000000Y001270
X000000Y000000
X000000Y-001270
X000000Y-002540
X000000Y-003810
X-002477Y-009335
X003810Y-027305
X000508Y-027178
X-001651Y-027178
X005715Y-025654
X004191Y-012700
X004953Y-011303
X004953Y-013970
X002794Y-013335
X000508Y-010668
X005461Y-010668
X-011303Y-005080
X-017526Y-028829
X-008636Y-031344
X-009906Y-025527
X-003048Y-019640
X022352Y008001
X042799Y-007366
X054991Y001778
X054991Y-008255
X054991Y-018415
X054991Y-028321
X033020Y-022225
X040005Y-026670
X031369Y-035433
X-007493Y-019152
X-015113Y010160
X-002794Y010033
X-027559Y006477
X-023622Y-033147
X-035560Y-029464
X054483Y005588
X031623Y005613
M30
