G04 Layer: InnerLayer1*
G04 EasyEDA v6.5.39, 2024-01-10 14:41:16*
G04 52a2ae1d1fff4fd0b89a8512cd0fdb0d,3d9c8b04885e45b7839bd8e85c0fd600,10*
G04 Gerber Generator version 0.2*
G04 Scale: 100 percent, Rotated: No, Reflected: No *
G04 Dimensions in millimeters *
G04 leading zeros omitted , absolute positions ,4 integer and 5 decimal *
%FSLAX45Y45*%
%MOMM*%

%ADD10O,1.199896X1.5999968*%
%ADD11O,1.199896X1.8999962*%
%ADD12C,1.5240*%
%ADD13C,0.6096*%
%ADD14C,0.3000*%
%ADD15C,0.0197*%

%LPD*%
D10*
G01*
X-918463Y-3673475D03*
G01*
X-1418336Y-3673475D03*
D11*
G01*
X-1518411Y-3941445D03*
G01*
X-818388Y-3941445D03*
D12*
G01*
X-2667000Y1704339D03*
G01*
X-2413000Y1704339D03*
G01*
X-2159000Y1704339D03*
G36*
X-2590822Y-3885559D02*
G01*
X-2591391Y-3893134D01*
X-2592710Y-3900617D01*
X-2594767Y-3907929D01*
X-2597543Y-3915001D01*
X-2601008Y-3921760D01*
X-2605130Y-3928140D01*
X-2609867Y-3934081D01*
X-2615171Y-3939519D01*
X-2620990Y-3944401D01*
X-2627266Y-3948681D01*
X-2633936Y-3952313D01*
X-2640937Y-3955265D01*
X-2648196Y-3957502D01*
X-2655643Y-3959009D01*
X-2663202Y-3959766D01*
X-2670797Y-3959766D01*
X-2678356Y-3959009D01*
X-2685803Y-3957502D01*
X-2693062Y-3955265D01*
X-2700063Y-3952313D01*
X-2706733Y-3948681D01*
X-2713009Y-3944401D01*
X-2718828Y-3939519D01*
X-2724132Y-3934081D01*
X-2728869Y-3928140D01*
X-2732991Y-3921760D01*
X-2736456Y-3915001D01*
X-2739232Y-3907929D01*
X-2741289Y-3900617D01*
X-2742608Y-3893134D01*
X-2743177Y-3885559D01*
X-2742986Y-3877965D01*
X-2742041Y-3870429D01*
X-2740352Y-3863022D01*
X-2737932Y-3855821D01*
X-2734807Y-3848897D01*
X-2731010Y-3842318D01*
X-2726575Y-3836149D01*
X-2721549Y-3830454D01*
X-2715981Y-3825288D01*
X-2709926Y-3820701D01*
X-2703443Y-3816738D01*
X-2696598Y-3813444D01*
X-2689461Y-3810845D01*
X-2682097Y-3808971D01*
X-2674586Y-3807838D01*
X-2667000Y-3807460D01*
X-2659413Y-3807838D01*
X-2651902Y-3808971D01*
X-2644538Y-3810845D01*
X-2637401Y-3813444D01*
X-2630556Y-3816738D01*
X-2624073Y-3820701D01*
X-2618018Y-3825288D01*
X-2612450Y-3830454D01*
X-2607424Y-3836149D01*
X-2602989Y-3842318D01*
X-2599192Y-3848897D01*
X-2596067Y-3855821D01*
X-2593647Y-3863022D01*
X-2591958Y-3870429D01*
X-2591013Y-3877965D01*
G37*
G01*
X-2921000Y-3883660D03*
G01*
X762000Y434339D03*
G01*
X762000Y688339D03*
G01*
X762000Y942339D03*
G01*
X762000Y1196339D03*
G01*
X749300Y-632460D03*
G01*
X749300Y-378460D03*
G01*
X749300Y-124460D03*
G01*
X749300Y129539D03*
G01*
X495300Y-632460D03*
G01*
X495300Y-378460D03*
G01*
X495300Y-124460D03*
G01*
X495300Y129539D03*
G01*
X508000Y434339D03*
G01*
X508000Y688339D03*
G01*
X508000Y942339D03*
G01*
X508000Y1196339D03*
G01*
X-3937000Y-581660D03*
G01*
X-3937000Y-327660D03*
G01*
X-3937000Y-73660D03*
G01*
X-3937000Y180339D03*
G01*
X-3937000Y434339D03*
G01*
X-3937000Y688339D03*
G01*
X-3937000Y942339D03*
G01*
X-3937000Y1196339D03*
G01*
X-3937000Y-1089660D03*
G01*
X-3937000Y-1343660D03*
G01*
X-3937000Y-1597660D03*
G01*
X-3937000Y-1851660D03*
G01*
X-3937000Y-2105660D03*
G01*
X-3937000Y-2359660D03*
G01*
X-3937000Y-2613660D03*
G01*
X-3937000Y-2867660D03*
G36*
X-3173100Y1272517D02*
G01*
X-3165525Y1271948D01*
X-3158042Y1270629D01*
X-3150730Y1268572D01*
X-3143658Y1265796D01*
X-3136900Y1262331D01*
X-3130519Y1258209D01*
X-3124578Y1253472D01*
X-3119140Y1248168D01*
X-3114258Y1242349D01*
X-3109978Y1236073D01*
X-3106346Y1229403D01*
X-3103394Y1222402D01*
X-3101157Y1215143D01*
X-3099650Y1207696D01*
X-3098893Y1200137D01*
X-3098893Y1192542D01*
X-3099650Y1184983D01*
X-3101157Y1177536D01*
X-3103394Y1170277D01*
X-3106346Y1163276D01*
X-3109978Y1156606D01*
X-3114258Y1150330D01*
X-3119140Y1144511D01*
X-3124578Y1139207D01*
X-3130519Y1134470D01*
X-3136900Y1130348D01*
X-3143658Y1126883D01*
X-3150730Y1124107D01*
X-3158042Y1122050D01*
X-3165525Y1120731D01*
X-3173100Y1120162D01*
X-3180694Y1120353D01*
X-3188230Y1121298D01*
X-3195637Y1122987D01*
X-3202838Y1125407D01*
X-3209762Y1128532D01*
X-3216341Y1132329D01*
X-3222510Y1136764D01*
X-3228205Y1141790D01*
X-3233371Y1147358D01*
X-3237958Y1153413D01*
X-3241921Y1159896D01*
X-3245215Y1166741D01*
X-3247814Y1173878D01*
X-3249688Y1181242D01*
X-3250821Y1188753D01*
X-3251200Y1196339D01*
X-3250821Y1203926D01*
X-3249688Y1211437D01*
X-3247814Y1218801D01*
X-3245215Y1225938D01*
X-3241921Y1232783D01*
X-3237958Y1239265D01*
X-3233371Y1245321D01*
X-3228205Y1250889D01*
X-3222510Y1255915D01*
X-3216341Y1260350D01*
X-3209762Y1264147D01*
X-3202838Y1267272D01*
X-3195637Y1269692D01*
X-3188230Y1271381D01*
X-3180694Y1272326D01*
G37*
G01*
X-3175000Y942339D03*
G01*
X-3429000Y1704339D03*
G01*
X-3175000Y1704339D03*
G01*
X-2921000Y1704339D03*
G36*
X-582300Y-979040D02*
G01*
X-574725Y-979609D01*
X-567242Y-980927D01*
X-559930Y-982985D01*
X-552858Y-985761D01*
X-546100Y-989225D01*
X-539719Y-993348D01*
X-533778Y-998085D01*
X-528340Y-1003388D01*
X-523458Y-1009208D01*
X-519178Y-1015484D01*
X-515546Y-1022154D01*
X-512594Y-1029154D01*
X-510357Y-1036413D01*
X-508850Y-1043861D01*
X-508093Y-1051420D01*
X-508093Y-1059014D01*
X-508850Y-1066573D01*
X-510357Y-1074021D01*
X-512594Y-1081280D01*
X-515546Y-1088280D01*
X-519178Y-1094950D01*
X-523458Y-1101227D01*
X-528340Y-1107046D01*
X-533778Y-1112349D01*
X-539719Y-1117086D01*
X-546100Y-1121209D01*
X-552858Y-1124673D01*
X-559930Y-1127450D01*
X-567242Y-1129507D01*
X-574725Y-1130825D01*
X-582300Y-1131394D01*
X-589894Y-1131204D01*
X-597430Y-1130259D01*
X-604837Y-1128570D01*
X-612038Y-1126149D01*
X-618962Y-1123025D01*
X-625541Y-1119228D01*
X-631710Y-1114793D01*
X-637405Y-1109766D01*
X-642571Y-1104198D01*
X-647158Y-1098143D01*
X-651121Y-1091661D01*
X-654415Y-1084816D01*
X-657014Y-1077678D01*
X-658888Y-1070315D01*
X-660021Y-1062804D01*
X-660400Y-1055217D01*
X-660021Y-1047630D01*
X-658888Y-1040119D01*
X-657014Y-1032756D01*
X-654415Y-1025618D01*
X-651121Y-1018773D01*
X-647158Y-1012291D01*
X-642571Y-1006236D01*
X-637405Y-1000668D01*
X-631710Y-995641D01*
X-625541Y-991207D01*
X-618962Y-987409D01*
X-612038Y-984285D01*
X-604837Y-981864D01*
X-597430Y-980175D01*
X-589894Y-979230D01*
G37*
G01*
X-584200Y-1309217D03*
D13*
G01*
X-1905000Y764539D03*
G01*
X-1905000Y637539D03*
G01*
X-2400300Y294639D03*
G01*
X-2400300Y40639D03*
G01*
X-2400300Y-213360D03*
G01*
X-2400300Y-467360D03*
G01*
X-3416300Y40639D03*
G01*
X-3416300Y-213360D03*
G01*
X-3416300Y-467360D03*
G01*
X-3378200Y332739D03*
G01*
X0Y878839D03*
G01*
X0Y510539D03*
G01*
X927100Y942339D03*
G01*
X1079500Y688339D03*
G01*
X4051300Y-988060D03*
G01*
X5854700Y-2830956D03*
G01*
X5854700Y-1840356D03*
G01*
X5854700Y-824356D03*
G01*
X5854700Y178943D03*
G01*
X4013200Y-2067560D03*
G01*
X3873500Y-2067560D03*
G01*
X3750894Y-2067560D03*
G01*
X3594100Y-2067560D03*
G01*
X3441700Y-2067560D03*
G01*
X3430904Y-1572260D03*
G01*
X2870911Y-1572260D03*
G01*
X3591686Y-3540760D03*
G01*
X3956684Y-3896360D03*
G01*
X2926689Y-3896360D03*
G01*
X3378200Y-3715765D03*
G01*
X3441700Y-2600960D03*
G01*
X4305300Y561339D03*
G01*
X4851400Y-1330960D03*
G01*
X5435600Y916939D03*
G01*
X5499100Y-201777D03*
G01*
X5499100Y-1191260D03*
G01*
X5499100Y-2207260D03*
G01*
X5765800Y-2600960D03*
G01*
X5765800Y-1610360D03*
G01*
X5765800Y-594360D03*
G01*
X5765800Y408939D03*
G01*
X2108200Y-86360D03*
G01*
X-2146300Y-1470660D03*
G01*
X-2146300Y-1724660D03*
G01*
X-2146300Y-1978660D03*
G01*
X-2146300Y-2232660D03*
G01*
X-3530600Y-1724660D03*
G01*
X-3530600Y-1978660D03*
G01*
X-3530600Y-2232660D03*
G01*
X-2806700Y-1978660D03*
G01*
X-2946400Y-3083560D03*
G01*
X-2146300Y393700D03*
G01*
X-2044700Y1094739D03*
G01*
X-2692400Y1056639D03*
G01*
X-1943100Y-2689860D03*
G01*
X-1943100Y-3225800D03*
G01*
X-1003300Y-3299460D03*
G01*
X-673100Y-3352800D03*
G01*
X139700Y-3070860D03*
G01*
X-27940Y-3070860D03*
G01*
X-1422400Y-2499360D03*
G01*
X-387350Y-3039110D03*
G01*
X-914400Y-2016760D03*
G01*
X-533400Y-2207260D03*
G01*
X-792479Y-2545080D03*
G01*
X-723900Y-1711960D03*
G01*
X-1536700Y-3172460D03*
G01*
X-1841500Y-3883660D03*
G01*
X-1103375Y-3489960D03*
G01*
X-1168400Y-3429000D03*
G01*
X-863600Y-2105660D03*
G01*
X-914400Y-2169160D03*
G01*
X-2870200Y-3299460D03*
G01*
X-3022600Y-3299460D03*
G01*
X-1143000Y-1826260D03*
G01*
X-1231900Y-1483360D03*
D14*
G01*
X-774700Y370839D03*
D13*
G01*
X0Y1143000D03*
G01*
X-1374140Y-822960D03*
G01*
X-190500Y269239D03*
G01*
X-279400Y307339D03*
G01*
X-1524000Y878839D03*
G01*
X264159Y1016000D03*
G01*
X0Y256539D03*
G01*
X0Y127000D03*
G01*
X0Y0D03*
G01*
X0Y-127000D03*
G01*
X0Y-254000D03*
G01*
X0Y-381000D03*
G01*
X-247650Y-933450D03*
G01*
X381000Y-2730500D03*
G01*
X50800Y-2717800D03*
G01*
X-165100Y-2717800D03*
G01*
X571500Y-2565400D03*
G01*
X419100Y-1270000D03*
G01*
X495300Y-1130300D03*
G01*
X495300Y-1397000D03*
G01*
X279400Y-1333500D03*
G01*
X50800Y-1066800D03*
G01*
X546100Y-1066800D03*
G01*
X-1130300Y-508000D03*
G01*
X-1752600Y-2882900D03*
G01*
X-863600Y-3134360D03*
G01*
X-990600Y-2552700D03*
G01*
X-304800Y-1964029D03*
G01*
X2235200Y800100D03*
G01*
X4279900Y-736600D03*
G01*
X5499100Y177800D03*
G01*
X5499100Y-825500D03*
G01*
X5499100Y-1841500D03*
G01*
X5499100Y-2832100D03*
G01*
X3302000Y-2222500D03*
G01*
X4000500Y-2667000D03*
G01*
X3136900Y-3543300D03*
G01*
X-749300Y-1915160D03*
G01*
X-1511300Y1016000D03*
G01*
X-279400Y1003300D03*
G01*
X-2755900Y647700D03*
G01*
X-2362200Y-3314700D03*
G01*
X-3556000Y-2946400D03*
G01*
X5448300Y558800D03*
G01*
X3162300Y561339D03*
D14*
G01*
X-774700Y469900D03*
G01*
X-774700Y571500D03*
G01*
X-774700Y266700D03*
G01*
X-774700Y152400D03*
G01*
X-660400Y152400D03*
G01*
X-660400Y266700D03*
G01*
X-660400Y370839D03*
G01*
X-660400Y469900D03*
G01*
X-660400Y571500D03*
G01*
X-889000Y152400D03*
G01*
X-889000Y266700D03*
G01*
X-889000Y370839D03*
G01*
X-889000Y469900D03*
G01*
X-889000Y571500D03*
G01*
X-546100Y571500D03*
G01*
X-546100Y469900D03*
G01*
X-546100Y370839D03*
G01*
X-546100Y266700D03*
G01*
X-546100Y152400D03*
G01*
X-1003300Y571500D03*
G01*
X-1003300Y469900D03*
G01*
X-1003300Y370839D03*
G01*
X-1003300Y266700D03*
G01*
X-1003300Y152400D03*
M02*
