G04 Layer: BottomPasteMaskLayer*
G04 EasyEDA v6.5.39, 2024-01-10 14:41:16*
G04 52a2ae1d1fff4fd0b89a8512cd0fdb0d,3d9c8b04885e45b7839bd8e85c0fd600,10*
G04 Gerber Generator version 0.2*
G04 Scale: 100 percent, Rotated: No, Reflected: No *
G04 Dimensions in millimeters *
G04 leading zeros omitted , absolute positions ,4 integer and 5 decimal *
%FSLAX45Y45*%
%MOMM*%

%AMMACRO1*21,1,$1,$2,0,0,$3*%
%AMMACRO2*4,1,4,0.4999,0.7,-0.4999,0.7,-0.4999,-0.7,0.4999,-0.7,0.4999,0.7,0*%
%AMMACRO3*4,1,4,0.5,0.7,-0.5,0.7,-0.5,-0.7,0.5,-0.7,0.5,0.7,0*%
%AMMACRO4*4,1,4,-0.7,0.4999,-0.7,-0.4999,0.7,-0.4999,0.7,0.4999,-0.7,0.4999,0*%
%AMMACRO5*4,1,4,-0.7,0.5,-0.7,-0.5,0.7,-0.5,0.7,0.5,-0.7,0.5,0*%
%ADD10C,17.7927*%
%ADD11MACRO1,2.5527X5.0927X0.0000*%
%ADD12MACRO1,1.3X1.3X-90.0000*%
%ADD13MACRO2*%
%ADD14MACRO3*%
%ADD15MACRO4*%
%ADD16MACRO5*%
%ADD17MACRO1,1.6002X0.5999X-90.0000*%
%ADD18MACRO1,0.6223X1.1049X0.0000*%
%ADD19MACRO1,0.5499X1X90.0000*%
%ADD20MACRO1,0.5502X1X90.0000*%
%ADD21O,0.7999984X0.2800096*%
%ADD22O,0.2800096X0.7999984*%
%ADD23MACRO1,2.6802X2.6802X0.0000*%
%ADD24O,2.1999956000000003X0.6999986*%
%ADD25O,1.5999968X0.635*%
%ADD26MACRO1,0.4013X1.3005X0.0000*%
%ADD27MACRO1,0.3998X1.3X0.0000*%
%ADD28MACRO1,0.3988X1.3005X0.0000*%
%ADD29MACRO1,2.9002X1.8999X0.0000*%
%ADD30MACRO1,1.0008X1.8999X0.0000*%
%ADD31MACRO1,1.0005X1.8999X0.0000*%
%ADD32MACRO1,1.0998X1.0008X90.0000*%
%ADD33MACRO1,1.0998X1.0008X0.0000*%
%ADD34MACRO1,1.0998X1.0008X-90.0000*%
%ADD35MACRO1,1X1.0998X-90.0000*%
%ADD36MACRO1,1X1.0998X90.0000*%
%ADD37MACRO1,1X1.0998X0.0000*%

%LPD*%
D10*
G01*
X4305300Y558800D03*
D11*
G01*
X3162300Y558800D03*
G01*
X5448300Y558800D03*
D12*
G01*
X-610692Y-3045460D03*
G01*
X-610692Y-2705455D03*
D13*
G01*
X3588004Y-2565273D03*
D14*
G01*
X3492995Y-2785262D03*
G01*
X3683012Y-2785262D03*
D15*
G01*
X-1453489Y-2981960D03*
D16*
G01*
X-1233500Y-3076968D03*
G01*
X-1233500Y-2886951D03*
D13*
G01*
X-1612900Y-1071270D03*
D14*
G01*
X-1707908Y-1291259D03*
G01*
X-1517891Y-1291259D03*
D13*
G01*
X-1270000Y-1071270D03*
D14*
G01*
X-1365008Y-1291259D03*
G01*
X-1174991Y-1291259D03*
D17*
G01*
X1981200Y1056639D03*
G01*
X2108200Y1056639D03*
G01*
X2235200Y1056639D03*
G01*
X2362200Y1056639D03*
G01*
X2489200Y1056639D03*
G01*
X2616200Y1056639D03*
G01*
X2743200Y1056639D03*
G01*
X2870200Y1056639D03*
G01*
X2870200Y40639D03*
G01*
X2743200Y40639D03*
G01*
X2616200Y40639D03*
G01*
X2489200Y40639D03*
G01*
X2362200Y40639D03*
G01*
X2235200Y40639D03*
G01*
X2108200Y40639D03*
G01*
X1981200Y40639D03*
D18*
G01*
X-622300Y-2327910D03*
G01*
X-528319Y-2327910D03*
G01*
X-431800Y-2327910D03*
G01*
X-434339Y-2048510D03*
G01*
X-622300Y-2048510D03*
D19*
G01*
X-1438592Y-3305568D03*
D20*
G01*
X-1438592Y-3115564D03*
G01*
X-1738591Y-3115564D03*
G01*
X-1738591Y-3210560D03*
D19*
G01*
X-1738591Y-3305568D03*
D21*
G01*
X-1017320Y-2005838D03*
G01*
X-1017320Y-2055876D03*
G01*
X-1017320Y-2105914D03*
G01*
X-1017320Y-2155697D03*
G01*
X-1017320Y-2205736D03*
G01*
X-1017320Y-2255773D03*
D22*
G01*
X-1092860Y-2329027D03*
G01*
X-1142898Y-2329027D03*
G01*
X-1192936Y-2329027D03*
G01*
X-1242720Y-2329027D03*
G01*
X-1292758Y-2329027D03*
G01*
X-1342796Y-2329027D03*
D21*
G01*
X-1417320Y-2254757D03*
G01*
X-1417320Y-2204720D03*
G01*
X-1417320Y-2154681D03*
G01*
X-1417320Y-2104897D03*
G01*
X-1417320Y-2054860D03*
G01*
X-1417320Y-2004822D03*
D22*
G01*
X-1344320Y-1929028D03*
G01*
X-1294282Y-1929028D03*
G01*
X-1244244Y-1929028D03*
G01*
X-1194460Y-1929028D03*
G01*
X-1144422Y-1929028D03*
G01*
X-1094384Y-1929028D03*
D23*
G01*
X-1217320Y-2130298D03*
D24*
G01*
X4851400Y-861060D03*
G01*
X4851400Y-988060D03*
G01*
X4851400Y-1115060D03*
G01*
X4851400Y-1242060D03*
G01*
X4246879Y-861060D03*
G01*
X4246879Y-988060D03*
G01*
X4246879Y-1115060D03*
G01*
X4246879Y-1242060D03*
D25*
G01*
X-3145307Y-594360D03*
G01*
X-3145307Y-467360D03*
G01*
X-3145307Y-340360D03*
G01*
X-3145307Y-213360D03*
G01*
X-3145307Y-86360D03*
G01*
X-3145307Y40639D03*
G01*
X-3145307Y167639D03*
G01*
X-3145307Y294639D03*
G01*
X-2535301Y294639D03*
G01*
X-2535301Y167639D03*
G01*
X-2535301Y40639D03*
G01*
X-2535301Y-86360D03*
G01*
X-2535301Y-213360D03*
G01*
X-2535301Y-340360D03*
G01*
X-2535301Y-467360D03*
G01*
X-2535301Y-594360D03*
G01*
X-2624201Y-1470660D03*
G01*
X-2624201Y-1597660D03*
G01*
X-2624201Y-1724660D03*
G01*
X-2624201Y-1851660D03*
G01*
X-2624201Y-1978660D03*
G01*
X-2624201Y-2105660D03*
G01*
X-2624201Y-2232660D03*
G01*
X-2624201Y-2359660D03*
G01*
X-3234207Y-2359660D03*
G01*
X-3234207Y-2232660D03*
G01*
X-3234207Y-2105660D03*
G01*
X-3234207Y-1978660D03*
G01*
X-3234207Y-1851660D03*
G01*
X-3234207Y-1724660D03*
G01*
X-3234207Y-1597660D03*
G01*
X-3234207Y-1470660D03*
D26*
G01*
X-1298447Y-3673475D03*
G01*
X-1233424Y-3673475D03*
D27*
G01*
X-1168400Y-3673475D03*
D26*
G01*
X-1103375Y-3673475D03*
D28*
G01*
X-1038479Y-3673475D03*
D29*
G01*
X-1168400Y-3941470D03*
D30*
G01*
X-918413Y-3941444D03*
D31*
G01*
X-1418399Y-3941444D03*
D32*
G01*
X1778000Y482600D03*
G01*
X1778000Y650239D03*
D33*
G01*
X4584700Y-683260D03*
G01*
X4417059Y-683260D03*
D32*
G01*
X3441700Y-2379980D03*
G01*
X3441700Y-2212339D03*
G01*
X-432892Y-2875280D03*
G01*
X-432892Y-2707639D03*
D34*
G01*
X-609600Y-1717039D03*
G01*
X-609600Y-1884680D03*
D32*
G01*
X-457200Y-1884680D03*
G01*
X-457200Y-1717039D03*
D34*
G01*
X-2058492Y-3058160D03*
G01*
X-2058492Y-3225800D03*
D32*
G01*
X-787400Y-2430780D03*
G01*
X-787400Y-2263139D03*
D33*
G01*
X-1315720Y-2499360D03*
G01*
X-1148079Y-2499360D03*
G01*
X-27940Y-3172460D03*
G01*
X139700Y-3172460D03*
D35*
G01*
X3594100Y-2382177D03*
G01*
X3594100Y-2202167D03*
G01*
X3733800Y-2382177D03*
G01*
X3733800Y-2202167D03*
G01*
X3873500Y-2382177D03*
G01*
X3873500Y-2202167D03*
G01*
X4013200Y-2382177D03*
G01*
X4013200Y-2202167D03*
D36*
G01*
X4013200Y-2790355D03*
G01*
X4013200Y-2970364D03*
G01*
X3848100Y-2791472D03*
G01*
X3848100Y-2971482D03*
D37*
G01*
X-494195Y-3238500D03*
G01*
X-674204Y-3238500D03*
G01*
X-622287Y-2486660D03*
G01*
X-442277Y-2486660D03*
D36*
G01*
X-2057400Y-2700337D03*
G01*
X-2057400Y-2880347D03*
G01*
X-1906092Y-2878162D03*
G01*
X-1906092Y-3058172D03*
D37*
G01*
X-1103795Y-3299460D03*
G01*
X-1283804Y-3299460D03*
G01*
X-1352283Y-1481759D03*
G01*
X-1532293Y-1481759D03*
G01*
X-1532293Y-1634159D03*
G01*
X-1352283Y-1634159D03*
G01*
X-100495Y510539D03*
G01*
X-280504Y510539D03*
G01*
X-100495Y878839D03*
G01*
X-280504Y878839D03*
G01*
X-2107095Y-467360D03*
G01*
X-2287104Y-467360D03*
G01*
X-2107095Y-213360D03*
G01*
X-2287104Y-213360D03*
G01*
X-2107095Y40639D03*
G01*
X-2287104Y40639D03*
G01*
X-2107095Y294639D03*
G01*
X-2287104Y294639D03*
G01*
X-3326295Y167639D03*
G01*
X-3506304Y167639D03*
G01*
X-3326295Y-86360D03*
G01*
X-3506304Y-86360D03*
G01*
X-3326295Y-340360D03*
G01*
X-3506304Y-340360D03*
G01*
X-3326295Y-594360D03*
G01*
X-3506304Y-594360D03*
G01*
X-2426804Y-1470660D03*
G01*
X-2246795Y-1470660D03*
G01*
X-2426804Y-1724660D03*
G01*
X-2246795Y-1724660D03*
G01*
X-2426804Y-1978660D03*
G01*
X-2246795Y-1978660D03*
G01*
X-2426804Y-2232660D03*
G01*
X-2246795Y-2232660D03*
G01*
X-3620604Y-2359660D03*
G01*
X-3440595Y-2359660D03*
G01*
X-3620604Y-2105660D03*
G01*
X-3440595Y-2105660D03*
G01*
X-3620604Y-1851660D03*
G01*
X-3440595Y-1851660D03*
G01*
X-3620604Y-1597660D03*
G01*
X-3440595Y-1597660D03*
M02*
