G04 Layer: BottomSolderMaskLayer*
G04 EasyEDA v6.5.39, 2024-01-10 14:41:16*
G04 52a2ae1d1fff4fd0b89a8512cd0fdb0d,3d9c8b04885e45b7839bd8e85c0fd600,10*
G04 Gerber Generator version 0.2*
G04 Scale: 100 percent, Rotated: No, Reflected: No *
G04 Dimensions in millimeters *
G04 leading zeros omitted , absolute positions ,4 integer and 5 decimal *
%FSLAX45Y45*%
%MOMM*%

%AMMACRO1*1,1,$1,$2,$3*1,1,$1,$4,$5*1,1,$1,0-$2,0-$3*1,1,$1,0-$4,0-$5*20,1,$1,$2,$3,$4,$5,0*20,1,$1,$4,$5,0-$2,0-$3,0*20,1,$1,0-$2,0-$3,0-$4,0-$5,0*20,1,$1,0-$4,0-$5,$2,$3,0*4,1,4,$2,$3,$4,$5,0-$2,0-$3,0-$4,0-$5,$2,$3,0*%
%AMMACRO2*4,1,4,-0.6015,-0.8016,-0.6015,0.8016,0.6015,0.8016,0.6015,-0.8016,-0.6015,-0.8016,0*%
%AMMACRO3*4,1,4,-0.6016,-0.8016,-0.6016,0.8016,0.6016,0.8016,0.6016,-0.8016,-0.6016,-0.8016,0*%
%AMMACRO4*4,1,4,-0.8016,-0.6015,-0.8016,0.6015,0.8016,0.6015,0.8016,-0.6015,-0.8016,-0.6015,0*%
%AMMACRO5*4,1,4,-0.8016,-0.6016,-0.8016,0.6016,0.8016,0.6016,0.8016,-0.6016,-0.8016,-0.6016,0*%
%ADD10C,17.9959*%
%ADD11MACRO1,0.2032X-1.2763X-2.5464X1.2763X-2.5464*%
%ADD12R,1.5032X1.5032*%
%ADD13MACRO2*%
%ADD14MACRO3*%
%ADD15MACRO4*%
%ADD16MACRO5*%
%ADD17R,0.8032X1.8032*%
%ADD18MACRO1,0.2032X0.3111X-0.5524X-0.3111X-0.5524*%
%ADD19MACRO1,0.2032X0.3112X-0.5524X-0.3112X-0.5524*%
%ADD20MACRO1,0.2032X0.5X-0.275X0.5X0.275*%
%ADD21O,1.0031984X0.4832096*%
%ADD22O,0.4832096X1.0031984*%
%ADD23MACRO1,0.2032X1.3401X1.3401X-1.3401X1.3401*%
%ADD24O,2.4031956000000005X0.9031986000000001*%
%ADD25O,1.8031968X0.8382*%
%ADD26MACRO1,0.2032X0.2007X0.6502X-0.2007X0.6502*%
%ADD27MACRO1,0.2032X0.1999X0.65X-0.1999X0.65*%
%ADD28MACRO1,0.2032X0.1994X0.6502X-0.1994X0.6502*%
%ADD29MACRO1,0.2032X1.4501X0.95X-1.4501X0.95*%
%ADD30MACRO1,0.2032X0.5004X0.95X-0.5004X0.95*%
%ADD31O,1.4030960000000001X1.8031968*%
%ADD32O,1.4030960000000001X2.1031962*%
%ADD33MACRO1,0.2032X0.5004X-0.5499X0.5004X0.5499*%
%ADD34MACRO1,0.2032X0.5499X0.5004X-0.5499X0.5004*%
%ADD35R,1.2040X1.3030*%
%ADD36MACRO1,0.2032X-0.5499X-0.5004X0.5499X-0.5004*%
%ADD37R,1.3032X1.2032*%
%ADD38MACRO1,0.2032X0.55X-0.5X0.55X0.5*%
%ADD39MACRO1,0.2032X-0.5X-0.55X0.5X-0.55*%
%ADD40MACRO1,0.2032X0.5X0.55X-0.5X0.55*%
%ADD41C,1.7272*%
%ADD42C,0.0151*%

%LPD*%
D10*
G01*
X4305300Y558800D03*
D11*
G01*
X3162300Y558800D03*
G01*
X5448300Y558800D03*
D12*
G01*
X-610692Y-3045460D03*
G01*
X-610692Y-2705455D03*
D13*
G01*
X3588003Y-2565273D03*
D14*
G01*
X3492995Y-2785262D03*
G01*
X3683012Y-2785262D03*
D15*
G01*
X-1453489Y-2981960D03*
D16*
G01*
X-1233500Y-3076968D03*
G01*
X-1233500Y-2886951D03*
D13*
G01*
X-1612900Y-1071270D03*
D14*
G01*
X-1707908Y-1291259D03*
G01*
X-1517891Y-1291259D03*
D13*
G01*
X-1270000Y-1071270D03*
D14*
G01*
X-1365008Y-1291259D03*
G01*
X-1174991Y-1291259D03*
D17*
G01*
X1981200Y1056639D03*
G01*
X2108200Y1056639D03*
G01*
X2235200Y1056639D03*
G01*
X2362200Y1056639D03*
G01*
X2489200Y1056639D03*
G01*
X2616200Y1056639D03*
G01*
X2743200Y1056639D03*
G01*
X2870200Y1056639D03*
G01*
X2870200Y40639D03*
G01*
X2743200Y40639D03*
G01*
X2616200Y40639D03*
G01*
X2489200Y40639D03*
G01*
X2362200Y40639D03*
G01*
X2235200Y40639D03*
G01*
X2108200Y40639D03*
G01*
X1981200Y40639D03*
D18*
G01*
X-622294Y-2327912D03*
G01*
X-528314Y-2327912D03*
D19*
G01*
X-431800Y-2327912D03*
G01*
X-434334Y-2048512D03*
D18*
G01*
X-622294Y-2048512D03*
D20*
G01*
X-1438592Y-3305559D03*
G01*
X-1438592Y-3115560D03*
G01*
X-1738591Y-3115560D03*
G01*
X-1738591Y-3210560D03*
G01*
X-1738591Y-3305559D03*
D21*
G01*
X-1017320Y-2005838D03*
G01*
X-1017320Y-2055876D03*
G01*
X-1017320Y-2105914D03*
G01*
X-1017320Y-2155697D03*
G01*
X-1017320Y-2205736D03*
G01*
X-1017320Y-2255773D03*
D22*
G01*
X-1092860Y-2329027D03*
G01*
X-1142898Y-2329027D03*
G01*
X-1192936Y-2329027D03*
G01*
X-1242720Y-2329027D03*
G01*
X-1292758Y-2329027D03*
G01*
X-1342796Y-2329027D03*
D21*
G01*
X-1417320Y-2254757D03*
G01*
X-1417320Y-2204720D03*
G01*
X-1417320Y-2154681D03*
G01*
X-1417320Y-2104897D03*
G01*
X-1417320Y-2054860D03*
G01*
X-1417320Y-2004822D03*
D22*
G01*
X-1344320Y-1929028D03*
G01*
X-1294282Y-1929028D03*
G01*
X-1244244Y-1929028D03*
G01*
X-1194460Y-1929028D03*
G01*
X-1144422Y-1929028D03*
G01*
X-1094384Y-1929028D03*
D23*
G01*
X-1217320Y-2130298D03*
D24*
G01*
X4851400Y-861060D03*
G01*
X4851400Y-988060D03*
G01*
X4851400Y-1115060D03*
G01*
X4851400Y-1242060D03*
G01*
X4246879Y-861060D03*
G01*
X4246879Y-988060D03*
G01*
X4246879Y-1115060D03*
G01*
X4246879Y-1242060D03*
D25*
G01*
X-3145307Y-594360D03*
G01*
X-3145307Y-467360D03*
G01*
X-3145307Y-340360D03*
G01*
X-3145307Y-213360D03*
G01*
X-3145307Y-86360D03*
G01*
X-3145307Y40639D03*
G01*
X-3145307Y167639D03*
G01*
X-3145307Y294639D03*
G01*
X-2535301Y294639D03*
G01*
X-2535301Y167639D03*
G01*
X-2535301Y40639D03*
G01*
X-2535301Y-86360D03*
G01*
X-2535301Y-213360D03*
G01*
X-2535301Y-340360D03*
G01*
X-2535301Y-467360D03*
G01*
X-2535301Y-594360D03*
G01*
X-2624201Y-1470660D03*
G01*
X-2624201Y-1597660D03*
G01*
X-2624201Y-1724660D03*
G01*
X-2624201Y-1851660D03*
G01*
X-2624201Y-1978660D03*
G01*
X-2624201Y-2105660D03*
G01*
X-2624201Y-2232660D03*
G01*
X-2624201Y-2359660D03*
G01*
X-3234207Y-2359660D03*
G01*
X-3234207Y-2232660D03*
G01*
X-3234207Y-2105660D03*
G01*
X-3234207Y-1978660D03*
G01*
X-3234207Y-1851660D03*
G01*
X-3234207Y-1724660D03*
G01*
X-3234207Y-1597660D03*
G01*
X-3234207Y-1470660D03*
D26*
G01*
X-1298447Y-3673462D03*
G01*
X-1233424Y-3673462D03*
D27*
G01*
X-1168400Y-3673462D03*
D26*
G01*
X-1103375Y-3673462D03*
D28*
G01*
X-1038479Y-3673462D03*
D29*
G01*
X-1168400Y-3941457D03*
D30*
G01*
X-918425Y-3941432D03*
G01*
X-1418399Y-3941432D03*
D31*
G01*
X-918463Y-3673475D03*
G01*
X-1418336Y-3673475D03*
D32*
G01*
X-1518411Y-3941445D03*
G01*
X-818388Y-3941445D03*
D33*
G01*
X1778000Y482600D03*
G01*
X1778000Y650239D03*
D34*
G01*
X4584700Y-683260D03*
G01*
X4417059Y-683260D03*
D33*
G01*
X3441700Y-2379980D03*
G01*
X3441700Y-2212339D03*
G01*
X-432897Y-2875280D03*
G01*
X-432897Y-2707639D03*
D35*
G01*
X-609600Y-1717039D03*
G01*
X-609600Y-1884680D03*
D33*
G01*
X-457200Y-1884680D03*
G01*
X-457200Y-1717039D03*
D35*
G01*
X-2058492Y-3058160D03*
G01*
X-2058492Y-3225800D03*
D33*
G01*
X-787400Y-2430780D03*
G01*
X-787400Y-2263139D03*
D36*
G01*
X-1315720Y-2499360D03*
G01*
X-1148079Y-2499360D03*
G01*
X-27940Y-3172460D03*
G01*
X139700Y-3172460D03*
D37*
G01*
X3594100Y-2382189D03*
G01*
X3594100Y-2202180D03*
G01*
X3733800Y-2382189D03*
G01*
X3733800Y-2202180D03*
G01*
X3873500Y-2382189D03*
G01*
X3873500Y-2202180D03*
G01*
X4013200Y-2382189D03*
G01*
X4013200Y-2202180D03*
D38*
G01*
X4013200Y-2790355D03*
G01*
X4013200Y-2970364D03*
G01*
X3848100Y-2791462D03*
G01*
X3848100Y-2971472D03*
D39*
G01*
X-494195Y-3238500D03*
G01*
X-674204Y-3238500D03*
D40*
G01*
X-622287Y-2486660D03*
G01*
X-442277Y-2486660D03*
D38*
G01*
X-2057400Y-2700337D03*
G01*
X-2057400Y-2880347D03*
G01*
X-1906092Y-2878162D03*
G01*
X-1906092Y-3058172D03*
D39*
G01*
X-1103795Y-3299460D03*
G01*
X-1283804Y-3299460D03*
G01*
X-1352283Y-1481759D03*
G01*
X-1532293Y-1481759D03*
D40*
G01*
X-1532293Y-1634159D03*
G01*
X-1352283Y-1634159D03*
D39*
G01*
X-100495Y510539D03*
G01*
X-280504Y510539D03*
G01*
X-100495Y878839D03*
G01*
X-280504Y878839D03*
G01*
X-2107095Y-467360D03*
G01*
X-2287104Y-467360D03*
G01*
X-2107095Y-213360D03*
G01*
X-2287104Y-213360D03*
G01*
X-2107095Y40639D03*
G01*
X-2287104Y40639D03*
G01*
X-2107095Y294639D03*
G01*
X-2287104Y294639D03*
G01*
X-3326295Y167639D03*
G01*
X-3506304Y167639D03*
G01*
X-3326295Y-86360D03*
G01*
X-3506304Y-86360D03*
G01*
X-3326295Y-340360D03*
G01*
X-3506304Y-340360D03*
G01*
X-3326295Y-594360D03*
G01*
X-3506304Y-594360D03*
D40*
G01*
X-2426804Y-1470660D03*
G01*
X-2246795Y-1470660D03*
G01*
X-2426804Y-1724660D03*
G01*
X-2246795Y-1724660D03*
G01*
X-2426804Y-1978660D03*
G01*
X-2246795Y-1978660D03*
G01*
X-2426804Y-2232660D03*
G01*
X-2246795Y-2232660D03*
G01*
X-3620604Y-2359660D03*
G01*
X-3440595Y-2359660D03*
G01*
X-3620604Y-2105660D03*
G01*
X-3440595Y-2105660D03*
G01*
X-3620604Y-1851660D03*
G01*
X-3440595Y-1851660D03*
G01*
X-3620604Y-1597660D03*
G01*
X-3440595Y-1597660D03*
D41*
G01*
X-2667000Y1704339D03*
G01*
X-2413000Y1704339D03*
G01*
X-2159000Y1704339D03*
G36*
X-2671267Y-3969918D02*
G01*
X-2679877Y-3969080D01*
X-2688310Y-3967353D01*
X-2696540Y-3964813D01*
X-2704490Y-3961485D01*
X-2712034Y-3957345D01*
X-2719146Y-3952494D01*
X-2725724Y-3946982D01*
X-2731744Y-3940810D01*
X-2737129Y-3934079D01*
X-2741803Y-3926839D01*
X-2745714Y-3919194D01*
X-2748864Y-3911193D01*
X-2751201Y-3902887D01*
X-2752699Y-3894404D01*
X-2753334Y-3885819D01*
X-2753131Y-3877208D01*
X-2752039Y-3868648D01*
X-2750159Y-3860292D01*
X-2747416Y-3852113D01*
X-2743860Y-3844239D01*
X-2739542Y-3836771D01*
X-2734513Y-3829837D01*
X-2728848Y-3823335D01*
X-2722498Y-3817493D01*
X-2715666Y-3812286D01*
X-2708300Y-3807790D01*
X-2700528Y-3804081D01*
X-2692450Y-3801110D01*
X-2684094Y-3799001D01*
X-2675610Y-3797731D01*
X-2667000Y-3797274D01*
X-2658389Y-3797731D01*
X-2649905Y-3799001D01*
X-2641549Y-3801110D01*
X-2633471Y-3804081D01*
X-2625699Y-3807790D01*
X-2618333Y-3812286D01*
X-2611501Y-3817493D01*
X-2605151Y-3823335D01*
X-2599461Y-3829837D01*
X-2594457Y-3836771D01*
X-2590139Y-3844239D01*
X-2586583Y-3852113D01*
X-2583840Y-3860292D01*
X-2581960Y-3868648D01*
X-2580868Y-3877208D01*
X-2580665Y-3885819D01*
X-2581300Y-3894404D01*
X-2582798Y-3902887D01*
X-2585110Y-3911168D01*
X-2588260Y-3919194D01*
X-2592196Y-3926865D01*
X-2596870Y-3934079D01*
X-2602255Y-3940810D01*
X-2608249Y-3946982D01*
X-2614853Y-3952494D01*
X-2621965Y-3957345D01*
X-2629509Y-3961485D01*
X-2637459Y-3964813D01*
X-2645689Y-3967353D01*
X-2654122Y-3969080D01*
X-2662707Y-3969918D01*
G37*
G01*
X-2921000Y-3883660D03*
G01*
X762000Y434339D03*
G01*
X762000Y688339D03*
G01*
X762000Y942339D03*
G01*
X762000Y1196339D03*
G01*
X749300Y-632460D03*
G01*
X749300Y-378460D03*
G01*
X749300Y-124460D03*
G01*
X749300Y129539D03*
G01*
X495300Y-632460D03*
G01*
X495300Y-378460D03*
G01*
X495300Y-124460D03*
G01*
X495300Y129539D03*
G01*
X508000Y434339D03*
G01*
X508000Y688339D03*
G01*
X508000Y942339D03*
G01*
X508000Y1196339D03*
G01*
X-3937000Y-581660D03*
G01*
X-3937000Y-327660D03*
G01*
X-3937000Y-73660D03*
G01*
X-3937000Y180339D03*
G01*
X-3937000Y434339D03*
G01*
X-3937000Y688339D03*
G01*
X-3937000Y942339D03*
G01*
X-3937000Y1196339D03*
G01*
X-3937000Y-1089660D03*
G01*
X-3937000Y-1343660D03*
G01*
X-3937000Y-1597660D03*
G01*
X-3937000Y-1851660D03*
G01*
X-3937000Y-2105660D03*
G01*
X-3937000Y-2359660D03*
G01*
X-3937000Y-2613660D03*
G01*
X-3937000Y-2867660D03*
G36*
X-3172840Y1110005D02*
G01*
X-3181451Y1110208D01*
X-3190011Y1111300D01*
X-3198368Y1113180D01*
X-3206546Y1115923D01*
X-3214420Y1119479D01*
X-3221888Y1123797D01*
X-3228822Y1128801D01*
X-3235325Y1134490D01*
X-3241167Y1140840D01*
X-3246373Y1147673D01*
X-3250869Y1155039D01*
X-3254578Y1162811D01*
X-3257550Y1170889D01*
X-3259658Y1179245D01*
X-3260928Y1187729D01*
X-3261385Y1196339D01*
X-3260928Y1204950D01*
X-3259658Y1213434D01*
X-3257550Y1221790D01*
X-3254578Y1229868D01*
X-3250869Y1237640D01*
X-3246373Y1245006D01*
X-3241167Y1251838D01*
X-3235325Y1258188D01*
X-3228822Y1263853D01*
X-3221888Y1268882D01*
X-3214420Y1273200D01*
X-3206546Y1276756D01*
X-3198368Y1279499D01*
X-3190011Y1281379D01*
X-3181451Y1282471D01*
X-3172840Y1282674D01*
X-3164255Y1282039D01*
X-3155772Y1280540D01*
X-3147466Y1278204D01*
X-3139465Y1275054D01*
X-3131820Y1271143D01*
X-3124580Y1266469D01*
X-3117850Y1261084D01*
X-3111677Y1255064D01*
X-3106165Y1248486D01*
X-3101314Y1241374D01*
X-3097174Y1233830D01*
X-3093846Y1225880D01*
X-3091306Y1217650D01*
X-3089579Y1209217D01*
X-3088741Y1200607D01*
X-3088741Y1192047D01*
X-3089579Y1183462D01*
X-3091306Y1175029D01*
X-3093846Y1166799D01*
X-3097174Y1158849D01*
X-3101314Y1151305D01*
X-3106165Y1144193D01*
X-3111677Y1137589D01*
X-3117850Y1131595D01*
X-3124580Y1126210D01*
X-3131794Y1121536D01*
X-3139465Y1117600D01*
X-3147491Y1114450D01*
X-3155772Y1112138D01*
X-3164255Y1110640D01*
G37*
G01*
X-3175000Y942339D03*
G01*
X-3429000Y1704339D03*
G01*
X-3175000Y1704339D03*
G01*
X-2921000Y1704339D03*
G36*
X-582040Y-1141552D02*
G01*
X-590651Y-1141348D01*
X-599211Y-1140256D01*
X-607568Y-1138377D01*
X-615746Y-1135634D01*
X-623620Y-1132078D01*
X-631088Y-1127760D01*
X-638022Y-1122756D01*
X-644525Y-1117066D01*
X-650366Y-1110716D01*
X-655574Y-1103884D01*
X-660069Y-1096518D01*
X-663778Y-1088745D01*
X-666750Y-1080668D01*
X-668858Y-1072311D01*
X-670128Y-1063828D01*
X-670585Y-1055217D01*
X-670128Y-1046606D01*
X-668858Y-1038123D01*
X-666750Y-1029766D01*
X-663778Y-1021689D01*
X-660069Y-1013917D01*
X-655574Y-1006551D01*
X-650366Y-999718D01*
X-644525Y-993368D01*
X-638022Y-987704D01*
X-631088Y-982675D01*
X-623620Y-978357D01*
X-615746Y-974801D01*
X-607568Y-972057D01*
X-599211Y-970178D01*
X-590651Y-969086D01*
X-582040Y-968882D01*
X-573455Y-969518D01*
X-564972Y-971016D01*
X-556666Y-973353D01*
X-548665Y-976503D01*
X-541020Y-980414D01*
X-533781Y-985088D01*
X-527050Y-990472D01*
X-520877Y-996492D01*
X-515365Y-1003071D01*
X-510514Y-1010183D01*
X-506374Y-1017727D01*
X-503047Y-1025677D01*
X-500506Y-1033906D01*
X-498779Y-1042339D01*
X-497941Y-1050950D01*
X-497941Y-1059510D01*
X-498779Y-1068095D01*
X-500506Y-1076528D01*
X-503047Y-1084757D01*
X-506374Y-1092707D01*
X-510514Y-1100251D01*
X-515365Y-1107363D01*
X-520877Y-1113967D01*
X-527050Y-1119962D01*
X-533781Y-1125347D01*
X-540994Y-1130020D01*
X-548665Y-1133957D01*
X-556691Y-1137107D01*
X-564972Y-1139418D01*
X-573455Y-1140917D01*
G37*
G01*
X-584200Y-1309217D03*
M02*
