G04 Layer: BottomSilkscreenLayer*
G04 EasyEDA v6.5.39, 2024-01-10 14:41:16*
G04 52a2ae1d1fff4fd0b89a8512cd0fdb0d,3d9c8b04885e45b7839bd8e85c0fd600,10*
G04 Gerber Generator version 0.2*
G04 Scale: 100 percent, Rotated: No, Reflected: No *
G04 Dimensions in millimeters *
G04 leading zeros omitted , absolute positions ,4 integer and 5 decimal *
%FSLAX45Y45*%
%MOMM*%

%ADD10C,0.2540*%
%ADD11C,0.2000*%

%LPD*%
G36*
X-956614Y-1893824D02*
G01*
X-960780Y-1894433D01*
X-964793Y-1895856D01*
X-968400Y-1897989D01*
X-971550Y-1900732D01*
X-974140Y-1904085D01*
X-975969Y-1907895D01*
X-977087Y-1911908D01*
X-977442Y-1916125D01*
X-976934Y-1920290D01*
X-975664Y-1924304D01*
X-973632Y-1928012D01*
X-970889Y-1931263D01*
X-967638Y-1933905D01*
X-963930Y-1935886D01*
X-959866Y-1937105D01*
X-955700Y-1937512D01*
X-953363Y-1937410D01*
X-949198Y-1936597D01*
X-945337Y-1934972D01*
X-941832Y-1932635D01*
X-938784Y-1929688D01*
X-936447Y-1926234D01*
X-934770Y-1922373D01*
X-933856Y-1918258D01*
X-933754Y-1914042D01*
X-934516Y-1909876D01*
X-935990Y-1905965D01*
X-938225Y-1902358D01*
X-941120Y-1899310D01*
X-944524Y-1896821D01*
X-948334Y-1895043D01*
X-952398Y-1894027D01*
G37*
D10*
X-610697Y-2857677D02*
G01*
X-651337Y-2916097D01*
X-651337Y-2916097D02*
G01*
X-570057Y-2916097D01*
X-570057Y-2916097D02*
G01*
X-610697Y-2857677D01*
X-661497Y-2834817D02*
G01*
X-559897Y-2834817D01*
X1910699Y173636D02*
G01*
X2940700Y173639D01*
X2940700Y923643D02*
G01*
X1910699Y923643D01*
X1910699Y923643D02*
G01*
X1910699Y675639D01*
X1910699Y173636D02*
G01*
X1910699Y421639D01*
X2940700Y173636D02*
G01*
X2940700Y923640D01*
D11*
X-1002309Y-1955292D02*
G01*
X-1002309Y-1915287D01*
X-1042314Y-1915287D01*
X-1392326Y-1915287D02*
G01*
X-1432331Y-1915287D01*
X-1432331Y-1955292D01*
X-1392326Y-2345309D02*
G01*
X-1432331Y-2345309D01*
X-1432331Y-2305304D01*
X-1042314Y-2345309D02*
G01*
X-1002309Y-2345309D01*
X-1002309Y-2305304D01*
D10*
X4709159Y-810260D02*
G01*
X4709159Y-1292860D01*
X4394200Y-1292860D01*
X4394200Y-810260D01*
X4394200Y-810260D02*
G01*
X4488179Y-810260D01*
X4615179Y-810260D02*
G01*
X4709159Y-810260D01*
X-2789301Y-664870D02*
G01*
X-2652293Y-664870D01*
X-2652293Y365150D01*
X-3028314Y365150D01*
X-3028314Y-664870D01*
X-2890901Y-664870D01*
X-2980207Y-1400149D02*
G01*
X-3117214Y-1400149D01*
X-3117214Y-2430170D01*
X-2741193Y-2430170D01*
X-2741193Y-1400149D01*
X-2878607Y-1400149D01*
G75*
G01*
X1910700Y421640D02*
G03*
X1910588Y675640I-56J127000D01*
G75*
G01*
X4488180Y-810260D02*
G03*
X4615180Y-810260I63500J0D01*
G75*
G01*
X-2789304Y-664858D02*
G03*
X-2890904Y-664858I-50800J0D01*
G75*
G01*
X-2980205Y-1400162D02*
G03*
X-2878605Y-1400162I50800J0D01*
M02*
