M48
METRIC,LZ,000.000
;FILE_FORMAT=3:3
;TYPE=PLATED
;Layer: PTH_Through_Via
;EasyEDA v6.5.39, 2023-12-28 21:15:06
;35ff57de02ea422eb169f7c644e1f47a,fc83978cdc934b7da63e149a84a413c2,10
;Gerber Generator version 0.2
;Holesize 1 = 0.305 mm
T01C0.305
%
G05
G90
T01
X049851Y-011054
X054351Y-020709
X044135Y-009812
X041784Y-010821
X013970Y-009803
X058794Y-020479
X020799Y-025395
X044659Y-019244
X051644Y-020461
X053894Y-008980
X035787Y-017745
X018846Y-023884
X026034Y-029365
X050502Y-020352
X040799Y-014268
X021880Y-015803
X021365Y-007582
X052900Y-010289
X061564Y-019299
X047280Y-010168
X042475Y-018012
X023837Y-012216
X020756Y-017169
X047591Y-018153
X044520Y-017878
X038952Y-010459
X055653Y-012724
X043603Y-010384
X023845Y-014807
X039210Y-006697
X043748Y-017764
X018824Y-021628
X026504Y-024380
X035787Y-013922
X039271Y-008623
X043455Y-015294
X038419Y-006714
X056565Y-016638
X062385Y-015349
X053996Y-011700
X023503Y-009999
X029572Y-017949
X023859Y-016784
X047561Y-019266
X042543Y-005071
X065194Y-014756
X066594Y-014675
X023416Y-020577
X021729Y-023778
X063574Y-019799
X054620Y-017811
X055960Y-025605
X037881Y-025561
X047363Y-022093
X015717Y-019464
X030447Y-012659
X047016Y-013544
X028416Y-013930
X055675Y-013574
X026724Y-015889
X048399Y-014682
X030272Y-014899
X054095Y-014238
X024493Y-025394
X034410Y-027848
X060494Y-017770
X042480Y-016303
X054927Y-016694
X051460Y-007931
X041218Y-013009
X051170Y-013361
X020002Y-021851
X038767Y-022886
X047479Y-012051
X042174Y-011966
X050558Y-021556
X054576Y-021556
X065708Y-016330
X055683Y-021014
X062294Y-016256
X069533Y-009674
X042494Y-014120
X046740Y-020154
X058333Y-006297
X059050Y-027999
X033977Y-025395
X017892Y-025395
X036977Y-007117
X046753Y-020923
X044594Y-016461
X032808Y-016520
X027423Y-026181
X027453Y-028729
X055880Y-018113
X014746Y-009856
X053444Y-027353
X035214Y-028859
X049526Y-014692
X048717Y-008595
X027422Y-008218
X048724Y-011053
X041003Y-010916
X066753Y-012201
X066676Y-015555
X019656Y-025150
X026521Y-025930
X020938Y-017933
X020540Y-024407
X055726Y-024381
X031519Y-026467
X047997Y-020659
X044056Y-020729
X054015Y-012839
X043357Y-006796
X044524Y-011514
X056195Y-009744
X039597Y-014364
X021101Y-014465
X044653Y-021558
X056608Y-019730
X044659Y-020244
M30
