M48
METRIC,LZ,000.000
;FILE_FORMAT=3:3
;TYPE=PLATED
;Layer: PTH_Through
;EasyEDA v6.5.39, 2023-12-11 18:00:09
;fc83978cdc934b7da63e149a84a413c2,10
;Gerber Generator version 0.2
;Holesize 1 = 0.254 mm
T01C0.254
;Holesize 2 = 0.701 mm
T02C0.701
;Holesize 3 = 0.730 mm
T03C0.730
%
G05
G90
T01
X047463Y-018979
X056123Y-014824
X056861Y-013069
X047999Y-023342
X051617Y-011892
X010838Y-014264
X025064Y-010450
X009097Y-012148
X009564Y-016682
X018666Y-015183
X021958Y-011793
X003344Y-007426
X003676Y-015894
X005891Y-013664
X041185Y-029972
X028255Y-017533
X028812Y-019537
X033521Y-018308
X027556Y-015647
X040588Y-017608
X032371Y-017607
X006102Y-017466
X019224Y-008053
X028451Y-008392
X015941Y-008540
X034075Y-021234
X033512Y-020848
X009977Y-012632
X029908Y-014110
X041830Y-012738
X012719Y-017960
X028883Y-024380
X057521Y-011483
X046090Y-023572
X029214Y-023572
X008874Y-025386
X024236Y-027592
X029588Y-027302
X048295Y-026588
X020232Y-028355
X029518Y-033884
X050538Y-033611
X049361Y-032149
X052818Y-032149
X013445Y-013563
X016435Y-010568
X027598Y-020147
X039878Y-018733
X031078Y-019172
X043044Y-035538
X022542Y-022202
X040359Y-033287
X054268Y-034217
X022535Y-021494
X037750Y-032717
X055868Y-034234
X020812Y-020908
X052806Y-030647
X049347Y-034229
X030382Y-027360
X013344Y-012650
T02
X050798Y-036285G85X050798Y-035285
X059438Y-036285G85X059438Y-035285
X059438Y-040315G85X059438Y-039615
X050798Y-040315G85X050798Y-039615
T03
X022857Y-003048G85X022863Y-003048
X022857Y-005588G85X022863Y-005588
X022857Y-008128G85X022863Y-008128
X022857Y-010668G85X022863Y-010668
X022857Y-013208G85X022863Y-013208
X022857Y-015748G85X022863Y-015748
X030477Y-015748G85X030483Y-015748
X030477Y-013208G85X030483Y-013208
X030477Y-010668G85X030483Y-010668
X030477Y-008128G85X030483Y-008128
X030477Y-005588G85X030483Y-005588
X030477Y-003048G85X030483Y-003048
X035557Y-003048G85X035563Y-003048
X035557Y-005588G85X035563Y-005588
X035557Y-008128G85X035563Y-008128
X035557Y-010668G85X035563Y-010668
X035557Y-013208G85X035563Y-013208
X035557Y-015748G85X035563Y-015748
X043177Y-015748G85X043183Y-015748
X043177Y-013208G85X043183Y-013208
X043177Y-010668G85X043183Y-010668
X043177Y-008128G85X043183Y-008128
X043177Y-005588G85X043183Y-005588
X043177Y-003048G85X043183Y-003048
M30
