G04 Layer: TopPasteMaskLayer*
G04 EasyEDA v6.5.39, 2023-12-11 18:00:09*
G04 fc83978cdc934b7da63e149a84a413c2,10*
G04 Gerber Generator version 0.2*
G04 Scale: 100 percent, Rotated: No, Reflected: No *
G04 Dimensions in millimeters *
G04 leading zeros omitted , absolute positions ,4 integer and 5 decimal *
%FSLAX45Y45*%
%MOMM*%

%AMMACRO1*21,1,$1,$2,0,0,$3*%
%ADD10MACRO1,5X4X0.0000*%
%ADD11R,0.4999X0.5799*%
%ADD12R,0.4999X0.4999*%

%LPD*%
G36*
X5590387Y-3128822D02*
G01*
X5586425Y-3132836D01*
X5586425Y-3182874D01*
X5590387Y-3186887D01*
X5636412Y-3186887D01*
X5640425Y-3182874D01*
X5640425Y-3132836D01*
X5636412Y-3128822D01*
G37*
G36*
X5590387Y-3213912D02*
G01*
X5586425Y-3217875D01*
X5586425Y-3267964D01*
X5590387Y-3271977D01*
X5636412Y-3271977D01*
X5640425Y-3267964D01*
X5640425Y-3217875D01*
X5636412Y-3213912D01*
G37*
G36*
X5488787Y-3213912D02*
G01*
X5484825Y-3217875D01*
X5484825Y-3267964D01*
X5488787Y-3271977D01*
X5534812Y-3271977D01*
X5538825Y-3267964D01*
X5538825Y-3217875D01*
X5534812Y-3213912D01*
G37*
G36*
X5488787Y-3128822D02*
G01*
X5484825Y-3132836D01*
X5484825Y-3182874D01*
X5488787Y-3186887D01*
X5534812Y-3186887D01*
X5538825Y-3182874D01*
X5538825Y-3132836D01*
X5534812Y-3128822D01*
G37*
G36*
X5321808Y-3464356D02*
G01*
X5321808Y-3579368D01*
X5351780Y-3579368D01*
X5351780Y-3464356D01*
G37*
G36*
X5621782Y-3464356D02*
G01*
X5621782Y-3579368D01*
X5651754Y-3579368D01*
X5651754Y-3464356D01*
G37*
G36*
X5161788Y-3464458D02*
G01*
X5161788Y-3579469D01*
X5221782Y-3579469D01*
X5221782Y-3464458D01*
G37*
G36*
X5521807Y-3464458D02*
G01*
X5521807Y-3579469D01*
X5551779Y-3579469D01*
X5551779Y-3464458D01*
G37*
G36*
X5571794Y-3464458D02*
G01*
X5571794Y-3579469D01*
X5601817Y-3579469D01*
X5601817Y-3464458D01*
G37*
G36*
X5471820Y-3464458D02*
G01*
X5471820Y-3579469D01*
X5501792Y-3579469D01*
X5501792Y-3464458D01*
G37*
G36*
X5671820Y-3464458D02*
G01*
X5671820Y-3579469D01*
X5701792Y-3579469D01*
X5701792Y-3464458D01*
G37*
G36*
X5421782Y-3464458D02*
G01*
X5421782Y-3579469D01*
X5451805Y-3579469D01*
X5451805Y-3464458D01*
G37*
G36*
X5801817Y-3464458D02*
G01*
X5801817Y-3579469D01*
X5861812Y-3579469D01*
X5861812Y-3464458D01*
G37*
G36*
X5241798Y-3464458D02*
G01*
X5241798Y-3579469D01*
X5301792Y-3579469D01*
X5301792Y-3464458D01*
G37*
G36*
X5371795Y-3464458D02*
G01*
X5371795Y-3579469D01*
X5401818Y-3579469D01*
X5401818Y-3464458D01*
G37*
G36*
X5078425Y-3473500D02*
G01*
X5072938Y-3473907D01*
X5067554Y-3474872D01*
X5062270Y-3476345D01*
X5057190Y-3478377D01*
X5052314Y-3480866D01*
X5047691Y-3483864D01*
X5043424Y-3487267D01*
X5039461Y-3491077D01*
X5035956Y-3495294D01*
X5032857Y-3499815D01*
X5030266Y-3504641D01*
X5028133Y-3509670D01*
X5026507Y-3514953D01*
X5025390Y-3520287D01*
X5024882Y-3525774D01*
X5024780Y-3628491D01*
X5025085Y-3633978D01*
X5025898Y-3639413D01*
X5027218Y-3644696D01*
X5029098Y-3649878D01*
X5031486Y-3654806D01*
X5034330Y-3659479D01*
X5037683Y-3663848D01*
X5041392Y-3667861D01*
X5045506Y-3671519D01*
X5049977Y-3674719D01*
X5054701Y-3677462D01*
X5059680Y-3679698D01*
X5064912Y-3681425D01*
X5070246Y-3682644D01*
X5075682Y-3683355D01*
X5081168Y-3683508D01*
X5086654Y-3683101D01*
X5092039Y-3682136D01*
X5097322Y-3680663D01*
X5102402Y-3678631D01*
X5107279Y-3676142D01*
X5111902Y-3673144D01*
X5116169Y-3669741D01*
X5120132Y-3665931D01*
X5123637Y-3661714D01*
X5126736Y-3657193D01*
X5129377Y-3652367D01*
X5131460Y-3647338D01*
X5133086Y-3642055D01*
X5134203Y-3636721D01*
X5134711Y-3631234D01*
X5134813Y-3528517D01*
X5134508Y-3523030D01*
X5133695Y-3517595D01*
X5132374Y-3512312D01*
X5130495Y-3507130D01*
X5128107Y-3502202D01*
X5125262Y-3497529D01*
X5121910Y-3493160D01*
X5118201Y-3489147D01*
X5114086Y-3485489D01*
X5109616Y-3482289D01*
X5104892Y-3479546D01*
X5099913Y-3477310D01*
X5094681Y-3475532D01*
X5089347Y-3474313D01*
X5083911Y-3473653D01*
G37*
G36*
X5942431Y-3473500D02*
G01*
X5936945Y-3473907D01*
X5931560Y-3474872D01*
X5926277Y-3476345D01*
X5921197Y-3478377D01*
X5916320Y-3480866D01*
X5911697Y-3483864D01*
X5907430Y-3487267D01*
X5903468Y-3491077D01*
X5899962Y-3495294D01*
X5896864Y-3499815D01*
X5894273Y-3504641D01*
X5892139Y-3509670D01*
X5890514Y-3514953D01*
X5889396Y-3520287D01*
X5888888Y-3525774D01*
X5888786Y-3628491D01*
X5889091Y-3633978D01*
X5889904Y-3639413D01*
X5891225Y-3644696D01*
X5893104Y-3649878D01*
X5895492Y-3654806D01*
X5898337Y-3659479D01*
X5901690Y-3663848D01*
X5905398Y-3667861D01*
X5909513Y-3671519D01*
X5913983Y-3674719D01*
X5918708Y-3677462D01*
X5923686Y-3679698D01*
X5928918Y-3681425D01*
X5934252Y-3682644D01*
X5939688Y-3683355D01*
X5945174Y-3683508D01*
X5950661Y-3683101D01*
X5956046Y-3682136D01*
X5961329Y-3680663D01*
X5966409Y-3678631D01*
X5971286Y-3676142D01*
X5975908Y-3673144D01*
X5980176Y-3669741D01*
X5984138Y-3665931D01*
X5987643Y-3661714D01*
X5990742Y-3657193D01*
X5993384Y-3652367D01*
X5995466Y-3647338D01*
X5997092Y-3642055D01*
X5998210Y-3636721D01*
X5998718Y-3631234D01*
X5998819Y-3528517D01*
X5998514Y-3523030D01*
X5997702Y-3517595D01*
X5996381Y-3512312D01*
X5994501Y-3507130D01*
X5992114Y-3502202D01*
X5989269Y-3497529D01*
X5985916Y-3493160D01*
X5982208Y-3489147D01*
X5978093Y-3485489D01*
X5973622Y-3482289D01*
X5968898Y-3479546D01*
X5963920Y-3477310D01*
X5958687Y-3475532D01*
X5953353Y-3474313D01*
X5947918Y-3473653D01*
G37*
G36*
X5078425Y-3906520D02*
G01*
X5072938Y-3906926D01*
X5067554Y-3907891D01*
X5062270Y-3909364D01*
X5057190Y-3911396D01*
X5052314Y-3913886D01*
X5047691Y-3916832D01*
X5043424Y-3920286D01*
X5039461Y-3924096D01*
X5035956Y-3928313D01*
X5032857Y-3932834D01*
X5030266Y-3937660D01*
X5028133Y-3942689D01*
X5026507Y-3947922D01*
X5025390Y-3953306D01*
X5024882Y-3958793D01*
X5024780Y-4031487D01*
X5025085Y-4036974D01*
X5025898Y-4042410D01*
X5027218Y-4047744D01*
X5029098Y-4052874D01*
X5031486Y-4057802D01*
X5034330Y-4062476D01*
X5037683Y-4066844D01*
X5041392Y-4070908D01*
X5045506Y-4074515D01*
X5049977Y-4077715D01*
X5054701Y-4080459D01*
X5059680Y-4082694D01*
X5064912Y-4084472D01*
X5070246Y-4085691D01*
X5075682Y-4086351D01*
X5081168Y-4086504D01*
X5086654Y-4086098D01*
X5092039Y-4085132D01*
X5097322Y-4083659D01*
X5102402Y-4081627D01*
X5107279Y-4079138D01*
X5111902Y-4076192D01*
X5116169Y-4072737D01*
X5120132Y-4068927D01*
X5123637Y-4064711D01*
X5126736Y-4060190D01*
X5129377Y-4055364D01*
X5131460Y-4050334D01*
X5133086Y-4045102D01*
X5134203Y-4039717D01*
X5134711Y-4034231D01*
X5134813Y-3961536D01*
X5134508Y-3956050D01*
X5133695Y-3950614D01*
X5132374Y-3945280D01*
X5130495Y-3940149D01*
X5128107Y-3935222D01*
X5125262Y-3930548D01*
X5121910Y-3926179D01*
X5118201Y-3922115D01*
X5114086Y-3918508D01*
X5109616Y-3915308D01*
X5104892Y-3912565D01*
X5099913Y-3910329D01*
X5094681Y-3908551D01*
X5089347Y-3907332D01*
X5083911Y-3906672D01*
G37*
G36*
X5942431Y-3906520D02*
G01*
X5936945Y-3906926D01*
X5931560Y-3907891D01*
X5926277Y-3909364D01*
X5921197Y-3911396D01*
X5916320Y-3913886D01*
X5911697Y-3916832D01*
X5907430Y-3920286D01*
X5903468Y-3924096D01*
X5899962Y-3928313D01*
X5896864Y-3932834D01*
X5894273Y-3937660D01*
X5892139Y-3942689D01*
X5890514Y-3947922D01*
X5889396Y-3953306D01*
X5888888Y-3958793D01*
X5888786Y-4031487D01*
X5889091Y-4036974D01*
X5889904Y-4042410D01*
X5891225Y-4047744D01*
X5893104Y-4052874D01*
X5895492Y-4057802D01*
X5898337Y-4062476D01*
X5901690Y-4066844D01*
X5905398Y-4070908D01*
X5909513Y-4074515D01*
X5913983Y-4077715D01*
X5918708Y-4080459D01*
X5923686Y-4082694D01*
X5928918Y-4084472D01*
X5934252Y-4085691D01*
X5939688Y-4086351D01*
X5945174Y-4086504D01*
X5950661Y-4086098D01*
X5956046Y-4085132D01*
X5961329Y-4083659D01*
X5966409Y-4081627D01*
X5971286Y-4079138D01*
X5975908Y-4076192D01*
X5980176Y-4072737D01*
X5984138Y-4068927D01*
X5987643Y-4064711D01*
X5990742Y-4060190D01*
X5993384Y-4055364D01*
X5995466Y-4050334D01*
X5997092Y-4045102D01*
X5998210Y-4039717D01*
X5998718Y-4034231D01*
X5998819Y-3961536D01*
X5998514Y-3956050D01*
X5997702Y-3950614D01*
X5996381Y-3945280D01*
X5994501Y-3940149D01*
X5992114Y-3935222D01*
X5989269Y-3930548D01*
X5985916Y-3926179D01*
X5982208Y-3922115D01*
X5978093Y-3918508D01*
X5973622Y-3915308D01*
X5968898Y-3912565D01*
X5963920Y-3910329D01*
X5958687Y-3908551D01*
X5953353Y-3907332D01*
X5947918Y-3906672D01*
G37*
G36*
X5721807Y-3464458D02*
G01*
X5721807Y-3579469D01*
X5781802Y-3579469D01*
X5781802Y-3464458D01*
G37*
D10*
G01*
X3827005Y-2997200D03*
G01*
X2777020Y-2997200D03*
G36*
X233400Y-901395D02*
G01*
X233502Y-899591D01*
X233832Y-897813D01*
X234365Y-896086D01*
X235127Y-894435D01*
X236067Y-892886D01*
X237185Y-891463D01*
X238455Y-890168D01*
X239877Y-889050D01*
X241427Y-888111D01*
X243078Y-887374D01*
X244805Y-886841D01*
X246583Y-886510D01*
X248412Y-886409D01*
X368401Y-886409D01*
X370205Y-886510D01*
X371983Y-886841D01*
X373710Y-887374D01*
X375361Y-888111D01*
X376910Y-889050D01*
X378358Y-890168D01*
X379628Y-891463D01*
X380746Y-892886D01*
X381685Y-894435D01*
X382422Y-896086D01*
X382955Y-897813D01*
X383286Y-899591D01*
X383387Y-901395D01*
X383387Y-931392D01*
X383286Y-933196D01*
X382955Y-934999D01*
X382422Y-936726D01*
X381685Y-938377D01*
X380746Y-939927D01*
X379628Y-941349D01*
X378358Y-942619D01*
X376910Y-943737D01*
X375361Y-944676D01*
X373710Y-945413D01*
X371983Y-945972D01*
X370205Y-946302D01*
X368401Y-946403D01*
X248412Y-946403D01*
X246583Y-946302D01*
X244805Y-945972D01*
X243078Y-945413D01*
X241427Y-944676D01*
X239877Y-943737D01*
X238455Y-942619D01*
X237185Y-941349D01*
X236067Y-939927D01*
X235127Y-938377D01*
X234365Y-936726D01*
X233832Y-934999D01*
X233502Y-933196D01*
X233400Y-931392D01*
G37*
G36*
X233400Y-1026388D02*
G01*
X233502Y-1024585D01*
X233832Y-1022807D01*
X234365Y-1021080D01*
X235127Y-1019428D01*
X236067Y-1017879D01*
X237185Y-1016457D01*
X238455Y-1015161D01*
X239877Y-1014044D01*
X241427Y-1013129D01*
X243078Y-1012367D01*
X244805Y-1011834D01*
X246583Y-1011504D01*
X248412Y-1011402D01*
X368401Y-1011402D01*
X370205Y-1011504D01*
X371983Y-1011834D01*
X373710Y-1012367D01*
X375361Y-1013129D01*
X376910Y-1014044D01*
X378358Y-1015161D01*
X379628Y-1016457D01*
X380746Y-1017879D01*
X381685Y-1019428D01*
X382422Y-1021080D01*
X382955Y-1022807D01*
X383286Y-1024585D01*
X383387Y-1026388D01*
X383387Y-1056411D01*
X383286Y-1058214D01*
X382955Y-1059992D01*
X382422Y-1061720D01*
X381685Y-1063371D01*
X380746Y-1064920D01*
X379628Y-1066342D01*
X378358Y-1067638D01*
X376910Y-1068755D01*
X375361Y-1069670D01*
X373710Y-1070432D01*
X371983Y-1070965D01*
X370205Y-1071295D01*
X368401Y-1071397D01*
X248412Y-1071397D01*
X246583Y-1071295D01*
X244805Y-1070965D01*
X243078Y-1070432D01*
X241427Y-1069670D01*
X239877Y-1068755D01*
X238455Y-1067638D01*
X237185Y-1066342D01*
X236067Y-1064920D01*
X235127Y-1063371D01*
X234365Y-1061720D01*
X233832Y-1059992D01*
X233502Y-1058214D01*
X233400Y-1056411D01*
G37*
G36*
X233400Y-1151407D02*
G01*
X233502Y-1149604D01*
X233832Y-1147800D01*
X234365Y-1146073D01*
X235127Y-1144422D01*
X236067Y-1142873D01*
X237185Y-1141450D01*
X238455Y-1140180D01*
X239877Y-1139063D01*
X241427Y-1138123D01*
X243078Y-1137386D01*
X244805Y-1136827D01*
X246583Y-1136497D01*
X248412Y-1136396D01*
X368401Y-1136396D01*
X370205Y-1136497D01*
X371983Y-1136827D01*
X373710Y-1137386D01*
X375361Y-1138123D01*
X376910Y-1139063D01*
X378358Y-1140180D01*
X379628Y-1141450D01*
X380746Y-1142873D01*
X381685Y-1144422D01*
X382422Y-1146073D01*
X382955Y-1147800D01*
X383286Y-1149604D01*
X383387Y-1151407D01*
X383387Y-1181404D01*
X383286Y-1183208D01*
X382955Y-1184986D01*
X382422Y-1186713D01*
X381685Y-1188364D01*
X380746Y-1189913D01*
X379628Y-1191336D01*
X378358Y-1192631D01*
X376910Y-1193749D01*
X375361Y-1194689D01*
X373710Y-1195425D01*
X371983Y-1195959D01*
X370205Y-1196289D01*
X368401Y-1196390D01*
X248412Y-1196390D01*
X246583Y-1196289D01*
X244805Y-1195959D01*
X243078Y-1195425D01*
X241427Y-1194689D01*
X239877Y-1193749D01*
X238455Y-1192631D01*
X237185Y-1191336D01*
X236067Y-1189913D01*
X235127Y-1188364D01*
X234365Y-1186713D01*
X233832Y-1184986D01*
X233502Y-1183208D01*
X233400Y-1181404D01*
G37*
G36*
X421411Y-1291412D02*
G01*
X423214Y-1291513D01*
X424992Y-1291844D01*
X426720Y-1292377D01*
X428371Y-1293114D01*
X429920Y-1294053D01*
X431342Y-1295171D01*
X432638Y-1296441D01*
X433755Y-1297889D01*
X434670Y-1299438D01*
X435432Y-1301089D01*
X435965Y-1302816D01*
X436295Y-1304594D01*
X436397Y-1306398D01*
X436397Y-1426387D01*
X436295Y-1428216D01*
X435965Y-1429994D01*
X435432Y-1431721D01*
X434670Y-1433372D01*
X433755Y-1434922D01*
X432638Y-1436344D01*
X431342Y-1437614D01*
X429920Y-1438732D01*
X428371Y-1439672D01*
X426720Y-1440434D01*
X424992Y-1440967D01*
X423214Y-1441297D01*
X421411Y-1441399D01*
X391388Y-1441399D01*
X389585Y-1441297D01*
X387807Y-1440967D01*
X386080Y-1440434D01*
X384429Y-1439672D01*
X382879Y-1438732D01*
X381457Y-1437614D01*
X380161Y-1436344D01*
X379044Y-1434922D01*
X378129Y-1433372D01*
X377367Y-1431721D01*
X376834Y-1429994D01*
X376504Y-1428216D01*
X376402Y-1426387D01*
X376402Y-1306398D01*
X376504Y-1304594D01*
X376834Y-1302816D01*
X377367Y-1301089D01*
X378129Y-1299438D01*
X379044Y-1297889D01*
X380161Y-1296441D01*
X381457Y-1295171D01*
X382879Y-1294053D01*
X384429Y-1293114D01*
X386080Y-1292377D01*
X387807Y-1291844D01*
X389585Y-1291513D01*
X391388Y-1291412D01*
G37*
G36*
X675411Y-1291412D02*
G01*
X677214Y-1291513D01*
X678992Y-1291844D01*
X680720Y-1292377D01*
X682371Y-1293114D01*
X683920Y-1294053D01*
X685342Y-1295171D01*
X686638Y-1296441D01*
X687755Y-1297889D01*
X688670Y-1299438D01*
X689432Y-1301089D01*
X689965Y-1302816D01*
X690295Y-1304594D01*
X690397Y-1306398D01*
X690397Y-1426387D01*
X690295Y-1428216D01*
X689965Y-1429994D01*
X689432Y-1431721D01*
X688670Y-1433372D01*
X687755Y-1434922D01*
X686638Y-1436344D01*
X685342Y-1437614D01*
X683920Y-1438732D01*
X682371Y-1439672D01*
X680720Y-1440434D01*
X678992Y-1440967D01*
X677214Y-1441297D01*
X675411Y-1441399D01*
X645388Y-1441399D01*
X643585Y-1441297D01*
X641807Y-1440967D01*
X640080Y-1440434D01*
X638429Y-1439672D01*
X636879Y-1438732D01*
X635457Y-1437614D01*
X634161Y-1436344D01*
X633044Y-1434922D01*
X632129Y-1433372D01*
X631367Y-1431721D01*
X630834Y-1429994D01*
X630504Y-1428216D01*
X630402Y-1426387D01*
X630402Y-1306398D01*
X630504Y-1304594D01*
X630834Y-1302816D01*
X631367Y-1301089D01*
X632129Y-1299438D01*
X633044Y-1297889D01*
X634161Y-1296441D01*
X635457Y-1295171D01*
X636879Y-1294053D01*
X638429Y-1293114D01*
X640080Y-1292377D01*
X641807Y-1291844D01*
X643585Y-1291513D01*
X645388Y-1291412D01*
G37*
G36*
X833399Y-1181404D02*
G01*
X833297Y-1183208D01*
X832967Y-1184986D01*
X832434Y-1186713D01*
X831672Y-1188364D01*
X830732Y-1189913D01*
X829614Y-1191336D01*
X828344Y-1192631D01*
X826922Y-1193749D01*
X825373Y-1194689D01*
X823721Y-1195425D01*
X821994Y-1195959D01*
X820216Y-1196289D01*
X818388Y-1196390D01*
X698398Y-1196390D01*
X696595Y-1196289D01*
X694817Y-1195959D01*
X693089Y-1195425D01*
X691438Y-1194689D01*
X689889Y-1193749D01*
X688441Y-1192631D01*
X687171Y-1191336D01*
X686054Y-1189913D01*
X685114Y-1188364D01*
X684377Y-1186713D01*
X683844Y-1184986D01*
X683514Y-1183208D01*
X683412Y-1181404D01*
X683412Y-1151407D01*
X683514Y-1149604D01*
X683844Y-1147800D01*
X684377Y-1146073D01*
X685114Y-1144422D01*
X686054Y-1142873D01*
X687171Y-1141450D01*
X688441Y-1140180D01*
X689889Y-1139063D01*
X691438Y-1138123D01*
X693089Y-1137386D01*
X694817Y-1136827D01*
X696595Y-1136497D01*
X698398Y-1136396D01*
X818388Y-1136396D01*
X820216Y-1136497D01*
X821994Y-1136827D01*
X823721Y-1137386D01*
X825373Y-1138123D01*
X826922Y-1139063D01*
X828344Y-1140180D01*
X829614Y-1141450D01*
X830732Y-1142873D01*
X831672Y-1144422D01*
X832434Y-1146073D01*
X832967Y-1147800D01*
X833297Y-1149604D01*
X833399Y-1151407D01*
G37*
G36*
X833399Y-1056411D02*
G01*
X833297Y-1058214D01*
X832967Y-1059992D01*
X832434Y-1061720D01*
X831672Y-1063371D01*
X830732Y-1064920D01*
X829614Y-1066342D01*
X828344Y-1067638D01*
X826922Y-1068755D01*
X825373Y-1069670D01*
X823721Y-1070432D01*
X821994Y-1070965D01*
X820216Y-1071295D01*
X818388Y-1071397D01*
X698398Y-1071397D01*
X696595Y-1071295D01*
X694817Y-1070965D01*
X693089Y-1070432D01*
X691438Y-1069670D01*
X689889Y-1068755D01*
X688441Y-1067638D01*
X687171Y-1066342D01*
X686054Y-1064920D01*
X685114Y-1063371D01*
X684377Y-1061720D01*
X683844Y-1059992D01*
X683514Y-1058214D01*
X683412Y-1056411D01*
X683412Y-1026388D01*
X683514Y-1024585D01*
X683844Y-1022807D01*
X684377Y-1021080D01*
X685114Y-1019428D01*
X686054Y-1017879D01*
X687171Y-1016457D01*
X688441Y-1015161D01*
X689889Y-1014044D01*
X691438Y-1013129D01*
X693089Y-1012367D01*
X694817Y-1011834D01*
X696595Y-1011504D01*
X698398Y-1011402D01*
X818388Y-1011402D01*
X820216Y-1011504D01*
X821994Y-1011834D01*
X823721Y-1012367D01*
X825373Y-1013129D01*
X826922Y-1014044D01*
X828344Y-1015161D01*
X829614Y-1016457D01*
X830732Y-1017879D01*
X831672Y-1019428D01*
X832434Y-1021080D01*
X832967Y-1022807D01*
X833297Y-1024585D01*
X833399Y-1026388D01*
G37*
G36*
X833399Y-931392D02*
G01*
X833297Y-933196D01*
X832967Y-934999D01*
X832434Y-936726D01*
X831672Y-938377D01*
X830732Y-939927D01*
X829614Y-941349D01*
X828344Y-942619D01*
X826922Y-943737D01*
X825373Y-944676D01*
X823721Y-945413D01*
X821994Y-945972D01*
X820216Y-946302D01*
X818388Y-946403D01*
X698398Y-946403D01*
X696595Y-946302D01*
X694817Y-945972D01*
X693089Y-945413D01*
X691438Y-944676D01*
X689889Y-943737D01*
X688441Y-942619D01*
X687171Y-941349D01*
X686054Y-939927D01*
X685114Y-938377D01*
X684377Y-936726D01*
X683844Y-934999D01*
X683514Y-933196D01*
X683412Y-931392D01*
X683412Y-901395D01*
X683514Y-899591D01*
X683844Y-897813D01*
X684377Y-896086D01*
X685114Y-894435D01*
X686054Y-892886D01*
X687171Y-891463D01*
X688441Y-890168D01*
X689889Y-889050D01*
X691438Y-888111D01*
X693089Y-887374D01*
X694817Y-886841D01*
X696595Y-886510D01*
X698398Y-886409D01*
X818388Y-886409D01*
X820216Y-886510D01*
X821994Y-886841D01*
X823721Y-887374D01*
X825373Y-888111D01*
X826922Y-889050D01*
X828344Y-890168D01*
X829614Y-891463D01*
X830732Y-892886D01*
X831672Y-894435D01*
X832434Y-896086D01*
X832967Y-897813D01*
X833297Y-899591D01*
X833399Y-901395D01*
G37*
G36*
X675411Y-641400D02*
G01*
X677214Y-641502D01*
X678992Y-641832D01*
X680720Y-642366D01*
X682371Y-643128D01*
X683920Y-644067D01*
X685342Y-645185D01*
X686638Y-646455D01*
X687755Y-647877D01*
X688670Y-649427D01*
X689432Y-651078D01*
X689965Y-652805D01*
X690295Y-654583D01*
X690397Y-656412D01*
X690397Y-776401D01*
X690295Y-778205D01*
X689965Y-779983D01*
X689432Y-781710D01*
X688670Y-783361D01*
X687755Y-784910D01*
X686638Y-786358D01*
X685342Y-787628D01*
X683920Y-788746D01*
X682371Y-789686D01*
X680720Y-790422D01*
X678992Y-790956D01*
X677214Y-791286D01*
X675411Y-791387D01*
X645388Y-791387D01*
X643585Y-791286D01*
X641807Y-790956D01*
X640080Y-790422D01*
X638429Y-789686D01*
X636879Y-788746D01*
X635457Y-787628D01*
X634161Y-786358D01*
X633044Y-784910D01*
X632129Y-783361D01*
X631367Y-781710D01*
X630834Y-779983D01*
X630504Y-778205D01*
X630402Y-776401D01*
X630402Y-656412D01*
X630504Y-654583D01*
X630834Y-652805D01*
X631367Y-651078D01*
X632129Y-649427D01*
X633044Y-647877D01*
X634161Y-646455D01*
X635457Y-645185D01*
X636879Y-644067D01*
X638429Y-643128D01*
X640080Y-642366D01*
X641807Y-641832D01*
X643585Y-641502D01*
X645388Y-641400D01*
G37*
G36*
X421411Y-641400D02*
G01*
X423214Y-641502D01*
X424992Y-641832D01*
X426720Y-642366D01*
X428371Y-643128D01*
X429920Y-644067D01*
X431342Y-645185D01*
X432638Y-646455D01*
X433755Y-647877D01*
X434670Y-649427D01*
X435432Y-651078D01*
X435965Y-652805D01*
X436295Y-654583D01*
X436397Y-656412D01*
X436397Y-776401D01*
X436295Y-778205D01*
X435965Y-779983D01*
X435432Y-781710D01*
X434670Y-783361D01*
X433755Y-784910D01*
X432638Y-786358D01*
X431342Y-787628D01*
X429920Y-788746D01*
X428371Y-789686D01*
X426720Y-790422D01*
X424992Y-790956D01*
X423214Y-791286D01*
X421411Y-791387D01*
X391388Y-791387D01*
X389585Y-791286D01*
X387807Y-790956D01*
X386080Y-790422D01*
X384429Y-789686D01*
X382879Y-788746D01*
X381457Y-787628D01*
X380161Y-786358D01*
X379044Y-784910D01*
X378129Y-783361D01*
X377367Y-781710D01*
X376834Y-779983D01*
X376504Y-778205D01*
X376402Y-776401D01*
X376402Y-656412D01*
X376504Y-654583D01*
X376834Y-652805D01*
X377367Y-651078D01*
X378129Y-649427D01*
X379044Y-647877D01*
X380161Y-646455D01*
X381457Y-645185D01*
X382879Y-644067D01*
X384429Y-643128D01*
X386080Y-642366D01*
X387807Y-641832D01*
X389585Y-641502D01*
X391388Y-641400D01*
G37*
D11*
G01*
X1342390Y-1178001D03*
D12*
G01*
X1342390Y-1094003D03*
G01*
X1342390Y-1013993D03*
G01*
X1342390Y-934008D03*
G01*
X1342390Y-853998D03*
G01*
X1422400Y-853998D03*
G01*
X1502410Y-853998D03*
G01*
X1502410Y-934008D03*
G01*
X1502410Y-1013993D03*
G01*
X1502410Y-1094003D03*
G01*
X1502410Y-1173988D03*
G01*
X1422400Y-1173988D03*
M02*
