G04 Layer: TopSolderMaskLayer*
G04 EasyEDA v6.5.39, 2023-12-28 21:15:06*
G04 35ff57de02ea422eb169f7c644e1f47a,fc83978cdc934b7da63e149a84a413c2,10*
G04 Gerber Generator version 0.2*
G04 Scale: 100 percent, Rotated: No, Reflected: No *
G04 Dimensions in millimeters *
G04 leading zeros omitted , absolute positions ,4 integer and 5 decimal *
%FSLAX45Y45*%
%MOMM*%

%AMMACRO1*1,1,$1,$2,$3*1,1,$1,$4,$5*1,1,$1,0-$2,0-$3*1,1,$1,0-$4,0-$5*20,1,$1,$2,$3,$4,$5,0*20,1,$1,$4,$5,0-$2,0-$3,0*20,1,$1,0-$2,0-$3,0-$4,0-$5,0*20,1,$1,0-$4,0-$5,$2,$3,0*4,1,4,$2,$3,$4,$5,0-$2,0-$3,0-$4,0-$5,$2,$3,0*%
%ADD10C,1.7257*%
%ADD11MACRO1,0.1016X-0.2828X-0.27X-0.2828X0.27*%
%ADD12MACRO1,0.1016X0.2828X-0.27X0.2828X0.27*%
%ADD13MACRO1,0.1016X-0.27X0.2828X0.27X0.2828*%
%ADD14MACRO1,0.1016X-0.27X-0.2828X0.27X-0.2828*%
%ADD15R,1.2516X0.4016*%
%ADD16O,2.2015958X1.2015978000000003*%
%ADD17O,1.9015964X1.2015978000000003*%
%ADD18MACRO1,0.1016X0.2828X-0.27X-0.2828X-0.27*%
%ADD19MACRO1,0.1016X-0.2828X0.27X0.2828X0.27*%
%ADD20MACRO1,0.1016X0.4249X-0.15X-0.4249X-0.15*%
%ADD21R,0.6416X0.6673*%
%ADD22MACRO1,0.1016X0.2828X0.27X0.2828X-0.27*%
%ADD23MACRO1,0.1016X-0.2828X0.27X-0.2828X-0.27*%
%ADD24MACRO1,0.1016X-0.55X0.15X0.55X0.15*%
%ADD25MACRO1,0.1016X-0.8X0.4X0.8X0.4*%
%ADD26MACRO1,0.1016X-0.975X0.65X0.975X0.65*%
%ADD27MACRO1,0.1016X-0.8X0.4001X0.8X0.4001*%
%ADD28MACRO1,0.1016X-0.5X0.35X0.5X0.35*%
%ADD29MACRO1,0.1016X0.7499X1.3X0.7499X-1.3*%
%ADD30MACRO1,0.1016X0.5999X-0.325X-0.5999X-0.325*%
%ADD31R,1.6015X2.7015*%

%LPD*%
D10*
G01*
X5816600Y-1600200D03*
D11*
G01*
X5326482Y-1320800D03*
D12*
G01*
X5239917Y-1320800D03*
D13*
G01*
X6299200Y-1389482D03*
D14*
G01*
X6299200Y-1302917D03*
D11*
G01*
X6545682Y-1143000D03*
D12*
G01*
X6459117Y-1143000D03*
D11*
G01*
X6520282Y-1905000D03*
D12*
G01*
X6433717Y-1905000D03*
D11*
G01*
X6317082Y-1905000D03*
D12*
G01*
X6230517Y-1905000D03*
D15*
G01*
X6773189Y-1315999D03*
G01*
X6773189Y-1345996D03*
G01*
X6773164Y-1396009D03*
G01*
X6773164Y-1426006D03*
G01*
X6773189Y-1475994D03*
G01*
X6773087Y-1526032D03*
G01*
X6773189Y-1575993D03*
G01*
X6773189Y-1626006D03*
G01*
X6773189Y-1675993D03*
G01*
X6773189Y-1726006D03*
G01*
X6773189Y-1775993D03*
G01*
X6773087Y-1826006D03*
G01*
X6773189Y-1875993D03*
G01*
X6773189Y-1905990D03*
G01*
X6773189Y-1956003D03*
G01*
X6773189Y-1986000D03*
D16*
G01*
X6829704Y-2083003D03*
G01*
X6829704Y-1218996D03*
D17*
G01*
X7247712Y-1218996D03*
G01*
X7247712Y-2083003D03*
D18*
G01*
X2006600Y-1270000D03*
G01*
X2108200Y-1270000D03*
G01*
X1752600Y-1625600D03*
G01*
X1854200Y-1625600D03*
G01*
X1828800Y-1168400D03*
G01*
X1930400Y-1168400D03*
G01*
X1828800Y-1066800D03*
G01*
X1930400Y-1066800D03*
D19*
G01*
X6553200Y-1346200D03*
G01*
X6451600Y-1346200D03*
G01*
X6553200Y-1244600D03*
G01*
X6451600Y-1244600D03*
D20*
G01*
X6480809Y-1675612D03*
G01*
X6480809Y-1625600D03*
G01*
X6480809Y-1575587D03*
G01*
X6320790Y-1575587D03*
G01*
X6320790Y-1625600D03*
G01*
X6320790Y-1675612D03*
D21*
G01*
X5486400Y-1887118D03*
G01*
X5486400Y-1973681D03*
D13*
G01*
X5486400Y-1567282D03*
D14*
G01*
X5486400Y-1480717D03*
D22*
G01*
X6890917Y-1041400D03*
D23*
G01*
X6977482Y-1041400D03*
D19*
G01*
X1727200Y-1066800D03*
G01*
X1625600Y-1066800D03*
G01*
X5334000Y-1473200D03*
G01*
X5232400Y-1473200D03*
D18*
G01*
X2209800Y-1270000D03*
G01*
X2311400Y-1270000D03*
G01*
X2209800Y-1168400D03*
G01*
X2311400Y-1168400D03*
D22*
G01*
X5239917Y-1219200D03*
D23*
G01*
X5326482Y-1219200D03*
D11*
G01*
X4970882Y-1320800D03*
D12*
G01*
X4884317Y-1320800D03*
D11*
G01*
X4970882Y-1879600D03*
D12*
G01*
X4884317Y-1879600D03*
D22*
G01*
X5239917Y-1117600D03*
D23*
G01*
X5326482Y-1117600D03*
D22*
G01*
X4884317Y-1219200D03*
D23*
G01*
X4970882Y-1219200D03*
D13*
G01*
X5486400Y-1364082D03*
D14*
G01*
X5486400Y-1277517D03*
D11*
G01*
X1897482Y-1270000D03*
D12*
G01*
X1810917Y-1270000D03*
D22*
G01*
X5239917Y-1574800D03*
D23*
G01*
X5326482Y-1574800D03*
D22*
G01*
X5239917Y-1879600D03*
D23*
G01*
X5326482Y-1879600D03*
D22*
G01*
X5239917Y-1981200D03*
D23*
G01*
X5326482Y-1981200D03*
D22*
G01*
X5239917Y-2082800D03*
D23*
G01*
X5326482Y-2082800D03*
D22*
G01*
X4884317Y-2082800D03*
D23*
G01*
X4970882Y-2082800D03*
D22*
G01*
X4884317Y-1981200D03*
D23*
G01*
X4970882Y-1981200D03*
D13*
G01*
X5588000Y-1973682D03*
D14*
G01*
X5588000Y-1887117D03*
D24*
G01*
X4567199Y-974394D03*
G01*
X4567199Y-1024407D03*
G01*
X4567199Y-1074394D03*
G01*
X4567199Y-1124407D03*
G01*
X4567199Y-1174394D03*
G01*
X4567199Y-1224407D03*
G01*
X4567199Y-1274394D03*
G01*
X4567199Y-1324406D03*
G01*
X4567199Y-1374394D03*
G01*
X4567199Y-1424406D03*
G01*
X4567199Y-1474393D03*
G01*
X4567199Y-1524406D03*
G01*
X4567199Y-1574393D03*
G01*
X4567199Y-1624406D03*
G01*
X4567199Y-1674393D03*
G01*
X4567199Y-1724406D03*
G01*
X4567199Y-1774393D03*
G01*
X4567199Y-1824405D03*
G01*
X4567199Y-1874392D03*
G01*
X4567199Y-1924405D03*
G01*
X4567199Y-1974392D03*
G01*
X4567199Y-2024405D03*
G01*
X4567199Y-2074392D03*
G01*
X4567199Y-2124405D03*
D25*
G01*
X4472203Y-684403D03*
D26*
G01*
X4454702Y-789406D03*
G01*
X4454702Y-2309393D03*
D27*
G01*
X4472203Y-2414397D03*
D28*
G01*
X5693206Y-476707D03*
G01*
X6143193Y-476707D03*
G01*
X5693206Y-691692D03*
G01*
X6143193Y-691692D03*
G01*
X5693206Y-2584907D03*
G01*
X6143193Y-2584907D03*
G01*
X5693206Y-2799892D03*
G01*
X6143193Y-2799892D03*
D18*
G01*
X1752600Y-1879600D03*
G01*
X1854200Y-1879600D03*
G01*
X1676400Y-1371600D03*
G01*
X1778000Y-1371600D03*
D29*
G01*
X3278987Y-2692400D03*
G01*
X3579012Y-2692400D03*
G01*
X1907387Y-2692400D03*
G01*
X2207412Y-2692400D03*
D30*
G01*
X2264003Y-2153412D03*
G01*
X2264003Y-1961388D03*
G01*
X2053996Y-2057400D03*
D31*
G01*
X3579012Y-558800D03*
G01*
X3278987Y-558800D03*
G01*
X2207412Y-558800D03*
G01*
X1907387Y-558800D03*
D30*
G01*
X2264003Y-1670812D03*
G01*
X2264003Y-1478788D03*
G01*
X2053996Y-1574800D03*
D11*
G01*
X2126082Y-1066800D03*
D12*
G01*
X2039517Y-1066800D03*
M02*
