G04 Layer: BottomSilkscreenLayer*
G04 EasyEDA v6.5.39, 2023-12-28 21:15:06*
G04 35ff57de02ea422eb169f7c644e1f47a,fc83978cdc934b7da63e149a84a413c2,10*
G04 Gerber Generator version 0.2*
G04 Scale: 100 percent, Rotated: No, Reflected: No *
G04 Dimensions in millimeters *
G04 leading zeros omitted , absolute positions ,4 integer and 5 decimal *
%FSLAX45Y45*%
%MOMM*%

%ADD10C,0.1016*%
%ADD11C,0.1270*%
%ADD12C,0.1999*%
%ADD13C,0.1001*%

%LPD*%
G36*
X2490978Y-645414D02*
G01*
X2490978Y-653796D01*
X2526284Y-653796D01*
X2526284Y-666750D01*
X2525420Y-674674D01*
X2522728Y-680516D01*
X2518156Y-684072D01*
X2511552Y-685292D01*
X2505100Y-684072D01*
X2500884Y-680516D01*
X2498547Y-674674D01*
X2497836Y-666750D01*
X2497836Y-653796D01*
X2490978Y-653796D01*
X2490978Y-668020D01*
X2491232Y-673506D01*
X2492044Y-678484D01*
X2493467Y-682904D01*
X2495550Y-686663D01*
X2498344Y-689762D01*
X2501900Y-691997D01*
X2506268Y-693420D01*
X2511552Y-693928D01*
X2519426Y-692708D01*
X2525471Y-689203D01*
X2529789Y-683768D01*
X2532380Y-676656D01*
X2565400Y-695706D01*
X2565400Y-686308D01*
X2533396Y-667766D01*
X2533396Y-653796D01*
X2565400Y-653796D01*
X2565400Y-645414D01*
G37*
G36*
X2558542Y-707644D02*
G01*
X2558542Y-724408D01*
X2501392Y-724408D01*
X2501392Y-711200D01*
X2496058Y-711200D01*
X2495143Y-715772D01*
X2493975Y-719785D01*
X2492603Y-723290D01*
X2490978Y-726440D01*
X2490978Y-732536D01*
X2558542Y-732536D01*
X2558542Y-747776D01*
X2565400Y-747776D01*
X2565400Y-707644D01*
G37*
G36*
X2527808Y-759460D02*
G01*
X2518816Y-759866D01*
X2511044Y-761085D01*
X2504490Y-763016D01*
X2499156Y-765657D01*
X2494991Y-768959D01*
X2492044Y-772871D01*
X2490317Y-777341D01*
X2489708Y-782320D01*
X2496312Y-782320D01*
X2496769Y-779221D01*
X2498191Y-776376D01*
X2500579Y-773887D01*
X2503982Y-771702D01*
X2508351Y-769975D01*
X2513787Y-768654D01*
X2520238Y-767842D01*
X2527808Y-767588D01*
X2535631Y-767842D01*
X2542286Y-768654D01*
X2547823Y-769975D01*
X2552344Y-771702D01*
X2555748Y-773887D01*
X2558186Y-776376D01*
X2559608Y-779221D01*
X2560066Y-782320D01*
X2559608Y-785520D01*
X2558186Y-788365D01*
X2555748Y-790905D01*
X2552344Y-793038D01*
X2547823Y-794715D01*
X2542286Y-795985D01*
X2535631Y-796798D01*
X2527808Y-797052D01*
X2520238Y-796798D01*
X2513787Y-795985D01*
X2508351Y-794715D01*
X2503982Y-793038D01*
X2500579Y-790905D01*
X2498191Y-788365D01*
X2496769Y-785520D01*
X2496312Y-782320D01*
X2489708Y-782320D01*
X2490317Y-787298D01*
X2492044Y-791768D01*
X2494991Y-795680D01*
X2499156Y-798982D01*
X2504490Y-801624D01*
X2511044Y-803554D01*
X2518816Y-804773D01*
X2527808Y-805180D01*
X2537002Y-804773D01*
X2544927Y-803554D01*
X2551582Y-801624D01*
X2557068Y-798982D01*
X2561285Y-795680D01*
X2564282Y-791768D01*
X2566060Y-787298D01*
X2566670Y-782320D01*
X2566060Y-777341D01*
X2564282Y-772871D01*
X2561285Y-768959D01*
X2557068Y-765657D01*
X2551582Y-763016D01*
X2544927Y-761085D01*
X2537002Y-759866D01*
G37*
G36*
X2425700Y-2564130D02*
G01*
X2418994Y-2564790D01*
X2412898Y-2566771D01*
X2407412Y-2569972D01*
X2402738Y-2574340D01*
X2398928Y-2579878D01*
X2396083Y-2586431D01*
X2394305Y-2594000D01*
X2393696Y-2602484D01*
X2394305Y-2611018D01*
X2396134Y-2618587D01*
X2399030Y-2625191D01*
X2402890Y-2630728D01*
X2407666Y-2635148D01*
X2413203Y-2638399D01*
X2419400Y-2640431D01*
X2426208Y-2641092D01*
X2432608Y-2640330D01*
X2438196Y-2638348D01*
X2442819Y-2635402D01*
X2446528Y-2631948D01*
X2441702Y-2626614D01*
X2438603Y-2629560D01*
X2434996Y-2631795D01*
X2430881Y-2633218D01*
X2426208Y-2633726D01*
X2421026Y-2633167D01*
X2416352Y-2631541D01*
X2412288Y-2628950D01*
X2408834Y-2625394D01*
X2406091Y-2620924D01*
X2404008Y-2615641D01*
X2402789Y-2609545D01*
X2402332Y-2602738D01*
X2402738Y-2595930D01*
X2404008Y-2589834D01*
X2405989Y-2584500D01*
X2408732Y-2579979D01*
X2412136Y-2576372D01*
X2416149Y-2573680D01*
X2420772Y-2572054D01*
X2425954Y-2571496D01*
X2431135Y-2572054D01*
X2435656Y-2573731D01*
X2439720Y-2576423D01*
X2443480Y-2580132D01*
X2448306Y-2574798D01*
X2443683Y-2570226D01*
X2438450Y-2566873D01*
X2432507Y-2564841D01*
G37*
G36*
X2535682Y-2564130D02*
G01*
X2530703Y-2564739D01*
X2526233Y-2566517D01*
X2522321Y-2569514D01*
X2519019Y-2573731D01*
X2516378Y-2579217D01*
X2514447Y-2585872D01*
X2513228Y-2593797D01*
X2512822Y-2602992D01*
X2520950Y-2602992D01*
X2521204Y-2595168D01*
X2522016Y-2588514D01*
X2523286Y-2582976D01*
X2524963Y-2578455D01*
X2527096Y-2575052D01*
X2529636Y-2572613D01*
X2532481Y-2571191D01*
X2535682Y-2570734D01*
X2538882Y-2571191D01*
X2541727Y-2572613D01*
X2544267Y-2575052D01*
X2546400Y-2578455D01*
X2548077Y-2582976D01*
X2549347Y-2588514D01*
X2550160Y-2595168D01*
X2550414Y-2602992D01*
X2550160Y-2610561D01*
X2549347Y-2617012D01*
X2548077Y-2622448D01*
X2546400Y-2626817D01*
X2544267Y-2630220D01*
X2541727Y-2632608D01*
X2538882Y-2634030D01*
X2535682Y-2634488D01*
X2532481Y-2634030D01*
X2529636Y-2632608D01*
X2527096Y-2630220D01*
X2524963Y-2626817D01*
X2523286Y-2622448D01*
X2522016Y-2617012D01*
X2521204Y-2610561D01*
X2520950Y-2602992D01*
X2512822Y-2602992D01*
X2513228Y-2611983D01*
X2514447Y-2619756D01*
X2516378Y-2626309D01*
X2519019Y-2631643D01*
X2522321Y-2635808D01*
X2526233Y-2638755D01*
X2530703Y-2640482D01*
X2535682Y-2641092D01*
X2540660Y-2640482D01*
X2545130Y-2638755D01*
X2548991Y-2635808D01*
X2552242Y-2631643D01*
X2554833Y-2626309D01*
X2556713Y-2619756D01*
X2557881Y-2611983D01*
X2558288Y-2602992D01*
X2557881Y-2593797D01*
X2556713Y-2585872D01*
X2554833Y-2579217D01*
X2552242Y-2573731D01*
X2548991Y-2569514D01*
X2545130Y-2566517D01*
X2540660Y-2564739D01*
G37*
G36*
X2461006Y-2565400D02*
G01*
X2461006Y-2572258D01*
X2477770Y-2572258D01*
X2477770Y-2629408D01*
X2464562Y-2629408D01*
X2464562Y-2634742D01*
X2469032Y-2635656D01*
X2472994Y-2636824D01*
X2476500Y-2638196D01*
X2479548Y-2639822D01*
X2485898Y-2639822D01*
X2485898Y-2572258D01*
X2501138Y-2572258D01*
X2501138Y-2565400D01*
G37*
G36*
X2102612Y-2522982D02*
G01*
X2097938Y-2523439D01*
X2093722Y-2524810D01*
X2090115Y-2526944D01*
X2087118Y-2529789D01*
X2084730Y-2533243D01*
X2082952Y-2537256D01*
X2081885Y-2541625D01*
X2081530Y-2546350D01*
X2082342Y-2554173D01*
X2084628Y-2560624D01*
X2087829Y-2565857D01*
X2091689Y-2569972D01*
X2097024Y-2565654D01*
X2093722Y-2562148D01*
X2090978Y-2557983D01*
X2089099Y-2552954D01*
X2088388Y-2546858D01*
X2089404Y-2540558D01*
X2092299Y-2535682D01*
X2096871Y-2532481D01*
X2102866Y-2531364D01*
X2109165Y-2532583D01*
X2114042Y-2536545D01*
X2117242Y-2543810D01*
X2118360Y-2554732D01*
X2124710Y-2554732D01*
X2125827Y-2544927D01*
X2128926Y-2538526D01*
X2133600Y-2534970D01*
X2139442Y-2533904D01*
X2144471Y-2534818D01*
X2148332Y-2537409D01*
X2150872Y-2541524D01*
X2151888Y-2546858D01*
X2151176Y-2551277D01*
X2149602Y-2555392D01*
X2147265Y-2559202D01*
X2144268Y-2562606D01*
X2149856Y-2567178D01*
X2153259Y-2562809D01*
X2156002Y-2558034D01*
X2157831Y-2552700D01*
X2158492Y-2546604D01*
X2157272Y-2538171D01*
X2153716Y-2531465D01*
X2147976Y-2527096D01*
X2140204Y-2525522D01*
X2133803Y-2526487D01*
X2128672Y-2529179D01*
X2124760Y-2533345D01*
X2121916Y-2538730D01*
X2121662Y-2538730D01*
X2119274Y-2532634D01*
X2115210Y-2527604D01*
X2109571Y-2524252D01*
G37*
G36*
X2082800Y-2578100D02*
G01*
X2082800Y-2624074D01*
X2087880Y-2624074D01*
X2095347Y-2615793D01*
X2102307Y-2608732D01*
X2108860Y-2602839D01*
X2115007Y-2598064D01*
X2120798Y-2594406D01*
X2126234Y-2591816D01*
X2131415Y-2590292D01*
X2136394Y-2589784D01*
X2142540Y-2590647D01*
X2147468Y-2593289D01*
X2150719Y-2597708D01*
X2151888Y-2604008D01*
X2151176Y-2608427D01*
X2149246Y-2612542D01*
X2146401Y-2616352D01*
X2142998Y-2619756D01*
X2147570Y-2624582D01*
X2152040Y-2620010D01*
X2155494Y-2615031D01*
X2157730Y-2609392D01*
X2158492Y-2602992D01*
X2158085Y-2598267D01*
X2156917Y-2594102D01*
X2155088Y-2590444D01*
X2152548Y-2587396D01*
X2149348Y-2584907D01*
X2145639Y-2583129D01*
X2141372Y-2582011D01*
X2136648Y-2581656D01*
X2131009Y-2582214D01*
X2125319Y-2583789D01*
X2119579Y-2586329D01*
X2113788Y-2589784D01*
X2107895Y-2594102D01*
X2101850Y-2599232D01*
X2095703Y-2605074D01*
X2089404Y-2611628D01*
X2089912Y-2599436D01*
X2089912Y-2578100D01*
G37*
G36*
X2082800Y-2631694D02*
G01*
X2082800Y-2641092D01*
X2114804Y-2659634D01*
X2114804Y-2673604D01*
X2121916Y-2673604D01*
X2121916Y-2660650D01*
X2122779Y-2652725D01*
X2125472Y-2646883D01*
X2130044Y-2643327D01*
X2136648Y-2642108D01*
X2143099Y-2643327D01*
X2147316Y-2646883D01*
X2149652Y-2652725D01*
X2150364Y-2660650D01*
X2150364Y-2673604D01*
X2082800Y-2673604D01*
X2082800Y-2681986D01*
X2157222Y-2681986D01*
X2157222Y-2659380D01*
X2156968Y-2653893D01*
X2156155Y-2648915D01*
X2154732Y-2644495D01*
X2152650Y-2640685D01*
X2149856Y-2637637D01*
X2146300Y-2635351D01*
X2141931Y-2633980D01*
X2136648Y-2633472D01*
X2128774Y-2634691D01*
X2122728Y-2638196D01*
X2118410Y-2643632D01*
X2115820Y-2650744D01*
G37*
G36*
X382778Y-1534160D02*
G01*
X382778Y-1542542D01*
X427228Y-1542542D01*
X438658Y-1543913D01*
X446024Y-1547723D01*
X449935Y-1553362D01*
X451104Y-1560322D01*
X450850Y-1564030D01*
X449935Y-1567484D01*
X448360Y-1570583D01*
X446024Y-1573276D01*
X442823Y-1575511D01*
X438658Y-1577187D01*
X433527Y-1578254D01*
X427228Y-1578610D01*
X382778Y-1578610D01*
X382778Y-1586738D01*
X426974Y-1586738D01*
X435101Y-1586230D01*
X441858Y-1584706D01*
X447344Y-1582267D01*
X451561Y-1579067D01*
X454710Y-1575155D01*
X456895Y-1570685D01*
X458063Y-1565706D01*
X458470Y-1560322D01*
X458063Y-1555038D01*
X456895Y-1550111D01*
X454710Y-1545691D01*
X451561Y-1541830D01*
X447344Y-1538630D01*
X441858Y-1536192D01*
X435101Y-1534668D01*
X426974Y-1534160D01*
G37*
G36*
X392430Y-1600708D02*
G01*
X387959Y-1605381D01*
X384505Y-1610410D01*
X382270Y-1616049D01*
X381508Y-1622552D01*
X381914Y-1627276D01*
X383082Y-1631442D01*
X384962Y-1635099D01*
X387502Y-1638198D01*
X390652Y-1640636D01*
X394360Y-1642414D01*
X398627Y-1643532D01*
X403352Y-1643888D01*
X408990Y-1643329D01*
X414680Y-1641754D01*
X420420Y-1639163D01*
X426212Y-1635658D01*
X432104Y-1631340D01*
X438150Y-1626209D01*
X444296Y-1620367D01*
X450596Y-1613916D01*
X450088Y-1626107D01*
X450088Y-1647443D01*
X457200Y-1647443D01*
X457200Y-1601216D01*
X452120Y-1601216D01*
X444652Y-1609547D01*
X437692Y-1616710D01*
X431139Y-1622653D01*
X424992Y-1627428D01*
X419201Y-1631137D01*
X413766Y-1633728D01*
X408584Y-1635251D01*
X403606Y-1635760D01*
X397459Y-1634896D01*
X392531Y-1632254D01*
X389280Y-1627835D01*
X388112Y-1621536D01*
X388823Y-1617065D01*
X390753Y-1612900D01*
X393598Y-1609090D01*
X397002Y-1605788D01*
G37*
G36*
X5119116Y-2342896D02*
G01*
X5110581Y-2343505D01*
X5103012Y-2345334D01*
X5096408Y-2348230D01*
X5090871Y-2352090D01*
X5086451Y-2356866D01*
X5083200Y-2362403D01*
X5081168Y-2368600D01*
X5080508Y-2375408D01*
X5081270Y-2381808D01*
X5083251Y-2387396D01*
X5086197Y-2392019D01*
X5089652Y-2395728D01*
X5094986Y-2390902D01*
X5092039Y-2387803D01*
X5089804Y-2384196D01*
X5088382Y-2380081D01*
X5087874Y-2375408D01*
X5088432Y-2370226D01*
X5090058Y-2365552D01*
X5092649Y-2361488D01*
X5096205Y-2358034D01*
X5100675Y-2355291D01*
X5105958Y-2353208D01*
X5112054Y-2351989D01*
X5118862Y-2351532D01*
X5125669Y-2351938D01*
X5131765Y-2353208D01*
X5137099Y-2355189D01*
X5141620Y-2357932D01*
X5145227Y-2361336D01*
X5147919Y-2365349D01*
X5149545Y-2369972D01*
X5150104Y-2375154D01*
X5149545Y-2380335D01*
X5147868Y-2384856D01*
X5145176Y-2388920D01*
X5141468Y-2392680D01*
X5146802Y-2397506D01*
X5151374Y-2392883D01*
X5154726Y-2387650D01*
X5156758Y-2381707D01*
X5157470Y-2374900D01*
X5156809Y-2368194D01*
X5154828Y-2362098D01*
X5151628Y-2356612D01*
X5147259Y-2351938D01*
X5141722Y-2348128D01*
X5135168Y-2345283D01*
X5127599Y-2343505D01*
G37*
G36*
X5091430Y-2405380D02*
G01*
X5086959Y-2409901D01*
X5083505Y-2414828D01*
X5081270Y-2420467D01*
X5080508Y-2426970D01*
X5080914Y-2431694D01*
X5082082Y-2435860D01*
X5083962Y-2439517D01*
X5086502Y-2442565D01*
X5089652Y-2445054D01*
X5093360Y-2446832D01*
X5097627Y-2447950D01*
X5102352Y-2448306D01*
X5107990Y-2447747D01*
X5113680Y-2446172D01*
X5119420Y-2443581D01*
X5125212Y-2440076D01*
X5131104Y-2435758D01*
X5137150Y-2430627D01*
X5143296Y-2424785D01*
X5149596Y-2418334D01*
X5149088Y-2430526D01*
X5149088Y-2451862D01*
X5156200Y-2451862D01*
X5156200Y-2405888D01*
X5151120Y-2405888D01*
X5143652Y-2414168D01*
X5136692Y-2421229D01*
X5130139Y-2427122D01*
X5123992Y-2431897D01*
X5118201Y-2435555D01*
X5112766Y-2438146D01*
X5107584Y-2439670D01*
X5102606Y-2440178D01*
X5096459Y-2439314D01*
X5091531Y-2436672D01*
X5088280Y-2432253D01*
X5087112Y-2425954D01*
X5087823Y-2421534D01*
X5089753Y-2417419D01*
X5092598Y-2413609D01*
X5096002Y-2410206D01*
G37*
G36*
X5149342Y-2466086D02*
G01*
X5149342Y-2482596D01*
X5092192Y-2482596D01*
X5092192Y-2469642D01*
X5086858Y-2469642D01*
X5085943Y-2474112D01*
X5084775Y-2478074D01*
X5083403Y-2481580D01*
X5081778Y-2484628D01*
X5081778Y-2490978D01*
X5149342Y-2490978D01*
X5149342Y-2505964D01*
X5156200Y-2505964D01*
X5156200Y-2466086D01*
G37*
G36*
X5232400Y-2385568D02*
G01*
X5232400Y-2425700D01*
X5239258Y-2425700D01*
X5239258Y-2408936D01*
X5296408Y-2408936D01*
X5296408Y-2422144D01*
X5301742Y-2422144D01*
X5302656Y-2417673D01*
X5303824Y-2413711D01*
X5305196Y-2410206D01*
X5306822Y-2407158D01*
X5306822Y-2400808D01*
X5239258Y-2400808D01*
X5239258Y-2385568D01*
G37*
G36*
X5232400Y-2437384D02*
G01*
X5232400Y-2478786D01*
X5306822Y-2478786D01*
X5306822Y-2470404D01*
X5239512Y-2470404D01*
X5239512Y-2437384D01*
G37*
G36*
X5498592Y-2166620D02*
G01*
X5489397Y-2167026D01*
X5481472Y-2168245D01*
X5474817Y-2170176D01*
X5469331Y-2172817D01*
X5465114Y-2176119D01*
X5462117Y-2180031D01*
X5460339Y-2184501D01*
X5459730Y-2189480D01*
X5466334Y-2189480D01*
X5466791Y-2186279D01*
X5468213Y-2183434D01*
X5470652Y-2180894D01*
X5474106Y-2178761D01*
X5478576Y-2177084D01*
X5484114Y-2175814D01*
X5490768Y-2175002D01*
X5498592Y-2174748D01*
X5506161Y-2175002D01*
X5512612Y-2175814D01*
X5518048Y-2177084D01*
X5522417Y-2178761D01*
X5525820Y-2180894D01*
X5528208Y-2183434D01*
X5529630Y-2186279D01*
X5530088Y-2189480D01*
X5529630Y-2192578D01*
X5528208Y-2195423D01*
X5525820Y-2197912D01*
X5522417Y-2200097D01*
X5518048Y-2201824D01*
X5512612Y-2203145D01*
X5506161Y-2203958D01*
X5498592Y-2204212D01*
X5490768Y-2203958D01*
X5484114Y-2203145D01*
X5478576Y-2201824D01*
X5474106Y-2200097D01*
X5470652Y-2197912D01*
X5468213Y-2195423D01*
X5466791Y-2192578D01*
X5466334Y-2189480D01*
X5459730Y-2189480D01*
X5460339Y-2194458D01*
X5462117Y-2198928D01*
X5465114Y-2202840D01*
X5469331Y-2206142D01*
X5474817Y-2208784D01*
X5481472Y-2210714D01*
X5489397Y-2211933D01*
X5498592Y-2212340D01*
X5507583Y-2211933D01*
X5515356Y-2210714D01*
X5521909Y-2208784D01*
X5527243Y-2206142D01*
X5531408Y-2202840D01*
X5534355Y-2198928D01*
X5536082Y-2194458D01*
X5536692Y-2189480D01*
X5536082Y-2184501D01*
X5534355Y-2180031D01*
X5531408Y-2176119D01*
X5527243Y-2172817D01*
X5521909Y-2170176D01*
X5515356Y-2168245D01*
X5507583Y-2167026D01*
G37*
G36*
X5481828Y-2220468D02*
G01*
X5481828Y-2230628D01*
X5461000Y-2230628D01*
X5461000Y-2238502D01*
X5481828Y-2238502D01*
X5481828Y-2262378D01*
X5488432Y-2262378D01*
X5488432Y-2238502D01*
X5515610Y-2238451D01*
X5525770Y-2237994D01*
X5525770Y-2238502D01*
X5514848Y-2244344D01*
X5488432Y-2262378D01*
X5481828Y-2262378D01*
X5481828Y-2271268D01*
X5487162Y-2271268D01*
X5535422Y-2239518D01*
X5535422Y-2230628D01*
X5488432Y-2230628D01*
X5488432Y-2220468D01*
G37*
G36*
X5461000Y-2276094D02*
G01*
X5461000Y-2285492D01*
X5493004Y-2304034D01*
X5493004Y-2318004D01*
X5500116Y-2318004D01*
X5500116Y-2305050D01*
X5500979Y-2297125D01*
X5503672Y-2291283D01*
X5508244Y-2287727D01*
X5514848Y-2286508D01*
X5521299Y-2287727D01*
X5525516Y-2291283D01*
X5527852Y-2297125D01*
X5528564Y-2305050D01*
X5528564Y-2318004D01*
X5461000Y-2318004D01*
X5461000Y-2326386D01*
X5535422Y-2326386D01*
X5535422Y-2303780D01*
X5535168Y-2298293D01*
X5534355Y-2293315D01*
X5532932Y-2288895D01*
X5530850Y-2285085D01*
X5528056Y-2282037D01*
X5524500Y-2279751D01*
X5520131Y-2278380D01*
X5514848Y-2277872D01*
X5506974Y-2279091D01*
X5500928Y-2282596D01*
X5496610Y-2288032D01*
X5494020Y-2295144D01*
G37*
G36*
X4381500Y-1319530D02*
G01*
X4374794Y-1320190D01*
X4368698Y-1322171D01*
X4363212Y-1325372D01*
X4358538Y-1329740D01*
X4354728Y-1335278D01*
X4351883Y-1341831D01*
X4350105Y-1349400D01*
X4349496Y-1357884D01*
X4350105Y-1366418D01*
X4351934Y-1373987D01*
X4354830Y-1380591D01*
X4358690Y-1386128D01*
X4363466Y-1390548D01*
X4369003Y-1393799D01*
X4375200Y-1395831D01*
X4382008Y-1396492D01*
X4388408Y-1395730D01*
X4393996Y-1393748D01*
X4398619Y-1390802D01*
X4402328Y-1387348D01*
X4397502Y-1382014D01*
X4394403Y-1384960D01*
X4390796Y-1387195D01*
X4386681Y-1388618D01*
X4382008Y-1389126D01*
X4376826Y-1388567D01*
X4372152Y-1386941D01*
X4368088Y-1384350D01*
X4364634Y-1380794D01*
X4361891Y-1376324D01*
X4359808Y-1371041D01*
X4358589Y-1364945D01*
X4358132Y-1358138D01*
X4358538Y-1351330D01*
X4359808Y-1345234D01*
X4361789Y-1339900D01*
X4364532Y-1335379D01*
X4367936Y-1331772D01*
X4371949Y-1329080D01*
X4376572Y-1327454D01*
X4381754Y-1326896D01*
X4386935Y-1327454D01*
X4391456Y-1329131D01*
X4395520Y-1331823D01*
X4399280Y-1335532D01*
X4404106Y-1330198D01*
X4399483Y-1325626D01*
X4394250Y-1322273D01*
X4388307Y-1320241D01*
G37*
G36*
X4416806Y-1320800D02*
G01*
X4416806Y-1327658D01*
X4433570Y-1327658D01*
X4433570Y-1384808D01*
X4420362Y-1384808D01*
X4420362Y-1390142D01*
X4424832Y-1391056D01*
X4428794Y-1392224D01*
X4432300Y-1393596D01*
X4435348Y-1395222D01*
X4441698Y-1395222D01*
X4441698Y-1327658D01*
X4456938Y-1327658D01*
X4456938Y-1320800D01*
G37*
G36*
X4258056Y-1090930D02*
G01*
X4251452Y-1091590D01*
X4245356Y-1093571D01*
X4239869Y-1096772D01*
X4235196Y-1101140D01*
X4231335Y-1106678D01*
X4228490Y-1113231D01*
X4226661Y-1120800D01*
X4226052Y-1129284D01*
X4226712Y-1137818D01*
X4228541Y-1145387D01*
X4231487Y-1151991D01*
X4235399Y-1157528D01*
X4240174Y-1161948D01*
X4245762Y-1165199D01*
X4252010Y-1167231D01*
X4258818Y-1167892D01*
X4265117Y-1167130D01*
X4270654Y-1165148D01*
X4275277Y-1162202D01*
X4278884Y-1158748D01*
X4274312Y-1153414D01*
X4271213Y-1156360D01*
X4267606Y-1158595D01*
X4263491Y-1160018D01*
X4258818Y-1160526D01*
X4253636Y-1159967D01*
X4248962Y-1158341D01*
X4244797Y-1155750D01*
X4241342Y-1152194D01*
X4238498Y-1147724D01*
X4236415Y-1142441D01*
X4235145Y-1136345D01*
X4234688Y-1129538D01*
X4235094Y-1122730D01*
X4236364Y-1116634D01*
X4238345Y-1111300D01*
X4241088Y-1106779D01*
X4244543Y-1103172D01*
X4248607Y-1100480D01*
X4253331Y-1098854D01*
X4258564Y-1098296D01*
X4263644Y-1098854D01*
X4268165Y-1100531D01*
X4272330Y-1103223D01*
X4276090Y-1106932D01*
X4280916Y-1101598D01*
X4276242Y-1097026D01*
X4270908Y-1093673D01*
X4264863Y-1091641D01*
G37*
G36*
X4201414Y-1092200D02*
G01*
X4201414Y-1166622D01*
X4209796Y-1166622D01*
X4209796Y-1092200D01*
G37*
G36*
X4293616Y-1092200D02*
G01*
X4293616Y-1099058D01*
X4310380Y-1099058D01*
X4310380Y-1156208D01*
X4297172Y-1156208D01*
X4297172Y-1161542D01*
X4301642Y-1162456D01*
X4305604Y-1163624D01*
X4309110Y-1164996D01*
X4312158Y-1166622D01*
X4318508Y-1166622D01*
X4318508Y-1099058D01*
X4333748Y-1099058D01*
X4333748Y-1092200D01*
G37*
G36*
X4943856Y-1370330D02*
G01*
X4937252Y-1370990D01*
X4931156Y-1372971D01*
X4925669Y-1376172D01*
X4920996Y-1380540D01*
X4917135Y-1386078D01*
X4914290Y-1392631D01*
X4912461Y-1400200D01*
X4911852Y-1408684D01*
X4912512Y-1417218D01*
X4914341Y-1424787D01*
X4917287Y-1431391D01*
X4921199Y-1436928D01*
X4925974Y-1441348D01*
X4931562Y-1444599D01*
X4937810Y-1446631D01*
X4944618Y-1447292D01*
X4950917Y-1446530D01*
X4956454Y-1444548D01*
X4961077Y-1441602D01*
X4964684Y-1438148D01*
X4960112Y-1432814D01*
X4957013Y-1435760D01*
X4953406Y-1437995D01*
X4949291Y-1439418D01*
X4944618Y-1439926D01*
X4939436Y-1439367D01*
X4934762Y-1437741D01*
X4930597Y-1435150D01*
X4927142Y-1431594D01*
X4924298Y-1427124D01*
X4922215Y-1421841D01*
X4920945Y-1415745D01*
X4920488Y-1408938D01*
X4920894Y-1402130D01*
X4922164Y-1396034D01*
X4924145Y-1390700D01*
X4926888Y-1386179D01*
X4930343Y-1382572D01*
X4934407Y-1379880D01*
X4939131Y-1378254D01*
X4944364Y-1377696D01*
X4949444Y-1378254D01*
X4953965Y-1379931D01*
X4958130Y-1382623D01*
X4961890Y-1386332D01*
X4966716Y-1380998D01*
X4962042Y-1376426D01*
X4956708Y-1373073D01*
X4950663Y-1371041D01*
G37*
G36*
X4887214Y-1371600D02*
G01*
X4887214Y-1446022D01*
X4895596Y-1446022D01*
X4895596Y-1371600D01*
G37*
G36*
X4974844Y-1371600D02*
G01*
X4974844Y-1376680D01*
X4983175Y-1384147D01*
X4990338Y-1391107D01*
X4996281Y-1397660D01*
X5001056Y-1403807D01*
X5004765Y-1409598D01*
X5007356Y-1415034D01*
X5008880Y-1420215D01*
X5009388Y-1425194D01*
X5008524Y-1431340D01*
X5005882Y-1436268D01*
X5001463Y-1439519D01*
X4995164Y-1440688D01*
X4990693Y-1439976D01*
X4986528Y-1438046D01*
X4982718Y-1435201D01*
X4979416Y-1431798D01*
X4974336Y-1436370D01*
X4979009Y-1440840D01*
X4984038Y-1444294D01*
X4989677Y-1446530D01*
X4996180Y-1447292D01*
X5000904Y-1446885D01*
X5005070Y-1445717D01*
X5008727Y-1443837D01*
X5011826Y-1441348D01*
X5014264Y-1438148D01*
X5016042Y-1434439D01*
X5017160Y-1430172D01*
X5017516Y-1425448D01*
X5016957Y-1419809D01*
X5015382Y-1414119D01*
X5012791Y-1408379D01*
X5009286Y-1402588D01*
X5004968Y-1396695D01*
X4999837Y-1390650D01*
X4993995Y-1384503D01*
X4987544Y-1378204D01*
X4999736Y-1378712D01*
X5021072Y-1378712D01*
X5021072Y-1371600D01*
G37*
G36*
X5045456Y-2106930D02*
G01*
X5038852Y-2107590D01*
X5032756Y-2109571D01*
X5027269Y-2112772D01*
X5022596Y-2117140D01*
X5018735Y-2122678D01*
X5015890Y-2129231D01*
X5014061Y-2136800D01*
X5013452Y-2145284D01*
X5014112Y-2153818D01*
X5015941Y-2161387D01*
X5018887Y-2167991D01*
X5022799Y-2173528D01*
X5027574Y-2177948D01*
X5033162Y-2181199D01*
X5039410Y-2183231D01*
X5046218Y-2183892D01*
X5052517Y-2183130D01*
X5058054Y-2181148D01*
X5062677Y-2178202D01*
X5066284Y-2174748D01*
X5061712Y-2169414D01*
X5058613Y-2172360D01*
X5055006Y-2174595D01*
X5050891Y-2176018D01*
X5046218Y-2176526D01*
X5041036Y-2175967D01*
X5036362Y-2174341D01*
X5032197Y-2171750D01*
X5028742Y-2168194D01*
X5025898Y-2163724D01*
X5023815Y-2158441D01*
X5022545Y-2152345D01*
X5022088Y-2145538D01*
X5022494Y-2138730D01*
X5023764Y-2132634D01*
X5025745Y-2127300D01*
X5028488Y-2122779D01*
X5031943Y-2119172D01*
X5036007Y-2116480D01*
X5040731Y-2114854D01*
X5045964Y-2114296D01*
X5051044Y-2114854D01*
X5055565Y-2116531D01*
X5059730Y-2119223D01*
X5063490Y-2122932D01*
X5068316Y-2117598D01*
X5063642Y-2113026D01*
X5058308Y-2109673D01*
X5052263Y-2107641D01*
G37*
G36*
X5098542Y-2106930D02*
G01*
X5090718Y-2107742D01*
X5084267Y-2110028D01*
X5079034Y-2113229D01*
X5074920Y-2117090D01*
X5079238Y-2122424D01*
X5082743Y-2119122D01*
X5086908Y-2116378D01*
X5091938Y-2114499D01*
X5098034Y-2113788D01*
X5104333Y-2114804D01*
X5109210Y-2117699D01*
X5112410Y-2122271D01*
X5113528Y-2128266D01*
X5112308Y-2134565D01*
X5108295Y-2139442D01*
X5101082Y-2142642D01*
X5090160Y-2143760D01*
X5090160Y-2150110D01*
X5099964Y-2151227D01*
X5106365Y-2154326D01*
X5109921Y-2159000D01*
X5110988Y-2164842D01*
X5110073Y-2169871D01*
X5107482Y-2173732D01*
X5103368Y-2176272D01*
X5098034Y-2177288D01*
X5093614Y-2176576D01*
X5089499Y-2175002D01*
X5085689Y-2172665D01*
X5082286Y-2169668D01*
X5077714Y-2175256D01*
X5082082Y-2178659D01*
X5086858Y-2181402D01*
X5092192Y-2183231D01*
X5098288Y-2183892D01*
X5106720Y-2182672D01*
X5113426Y-2179116D01*
X5117795Y-2173376D01*
X5119370Y-2165604D01*
X5118404Y-2159203D01*
X5115712Y-2154072D01*
X5111546Y-2150160D01*
X5106162Y-2147316D01*
X5106162Y-2147062D01*
X5112258Y-2144674D01*
X5117287Y-2140559D01*
X5120640Y-2134971D01*
X5121910Y-2128012D01*
X5121452Y-2123338D01*
X5120081Y-2119122D01*
X5117947Y-2115515D01*
X5115102Y-2112518D01*
X5111648Y-2110130D01*
X5107635Y-2108352D01*
X5103266Y-2107285D01*
G37*
G36*
X4988814Y-2108200D02*
G01*
X4988814Y-2182622D01*
X4997196Y-2182622D01*
X4997196Y-2108200D01*
G37*
G36*
X4386580Y-1474978D02*
G01*
X4381093Y-1475232D01*
X4376115Y-1476044D01*
X4371695Y-1477467D01*
X4367936Y-1479550D01*
X4364837Y-1482344D01*
X4362602Y-1485900D01*
X4361180Y-1490268D01*
X4360672Y-1495552D01*
X4369308Y-1495552D01*
X4370527Y-1489100D01*
X4374083Y-1484884D01*
X4379925Y-1482547D01*
X4387850Y-1481836D01*
X4400804Y-1481836D01*
X4400804Y-1510284D01*
X4387850Y-1510284D01*
X4379925Y-1509420D01*
X4374083Y-1506728D01*
X4370527Y-1502156D01*
X4369308Y-1495552D01*
X4360672Y-1495552D01*
X4361891Y-1503426D01*
X4365396Y-1509471D01*
X4370832Y-1513789D01*
X4377944Y-1516380D01*
X4358894Y-1549400D01*
X4368292Y-1549400D01*
X4386834Y-1517396D01*
X4400804Y-1517396D01*
X4400804Y-1549400D01*
X4409186Y-1549400D01*
X4409186Y-1474978D01*
G37*
G36*
X4304792Y-1474978D02*
G01*
X4304792Y-1480058D01*
X4308957Y-1485595D01*
X4312513Y-1491030D01*
X4315561Y-1496364D01*
X4318152Y-1501648D01*
X4320286Y-1506982D01*
X4322013Y-1512366D01*
X4323435Y-1517853D01*
X4324553Y-1523593D01*
X4325416Y-1529537D01*
X4326534Y-1542389D01*
X4326890Y-1549400D01*
X4335526Y-1549400D01*
X4334560Y-1535836D01*
X4332782Y-1523695D01*
X4330039Y-1512620D01*
X4328261Y-1507337D01*
X4326178Y-1502206D01*
X4323791Y-1497126D01*
X4321048Y-1492148D01*
X4317949Y-1487119D01*
X4314444Y-1482090D01*
X4351020Y-1482090D01*
X4351020Y-1474978D01*
G37*
G36*
X4734814Y-2438400D02*
G01*
X4734814Y-2477516D01*
X4756150Y-2477516D01*
X4764074Y-2478379D01*
X4769916Y-2481072D01*
X4773472Y-2485644D01*
X4774692Y-2492248D01*
X4773472Y-2498699D01*
X4769916Y-2502916D01*
X4764074Y-2505252D01*
X4756150Y-2505964D01*
X4743196Y-2505964D01*
X4743196Y-2477516D01*
X4734814Y-2477516D01*
X4734814Y-2512822D01*
X4757420Y-2512822D01*
X4762906Y-2512568D01*
X4767884Y-2511755D01*
X4772304Y-2510332D01*
X4776114Y-2508250D01*
X4779162Y-2505456D01*
X4781397Y-2501900D01*
X4782820Y-2497531D01*
X4783328Y-2492248D01*
X4782108Y-2484374D01*
X4778603Y-2478328D01*
X4773168Y-2474010D01*
X4766056Y-2471420D01*
X4785106Y-2438400D01*
X4775708Y-2438400D01*
X4757166Y-2470404D01*
X4743196Y-2470404D01*
X4743196Y-2438400D01*
G37*
G36*
X4797044Y-2438400D02*
G01*
X4797044Y-2445258D01*
X4813808Y-2445258D01*
X4813808Y-2502408D01*
X4800600Y-2502408D01*
X4800600Y-2507742D01*
X4805172Y-2508656D01*
X4809185Y-2509824D01*
X4812690Y-2511196D01*
X4815840Y-2512822D01*
X4821936Y-2512822D01*
X4821936Y-2445258D01*
X4837176Y-2445258D01*
X4837176Y-2438400D01*
G37*
G36*
X4864100Y-2438400D02*
G01*
X4865116Y-2451963D01*
X4865878Y-2458161D01*
X4866944Y-2464104D01*
X4868214Y-2469743D01*
X4869738Y-2475179D01*
X4871516Y-2480462D01*
X4873650Y-2485593D01*
X4876088Y-2490673D01*
X4878832Y-2495651D01*
X4881930Y-2500680D01*
X4885436Y-2505710D01*
X4848860Y-2505710D01*
X4848860Y-2512822D01*
X4894834Y-2512822D01*
X4894834Y-2507742D01*
X4890719Y-2502204D01*
X4887214Y-2496769D01*
X4884166Y-2491435D01*
X4881575Y-2486152D01*
X4879441Y-2480818D01*
X4877714Y-2475433D01*
X4876241Y-2469946D01*
X4875123Y-2464206D01*
X4873599Y-2452014D01*
X4872736Y-2438400D01*
G37*
G36*
X4871974Y-2233930D02*
G01*
X4862626Y-2235403D01*
X4855108Y-2239568D01*
X4850130Y-2245817D01*
X4848352Y-2253742D01*
X4848441Y-2254250D01*
X4855972Y-2254250D01*
X4857191Y-2248611D01*
X4860594Y-2244090D01*
X4865725Y-2241092D01*
X4872228Y-2240026D01*
X4878273Y-2241042D01*
X4882946Y-2243785D01*
X4885893Y-2247950D01*
X4886960Y-2253234D01*
X4885334Y-2259939D01*
X4880914Y-2264765D01*
X4874412Y-2268524D01*
X4866640Y-2271776D01*
X4862423Y-2268372D01*
X4859020Y-2264257D01*
X4856784Y-2259533D01*
X4855972Y-2254250D01*
X4848441Y-2254250D01*
X4849571Y-2260650D01*
X4852771Y-2266391D01*
X4857242Y-2271014D01*
X4862322Y-2274316D01*
X4862322Y-2274824D01*
X4858461Y-2277872D01*
X4855260Y-2281732D01*
X4852974Y-2286355D01*
X4852162Y-2291842D01*
X4859782Y-2291842D01*
X4861255Y-2285847D01*
X4865065Y-2281377D01*
X4870602Y-2278024D01*
X4877054Y-2275332D01*
X4880559Y-2278735D01*
X4883099Y-2282494D01*
X4884674Y-2286457D01*
X4885182Y-2290572D01*
X4884318Y-2295906D01*
X4881778Y-2300274D01*
X4877663Y-2303221D01*
X4872228Y-2304288D01*
X4867300Y-2303373D01*
X4863338Y-2300833D01*
X4860747Y-2296871D01*
X4859782Y-2291842D01*
X4852162Y-2291842D01*
X4853686Y-2299512D01*
X4857902Y-2305405D01*
X4864252Y-2309266D01*
X4872228Y-2310638D01*
X4880762Y-2309164D01*
X4887163Y-2305151D01*
X4891176Y-2298954D01*
X4892548Y-2291080D01*
X4891582Y-2285390D01*
X4889093Y-2280361D01*
X4885791Y-2276144D01*
X4882388Y-2273046D01*
X4882388Y-2272538D01*
X4887163Y-2269286D01*
X4891227Y-2265121D01*
X4894021Y-2259787D01*
X4895088Y-2252980D01*
X4893411Y-2245512D01*
X4888687Y-2239467D01*
X4881372Y-2235403D01*
G37*
G36*
X4734814Y-2235200D02*
G01*
X4734814Y-2274316D01*
X4756150Y-2274316D01*
X4764074Y-2275179D01*
X4769916Y-2277872D01*
X4773472Y-2282444D01*
X4774692Y-2289048D01*
X4773472Y-2295499D01*
X4769916Y-2299716D01*
X4764074Y-2302052D01*
X4756150Y-2302764D01*
X4743196Y-2302764D01*
X4743196Y-2274316D01*
X4734814Y-2274316D01*
X4734814Y-2309622D01*
X4757420Y-2309622D01*
X4762906Y-2309368D01*
X4767884Y-2308555D01*
X4772304Y-2307132D01*
X4776114Y-2305050D01*
X4779162Y-2302256D01*
X4781397Y-2298700D01*
X4782820Y-2294331D01*
X4783328Y-2289048D01*
X4782108Y-2281174D01*
X4778603Y-2275128D01*
X4773168Y-2270810D01*
X4766056Y-2268220D01*
X4785106Y-2235200D01*
X4775708Y-2235200D01*
X4757166Y-2267204D01*
X4743196Y-2267204D01*
X4743196Y-2235200D01*
G37*
G36*
X4797044Y-2235200D02*
G01*
X4797044Y-2242058D01*
X4813808Y-2242058D01*
X4813808Y-2299208D01*
X4800600Y-2299208D01*
X4800600Y-2304542D01*
X4805172Y-2305456D01*
X4809185Y-2306624D01*
X4812690Y-2307996D01*
X4815840Y-2309622D01*
X4821936Y-2309622D01*
X4821936Y-2242058D01*
X4837176Y-2242058D01*
X4837176Y-2235200D01*
G37*
G36*
X3862578Y-1305814D02*
G01*
X3862578Y-1314196D01*
X3897884Y-1314196D01*
X3897884Y-1327150D01*
X3897020Y-1335074D01*
X3894328Y-1340916D01*
X3889756Y-1344472D01*
X3883151Y-1345692D01*
X3876700Y-1344472D01*
X3872484Y-1340916D01*
X3870147Y-1335074D01*
X3869436Y-1327150D01*
X3869436Y-1314196D01*
X3862578Y-1314196D01*
X3862578Y-1328420D01*
X3862832Y-1333906D01*
X3863644Y-1338884D01*
X3865067Y-1343304D01*
X3867150Y-1347114D01*
X3869944Y-1350162D01*
X3873500Y-1352448D01*
X3877868Y-1353820D01*
X3883151Y-1354328D01*
X3891026Y-1353108D01*
X3897071Y-1349603D01*
X3901389Y-1344168D01*
X3903979Y-1337056D01*
X3937000Y-1356106D01*
X3937000Y-1346708D01*
X3904996Y-1328166D01*
X3904996Y-1314196D01*
X3937000Y-1314196D01*
X3937000Y-1305814D01*
G37*
G36*
X3872229Y-1363218D02*
G01*
X3867759Y-1367790D01*
X3864305Y-1372768D01*
X3862070Y-1378407D01*
X3861308Y-1384808D01*
X3861714Y-1389532D01*
X3862882Y-1393698D01*
X3864762Y-1397355D01*
X3867302Y-1400403D01*
X3870451Y-1402892D01*
X3874160Y-1404670D01*
X3878427Y-1405788D01*
X3883151Y-1406144D01*
X3888790Y-1405585D01*
X3894480Y-1404010D01*
X3900220Y-1401470D01*
X3906012Y-1398016D01*
X3911904Y-1393698D01*
X3917950Y-1388567D01*
X3924096Y-1382725D01*
X3930396Y-1376172D01*
X3929887Y-1388364D01*
X3929887Y-1409700D01*
X3937000Y-1409700D01*
X3937000Y-1363726D01*
X3931920Y-1363726D01*
X3924452Y-1372006D01*
X3917492Y-1379067D01*
X3910939Y-1384960D01*
X3904792Y-1389735D01*
X3899001Y-1393393D01*
X3893565Y-1395984D01*
X3888384Y-1397508D01*
X3883406Y-1398016D01*
X3877259Y-1397152D01*
X3872331Y-1394510D01*
X3869080Y-1390091D01*
X3867912Y-1383792D01*
X3868623Y-1379372D01*
X3870553Y-1375257D01*
X3873398Y-1371447D01*
X3876801Y-1368044D01*
G37*
G36*
X3899408Y-1419860D02*
G01*
X3890416Y-1420266D01*
X3882644Y-1421485D01*
X3876090Y-1423416D01*
X3870756Y-1426057D01*
X3866591Y-1429359D01*
X3863644Y-1433271D01*
X3861917Y-1437741D01*
X3861308Y-1442720D01*
X3867912Y-1442720D01*
X3868369Y-1439621D01*
X3869791Y-1436776D01*
X3872179Y-1434287D01*
X3875582Y-1432102D01*
X3879951Y-1430375D01*
X3885387Y-1429054D01*
X3891838Y-1428242D01*
X3899408Y-1427988D01*
X3907231Y-1428242D01*
X3913886Y-1429054D01*
X3919423Y-1430375D01*
X3923944Y-1432102D01*
X3927348Y-1434287D01*
X3929786Y-1436776D01*
X3931208Y-1439621D01*
X3931665Y-1442720D01*
X3931208Y-1445920D01*
X3929786Y-1448765D01*
X3927348Y-1451305D01*
X3923944Y-1453438D01*
X3919423Y-1455115D01*
X3913886Y-1456385D01*
X3907231Y-1457198D01*
X3899408Y-1457452D01*
X3891838Y-1457198D01*
X3885387Y-1456385D01*
X3879951Y-1455115D01*
X3875582Y-1453438D01*
X3872179Y-1451305D01*
X3869791Y-1448765D01*
X3868369Y-1445920D01*
X3867912Y-1442720D01*
X3861308Y-1442720D01*
X3861917Y-1447698D01*
X3863644Y-1452168D01*
X3866591Y-1456080D01*
X3870756Y-1459382D01*
X3876090Y-1462024D01*
X3882644Y-1463954D01*
X3890416Y-1465173D01*
X3899408Y-1465580D01*
X3908602Y-1465173D01*
X3916527Y-1463954D01*
X3923182Y-1462024D01*
X3928668Y-1459382D01*
X3932885Y-1456080D01*
X3935882Y-1452168D01*
X3937660Y-1447698D01*
X3938270Y-1442720D01*
X3937660Y-1437741D01*
X3935882Y-1433271D01*
X3932885Y-1429359D01*
X3928668Y-1426057D01*
X3923182Y-1423416D01*
X3916527Y-1421485D01*
X3908602Y-1420266D01*
G37*
G36*
X3899915Y-2698496D02*
G01*
X3891381Y-2699105D01*
X3883812Y-2700934D01*
X3877208Y-2703830D01*
X3871671Y-2707690D01*
X3867251Y-2712466D01*
X3864000Y-2718003D01*
X3861968Y-2724200D01*
X3861308Y-2731008D01*
X3862070Y-2737408D01*
X3864051Y-2742996D01*
X3866997Y-2747619D01*
X3870451Y-2751328D01*
X3875786Y-2746502D01*
X3872839Y-2743403D01*
X3870604Y-2739796D01*
X3869182Y-2735681D01*
X3868674Y-2731008D01*
X3869232Y-2725826D01*
X3870858Y-2721152D01*
X3873449Y-2717088D01*
X3877005Y-2713634D01*
X3881475Y-2710891D01*
X3886758Y-2708808D01*
X3892854Y-2707589D01*
X3899662Y-2707132D01*
X3906469Y-2707538D01*
X3912565Y-2708808D01*
X3917899Y-2710789D01*
X3922420Y-2713532D01*
X3926027Y-2716936D01*
X3928719Y-2720949D01*
X3930345Y-2725572D01*
X3930904Y-2730754D01*
X3930345Y-2735935D01*
X3928668Y-2740456D01*
X3925976Y-2744520D01*
X3922268Y-2748280D01*
X3927601Y-2753106D01*
X3932174Y-2748483D01*
X3935526Y-2743250D01*
X3937558Y-2737307D01*
X3938270Y-2730500D01*
X3937609Y-2723794D01*
X3935628Y-2717698D01*
X3932428Y-2712212D01*
X3928059Y-2707538D01*
X3922522Y-2703728D01*
X3915968Y-2700883D01*
X3908399Y-2699105D01*
G37*
G36*
X3901694Y-2762504D02*
G01*
X3891483Y-2763113D01*
X3882948Y-2764790D01*
X3875989Y-2767431D01*
X3870451Y-2770886D01*
X3866337Y-2775000D01*
X3863492Y-2779623D01*
X3861815Y-2784652D01*
X3861308Y-2789936D01*
X3861866Y-2795066D01*
X3863390Y-2799537D01*
X3865676Y-2803398D01*
X3868674Y-2806700D01*
X3874008Y-2802128D01*
X3871620Y-2799588D01*
X3869740Y-2796641D01*
X3868572Y-2793441D01*
X3868165Y-2790190D01*
X3868572Y-2786380D01*
X3869791Y-2782773D01*
X3871976Y-2779471D01*
X3875176Y-2776575D01*
X3879494Y-2774137D01*
X3884980Y-2772206D01*
X3891787Y-2770936D01*
X3899915Y-2770378D01*
X3896156Y-2774238D01*
X3893362Y-2778556D01*
X3891635Y-2783078D01*
X3891195Y-2786380D01*
X3897122Y-2786380D01*
X3897680Y-2782620D01*
X3899408Y-2778607D01*
X3902456Y-2774543D01*
X3907028Y-2770632D01*
X3917543Y-2772257D01*
X3925265Y-2775559D01*
X3930040Y-2780538D01*
X3931665Y-2787142D01*
X3930396Y-2792323D01*
X3926789Y-2796489D01*
X3921251Y-2799334D01*
X3914140Y-2800350D01*
X3907180Y-2799486D01*
X3901795Y-2796895D01*
X3898341Y-2792526D01*
X3897122Y-2786380D01*
X3891195Y-2786380D01*
X3891026Y-2787650D01*
X3891381Y-2792120D01*
X3892499Y-2796133D01*
X3894328Y-2799638D01*
X3896868Y-2802585D01*
X3900119Y-2804972D01*
X3904081Y-2806750D01*
X3908755Y-2807868D01*
X3914140Y-2808224D01*
X3919321Y-2807766D01*
X3923995Y-2806547D01*
X3928160Y-2804566D01*
X3931615Y-2801975D01*
X3934460Y-2798826D01*
X3936542Y-2795270D01*
X3937812Y-2791307D01*
X3938270Y-2787142D01*
X3937711Y-2782011D01*
X3935933Y-2777286D01*
X3933037Y-2773070D01*
X3929024Y-2769463D01*
X3923893Y-2766568D01*
X3917594Y-2764332D01*
X3910177Y-2762961D01*
G37*
G36*
X5650992Y-406908D02*
G01*
X5646267Y-407314D01*
X5642102Y-408482D01*
X5638444Y-410362D01*
X5635396Y-412851D01*
X5632907Y-416051D01*
X5631129Y-419760D01*
X5630011Y-424027D01*
X5629656Y-428751D01*
X5630214Y-434390D01*
X5631789Y-440080D01*
X5634329Y-445820D01*
X5637784Y-451612D01*
X5642102Y-457504D01*
X5647232Y-463550D01*
X5653074Y-469696D01*
X5659628Y-475996D01*
X5647436Y-475488D01*
X5626100Y-475488D01*
X5626100Y-482600D01*
X5672074Y-482600D01*
X5672074Y-477520D01*
X5663793Y-470052D01*
X5656732Y-463092D01*
X5650839Y-456539D01*
X5646064Y-450392D01*
X5642406Y-444601D01*
X5639816Y-439166D01*
X5638292Y-433984D01*
X5637784Y-429006D01*
X5638647Y-422859D01*
X5641289Y-417931D01*
X5645708Y-414680D01*
X5652008Y-413512D01*
X5656427Y-414223D01*
X5660542Y-416153D01*
X5664352Y-418998D01*
X5667756Y-422401D01*
X5672582Y-417830D01*
X5668010Y-413359D01*
X5663031Y-409905D01*
X5657392Y-407670D01*
G37*
G36*
X5707380Y-408178D02*
G01*
X5701893Y-408432D01*
X5696915Y-409244D01*
X5692495Y-410667D01*
X5688736Y-412750D01*
X5685637Y-415543D01*
X5683402Y-419100D01*
X5681980Y-423468D01*
X5681472Y-428751D01*
X5690108Y-428751D01*
X5691327Y-422300D01*
X5694883Y-418084D01*
X5700725Y-415747D01*
X5708650Y-415035D01*
X5721604Y-415035D01*
X5721604Y-443484D01*
X5708650Y-443484D01*
X5700725Y-442620D01*
X5694883Y-439928D01*
X5691327Y-435356D01*
X5690108Y-428751D01*
X5681472Y-428751D01*
X5682691Y-436626D01*
X5686196Y-442671D01*
X5691632Y-446989D01*
X5698744Y-449580D01*
X5679694Y-482600D01*
X5689092Y-482600D01*
X5707634Y-450596D01*
X5721604Y-450596D01*
X5721604Y-482600D01*
X5729986Y-482600D01*
X5729986Y-408178D01*
G37*
G36*
X5586984Y-408178D02*
G01*
X5586984Y-475742D01*
X5571744Y-475742D01*
X5571744Y-482600D01*
X5611876Y-482600D01*
X5611876Y-475742D01*
X5595112Y-475742D01*
X5595112Y-418592D01*
X5608320Y-418592D01*
X5608320Y-413258D01*
X5603849Y-412343D01*
X5599887Y-411175D01*
X5596382Y-409803D01*
X5593334Y-408178D01*
G37*
G36*
X3701542Y-2577084D02*
G01*
X3696004Y-2581198D01*
X3690569Y-2584704D01*
X3685235Y-2587752D01*
X3679951Y-2590292D01*
X3674618Y-2592425D01*
X3669233Y-2594203D01*
X3663746Y-2595626D01*
X3652062Y-2597556D01*
X3639210Y-2598623D01*
X3632200Y-2598928D01*
X3632200Y-2607564D01*
X3645763Y-2606649D01*
X3657904Y-2604922D01*
X3668979Y-2602179D01*
X3674262Y-2600350D01*
X3679393Y-2598267D01*
X3684473Y-2595829D01*
X3689451Y-2593086D01*
X3694480Y-2589987D01*
X3699510Y-2586482D01*
X3699510Y-2623058D01*
X3706622Y-2623058D01*
X3706622Y-2577084D01*
G37*
G36*
X3641598Y-2631694D02*
G01*
X3637026Y-2636316D01*
X3633673Y-2641549D01*
X3631641Y-2647492D01*
X3630929Y-2654300D01*
X3631590Y-2661005D01*
X3633571Y-2667101D01*
X3636772Y-2672588D01*
X3641140Y-2677261D01*
X3646678Y-2681071D01*
X3653231Y-2683916D01*
X3660800Y-2685694D01*
X3669284Y-2686304D01*
X3677818Y-2685694D01*
X3685387Y-2683865D01*
X3691991Y-2680970D01*
X3697528Y-2677109D01*
X3701948Y-2672334D01*
X3705199Y-2666796D01*
X3707231Y-2660599D01*
X3707892Y-2653792D01*
X3707129Y-2647391D01*
X3705148Y-2641803D01*
X3702202Y-2637180D01*
X3698748Y-2633472D01*
X3693414Y-2638298D01*
X3696360Y-2641396D01*
X3698595Y-2645003D01*
X3700018Y-2649118D01*
X3700526Y-2653792D01*
X3699967Y-2658973D01*
X3698341Y-2663647D01*
X3695750Y-2667711D01*
X3692194Y-2671165D01*
X3687724Y-2673908D01*
X3682441Y-2675991D01*
X3676345Y-2677210D01*
X3669537Y-2677668D01*
X3662730Y-2677261D01*
X3656634Y-2675991D01*
X3651300Y-2674010D01*
X3646779Y-2671267D01*
X3643172Y-2667863D01*
X3640480Y-2663850D01*
X3638854Y-2659227D01*
X3638296Y-2654046D01*
X3638854Y-2648864D01*
X3640531Y-2644343D01*
X3643223Y-2640279D01*
X3646932Y-2636520D01*
G37*
G36*
X5600192Y-2692908D02*
G01*
X5595467Y-2693314D01*
X5591302Y-2694482D01*
X5587644Y-2696311D01*
X5584596Y-2698851D01*
X5582107Y-2702052D01*
X5580329Y-2705760D01*
X5579211Y-2710027D01*
X5578856Y-2714752D01*
X5579414Y-2720390D01*
X5580989Y-2726080D01*
X5583529Y-2731820D01*
X5586984Y-2737612D01*
X5591302Y-2743504D01*
X5596432Y-2749550D01*
X5602274Y-2755696D01*
X5608828Y-2761996D01*
X5596636Y-2761488D01*
X5575300Y-2761488D01*
X5575300Y-2768600D01*
X5621274Y-2768600D01*
X5621274Y-2763520D01*
X5612993Y-2756052D01*
X5605932Y-2749092D01*
X5600039Y-2742539D01*
X5595264Y-2736392D01*
X5591606Y-2730601D01*
X5589016Y-2725166D01*
X5587492Y-2719984D01*
X5586984Y-2715006D01*
X5587847Y-2708859D01*
X5590489Y-2703931D01*
X5594908Y-2700680D01*
X5601208Y-2699512D01*
X5605627Y-2700223D01*
X5609742Y-2702153D01*
X5613552Y-2704998D01*
X5616956Y-2708402D01*
X5621782Y-2703830D01*
X5617210Y-2699359D01*
X5612231Y-2695905D01*
X5606592Y-2693670D01*
G37*
G36*
X5544312Y-2692908D02*
G01*
X5539587Y-2693314D01*
X5535422Y-2694482D01*
X5531764Y-2696311D01*
X5528716Y-2698851D01*
X5526227Y-2702052D01*
X5524449Y-2705760D01*
X5523331Y-2710027D01*
X5522976Y-2714752D01*
X5523534Y-2720390D01*
X5525109Y-2726080D01*
X5527700Y-2731820D01*
X5531205Y-2737612D01*
X5535523Y-2743504D01*
X5540654Y-2749550D01*
X5546496Y-2755696D01*
X5552948Y-2761996D01*
X5540756Y-2761488D01*
X5519420Y-2761488D01*
X5519420Y-2768600D01*
X5565648Y-2768600D01*
X5565648Y-2763520D01*
X5557316Y-2756052D01*
X5550154Y-2749092D01*
X5544210Y-2742539D01*
X5539435Y-2736392D01*
X5535726Y-2730601D01*
X5533136Y-2725166D01*
X5531612Y-2719984D01*
X5531104Y-2715006D01*
X5531967Y-2708859D01*
X5534609Y-2703931D01*
X5539028Y-2700680D01*
X5545328Y-2699512D01*
X5549798Y-2700223D01*
X5553964Y-2702153D01*
X5557774Y-2704998D01*
X5561076Y-2708402D01*
X5566156Y-2703830D01*
X5561482Y-2699359D01*
X5556453Y-2695905D01*
X5550814Y-2693670D01*
G37*
G36*
X5656580Y-2694178D02*
G01*
X5651093Y-2694432D01*
X5646115Y-2695244D01*
X5641695Y-2696667D01*
X5637936Y-2698750D01*
X5634837Y-2701544D01*
X5632602Y-2705100D01*
X5631180Y-2709468D01*
X5630672Y-2714752D01*
X5639308Y-2714752D01*
X5640527Y-2708300D01*
X5644083Y-2704084D01*
X5649925Y-2701747D01*
X5657850Y-2701036D01*
X5670804Y-2701036D01*
X5670804Y-2729484D01*
X5657850Y-2729484D01*
X5649925Y-2728620D01*
X5644083Y-2725928D01*
X5640527Y-2721356D01*
X5639308Y-2714752D01*
X5630672Y-2714752D01*
X5631891Y-2722626D01*
X5635396Y-2728671D01*
X5640832Y-2732989D01*
X5647944Y-2735580D01*
X5628894Y-2768600D01*
X5638292Y-2768600D01*
X5656834Y-2736596D01*
X5670804Y-2736596D01*
X5670804Y-2768600D01*
X5679186Y-2768600D01*
X5679186Y-2694178D01*
G37*
G36*
X6218428Y-1454150D02*
G01*
X6218428Y-1464310D01*
X6197600Y-1464310D01*
X6197600Y-1472184D01*
X6218428Y-1472184D01*
X6218428Y-1495806D01*
X6225032Y-1495806D01*
X6225032Y-1472184D01*
X6252210Y-1472082D01*
X6262370Y-1471422D01*
X6262370Y-1471930D01*
X6251448Y-1477772D01*
X6225032Y-1495806D01*
X6218428Y-1495806D01*
X6218428Y-1504696D01*
X6223762Y-1504696D01*
X6272022Y-1473200D01*
X6272022Y-1464310D01*
X6225032Y-1464310D01*
X6225032Y-1454150D01*
G37*
G36*
X6206998Y-1510284D02*
G01*
X6202426Y-1514957D01*
X6199073Y-1520291D01*
X6197041Y-1526336D01*
X6196330Y-1533144D01*
X6196990Y-1539748D01*
X6198971Y-1545844D01*
X6202172Y-1551330D01*
X6206540Y-1556004D01*
X6212078Y-1559864D01*
X6218631Y-1562709D01*
X6226200Y-1564538D01*
X6234684Y-1565148D01*
X6243218Y-1564487D01*
X6250787Y-1562658D01*
X6257391Y-1559712D01*
X6262928Y-1555800D01*
X6267348Y-1551025D01*
X6270599Y-1545437D01*
X6272631Y-1539189D01*
X6273292Y-1532382D01*
X6272530Y-1526082D01*
X6270548Y-1520545D01*
X6267602Y-1515922D01*
X6264148Y-1512316D01*
X6258814Y-1516888D01*
X6261760Y-1519986D01*
X6263995Y-1523593D01*
X6265418Y-1527708D01*
X6265926Y-1532382D01*
X6265367Y-1537563D01*
X6263741Y-1542237D01*
X6261150Y-1546402D01*
X6257594Y-1549857D01*
X6253124Y-1552702D01*
X6247841Y-1554784D01*
X6241745Y-1556054D01*
X6234938Y-1556512D01*
X6228130Y-1556105D01*
X6222034Y-1554835D01*
X6216700Y-1552854D01*
X6212179Y-1550111D01*
X6208572Y-1546656D01*
X6205880Y-1542592D01*
X6204254Y-1537868D01*
X6203696Y-1532636D01*
X6204254Y-1527556D01*
X6205931Y-1523034D01*
X6208623Y-1518869D01*
X6212332Y-1515110D01*
G37*
G36*
X6197600Y-1581404D02*
G01*
X6197600Y-1589786D01*
X6272022Y-1589786D01*
X6272022Y-1581404D01*
G37*
G36*
X3212592Y-2819908D02*
G01*
X3207867Y-2820314D01*
X3203702Y-2821482D01*
X3200044Y-2823311D01*
X3196996Y-2825851D01*
X3194507Y-2829052D01*
X3192729Y-2832760D01*
X3191611Y-2837027D01*
X3191256Y-2841752D01*
X3191814Y-2847390D01*
X3193389Y-2853080D01*
X3195929Y-2858820D01*
X3199384Y-2864612D01*
X3203702Y-2870504D01*
X3208832Y-2876550D01*
X3214674Y-2882696D01*
X3221228Y-2888996D01*
X3209036Y-2888488D01*
X3187700Y-2888488D01*
X3187700Y-2895600D01*
X3233674Y-2895600D01*
X3233674Y-2890520D01*
X3225393Y-2883052D01*
X3218332Y-2876092D01*
X3212439Y-2869539D01*
X3207664Y-2863392D01*
X3204006Y-2857601D01*
X3201416Y-2852166D01*
X3199892Y-2846984D01*
X3199384Y-2842006D01*
X3200247Y-2835859D01*
X3202889Y-2830931D01*
X3207308Y-2827680D01*
X3213608Y-2826512D01*
X3218027Y-2827223D01*
X3222142Y-2829153D01*
X3225952Y-2831998D01*
X3229356Y-2835402D01*
X3234182Y-2830830D01*
X3229610Y-2826359D01*
X3224631Y-2822905D01*
X3218992Y-2820670D01*
G37*
G36*
X3268979Y-2821178D02*
G01*
X3263493Y-2821432D01*
X3258515Y-2822244D01*
X3254095Y-2823667D01*
X3250336Y-2825750D01*
X3247237Y-2828544D01*
X3245002Y-2832100D01*
X3243580Y-2836468D01*
X3243072Y-2841752D01*
X3251708Y-2841752D01*
X3252927Y-2835300D01*
X3256483Y-2831084D01*
X3262325Y-2828747D01*
X3270250Y-2828036D01*
X3283204Y-2828036D01*
X3283204Y-2856484D01*
X3270250Y-2856484D01*
X3262325Y-2855620D01*
X3256483Y-2852928D01*
X3252927Y-2848356D01*
X3251708Y-2841752D01*
X3243072Y-2841752D01*
X3244291Y-2849626D01*
X3247796Y-2855671D01*
X3253232Y-2859989D01*
X3260344Y-2862580D01*
X3241294Y-2895600D01*
X3250692Y-2895600D01*
X3269234Y-2863596D01*
X3283204Y-2863596D01*
X3283204Y-2895600D01*
X3291586Y-2895600D01*
X3291586Y-2821178D01*
G37*
G36*
X3140202Y-2821178D02*
G01*
X3140202Y-2830830D01*
X3147822Y-2830830D01*
X3153664Y-2841752D01*
X3171698Y-2868168D01*
X3148076Y-2868168D01*
X3147974Y-2840990D01*
X3147314Y-2830830D01*
X3140202Y-2830830D01*
X3140202Y-2868168D01*
X3130042Y-2868168D01*
X3130042Y-2874772D01*
X3140202Y-2874772D01*
X3140202Y-2895600D01*
X3148076Y-2895600D01*
X3148076Y-2874772D01*
X3180588Y-2874772D01*
X3180588Y-2869438D01*
X3149092Y-2821178D01*
G37*
G36*
X3009392Y-2642108D02*
G01*
X3004667Y-2642514D01*
X3000502Y-2643682D01*
X2996844Y-2645511D01*
X2993796Y-2648051D01*
X2991307Y-2651252D01*
X2989529Y-2654960D01*
X2988411Y-2659227D01*
X2988056Y-2663952D01*
X2988614Y-2669590D01*
X2990189Y-2675280D01*
X2992729Y-2681020D01*
X2996184Y-2686812D01*
X3000502Y-2692704D01*
X3005632Y-2698750D01*
X3011474Y-2704896D01*
X3018028Y-2711196D01*
X3005836Y-2710688D01*
X2984500Y-2710688D01*
X2984500Y-2717800D01*
X3030474Y-2717800D01*
X3030474Y-2712720D01*
X3022193Y-2705252D01*
X3015132Y-2698292D01*
X3009239Y-2691739D01*
X3004464Y-2685592D01*
X3000806Y-2679801D01*
X2998216Y-2674366D01*
X2996692Y-2669184D01*
X2996184Y-2664206D01*
X2997047Y-2658059D01*
X2999689Y-2653131D01*
X3004108Y-2649880D01*
X3010408Y-2648712D01*
X3014827Y-2649423D01*
X3018942Y-2651353D01*
X3022752Y-2654198D01*
X3026156Y-2657602D01*
X3030982Y-2653030D01*
X3026410Y-2648559D01*
X3021431Y-2645105D01*
X3015792Y-2642870D01*
G37*
G36*
X3065780Y-2643378D02*
G01*
X3060293Y-2643632D01*
X3055315Y-2644444D01*
X3050895Y-2645867D01*
X3047136Y-2647950D01*
X3044037Y-2650744D01*
X3041802Y-2654300D01*
X3040380Y-2658668D01*
X3039872Y-2663952D01*
X3048508Y-2663952D01*
X3049727Y-2657500D01*
X3053283Y-2653284D01*
X3059125Y-2650947D01*
X3067050Y-2650236D01*
X3080004Y-2650236D01*
X3080004Y-2678684D01*
X3067050Y-2678684D01*
X3059125Y-2677820D01*
X3053283Y-2675128D01*
X3049727Y-2670556D01*
X3048508Y-2663952D01*
X3039872Y-2663952D01*
X3041091Y-2671826D01*
X3044596Y-2677871D01*
X3050032Y-2682189D01*
X3057144Y-2684780D01*
X3038094Y-2717800D01*
X3047492Y-2717800D01*
X3066034Y-2685796D01*
X3080004Y-2685796D01*
X3080004Y-2717800D01*
X3088386Y-2717800D01*
X3088386Y-2643378D01*
G37*
G36*
X2932684Y-2643378D02*
G01*
X2932684Y-2650490D01*
X2960878Y-2650490D01*
X2962910Y-2673096D01*
X2960268Y-2671775D01*
X2957525Y-2670810D01*
X2954578Y-2670251D01*
X2951226Y-2670048D01*
X2946755Y-2670403D01*
X2942640Y-2671419D01*
X2938881Y-2673146D01*
X2935579Y-2675686D01*
X2932887Y-2678938D01*
X2930855Y-2683002D01*
X2929585Y-2687929D01*
X2929128Y-2693670D01*
X2929636Y-2699410D01*
X2931160Y-2704490D01*
X2933446Y-2708859D01*
X2936494Y-2712466D01*
X2940100Y-2715310D01*
X2944114Y-2717393D01*
X2948482Y-2718663D01*
X2953004Y-2719070D01*
X2960928Y-2718257D01*
X2967278Y-2716022D01*
X2972308Y-2712872D01*
X2976372Y-2709164D01*
X2972308Y-2703830D01*
X2968853Y-2706979D01*
X2964738Y-2709621D01*
X2959811Y-2711500D01*
X2953766Y-2712212D01*
X2947416Y-2710942D01*
X2942183Y-2707284D01*
X2938576Y-2701493D01*
X2937256Y-2693924D01*
X2938424Y-2686558D01*
X2941624Y-2681071D01*
X2946704Y-2677617D01*
X2953258Y-2676398D01*
X2956763Y-2676702D01*
X2959912Y-2677515D01*
X2962859Y-2678887D01*
X2965958Y-2680716D01*
X2970530Y-2677922D01*
X2968244Y-2643378D01*
G37*
G36*
X4874260Y-2335530D02*
G01*
X4869129Y-2336088D01*
X4864404Y-2337866D01*
X4860188Y-2340762D01*
X4856632Y-2344775D01*
X4853686Y-2349906D01*
X4851450Y-2356205D01*
X4850079Y-2363622D01*
X4849909Y-2366772D01*
X4857750Y-2366772D01*
X4859375Y-2356256D01*
X4862677Y-2348534D01*
X4867656Y-2343759D01*
X4874260Y-2342134D01*
X4879441Y-2343404D01*
X4883607Y-2347010D01*
X4886452Y-2352548D01*
X4887468Y-2359660D01*
X4886604Y-2366619D01*
X4883962Y-2371953D01*
X4879543Y-2375458D01*
X4873244Y-2376678D01*
X4869586Y-2376119D01*
X4865674Y-2374392D01*
X4861661Y-2371344D01*
X4857750Y-2366772D01*
X4849909Y-2366772D01*
X4849622Y-2372106D01*
X4850231Y-2382316D01*
X4851857Y-2390851D01*
X4854448Y-2397810D01*
X4857902Y-2403348D01*
X4861966Y-2407462D01*
X4866538Y-2410307D01*
X4871567Y-2411984D01*
X4876800Y-2412492D01*
X4882083Y-2411933D01*
X4886655Y-2410409D01*
X4890516Y-2408123D01*
X4893818Y-2405126D01*
X4889246Y-2399792D01*
X4886706Y-2402179D01*
X4883759Y-2404059D01*
X4880559Y-2405227D01*
X4877308Y-2405634D01*
X4873396Y-2405227D01*
X4869789Y-2404008D01*
X4866487Y-2401824D01*
X4863592Y-2398623D01*
X4861153Y-2394305D01*
X4859324Y-2388819D01*
X4858054Y-2382012D01*
X4857496Y-2373884D01*
X4861255Y-2377643D01*
X4865573Y-2380437D01*
X4870145Y-2382164D01*
X4874768Y-2382774D01*
X4879238Y-2382418D01*
X4883200Y-2381300D01*
X4886655Y-2379472D01*
X4889601Y-2376932D01*
X4891938Y-2373680D01*
X4893665Y-2369718D01*
X4894732Y-2365044D01*
X4895088Y-2359660D01*
X4894630Y-2354478D01*
X4893411Y-2349804D01*
X4891430Y-2345639D01*
X4888890Y-2342184D01*
X4885740Y-2339340D01*
X4882235Y-2337257D01*
X4878374Y-2335987D01*
G37*
G36*
X4734814Y-2336800D02*
G01*
X4734814Y-2375916D01*
X4756150Y-2375916D01*
X4764074Y-2376779D01*
X4769916Y-2379472D01*
X4773472Y-2384044D01*
X4774692Y-2390648D01*
X4773472Y-2397099D01*
X4769916Y-2401316D01*
X4764074Y-2403652D01*
X4756150Y-2404364D01*
X4743196Y-2404364D01*
X4743196Y-2375916D01*
X4734814Y-2375916D01*
X4734814Y-2411222D01*
X4757420Y-2411222D01*
X4762906Y-2410968D01*
X4767884Y-2410155D01*
X4772304Y-2408732D01*
X4776114Y-2406650D01*
X4779162Y-2403856D01*
X4781397Y-2400300D01*
X4782820Y-2395931D01*
X4783328Y-2390648D01*
X4782108Y-2382774D01*
X4778603Y-2376728D01*
X4773168Y-2372410D01*
X4766056Y-2369820D01*
X4785106Y-2336800D01*
X4775708Y-2336800D01*
X4757166Y-2368804D01*
X4743196Y-2368804D01*
X4743196Y-2336800D01*
G37*
G36*
X4792726Y-2336800D02*
G01*
X4792726Y-2341880D01*
X4801006Y-2349347D01*
X4808067Y-2356307D01*
X4813960Y-2362860D01*
X4818735Y-2369007D01*
X4822393Y-2374798D01*
X4824984Y-2380234D01*
X4826508Y-2385415D01*
X4827016Y-2390394D01*
X4826152Y-2396540D01*
X4823510Y-2401468D01*
X4819091Y-2404719D01*
X4812792Y-2405888D01*
X4808372Y-2405176D01*
X4804257Y-2403246D01*
X4800447Y-2400401D01*
X4797044Y-2396998D01*
X4792218Y-2401570D01*
X4796790Y-2406040D01*
X4801768Y-2409494D01*
X4807407Y-2411730D01*
X4813808Y-2412492D01*
X4818532Y-2412085D01*
X4822698Y-2410917D01*
X4826355Y-2409037D01*
X4829454Y-2406497D01*
X4831892Y-2403348D01*
X4833670Y-2399639D01*
X4834788Y-2395372D01*
X4835144Y-2390648D01*
X4834585Y-2385009D01*
X4833010Y-2379319D01*
X4830470Y-2373579D01*
X4827016Y-2367788D01*
X4822698Y-2361895D01*
X4817567Y-2355850D01*
X4811725Y-2349703D01*
X4805172Y-2343404D01*
X4817364Y-2343912D01*
X4838700Y-2343912D01*
X4838700Y-2336800D01*
G37*
G36*
X3974592Y-1448308D02*
G01*
X3969867Y-1448714D01*
X3965701Y-1449882D01*
X3962044Y-1451711D01*
X3958996Y-1454251D01*
X3956507Y-1457452D01*
X3954729Y-1461160D01*
X3953611Y-1465427D01*
X3953256Y-1470152D01*
X3953814Y-1475790D01*
X3955389Y-1481480D01*
X3957929Y-1487220D01*
X3961384Y-1493012D01*
X3965701Y-1498904D01*
X3970832Y-1504950D01*
X3976674Y-1511096D01*
X3983228Y-1517396D01*
X3971036Y-1516888D01*
X3949700Y-1516888D01*
X3949700Y-1524000D01*
X3995674Y-1524000D01*
X3995674Y-1518920D01*
X3987393Y-1511452D01*
X3980332Y-1504492D01*
X3974439Y-1497939D01*
X3969664Y-1491792D01*
X3966006Y-1486001D01*
X3963415Y-1480566D01*
X3961892Y-1475384D01*
X3961384Y-1470406D01*
X3962247Y-1464259D01*
X3964889Y-1459331D01*
X3969308Y-1456080D01*
X3975608Y-1454912D01*
X3980027Y-1455623D01*
X3984142Y-1457553D01*
X3987952Y-1460398D01*
X3991356Y-1463802D01*
X3996182Y-1459230D01*
X3991610Y-1454759D01*
X3986631Y-1451305D01*
X3980992Y-1449070D01*
G37*
G36*
X4030979Y-1449578D02*
G01*
X4025493Y-1449832D01*
X4020515Y-1450644D01*
X4016095Y-1452067D01*
X4012336Y-1454150D01*
X4009237Y-1456944D01*
X4007002Y-1460500D01*
X4005579Y-1464868D01*
X4005072Y-1470152D01*
X4013708Y-1470152D01*
X4014927Y-1463700D01*
X4018483Y-1459484D01*
X4024325Y-1457147D01*
X4032250Y-1456436D01*
X4045204Y-1456436D01*
X4045204Y-1484884D01*
X4032250Y-1484884D01*
X4024325Y-1484020D01*
X4018483Y-1481328D01*
X4014927Y-1476756D01*
X4013708Y-1470152D01*
X4005072Y-1470152D01*
X4006291Y-1478026D01*
X4009796Y-1484071D01*
X4015232Y-1488389D01*
X4022344Y-1490980D01*
X4003294Y-1524000D01*
X4012692Y-1524000D01*
X4031234Y-1491996D01*
X4045204Y-1491996D01*
X4045204Y-1524000D01*
X4053586Y-1524000D01*
X4053586Y-1449578D01*
G37*
G36*
X3893565Y-1449578D02*
G01*
X3893565Y-1454658D01*
X3897680Y-1460195D01*
X3901186Y-1465630D01*
X3904234Y-1470964D01*
X3906824Y-1476248D01*
X3908958Y-1481582D01*
X3910685Y-1486966D01*
X3912158Y-1492453D01*
X3913276Y-1498193D01*
X3914800Y-1510385D01*
X3915664Y-1524000D01*
X3924300Y-1524000D01*
X3923284Y-1510436D01*
X3922522Y-1504238D01*
X3921455Y-1498295D01*
X3920185Y-1492656D01*
X3918661Y-1487220D01*
X3916883Y-1481937D01*
X3914749Y-1476806D01*
X3912311Y-1471726D01*
X3909568Y-1466748D01*
X3906469Y-1461719D01*
X3902964Y-1456690D01*
X3939540Y-1456690D01*
X3939540Y-1449578D01*
G37*
G36*
X2839974Y-2868930D02*
G01*
X2830626Y-2870403D01*
X2823108Y-2874568D01*
X2818130Y-2880817D01*
X2816352Y-2888742D01*
X2816441Y-2889250D01*
X2823972Y-2889250D01*
X2825191Y-2883611D01*
X2828594Y-2879090D01*
X2833725Y-2876092D01*
X2840228Y-2875026D01*
X2846273Y-2876042D01*
X2850946Y-2878785D01*
X2853893Y-2882950D01*
X2854960Y-2888234D01*
X2853334Y-2894939D01*
X2848914Y-2899765D01*
X2842412Y-2903524D01*
X2834640Y-2906776D01*
X2830423Y-2903372D01*
X2827020Y-2899257D01*
X2824784Y-2894533D01*
X2823972Y-2889250D01*
X2816441Y-2889250D01*
X2817571Y-2895650D01*
X2820771Y-2901391D01*
X2825242Y-2906014D01*
X2830322Y-2909316D01*
X2830322Y-2909824D01*
X2826461Y-2912872D01*
X2823260Y-2916732D01*
X2820974Y-2921355D01*
X2820162Y-2926842D01*
X2827782Y-2926842D01*
X2829255Y-2920847D01*
X2833065Y-2916377D01*
X2838602Y-2913024D01*
X2845054Y-2910332D01*
X2848559Y-2913735D01*
X2851099Y-2917494D01*
X2852674Y-2921457D01*
X2853182Y-2925572D01*
X2852318Y-2930906D01*
X2849778Y-2935274D01*
X2845663Y-2938221D01*
X2840228Y-2939288D01*
X2835300Y-2938373D01*
X2831338Y-2935833D01*
X2828747Y-2931871D01*
X2827782Y-2926842D01*
X2820162Y-2926842D01*
X2821686Y-2934512D01*
X2825902Y-2940405D01*
X2832252Y-2944266D01*
X2840228Y-2945638D01*
X2848762Y-2944164D01*
X2855163Y-2940151D01*
X2859176Y-2933954D01*
X2860548Y-2926080D01*
X2859582Y-2920390D01*
X2857093Y-2915361D01*
X2853791Y-2911144D01*
X2850388Y-2908046D01*
X2850388Y-2907538D01*
X2855163Y-2904286D01*
X2859227Y-2900121D01*
X2862021Y-2894787D01*
X2863088Y-2887980D01*
X2861411Y-2880512D01*
X2856687Y-2874467D01*
X2849372Y-2870403D01*
G37*
G36*
X2702814Y-2870200D02*
G01*
X2702814Y-2909316D01*
X2724150Y-2909316D01*
X2732074Y-2910179D01*
X2737916Y-2912872D01*
X2741472Y-2917444D01*
X2742692Y-2924048D01*
X2741472Y-2930499D01*
X2737916Y-2934716D01*
X2732074Y-2937052D01*
X2724150Y-2937764D01*
X2711196Y-2937764D01*
X2711196Y-2909316D01*
X2702814Y-2909316D01*
X2702814Y-2944622D01*
X2725420Y-2944622D01*
X2730906Y-2944368D01*
X2735884Y-2943555D01*
X2740304Y-2942132D01*
X2744114Y-2940050D01*
X2747162Y-2937256D01*
X2749448Y-2933700D01*
X2750820Y-2929331D01*
X2751328Y-2924048D01*
X2750108Y-2916174D01*
X2746603Y-2910128D01*
X2741168Y-2905810D01*
X2734056Y-2903220D01*
X2753106Y-2870200D01*
X2743708Y-2870200D01*
X2725166Y-2902204D01*
X2711196Y-2902204D01*
X2711196Y-2870200D01*
G37*
G36*
X2760726Y-2870200D02*
G01*
X2760726Y-2875280D01*
X2769006Y-2882747D01*
X2776067Y-2889707D01*
X2781960Y-2896260D01*
X2786735Y-2902407D01*
X2790393Y-2908198D01*
X2792984Y-2913634D01*
X2794508Y-2918815D01*
X2795016Y-2923794D01*
X2794152Y-2929940D01*
X2791510Y-2934868D01*
X2787091Y-2938119D01*
X2780792Y-2939288D01*
X2776372Y-2938576D01*
X2772257Y-2936646D01*
X2768447Y-2933801D01*
X2765044Y-2930398D01*
X2760218Y-2934970D01*
X2764790Y-2939440D01*
X2769768Y-2942894D01*
X2775407Y-2945130D01*
X2781808Y-2945892D01*
X2786532Y-2945485D01*
X2790698Y-2944317D01*
X2794355Y-2942437D01*
X2797403Y-2939897D01*
X2799892Y-2936748D01*
X2801670Y-2933039D01*
X2802788Y-2928772D01*
X2803144Y-2924048D01*
X2802585Y-2918409D01*
X2801010Y-2912719D01*
X2798470Y-2906979D01*
X2795016Y-2901188D01*
X2790698Y-2895295D01*
X2785567Y-2889250D01*
X2779725Y-2883103D01*
X2773172Y-2876804D01*
X2785364Y-2877312D01*
X2806700Y-2877312D01*
X2806700Y-2870200D01*
G37*
G36*
X2425700Y-2868930D02*
G01*
X2418994Y-2869590D01*
X2412898Y-2871571D01*
X2407412Y-2874772D01*
X2402738Y-2879140D01*
X2398928Y-2884678D01*
X2396083Y-2891231D01*
X2394305Y-2898800D01*
X2393696Y-2907284D01*
X2394305Y-2915818D01*
X2396134Y-2923387D01*
X2399030Y-2929991D01*
X2402890Y-2935528D01*
X2407666Y-2939948D01*
X2413203Y-2943199D01*
X2419400Y-2945231D01*
X2426208Y-2945892D01*
X2432608Y-2945130D01*
X2438196Y-2943148D01*
X2442819Y-2940202D01*
X2446528Y-2936748D01*
X2441702Y-2931414D01*
X2438603Y-2934360D01*
X2434996Y-2936595D01*
X2430881Y-2938018D01*
X2426208Y-2938526D01*
X2421026Y-2937967D01*
X2416352Y-2936341D01*
X2412288Y-2933750D01*
X2408834Y-2930194D01*
X2406091Y-2925724D01*
X2404008Y-2920441D01*
X2402789Y-2914345D01*
X2402332Y-2907538D01*
X2402738Y-2900730D01*
X2404008Y-2894634D01*
X2405989Y-2889300D01*
X2408732Y-2884779D01*
X2412136Y-2881172D01*
X2416149Y-2878480D01*
X2420772Y-2876854D01*
X2425954Y-2876296D01*
X2431135Y-2876854D01*
X2435656Y-2878531D01*
X2439720Y-2881223D01*
X2443480Y-2884932D01*
X2448306Y-2879598D01*
X2443683Y-2875026D01*
X2438450Y-2871673D01*
X2432507Y-2869641D01*
G37*
G36*
X2534412Y-2868930D02*
G01*
X2526487Y-2869742D01*
X2520035Y-2872028D01*
X2514854Y-2875229D01*
X2510790Y-2879090D01*
X2515108Y-2884424D01*
X2518613Y-2881122D01*
X2522778Y-2878378D01*
X2527808Y-2876499D01*
X2533904Y-2875788D01*
X2540203Y-2876804D01*
X2545080Y-2879699D01*
X2548280Y-2884271D01*
X2549398Y-2890266D01*
X2548128Y-2896565D01*
X2544064Y-2901442D01*
X2536748Y-2904642D01*
X2525776Y-2905760D01*
X2525776Y-2912110D01*
X2535732Y-2913227D01*
X2542235Y-2916326D01*
X2545791Y-2921000D01*
X2546858Y-2926842D01*
X2545943Y-2931871D01*
X2543352Y-2935732D01*
X2539238Y-2938272D01*
X2533904Y-2939288D01*
X2529433Y-2938576D01*
X2525268Y-2937002D01*
X2521458Y-2934665D01*
X2518156Y-2931668D01*
X2513584Y-2937256D01*
X2517952Y-2940659D01*
X2522728Y-2943402D01*
X2528062Y-2945231D01*
X2534158Y-2945892D01*
X2542590Y-2944672D01*
X2549296Y-2941116D01*
X2553665Y-2935376D01*
X2555240Y-2927604D01*
X2554274Y-2921203D01*
X2551582Y-2916072D01*
X2547416Y-2912160D01*
X2542032Y-2909316D01*
X2542032Y-2909062D01*
X2548128Y-2906674D01*
X2553157Y-2902559D01*
X2556510Y-2896971D01*
X2557780Y-2890012D01*
X2557322Y-2885338D01*
X2555951Y-2881122D01*
X2553817Y-2877515D01*
X2550972Y-2874518D01*
X2547518Y-2872130D01*
X2543505Y-2870352D01*
X2539136Y-2869285D01*
G37*
G36*
X2461006Y-2870200D02*
G01*
X2461006Y-2877058D01*
X2477770Y-2877058D01*
X2477770Y-2934208D01*
X2464562Y-2934208D01*
X2464562Y-2939542D01*
X2469032Y-2940456D01*
X2472994Y-2941624D01*
X2476500Y-2942996D01*
X2479548Y-2944622D01*
X2485898Y-2944622D01*
X2485898Y-2877058D01*
X2501138Y-2877058D01*
X2501138Y-2870200D01*
G37*
G36*
X3950208Y-2419096D02*
G01*
X3941775Y-2419705D01*
X3934307Y-2421382D01*
X3927754Y-2424176D01*
X3922318Y-2427884D01*
X3917950Y-2432405D01*
X3914749Y-2437739D01*
X3912768Y-2443734D01*
X3912108Y-2450338D01*
X3919474Y-2450338D01*
X3920032Y-2445410D01*
X3921607Y-2441041D01*
X3924249Y-2437180D01*
X3927805Y-2433878D01*
X3932224Y-2431288D01*
X3937457Y-2429357D01*
X3943502Y-2428138D01*
X3950208Y-2427732D01*
X3957218Y-2428138D01*
X3963466Y-2429357D01*
X3968953Y-2431288D01*
X3973525Y-2433878D01*
X3977233Y-2437180D01*
X3979976Y-2441041D01*
X3981653Y-2445410D01*
X3982212Y-2450338D01*
X3981653Y-2455316D01*
X3979976Y-2459786D01*
X3977233Y-2463698D01*
X3973525Y-2467000D01*
X3968953Y-2469642D01*
X3963466Y-2471572D01*
X3957218Y-2472791D01*
X3950208Y-2473198D01*
X3943502Y-2472791D01*
X3937457Y-2471572D01*
X3932224Y-2469642D01*
X3927805Y-2467000D01*
X3924249Y-2463698D01*
X3921658Y-2459786D01*
X3920032Y-2455316D01*
X3919474Y-2450338D01*
X3912108Y-2450338D01*
X3912768Y-2456992D01*
X3914749Y-2463088D01*
X3917950Y-2468473D01*
X3922318Y-2473045D01*
X3927754Y-2476754D01*
X3934307Y-2479497D01*
X3941775Y-2481224D01*
X3950208Y-2481834D01*
X3958031Y-2481326D01*
X3965092Y-2479903D01*
X3971340Y-2477617D01*
X3976776Y-2474518D01*
X3981246Y-2470658D01*
X3984802Y-2466086D01*
X3987342Y-2460904D01*
X3988815Y-2455164D01*
X3993286Y-2458415D01*
X3996486Y-2462733D01*
X3998366Y-2467965D01*
X3998976Y-2473960D01*
X3998671Y-2478227D01*
X3997960Y-2481580D01*
X4004564Y-2483104D01*
X4005224Y-2481275D01*
X4005732Y-2478887D01*
X4006087Y-2472944D01*
X4004818Y-2463647D01*
X4001262Y-2456078D01*
X3995775Y-2450287D01*
X3988815Y-2446274D01*
X3987495Y-2440432D01*
X3985056Y-2435148D01*
X3981551Y-2430526D01*
X3977030Y-2426563D01*
X3971594Y-2423414D01*
X3965295Y-2421077D01*
X3958132Y-2419604D01*
G37*
G36*
X3980942Y-2496820D02*
G01*
X3980942Y-2513584D01*
X3923792Y-2513584D01*
X3923792Y-2500376D01*
X3918458Y-2500376D01*
X3917543Y-2504948D01*
X3916375Y-2508961D01*
X3915003Y-2512466D01*
X3913378Y-2515616D01*
X3913378Y-2521712D01*
X3980942Y-2521712D01*
X3980942Y-2536952D01*
X3987800Y-2536952D01*
X3987800Y-2496820D01*
G37*
G36*
X3237484Y-2540508D02*
G01*
X3229000Y-2541727D01*
X3222244Y-2545283D01*
X3217773Y-2551023D01*
X3216148Y-2558796D01*
X3217164Y-2565196D01*
X3219907Y-2570327D01*
X3224174Y-2574239D01*
X3229610Y-2577084D01*
X3229610Y-2577338D01*
X3223361Y-2579725D01*
X3218281Y-2583789D01*
X3214878Y-2589428D01*
X3213608Y-2596388D01*
X3214065Y-2601061D01*
X3215436Y-2605278D01*
X3217570Y-2608884D01*
X3220415Y-2611882D01*
X3223869Y-2614269D01*
X3227882Y-2616047D01*
X3232251Y-2617114D01*
X3236976Y-2617470D01*
X3244900Y-2616657D01*
X3251352Y-2614371D01*
X3256534Y-2611170D01*
X3260598Y-2607310D01*
X3256279Y-2601976D01*
X3252774Y-2605278D01*
X3248609Y-2608021D01*
X3243580Y-2609900D01*
X3237484Y-2610612D01*
X3231337Y-2609596D01*
X3226409Y-2606700D01*
X3223158Y-2602128D01*
X3221990Y-2596134D01*
X3223260Y-2589834D01*
X3227324Y-2584958D01*
X3234639Y-2581757D01*
X3245612Y-2580640D01*
X3245612Y-2574290D01*
X3235807Y-2573172D01*
X3229406Y-2570073D01*
X3225850Y-2565400D01*
X3224784Y-2559558D01*
X3225647Y-2554528D01*
X3228238Y-2550668D01*
X3232302Y-2548128D01*
X3237738Y-2547112D01*
X3242157Y-2547823D01*
X3246272Y-2549398D01*
X3249930Y-2551734D01*
X3253232Y-2554732D01*
X3257803Y-2549144D01*
X3253536Y-2545740D01*
X3248812Y-2542997D01*
X3243427Y-2541168D01*
G37*
G36*
X3181604Y-2540508D02*
G01*
X3173171Y-2541727D01*
X3166516Y-2545283D01*
X3162096Y-2551023D01*
X3160522Y-2558796D01*
X3161487Y-2565196D01*
X3164179Y-2570327D01*
X3168345Y-2574239D01*
X3173730Y-2577084D01*
X3173730Y-2577338D01*
X3167634Y-2579725D01*
X3162604Y-2583789D01*
X3159252Y-2589428D01*
X3157982Y-2596388D01*
X3158439Y-2601061D01*
X3159810Y-2605278D01*
X3161944Y-2608884D01*
X3164789Y-2611882D01*
X3168243Y-2614269D01*
X3172256Y-2616047D01*
X3176625Y-2617114D01*
X3181350Y-2617470D01*
X3189173Y-2616657D01*
X3195624Y-2614371D01*
X3200857Y-2611170D01*
X3204972Y-2607310D01*
X3200654Y-2601976D01*
X3197148Y-2605278D01*
X3192983Y-2608021D01*
X3187954Y-2609900D01*
X3181858Y-2610612D01*
X3175558Y-2609596D01*
X3170682Y-2606700D01*
X3167481Y-2602128D01*
X3166364Y-2596134D01*
X3167583Y-2589834D01*
X3171596Y-2584958D01*
X3178810Y-2581757D01*
X3189732Y-2580640D01*
X3189732Y-2574290D01*
X3179927Y-2573172D01*
X3173526Y-2570073D01*
X3169970Y-2565400D01*
X3168904Y-2559558D01*
X3169818Y-2554528D01*
X3172409Y-2550668D01*
X3176524Y-2548128D01*
X3181858Y-2547112D01*
X3186277Y-2547823D01*
X3190392Y-2549398D01*
X3194202Y-2551734D01*
X3197606Y-2554732D01*
X3202178Y-2549144D01*
X3197809Y-2545740D01*
X3193034Y-2542997D01*
X3187700Y-2541168D01*
G37*
G36*
X3294379Y-2541778D02*
G01*
X3288893Y-2542032D01*
X3283915Y-2542844D01*
X3279495Y-2544267D01*
X3275736Y-2546350D01*
X3272637Y-2549144D01*
X3270402Y-2552700D01*
X3268979Y-2557068D01*
X3268472Y-2562352D01*
X3277108Y-2562352D01*
X3278327Y-2555900D01*
X3281883Y-2551684D01*
X3287725Y-2549347D01*
X3295650Y-2548636D01*
X3308604Y-2548636D01*
X3308604Y-2577084D01*
X3295650Y-2577084D01*
X3287725Y-2576220D01*
X3281883Y-2573528D01*
X3278327Y-2568956D01*
X3277108Y-2562352D01*
X3268472Y-2562352D01*
X3269691Y-2570226D01*
X3273196Y-2576271D01*
X3278632Y-2580589D01*
X3285744Y-2583180D01*
X3266694Y-2616200D01*
X3276092Y-2616200D01*
X3294634Y-2584196D01*
X3308604Y-2584196D01*
X3308604Y-2616200D01*
X3316986Y-2616200D01*
X3316986Y-2541778D01*
G37*
G36*
X2933700Y-2868930D02*
G01*
X2926994Y-2869590D01*
X2920898Y-2871571D01*
X2915412Y-2874772D01*
X2910738Y-2879140D01*
X2906928Y-2884678D01*
X2904083Y-2891231D01*
X2902305Y-2898800D01*
X2901696Y-2907284D01*
X2902305Y-2915818D01*
X2904134Y-2923387D01*
X2907030Y-2929991D01*
X2910890Y-2935528D01*
X2915666Y-2939948D01*
X2921203Y-2943199D01*
X2927400Y-2945231D01*
X2934208Y-2945892D01*
X2940608Y-2945130D01*
X2946196Y-2943148D01*
X2950819Y-2940202D01*
X2954528Y-2936748D01*
X2949702Y-2931414D01*
X2946603Y-2934360D01*
X2942996Y-2936595D01*
X2938881Y-2938018D01*
X2934208Y-2938526D01*
X2929026Y-2937967D01*
X2924352Y-2936341D01*
X2920288Y-2933750D01*
X2916834Y-2930194D01*
X2914091Y-2925724D01*
X2912008Y-2920441D01*
X2910789Y-2914345D01*
X2910332Y-2907538D01*
X2910738Y-2900730D01*
X2912008Y-2894634D01*
X2913989Y-2889300D01*
X2916732Y-2884779D01*
X2920136Y-2881172D01*
X2924149Y-2878480D01*
X2928772Y-2876854D01*
X2933954Y-2876296D01*
X2939135Y-2876854D01*
X2943656Y-2878531D01*
X2947720Y-2881223D01*
X2951480Y-2884932D01*
X2956306Y-2879598D01*
X2951683Y-2875026D01*
X2946450Y-2871673D01*
X2940507Y-2869641D01*
G37*
G36*
X2969006Y-2870200D02*
G01*
X2969006Y-2877058D01*
X2985770Y-2877058D01*
X2985770Y-2934208D01*
X2972562Y-2934208D01*
X2972562Y-2939542D01*
X2977032Y-2940456D01*
X2980994Y-2941624D01*
X2984500Y-2942996D01*
X2987548Y-2944622D01*
X2993898Y-2944622D01*
X2993898Y-2877058D01*
X3009138Y-2877058D01*
X3009138Y-2870200D01*
G37*
G36*
X3050286Y-2870200D02*
G01*
X3050286Y-2891028D01*
X3017774Y-2891028D01*
X3017774Y-2896362D01*
X3018602Y-2897632D01*
X3050286Y-2897632D01*
X3050336Y-2924810D01*
X3050692Y-2931820D01*
X3051048Y-2934970D01*
X3050540Y-2934970D01*
X3044444Y-2924048D01*
X3026664Y-2897632D01*
X3018602Y-2897632D01*
X3049270Y-2944622D01*
X3058160Y-2944622D01*
X3058160Y-2897632D01*
X3068320Y-2897632D01*
X3068320Y-2891028D01*
X3058160Y-2891028D01*
X3058160Y-2870200D01*
G37*
G36*
X1865884Y-2540508D02*
G01*
X1857400Y-2541727D01*
X1850643Y-2545283D01*
X1846173Y-2551023D01*
X1844548Y-2558796D01*
X1845564Y-2565196D01*
X1848307Y-2570327D01*
X1852574Y-2574239D01*
X1858010Y-2577084D01*
X1858010Y-2577338D01*
X1851761Y-2579725D01*
X1846681Y-2583789D01*
X1843278Y-2589428D01*
X1842007Y-2596388D01*
X1842465Y-2601061D01*
X1843836Y-2605278D01*
X1845970Y-2608884D01*
X1848815Y-2611882D01*
X1852269Y-2614269D01*
X1856282Y-2616047D01*
X1860651Y-2617114D01*
X1865375Y-2617470D01*
X1873300Y-2616657D01*
X1879752Y-2614371D01*
X1884934Y-2611170D01*
X1888998Y-2607310D01*
X1884680Y-2601976D01*
X1881174Y-2605278D01*
X1877009Y-2608021D01*
X1871980Y-2609900D01*
X1865884Y-2610612D01*
X1859737Y-2609596D01*
X1854809Y-2606700D01*
X1851558Y-2602128D01*
X1850389Y-2596134D01*
X1851660Y-2589834D01*
X1855724Y-2584958D01*
X1863039Y-2581757D01*
X1874012Y-2580640D01*
X1874012Y-2574290D01*
X1864207Y-2573172D01*
X1857806Y-2570073D01*
X1854250Y-2565400D01*
X1853184Y-2559558D01*
X1854047Y-2554528D01*
X1856638Y-2550668D01*
X1860702Y-2548128D01*
X1866138Y-2547112D01*
X1870557Y-2547823D01*
X1874672Y-2549398D01*
X1878330Y-2551734D01*
X1881632Y-2554732D01*
X1886204Y-2549144D01*
X1881936Y-2545740D01*
X1877212Y-2542997D01*
X1871827Y-2541168D01*
G37*
G36*
X1922780Y-2541778D02*
G01*
X1917293Y-2542032D01*
X1912315Y-2542844D01*
X1907895Y-2544267D01*
X1904136Y-2546350D01*
X1901037Y-2549144D01*
X1898802Y-2552700D01*
X1897380Y-2557068D01*
X1896872Y-2562352D01*
X1905507Y-2562352D01*
X1906727Y-2555900D01*
X1910283Y-2551684D01*
X1916125Y-2549347D01*
X1924050Y-2548636D01*
X1937004Y-2548636D01*
X1937004Y-2577084D01*
X1924050Y-2577084D01*
X1916125Y-2576220D01*
X1910283Y-2573528D01*
X1906727Y-2568956D01*
X1905507Y-2562352D01*
X1896872Y-2562352D01*
X1898091Y-2570226D01*
X1901596Y-2576271D01*
X1907032Y-2580589D01*
X1914143Y-2583180D01*
X1895093Y-2616200D01*
X1904492Y-2616200D01*
X1923034Y-2584196D01*
X1937004Y-2584196D01*
X1937004Y-2616200D01*
X1945386Y-2616200D01*
X1945386Y-2541778D01*
G37*
G36*
X1794002Y-2541778D02*
G01*
X1794002Y-2551430D01*
X1801622Y-2551430D01*
X1807464Y-2562352D01*
X1825498Y-2588768D01*
X1801875Y-2588768D01*
X1801774Y-2561590D01*
X1801114Y-2551430D01*
X1794002Y-2551430D01*
X1794002Y-2588768D01*
X1783842Y-2588768D01*
X1783842Y-2595372D01*
X1794002Y-2595372D01*
X1794002Y-2616200D01*
X1801875Y-2616200D01*
X1801875Y-2595372D01*
X1834388Y-2595372D01*
X1834388Y-2590038D01*
X1802892Y-2541778D01*
G37*
G36*
X2528316Y-2546096D02*
G01*
X2519781Y-2546705D01*
X2512212Y-2548534D01*
X2505608Y-2551430D01*
X2500071Y-2555290D01*
X2495651Y-2560066D01*
X2492400Y-2565603D01*
X2490368Y-2571800D01*
X2489708Y-2578608D01*
X2490470Y-2585008D01*
X2492451Y-2590596D01*
X2495397Y-2595219D01*
X2498852Y-2598928D01*
X2504186Y-2594102D01*
X2501239Y-2591003D01*
X2499004Y-2587396D01*
X2497582Y-2583281D01*
X2497074Y-2578608D01*
X2497632Y-2573426D01*
X2499258Y-2568752D01*
X2501849Y-2564688D01*
X2505405Y-2561234D01*
X2509875Y-2558491D01*
X2515158Y-2556408D01*
X2521254Y-2555189D01*
X2528062Y-2554732D01*
X2534869Y-2555138D01*
X2540965Y-2556408D01*
X2546299Y-2558389D01*
X2550820Y-2561132D01*
X2554427Y-2564536D01*
X2557119Y-2568549D01*
X2558745Y-2573172D01*
X2559304Y-2578354D01*
X2558745Y-2583535D01*
X2557068Y-2588056D01*
X2554376Y-2592120D01*
X2550668Y-2595880D01*
X2556002Y-2600706D01*
X2560574Y-2596083D01*
X2563926Y-2590850D01*
X2565958Y-2584907D01*
X2566670Y-2578100D01*
X2566009Y-2571394D01*
X2564028Y-2565298D01*
X2560828Y-2559812D01*
X2556459Y-2555138D01*
X2550922Y-2551328D01*
X2544368Y-2548483D01*
X2536799Y-2546705D01*
G37*
G36*
X2558542Y-2613406D02*
G01*
X2558542Y-2630170D01*
X2501392Y-2630170D01*
X2501392Y-2616962D01*
X2496058Y-2616962D01*
X2495143Y-2621432D01*
X2493975Y-2625394D01*
X2492603Y-2628900D01*
X2490978Y-2631948D01*
X2490978Y-2638298D01*
X2558542Y-2638298D01*
X2558542Y-2653538D01*
X2565400Y-2653538D01*
X2565400Y-2613406D01*
G37*
G36*
X2556764Y-2662936D02*
G01*
X2551430Y-2667254D01*
X2554579Y-2670708D01*
X2557221Y-2674823D01*
X2559100Y-2679750D01*
X2559812Y-2685796D01*
X2558542Y-2692095D01*
X2554884Y-2697276D01*
X2549093Y-2700782D01*
X2541524Y-2702052D01*
X2534158Y-2700934D01*
X2528671Y-2697784D01*
X2525217Y-2692857D01*
X2523998Y-2686304D01*
X2524302Y-2682798D01*
X2525115Y-2679649D01*
X2526487Y-2676702D01*
X2528316Y-2673604D01*
X2525522Y-2669032D01*
X2490978Y-2671318D01*
X2490978Y-2706878D01*
X2498090Y-2706878D01*
X2498090Y-2678684D01*
X2520696Y-2676652D01*
X2519375Y-2679293D01*
X2518410Y-2682036D01*
X2517851Y-2684983D01*
X2517648Y-2688336D01*
X2518003Y-2692806D01*
X2519019Y-2696921D01*
X2520746Y-2700680D01*
X2523286Y-2703931D01*
X2526538Y-2706674D01*
X2530602Y-2708706D01*
X2535529Y-2709976D01*
X2541270Y-2710434D01*
X2547010Y-2709926D01*
X2552090Y-2708402D01*
X2556459Y-2706116D01*
X2560066Y-2703068D01*
X2562910Y-2699461D01*
X2564993Y-2695448D01*
X2566263Y-2691079D01*
X2566670Y-2686558D01*
X2565857Y-2678633D01*
X2563622Y-2672283D01*
X2560472Y-2667152D01*
G37*
G36*
X4276344Y-2089912D02*
G01*
X4267047Y-2091182D01*
X4259478Y-2094738D01*
X4253687Y-2100173D01*
X4249674Y-2107184D01*
X4243832Y-2108504D01*
X4238548Y-2110943D01*
X4233926Y-2114448D01*
X4230014Y-2118969D01*
X4226814Y-2124405D01*
X4224477Y-2130704D01*
X4223004Y-2137867D01*
X4222496Y-2145792D01*
X4231132Y-2145792D01*
X4231538Y-2138781D01*
X4232757Y-2132533D01*
X4234688Y-2127046D01*
X4237278Y-2122474D01*
X4240580Y-2118766D01*
X4244441Y-2116023D01*
X4248810Y-2114346D01*
X4253738Y-2113788D01*
X4258716Y-2114346D01*
X4263186Y-2116023D01*
X4267098Y-2118766D01*
X4270400Y-2122474D01*
X4273042Y-2127046D01*
X4274972Y-2132533D01*
X4276191Y-2138781D01*
X4276598Y-2145792D01*
X4276191Y-2152497D01*
X4274972Y-2158542D01*
X4273042Y-2163775D01*
X4270400Y-2168194D01*
X4267098Y-2171750D01*
X4263186Y-2174341D01*
X4258716Y-2175967D01*
X4253738Y-2176526D01*
X4248810Y-2175967D01*
X4244441Y-2174341D01*
X4240580Y-2171750D01*
X4237278Y-2168194D01*
X4234688Y-2163775D01*
X4232757Y-2158542D01*
X4231538Y-2152497D01*
X4231132Y-2145792D01*
X4222496Y-2145792D01*
X4223105Y-2154224D01*
X4224782Y-2161692D01*
X4227576Y-2168245D01*
X4231284Y-2173681D01*
X4235805Y-2178050D01*
X4241139Y-2181250D01*
X4247134Y-2183231D01*
X4253738Y-2183892D01*
X4260392Y-2183231D01*
X4266488Y-2181250D01*
X4271873Y-2178050D01*
X4276445Y-2173681D01*
X4280154Y-2168245D01*
X4282897Y-2161692D01*
X4284624Y-2154224D01*
X4285234Y-2145792D01*
X4284726Y-2137968D01*
X4283303Y-2130907D01*
X4281017Y-2124659D01*
X4277918Y-2119223D01*
X4274058Y-2114753D01*
X4269486Y-2111197D01*
X4264304Y-2108657D01*
X4258564Y-2107184D01*
X4261815Y-2102713D01*
X4266133Y-2099513D01*
X4271365Y-2097633D01*
X4277360Y-2097024D01*
X4281627Y-2097328D01*
X4284980Y-2098040D01*
X4286504Y-2091436D01*
X4284675Y-2090775D01*
X4282287Y-2090267D01*
G37*
G36*
X4318000Y-2106930D02*
G01*
X4310075Y-2107742D01*
X4303623Y-2110028D01*
X4298442Y-2113229D01*
X4294378Y-2117090D01*
X4298696Y-2122424D01*
X4302201Y-2119122D01*
X4306366Y-2116378D01*
X4311396Y-2114499D01*
X4317492Y-2113788D01*
X4323638Y-2114804D01*
X4328566Y-2117699D01*
X4331817Y-2122271D01*
X4332986Y-2128266D01*
X4331716Y-2134565D01*
X4327652Y-2139442D01*
X4320336Y-2142642D01*
X4309364Y-2143760D01*
X4309364Y-2150110D01*
X4319168Y-2151227D01*
X4325569Y-2154326D01*
X4329125Y-2159000D01*
X4330192Y-2164842D01*
X4329328Y-2169871D01*
X4326788Y-2173732D01*
X4322673Y-2176272D01*
X4317238Y-2177288D01*
X4312818Y-2176576D01*
X4308754Y-2175002D01*
X4305046Y-2172665D01*
X4301744Y-2169668D01*
X4297172Y-2175256D01*
X4301439Y-2178659D01*
X4306214Y-2181402D01*
X4311548Y-2183231D01*
X4317492Y-2183892D01*
X4325975Y-2182672D01*
X4332732Y-2179116D01*
X4337202Y-2173376D01*
X4338828Y-2165604D01*
X4337812Y-2159203D01*
X4335068Y-2154072D01*
X4330801Y-2150160D01*
X4325366Y-2147316D01*
X4325366Y-2147062D01*
X4331614Y-2144674D01*
X4336694Y-2140559D01*
X4340098Y-2134971D01*
X4341368Y-2128012D01*
X4340910Y-2123338D01*
X4339539Y-2119122D01*
X4337405Y-2115515D01*
X4334560Y-2112518D01*
X4331106Y-2110130D01*
X4327093Y-2108352D01*
X4322724Y-2107285D01*
G37*
G36*
X3862578Y-670814D02*
G01*
X3862578Y-679196D01*
X3897884Y-679196D01*
X3897884Y-692150D01*
X3897020Y-700074D01*
X3894328Y-705916D01*
X3889756Y-709472D01*
X3883151Y-710692D01*
X3876700Y-709472D01*
X3872484Y-705916D01*
X3870147Y-700074D01*
X3869436Y-692150D01*
X3869436Y-679196D01*
X3862578Y-679196D01*
X3862578Y-693420D01*
X3862832Y-698906D01*
X3863644Y-703884D01*
X3865067Y-708304D01*
X3867150Y-712063D01*
X3869944Y-715162D01*
X3873500Y-717397D01*
X3877868Y-718820D01*
X3883151Y-719328D01*
X3891026Y-718108D01*
X3897071Y-714603D01*
X3901389Y-709168D01*
X3903979Y-702056D01*
X3937000Y-721106D01*
X3937000Y-711708D01*
X3904996Y-693166D01*
X3904996Y-679196D01*
X3937000Y-679196D01*
X3937000Y-670814D01*
G37*
G36*
X3928110Y-727202D02*
G01*
X3922776Y-731520D01*
X3926078Y-735025D01*
X3928821Y-739190D01*
X3930700Y-744220D01*
X3931412Y-750316D01*
X3930396Y-756462D01*
X3927500Y-761390D01*
X3922928Y-764641D01*
X3916934Y-765810D01*
X3910634Y-764540D01*
X3905758Y-760476D01*
X3902557Y-753160D01*
X3901440Y-742188D01*
X3895090Y-742188D01*
X3893972Y-751992D01*
X3890873Y-758393D01*
X3886200Y-761949D01*
X3880358Y-763016D01*
X3875328Y-762152D01*
X3871468Y-759561D01*
X3868928Y-755497D01*
X3867912Y-750062D01*
X3868623Y-745642D01*
X3870198Y-741527D01*
X3872534Y-737870D01*
X3875532Y-734568D01*
X3869944Y-729996D01*
X3866540Y-734263D01*
X3863797Y-738987D01*
X3861968Y-744372D01*
X3861308Y-750316D01*
X3862527Y-758799D01*
X3866083Y-765556D01*
X3871823Y-770026D01*
X3879596Y-771652D01*
X3885996Y-770636D01*
X3891127Y-767892D01*
X3895039Y-763625D01*
X3897884Y-758190D01*
X3898137Y-758190D01*
X3900525Y-764438D01*
X3904640Y-769518D01*
X3910228Y-772922D01*
X3917187Y-774192D01*
X3921861Y-773734D01*
X3926078Y-772363D01*
X3929684Y-770229D01*
X3932682Y-767384D01*
X3935069Y-763930D01*
X3936847Y-759917D01*
X3937914Y-755548D01*
X3938270Y-750824D01*
X3937457Y-742899D01*
X3935171Y-736447D01*
X3931970Y-731266D01*
G37*
G36*
X3928364Y-782828D02*
G01*
X3923029Y-786892D01*
X3926179Y-790346D01*
X3928821Y-794461D01*
X3930700Y-799388D01*
X3931412Y-805434D01*
X3930142Y-811784D01*
X3926484Y-817016D01*
X3920693Y-820623D01*
X3913124Y-821944D01*
X3905758Y-820775D01*
X3900271Y-817575D01*
X3896817Y-812495D01*
X3895598Y-805942D01*
X3895902Y-802436D01*
X3896715Y-799287D01*
X3898087Y-796340D01*
X3899915Y-793242D01*
X3897122Y-788670D01*
X3862578Y-790956D01*
X3862578Y-826516D01*
X3869690Y-826516D01*
X3869690Y-798322D01*
X3892296Y-796290D01*
X3890975Y-798931D01*
X3890010Y-801674D01*
X3889451Y-804621D01*
X3889248Y-807974D01*
X3889603Y-812444D01*
X3890619Y-816559D01*
X3892346Y-820318D01*
X3894886Y-823569D01*
X3898137Y-826312D01*
X3902201Y-828344D01*
X3907129Y-829614D01*
X3912870Y-830071D01*
X3918610Y-829564D01*
X3923690Y-828040D01*
X3928059Y-825753D01*
X3931665Y-822706D01*
X3934510Y-819099D01*
X3936593Y-815086D01*
X3937863Y-810717D01*
X3938270Y-806196D01*
X3937457Y-798271D01*
X3935222Y-791921D01*
X3932072Y-786892D01*
G37*
G36*
X2679192Y-2540508D02*
G01*
X2672791Y-2541270D01*
X2667203Y-2543251D01*
X2662580Y-2546197D01*
X2658872Y-2549652D01*
X2663698Y-2554986D01*
X2666796Y-2552039D01*
X2670403Y-2549804D01*
X2674518Y-2548382D01*
X2679192Y-2547874D01*
X2684373Y-2548432D01*
X2689047Y-2550058D01*
X2693111Y-2552649D01*
X2696565Y-2556205D01*
X2699308Y-2560675D01*
X2701391Y-2565958D01*
X2702610Y-2572054D01*
X2703068Y-2578862D01*
X2702661Y-2585669D01*
X2701391Y-2591765D01*
X2699410Y-2597099D01*
X2696667Y-2601620D01*
X2693263Y-2605227D01*
X2689250Y-2607919D01*
X2684627Y-2609545D01*
X2679446Y-2610104D01*
X2674264Y-2609545D01*
X2669743Y-2607868D01*
X2665679Y-2605176D01*
X2661920Y-2601468D01*
X2657094Y-2606802D01*
X2661716Y-2611374D01*
X2666949Y-2614726D01*
X2672892Y-2616758D01*
X2679700Y-2617470D01*
X2686405Y-2616809D01*
X2692501Y-2614828D01*
X2697988Y-2611628D01*
X2702661Y-2607259D01*
X2706471Y-2601722D01*
X2709316Y-2595168D01*
X2711094Y-2587599D01*
X2711704Y-2579116D01*
X2711094Y-2570581D01*
X2709265Y-2563012D01*
X2706370Y-2556408D01*
X2702509Y-2550871D01*
X2697734Y-2546451D01*
X2692196Y-2543200D01*
X2685999Y-2541168D01*
G37*
G36*
X2564638Y-2540508D02*
G01*
X2559354Y-2541066D01*
X2554782Y-2542590D01*
X2550922Y-2544876D01*
X2547620Y-2547874D01*
X2552192Y-2553208D01*
X2554732Y-2550769D01*
X2557729Y-2548940D01*
X2560980Y-2547772D01*
X2564384Y-2547366D01*
X2568194Y-2547772D01*
X2571800Y-2548991D01*
X2575102Y-2551176D01*
X2577998Y-2554376D01*
X2580386Y-2558694D01*
X2582265Y-2564180D01*
X2583434Y-2570988D01*
X2583942Y-2579116D01*
X2580182Y-2575356D01*
X2575915Y-2572562D01*
X2571394Y-2570835D01*
X2566924Y-2570226D01*
X2562402Y-2570581D01*
X2558338Y-2571699D01*
X2554833Y-2573528D01*
X2551887Y-2576068D01*
X2549499Y-2579319D01*
X2547772Y-2583281D01*
X2546705Y-2587955D01*
X2546350Y-2593340D01*
X2554224Y-2593340D01*
X2555036Y-2586380D01*
X2557576Y-2581046D01*
X2561945Y-2577541D01*
X2568194Y-2576322D01*
X2571851Y-2576880D01*
X2575763Y-2578608D01*
X2579776Y-2581656D01*
X2583688Y-2586228D01*
X2582062Y-2596743D01*
X2578760Y-2604465D01*
X2573782Y-2609240D01*
X2567178Y-2610866D01*
X2562047Y-2609596D01*
X2557932Y-2605989D01*
X2555189Y-2600452D01*
X2554224Y-2593340D01*
X2546350Y-2593340D01*
X2546807Y-2598521D01*
X2548026Y-2603195D01*
X2550007Y-2607360D01*
X2552598Y-2610815D01*
X2555697Y-2613660D01*
X2559202Y-2615742D01*
X2563063Y-2617012D01*
X2567178Y-2617470D01*
X2572410Y-2616911D01*
X2577134Y-2615133D01*
X2581351Y-2612237D01*
X2584907Y-2608224D01*
X2587853Y-2603093D01*
X2589987Y-2596794D01*
X2591358Y-2589377D01*
X2591816Y-2580894D01*
X2591206Y-2570683D01*
X2589580Y-2562148D01*
X2586990Y-2555189D01*
X2583586Y-2549652D01*
X2579471Y-2545537D01*
X2574899Y-2542692D01*
X2569870Y-2541016D01*
G37*
G36*
X2619502Y-2541778D02*
G01*
X2619502Y-2609342D01*
X2604262Y-2609342D01*
X2604262Y-2616200D01*
X2644394Y-2616200D01*
X2644394Y-2609342D01*
X2627630Y-2609342D01*
X2627630Y-2552192D01*
X2640838Y-2552192D01*
X2640838Y-2546858D01*
X2636367Y-2545943D01*
X2632405Y-2544775D01*
X2628900Y-2543403D01*
X2625852Y-2541778D01*
G37*
D10*
X2689621Y-635939D02*
G01*
X2761424Y-635939D01*
X2761424Y-735660D01*
X2689621Y-735660D01*
X2644378Y-635939D02*
G01*
X2572575Y-635939D01*
X2572575Y-735660D01*
X2644378Y-735660D01*
X2410221Y-2642539D02*
G01*
X2467610Y-2642539D01*
X2467610Y-2742260D02*
G01*
X2410221Y-2742260D01*
X2307590Y-2742260D02*
G01*
X2364978Y-2742260D01*
X2364978Y-2642539D02*
G01*
X2307590Y-2642539D01*
X2292350Y-2657779D02*
G01*
X2292350Y-2727020D01*
X2482850Y-2657856D02*
G01*
X2482850Y-2727096D01*
X2134539Y-2669778D02*
G01*
X2134539Y-2597975D01*
X2234260Y-2597975D01*
X2234260Y-2669778D01*
X2134539Y-2715021D02*
G01*
X2134539Y-2786824D01*
X2234260Y-2786824D01*
X2234260Y-2715021D01*
D11*
X1030909Y-804799D02*
G01*
X525907Y-804799D01*
X525907Y-2344801D01*
X1030909Y-2344801D01*
X2575890Y-2344801D02*
G01*
X2575890Y-804799D01*
D10*
X5180660Y-2257821D02*
G01*
X5180660Y-2315210D01*
X5080939Y-2315210D02*
G01*
X5080939Y-2257821D01*
X5080939Y-2155190D02*
G01*
X5080939Y-2212578D01*
X5180660Y-2212578D02*
G01*
X5180660Y-2155190D01*
X5165420Y-2139950D02*
G01*
X5096179Y-2139950D01*
X5165344Y-2330450D02*
G01*
X5096103Y-2330450D01*
X5324784Y-2413167D02*
G01*
X5324784Y-2336967D01*
X5192664Y-2413167D02*
G01*
X5207899Y-2428410D01*
X5309542Y-2428410D01*
X5324784Y-2413167D01*
X5324784Y-2160165D02*
G01*
X5324784Y-2236365D01*
X5192664Y-2413167D02*
G01*
X5192664Y-2336967D01*
X5192664Y-2160165D02*
G01*
X5192664Y-2236365D01*
X5324784Y-2160165D02*
G01*
X5309542Y-2144936D01*
X5207899Y-2144936D01*
X5192664Y-2160165D01*
X5334939Y-2212578D02*
G01*
X5334939Y-2140775D01*
X5434660Y-2140775D01*
X5434660Y-2212578D01*
X5334939Y-2257821D02*
G01*
X5334939Y-2329624D01*
X5434660Y-2329624D01*
X5434660Y-2257821D01*
X4366021Y-1194739D02*
G01*
X4423410Y-1194739D01*
X4423410Y-1294460D02*
G01*
X4366021Y-1294460D01*
X4263390Y-1294460D02*
G01*
X4320778Y-1294460D01*
X4320778Y-1194739D02*
G01*
X4263390Y-1194739D01*
X4248150Y-1209979D02*
G01*
X4248150Y-1279220D01*
X4438650Y-1210056D02*
G01*
X4438650Y-1279296D01*
D12*
X4716805Y-1311808D02*
G01*
X5036794Y-1311808D01*
X5036794Y-821791D01*
X4716805Y-821791D01*
X4716805Y-1311808D01*
X4531791Y-1324787D02*
G01*
X4681804Y-1324787D01*
D10*
X4371578Y-1497660D02*
G01*
X4299775Y-1497660D01*
X4299775Y-1397939D01*
X4371578Y-1397939D01*
X4416821Y-1497660D02*
G01*
X4488624Y-1497660D01*
X4488624Y-1397939D01*
X4416821Y-1397939D01*
X4950221Y-2413939D02*
G01*
X5022024Y-2413939D01*
X5022024Y-2513660D01*
X4950221Y-2513660D01*
X4904978Y-2413939D02*
G01*
X4833175Y-2413939D01*
X4833175Y-2513660D01*
X4904978Y-2513660D01*
X4950221Y-2210739D02*
G01*
X5022024Y-2210739D01*
X5022024Y-2310460D01*
X4950221Y-2310460D01*
X4904978Y-2210739D02*
G01*
X4833175Y-2210739D01*
X4833175Y-2310460D01*
X4904978Y-2310460D01*
X4063060Y-1318021D02*
G01*
X4063060Y-1389824D01*
X3963339Y-1389824D01*
X3963339Y-1318021D01*
X4063060Y-1272778D02*
G01*
X4063060Y-1200975D01*
X3963339Y-1200975D01*
X3963339Y-1272778D01*
X3885260Y-2715021D02*
G01*
X3885260Y-2772410D01*
X3785539Y-2772410D02*
G01*
X3785539Y-2715021D01*
X3785539Y-2612390D02*
G01*
X3785539Y-2669778D01*
X3885260Y-2669778D02*
G01*
X3885260Y-2612390D01*
X3870020Y-2597150D02*
G01*
X3800779Y-2597150D01*
X3869944Y-2787650D02*
G01*
X3800703Y-2787650D01*
X5717778Y-608660D02*
G01*
X5645975Y-608660D01*
X5645975Y-508939D01*
X5717778Y-508939D01*
X5763021Y-608660D02*
G01*
X5834824Y-608660D01*
X5834824Y-508939D01*
X5763021Y-508939D01*
X3683939Y-2669778D02*
G01*
X3683939Y-2612390D01*
X3783660Y-2612390D02*
G01*
X3783660Y-2669778D01*
X3783660Y-2772410D02*
G01*
X3783660Y-2715021D01*
X3683939Y-2715021D02*
G01*
X3683939Y-2772410D01*
X3699179Y-2787650D02*
G01*
X3768420Y-2787650D01*
X3699256Y-2597150D02*
G01*
X3768496Y-2597150D01*
X5666978Y-2894660D02*
G01*
X5595175Y-2894660D01*
X5595175Y-2794939D01*
X5666978Y-2794939D01*
X5712221Y-2894660D02*
G01*
X5784024Y-2894660D01*
X5784024Y-2794939D01*
X5712221Y-2794939D01*
D12*
X5876594Y-1467688D02*
G01*
X5716600Y-1467688D01*
X5876594Y-1732711D02*
G01*
X5716600Y-1732711D01*
D10*
X3279378Y-2843860D02*
G01*
X3207575Y-2843860D01*
X3207575Y-2744139D01*
X3279378Y-2744139D01*
X3324621Y-2843860D02*
G01*
X3396424Y-2843860D01*
X3396424Y-2744139D01*
X3324621Y-2744139D01*
X3076178Y-2843860D02*
G01*
X3004375Y-2843860D01*
X3004375Y-2744139D01*
X3076178Y-2744139D01*
X3121421Y-2843860D02*
G01*
X3193224Y-2843860D01*
X3193224Y-2744139D01*
X3121421Y-2744139D01*
X4950221Y-2312339D02*
G01*
X5022024Y-2312339D01*
X5022024Y-2412060D01*
X4950221Y-2412060D01*
X4904978Y-2312339D02*
G01*
X4833175Y-2312339D01*
X4833175Y-2412060D01*
X4904978Y-2412060D01*
X4041378Y-1650060D02*
G01*
X3969575Y-1650060D01*
X3969575Y-1550339D01*
X4041378Y-1550339D01*
X4086621Y-1650060D02*
G01*
X4158424Y-1650060D01*
X4158424Y-1550339D01*
X4086621Y-1550339D01*
X2715021Y-2744139D02*
G01*
X2786824Y-2744139D01*
X2786824Y-2843860D01*
X2715021Y-2843860D01*
X2669778Y-2744139D02*
G01*
X2597975Y-2744139D01*
X2597975Y-2843860D01*
X2669778Y-2843860D01*
X2410221Y-2744139D02*
G01*
X2467610Y-2744139D01*
X2467610Y-2843860D02*
G01*
X2410221Y-2843860D01*
X2307590Y-2843860D02*
G01*
X2364978Y-2843860D01*
X2364978Y-2744139D02*
G01*
X2307590Y-2744139D01*
X2292350Y-2759379D02*
G01*
X2292350Y-2828620D01*
X2482850Y-2759456D02*
G01*
X2482850Y-2828696D01*
D12*
X4045991Y-2402992D02*
G01*
X4045991Y-2423007D01*
X4336008Y-2423007D01*
X4336008Y-2402992D01*
X4045991Y-2402992D01*
X4037507Y-2248001D02*
G01*
X4037507Y-2367991D01*
D10*
X3304778Y-2742260D02*
G01*
X3232975Y-2742260D01*
X3232975Y-2642539D01*
X3304778Y-2642539D01*
X3350021Y-2742260D02*
G01*
X3421824Y-2742260D01*
X3421824Y-2642539D01*
X3350021Y-2642539D01*
X2918221Y-2744139D02*
G01*
X2975610Y-2744139D01*
X2975610Y-2843860D02*
G01*
X2918221Y-2843860D01*
X2815590Y-2843860D02*
G01*
X2872978Y-2843860D01*
X2872978Y-2744139D02*
G01*
X2815590Y-2744139D01*
X2800350Y-2759379D02*
G01*
X2800350Y-2828620D01*
X2990850Y-2759456D02*
G01*
X2990850Y-2828696D01*
X1933178Y-2742260D02*
G01*
X1861375Y-2742260D01*
X1861375Y-2642539D01*
X1933178Y-2642539D01*
X1978421Y-2742260D02*
G01*
X2050224Y-2742260D01*
X2050224Y-2642539D01*
X1978421Y-2642539D01*
X2589860Y-2765821D02*
G01*
X2589860Y-2823210D01*
X2490139Y-2823210D02*
G01*
X2490139Y-2765821D01*
X2490139Y-2663190D02*
G01*
X2490139Y-2720578D01*
X2589860Y-2720578D02*
G01*
X2589860Y-2663190D01*
X2574620Y-2647950D02*
G01*
X2505379Y-2647950D01*
X2574544Y-2838450D02*
G01*
X2505303Y-2838450D01*
D12*
X4206392Y-2050008D02*
G01*
X4226407Y-2050008D01*
X4226407Y-1759991D01*
X4206392Y-1759991D01*
X4206392Y-2050008D01*
X4051401Y-2058492D02*
G01*
X4171391Y-2058492D01*
D10*
X4063060Y-683021D02*
G01*
X4063060Y-754824D01*
X3963339Y-754824D01*
X3963339Y-683021D01*
X4063060Y-637778D02*
G01*
X4063060Y-565975D01*
X3963339Y-565975D01*
X3963339Y-637778D01*
X2695178Y-2742260D02*
G01*
X2637790Y-2742260D01*
X2637790Y-2642539D02*
G01*
X2695178Y-2642539D01*
X2797810Y-2642539D02*
G01*
X2740421Y-2642539D01*
X2740421Y-2742260D02*
G01*
X2797810Y-2742260D01*
X2813050Y-2727020D02*
G01*
X2813050Y-2657779D01*
X2622550Y-2726944D02*
G01*
X2622550Y-2657703D01*
G75*
G01*
X2467610Y-2642616D02*
G02*
X2482850Y-2657856I0J-15240D01*
G75*
G01*
X2482850Y-2727096D02*
G02*
X2467610Y-2742336I-15240J0D01*
G75*
G01*
X2292350Y-2726944D02*
G03*
X2307590Y-2742184I15240J0D01*
G75*
G01*
X2307590Y-2642464D02*
G03*
X2292350Y-2657704I0J-15240D01*
D12*
G75*
G01*
X1208405Y-739800D02*
G02*
X1208837Y-739800I216J10005D01*
D10*
G75*
G01*
X5180584Y-2315210D02*
G02*
X5165344Y-2330450I-15240J0D01*
G75*
G01*
X5096104Y-2330450D02*
G02*
X5080864Y-2315210I0J15240D01*
G75*
G01*
X5096256Y-2139950D02*
G03*
X5081016Y-2155190I0J-15240D01*
G75*
G01*
X5180736Y-2155190D02*
G03*
X5165496Y-2139950I-15240J0D01*
G75*
G01*
X4423410Y-1194816D02*
G02*
X4438650Y-1210056I0J-15240D01*
G75*
G01*
X4438650Y-1279296D02*
G02*
X4423410Y-1294536I-15240J0D01*
G75*
G01*
X4248150Y-1279144D02*
G03*
X4263390Y-1294384I15240J0D01*
G75*
G01*
X4263390Y-1194664D02*
G03*
X4248150Y-1209904I0J-15240D01*
G75*
G01*
X3885184Y-2772410D02*
G02*
X3869944Y-2787650I-15240J0D01*
G75*
G01*
X3800704Y-2787650D02*
G02*
X3785464Y-2772410I0J15240D01*
G75*
G01*
X3800856Y-2597150D02*
G03*
X3785616Y-2612390I0J-15240D01*
G75*
G01*
X3885336Y-2612390D02*
G03*
X3870096Y-2597150I-15240J0D01*
G75*
G01*
X3684016Y-2612390D02*
G02*
X3699256Y-2597150I15240J0D01*
G75*
G01*
X3768496Y-2597150D02*
G02*
X3783736Y-2612390I0J-15240D01*
G75*
G01*
X3768344Y-2787650D02*
G03*
X3783584Y-2772410I0J15240D01*
G75*
G01*
X3683864Y-2772410D02*
G03*
X3699104Y-2787650I15240J0D01*
D13*
G75*
G01*
X6023991Y-1780210D02*
G02*
X6023991Y-1770202I0J5004D01*
G75*
G01*
X6023991Y-1770202D02*
G02*
X6023991Y-1780210I0J-5004D01*
D10*
G75*
G01*
X2467610Y-2744216D02*
G02*
X2482850Y-2759456I0J-15240D01*
G75*
G01*
X2482850Y-2828696D02*
G02*
X2467610Y-2843936I-15240J0D01*
G75*
G01*
X2292350Y-2828544D02*
G03*
X2307590Y-2843784I15240J0D01*
G75*
G01*
X2307590Y-2744064D02*
G03*
X2292350Y-2759304I0J-15240D01*
G75*
G01*
X2975610Y-2744216D02*
G02*
X2990850Y-2759456I0J-15240D01*
G75*
G01*
X2990850Y-2828696D02*
G02*
X2975610Y-2843936I-15240J0D01*
G75*
G01*
X2800350Y-2828544D02*
G03*
X2815590Y-2843784I15240J0D01*
G75*
G01*
X2815590Y-2744064D02*
G03*
X2800350Y-2759304I0J-15240D01*
G75*
G01*
X2589784Y-2823210D02*
G02*
X2574544Y-2838450I-15240J0D01*
G75*
G01*
X2505304Y-2838450D02*
G02*
X2490064Y-2823210I0J15240D01*
G75*
G01*
X2505456Y-2647950D02*
G03*
X2490216Y-2663190I0J-15240D01*
G75*
G01*
X2589936Y-2663190D02*
G03*
X2574696Y-2647950I-15240J0D01*
G75*
G01*
X2637790Y-2742184D02*
G02*
X2622550Y-2726944I0J15240D01*
G75*
G01*
X2622550Y-2657704D02*
G02*
X2637790Y-2642464I15240J0D01*
G75*
G01*
X2813050Y-2657856D02*
G03*
X2797810Y-2642616I-15240J0D01*
G75*
G01*
X2797810Y-2742336D02*
G03*
X2813050Y-2727096I0J15240D01*
M02*
