G04 Layer: BottomSolderMaskLayer*
G04 EasyEDA v6.5.39, 2023-12-11 18:00:09*
G04 fc83978cdc934b7da63e149a84a413c2,10*
G04 Gerber Generator version 0.2*
G04 Scale: 100 percent, Rotated: No, Reflected: No *
G04 Dimensions in millimeters *
G04 leading zeros omitted , absolute positions ,4 integer and 5 decimal *
%FSLAX45Y45*%
%MOMM*%

%AMMACRO1*1,1,$1,$2,$3*1,1,$1,$4,$5*1,1,$1,0-$2,0-$3*1,1,$1,0-$4,0-$5*20,1,$1,$2,$3,$4,$5,0*20,1,$1,$4,$5,0-$2,0-$3,0*20,1,$1,0-$2,0-$3,0-$4,0-$5,0*20,1,$1,0-$4,0-$5,$2,$3,0*4,1,4,$2,$3,$4,$5,0-$2,0-$3,0-$4,0-$5,$2,$3,0*%
%ADD10O,1.2015978000000003X2.2015958*%
%ADD11O,1.2015978000000003X1.9015964*%
%ADD12MACRO1,0.1016X-0.619X0.619X0.619X0.619*%
%ADD13C,1.3396*%
%ADD14MACRO1,0.1016X0.2828X0.27X0.2828X-0.27*%
%ADD15MACRO1,0.1016X-0.2828X0.27X-0.2828X-0.27*%
%ADD16MACRO1,0.1016X-0.4X-0.2X0.4001X-0.2*%
%ADD17MACRO1,0.1016X-0.2X0.4001X-0.2X-0.4001*%
%ADD18MACRO1,0.1016X-0.4001X-0.2X0.4X-0.2*%
%ADD19MACRO1,0.1016X-0.2X0.4X-0.2X-0.4001*%
%ADD20MACRO1,0.1016X-0.725X0.725X-0.725X-0.725*%
%ADD21MACRO1,0.1016X-0.35X0.35X-0.35X-0.35*%
%ADD22MACRO1,0.1016X0.9249X0.45X-0.9249X0.45*%
%ADD23MACRO1,0.1016X0.9249X-1.5999X0.9249X1.5999*%
%ADD24MACRO1,0.1016X-0.2828X-0.27X0.2828X-0.27*%
%ADD25MACRO1,0.1016X0.2828X0.27X-0.2828X0.27*%
%ADD26MACRO1,0.1016X0.15X-0.4249X0.15X0.4249*%
%ADD27MACRO1,0.1016X-0.4X-0.432X0.4X-0.432*%
%ADD28MACRO1,0.1016X0.2828X-0.27X0.2828X0.27*%
%ADD29MACRO1,0.1016X-0.2828X-0.27X-0.2828X0.27*%
%ADD30MACRO1,0.1016X0.5999X0.325X-0.5999X0.325*%
%ADD31R,0.6416X0.6673*%
%ADD32MACRO1,0.1016X-0.4X-0.45X0.4X-0.45*%
%ADD33MACRO1,0.1016X0.9625X0.325X-0.9625X0.325*%
%ADD34MACRO1,0.1016X-0.27X-0.2828X0.27X-0.2828*%
%ADD35MACRO1,0.1016X-0.27X0.2828X0.27X0.2828*%
%ADD36MACRO1,0.1016X0.4128X0.5271X-0.4128X0.5271*%
%ADD37MACRO1,0.1016X0.4128X0.527X-0.4128X0.527*%
%ADD38C,0.0176*%

%LPD*%
D10*
G01*
X5079796Y-3578504D03*
G01*
X5943803Y-3578504D03*
D11*
G01*
X5943803Y-3996512D03*
G01*
X5079796Y-3996512D03*
D12*
G01*
X2286000Y-304800D03*
D13*
G01*
X2286000Y-558800D03*
G01*
X2286000Y-812800D03*
G01*
X2286000Y-1066800D03*
G01*
X2286000Y-1320800D03*
G01*
X2286000Y-1574800D03*
G01*
X3048000Y-1574800D03*
G01*
X3048000Y-1320800D03*
G01*
X3048000Y-1066800D03*
G01*
X3048000Y-812800D03*
G01*
X3048000Y-558800D03*
G01*
X3048000Y-304800D03*
D12*
G01*
X3556000Y-304800D03*
D13*
G01*
X3556000Y-558800D03*
G01*
X3556000Y-812800D03*
G01*
X3556000Y-1066800D03*
G01*
X3556000Y-1320800D03*
G01*
X3556000Y-1574800D03*
G01*
X4318000Y-1574800D03*
G01*
X4318000Y-1320800D03*
G01*
X4318000Y-1066800D03*
G01*
X4318000Y-812800D03*
G01*
X4318000Y-558800D03*
G01*
X4318000Y-304800D03*
D14*
G01*
X2217317Y-2667000D03*
D15*
G01*
X2303882Y-2667000D03*
D16*
G01*
X2712008Y-3447999D03*
G01*
X2712008Y-3367989D03*
G01*
X2712008Y-3288004D03*
G01*
X2712008Y-3207994D03*
G01*
X2712008Y-3128010D03*
G01*
X2712008Y-3048000D03*
G01*
X2712008Y-2967990D03*
G01*
X2712008Y-2888005D03*
G01*
X2712008Y-2807995D03*
G01*
X2712008Y-2728010D03*
G01*
X2712008Y-2648000D03*
D17*
G01*
X2821990Y-2558008D03*
G01*
X2902000Y-2558008D03*
G01*
X2982010Y-2558008D03*
G01*
X3061995Y-2558008D03*
G01*
X3142005Y-2558008D03*
G01*
X3221990Y-2558008D03*
G01*
X3302000Y-2558008D03*
G01*
X3382010Y-2558008D03*
G01*
X3461994Y-2558008D03*
G01*
X3542004Y-2558008D03*
G01*
X3621989Y-2558008D03*
G01*
X3701999Y-2558008D03*
G01*
X3782009Y-2558008D03*
D18*
G01*
X3891991Y-2648000D03*
G01*
X3891991Y-2728010D03*
G01*
X3891991Y-2807995D03*
G01*
X3891991Y-2888005D03*
G01*
X3891991Y-2967990D03*
G01*
X3891991Y-3048000D03*
G01*
X3891991Y-3128010D03*
G01*
X3891991Y-3207994D03*
G01*
X3891991Y-3288004D03*
G01*
X3891991Y-3367989D03*
G01*
X3891991Y-3447999D03*
D19*
G01*
X3782009Y-3537991D03*
G01*
X3701999Y-3537991D03*
G01*
X3621989Y-3537991D03*
G01*
X3542004Y-3537991D03*
G01*
X3461994Y-3537991D03*
G01*
X3382010Y-3537991D03*
G01*
X3302000Y-3537991D03*
G01*
X3221990Y-3537991D03*
G01*
X3142005Y-3537991D03*
G01*
X3061995Y-3537991D03*
G01*
X2982010Y-3537991D03*
G01*
X2902000Y-3537991D03*
G01*
X2821990Y-3537991D03*
D20*
G01*
X3302000Y-3048000D03*
G01*
X3499510Y-3245510D03*
G01*
X3302000Y-3245510D03*
G01*
X3104489Y-3245510D03*
G01*
X3104489Y-3048000D03*
G01*
X3104489Y-2850489D03*
G01*
X3302000Y-2850489D03*
G01*
X3499510Y-2850489D03*
G01*
X3499510Y-3048000D03*
D21*
G01*
X2707005Y-3542995D03*
G01*
X2707005Y-2553004D03*
G01*
X3896995Y-2553004D03*
G01*
X3896995Y-3542995D03*
D22*
G01*
X4856606Y-3681603D03*
G01*
X4856606Y-3911600D03*
G01*
X4856606Y-4141597D03*
D23*
G01*
X4236593Y-3911600D03*
D24*
G01*
X3987800Y-1600200D03*
G01*
X3886200Y-1600200D03*
G01*
X3987800Y-1803400D03*
G01*
X3886200Y-1803400D03*
G01*
X3987800Y-1701800D03*
G01*
X3886200Y-1701800D03*
D25*
G01*
X2590800Y-1701800D03*
G01*
X2692400Y-1701800D03*
D26*
G01*
X3021812Y-2035810D03*
G01*
X2971800Y-2035810D03*
G01*
X2921787Y-2035810D03*
G01*
X2921787Y-1875789D03*
G01*
X2971800Y-1875789D03*
G01*
X3021812Y-1875789D03*
D27*
G01*
X3371999Y-1676387D03*
G01*
X3232000Y-1676387D03*
D15*
G01*
X2684882Y-1498600D03*
D14*
G01*
X2598317Y-1498600D03*
D28*
G01*
X2598317Y-1803400D03*
D29*
G01*
X2684882Y-1803400D03*
D28*
G01*
X2598317Y-1600200D03*
D29*
G01*
X2684882Y-1600200D03*
D30*
G01*
X4651603Y-2088388D03*
G01*
X4651603Y-2280412D03*
G01*
X4441596Y-2184400D03*
G01*
X4651603Y-2443988D03*
G01*
X4651603Y-2636012D03*
G01*
X4441596Y-2540000D03*
D15*
G01*
X297282Y-1574800D03*
D14*
G01*
X210717Y-1574800D03*
D28*
G01*
X210717Y-1676400D03*
D29*
G01*
X297282Y-1676400D03*
D28*
G01*
X210717Y-1879600D03*
D29*
G01*
X297282Y-1879600D03*
D24*
G01*
X4851400Y-2946400D03*
G01*
X4749800Y-2946400D03*
G01*
X4851400Y-2844800D03*
G01*
X4749800Y-2844800D03*
D31*
G01*
X1854200Y-932281D03*
G01*
X1854200Y-845718D03*
G01*
X1752600Y-932281D03*
G01*
X1752600Y-845718D03*
D24*
G01*
X3352800Y-1143000D03*
G01*
X3251200Y-1143000D03*
D32*
G01*
X3371999Y-1371600D03*
G01*
X3232000Y-1371600D03*
D33*
G01*
X1690395Y-1130300D03*
G01*
X1690395Y-1257300D03*
G01*
X1690395Y-1384300D03*
G01*
X1690395Y-1511300D03*
G01*
X1690395Y-1638300D03*
G01*
X1690395Y-1765300D03*
G01*
X1690395Y-1892300D03*
G01*
X1690395Y-2019300D03*
G01*
X1690395Y-2146300D03*
G01*
X1690395Y-2273300D03*
G01*
X1690395Y-2400300D03*
G01*
X1690395Y-2527300D03*
G01*
X748004Y-2527300D03*
G01*
X748004Y-2400300D03*
G01*
X748004Y-2273300D03*
G01*
X748004Y-2146300D03*
G01*
X748004Y-2019300D03*
G01*
X748004Y-1892300D03*
G01*
X748004Y-1765300D03*
G01*
X748004Y-1638300D03*
G01*
X748004Y-1511300D03*
G01*
X748004Y-1384300D03*
G01*
X748004Y-1257300D03*
G01*
X748004Y-1130300D03*
D24*
G01*
X3352800Y-1244600D03*
G01*
X3251200Y-1244600D03*
D32*
G01*
X3371999Y-1524000D03*
G01*
X3232000Y-1524000D03*
D33*
G01*
X5906795Y-1130300D03*
G01*
X5906795Y-1257300D03*
G01*
X5906795Y-1384300D03*
G01*
X5906795Y-1511300D03*
G01*
X5906795Y-1638300D03*
G01*
X5906795Y-1765300D03*
G01*
X5906795Y-1892300D03*
G01*
X5906795Y-2019300D03*
G01*
X5906795Y-2146300D03*
G01*
X5906795Y-2273300D03*
G01*
X5906795Y-2400300D03*
G01*
X5906795Y-2527300D03*
G01*
X4964404Y-2527300D03*
G01*
X4964404Y-2400300D03*
G01*
X4964404Y-2273300D03*
G01*
X4964404Y-2146300D03*
G01*
X4964404Y-2019300D03*
G01*
X4964404Y-1892300D03*
G01*
X4964404Y-1765300D03*
G01*
X4964404Y-1638300D03*
G01*
X4964404Y-1511300D03*
G01*
X4964404Y-1384300D03*
G01*
X4964404Y-1257300D03*
G01*
X4964404Y-1130300D03*
D34*
G01*
X4597400Y-1785517D03*
D35*
G01*
X4597400Y-1872082D03*
D24*
G01*
X4749800Y-3048000D03*
G01*
X4851400Y-3048000D03*
D31*
G01*
X2260600Y-1963318D03*
G01*
X2260600Y-2049881D03*
D24*
G01*
X3886200Y-1498600D03*
G01*
X3987800Y-1498600D03*
D25*
G01*
X2209800Y-2768600D03*
G01*
X2311400Y-2768600D03*
D28*
G01*
X2217317Y-2870200D03*
D29*
G01*
X2303882Y-2870200D03*
D31*
G01*
X2362200Y-2049881D03*
G01*
X2362200Y-1963318D03*
D24*
G01*
X4851400Y-3149600D03*
G01*
X4749800Y-3149600D03*
D25*
G01*
X4749800Y-3251200D03*
G01*
X4851400Y-3251200D03*
G01*
X4749800Y-3352800D03*
G01*
X4851400Y-3352800D03*
D36*
G01*
X4419600Y-3149600D03*
D37*
G01*
X4353560Y-3352800D03*
G01*
X4485640Y-3352800D03*
D28*
G01*
X210717Y-1778000D03*
D29*
G01*
X297282Y-1778000D03*
M02*
