G04 Layer: InnerLayer1*
G04 EasyEDA v6.5.39, 2023-12-11 18:00:09*
G04 fc83978cdc934b7da63e149a84a413c2,10*
G04 Gerber Generator version 0.2*
G04 Scale: 100 percent, Rotated: No, Reflected: No *
G04 Dimensions in millimeters *
G04 leading zeros omitted , absolute positions ,4 integer and 5 decimal *
%FSLAX45Y45*%
%MOMM*%

%ADD10C,0.1524*%
%ADD11O,1.0999978000000001X2.0999958*%
%ADD12O,1.0999978000000001X1.7999964*%
%ADD13R,1.2380X1.2380*%
%ADD14C,1.2380*%
%ADD15C,0.5080*%

%LPD*%
D10*
X3038195Y-2736011D02*
G01*
X2392959Y-2090775D01*
X2081199Y-2090775D01*
X3775024Y-3271748D02*
G01*
X5435193Y-3271748D01*
X5586806Y-3423361D01*
X2253513Y-2149424D02*
G01*
X3375837Y-3271748D01*
X3775024Y-3271748D01*
X2254199Y-2220163D02*
G01*
X3362731Y-3328695D01*
X4035907Y-3328695D01*
X5426811Y-3421710D02*
G01*
X5317794Y-3312693D01*
X4051909Y-3312693D01*
X4035907Y-3328695D01*
X3107842Y-1917217D02*
G01*
X3943858Y-1917217D01*
X3987800Y-1873275D01*
X3107842Y-1917217D02*
G01*
X3010331Y-2014728D01*
X2759760Y-2014728D01*
X5943803Y-3996512D02*
G01*
X5079796Y-3996512D01*
X5281752Y-3214903D02*
G01*
X4936058Y-3214903D01*
X5053838Y-3361080D02*
G01*
X4196765Y-3361080D01*
X4169460Y-3388385D01*
X2951810Y-3388385D01*
X2023160Y-2835452D02*
G01*
X2398877Y-2835452D01*
X2951810Y-3388385D01*
X4829479Y-2658770D02*
G01*
X4703826Y-2784424D01*
X3012973Y-2784424D01*
X2958769Y-2730220D01*
X2423591Y-2759151D02*
G01*
X2202992Y-2538552D01*
X887399Y-2538552D01*
X2921406Y-2357247D02*
G01*
X4608957Y-2357247D01*
X1271930Y-1795983D02*
G01*
X2341448Y-1795983D01*
X2872079Y-2326614D01*
X5752109Y-1148283D02*
G01*
X5752109Y-1415567D01*
X4882565Y-2285111D01*
X2913583Y-2285111D01*
X2872079Y-2326614D01*
X2872079Y-2326614D02*
G01*
X2872079Y-2421813D01*
X2888259Y-2437993D01*
X4183049Y-1273810D02*
G01*
X4045813Y-1411046D01*
X2990773Y-1411046D01*
X2990773Y-1411046D02*
G01*
X1145514Y-1411046D01*
X997661Y-1263192D01*
X1594053Y-853998D02*
G01*
X1723898Y-724154D01*
X2730042Y-724154D01*
X2845104Y-839216D01*
X3237077Y-1760677D02*
G01*
X3237179Y-1760778D01*
X4058818Y-1760778D01*
X2755569Y-1487195D02*
G01*
X3086277Y-1487195D01*
X3237077Y-1637995D01*
X3237077Y-1760677D01*
X610209Y-1746631D02*
G01*
X866241Y-1490599D01*
X1103807Y-1490599D01*
X1133068Y-1461338D01*
X2729712Y-1461338D01*
X2755569Y-1487195D01*
X2755569Y-1487195D02*
G01*
X2755569Y-1564741D01*
X2825521Y-1753285D02*
G01*
X2953588Y-1881352D01*
X3352139Y-1830781D02*
G01*
X3004159Y-1830781D01*
X2953588Y-1881352D01*
X2953588Y-1881352D02*
G01*
X2881249Y-1953691D01*
X1866569Y-1518259D02*
G01*
X2229459Y-1518259D01*
X2286000Y-1574800D01*
X3048000Y-1574800D02*
G01*
X2954629Y-1668170D01*
X956411Y-1668170D01*
X3048000Y-1320800D02*
G01*
X2954909Y-1227709D01*
X2175789Y-1227709D01*
X2162886Y-1214805D01*
X909650Y-1214805D01*
X3048000Y-1066800D02*
G01*
X2528163Y-1066800D01*
X2506370Y-1045006D01*
X3048000Y-812800D02*
G01*
X2933344Y-927455D01*
X1120190Y-927455D01*
X859713Y-1187932D01*
X859713Y-1238504D01*
X1047597Y-1426387D01*
X1083767Y-1426387D01*
X3556000Y-558800D02*
G01*
X4186377Y-1189177D01*
X5161737Y-1189177D01*
X5686145Y-1306855D02*
G01*
X5210987Y-1306855D01*
X5129555Y-1225423D01*
X3714623Y-1225423D01*
X3556000Y-1066800D01*
X3556000Y-1574800D02*
G01*
X3648354Y-1482445D01*
X5612282Y-1482445D01*
D11*
G01*
X5079796Y-3578504D03*
G01*
X5943803Y-3578504D03*
D12*
G01*
X5943803Y-3996512D03*
G01*
X5079796Y-3996512D03*
D13*
G01*
X2286000Y-304800D03*
D14*
G01*
X2286000Y-558800D03*
G01*
X2286000Y-812800D03*
G01*
X2286000Y-1066800D03*
G01*
X2286000Y-1320800D03*
G01*
X2286000Y-1574800D03*
G01*
X3048000Y-1574800D03*
G01*
X3048000Y-1320800D03*
G01*
X3048000Y-1066800D03*
G01*
X3048000Y-812800D03*
G01*
X3048000Y-558800D03*
G01*
X3048000Y-304800D03*
D13*
G01*
X3556000Y-304800D03*
D14*
G01*
X3556000Y-558800D03*
G01*
X3556000Y-812800D03*
G01*
X3556000Y-1066800D03*
G01*
X3556000Y-1320800D03*
G01*
X3556000Y-1574800D03*
G01*
X4318000Y-1574800D03*
G01*
X4318000Y-1320800D03*
G01*
X4318000Y-1066800D03*
G01*
X4318000Y-812800D03*
G01*
X4318000Y-558800D03*
G01*
X4318000Y-304800D03*
D15*
G01*
X4746294Y-1897938D03*
G01*
X5612282Y-1482445D03*
G01*
X5686145Y-1306855D03*
G01*
X4799888Y-2334183D03*
G01*
X5161737Y-1189177D03*
G01*
X1083767Y-1426387D03*
G01*
X2506370Y-1045006D03*
G01*
X909650Y-1214805D03*
G01*
X956411Y-1668170D03*
G01*
X1866569Y-1518259D03*
G01*
X2195830Y-1179322D03*
G01*
X334416Y-742569D03*
G01*
X367588Y-1589379D03*
G01*
X589051Y-1366393D03*
G01*
X4118483Y-2997200D03*
G01*
X2825521Y-1753285D03*
G01*
X2881249Y-1953691D03*
G01*
X3352139Y-1830781D03*
G01*
X2755569Y-1564741D03*
G01*
X4058818Y-1760778D03*
G01*
X3237077Y-1760677D03*
G01*
X610209Y-1746631D03*
G01*
X1922449Y-805281D03*
G01*
X2845104Y-839216D03*
G01*
X1594053Y-853998D03*
G01*
X3407486Y-2123440D03*
G01*
X3351174Y-2084832D03*
G01*
X997661Y-1263192D03*
G01*
X2990773Y-1411046D03*
G01*
X4183049Y-1273810D03*
G01*
X1271930Y-1795983D03*
G01*
X2888259Y-2437993D03*
G01*
X5752109Y-1148283D03*
G01*
X4608957Y-2357247D03*
G01*
X2921406Y-2357247D03*
G01*
X887399Y-2538552D03*
G01*
X2423591Y-2759151D03*
G01*
X2958769Y-2730220D03*
G01*
X4829479Y-2658770D03*
G01*
X2023160Y-2835452D03*
G01*
X2951810Y-3388385D03*
G01*
X5053838Y-3361080D03*
G01*
X4936058Y-3214903D03*
G01*
X5281752Y-3214903D03*
G01*
X1344472Y-1356283D03*
G01*
X1643507Y-1056817D03*
G01*
X2759760Y-2014728D03*
G01*
X3987800Y-1873275D03*
G01*
X3107842Y-1917217D03*
G01*
X4304385Y-3553840D03*
G01*
X2254199Y-2220163D03*
G01*
X4035907Y-3328695D03*
G01*
X5426811Y-3421710D03*
G01*
X2253513Y-2149424D03*
G01*
X3775024Y-3271748D03*
G01*
X5586806Y-3423361D03*
G01*
X2081199Y-2090775D03*
G01*
X5280583Y-3064687D03*
G01*
X4934661Y-3422929D03*
G01*
X3038195Y-2736011D03*
G01*
X1334389Y-1265021D03*
M02*
