G04 Layer: InnerLayer1*
G04 EasyEDA v6.5.39, 2023-12-28 21:15:06*
G04 35ff57de02ea422eb169f7c644e1f47a,fc83978cdc934b7da63e149a84a413c2,10*
G04 Gerber Generator version 0.2*
G04 Scale: 100 percent, Rotated: No, Reflected: No *
G04 Dimensions in millimeters *
G04 leading zeros omitted , absolute positions ,4 integer and 5 decimal *
%FSLAX45Y45*%
%MOMM*%

%ADD10C,0.1524*%
%ADD11C,1.6241*%
%ADD12O,2.0999958X1.0999978000000001*%
%ADD13O,1.7999964X1.0999978000000001*%
%ADD14C,0.6096*%

%LPD*%
D10*
X4465904Y-2024405D02*
G01*
X4528362Y-1961946D01*
X4715764Y-1961946D01*
X4733899Y-1980082D01*
X5653760Y-1980082D01*
X5660821Y-1973021D01*
X2110130Y-1446530D02*
G01*
X2013534Y-1543126D01*
X2013534Y-1805254D01*
X2364105Y-2155825D01*
X4465320Y-2155825D01*
X7247712Y-2083003D02*
G01*
X6829704Y-2083003D01*
X7247712Y-1218996D02*
G01*
X6829704Y-1218996D01*
X4335703Y-679577D02*
G01*
X4956810Y-679577D01*
X5250764Y-973531D01*
X5315991Y-973531D01*
X5461939Y-1119479D01*
X5461939Y-1223492D01*
X5401538Y-1283893D01*
X3151936Y-2646654D02*
G01*
X3360470Y-2438120D01*
X5572556Y-2438120D01*
X2652090Y-2593009D02*
G01*
X2043633Y-2593009D01*
X1965604Y-2514981D01*
X4100296Y-1091590D02*
G01*
X4118356Y-1109649D01*
X4118381Y-1109649D01*
X4118381Y-1178712D01*
X4198264Y-1258595D01*
X4772990Y-1258595D01*
X4872380Y-1159205D01*
X4872380Y-1105255D01*
X2742209Y-821817D02*
G01*
X2757805Y-806221D01*
X4818430Y-806221D01*
X4871745Y-859536D01*
X3521405Y-2885897D02*
G01*
X5193792Y-2885897D01*
X5344388Y-2735300D01*
X5588000Y-1811324D02*
G01*
X5499582Y-1722907D01*
X4745863Y-1722907D01*
X4728387Y-1705432D01*
X2711297Y-1705432D01*
X1991512Y-985646D01*
X1474622Y-985646D01*
X2745308Y-2872943D02*
G01*
X2745308Y-2621127D01*
X2742311Y-2618130D01*
X6570776Y-1633042D02*
G01*
X6102451Y-2101367D01*
X5568315Y-2101367D01*
X5457647Y-2155647D02*
G01*
X5055844Y-2155647D01*
X4747895Y-1205103D02*
G01*
X4225925Y-1205103D01*
X4217390Y-1196568D01*
X3876675Y-2288641D02*
G01*
X2103780Y-2288641D01*
X2000224Y-2185085D01*
X4121759Y-1300861D02*
G01*
X5081727Y-1300861D01*
X5116957Y-1336090D01*
X6049441Y-1777009D02*
G01*
X5675934Y-1777009D01*
X5491581Y-1592656D01*
X4285589Y-1592656D01*
X4247972Y-1630273D01*
X3441039Y-2784805D02*
G01*
X2985439Y-2784805D01*
X2740075Y-2539441D01*
X2449347Y-2539441D01*
X3027197Y-1489913D02*
G01*
X4265879Y-1489913D01*
X4341012Y-1414780D01*
X5400446Y-1414780D01*
X5409514Y-1423847D01*
X4839944Y-1468247D02*
G01*
X4330928Y-1468247D01*
X4210278Y-1588897D01*
X2672410Y-1588897D01*
X2841599Y-1392961D02*
G01*
X3288207Y-946353D01*
X4372635Y-946353D01*
X4391914Y-927074D01*
X4820386Y-927074D01*
X4836922Y-943610D01*
X4941620Y-943610D01*
X5355386Y-1357376D01*
X5567451Y-1357376D01*
X4701590Y-1354378D02*
G01*
X3638118Y-1354378D01*
X3549675Y-1265936D01*
X3044748Y-1265936D01*
X4736338Y-2209292D02*
G01*
X2287905Y-2209292D01*
X2025040Y-1946427D01*
X1571701Y-1946427D01*
X3788079Y-2556078D02*
G01*
X5591505Y-2556078D01*
X5595950Y-2560523D01*
X2172944Y-2377770D02*
G01*
X5959551Y-2377770D01*
X6357416Y-1979904D01*
X6659372Y-1467459D02*
G01*
X6527495Y-1467459D01*
X6519367Y-1475587D01*
X2341600Y-2057704D02*
G01*
X2813329Y-2057704D01*
X3000705Y-1870329D01*
X6124625Y-1870329D01*
X6519367Y-1475587D01*
X2385872Y-1678432D02*
G01*
X2502306Y-1794865D01*
X2957245Y-1794865D01*
X2350287Y-999921D02*
G01*
X2434463Y-915746D01*
X3949242Y-915746D01*
X3968724Y-896264D01*
X4832858Y-896264D01*
X4849596Y-913003D01*
X4954295Y-913003D01*
X5211292Y-1170000D01*
X5399633Y-1170000D01*
X6238544Y-1534896D02*
G01*
X6069025Y-1704416D01*
X5697143Y-1704416D01*
X5656478Y-1663750D01*
X1882393Y-2162835D02*
G01*
X2157603Y-2438044D01*
X2650363Y-2438044D01*
X2075611Y-1716887D02*
G01*
X2252040Y-1716887D01*
X2383485Y-1848332D01*
X2979420Y-1848332D01*
X2999816Y-1827936D01*
X4220768Y-1827936D01*
X4247489Y-1801215D01*
X2603449Y-2936468D02*
G01*
X2310434Y-2936468D01*
X1884553Y-2510586D01*
X1884553Y-2388387D01*
X4178376Y-1082065D02*
G01*
X4279265Y-981176D01*
X4413529Y-981176D01*
X4413529Y-981176D02*
G01*
X4436999Y-957707D01*
X4804460Y-957707D01*
X4952111Y-1105357D01*
X4985080Y-1105357D01*
D11*
G01*
X5816600Y-1600200D03*
D12*
G01*
X6829704Y-2083003D03*
G01*
X6829704Y-1218996D03*
D13*
G01*
X7247712Y-1218996D03*
G01*
X7247712Y-2083003D03*
D14*
G01*
X4985080Y-1105357D03*
G01*
X5435066Y-2070862D03*
G01*
X4413529Y-981176D03*
G01*
X4178376Y-1082065D03*
G01*
X1397025Y-980262D03*
G01*
X5879414Y-2047875D03*
G01*
X2079904Y-2539517D03*
G01*
X4465929Y-1924405D03*
G01*
X5164353Y-2046071D03*
G01*
X5389372Y-897966D03*
G01*
X3578733Y-1774469D03*
G01*
X1884553Y-2388387D03*
G01*
X2603449Y-2936468D03*
G01*
X5050231Y-2035225D03*
G01*
X4079925Y-1426768D03*
G01*
X2187956Y-1580337D03*
G01*
X2136470Y-758215D03*
G01*
X5289981Y-1028852D03*
G01*
X6156375Y-1929942D03*
G01*
X4728006Y-1016838D03*
G01*
X4247489Y-1801215D03*
G01*
X2383739Y-1221638D03*
G01*
X2075611Y-1716887D03*
G01*
X4759121Y-1815261D03*
G01*
X4451985Y-1787753D03*
G01*
X3895242Y-1045895D03*
G01*
X5565267Y-1272362D03*
G01*
X4360316Y-1038402D03*
G01*
X2384501Y-1480667D03*
G01*
X3920998Y-669721D03*
G01*
X4374819Y-1776399D03*
G01*
X1882393Y-2162835D03*
G01*
X2650363Y-2438044D03*
G01*
X3578733Y-1392174D03*
G01*
X3927094Y-862279D03*
G01*
X4345457Y-1529384D03*
G01*
X3841902Y-671372D03*
G01*
X5656478Y-1663750D03*
G01*
X6238544Y-1534896D03*
G01*
X5399633Y-1170000D03*
G01*
X2350287Y-999921D03*
G01*
X2957245Y-1794865D03*
G01*
X2385872Y-1678432D03*
G01*
X4756099Y-1926564D03*
G01*
X4254322Y-507060D03*
G01*
X6519367Y-1475587D03*
G01*
X6659372Y-1467459D03*
G01*
X2341600Y-2057704D03*
G01*
X2172944Y-2377770D03*
G01*
X6357416Y-1979904D03*
G01*
X5461965Y-1781098D03*
G01*
X5595950Y-2560523D03*
G01*
X3788079Y-2556078D03*
G01*
X4736338Y-2209292D03*
G01*
X1571701Y-1946427D03*
G01*
X3044748Y-1265936D03*
G01*
X4701590Y-1354378D03*
G01*
X2841599Y-1392961D03*
G01*
X5567451Y-1357376D03*
G01*
X2672410Y-1588897D03*
G01*
X4839944Y-1468247D03*
G01*
X3027197Y-1489913D03*
G01*
X5409514Y-1423847D03*
G01*
X2449347Y-2539441D03*
G01*
X3441039Y-2784805D03*
G01*
X6049441Y-1777009D03*
G01*
X4247972Y-1630273D03*
G01*
X5492724Y-1669440D03*
G01*
X5145989Y-793115D03*
G01*
X4121759Y-1300861D03*
G01*
X5116957Y-1336090D03*
G01*
X2000224Y-2185085D03*
G01*
X3876675Y-2288641D03*
G01*
X4747895Y-1205103D03*
G01*
X4217390Y-1196568D03*
G01*
X5055844Y-2155647D03*
G01*
X5457647Y-2155647D03*
G01*
X6570776Y-1633042D03*
G01*
X5568315Y-2101367D03*
G01*
X6229400Y-1625600D03*
G01*
X6953326Y-967359D03*
G01*
X4249445Y-1412011D03*
G01*
X4674031Y-2015413D03*
G01*
X5833262Y-629716D03*
G01*
X5904992Y-2799892D03*
G01*
X3397732Y-2539517D03*
G01*
X1789175Y-2539517D03*
G01*
X3697732Y-711682D03*
G01*
X4675301Y-2092299D03*
G01*
X4459351Y-1646123D03*
G01*
X3280790Y-1651965D03*
G01*
X2742311Y-2618130D03*
G01*
X2745308Y-2872943D03*
G01*
X5588000Y-1811324D03*
G01*
X1474622Y-985646D03*
G01*
X5344388Y-2735300D03*
G01*
X3521405Y-2885897D03*
G01*
X4952644Y-1469237D03*
G01*
X4871745Y-859536D03*
G01*
X2742209Y-821817D03*
G01*
X4872380Y-1105255D03*
G01*
X4100296Y-1091590D03*
G01*
X6675297Y-1220139D03*
G01*
X6667627Y-1555496D03*
G01*
X1965604Y-2514981D03*
G01*
X2652090Y-2593009D03*
G01*
X2093798Y-1793316D03*
G01*
X2053971Y-2440686D03*
G01*
X5572556Y-2438120D03*
G01*
X3151936Y-2646654D03*
G01*
X4799660Y-2065858D03*
G01*
X4405579Y-2072944D03*
G01*
X5401538Y-1283893D03*
G01*
X4335703Y-679577D03*
G01*
X4452366Y-1151432D03*
G01*
X5619496Y-974420D03*
G01*
X3959707Y-1436446D03*
G01*
X2110130Y-1446530D03*
G01*
X4465320Y-2155825D03*
G01*
X5660821Y-1973021D03*
G01*
X4465904Y-2024405D03*
M02*
