G04 Layer: BottomSolderMaskLayer*
G04 EasyEDA v6.5.39, 2023-12-28 21:15:06*
G04 35ff57de02ea422eb169f7c644e1f47a,fc83978cdc934b7da63e149a84a413c2,10*
G04 Gerber Generator version 0.2*
G04 Scale: 100 percent, Rotated: No, Reflected: No *
G04 Dimensions in millimeters *
G04 leading zeros omitted , absolute positions ,4 integer and 5 decimal *
%FSLAX45Y45*%
%MOMM*%

%AMMACRO1*1,1,$1,$2,$3*1,1,$1,$4,$5*1,1,$1,0-$2,0-$3*1,1,$1,0-$4,0-$5*20,1,$1,$2,$3,$4,$5,0*20,1,$1,$4,$5,0-$2,0-$3,0*20,1,$1,0-$2,0-$3,0-$4,0-$5,0*20,1,$1,0-$4,0-$5,$2,$3,0*4,1,4,$2,$3,$4,$5,0-$2,0-$3,0-$4,0-$5,$2,$3,0*%
%AMMACRO2*4,1,4,-0.4508,-0.2508,-0.4508,0.2508,0.4509,0.2508,0.4509,-0.2508,-0.4508,-0.2508,0*%
%AMMACRO3*4,1,4,-0.4508,-0.2507,-0.4508,0.2507,0.4509,0.2507,0.4509,-0.2507,-0.4508,-0.2507,0*%
%AMMACRO4*4,1,4,-0.4509,-0.2508,-0.4509,0.2508,0.4508,0.2508,0.4508,-0.2508,-0.4509,-0.2508,0*%
%AMMACRO5*4,1,4,-0.4509,-0.2507,-0.4509,0.2507,0.4508,0.2507,0.4508,-0.2507,-0.4509,-0.2507,0*%
%ADD10MACRO1,0.1016X-0.2828X0.27X-0.2828X-0.27*%
%ADD11MACRO1,0.1016X0.2828X0.27X0.2828X-0.27*%
%ADD12MACRO1,0.1016X-0.2828X-0.27X0.2828X-0.27*%
%ADD13MACRO1,0.1016X-0.27X-0.2828X0.27X-0.2828*%
%ADD14MACRO1,0.1016X-0.27X0.2828X0.27X0.2828*%
%ADD15R,0.9017X0.9017*%
%ADD16R,0.5017X0.9017*%
%ADD17MACRO2*%
%ADD18MACRO3*%
%ADD19MACRO4*%
%ADD20MACRO5*%
%ADD21R,1.3015X1.3015*%
%ADD22R,0.6416X0.6673*%
%ADD23MACRO1,0.1016X-0.432X0.4X-0.432X-0.4*%
%ADD24MACRO1,0.1016X-0.35X-0.15X0.35X-0.15*%
%ADD25MACRO1,0.1016X-0.275X0.6549X-0.275X-0.6549*%
%ADD26MACRO1,0.1016X-0.7499X-0.325X0.7499X-0.325*%
%ADD27MACRO1,0.1016X-0.475X-0.225X0.475X-0.225*%
%ADD28MACRO1,0.1016X-1.725X2.175X-1.725X-2.175*%
%ADD29MACRO1,0.1016X0.2828X-0.27X0.2828X0.27*%
%ADD30MACRO1,0.1016X-0.2828X-0.27X-0.2828X0.27*%
%ADD31MACRO1,0.1016X0.27X-0.2828X0.27X0.2828*%
%ADD32MACRO1,0.1016X0.261X-0.3X0.261X0.3*%
%ADD33C,1.7257*%
%ADD34R,0.7516X1.3015*%
%ADD35MACRO1,0.1016X-0.5999X-0.325X0.5999X-0.325*%
%ADD36MACRO1,0.1016X0.2828X0.27X-0.2828X0.27*%
%ADD37O,2.2015958X1.2015978000000003*%
%ADD38O,1.9015964X1.2015978000000003*%

%LPD*%
D10*
G01*
X2710282Y-685800D03*
D11*
G01*
X2623717Y-685800D03*
D12*
G01*
X2438400Y-2692400D03*
G01*
X2336800Y-2692400D03*
D13*
G01*
X2184400Y-2649117D03*
D14*
G01*
X2184400Y-2735682D03*
D15*
G01*
X1103401Y-874801D03*
G01*
X2503398Y-874801D03*
G01*
X1103401Y-2274798D03*
G01*
X2503398Y-2274798D03*
D16*
G01*
X1208405Y-874801D03*
G01*
X1293393Y-874801D03*
G01*
X1378407Y-874801D03*
G01*
X1463395Y-874801D03*
G01*
X1548409Y-874801D03*
G01*
X1633397Y-874801D03*
G01*
X1718411Y-874801D03*
G01*
X1803400Y-874801D03*
G01*
X1888388Y-874801D03*
G01*
X1973402Y-874801D03*
G01*
X2058390Y-874801D03*
G01*
X2143404Y-874801D03*
G01*
X2228392Y-874801D03*
G01*
X2313406Y-874801D03*
G01*
X2398395Y-874801D03*
D17*
G01*
X2503398Y-979792D03*
G01*
X2503398Y-1064806D03*
G01*
X2503398Y-1149794D03*
G01*
X2503398Y-1234808D03*
G01*
X2503398Y-1319796D03*
D18*
G01*
X2503398Y-1404797D03*
D17*
G01*
X2503398Y-1489798D03*
D18*
G01*
X2503398Y-1574800D03*
D17*
G01*
X2503398Y-1659801D03*
D18*
G01*
X2503398Y-1744802D03*
D17*
G01*
X2503398Y-1829803D03*
G01*
X2503398Y-1914791D03*
G01*
X2503398Y-1999805D03*
G01*
X2503398Y-2084793D03*
G01*
X2503398Y-2169807D03*
D16*
G01*
X2398395Y-2274798D03*
G01*
X2313406Y-2274798D03*
G01*
X2228392Y-2274798D03*
G01*
X2143404Y-2274798D03*
G01*
X2058390Y-2274798D03*
G01*
X1973402Y-2274798D03*
G01*
X1888388Y-2274798D03*
G01*
X1803400Y-2274798D03*
G01*
X1718411Y-2274798D03*
G01*
X1633397Y-2274798D03*
G01*
X1548409Y-2274798D03*
G01*
X1463395Y-2274798D03*
G01*
X1378407Y-2274798D03*
G01*
X1293393Y-2274798D03*
G01*
X1208405Y-2274798D03*
D19*
G01*
X1103401Y-2169807D03*
G01*
X1103401Y-2084793D03*
G01*
X1103401Y-1999805D03*
G01*
X1103401Y-1914791D03*
G01*
X1103401Y-1829803D03*
D20*
G01*
X1103401Y-1744802D03*
D19*
G01*
X1103401Y-1659801D03*
D20*
G01*
X1103401Y-1574800D03*
D19*
G01*
X1103401Y-1489798D03*
D20*
G01*
X1103401Y-1404797D03*
D19*
G01*
X1103401Y-1319796D03*
G01*
X1103401Y-1234808D03*
G01*
X1103401Y-1149794D03*
G01*
X1103401Y-1064806D03*
G01*
X1103401Y-979792D03*
D21*
G01*
X1651000Y-1409801D03*
G01*
X1803400Y-1574800D03*
G01*
X1651000Y-1574800D03*
G01*
X1651000Y-1739798D03*
G01*
X1803400Y-1739798D03*
G01*
X1968398Y-1739798D03*
G01*
X1968398Y-1574800D03*
G01*
X1968398Y-1409801D03*
G01*
X1803400Y-1409801D03*
D22*
G01*
X5130800Y-2286000D03*
G01*
X5130800Y-2184400D03*
D23*
G01*
X5257812Y-2355999D03*
G01*
X5257812Y-2216000D03*
D13*
G01*
X5384800Y-2191917D03*
D14*
G01*
X5384800Y-2278482D03*
D12*
G01*
X4394200Y-1244600D03*
G01*
X4292600Y-1244600D03*
D24*
G01*
X4110990Y-1015212D03*
G01*
X4110990Y-965200D03*
G01*
X4110990Y-915187D03*
G01*
X4271009Y-915187D03*
G01*
X4271009Y-965200D03*
G01*
X4271009Y-1015212D03*
D25*
G01*
X4191000Y-965200D03*
D26*
G01*
X4606798Y-1257300D03*
G01*
X4606798Y-1130300D03*
G01*
X4606798Y-1003300D03*
G01*
X4606798Y-876300D03*
G01*
X5146802Y-876300D03*
G01*
X5146802Y-1003300D03*
G01*
X5146802Y-1130300D03*
G01*
X5146802Y-1257300D03*
D27*
G01*
X4588408Y-1943100D03*
G01*
X4588408Y-1816100D03*
G01*
X4588408Y-1689100D03*
G01*
X4588408Y-1562100D03*
G01*
X5368391Y-1562100D03*
G01*
X5368391Y-1689100D03*
G01*
X5368391Y-1816100D03*
G01*
X5368391Y-1943100D03*
D28*
G01*
X4978400Y-1752600D03*
D29*
G01*
X4350917Y-1447800D03*
D30*
G01*
X4437482Y-1447800D03*
D10*
G01*
X4970882Y-2463800D03*
D11*
G01*
X4884317Y-2463800D03*
D10*
G01*
X4970882Y-2260600D03*
D11*
G01*
X4884317Y-2260600D03*
D22*
G01*
X4013200Y-1338681D03*
G01*
X4013200Y-1252118D03*
G01*
X3835400Y-2743200D03*
G01*
X3835400Y-2641600D03*
D29*
G01*
X5697117Y-558800D03*
D30*
G01*
X5783682Y-558800D03*
D31*
G01*
X3733800Y-2641600D03*
G01*
X3733800Y-2743200D03*
D29*
G01*
X5646317Y-2844800D03*
D30*
G01*
X5732882Y-2844800D03*
D32*
G01*
X6023991Y-1690192D03*
G01*
X5941796Y-1690192D03*
G01*
X5941796Y-1510207D03*
G01*
X6023991Y-1510207D03*
G01*
X6023991Y-1600200D03*
D33*
G01*
X5816600Y-1600200D03*
D29*
G01*
X3258717Y-2794000D03*
D30*
G01*
X3345282Y-2794000D03*
D29*
G01*
X3055517Y-2794000D03*
D30*
G01*
X3142082Y-2794000D03*
D10*
G01*
X4970882Y-2362200D03*
D11*
G01*
X4884317Y-2362200D03*
D29*
G01*
X4020717Y-1600200D03*
D30*
G01*
X4107282Y-1600200D03*
D10*
G01*
X2735682Y-2794000D03*
D11*
G01*
X2649117Y-2794000D03*
D12*
G01*
X2438400Y-2794000D03*
G01*
X2336800Y-2794000D03*
D34*
G01*
X4094987Y-2307996D03*
G01*
X4287012Y-2307996D03*
G01*
X4191000Y-2518003D03*
D29*
G01*
X3284117Y-2692400D03*
D30*
G01*
X3370682Y-2692400D03*
D12*
G01*
X2946400Y-2794000D03*
G01*
X2844800Y-2794000D03*
D29*
G01*
X1912517Y-2692400D03*
D30*
G01*
X1999082Y-2692400D03*
D22*
G01*
X2540000Y-2794000D03*
G01*
X2540000Y-2692400D03*
D35*
G01*
X4111396Y-2001012D03*
G01*
X4111396Y-1808988D03*
G01*
X4321403Y-1905000D03*
D22*
G01*
X4013200Y-703681D03*
G01*
X4013200Y-617118D03*
D36*
G01*
X2667000Y-2692400D03*
G01*
X2768600Y-2692400D03*
D37*
G01*
X6829704Y-2083003D03*
G01*
X6829704Y-1218996D03*
D38*
G01*
X7247712Y-1218996D03*
G01*
X7247712Y-2083003D03*
M02*
