G04 Layer: BottomSilkscreenLayer*
G04 EasyEDA v6.5.39, 2023-12-11 18:00:09*
G04 fc83978cdc934b7da63e149a84a413c2,10*
G04 Gerber Generator version 0.2*
G04 Scale: 100 percent, Rotated: No, Reflected: No *
G04 Dimensions in millimeters *
G04 leading zeros omitted , absolute positions ,4 integer and 5 decimal *
%FSLAX45Y45*%
%MOMM*%

%ADD10C,0.1016*%
%ADD11C,0.1999*%
%ADD12C,0.2007*%
%ADD13C,0.2489*%

%LPD*%
G36*
X2116886Y-2654909D02*
G01*
X2111654Y-2655468D01*
X2107590Y-2657246D01*
X2104898Y-2660446D01*
X2103932Y-2665323D01*
X2108200Y-2665323D01*
X2108809Y-2662072D01*
X2110638Y-2659888D01*
X2113534Y-2658719D01*
X2117598Y-2658364D01*
X2124151Y-2658364D01*
X2124151Y-2672740D01*
X2117598Y-2672740D01*
X2113534Y-2672283D01*
X2110638Y-2670911D01*
X2108809Y-2668574D01*
X2108200Y-2665323D01*
X2103932Y-2665323D01*
X2104593Y-2669286D01*
X2106320Y-2672334D01*
X2109063Y-2674518D01*
X2112670Y-2675788D01*
X2102967Y-2692400D01*
X2107742Y-2692400D01*
X2117090Y-2676194D01*
X2124151Y-2676194D01*
X2124151Y-2692400D01*
X2128367Y-2692400D01*
X2128367Y-2654909D01*
G37*
G36*
X2084374Y-2654909D02*
G01*
X2084374Y-2688894D01*
X2076754Y-2688894D01*
X2076754Y-2692400D01*
X2096922Y-2692400D01*
X2096922Y-2688894D01*
X2088540Y-2688894D01*
X2088540Y-2660192D01*
X2095144Y-2660192D01*
X2095144Y-2657449D01*
X2090877Y-2656433D01*
X2087575Y-2654909D01*
G37*
G36*
X3335832Y-4291939D02*
G01*
X3329432Y-4293260D01*
X3324301Y-4297070D01*
X3320948Y-4303166D01*
X3319729Y-4311345D01*
X3320948Y-4319473D01*
X3324402Y-4325569D01*
X3329584Y-4329430D01*
X3336137Y-4330750D01*
X3339388Y-4330395D01*
X3342132Y-4329379D01*
X3344468Y-4327906D01*
X3346348Y-4326178D01*
X3344011Y-4323435D01*
X3342436Y-4324908D01*
X3340608Y-4326026D01*
X3338525Y-4326737D01*
X3336188Y-4326991D01*
X3331210Y-4325924D01*
X3327400Y-4322826D01*
X3324961Y-4317949D01*
X3324047Y-4311446D01*
X3324910Y-4304893D01*
X3327298Y-4299915D01*
X3331057Y-4296765D01*
X3336036Y-4295648D01*
X3338626Y-4295952D01*
X3340912Y-4296765D01*
X3342995Y-4298137D01*
X3344926Y-4299966D01*
X3347262Y-4297324D01*
X3344926Y-4295038D01*
X3342284Y-4293311D01*
X3339287Y-4292295D01*
G37*
G36*
X3307232Y-4292600D02*
G01*
X3307232Y-4330090D01*
X3311448Y-4330090D01*
X3311448Y-4292600D01*
G37*
G36*
X3353714Y-4292600D02*
G01*
X3353714Y-4296105D01*
X3362096Y-4296105D01*
X3362096Y-4324807D01*
X3355492Y-4324807D01*
X3355492Y-4327499D01*
X3359759Y-4328566D01*
X3363112Y-4330090D01*
X3366262Y-4330090D01*
X3366262Y-4296105D01*
X3373882Y-4296105D01*
X3373882Y-4292600D01*
G37*
G36*
X4512462Y-4279849D02*
G01*
X4509211Y-4280204D01*
X4506468Y-4281220D01*
X4504131Y-4282694D01*
X4502251Y-4284421D01*
X4504588Y-4287164D01*
X4506163Y-4285691D01*
X4507992Y-4284573D01*
X4510074Y-4283862D01*
X4512411Y-4283608D01*
X4517390Y-4284675D01*
X4521200Y-4287774D01*
X4523638Y-4292650D01*
X4524552Y-4299153D01*
X4523689Y-4305706D01*
X4521301Y-4310684D01*
X4517542Y-4313834D01*
X4512564Y-4314901D01*
X4509973Y-4314647D01*
X4507687Y-4313834D01*
X4505604Y-4312462D01*
X4503674Y-4310634D01*
X4501337Y-4313275D01*
X4503674Y-4315561D01*
X4506315Y-4317288D01*
X4509312Y-4318304D01*
X4512767Y-4318660D01*
X4519168Y-4317339D01*
X4524298Y-4313529D01*
X4527651Y-4307433D01*
X4528870Y-4299254D01*
X4527651Y-4291126D01*
X4524197Y-4285030D01*
X4519015Y-4281170D01*
G37*
G36*
X4537151Y-4280509D02*
G01*
X4537151Y-4318000D01*
X4541367Y-4318000D01*
X4541367Y-4280509D01*
G37*
G36*
X4475886Y-4280509D02*
G01*
X4475886Y-4284116D01*
X4490110Y-4284116D01*
X4491126Y-4295444D01*
X4488434Y-4294327D01*
X4486960Y-4293971D01*
X4485284Y-4293870D01*
X4480915Y-4294581D01*
X4477359Y-4296765D01*
X4474972Y-4300474D01*
X4474108Y-4305858D01*
X4475124Y-4311294D01*
X4477816Y-4315307D01*
X4481677Y-4317796D01*
X4486198Y-4318660D01*
X4490110Y-4318254D01*
X4493310Y-4317136D01*
X4495901Y-4315510D01*
X4497984Y-4313682D01*
X4495901Y-4310938D01*
X4494174Y-4312513D01*
X4492091Y-4313885D01*
X4489551Y-4314850D01*
X4486554Y-4315206D01*
X4483354Y-4314545D01*
X4480712Y-4312666D01*
X4478934Y-4309770D01*
X4478274Y-4305960D01*
X4478883Y-4302252D01*
X4480458Y-4299458D01*
X4482998Y-4297730D01*
X4486351Y-4297121D01*
X4488078Y-4297273D01*
X4489653Y-4297680D01*
X4492701Y-4299356D01*
X4494987Y-4297934D01*
X4493818Y-4280509D01*
G37*
G36*
X4083151Y-1574139D02*
G01*
X4076700Y-1575460D01*
X4071620Y-1579270D01*
X4068216Y-1585366D01*
X4067048Y-1593545D01*
X4068267Y-1601673D01*
X4071670Y-1607769D01*
X4076903Y-1611630D01*
X4083456Y-1612950D01*
X4086656Y-1612595D01*
X4089450Y-1611579D01*
X4091787Y-1610106D01*
X4093667Y-1608378D01*
X4091279Y-1605635D01*
X4089704Y-1607108D01*
X4087926Y-1608226D01*
X4085844Y-1608937D01*
X4083507Y-1609191D01*
X4078528Y-1608124D01*
X4074718Y-1605026D01*
X4072229Y-1600149D01*
X4071365Y-1593646D01*
X4072229Y-1587093D01*
X4074617Y-1582115D01*
X4078376Y-1578965D01*
X4083354Y-1577848D01*
X4085945Y-1578152D01*
X4088231Y-1578965D01*
X4090314Y-1580337D01*
X4092194Y-1582166D01*
X4094581Y-1579524D01*
X4092244Y-1577238D01*
X4089603Y-1575511D01*
X4086555Y-1574495D01*
G37*
G36*
X4138015Y-1574139D02*
G01*
X4134002Y-1574546D01*
X4130751Y-1575714D01*
X4128160Y-1577340D01*
X4126128Y-1579270D01*
X4128262Y-1581962D01*
X4130040Y-1580337D01*
X4132173Y-1578965D01*
X4134713Y-1578000D01*
X4137761Y-1577594D01*
X4140911Y-1578102D01*
X4143349Y-1579575D01*
X4144975Y-1581861D01*
X4145584Y-1584909D01*
X4144924Y-1588058D01*
X4142892Y-1590548D01*
X4139234Y-1592122D01*
X4133697Y-1592681D01*
X4133697Y-1595932D01*
X4138625Y-1596542D01*
X4141927Y-1598066D01*
X4143705Y-1600454D01*
X4144264Y-1603349D01*
X4143806Y-1605940D01*
X4142486Y-1607870D01*
X4140403Y-1609140D01*
X4137710Y-1609598D01*
X4135475Y-1609293D01*
X4133392Y-1608531D01*
X4131513Y-1607312D01*
X4129786Y-1605838D01*
X4127500Y-1608531D01*
X4129684Y-1610309D01*
X4132072Y-1611680D01*
X4134815Y-1612646D01*
X4137863Y-1613001D01*
X4142079Y-1612341D01*
X4145483Y-1610563D01*
X4147718Y-1607616D01*
X4148480Y-1603705D01*
X4148023Y-1600504D01*
X4146651Y-1597914D01*
X4144518Y-1595932D01*
X4141774Y-1594561D01*
X4141774Y-1594358D01*
X4144873Y-1593138D01*
X4147413Y-1591106D01*
X4149140Y-1588312D01*
X4149801Y-1584807D01*
X4148836Y-1580337D01*
X4146346Y-1576984D01*
X4142587Y-1574850D01*
G37*
G36*
X4101033Y-1574800D02*
G01*
X4101033Y-1578305D01*
X4109415Y-1578305D01*
X4109415Y-1607007D01*
X4102811Y-1607007D01*
X4102811Y-1609699D01*
X4107078Y-1610766D01*
X4110380Y-1612290D01*
X4113580Y-1612290D01*
X4113580Y-1578305D01*
X4121200Y-1578305D01*
X4121200Y-1574800D01*
G37*
G36*
X4083151Y-1777339D02*
G01*
X4076700Y-1778660D01*
X4071620Y-1782470D01*
X4068216Y-1788566D01*
X4067048Y-1796745D01*
X4068267Y-1804873D01*
X4071670Y-1810969D01*
X4076903Y-1814830D01*
X4083456Y-1816150D01*
X4086656Y-1815795D01*
X4089450Y-1814779D01*
X4091787Y-1813306D01*
X4093667Y-1811578D01*
X4091279Y-1808835D01*
X4089704Y-1810308D01*
X4087926Y-1811426D01*
X4085844Y-1812137D01*
X4083507Y-1812391D01*
X4078528Y-1811324D01*
X4074718Y-1808225D01*
X4072229Y-1803349D01*
X4071365Y-1796846D01*
X4072229Y-1790293D01*
X4074617Y-1785315D01*
X4078376Y-1782165D01*
X4083354Y-1781048D01*
X4085945Y-1781352D01*
X4088231Y-1782165D01*
X4090314Y-1783537D01*
X4092194Y-1785366D01*
X4094581Y-1782724D01*
X4092244Y-1780438D01*
X4089603Y-1778711D01*
X4086555Y-1777695D01*
G37*
G36*
X4101033Y-1778000D02*
G01*
X4101033Y-1781505D01*
X4109415Y-1781505D01*
X4109415Y-1810207D01*
X4102811Y-1810207D01*
X4102811Y-1812899D01*
X4107078Y-1813966D01*
X4110380Y-1815490D01*
X4113580Y-1815490D01*
X4113580Y-1781505D01*
X4121200Y-1781505D01*
X4121200Y-1778000D01*
G37*
G36*
X4141978Y-1778000D02*
G01*
X4141978Y-1788464D01*
X4125569Y-1788464D01*
X4125569Y-1791157D01*
X4125967Y-1791766D01*
X4141978Y-1791766D01*
X4142282Y-1810613D01*
X4142028Y-1810613D01*
X4139082Y-1805178D01*
X4129989Y-1791766D01*
X4125967Y-1791766D01*
X4141470Y-1815490D01*
X4145940Y-1815490D01*
X4145940Y-1791766D01*
X4151071Y-1791766D01*
X4151071Y-1788464D01*
X4145940Y-1788464D01*
X4145940Y-1778000D01*
G37*
G36*
X4083151Y-1675739D02*
G01*
X4076700Y-1677060D01*
X4071620Y-1680870D01*
X4068216Y-1686966D01*
X4067048Y-1695145D01*
X4068267Y-1703273D01*
X4071670Y-1709369D01*
X4076903Y-1713230D01*
X4083456Y-1714550D01*
X4086656Y-1714195D01*
X4089450Y-1713179D01*
X4091787Y-1711706D01*
X4093667Y-1709978D01*
X4091279Y-1707235D01*
X4089704Y-1708708D01*
X4087926Y-1709826D01*
X4085844Y-1710537D01*
X4083507Y-1710791D01*
X4078528Y-1709724D01*
X4074718Y-1706625D01*
X4072229Y-1701749D01*
X4071365Y-1695246D01*
X4072229Y-1688693D01*
X4074617Y-1683715D01*
X4078376Y-1680565D01*
X4083354Y-1679448D01*
X4085945Y-1679752D01*
X4088231Y-1680565D01*
X4090314Y-1681937D01*
X4092194Y-1683766D01*
X4094581Y-1681124D01*
X4092244Y-1678838D01*
X4089603Y-1677111D01*
X4086555Y-1676095D01*
G37*
G36*
X4137863Y-1675739D02*
G01*
X4133900Y-1676146D01*
X4130700Y-1677263D01*
X4128109Y-1678889D01*
X4126026Y-1680718D01*
X4128109Y-1683461D01*
X4129836Y-1681886D01*
X4131919Y-1680514D01*
X4134459Y-1679549D01*
X4137507Y-1679193D01*
X4140657Y-1679854D01*
X4143298Y-1681734D01*
X4145076Y-1684629D01*
X4145737Y-1688439D01*
X4145178Y-1692148D01*
X4143552Y-1694942D01*
X4141012Y-1696669D01*
X4137710Y-1697278D01*
X4135932Y-1697126D01*
X4134358Y-1696720D01*
X4131360Y-1695043D01*
X4129024Y-1696466D01*
X4130192Y-1713890D01*
X4148124Y-1713890D01*
X4148124Y-1710283D01*
X4133900Y-1710283D01*
X4132884Y-1698955D01*
X4135577Y-1700072D01*
X4137050Y-1700428D01*
X4138726Y-1700530D01*
X4143095Y-1699818D01*
X4146651Y-1697634D01*
X4149039Y-1693925D01*
X4149953Y-1688541D01*
X4148937Y-1683105D01*
X4146194Y-1679092D01*
X4142333Y-1676603D01*
G37*
G36*
X4101033Y-1676400D02*
G01*
X4101033Y-1679905D01*
X4109415Y-1679905D01*
X4109415Y-1708607D01*
X4102811Y-1708607D01*
X4102811Y-1711299D01*
X4107078Y-1712366D01*
X4110380Y-1713890D01*
X4113580Y-1713890D01*
X4113580Y-1679905D01*
X4121200Y-1679905D01*
X4121200Y-1676400D01*
G37*
G36*
X2825343Y-1689049D02*
G01*
X2822143Y-1689404D01*
X2819349Y-1690420D01*
X2817012Y-1691893D01*
X2815132Y-1693621D01*
X2817520Y-1696364D01*
X2819095Y-1694891D01*
X2820873Y-1693773D01*
X2822956Y-1693062D01*
X2825292Y-1692808D01*
X2830271Y-1693875D01*
X2834081Y-1696974D01*
X2836570Y-1701850D01*
X2837434Y-1708353D01*
X2836570Y-1714906D01*
X2834182Y-1719884D01*
X2830423Y-1723034D01*
X2825445Y-1724101D01*
X2822854Y-1723847D01*
X2820568Y-1723034D01*
X2818485Y-1721662D01*
X2816606Y-1719834D01*
X2814218Y-1722475D01*
X2816555Y-1724761D01*
X2819196Y-1726488D01*
X2822244Y-1727504D01*
X2825648Y-1727860D01*
X2832100Y-1726539D01*
X2837180Y-1722729D01*
X2840583Y-1716633D01*
X2841802Y-1708454D01*
X2840532Y-1700326D01*
X2837129Y-1694230D01*
X2831896Y-1690370D01*
G37*
G36*
X2767584Y-1689049D02*
G01*
X2764942Y-1689354D01*
X2762656Y-1690116D01*
X2760675Y-1691284D01*
X2759049Y-1692808D01*
X2761386Y-1695399D01*
X2762656Y-1694180D01*
X2764129Y-1693316D01*
X2765755Y-1692706D01*
X2767431Y-1692554D01*
X2771190Y-1693367D01*
X2774289Y-1696059D01*
X2776474Y-1700987D01*
X2777337Y-1708556D01*
X2775458Y-1706676D01*
X2773273Y-1705203D01*
X2770987Y-1704339D01*
X2768701Y-1703984D01*
X2764383Y-1704746D01*
X2761132Y-1706930D01*
X2759100Y-1710639D01*
X2758338Y-1715770D01*
X2762351Y-1715770D01*
X2762758Y-1712214D01*
X2764078Y-1709470D01*
X2766263Y-1707743D01*
X2769362Y-1707134D01*
X2771241Y-1707388D01*
X2773273Y-1708251D01*
X2775254Y-1709826D01*
X2777236Y-1712112D01*
X2776423Y-1717395D01*
X2774746Y-1721307D01*
X2772257Y-1723694D01*
X2768904Y-1724558D01*
X2766314Y-1723898D01*
X2764231Y-1722120D01*
X2762859Y-1719325D01*
X2762351Y-1715770D01*
X2758338Y-1715770D01*
X2759202Y-1720697D01*
X2761488Y-1724507D01*
X2764840Y-1726996D01*
X2768904Y-1727860D01*
X2773883Y-1726692D01*
X2777794Y-1723186D01*
X2780385Y-1717446D01*
X2781300Y-1709369D01*
X2780182Y-1699971D01*
X2777134Y-1693672D01*
X2772765Y-1690166D01*
G37*
G36*
X2795219Y-1689709D02*
G01*
X2795219Y-1723694D01*
X2787599Y-1723694D01*
X2787599Y-1727200D01*
X2807766Y-1727200D01*
X2807766Y-1723694D01*
X2799384Y-1723694D01*
X2799384Y-1694992D01*
X2805988Y-1694992D01*
X2805988Y-1692249D01*
X2801721Y-1691233D01*
X2798419Y-1689709D01*
G37*
G36*
X2805430Y-1933549D02*
G01*
X2800502Y-1934413D01*
X2796692Y-1936699D01*
X2794203Y-1940052D01*
X2793339Y-1944116D01*
X2796641Y-1944116D01*
X2797302Y-1941525D01*
X2799080Y-1939442D01*
X2801874Y-1938070D01*
X2805430Y-1937562D01*
X2808986Y-1937969D01*
X2811729Y-1939289D01*
X2813456Y-1941474D01*
X2814066Y-1944573D01*
X2813812Y-1946452D01*
X2812948Y-1948484D01*
X2811373Y-1950516D01*
X2809087Y-1952447D01*
X2803804Y-1951634D01*
X2799892Y-1949957D01*
X2797505Y-1947468D01*
X2796641Y-1944116D01*
X2793339Y-1944116D01*
X2794508Y-1949094D01*
X2798013Y-1953006D01*
X2803753Y-1955596D01*
X2811830Y-1956511D01*
X2821228Y-1955393D01*
X2827528Y-1952345D01*
X2831033Y-1947976D01*
X2832150Y-1942795D01*
X2831846Y-1940153D01*
X2831084Y-1937867D01*
X2829915Y-1935937D01*
X2828391Y-1934260D01*
X2825800Y-1936597D01*
X2827020Y-1937867D01*
X2827883Y-1939340D01*
X2828493Y-1940966D01*
X2828645Y-1942642D01*
X2827832Y-1946402D01*
X2825140Y-1949500D01*
X2820212Y-1951685D01*
X2812643Y-1952548D01*
X2814523Y-1950669D01*
X2815996Y-1948484D01*
X2816860Y-1946198D01*
X2817215Y-1943912D01*
X2816453Y-1939645D01*
X2814269Y-1936343D01*
X2810560Y-1934311D01*
G37*
G36*
X2798724Y-1961337D02*
G01*
X2796438Y-1963674D01*
X2794711Y-1966315D01*
X2793695Y-1969312D01*
X2793339Y-1972767D01*
X2794660Y-1979168D01*
X2798470Y-1984298D01*
X2804566Y-1987651D01*
X2812745Y-1988870D01*
X2820873Y-1987651D01*
X2826969Y-1984197D01*
X2830830Y-1979015D01*
X2832150Y-1972462D01*
X2831795Y-1969211D01*
X2830779Y-1966468D01*
X2829306Y-1964131D01*
X2827578Y-1962251D01*
X2824835Y-1964588D01*
X2826308Y-1966163D01*
X2827426Y-1967992D01*
X2828137Y-1970074D01*
X2828391Y-1972411D01*
X2827324Y-1977389D01*
X2824226Y-1981200D01*
X2819349Y-1983638D01*
X2812846Y-1984552D01*
X2806293Y-1983689D01*
X2801315Y-1981301D01*
X2798165Y-1977542D01*
X2797098Y-1972564D01*
X2797352Y-1969973D01*
X2798165Y-1967687D01*
X2799537Y-1965604D01*
X2801366Y-1963674D01*
G37*
G36*
X2794000Y-1997100D02*
G01*
X2794000Y-2001367D01*
X2831490Y-2001367D01*
X2831490Y-1997100D01*
G37*
G36*
X3521100Y-1664309D02*
G01*
X3521100Y-1698193D01*
X3504590Y-1698193D01*
X3504590Y-1701800D01*
X3525367Y-1701800D01*
X3525367Y-1664309D01*
G37*
G36*
X3486048Y-1664309D02*
G01*
X3486048Y-1698294D01*
X3478428Y-1698294D01*
X3478428Y-1701800D01*
X3498596Y-1701800D01*
X3498596Y-1698294D01*
X3490163Y-1698294D01*
X3490163Y-1669592D01*
X3496767Y-1669592D01*
X3496767Y-1666849D01*
X3492500Y-1665833D01*
X3489198Y-1664309D01*
G37*
G36*
X2771292Y-1485798D02*
G01*
X2767076Y-1486458D01*
X2763672Y-1488236D01*
X2761488Y-1491183D01*
X2760675Y-1495094D01*
X2761132Y-1498295D01*
X2762504Y-1500886D01*
X2764637Y-1502867D01*
X2767380Y-1504238D01*
X2767380Y-1504442D01*
X2764282Y-1505661D01*
X2761742Y-1507693D01*
X2760014Y-1510487D01*
X2759405Y-1513992D01*
X2760319Y-1518462D01*
X2762808Y-1521815D01*
X2766568Y-1523949D01*
X2771140Y-1524660D01*
X2775153Y-1524254D01*
X2778404Y-1523085D01*
X2780995Y-1521460D01*
X2783027Y-1519529D01*
X2780893Y-1516837D01*
X2779115Y-1518462D01*
X2776982Y-1519834D01*
X2774442Y-1520799D01*
X2771394Y-1521206D01*
X2768295Y-1520698D01*
X2765806Y-1519224D01*
X2764180Y-1516938D01*
X2763570Y-1513890D01*
X2764231Y-1510741D01*
X2766263Y-1508252D01*
X2769920Y-1506677D01*
X2775458Y-1506118D01*
X2775458Y-1502867D01*
X2770530Y-1502257D01*
X2767228Y-1500733D01*
X2765450Y-1498346D01*
X2764891Y-1495399D01*
X2765348Y-1492859D01*
X2766669Y-1490929D01*
X2768752Y-1489659D01*
X2771444Y-1489151D01*
X2773680Y-1489506D01*
X2775762Y-1490268D01*
X2777693Y-1491488D01*
X2779369Y-1492961D01*
X2781655Y-1490268D01*
X2779471Y-1488490D01*
X2777083Y-1487119D01*
X2774340Y-1486154D01*
G37*
G36*
X2828086Y-1486509D02*
G01*
X2822854Y-1487068D01*
X2818790Y-1488846D01*
X2816098Y-1492046D01*
X2815132Y-1496923D01*
X2819400Y-1496923D01*
X2820009Y-1493672D01*
X2821838Y-1491488D01*
X2824734Y-1490319D01*
X2828798Y-1489964D01*
X2835351Y-1489964D01*
X2835351Y-1504340D01*
X2828798Y-1504340D01*
X2824734Y-1503883D01*
X2821838Y-1502511D01*
X2820009Y-1500174D01*
X2819400Y-1496923D01*
X2815132Y-1496923D01*
X2815793Y-1500886D01*
X2817520Y-1503934D01*
X2820263Y-1506118D01*
X2823870Y-1507388D01*
X2814167Y-1524000D01*
X2818942Y-1524000D01*
X2828290Y-1507794D01*
X2835351Y-1507794D01*
X2835351Y-1524000D01*
X2839567Y-1524000D01*
X2839567Y-1486509D01*
G37*
G36*
X2795574Y-1486509D02*
G01*
X2795574Y-1520494D01*
X2787954Y-1520494D01*
X2787954Y-1524000D01*
X2808122Y-1524000D01*
X2808122Y-1520494D01*
X2799740Y-1520494D01*
X2799740Y-1491792D01*
X2806344Y-1491792D01*
X2806344Y-1489049D01*
X2802077Y-1488033D01*
X2798775Y-1486509D01*
G37*
G36*
X2828086Y-1765909D02*
G01*
X2822854Y-1766468D01*
X2818790Y-1768246D01*
X2816098Y-1771446D01*
X2815132Y-1776323D01*
X2819400Y-1776323D01*
X2820009Y-1773072D01*
X2821838Y-1770888D01*
X2824734Y-1769719D01*
X2828798Y-1769364D01*
X2835351Y-1769364D01*
X2835351Y-1783740D01*
X2828798Y-1783740D01*
X2824734Y-1783283D01*
X2821838Y-1781911D01*
X2820009Y-1779574D01*
X2819400Y-1776323D01*
X2815132Y-1776323D01*
X2815793Y-1780286D01*
X2817520Y-1783334D01*
X2820263Y-1785518D01*
X2823870Y-1786788D01*
X2814167Y-1803400D01*
X2818942Y-1803400D01*
X2828290Y-1787194D01*
X2835351Y-1787194D01*
X2835351Y-1803400D01*
X2839567Y-1803400D01*
X2839567Y-1765909D01*
G37*
G36*
X2795574Y-1765909D02*
G01*
X2795574Y-1799894D01*
X2787954Y-1799894D01*
X2787954Y-1803400D01*
X2808122Y-1803400D01*
X2808122Y-1799894D01*
X2799740Y-1799894D01*
X2799740Y-1771192D01*
X2806344Y-1771192D01*
X2806344Y-1768449D01*
X2802077Y-1767433D01*
X2798775Y-1765909D01*
G37*
G36*
X2761030Y-1765909D02*
G01*
X2761030Y-1769516D01*
X2775254Y-1769516D01*
X2776270Y-1780844D01*
X2773578Y-1779727D01*
X2772105Y-1779371D01*
X2770428Y-1779270D01*
X2766060Y-1779981D01*
X2762504Y-1782165D01*
X2760116Y-1785874D01*
X2759252Y-1791258D01*
X2760268Y-1796694D01*
X2762961Y-1800707D01*
X2766822Y-1803196D01*
X2771292Y-1804060D01*
X2775254Y-1803654D01*
X2778455Y-1802536D01*
X2781046Y-1800910D01*
X2783128Y-1799082D01*
X2781046Y-1796338D01*
X2779318Y-1797913D01*
X2777236Y-1799285D01*
X2774696Y-1800250D01*
X2771698Y-1800606D01*
X2768498Y-1799945D01*
X2765856Y-1798066D01*
X2764078Y-1795170D01*
X2763418Y-1791360D01*
X2763977Y-1787652D01*
X2765602Y-1784857D01*
X2768142Y-1783130D01*
X2771444Y-1782521D01*
X2773222Y-1782673D01*
X2774797Y-1783080D01*
X2777794Y-1784756D01*
X2780131Y-1783334D01*
X2778963Y-1765909D01*
G37*
G36*
X2767939Y-1587449D02*
G01*
X2765298Y-1587754D01*
X2763012Y-1588516D01*
X2761081Y-1589684D01*
X2759405Y-1591208D01*
X2761742Y-1593799D01*
X2763012Y-1592580D01*
X2764485Y-1591716D01*
X2766110Y-1591106D01*
X2767787Y-1590954D01*
X2771546Y-1591767D01*
X2774645Y-1594459D01*
X2776829Y-1599387D01*
X2777693Y-1606956D01*
X2775813Y-1605076D01*
X2773629Y-1603603D01*
X2771343Y-1602740D01*
X2769057Y-1602384D01*
X2764790Y-1603146D01*
X2761488Y-1605330D01*
X2759456Y-1609039D01*
X2758694Y-1614170D01*
X2762707Y-1614170D01*
X2763113Y-1610614D01*
X2764434Y-1607870D01*
X2766618Y-1606143D01*
X2769717Y-1605534D01*
X2771597Y-1605788D01*
X2773629Y-1606651D01*
X2775661Y-1608226D01*
X2777591Y-1610512D01*
X2776778Y-1615795D01*
X2775102Y-1619707D01*
X2772613Y-1622094D01*
X2769260Y-1622958D01*
X2766669Y-1622298D01*
X2764586Y-1620520D01*
X2763215Y-1617726D01*
X2762707Y-1614170D01*
X2758694Y-1614170D01*
X2759557Y-1619097D01*
X2761843Y-1622907D01*
X2765196Y-1625396D01*
X2769260Y-1626260D01*
X2774238Y-1625092D01*
X2778150Y-1621586D01*
X2780741Y-1615846D01*
X2781655Y-1607769D01*
X2780538Y-1598371D01*
X2777490Y-1592072D01*
X2773121Y-1588566D01*
G37*
G36*
X2828086Y-1588109D02*
G01*
X2822854Y-1588668D01*
X2818790Y-1590446D01*
X2816098Y-1593646D01*
X2815132Y-1598523D01*
X2819400Y-1598523D01*
X2820009Y-1595272D01*
X2821838Y-1593088D01*
X2824734Y-1591919D01*
X2828798Y-1591564D01*
X2835351Y-1591564D01*
X2835351Y-1605940D01*
X2828798Y-1605940D01*
X2824734Y-1605483D01*
X2821838Y-1604111D01*
X2820009Y-1601774D01*
X2819400Y-1598523D01*
X2815132Y-1598523D01*
X2815793Y-1602486D01*
X2817520Y-1605534D01*
X2820263Y-1607718D01*
X2823870Y-1608988D01*
X2814167Y-1625600D01*
X2818942Y-1625600D01*
X2828290Y-1609394D01*
X2835351Y-1609394D01*
X2835351Y-1625600D01*
X2839567Y-1625600D01*
X2839567Y-1588109D01*
G37*
G36*
X2795574Y-1588109D02*
G01*
X2795574Y-1622094D01*
X2787954Y-1622094D01*
X2787954Y-1625600D01*
X2808122Y-1625600D01*
X2808122Y-1622094D01*
X2799740Y-1622094D01*
X2799740Y-1593392D01*
X2806344Y-1593392D01*
X2806344Y-1590649D01*
X2802077Y-1589633D01*
X2798775Y-1588109D01*
G37*
G36*
X4299153Y-2019249D02*
G01*
X4292752Y-2020570D01*
X4287723Y-2024380D01*
X4284472Y-2030475D01*
X4283303Y-2038502D01*
X4287621Y-2038502D01*
X4288434Y-2032050D01*
X4290771Y-2027174D01*
X4294428Y-2024075D01*
X4299153Y-2023008D01*
X4303877Y-2024075D01*
X4307484Y-2027174D01*
X4309821Y-2032050D01*
X4310634Y-2038502D01*
X4309821Y-2045157D01*
X4307484Y-2050186D01*
X4303877Y-2053386D01*
X4299153Y-2054555D01*
X4294428Y-2053386D01*
X4290771Y-2050186D01*
X4288434Y-2045157D01*
X4287621Y-2038502D01*
X4283303Y-2038502D01*
X4284268Y-2045970D01*
X4287012Y-2051812D01*
X4291228Y-2055875D01*
X4296714Y-2057857D01*
X4295089Y-2060143D01*
X4292955Y-2061768D01*
X4290314Y-2062734D01*
X4287316Y-2063089D01*
X4285132Y-2062937D01*
X4283456Y-2062581D01*
X4282592Y-2065883D01*
X4284776Y-2066442D01*
X4287774Y-2066645D01*
X4292447Y-2066036D01*
X4296308Y-2064207D01*
X4299254Y-2061413D01*
X4301236Y-2057907D01*
X4306824Y-2055977D01*
X4311192Y-2051964D01*
X4313986Y-2046071D01*
X4315002Y-2038502D01*
X4313783Y-2030475D01*
X4310532Y-2024380D01*
X4305554Y-2020570D01*
G37*
G36*
X4263136Y-2019909D02*
G01*
X4263136Y-2053894D01*
X4255516Y-2053894D01*
X4255516Y-2057400D01*
X4275683Y-2057400D01*
X4275683Y-2053894D01*
X4267301Y-2053894D01*
X4267301Y-2025192D01*
X4273905Y-2025192D01*
X4273905Y-2022449D01*
X4269638Y-2021433D01*
X4266336Y-2019909D01*
G37*
G36*
X4299153Y-2400249D02*
G01*
X4292752Y-2401570D01*
X4287723Y-2405380D01*
X4284472Y-2411476D01*
X4283303Y-2419502D01*
X4287621Y-2419502D01*
X4288434Y-2413050D01*
X4290771Y-2408174D01*
X4294428Y-2405075D01*
X4299153Y-2404008D01*
X4303877Y-2405075D01*
X4307484Y-2408174D01*
X4309821Y-2413050D01*
X4310634Y-2419502D01*
X4309821Y-2426157D01*
X4307484Y-2431186D01*
X4303877Y-2434386D01*
X4299153Y-2435555D01*
X4294428Y-2434386D01*
X4290771Y-2431186D01*
X4288434Y-2426157D01*
X4287621Y-2419502D01*
X4283303Y-2419502D01*
X4284268Y-2426970D01*
X4287012Y-2432812D01*
X4291228Y-2436876D01*
X4296714Y-2438857D01*
X4295089Y-2441143D01*
X4292955Y-2442768D01*
X4290314Y-2443734D01*
X4287316Y-2444089D01*
X4285132Y-2443937D01*
X4283456Y-2443581D01*
X4282592Y-2446883D01*
X4284776Y-2447442D01*
X4287774Y-2447645D01*
X4292447Y-2447036D01*
X4296308Y-2445207D01*
X4299254Y-2442413D01*
X4301236Y-2438908D01*
X4306824Y-2436977D01*
X4311192Y-2432964D01*
X4313986Y-2427071D01*
X4315002Y-2419502D01*
X4313783Y-2411476D01*
X4310532Y-2405380D01*
X4305554Y-2401570D01*
G37*
G36*
X4267301Y-2400249D02*
G01*
X4262831Y-2401011D01*
X4259427Y-2403246D01*
X4257294Y-2406700D01*
X4256532Y-2411222D01*
X4257598Y-2416911D01*
X4260646Y-2422804D01*
X4265422Y-2428798D01*
X4271670Y-2435098D01*
X4266996Y-2434844D01*
X4254754Y-2434793D01*
X4254754Y-2438400D01*
X4277969Y-2438400D01*
X4277969Y-2435910D01*
X4270197Y-2428544D01*
X4264812Y-2422144D01*
X4261662Y-2416454D01*
X4260646Y-2411374D01*
X4261104Y-2408275D01*
X4262374Y-2405837D01*
X4264609Y-2404211D01*
X4267758Y-2403652D01*
X4270044Y-2403957D01*
X4272127Y-2404922D01*
X4274058Y-2406345D01*
X4275734Y-2408072D01*
X4278223Y-2405735D01*
X4275886Y-2403500D01*
X4273346Y-2401773D01*
X4270552Y-2400655D01*
G37*
G36*
X81940Y-1562049D02*
G01*
X77470Y-1562811D01*
X74066Y-1565046D01*
X71932Y-1568500D01*
X71170Y-1573022D01*
X72237Y-1578711D01*
X75285Y-1584604D01*
X80060Y-1590598D01*
X86309Y-1596898D01*
X81635Y-1596644D01*
X69392Y-1596593D01*
X69392Y-1600200D01*
X92608Y-1600200D01*
X92608Y-1597710D01*
X84836Y-1590344D01*
X79451Y-1583944D01*
X76301Y-1578254D01*
X75285Y-1573174D01*
X75692Y-1570075D01*
X77012Y-1567637D01*
X79248Y-1566011D01*
X82397Y-1565452D01*
X84683Y-1565757D01*
X86766Y-1566722D01*
X88646Y-1568145D01*
X90373Y-1569872D01*
X92862Y-1567535D01*
X90525Y-1565300D01*
X87985Y-1563573D01*
X85191Y-1562455D01*
G37*
G36*
X110286Y-1562709D02*
G01*
X105054Y-1563268D01*
X100990Y-1565046D01*
X98298Y-1568246D01*
X97332Y-1573123D01*
X101600Y-1573123D01*
X102209Y-1569872D01*
X104038Y-1567688D01*
X106933Y-1566519D01*
X110998Y-1566164D01*
X117551Y-1566164D01*
X117551Y-1580540D01*
X110998Y-1580540D01*
X106933Y-1580083D01*
X104038Y-1578711D01*
X102209Y-1576374D01*
X101600Y-1573123D01*
X97332Y-1573123D01*
X97993Y-1577086D01*
X99720Y-1580134D01*
X102463Y-1582318D01*
X106070Y-1583588D01*
X96367Y-1600200D01*
X101142Y-1600200D01*
X110489Y-1583994D01*
X117551Y-1583994D01*
X117551Y-1600200D01*
X121767Y-1600200D01*
X121767Y-1562709D01*
G37*
G36*
X81635Y-1663598D02*
G01*
X77368Y-1664258D01*
X74015Y-1666036D01*
X71780Y-1668983D01*
X70967Y-1672894D01*
X71475Y-1676095D01*
X72847Y-1678686D01*
X74930Y-1680667D01*
X77673Y-1682038D01*
X77673Y-1682242D01*
X74574Y-1683461D01*
X72034Y-1685493D01*
X70307Y-1688287D01*
X69697Y-1691792D01*
X70612Y-1696262D01*
X73152Y-1699615D01*
X76860Y-1701749D01*
X81483Y-1702460D01*
X85445Y-1702054D01*
X88696Y-1700885D01*
X91287Y-1699260D01*
X93370Y-1697329D01*
X91186Y-1694637D01*
X89408Y-1696262D01*
X87325Y-1697634D01*
X84785Y-1698599D01*
X81737Y-1699006D01*
X78587Y-1698498D01*
X76098Y-1697024D01*
X74472Y-1694738D01*
X73914Y-1691690D01*
X74523Y-1688541D01*
X76555Y-1686052D01*
X80264Y-1684477D01*
X85801Y-1683918D01*
X85801Y-1680667D01*
X80822Y-1680057D01*
X77571Y-1678533D01*
X75793Y-1676146D01*
X75234Y-1673199D01*
X75692Y-1670659D01*
X77012Y-1668729D01*
X79044Y-1667459D01*
X81788Y-1666951D01*
X84023Y-1667306D01*
X86106Y-1668068D01*
X87985Y-1669288D01*
X89662Y-1670761D01*
X91998Y-1668068D01*
X89814Y-1666290D01*
X87376Y-1664919D01*
X84683Y-1663954D01*
G37*
G36*
X110286Y-1664309D02*
G01*
X105054Y-1664868D01*
X100990Y-1666646D01*
X98298Y-1669846D01*
X97332Y-1674723D01*
X101600Y-1674723D01*
X102209Y-1671472D01*
X104038Y-1669288D01*
X106933Y-1668119D01*
X110998Y-1667764D01*
X117551Y-1667764D01*
X117551Y-1682140D01*
X110998Y-1682140D01*
X106933Y-1681683D01*
X104038Y-1680311D01*
X102209Y-1677974D01*
X101600Y-1674723D01*
X97332Y-1674723D01*
X97993Y-1678686D01*
X99720Y-1681734D01*
X102463Y-1683918D01*
X106070Y-1685188D01*
X96367Y-1701800D01*
X101142Y-1701800D01*
X110489Y-1685594D01*
X117551Y-1685594D01*
X117551Y-1701800D01*
X121767Y-1701800D01*
X121767Y-1664309D01*
G37*
G36*
X110286Y-1867509D02*
G01*
X105054Y-1868068D01*
X100990Y-1869846D01*
X98298Y-1873046D01*
X97332Y-1877923D01*
X101600Y-1877923D01*
X102209Y-1874672D01*
X104038Y-1872488D01*
X106933Y-1871319D01*
X110998Y-1870964D01*
X117551Y-1870964D01*
X117551Y-1885340D01*
X110998Y-1885340D01*
X106933Y-1884883D01*
X104038Y-1883511D01*
X102209Y-1881174D01*
X101600Y-1877923D01*
X97332Y-1877923D01*
X97993Y-1881886D01*
X99720Y-1884934D01*
X102463Y-1887118D01*
X106070Y-1888388D01*
X96367Y-1905000D01*
X101142Y-1905000D01*
X110489Y-1888794D01*
X117551Y-1888794D01*
X117551Y-1905000D01*
X121767Y-1905000D01*
X121767Y-1867509D01*
G37*
G36*
X73558Y-1867509D02*
G01*
X73558Y-1872386D01*
X77419Y-1872386D01*
X80416Y-1877822D01*
X89458Y-1891233D01*
X77470Y-1891233D01*
X77368Y-1875688D01*
X77165Y-1872386D01*
X73558Y-1872386D01*
X73558Y-1891233D01*
X68427Y-1891233D01*
X68427Y-1894535D01*
X73558Y-1894535D01*
X73558Y-1905000D01*
X77470Y-1905000D01*
X77470Y-1894535D01*
X93929Y-1894535D01*
X93929Y-1891842D01*
X77978Y-1867509D01*
G37*
G36*
X4946751Y-2920339D02*
G01*
X4940300Y-2921660D01*
X4935220Y-2925470D01*
X4931816Y-2931566D01*
X4930648Y-2939745D01*
X4931867Y-2947873D01*
X4935270Y-2953969D01*
X4940503Y-2957830D01*
X4947056Y-2959150D01*
X4950256Y-2958795D01*
X4953050Y-2957779D01*
X4955387Y-2956306D01*
X4957267Y-2954578D01*
X4954879Y-2951835D01*
X4953304Y-2953308D01*
X4951526Y-2954426D01*
X4949444Y-2955137D01*
X4947107Y-2955391D01*
X4942128Y-2954324D01*
X4938318Y-2951226D01*
X4935829Y-2946349D01*
X4934966Y-2939846D01*
X4935829Y-2933293D01*
X4938217Y-2928315D01*
X4941976Y-2925165D01*
X4946954Y-2924048D01*
X4949545Y-2924352D01*
X4951831Y-2925165D01*
X4953914Y-2926537D01*
X4955794Y-2928366D01*
X4958181Y-2925724D01*
X4955844Y-2923438D01*
X4953203Y-2921711D01*
X4950155Y-2920695D01*
G37*
G36*
X4974234Y-2920339D02*
G01*
X4969510Y-2921101D01*
X4965750Y-2923133D01*
X4963261Y-2926334D01*
X4962400Y-2930601D01*
X4966157Y-2930601D01*
X4966766Y-2927756D01*
X4968494Y-2925521D01*
X4971084Y-2923997D01*
X4974285Y-2923438D01*
X4977384Y-2923946D01*
X4979771Y-2925318D01*
X4981295Y-2927451D01*
X4981854Y-2930042D01*
X4980990Y-2933446D01*
X4978755Y-2935884D01*
X4975504Y-2937764D01*
X4971592Y-2939440D01*
X4969408Y-2937764D01*
X4967681Y-2935681D01*
X4966563Y-2933293D01*
X4966157Y-2930601D01*
X4962400Y-2930601D01*
X4962956Y-2933801D01*
X4964582Y-2936748D01*
X4966817Y-2939034D01*
X4969357Y-2940761D01*
X4969357Y-2940964D01*
X4967376Y-2942539D01*
X4965801Y-2944469D01*
X4964684Y-2946806D01*
X4964277Y-2949549D01*
X4968087Y-2949549D01*
X4968849Y-2946552D01*
X4970780Y-2944266D01*
X4973574Y-2942590D01*
X4976825Y-2941167D01*
X4978552Y-2942945D01*
X4979873Y-2944825D01*
X4980635Y-2946857D01*
X4980889Y-2948940D01*
X4980482Y-2951632D01*
X4979162Y-2953816D01*
X4977079Y-2955340D01*
X4974234Y-2955848D01*
X4971796Y-2955391D01*
X4969865Y-2954121D01*
X4968595Y-2952140D01*
X4968087Y-2949549D01*
X4964277Y-2949549D01*
X4965039Y-2953410D01*
X4967173Y-2956407D01*
X4970373Y-2958338D01*
X4974336Y-2959049D01*
X4978603Y-2958287D01*
X4981854Y-2956255D01*
X4983835Y-2953105D01*
X4984546Y-2949143D01*
X4984038Y-2946298D01*
X4982819Y-2943758D01*
X4981194Y-2941675D01*
X4979466Y-2940050D01*
X4979466Y-2939796D01*
X4981854Y-2938170D01*
X4983886Y-2936087D01*
X4985308Y-2933395D01*
X4985816Y-2929940D01*
X4985004Y-2926181D01*
X4982616Y-2923133D01*
X4978958Y-2921101D01*
G37*
G36*
X4946751Y-2818739D02*
G01*
X4940300Y-2820060D01*
X4935220Y-2823870D01*
X4931816Y-2829966D01*
X4930648Y-2838145D01*
X4931867Y-2846273D01*
X4935270Y-2852369D01*
X4940503Y-2856230D01*
X4947056Y-2857550D01*
X4950256Y-2857195D01*
X4953050Y-2856179D01*
X4955387Y-2854706D01*
X4957267Y-2852978D01*
X4954879Y-2850235D01*
X4953304Y-2851708D01*
X4951526Y-2852826D01*
X4949444Y-2853537D01*
X4947107Y-2853791D01*
X4942128Y-2852724D01*
X4938318Y-2849626D01*
X4935829Y-2844749D01*
X4934966Y-2838246D01*
X4935829Y-2831693D01*
X4938217Y-2826715D01*
X4941976Y-2823565D01*
X4946954Y-2822448D01*
X4949545Y-2822752D01*
X4951831Y-2823565D01*
X4953914Y-2824937D01*
X4955794Y-2826766D01*
X4958181Y-2824124D01*
X4955844Y-2821838D01*
X4953203Y-2820111D01*
X4950155Y-2819095D01*
G37*
G36*
X4971897Y-2818739D02*
G01*
X4969154Y-2818993D01*
X4966766Y-2819806D01*
X4964785Y-2820974D01*
X4963109Y-2822448D01*
X4965395Y-2825089D01*
X4966716Y-2823870D01*
X4968290Y-2822956D01*
X4969967Y-2822397D01*
X4971796Y-2822194D01*
X4975301Y-2823057D01*
X4978298Y-2825800D01*
X4980432Y-2830830D01*
X4981397Y-2838450D01*
X4979517Y-2836519D01*
X4977384Y-2834995D01*
X4975047Y-2834030D01*
X4972608Y-2833674D01*
X4968392Y-2834436D01*
X4965141Y-2836672D01*
X4963109Y-2840380D01*
X4962347Y-2845460D01*
X4966360Y-2845460D01*
X4966766Y-2841955D01*
X4968087Y-2839212D01*
X4970221Y-2837434D01*
X4973269Y-2836824D01*
X4975250Y-2837078D01*
X4977282Y-2837992D01*
X4979365Y-2839618D01*
X4981346Y-2842006D01*
X4980584Y-2847187D01*
X4978908Y-2851048D01*
X4976317Y-2853436D01*
X4972913Y-2854248D01*
X4970322Y-2853639D01*
X4968240Y-2851810D01*
X4966868Y-2849067D01*
X4966360Y-2845460D01*
X4962347Y-2845460D01*
X4963210Y-2850388D01*
X4965496Y-2854198D01*
X4968849Y-2856687D01*
X4972913Y-2857550D01*
X4977892Y-2856433D01*
X4981854Y-2853131D01*
X4984445Y-2847594D01*
X4985359Y-2839872D01*
X4984242Y-2830118D01*
X4981244Y-2823565D01*
X4976926Y-2819857D01*
G37*
G36*
X1842109Y-716432D02*
G01*
X1842109Y-720648D01*
X1859940Y-720648D01*
X1859940Y-727202D01*
X1859483Y-731266D01*
X1858111Y-734161D01*
X1855774Y-735990D01*
X1852523Y-736600D01*
X1849272Y-735990D01*
X1847088Y-734161D01*
X1845919Y-731266D01*
X1845564Y-727202D01*
X1845564Y-720648D01*
X1842109Y-720648D01*
X1842109Y-727913D01*
X1842668Y-733145D01*
X1844446Y-737209D01*
X1847646Y-739902D01*
X1852523Y-740867D01*
X1856486Y-740206D01*
X1859534Y-738479D01*
X1861718Y-735736D01*
X1862988Y-732129D01*
X1879600Y-741832D01*
X1879600Y-737057D01*
X1863394Y-727710D01*
X1863394Y-720648D01*
X1879600Y-720648D01*
X1879600Y-716432D01*
G37*
G36*
X1842109Y-745794D02*
G01*
X1842109Y-769010D01*
X1844649Y-769010D01*
X1848815Y-766013D01*
X1852828Y-763625D01*
X1856841Y-761746D01*
X1860905Y-760374D01*
X1865122Y-759358D01*
X1869541Y-758647D01*
X1879600Y-757885D01*
X1879600Y-753567D01*
X1869643Y-754430D01*
X1861057Y-756361D01*
X1853285Y-759510D01*
X1845716Y-764184D01*
X1845716Y-745794D01*
G37*
G36*
X1740509Y-716432D02*
G01*
X1740509Y-720648D01*
X1758340Y-720648D01*
X1758340Y-727202D01*
X1757883Y-731266D01*
X1756511Y-734161D01*
X1754174Y-735990D01*
X1750923Y-736600D01*
X1747672Y-735990D01*
X1745488Y-734161D01*
X1744319Y-731266D01*
X1743964Y-727202D01*
X1743964Y-720648D01*
X1740509Y-720648D01*
X1740509Y-727913D01*
X1741068Y-733145D01*
X1742846Y-737209D01*
X1746046Y-739902D01*
X1750923Y-740867D01*
X1754886Y-740206D01*
X1757934Y-738479D01*
X1760118Y-735736D01*
X1761388Y-732129D01*
X1778000Y-741832D01*
X1778000Y-737057D01*
X1761794Y-727710D01*
X1761794Y-720648D01*
X1778000Y-720648D01*
X1778000Y-716432D01*
G37*
G36*
X1768703Y-745591D02*
G01*
X1765198Y-746201D01*
X1762252Y-747826D01*
X1759966Y-750062D01*
X1758238Y-752551D01*
X1758035Y-752551D01*
X1756460Y-750620D01*
X1754530Y-749046D01*
X1752193Y-747928D01*
X1749450Y-747522D01*
X1745589Y-748284D01*
X1742592Y-750417D01*
X1740662Y-753618D01*
X1739969Y-757478D01*
X1743151Y-757478D01*
X1743608Y-755040D01*
X1744878Y-753110D01*
X1746859Y-751789D01*
X1749450Y-751332D01*
X1752447Y-752094D01*
X1754733Y-754024D01*
X1755221Y-754837D01*
X1759559Y-754837D01*
X1761236Y-752652D01*
X1763318Y-750925D01*
X1765706Y-749808D01*
X1768398Y-749401D01*
X1771243Y-750011D01*
X1773478Y-751738D01*
X1775002Y-754329D01*
X1775561Y-757529D01*
X1775053Y-760628D01*
X1773682Y-763016D01*
X1771548Y-764540D01*
X1768957Y-765048D01*
X1765554Y-764235D01*
X1763115Y-762000D01*
X1761236Y-758698D01*
X1759559Y-754837D01*
X1755221Y-754837D01*
X1756410Y-756818D01*
X1757832Y-760069D01*
X1756054Y-761796D01*
X1754174Y-763117D01*
X1752142Y-763879D01*
X1750060Y-764133D01*
X1747367Y-763727D01*
X1745183Y-762406D01*
X1743659Y-760323D01*
X1743151Y-757478D01*
X1739950Y-757580D01*
X1740712Y-761847D01*
X1742744Y-765048D01*
X1745894Y-767080D01*
X1749856Y-767791D01*
X1752701Y-767283D01*
X1755241Y-766064D01*
X1757324Y-764438D01*
X1758950Y-762711D01*
X1759204Y-762711D01*
X1760829Y-765098D01*
X1762912Y-767130D01*
X1765604Y-768553D01*
X1769059Y-769061D01*
X1772818Y-768248D01*
X1775866Y-765860D01*
X1777898Y-762203D01*
X1778660Y-757478D01*
X1777898Y-752754D01*
X1775866Y-748995D01*
X1772666Y-746506D01*
G37*
G36*
X3460343Y-1130249D02*
G01*
X3457143Y-1130604D01*
X3454349Y-1131620D01*
X3452012Y-1133094D01*
X3450132Y-1134821D01*
X3452520Y-1137564D01*
X3454095Y-1136091D01*
X3455873Y-1134973D01*
X3457956Y-1134262D01*
X3460292Y-1134008D01*
X3465271Y-1135075D01*
X3469081Y-1138174D01*
X3471570Y-1143050D01*
X3472434Y-1149553D01*
X3471570Y-1156106D01*
X3469182Y-1161084D01*
X3465423Y-1164234D01*
X3460445Y-1165301D01*
X3457854Y-1165047D01*
X3455568Y-1164234D01*
X3453485Y-1162862D01*
X3451606Y-1161034D01*
X3449218Y-1163675D01*
X3451555Y-1165961D01*
X3454196Y-1167688D01*
X3457244Y-1168704D01*
X3460648Y-1169060D01*
X3467100Y-1167739D01*
X3472179Y-1163929D01*
X3475583Y-1157833D01*
X3476802Y-1149654D01*
X3475532Y-1141526D01*
X3472129Y-1135430D01*
X3466896Y-1131570D01*
G37*
G36*
X3426002Y-1130909D02*
G01*
X3426002Y-1135786D01*
X3429863Y-1135786D01*
X3432860Y-1141222D01*
X3441903Y-1154633D01*
X3429914Y-1154633D01*
X3429812Y-1139088D01*
X3429609Y-1135786D01*
X3426002Y-1135786D01*
X3426002Y-1154633D01*
X3420872Y-1154633D01*
X3420872Y-1157935D01*
X3426002Y-1157935D01*
X3426002Y-1168400D01*
X3429914Y-1168400D01*
X3429914Y-1157935D01*
X3446373Y-1157935D01*
X3446373Y-1155242D01*
X3430422Y-1130909D01*
G37*
G36*
X3511143Y-1409649D02*
G01*
X3507943Y-1410004D01*
X3505149Y-1411020D01*
X3502812Y-1412494D01*
X3500932Y-1414221D01*
X3503320Y-1416964D01*
X3504895Y-1415491D01*
X3506673Y-1414373D01*
X3508756Y-1413662D01*
X3511092Y-1413408D01*
X3516071Y-1414475D01*
X3519881Y-1417574D01*
X3522370Y-1422450D01*
X3523234Y-1428953D01*
X3522370Y-1435506D01*
X3519982Y-1440484D01*
X3516223Y-1443634D01*
X3511245Y-1444701D01*
X3508654Y-1444447D01*
X3506368Y-1443634D01*
X3504285Y-1442262D01*
X3502406Y-1440434D01*
X3500018Y-1443075D01*
X3502355Y-1445361D01*
X3504996Y-1447088D01*
X3508044Y-1448104D01*
X3511448Y-1448460D01*
X3517900Y-1447139D01*
X3522979Y-1443329D01*
X3526383Y-1437233D01*
X3527602Y-1429054D01*
X3526332Y-1420926D01*
X3522929Y-1414830D01*
X3517696Y-1410970D01*
G37*
G36*
X3474567Y-1410309D02*
G01*
X3474567Y-1413916D01*
X3488791Y-1413916D01*
X3489858Y-1425244D01*
X3487165Y-1424127D01*
X3485642Y-1423771D01*
X3484016Y-1423670D01*
X3479647Y-1424381D01*
X3476091Y-1426565D01*
X3473653Y-1430274D01*
X3472789Y-1435658D01*
X3473805Y-1441094D01*
X3476498Y-1445107D01*
X3480358Y-1447596D01*
X3484879Y-1448460D01*
X3488842Y-1448054D01*
X3492042Y-1446936D01*
X3494633Y-1445310D01*
X3496716Y-1443482D01*
X3494582Y-1440738D01*
X3492855Y-1442313D01*
X3490772Y-1443685D01*
X3488283Y-1444650D01*
X3485235Y-1445006D01*
X3482035Y-1444345D01*
X3479393Y-1442466D01*
X3477615Y-1439570D01*
X3477006Y-1435760D01*
X3477564Y-1432052D01*
X3479190Y-1429258D01*
X3481730Y-1427530D01*
X3485032Y-1426921D01*
X3486810Y-1427073D01*
X3488334Y-1427480D01*
X3491382Y-1429156D01*
X3493668Y-1427734D01*
X3492500Y-1410309D01*
G37*
G36*
X1185062Y-952449D02*
G01*
X1181811Y-952804D01*
X1179068Y-953820D01*
X1176731Y-955294D01*
X1174851Y-957021D01*
X1177188Y-959764D01*
X1178763Y-958291D01*
X1180592Y-957173D01*
X1182674Y-956462D01*
X1185011Y-956208D01*
X1189990Y-957275D01*
X1193800Y-960374D01*
X1196238Y-965250D01*
X1197152Y-971753D01*
X1196289Y-978306D01*
X1193901Y-983284D01*
X1190142Y-986434D01*
X1185164Y-987501D01*
X1182573Y-987247D01*
X1180287Y-986434D01*
X1178204Y-985062D01*
X1176274Y-983234D01*
X1173937Y-985875D01*
X1176274Y-988161D01*
X1178915Y-989888D01*
X1181912Y-990904D01*
X1185367Y-991260D01*
X1191768Y-989939D01*
X1196898Y-986129D01*
X1200251Y-980033D01*
X1201470Y-971854D01*
X1200251Y-963726D01*
X1196797Y-957630D01*
X1191615Y-953769D01*
G37*
G36*
X1159103Y-952449D02*
G01*
X1154582Y-953211D01*
X1151229Y-955446D01*
X1149045Y-958900D01*
X1148334Y-963421D01*
X1149400Y-969111D01*
X1152448Y-975004D01*
X1157224Y-980998D01*
X1163421Y-987298D01*
X1157274Y-986993D01*
X1146556Y-986993D01*
X1146556Y-990600D01*
X1169720Y-990600D01*
X1169720Y-988110D01*
X1161948Y-980744D01*
X1156563Y-974344D01*
X1153464Y-968654D01*
X1152448Y-963574D01*
X1152855Y-960475D01*
X1154176Y-958037D01*
X1156411Y-956411D01*
X1159560Y-955852D01*
X1161796Y-956157D01*
X1163878Y-957122D01*
X1165809Y-958545D01*
X1167536Y-960272D01*
X1169974Y-957935D01*
X1167688Y-955700D01*
X1165148Y-953973D01*
X1162304Y-952855D01*
G37*
G36*
X1209751Y-953109D02*
G01*
X1209751Y-990600D01*
X1213967Y-990600D01*
X1213967Y-953109D01*
G37*
G36*
X3460343Y-1231849D02*
G01*
X3457143Y-1232204D01*
X3454349Y-1233220D01*
X3452012Y-1234694D01*
X3450132Y-1236421D01*
X3452520Y-1239164D01*
X3454095Y-1237691D01*
X3455873Y-1236573D01*
X3457956Y-1235862D01*
X3460292Y-1235608D01*
X3465271Y-1236675D01*
X3469081Y-1239774D01*
X3471570Y-1244650D01*
X3472434Y-1251153D01*
X3471570Y-1257706D01*
X3469182Y-1262684D01*
X3465423Y-1265834D01*
X3460445Y-1266901D01*
X3457854Y-1266647D01*
X3455568Y-1265834D01*
X3453485Y-1264462D01*
X3451606Y-1262634D01*
X3449218Y-1265275D01*
X3451555Y-1267561D01*
X3454196Y-1269288D01*
X3457244Y-1270304D01*
X3460648Y-1270660D01*
X3467100Y-1269339D01*
X3472179Y-1265529D01*
X3475583Y-1259433D01*
X3476802Y-1251254D01*
X3475532Y-1243126D01*
X3472129Y-1237030D01*
X3466896Y-1233170D01*
G37*
G36*
X3430676Y-1231849D02*
G01*
X3428085Y-1232154D01*
X3425799Y-1232916D01*
X3423818Y-1234084D01*
X3422142Y-1235608D01*
X3424478Y-1238199D01*
X3425748Y-1236980D01*
X3427222Y-1236116D01*
X3428847Y-1235506D01*
X3430524Y-1235354D01*
X3434283Y-1236167D01*
X3437382Y-1238859D01*
X3439566Y-1243787D01*
X3440480Y-1251356D01*
X3438550Y-1249476D01*
X3436416Y-1248003D01*
X3434130Y-1247140D01*
X3431794Y-1246784D01*
X3427526Y-1247546D01*
X3424275Y-1249730D01*
X3422192Y-1253439D01*
X3421481Y-1258570D01*
X3425444Y-1258570D01*
X3425901Y-1255014D01*
X3427171Y-1252270D01*
X3429355Y-1250543D01*
X3432505Y-1249934D01*
X3434384Y-1250188D01*
X3436365Y-1251051D01*
X3438398Y-1252626D01*
X3440379Y-1254912D01*
X3439566Y-1260195D01*
X3437890Y-1264107D01*
X3435350Y-1266494D01*
X3432048Y-1267358D01*
X3429406Y-1266698D01*
X3427323Y-1264920D01*
X3425951Y-1262126D01*
X3425444Y-1258570D01*
X3421481Y-1258570D01*
X3422345Y-1263497D01*
X3424631Y-1267307D01*
X3427984Y-1269796D01*
X3432048Y-1270660D01*
X3437026Y-1269492D01*
X3440937Y-1265986D01*
X3443478Y-1260246D01*
X3444392Y-1252169D01*
X3443274Y-1242771D01*
X3440226Y-1236472D01*
X3435858Y-1232966D01*
G37*
G36*
X3511143Y-1460449D02*
G01*
X3507943Y-1460804D01*
X3505149Y-1461820D01*
X3502812Y-1463294D01*
X3500932Y-1465021D01*
X3503320Y-1467764D01*
X3504895Y-1466291D01*
X3506673Y-1465173D01*
X3508756Y-1464462D01*
X3511092Y-1464208D01*
X3516071Y-1465275D01*
X3519881Y-1468374D01*
X3522370Y-1473250D01*
X3523234Y-1479753D01*
X3522370Y-1486306D01*
X3519982Y-1491284D01*
X3516223Y-1494434D01*
X3511245Y-1495501D01*
X3508654Y-1495247D01*
X3506368Y-1494434D01*
X3504285Y-1493062D01*
X3502406Y-1491234D01*
X3500018Y-1493875D01*
X3502355Y-1496161D01*
X3504996Y-1497888D01*
X3508044Y-1498904D01*
X3511448Y-1499260D01*
X3517900Y-1497939D01*
X3522979Y-1494129D01*
X3526383Y-1488033D01*
X3527602Y-1479854D01*
X3526332Y-1471726D01*
X3522929Y-1465630D01*
X3517696Y-1461770D01*
G37*
G36*
X3472434Y-1461109D02*
G01*
X3472434Y-1463598D01*
X3475431Y-1467815D01*
X3477818Y-1471828D01*
X3479698Y-1475841D01*
X3481070Y-1479905D01*
X3482086Y-1484122D01*
X3482797Y-1488541D01*
X3483559Y-1498600D01*
X3487877Y-1498600D01*
X3487013Y-1488643D01*
X3485083Y-1480058D01*
X3481933Y-1472285D01*
X3477260Y-1464716D01*
X3495649Y-1464716D01*
X3495649Y-1461109D01*
G37*
G36*
X5375198Y-952398D02*
G01*
X5370931Y-953058D01*
X5367528Y-954836D01*
X5365343Y-957783D01*
X5364530Y-961694D01*
X5364988Y-964895D01*
X5366359Y-967486D01*
X5368493Y-969467D01*
X5371236Y-970838D01*
X5371236Y-971042D01*
X5368137Y-972261D01*
X5365597Y-974293D01*
X5363870Y-977087D01*
X5363260Y-980592D01*
X5364175Y-985062D01*
X5366664Y-988415D01*
X5370423Y-990549D01*
X5374995Y-991260D01*
X5379008Y-990853D01*
X5382260Y-989685D01*
X5384850Y-988060D01*
X5386882Y-986129D01*
X5384749Y-983437D01*
X5382971Y-985062D01*
X5380837Y-986434D01*
X5378348Y-987399D01*
X5375300Y-987806D01*
X5372150Y-987298D01*
X5369661Y-985824D01*
X5368036Y-983538D01*
X5367426Y-980490D01*
X5368086Y-977341D01*
X5370118Y-974852D01*
X5373776Y-973277D01*
X5379313Y-972718D01*
X5379313Y-969467D01*
X5374386Y-968857D01*
X5371084Y-967333D01*
X5369306Y-964946D01*
X5368798Y-961999D01*
X5369204Y-959459D01*
X5370525Y-957529D01*
X5372608Y-956259D01*
X5375351Y-955751D01*
X5377535Y-956106D01*
X5379618Y-956868D01*
X5381548Y-958087D01*
X5383225Y-959561D01*
X5385511Y-956868D01*
X5383326Y-955090D01*
X5380939Y-953719D01*
X5378196Y-952753D01*
G37*
G36*
X5401462Y-952449D02*
G01*
X5398211Y-952804D01*
X5395468Y-953820D01*
X5393131Y-955294D01*
X5391251Y-957021D01*
X5393588Y-959764D01*
X5395163Y-958291D01*
X5396992Y-957173D01*
X5399074Y-956462D01*
X5401411Y-956208D01*
X5406390Y-957275D01*
X5410200Y-960374D01*
X5412638Y-965250D01*
X5413552Y-971753D01*
X5412689Y-978306D01*
X5410301Y-983284D01*
X5406542Y-986434D01*
X5401564Y-987501D01*
X5398973Y-987247D01*
X5396687Y-986434D01*
X5394604Y-985062D01*
X5392674Y-983234D01*
X5390337Y-985875D01*
X5392674Y-988161D01*
X5395315Y-989888D01*
X5398312Y-990904D01*
X5401767Y-991260D01*
X5408168Y-989939D01*
X5413298Y-986129D01*
X5416651Y-980033D01*
X5417870Y-971854D01*
X5416651Y-963726D01*
X5413197Y-957630D01*
X5408015Y-953769D01*
G37*
G36*
X5426151Y-953109D02*
G01*
X5426151Y-990600D01*
X5430367Y-990600D01*
X5430367Y-953109D01*
G37*
G36*
X4685030Y-1770837D02*
G01*
X4680102Y-1771700D01*
X4676292Y-1773986D01*
X4673803Y-1777339D01*
X4672939Y-1781403D01*
X4676241Y-1781403D01*
X4676902Y-1778762D01*
X4678680Y-1776679D01*
X4681474Y-1775307D01*
X4685030Y-1774799D01*
X4688586Y-1775256D01*
X4691329Y-1776526D01*
X4693056Y-1778711D01*
X4693666Y-1781860D01*
X4693412Y-1783740D01*
X4692548Y-1785721D01*
X4690973Y-1787753D01*
X4688687Y-1789734D01*
X4683404Y-1788922D01*
X4679492Y-1787245D01*
X4677105Y-1784705D01*
X4676241Y-1781403D01*
X4672939Y-1781403D01*
X4674108Y-1786382D01*
X4677613Y-1790293D01*
X4683353Y-1792833D01*
X4691430Y-1793748D01*
X4700828Y-1792630D01*
X4707128Y-1789582D01*
X4710633Y-1785213D01*
X4711750Y-1780032D01*
X4711446Y-1777441D01*
X4710684Y-1775155D01*
X4709515Y-1773174D01*
X4707991Y-1771497D01*
X4705400Y-1773834D01*
X4706620Y-1775104D01*
X4708093Y-1778203D01*
X4708245Y-1779879D01*
X4707432Y-1783638D01*
X4704740Y-1786788D01*
X4699812Y-1788922D01*
X4692243Y-1789836D01*
X4694123Y-1787906D01*
X4695596Y-1785772D01*
X4696460Y-1783486D01*
X4696815Y-1781149D01*
X4696053Y-1776882D01*
X4693869Y-1773631D01*
X4690160Y-1771548D01*
G37*
G36*
X4673600Y-1798167D02*
G01*
X4673600Y-1802942D01*
X4689805Y-1812289D01*
X4689805Y-1819300D01*
X4693259Y-1819300D01*
X4693259Y-1812747D01*
X4693716Y-1808734D01*
X4695088Y-1805838D01*
X4697425Y-1804009D01*
X4700676Y-1803400D01*
X4703927Y-1804009D01*
X4706112Y-1805838D01*
X4707280Y-1808734D01*
X4707636Y-1812747D01*
X4707636Y-1819300D01*
X4673600Y-1819300D01*
X4673600Y-1823567D01*
X4711090Y-1823567D01*
X4711090Y-1812086D01*
X4710531Y-1806854D01*
X4708753Y-1802790D01*
X4705553Y-1800098D01*
X4700676Y-1799132D01*
X4696714Y-1799793D01*
X4693666Y-1801520D01*
X4691481Y-1804263D01*
X4690211Y-1807870D01*
G37*
G36*
X4946751Y-3021939D02*
G01*
X4940300Y-3023260D01*
X4935220Y-3027070D01*
X4931816Y-3033166D01*
X4930648Y-3041345D01*
X4931867Y-3049473D01*
X4935270Y-3055569D01*
X4940503Y-3059430D01*
X4947056Y-3060750D01*
X4950256Y-3060395D01*
X4953050Y-3059379D01*
X4955387Y-3057906D01*
X4957267Y-3056178D01*
X4954879Y-3053435D01*
X4953304Y-3054908D01*
X4951526Y-3056026D01*
X4949444Y-3056737D01*
X4947107Y-3056991D01*
X4942128Y-3055924D01*
X4938318Y-3052826D01*
X4935829Y-3047949D01*
X4934966Y-3041446D01*
X4935829Y-3034893D01*
X4938217Y-3029915D01*
X4941976Y-3026765D01*
X4946954Y-3025648D01*
X4949545Y-3025952D01*
X4951831Y-3026765D01*
X4953914Y-3028137D01*
X4955794Y-3029966D01*
X4958181Y-3027324D01*
X4955844Y-3025038D01*
X4953203Y-3023311D01*
X4950155Y-3022295D01*
G37*
G36*
X4964633Y-3022600D02*
G01*
X4964633Y-3026105D01*
X4973015Y-3026105D01*
X4973015Y-3054807D01*
X4966411Y-3054807D01*
X4966411Y-3057499D01*
X4970678Y-3058566D01*
X4973980Y-3060090D01*
X4977180Y-3060090D01*
X4977180Y-3026105D01*
X4984800Y-3026105D01*
X4984800Y-3022600D01*
G37*
G36*
X4992725Y-3022600D02*
G01*
X4992725Y-3026105D01*
X5001158Y-3026105D01*
X5001158Y-3054807D01*
X4994554Y-3054807D01*
X4994554Y-3057499D01*
X4998821Y-3058566D01*
X5002123Y-3060090D01*
X5005273Y-3060090D01*
X5005273Y-3026105D01*
X5012893Y-3026105D01*
X5012893Y-3022600D01*
G37*
G36*
X2223109Y-2138832D02*
G01*
X2223109Y-2143048D01*
X2240940Y-2143048D01*
X2240940Y-2149602D01*
X2240483Y-2153666D01*
X2239111Y-2156561D01*
X2236774Y-2158390D01*
X2233523Y-2159000D01*
X2230272Y-2158390D01*
X2228088Y-2156561D01*
X2226919Y-2153666D01*
X2226564Y-2149602D01*
X2226564Y-2143048D01*
X2223109Y-2143048D01*
X2223109Y-2150313D01*
X2223668Y-2155545D01*
X2225446Y-2159609D01*
X2228646Y-2162302D01*
X2233523Y-2163267D01*
X2237486Y-2162606D01*
X2240534Y-2160879D01*
X2242718Y-2158136D01*
X2243988Y-2154529D01*
X2260600Y-2164232D01*
X2260600Y-2159457D01*
X2244394Y-2150110D01*
X2244394Y-2143048D01*
X2260600Y-2143048D01*
X2260600Y-2138832D01*
G37*
G36*
X2257094Y-2170277D02*
G01*
X2257094Y-2178659D01*
X2228392Y-2178659D01*
X2228392Y-2172055D01*
X2225700Y-2172055D01*
X2224633Y-2176322D01*
X2223109Y-2179624D01*
X2223109Y-2182825D01*
X2257094Y-2182825D01*
X2257094Y-2190445D01*
X2260600Y-2190445D01*
X2260600Y-2170277D01*
G37*
G36*
X2241702Y-2196388D02*
G01*
X2233218Y-2197201D01*
X2227173Y-2199487D01*
X2223617Y-2203145D01*
X2222449Y-2207920D01*
X2225852Y-2207920D01*
X2226767Y-2204872D01*
X2229662Y-2202484D01*
X2234590Y-2200960D01*
X2241702Y-2200402D01*
X2248966Y-2200960D01*
X2253996Y-2202484D01*
X2256942Y-2204872D01*
X2257907Y-2207920D01*
X2256942Y-2210917D01*
X2253996Y-2213254D01*
X2248966Y-2214727D01*
X2241702Y-2215286D01*
X2234590Y-2214727D01*
X2229662Y-2213254D01*
X2226767Y-2210917D01*
X2225852Y-2207920D01*
X2222449Y-2207920D01*
X2223617Y-2212644D01*
X2227224Y-2216251D01*
X2233218Y-2218537D01*
X2241702Y-2219299D01*
X2250287Y-2218537D01*
X2256383Y-2216251D01*
X2260041Y-2212644D01*
X2261260Y-2207920D01*
X2260041Y-2203145D01*
X2256383Y-2199487D01*
X2250287Y-2197201D01*
G37*
G36*
X4083151Y-1472539D02*
G01*
X4076700Y-1473860D01*
X4071620Y-1477670D01*
X4068216Y-1483766D01*
X4067048Y-1491945D01*
X4068267Y-1500073D01*
X4071670Y-1506169D01*
X4076903Y-1510030D01*
X4083456Y-1511350D01*
X4086656Y-1510995D01*
X4089450Y-1509979D01*
X4091787Y-1508506D01*
X4093667Y-1506778D01*
X4091279Y-1504035D01*
X4089704Y-1505508D01*
X4087926Y-1506626D01*
X4085844Y-1507337D01*
X4083507Y-1507591D01*
X4078528Y-1506524D01*
X4074718Y-1503426D01*
X4072229Y-1498549D01*
X4071365Y-1492046D01*
X4072229Y-1485493D01*
X4074617Y-1480515D01*
X4078376Y-1477365D01*
X4083354Y-1476248D01*
X4085945Y-1476552D01*
X4088231Y-1477365D01*
X4090314Y-1478737D01*
X4092194Y-1480566D01*
X4094581Y-1477924D01*
X4092244Y-1475638D01*
X4089603Y-1473911D01*
X4086555Y-1472895D01*
G37*
G36*
X4101033Y-1473200D02*
G01*
X4101033Y-1476705D01*
X4109415Y-1476705D01*
X4109415Y-1505407D01*
X4102811Y-1505407D01*
X4102811Y-1508099D01*
X4107078Y-1509166D01*
X4110380Y-1510690D01*
X4113580Y-1510690D01*
X4113580Y-1476705D01*
X4121200Y-1476705D01*
X4121200Y-1473200D01*
G37*
G36*
X4126890Y-1473200D02*
G01*
X4126890Y-1475689D01*
X4134662Y-1483055D01*
X4140047Y-1489456D01*
X4143197Y-1495145D01*
X4144213Y-1500225D01*
X4143756Y-1503324D01*
X4142435Y-1505762D01*
X4140200Y-1507388D01*
X4137101Y-1507947D01*
X4134815Y-1507642D01*
X4132732Y-1506677D01*
X4130801Y-1505254D01*
X4129074Y-1503527D01*
X4126636Y-1505864D01*
X4128973Y-1508099D01*
X4131462Y-1509826D01*
X4134307Y-1510944D01*
X4137558Y-1511350D01*
X4142028Y-1510588D01*
X4145432Y-1508353D01*
X4147565Y-1504899D01*
X4148277Y-1500378D01*
X4147210Y-1494688D01*
X4144162Y-1488795D01*
X4139387Y-1482801D01*
X4133189Y-1476451D01*
X4139336Y-1476806D01*
X4150106Y-1476806D01*
X4150106Y-1473200D01*
G37*
G36*
X2087880Y-2755798D02*
G01*
X2083612Y-2756458D01*
X2080260Y-2758236D01*
X2078024Y-2761183D01*
X2077212Y-2765094D01*
X2077720Y-2768295D01*
X2079091Y-2770886D01*
X2081174Y-2772867D01*
X2083917Y-2774238D01*
X2083917Y-2774442D01*
X2080818Y-2775661D01*
X2078278Y-2777693D01*
X2076551Y-2780487D01*
X2075942Y-2783992D01*
X2076856Y-2788462D01*
X2079345Y-2791815D01*
X2083104Y-2793949D01*
X2087727Y-2794660D01*
X2091689Y-2794254D01*
X2094941Y-2793085D01*
X2097532Y-2791460D01*
X2099614Y-2789529D01*
X2097430Y-2786837D01*
X2095652Y-2788462D01*
X2093569Y-2789834D01*
X2091029Y-2790799D01*
X2087981Y-2791206D01*
X2084832Y-2790698D01*
X2082342Y-2789224D01*
X2080717Y-2786938D01*
X2080158Y-2783890D01*
X2080768Y-2780741D01*
X2082800Y-2778252D01*
X2086508Y-2776677D01*
X2091994Y-2776118D01*
X2091994Y-2772867D01*
X2087067Y-2772257D01*
X2083816Y-2770733D01*
X2082038Y-2768346D01*
X2081479Y-2765399D01*
X2081936Y-2762859D01*
X2083206Y-2760929D01*
X2085289Y-2759659D01*
X2088032Y-2759151D01*
X2090267Y-2759506D01*
X2092350Y-2760268D01*
X2094230Y-2761488D01*
X2095906Y-2762961D01*
X2098192Y-2760268D01*
X2096058Y-2758490D01*
X2093620Y-2757119D01*
X2090928Y-2756154D01*
G37*
G36*
X2114143Y-2755849D02*
G01*
X2110943Y-2756204D01*
X2108149Y-2757220D01*
X2105812Y-2758694D01*
X2103932Y-2760421D01*
X2106320Y-2763164D01*
X2107895Y-2761691D01*
X2109673Y-2760573D01*
X2111756Y-2759862D01*
X2114092Y-2759608D01*
X2119071Y-2760675D01*
X2122881Y-2763774D01*
X2125370Y-2768650D01*
X2126234Y-2775153D01*
X2125370Y-2781706D01*
X2122982Y-2786684D01*
X2119223Y-2789834D01*
X2114245Y-2790901D01*
X2111654Y-2790647D01*
X2109368Y-2789834D01*
X2107285Y-2788462D01*
X2105406Y-2786634D01*
X2103018Y-2789275D01*
X2105355Y-2791561D01*
X2107996Y-2793288D01*
X2111044Y-2794304D01*
X2114448Y-2794660D01*
X2120900Y-2793339D01*
X2125980Y-2789529D01*
X2129383Y-2783433D01*
X2130602Y-2775254D01*
X2129332Y-2767126D01*
X2125929Y-2761030D01*
X2120696Y-2757170D01*
G37*
G36*
X2116886Y-2858109D02*
G01*
X2111654Y-2858668D01*
X2107590Y-2860446D01*
X2104898Y-2863646D01*
X2103932Y-2868523D01*
X2108200Y-2868523D01*
X2108809Y-2865272D01*
X2110638Y-2863088D01*
X2113534Y-2861919D01*
X2117598Y-2861564D01*
X2124151Y-2861564D01*
X2124151Y-2875940D01*
X2117598Y-2875940D01*
X2113534Y-2875483D01*
X2110638Y-2874111D01*
X2108809Y-2871774D01*
X2108200Y-2868523D01*
X2103932Y-2868523D01*
X2104593Y-2872486D01*
X2106320Y-2875534D01*
X2109063Y-2877718D01*
X2112670Y-2878988D01*
X2102967Y-2895600D01*
X2107742Y-2895600D01*
X2117090Y-2879394D01*
X2124151Y-2879394D01*
X2124151Y-2895600D01*
X2128367Y-2895600D01*
X2128367Y-2858109D01*
G37*
G36*
X2084374Y-2858109D02*
G01*
X2084374Y-2892094D01*
X2076754Y-2892094D01*
X2076754Y-2895600D01*
X2096922Y-2895600D01*
X2096922Y-2892094D01*
X2088540Y-2892094D01*
X2088540Y-2863392D01*
X2095144Y-2863392D01*
X2095144Y-2860649D01*
X2090877Y-2859633D01*
X2087575Y-2858109D01*
G37*
G36*
X2052015Y-2858109D02*
G01*
X2052015Y-2862986D01*
X2055926Y-2862986D01*
X2058873Y-2868422D01*
X2067966Y-2881833D01*
X2055977Y-2881833D01*
X2055672Y-2862986D01*
X2052015Y-2862986D01*
X2052015Y-2881833D01*
X2046884Y-2881833D01*
X2046884Y-2885135D01*
X2052015Y-2885135D01*
X2052015Y-2895600D01*
X2055977Y-2895600D01*
X2055977Y-2885135D01*
X2072386Y-2885135D01*
X2072386Y-2882442D01*
X2056485Y-2858109D01*
G37*
G36*
X2324709Y-2138832D02*
G01*
X2324709Y-2143048D01*
X2342540Y-2143048D01*
X2342540Y-2149602D01*
X2342083Y-2153666D01*
X2340711Y-2156561D01*
X2338374Y-2158390D01*
X2335123Y-2159000D01*
X2331872Y-2158390D01*
X2329688Y-2156561D01*
X2328519Y-2153666D01*
X2328164Y-2149602D01*
X2328164Y-2143048D01*
X2324709Y-2143048D01*
X2324709Y-2150313D01*
X2325268Y-2155545D01*
X2327046Y-2159609D01*
X2330246Y-2162302D01*
X2335123Y-2163267D01*
X2339086Y-2162606D01*
X2342134Y-2160879D01*
X2344318Y-2158136D01*
X2345588Y-2154529D01*
X2362200Y-2164232D01*
X2362200Y-2159457D01*
X2345994Y-2150110D01*
X2345994Y-2143048D01*
X2362200Y-2143048D01*
X2362200Y-2138832D01*
G37*
G36*
X2358694Y-2170277D02*
G01*
X2358694Y-2178659D01*
X2329992Y-2178659D01*
X2329992Y-2172055D01*
X2327300Y-2172055D01*
X2326233Y-2176322D01*
X2324709Y-2179624D01*
X2324709Y-2182825D01*
X2358694Y-2182825D01*
X2358694Y-2190445D01*
X2362200Y-2190445D01*
X2362200Y-2170277D01*
G37*
G36*
X2358694Y-2198370D02*
G01*
X2358694Y-2206752D01*
X2329992Y-2206752D01*
X2329992Y-2200148D01*
X2327300Y-2200148D01*
X2326233Y-2204466D01*
X2324709Y-2207768D01*
X2324709Y-2210917D01*
X2358694Y-2210917D01*
X2358694Y-2218537D01*
X2362200Y-2218537D01*
X2362200Y-2198370D01*
G37*
G36*
X4946751Y-3123539D02*
G01*
X4940300Y-3124860D01*
X4935220Y-3128670D01*
X4931816Y-3134766D01*
X4930648Y-3142945D01*
X4931867Y-3151073D01*
X4935270Y-3157169D01*
X4940503Y-3161030D01*
X4947056Y-3162350D01*
X4950256Y-3161995D01*
X4953050Y-3160979D01*
X4955387Y-3159506D01*
X4957267Y-3157778D01*
X4954879Y-3155035D01*
X4953304Y-3156508D01*
X4951526Y-3157626D01*
X4949444Y-3158337D01*
X4947107Y-3158591D01*
X4942128Y-3157524D01*
X4938318Y-3154426D01*
X4935829Y-3149549D01*
X4934966Y-3143046D01*
X4935829Y-3136493D01*
X4938217Y-3131515D01*
X4941976Y-3128365D01*
X4946954Y-3127248D01*
X4949545Y-3127552D01*
X4951831Y-3128365D01*
X4953914Y-3129737D01*
X4955794Y-3131566D01*
X4958181Y-3128924D01*
X4955844Y-3126638D01*
X4953203Y-3124911D01*
X4950155Y-3123895D01*
G37*
G36*
X5002276Y-3123539D02*
G01*
X4997500Y-3124758D01*
X4993843Y-3128416D01*
X4991557Y-3134512D01*
X4990744Y-3143097D01*
X4994808Y-3143097D01*
X4995316Y-3135833D01*
X4996840Y-3130804D01*
X4999228Y-3127857D01*
X5002276Y-3126892D01*
X5005273Y-3127857D01*
X5007610Y-3130804D01*
X5009083Y-3135833D01*
X5009642Y-3143097D01*
X5009083Y-3150209D01*
X5007610Y-3155137D01*
X5005273Y-3158032D01*
X5002276Y-3158947D01*
X4999228Y-3158032D01*
X4996840Y-3155137D01*
X4995316Y-3150209D01*
X4994808Y-3143097D01*
X4990744Y-3143097D01*
X4991557Y-3151581D01*
X4993843Y-3157626D01*
X4997500Y-3161182D01*
X5002276Y-3162350D01*
X5007000Y-3161182D01*
X5010607Y-3157575D01*
X5012893Y-3151581D01*
X5013706Y-3143097D01*
X5012893Y-3134512D01*
X5010607Y-3128416D01*
X5007000Y-3124758D01*
G37*
G36*
X4964633Y-3124200D02*
G01*
X4964633Y-3127705D01*
X4973015Y-3127705D01*
X4973015Y-3156407D01*
X4966411Y-3156407D01*
X4966411Y-3159099D01*
X4970678Y-3160166D01*
X4973980Y-3161690D01*
X4977180Y-3161690D01*
X4977180Y-3127705D01*
X4984800Y-3127705D01*
X4984800Y-3124200D01*
G37*
G36*
X4946751Y-3225139D02*
G01*
X4940300Y-3226460D01*
X4935220Y-3230270D01*
X4931816Y-3236366D01*
X4930648Y-3244545D01*
X4931867Y-3252673D01*
X4935270Y-3258769D01*
X4940503Y-3262629D01*
X4947056Y-3263950D01*
X4950256Y-3263595D01*
X4953050Y-3262579D01*
X4955387Y-3261106D01*
X4957267Y-3259378D01*
X4954879Y-3256635D01*
X4953304Y-3258108D01*
X4951526Y-3259226D01*
X4949444Y-3259937D01*
X4947107Y-3260191D01*
X4942128Y-3259124D01*
X4938318Y-3256026D01*
X4935829Y-3251149D01*
X4934966Y-3244646D01*
X4935829Y-3238093D01*
X4938217Y-3233115D01*
X4941976Y-3229965D01*
X4946954Y-3228848D01*
X4949545Y-3229152D01*
X4951831Y-3229965D01*
X4953914Y-3231337D01*
X4955794Y-3233166D01*
X4958181Y-3230524D01*
X4955844Y-3228238D01*
X4953203Y-3226511D01*
X4950155Y-3225495D01*
G37*
G36*
X4964633Y-3225800D02*
G01*
X4964633Y-3229305D01*
X4973015Y-3229305D01*
X4973015Y-3258007D01*
X4966411Y-3258007D01*
X4966411Y-3260699D01*
X4970678Y-3261766D01*
X4973980Y-3263290D01*
X4977180Y-3263290D01*
X4977180Y-3229305D01*
X4984800Y-3229305D01*
X4984800Y-3225800D01*
G37*
G36*
X4946751Y-3326739D02*
G01*
X4940300Y-3328060D01*
X4935220Y-3331870D01*
X4931816Y-3337966D01*
X4930648Y-3346145D01*
X4931867Y-3354273D01*
X4935270Y-3360369D01*
X4940503Y-3364229D01*
X4947056Y-3365550D01*
X4950256Y-3365195D01*
X4953050Y-3364179D01*
X4955387Y-3362706D01*
X4957267Y-3360978D01*
X4954879Y-3358235D01*
X4953304Y-3359708D01*
X4951526Y-3360826D01*
X4949444Y-3361537D01*
X4947107Y-3361791D01*
X4942128Y-3360724D01*
X4938318Y-3357626D01*
X4935829Y-3352749D01*
X4934966Y-3346246D01*
X4935829Y-3339693D01*
X4938217Y-3334715D01*
X4941976Y-3331565D01*
X4946954Y-3330448D01*
X4949545Y-3330752D01*
X4951831Y-3331565D01*
X4953914Y-3332937D01*
X4955794Y-3334765D01*
X4958181Y-3332124D01*
X4955844Y-3329838D01*
X4953203Y-3328111D01*
X4950155Y-3327095D01*
G37*
G36*
X4962347Y-3327400D02*
G01*
X4962347Y-3329889D01*
X4970119Y-3337255D01*
X4975504Y-3343656D01*
X4978654Y-3349345D01*
X4979670Y-3354425D01*
X4979263Y-3357524D01*
X4977942Y-3359962D01*
X4975707Y-3361588D01*
X4972558Y-3362147D01*
X4970322Y-3361842D01*
X4968189Y-3360877D01*
X4966309Y-3359454D01*
X4964582Y-3357727D01*
X4962093Y-3360064D01*
X4964430Y-3362299D01*
X4966970Y-3364026D01*
X4969764Y-3365144D01*
X4973015Y-3365550D01*
X4977536Y-3364788D01*
X4980889Y-3362553D01*
X4983022Y-3359099D01*
X4983784Y-3354578D01*
X4982718Y-3348888D01*
X4979670Y-3342995D01*
X4974894Y-3337001D01*
X4968646Y-3330651D01*
X4974793Y-3331006D01*
X4985562Y-3331006D01*
X4985562Y-3327400D01*
G37*
G36*
X4443272Y-3010509D02*
G01*
X4435652Y-3011779D01*
X4430166Y-3015386D01*
X4426864Y-3021228D01*
X4425746Y-3029102D01*
X4430115Y-3029102D01*
X4430928Y-3022701D01*
X4433417Y-3017977D01*
X4437684Y-3015030D01*
X4443628Y-3014014D01*
X4448251Y-3014014D01*
X4448251Y-3044494D01*
X4443628Y-3044494D01*
X4437684Y-3043478D01*
X4433417Y-3040380D01*
X4430928Y-3035554D01*
X4430115Y-3029102D01*
X4425746Y-3029102D01*
X4426864Y-3037027D01*
X4430166Y-3042970D01*
X4435602Y-3046679D01*
X4443120Y-3048000D01*
X4452467Y-3048000D01*
X4452467Y-3010509D01*
G37*
G36*
X4405630Y-3010509D02*
G01*
X4405630Y-3044494D01*
X4398010Y-3044494D01*
X4398010Y-3048000D01*
X4418177Y-3048000D01*
X4418177Y-3044494D01*
X4409744Y-3044494D01*
X4409744Y-3015792D01*
X4416399Y-3015792D01*
X4416399Y-3013049D01*
X4412081Y-3012033D01*
X4408779Y-3010509D01*
G37*
G36*
X110286Y-1765909D02*
G01*
X105054Y-1766468D01*
X100990Y-1768246D01*
X98298Y-1771446D01*
X97332Y-1776323D01*
X101600Y-1776323D01*
X102209Y-1773072D01*
X104038Y-1770888D01*
X106933Y-1769719D01*
X110998Y-1769364D01*
X117551Y-1769364D01*
X117551Y-1783740D01*
X110998Y-1783740D01*
X106933Y-1783283D01*
X104038Y-1781911D01*
X102209Y-1779574D01*
X101600Y-1776323D01*
X97332Y-1776323D01*
X97993Y-1780286D01*
X99720Y-1783334D01*
X102463Y-1785518D01*
X106070Y-1786788D01*
X96367Y-1803400D01*
X101142Y-1803400D01*
X110489Y-1787194D01*
X117551Y-1787194D01*
X117551Y-1803400D01*
X121767Y-1803400D01*
X121767Y-1765909D01*
G37*
G36*
X71323Y-1765909D02*
G01*
X71323Y-1769516D01*
X85598Y-1769516D01*
X86614Y-1780844D01*
X83921Y-1779727D01*
X82397Y-1779371D01*
X80772Y-1779270D01*
X76403Y-1779981D01*
X72847Y-1782165D01*
X70408Y-1785874D01*
X69545Y-1791258D01*
X70561Y-1796694D01*
X73253Y-1800707D01*
X77114Y-1803196D01*
X81635Y-1804060D01*
X85598Y-1803654D01*
X88798Y-1802536D01*
X91389Y-1800910D01*
X93472Y-1799082D01*
X91338Y-1796338D01*
X89611Y-1797913D01*
X87528Y-1799285D01*
X85039Y-1800250D01*
X81991Y-1800606D01*
X78790Y-1799945D01*
X76149Y-1798066D01*
X74371Y-1795170D01*
X73761Y-1791360D01*
X74320Y-1787652D01*
X75946Y-1784857D01*
X78486Y-1783130D01*
X81788Y-1782521D01*
X83566Y-1782673D01*
X85090Y-1783080D01*
X88138Y-1784756D01*
X90424Y-1783334D01*
X89255Y-1765909D01*
G37*
D10*
X2283221Y-2617139D02*
G01*
X2355024Y-2617139D01*
X2355024Y-2716860D01*
X2283221Y-2716860D01*
X2237978Y-2617139D02*
G01*
X2166175Y-2617139D01*
X2166175Y-2716860D01*
X2237978Y-2716860D01*
D11*
X3961993Y-3618001D02*
G01*
X3961993Y-2488006D01*
X2642006Y-2488006D01*
X2642006Y-3618001D01*
X2642006Y-4147997D01*
X3961993Y-4147997D01*
X3961993Y-3618001D01*
X4721606Y-3586607D02*
G01*
X4371594Y-3586607D01*
X4371594Y-4236593D01*
X4721606Y-4236593D01*
X4721606Y-3586607D01*
X4949088Y-3601593D02*
G01*
X4764100Y-3601593D01*
D10*
X3959621Y-1550339D02*
G01*
X4017010Y-1550339D01*
X4017010Y-1650060D02*
G01*
X3959621Y-1650060D01*
X3856990Y-1650060D02*
G01*
X3914378Y-1650060D01*
X3914378Y-1550339D02*
G01*
X3856990Y-1550339D01*
X3841750Y-1565579D02*
G01*
X3841750Y-1634820D01*
X4032250Y-1565656D02*
G01*
X4032250Y-1634896D01*
X3959621Y-1753539D02*
G01*
X4017010Y-1753539D01*
X4017010Y-1853260D02*
G01*
X3959621Y-1853260D01*
X3856990Y-1853260D02*
G01*
X3914378Y-1853260D01*
X3914378Y-1753539D02*
G01*
X3856990Y-1753539D01*
X3841750Y-1768779D02*
G01*
X3841750Y-1838020D01*
X4032250Y-1768856D02*
G01*
X4032250Y-1838096D01*
X3959621Y-1651939D02*
G01*
X4017010Y-1651939D01*
X4017010Y-1751660D02*
G01*
X3959621Y-1751660D01*
X3856990Y-1751660D02*
G01*
X3914378Y-1751660D01*
X3914378Y-1651939D02*
G01*
X3856990Y-1651939D01*
X3841750Y-1667179D02*
G01*
X3841750Y-1736420D01*
X4032250Y-1667256D02*
G01*
X4032250Y-1736496D01*
X2618978Y-1751660D02*
G01*
X2561590Y-1751660D01*
X2561590Y-1651939D02*
G01*
X2618978Y-1651939D01*
X2721610Y-1651939D02*
G01*
X2664221Y-1651939D01*
X2664221Y-1751660D02*
G01*
X2721610Y-1751660D01*
X2736850Y-1736420D02*
G01*
X2736850Y-1667179D01*
X2546350Y-1736343D02*
G01*
X2546350Y-1667103D01*
D11*
X3051810Y-1958289D02*
G01*
X3051810Y-1953310D01*
X2891790Y-1953310D01*
X2891790Y-1958289D01*
X3051810Y-1958289D01*
X3071799Y-2078304D02*
G01*
X3071799Y-1993290D01*
D10*
X3429167Y-1609415D02*
G01*
X3352967Y-1609415D01*
X3429167Y-1741535D02*
G01*
X3444410Y-1726300D01*
X3444410Y-1624657D01*
X3429167Y-1609415D01*
X3176165Y-1609415D02*
G01*
X3252365Y-1609415D01*
X3429167Y-1741535D02*
G01*
X3352967Y-1741535D01*
X3176165Y-1741535D02*
G01*
X3252365Y-1741535D01*
X3176165Y-1609415D02*
G01*
X3160936Y-1624657D01*
X3160936Y-1726300D01*
X3176165Y-1741535D01*
X2664221Y-1448739D02*
G01*
X2736024Y-1448739D01*
X2736024Y-1548460D01*
X2664221Y-1548460D01*
X2618978Y-1448739D02*
G01*
X2547175Y-1448739D01*
X2547175Y-1548460D01*
X2618978Y-1548460D01*
X2618978Y-1853260D02*
G01*
X2547175Y-1853260D01*
X2547175Y-1753539D01*
X2618978Y-1753539D01*
X2664221Y-1853260D02*
G01*
X2736024Y-1853260D01*
X2736024Y-1753539D01*
X2664221Y-1753539D01*
X2618978Y-1650060D02*
G01*
X2547175Y-1650060D01*
X2547175Y-1550339D01*
X2618978Y-1550339D01*
X2664221Y-1650060D02*
G01*
X2736024Y-1650060D01*
X2736024Y-1550339D01*
X2664221Y-1550339D01*
D11*
X4556607Y-2039391D02*
G01*
X4536592Y-2039391D01*
X4536592Y-2329408D01*
X4556607Y-2329408D01*
X4556607Y-2039391D01*
X4711598Y-2030907D02*
G01*
X4591608Y-2030907D01*
X4556607Y-2394991D02*
G01*
X4536592Y-2394991D01*
X4536592Y-2685008D01*
X4556607Y-2685008D01*
X4556607Y-2394991D01*
X4711598Y-2386507D02*
G01*
X4591608Y-2386507D01*
D10*
X276621Y-1524939D02*
G01*
X348424Y-1524939D01*
X348424Y-1624660D01*
X276621Y-1624660D01*
X231378Y-1524939D02*
G01*
X159575Y-1524939D01*
X159575Y-1624660D01*
X231378Y-1624660D01*
X231378Y-1726260D02*
G01*
X159575Y-1726260D01*
X159575Y-1626539D01*
X231378Y-1626539D01*
X276621Y-1726260D02*
G01*
X348424Y-1726260D01*
X348424Y-1626539D01*
X276621Y-1626539D01*
X231378Y-1929460D02*
G01*
X159575Y-1929460D01*
X159575Y-1829739D01*
X231378Y-1829739D01*
X276621Y-1929460D02*
G01*
X348424Y-1929460D01*
X348424Y-1829739D01*
X276621Y-1829739D01*
X4823221Y-2896539D02*
G01*
X4880610Y-2896539D01*
X4880610Y-2996260D02*
G01*
X4823221Y-2996260D01*
X4720590Y-2996260D02*
G01*
X4777978Y-2996260D01*
X4777978Y-2896539D02*
G01*
X4720590Y-2896539D01*
X4705350Y-2911779D02*
G01*
X4705350Y-2981020D01*
X4895850Y-2911856D02*
G01*
X4895850Y-2981096D01*
X4823221Y-2794939D02*
G01*
X4880610Y-2794939D01*
X4880610Y-2894660D02*
G01*
X4823221Y-2894660D01*
X4720590Y-2894660D02*
G01*
X4777978Y-2894660D01*
X4777978Y-2794939D02*
G01*
X4720590Y-2794939D01*
X4705350Y-2810179D02*
G01*
X4705350Y-2879420D01*
X4895850Y-2810256D02*
G01*
X4895850Y-2879496D01*
X1904060Y-911621D02*
G01*
X1904060Y-983424D01*
X1804339Y-983424D01*
X1804339Y-911621D01*
X1904060Y-866378D02*
G01*
X1904060Y-794575D01*
X1804339Y-794575D01*
X1804339Y-866378D01*
X1802460Y-911621D02*
G01*
X1802460Y-983424D01*
X1702739Y-983424D01*
X1702739Y-911621D01*
X1802460Y-866378D02*
G01*
X1802460Y-794575D01*
X1702739Y-794575D01*
X1702739Y-866378D01*
X3324621Y-1093139D02*
G01*
X3382010Y-1093139D01*
X3382010Y-1192860D02*
G01*
X3324621Y-1192860D01*
X3221990Y-1192860D02*
G01*
X3279378Y-1192860D01*
X3279378Y-1093139D02*
G01*
X3221990Y-1093139D01*
X3206750Y-1108379D02*
G01*
X3206750Y-1177620D01*
X3397250Y-1108456D02*
G01*
X3397250Y-1177696D01*
X3330026Y-1442562D02*
G01*
X3410023Y-1442562D01*
X3441001Y-1411577D02*
G01*
X3441001Y-1331574D01*
X3330026Y-1300596D02*
G01*
X3410023Y-1300596D01*
X3272436Y-1443144D02*
G01*
X3192437Y-1443144D01*
X3161454Y-1412161D02*
G01*
X3161454Y-1332163D01*
X3272436Y-1301183D02*
G01*
X3192437Y-1301183D01*
D11*
X1559204Y-1058799D02*
G01*
X879195Y-1058799D01*
X879195Y-2598801D01*
X1559204Y-2598801D01*
X1559204Y-1058799D01*
X1786686Y-1062812D02*
G01*
X1594205Y-1062812D01*
D10*
X3324621Y-1194739D02*
G01*
X3382010Y-1194739D01*
X3382010Y-1294460D02*
G01*
X3324621Y-1294460D01*
X3221990Y-1294460D02*
G01*
X3279378Y-1294460D01*
X3279378Y-1194739D02*
G01*
X3221990Y-1194739D01*
X3206750Y-1209979D02*
G01*
X3206750Y-1279220D01*
X3397250Y-1210056D02*
G01*
X3397250Y-1279296D01*
X3330026Y-1594962D02*
G01*
X3410023Y-1594962D01*
X3441001Y-1563977D02*
G01*
X3441001Y-1483974D01*
X3330026Y-1452996D02*
G01*
X3410023Y-1452996D01*
X3272436Y-1595544D02*
G01*
X3192437Y-1595544D01*
X3161454Y-1564561D02*
G01*
X3161454Y-1484563D01*
X3272436Y-1453583D02*
G01*
X3192437Y-1453583D01*
D11*
X5775604Y-1058799D02*
G01*
X5095595Y-1058799D01*
X5095595Y-2598801D01*
X5775604Y-2598801D01*
X5775604Y-1058799D01*
X6003086Y-1062812D02*
G01*
X5810605Y-1062812D01*
D10*
X4547539Y-1806178D02*
G01*
X4547539Y-1734375D01*
X4647260Y-1734375D01*
X4647260Y-1806178D01*
X4547539Y-1851421D02*
G01*
X4547539Y-1923224D01*
X4647260Y-1923224D01*
X4647260Y-1851421D01*
X4823221Y-2998139D02*
G01*
X4880610Y-2998139D01*
X4880610Y-3097860D02*
G01*
X4823221Y-3097860D01*
X4720590Y-3097860D02*
G01*
X4777978Y-3097860D01*
X4777978Y-2998139D02*
G01*
X4720590Y-2998139D01*
X4705350Y-3013379D02*
G01*
X4705350Y-3082620D01*
X4895850Y-3013456D02*
G01*
X4895850Y-3082696D01*
X2310460Y-2029221D02*
G01*
X2310460Y-2101024D01*
X2210739Y-2101024D01*
X2210739Y-2029221D01*
X2310460Y-1983978D02*
G01*
X2310460Y-1912175D01*
X2210739Y-1912175D01*
X2210739Y-1983978D01*
X3959621Y-1448739D02*
G01*
X4017010Y-1448739D01*
X4017010Y-1548460D02*
G01*
X3959621Y-1548460D01*
X3856990Y-1548460D02*
G01*
X3914378Y-1548460D01*
X3914378Y-1448739D02*
G01*
X3856990Y-1448739D01*
X3841750Y-1463979D02*
G01*
X3841750Y-1533220D01*
X4032250Y-1464056D02*
G01*
X4032250Y-1533296D01*
X2237978Y-2818460D02*
G01*
X2180590Y-2818460D01*
X2180590Y-2718739D02*
G01*
X2237978Y-2718739D01*
X2340610Y-2718739D02*
G01*
X2283221Y-2718739D01*
X2283221Y-2818460D02*
G01*
X2340610Y-2818460D01*
X2355850Y-2803220D02*
G01*
X2355850Y-2733979D01*
X2165350Y-2803144D02*
G01*
X2165350Y-2733903D01*
X2237978Y-2920060D02*
G01*
X2166175Y-2920060D01*
X2166175Y-2820339D01*
X2237978Y-2820339D01*
X2283221Y-2920060D02*
G01*
X2355024Y-2920060D01*
X2355024Y-2820339D01*
X2283221Y-2820339D01*
X2412060Y-2029221D02*
G01*
X2412060Y-2101024D01*
X2312339Y-2101024D01*
X2312339Y-2029221D01*
X2412060Y-1983978D02*
G01*
X2412060Y-1912175D01*
X2312339Y-1912175D01*
X2312339Y-1983978D01*
X4823221Y-3099739D02*
G01*
X4880610Y-3099739D01*
X4880610Y-3199460D02*
G01*
X4823221Y-3199460D01*
X4720590Y-3199460D02*
G01*
X4777978Y-3199460D01*
X4777978Y-3099739D02*
G01*
X4720590Y-3099739D01*
X4705350Y-3114979D02*
G01*
X4705350Y-3184220D01*
X4895850Y-3115056D02*
G01*
X4895850Y-3184296D01*
X4777978Y-3301060D02*
G01*
X4720590Y-3301060D01*
X4720590Y-3201339D02*
G01*
X4777978Y-3201339D01*
X4880610Y-3201339D02*
G01*
X4823221Y-3201339D01*
X4823221Y-3301060D02*
G01*
X4880610Y-3301060D01*
X4895850Y-3285820D02*
G01*
X4895850Y-3216579D01*
X4705350Y-3285744D02*
G01*
X4705350Y-3216503D01*
X4777978Y-3402660D02*
G01*
X4720590Y-3402660D01*
X4720590Y-3302939D02*
G01*
X4777978Y-3302939D01*
X4880610Y-3302939D02*
G01*
X4823221Y-3302939D01*
X4823221Y-3402660D02*
G01*
X4880610Y-3402660D01*
X4895850Y-3387420D02*
G01*
X4895850Y-3318179D01*
X4705350Y-3387344D02*
G01*
X4705350Y-3318103D01*
D12*
X4339590Y-3148584D02*
G01*
X4324604Y-3148584D01*
X4324604Y-3261106D01*
X4514596Y-3261106D02*
G01*
X4514596Y-3148584D01*
X4499610Y-3148584D01*
D10*
X231378Y-1827860D02*
G01*
X159575Y-1827860D01*
X159575Y-1728139D01*
X231378Y-1728139D01*
X276621Y-1827860D02*
G01*
X348424Y-1827860D01*
X348424Y-1728139D01*
X276621Y-1728139D01*
D11*
G75*
G01*
X2602001Y-3447999D02*
G02*
X2582012Y-3447999I-9994J504D01*
G75*
G01*
X2582012Y-3447999D02*
G02*
X2602001Y-3447999I9995J-504D01*
D10*
G75*
G01*
X4017010Y-1550416D02*
G02*
X4032250Y-1565656I0J-15240D01*
G75*
G01*
X4032250Y-1634896D02*
G02*
X4017010Y-1650136I-15240J0D01*
G75*
G01*
X3841750Y-1634744D02*
G03*
X3856990Y-1649984I15240J0D01*
G75*
G01*
X3856990Y-1550264D02*
G03*
X3841750Y-1565504I0J-15240D01*
G75*
G01*
X4017010Y-1753616D02*
G02*
X4032250Y-1768856I0J-15240D01*
G75*
G01*
X4032250Y-1838096D02*
G02*
X4017010Y-1853336I-15240J0D01*
G75*
G01*
X3841750Y-1837944D02*
G03*
X3856990Y-1853184I15240J0D01*
G75*
G01*
X3856990Y-1753464D02*
G03*
X3841750Y-1768704I0J-15240D01*
G75*
G01*
X4017010Y-1652016D02*
G02*
X4032250Y-1667256I0J-15240D01*
G75*
G01*
X4032250Y-1736496D02*
G02*
X4017010Y-1751736I-15240J0D01*
G75*
G01*
X3841750Y-1736344D02*
G03*
X3856990Y-1751584I15240J0D01*
G75*
G01*
X3856990Y-1651864D02*
G03*
X3841750Y-1667104I0J-15240D01*
G75*
G01*
X2561590Y-1751584D02*
G02*
X2546350Y-1736344I0J15240D01*
G75*
G01*
X2546350Y-1667104D02*
G02*
X2561590Y-1651864I15240J0D01*
G75*
G01*
X2736850Y-1667256D02*
G03*
X2721610Y-1652016I-15240J0D01*
G75*
G01*
X2721610Y-1751736D02*
G03*
X2736850Y-1736496I0J15240D01*
G75*
G01*
X4880610Y-2896616D02*
G02*
X4895850Y-2911856I0J-15240D01*
G75*
G01*
X4895850Y-2981096D02*
G02*
X4880610Y-2996336I-15240J0D01*
G75*
G01*
X4705350Y-2980944D02*
G03*
X4720590Y-2996184I15240J0D01*
G75*
G01*
X4720590Y-2896464D02*
G03*
X4705350Y-2911704I0J-15240D01*
G75*
G01*
X4880610Y-2795016D02*
G02*
X4895850Y-2810256I0J-15240D01*
G75*
G01*
X4895850Y-2879496D02*
G02*
X4880610Y-2894736I-15240J0D01*
G75*
G01*
X4705350Y-2879344D02*
G03*
X4720590Y-2894584I15240J0D01*
G75*
G01*
X4720590Y-2794864D02*
G03*
X4705350Y-2810104I0J-15240D01*
G75*
G01*
X3382010Y-1093216D02*
G02*
X3397250Y-1108456I0J-15240D01*
G75*
G01*
X3397250Y-1177696D02*
G02*
X3382010Y-1192936I-15240J0D01*
G75*
G01*
X3206750Y-1177544D02*
G03*
X3221990Y-1192784I15240J0D01*
G75*
G01*
X3221990Y-1093064D02*
G03*
X3206750Y-1108304I0J-15240D01*
G75*
G01*
X3161449Y-1412161D02*
G03*
X3192432Y-1443144I30983J0D01*
G75*
G01*
X3192432Y-1301178D02*
G03*
X3161449Y-1332164I0J-30983D01*
G75*
G01*
X3441002Y-1331580D02*
G03*
X3410019Y-1300597I-30983J0D01*
G75*
G01*
X3410019Y-1442563D02*
G03*
X3441002Y-1411577I0J30983D01*
G75*
G01*
X3382010Y-1194816D02*
G02*
X3397250Y-1210056I0J-15240D01*
G75*
G01*
X3397250Y-1279296D02*
G02*
X3382010Y-1294536I-15240J0D01*
G75*
G01*
X3206750Y-1279144D02*
G03*
X3221990Y-1294384I15240J0D01*
G75*
G01*
X3221990Y-1194664D02*
G03*
X3206750Y-1209904I0J-15240D01*
G75*
G01*
X3161449Y-1564561D02*
G03*
X3192432Y-1595544I30983J0D01*
G75*
G01*
X3192432Y-1453578D02*
G03*
X3161449Y-1484564I0J-30983D01*
G75*
G01*
X3441002Y-1483980D02*
G03*
X3410019Y-1452997I-30983J0D01*
G75*
G01*
X3410019Y-1594963D02*
G03*
X3441002Y-1563977I0J30983D01*
G75*
G01*
X4880610Y-2998216D02*
G02*
X4895850Y-3013456I0J-15240D01*
G75*
G01*
X4895850Y-3082696D02*
G02*
X4880610Y-3097936I-15240J0D01*
G75*
G01*
X4705350Y-3082544D02*
G03*
X4720590Y-3097784I15240J0D01*
G75*
G01*
X4720590Y-2998064D02*
G03*
X4705350Y-3013304I0J-15240D01*
G75*
G01*
X4017010Y-1448816D02*
G02*
X4032250Y-1464056I0J-15240D01*
G75*
G01*
X4032250Y-1533296D02*
G02*
X4017010Y-1548536I-15240J0D01*
G75*
G01*
X3841750Y-1533144D02*
G03*
X3856990Y-1548384I15240J0D01*
G75*
G01*
X3856990Y-1448664D02*
G03*
X3841750Y-1463904I0J-15240D01*
G75*
G01*
X2180590Y-2818384D02*
G02*
X2165350Y-2803144I0J15240D01*
G75*
G01*
X2165350Y-2733904D02*
G02*
X2180590Y-2718664I15240J0D01*
G75*
G01*
X2355850Y-2734056D02*
G03*
X2340610Y-2718816I-15240J0D01*
G75*
G01*
X2340610Y-2818536D02*
G03*
X2355850Y-2803296I0J15240D01*
G75*
G01*
X4880610Y-3099816D02*
G02*
X4895850Y-3115056I0J-15240D01*
G75*
G01*
X4895850Y-3184296D02*
G02*
X4880610Y-3199536I-15240J0D01*
G75*
G01*
X4705350Y-3184144D02*
G03*
X4720590Y-3199384I15240J0D01*
G75*
G01*
X4720590Y-3099664D02*
G03*
X4705350Y-3114904I0J-15240D01*
G75*
G01*
X4720590Y-3300984D02*
G02*
X4705350Y-3285744I0J15240D01*
G75*
G01*
X4705350Y-3216504D02*
G02*
X4720590Y-3201264I15240J0D01*
G75*
G01*
X4895850Y-3216656D02*
G03*
X4880610Y-3201416I-15240J0D01*
G75*
G01*
X4880610Y-3301136D02*
G03*
X4895850Y-3285896I0J15240D01*
G75*
G01*
X4720590Y-3402584D02*
G02*
X4705350Y-3387344I0J15240D01*
G75*
G01*
X4705350Y-3318104D02*
G02*
X4720590Y-3302864I15240J0D01*
G75*
G01*
X4895850Y-3318256D02*
G03*
X4880610Y-3303016I-15240J0D01*
G75*
G01*
X4880610Y-3402736D02*
G03*
X4895850Y-3387496I0J15240D01*
D13*
G75*
G01*
X4567174Y-3353816D02*
G02*
X4567174Y-3354070I12445J-127D01*
M02*
