G04 Layer: TopLayer*
G04 EasyEDA v6.5.39, 2023-12-28 21:15:06*
G04 35ff57de02ea422eb169f7c644e1f47a,fc83978cdc934b7da63e149a84a413c2,10*
G04 Gerber Generator version 0.2*
G04 Scale: 100 percent, Rotated: No, Reflected: No *
G04 Dimensions in millimeters *
G04 leading zeros omitted , absolute positions ,4 integer and 5 decimal *
%FSLAX45Y45*%
%MOMM*%

%AMMACRO1*21,1,$1,$2,0,0,$3*%
%ADD10C,0.1524*%
%ADD11MACRO1,0.54X0.5656X90.0000*%
%ADD12MACRO1,0.54X0.5656X0.0000*%
%ADD13R,0.5400X0.5657*%
%ADD14R,1.1500X0.3000*%
%ADD15MACRO1,0.3X1.15X90.0000*%
%ADD16R,0.5657X0.5400*%
%ADD17R,0.8499X0.3000*%
%ADD18MACRO1,0.54X0.5656X-90.0000*%
%ADD19MACRO1,1.1001X0.3X0.0000*%
%ADD20MACRO1,1.5999X0.8001X0.0000*%
%ADD21MACRO1,1.95X1.3X0.0000*%
%ADD22R,1.0000X0.7000*%
%ADD23R,1.4999X2.5999*%
%ADD24R,1.1999X0.6500*%
%ADD25C,1.6241*%
%ADD26O,2.0999958X1.0999978000000001*%
%ADD27O,1.7999964X1.0999978000000001*%
%ADD28C,0.6096*%
%ADD29C,0.0180*%

%LPD*%
G36*
X5142788Y-1135786D02*
G01*
X5138877Y-1135024D01*
X5135575Y-1132789D01*
X5027066Y-1024280D01*
X5021173Y-1019505D01*
X5014976Y-1016355D01*
X5008067Y-1014526D01*
X5002580Y-1014069D01*
X4823714Y-1014069D01*
X4816246Y-1014882D01*
X4809591Y-1017016D01*
X4803394Y-1020571D01*
X4799228Y-1024178D01*
X4785512Y-1037894D01*
X4782210Y-1040079D01*
X4778298Y-1040892D01*
X4618278Y-1040892D01*
X4614367Y-1040079D01*
X4611065Y-1037894D01*
X4608880Y-1034592D01*
X4608118Y-1030732D01*
X4608118Y-956716D01*
X4608880Y-952804D01*
X4611065Y-949502D01*
X4614367Y-947318D01*
X4618278Y-946556D01*
X5219598Y-946556D01*
X5223510Y-947318D01*
X5226812Y-949502D01*
X5228996Y-952804D01*
X5229758Y-956716D01*
X5228996Y-960577D01*
X5226812Y-963879D01*
X5212232Y-978458D01*
X5207457Y-984300D01*
X5204307Y-990549D01*
X5202478Y-997407D01*
X5202021Y-1002944D01*
X5202021Y-1060704D01*
X5201462Y-1064056D01*
X5199786Y-1067054D01*
X5195519Y-1070406D01*
X5191455Y-1074470D01*
X5188356Y-1079398D01*
X5186426Y-1084834D01*
X5185714Y-1091184D01*
X5185714Y-1125626D01*
X5184952Y-1129538D01*
X5182768Y-1132789D01*
X5179466Y-1135024D01*
X5175554Y-1135786D01*
G37*

%LPD*%
G36*
X1629714Y-1167384D02*
G01*
X1625854Y-1166571D01*
X1622552Y-1164386D01*
X1595221Y-1137056D01*
X1592986Y-1133754D01*
X1592224Y-1129893D01*
X1592986Y-1125982D01*
X1595221Y-1122680D01*
X1598523Y-1120495D01*
X1602384Y-1119733D01*
X1605127Y-1119733D01*
X1605127Y-1086662D01*
X1571396Y-1086662D01*
X1571396Y-1088745D01*
X1570634Y-1092606D01*
X1568450Y-1095908D01*
X1565148Y-1098092D01*
X1561236Y-1098905D01*
X1557375Y-1098092D01*
X1554073Y-1095908D01*
X1505356Y-1047191D01*
X1503019Y-1043482D01*
X1502410Y-1039114D01*
X1503730Y-1034948D01*
X1506728Y-1031697D01*
X1510842Y-1028801D01*
X1517802Y-1021892D01*
X1523441Y-1013815D01*
X1527556Y-1004925D01*
X1530096Y-995426D01*
X1530959Y-985672D01*
X1530096Y-975868D01*
X1529130Y-972159D01*
X1528826Y-968451D01*
X1529892Y-964895D01*
X1532128Y-961948D01*
X1535277Y-960018D01*
X1538935Y-959358D01*
X1708759Y-959358D01*
X1712620Y-960119D01*
X1715922Y-962355D01*
X1718106Y-965606D01*
X1718919Y-969518D01*
X1718919Y-1003757D01*
X1718106Y-1007618D01*
X1715922Y-1010919D01*
X1712620Y-1013104D01*
X1708759Y-1013917D01*
X1699463Y-1013917D01*
X1693164Y-1014628D01*
X1687677Y-1016508D01*
X1681734Y-1020216D01*
X1678228Y-1021587D01*
X1674469Y-1021587D01*
X1670964Y-1020216D01*
X1665122Y-1016508D01*
X1659636Y-1014628D01*
X1653336Y-1013917D01*
X1646072Y-1013917D01*
X1646072Y-1046937D01*
X1662836Y-1046937D01*
X1666748Y-1047699D01*
X1670050Y-1049934D01*
X1672234Y-1053236D01*
X1672996Y-1057097D01*
X1672996Y-1076502D01*
X1672234Y-1080363D01*
X1670050Y-1083665D01*
X1666748Y-1085900D01*
X1662836Y-1086662D01*
X1646072Y-1086662D01*
X1646072Y-1119733D01*
X1653336Y-1119733D01*
X1659636Y-1118971D01*
X1665122Y-1117092D01*
X1671066Y-1113383D01*
X1674571Y-1112012D01*
X1678330Y-1112012D01*
X1681835Y-1113383D01*
X1687677Y-1117092D01*
X1693164Y-1118971D01*
X1699463Y-1119733D01*
X1754886Y-1119733D01*
X1756816Y-1119479D01*
X1760880Y-1119835D01*
X1764487Y-1121816D01*
X1767027Y-1124966D01*
X1768093Y-1128928D01*
X1767535Y-1132941D01*
X1765452Y-1136446D01*
X1762150Y-1138834D01*
X1757934Y-1141272D01*
X1752752Y-1145997D01*
X1748637Y-1151636D01*
X1747164Y-1154531D01*
X1745284Y-1160322D01*
X1743151Y-1163980D01*
X1739747Y-1166469D01*
X1735582Y-1167384D01*
G37*

%LPC*%
G36*
X1571396Y-1046937D02*
G01*
X1605127Y-1046937D01*
X1605127Y-1013917D01*
X1597914Y-1013917D01*
X1591564Y-1014628D01*
X1586128Y-1016508D01*
X1581200Y-1019606D01*
X1577136Y-1023670D01*
X1574038Y-1028598D01*
X1572107Y-1034034D01*
X1571396Y-1040384D01*
G37*

%LPD*%
G36*
X1893163Y-1186484D02*
G01*
X1889252Y-1185672D01*
X1885950Y-1183487D01*
X1883765Y-1180185D01*
X1883003Y-1176324D01*
X1883003Y-1158697D01*
X1883765Y-1154836D01*
X1885950Y-1151534D01*
X1889252Y-1149299D01*
X1893163Y-1148537D01*
X1909927Y-1148537D01*
X1909927Y-1086662D01*
X1893163Y-1086662D01*
X1889252Y-1085900D01*
X1885950Y-1083665D01*
X1883765Y-1080363D01*
X1883003Y-1076502D01*
X1883003Y-1057097D01*
X1883765Y-1053236D01*
X1885950Y-1049934D01*
X1889252Y-1047699D01*
X1893163Y-1046937D01*
X1909927Y-1046937D01*
X1909927Y-1013917D01*
X1902663Y-1013917D01*
X1896364Y-1014628D01*
X1890877Y-1016508D01*
X1884934Y-1020216D01*
X1881428Y-1021587D01*
X1877669Y-1021587D01*
X1874164Y-1020216D01*
X1868322Y-1016508D01*
X1862836Y-1014628D01*
X1856536Y-1013917D01*
X1801114Y-1013917D01*
X1797253Y-1014323D01*
X1793036Y-1013917D01*
X1789328Y-1011783D01*
X1786839Y-1008380D01*
X1785975Y-1004214D01*
X1785975Y-884732D01*
X1786737Y-880871D01*
X1788922Y-877569D01*
X1930704Y-735787D01*
X1935530Y-729792D01*
X1937969Y-725373D01*
X1939188Y-721614D01*
X1941322Y-718007D01*
X1944725Y-715568D01*
X1948840Y-714705D01*
X1981809Y-714705D01*
X1988108Y-713994D01*
X1993595Y-712063D01*
X1998472Y-709015D01*
X2002586Y-704900D01*
X2005685Y-700024D01*
X2007565Y-694537D01*
X2008276Y-688238D01*
X2008276Y-449072D01*
X2009038Y-445160D01*
X2011273Y-441909D01*
X2014575Y-439674D01*
X2018436Y-438912D01*
X2096363Y-438912D01*
X2100224Y-439674D01*
X2103526Y-441909D01*
X2105761Y-445160D01*
X2106523Y-449072D01*
X2106523Y-688238D01*
X2107234Y-694537D01*
X2109063Y-699820D01*
X2109571Y-704138D01*
X2108250Y-708304D01*
X2105304Y-711504D01*
X2100224Y-715060D01*
X2093315Y-721969D01*
X2087676Y-730046D01*
X2083511Y-738936D01*
X2080971Y-748436D01*
X2080107Y-758240D01*
X2080412Y-761695D01*
X2079853Y-766064D01*
X2077466Y-769772D01*
X2016201Y-831087D01*
X2011425Y-836930D01*
X2008276Y-843178D01*
X2006447Y-850036D01*
X2005990Y-855573D01*
X2005990Y-1007211D01*
X2005431Y-1010615D01*
X2003755Y-1013612D01*
X2001164Y-1015847D01*
X1995119Y-1019606D01*
X1992122Y-1022553D01*
X1988870Y-1024788D01*
X1984959Y-1025550D01*
X1981047Y-1024788D01*
X1977796Y-1022553D01*
X1974799Y-1019606D01*
X1969871Y-1016508D01*
X1964436Y-1014628D01*
X1958086Y-1013917D01*
X1950872Y-1013917D01*
X1950872Y-1046937D01*
X1975154Y-1046937D01*
X1979066Y-1047699D01*
X1982368Y-1049934D01*
X1984552Y-1053236D01*
X1985314Y-1057097D01*
X1985314Y-1076502D01*
X1984552Y-1080363D01*
X1982368Y-1083665D01*
X1979066Y-1085900D01*
X1975154Y-1086662D01*
X1950872Y-1086662D01*
X1950872Y-1148537D01*
X1984603Y-1148537D01*
X1984603Y-1141984D01*
X1983892Y-1135634D01*
X1981962Y-1130198D01*
X1980285Y-1127455D01*
X1978863Y-1123848D01*
X1978914Y-1119987D01*
X1980438Y-1116380D01*
X1983181Y-1113637D01*
X1986788Y-1112113D01*
X1990648Y-1112062D01*
X1994255Y-1113485D01*
X2000046Y-1117092D01*
X2005482Y-1118971D01*
X2011781Y-1119733D01*
X2067255Y-1119733D01*
X2073554Y-1118971D01*
X2079447Y-1116939D01*
X2082800Y-1116380D01*
X2086152Y-1116939D01*
X2092045Y-1118971D01*
X2098344Y-1119733D01*
X2147570Y-1119733D01*
X2151380Y-1120444D01*
X2154580Y-1122527D01*
X2156815Y-1125677D01*
X2157730Y-1129436D01*
X2157171Y-1133246D01*
X2156307Y-1135634D01*
X2155596Y-1141984D01*
X2155596Y-1158138D01*
X2154834Y-1162050D01*
X2152650Y-1165301D01*
X2149348Y-1167536D01*
X2145436Y-1168298D01*
X2025396Y-1168298D01*
X2017928Y-1169111D01*
X2011273Y-1171244D01*
X2005075Y-1174800D01*
X2000910Y-1178407D01*
X1995830Y-1183487D01*
X1992528Y-1185672D01*
X1988616Y-1186484D01*
G37*

%LPD*%
G36*
X5059781Y-1540865D02*
G01*
X5055920Y-1540103D01*
X5052618Y-1537868D01*
X5050383Y-1534617D01*
X5049621Y-1530705D01*
X5050383Y-1526794D01*
X5052618Y-1523542D01*
X5116423Y-1459687D01*
X5119725Y-1457502D01*
X5123637Y-1456740D01*
X5269636Y-1456740D01*
X5273548Y-1457502D01*
X5276850Y-1459687D01*
X5279034Y-1462989D01*
X5279796Y-1466900D01*
X5279796Y-1482902D01*
X5279034Y-1486763D01*
X5276850Y-1490065D01*
X5273548Y-1492300D01*
X5269636Y-1493062D01*
X5252872Y-1493062D01*
X5252872Y-1511757D01*
X5252110Y-1515618D01*
X5249926Y-1518920D01*
X5246624Y-1521104D01*
X5242712Y-1521917D01*
X5222087Y-1521917D01*
X5218176Y-1521104D01*
X5214874Y-1518920D01*
X5212689Y-1515618D01*
X5211927Y-1511757D01*
X5211927Y-1493062D01*
X5178196Y-1493062D01*
X5178196Y-1499616D01*
X5178907Y-1505966D01*
X5180838Y-1511401D01*
X5183936Y-1516329D01*
X5188712Y-1521155D01*
X5190693Y-1523898D01*
X5191658Y-1527200D01*
X5191455Y-1530553D01*
X5190134Y-1533702D01*
X5188661Y-1536090D01*
X5186375Y-1538630D01*
X5183378Y-1540306D01*
X5180025Y-1540865D01*
G37*

%LPD*%
G36*
X3139897Y-1800250D02*
G01*
X3136036Y-1799488D01*
X3132734Y-1797253D01*
X2705201Y-1369720D01*
X2699308Y-1364996D01*
X2693111Y-1361795D01*
X2686202Y-1359966D01*
X2680716Y-1359560D01*
X1988769Y-1359560D01*
X1984857Y-1358747D01*
X1981555Y-1356563D01*
X1964537Y-1339494D01*
X1962251Y-1336040D01*
X1961540Y-1331925D01*
X1962556Y-1327912D01*
X1965096Y-1324610D01*
X1968703Y-1322628D01*
X1972818Y-1322222D01*
X1978914Y-1322933D01*
X2034336Y-1322933D01*
X2040636Y-1322171D01*
X2046122Y-1320292D01*
X2052066Y-1316583D01*
X2055571Y-1315212D01*
X2059330Y-1315212D01*
X2062835Y-1316583D01*
X2068677Y-1320292D01*
X2074164Y-1322171D01*
X2080463Y-1322933D01*
X2087727Y-1322933D01*
X2087727Y-1289862D01*
X2070963Y-1289862D01*
X2067052Y-1289100D01*
X2063750Y-1286865D01*
X2061565Y-1283563D01*
X2060803Y-1279702D01*
X2060803Y-1260297D01*
X2061565Y-1256436D01*
X2063750Y-1253134D01*
X2067052Y-1250899D01*
X2070963Y-1250137D01*
X2087727Y-1250137D01*
X2087727Y-1245514D01*
X2088489Y-1241602D01*
X2090674Y-1238351D01*
X2093975Y-1236116D01*
X2097887Y-1235354D01*
X2118512Y-1235354D01*
X2122424Y-1236116D01*
X2125726Y-1238351D01*
X2127910Y-1241602D01*
X2128672Y-1245514D01*
X2128672Y-1250137D01*
X2145436Y-1250137D01*
X2149348Y-1250899D01*
X2152650Y-1253134D01*
X2154834Y-1256436D01*
X2155596Y-1260297D01*
X2155596Y-1279702D01*
X2154834Y-1283563D01*
X2152650Y-1286865D01*
X2149348Y-1289100D01*
X2145436Y-1289862D01*
X2128672Y-1289862D01*
X2128672Y-1322933D01*
X2135886Y-1322933D01*
X2142236Y-1322171D01*
X2147722Y-1320292D01*
X2153666Y-1316583D01*
X2157171Y-1315212D01*
X2160930Y-1315212D01*
X2164435Y-1316583D01*
X2170328Y-1320292D01*
X2175764Y-1322171D01*
X2182114Y-1322933D01*
X2237536Y-1322933D01*
X2243836Y-1322171D01*
X2249322Y-1320292D01*
X2255266Y-1316583D01*
X2258771Y-1315212D01*
X2262530Y-1315212D01*
X2266035Y-1316583D01*
X2271877Y-1320292D01*
X2277364Y-1322171D01*
X2283663Y-1322933D01*
X2290927Y-1322933D01*
X2290927Y-1289862D01*
X2274163Y-1289862D01*
X2270252Y-1289100D01*
X2266950Y-1286865D01*
X2264765Y-1283563D01*
X2264003Y-1279702D01*
X2264003Y-1260297D01*
X2264765Y-1256436D01*
X2266950Y-1253134D01*
X2270252Y-1250899D01*
X2274163Y-1250137D01*
X2290927Y-1250137D01*
X2290927Y-1188262D01*
X2274163Y-1188262D01*
X2270252Y-1187500D01*
X2266950Y-1185265D01*
X2264765Y-1181963D01*
X2264003Y-1178102D01*
X2264003Y-1158697D01*
X2264765Y-1154836D01*
X2266950Y-1151534D01*
X2270252Y-1149299D01*
X2274163Y-1148537D01*
X2290927Y-1148537D01*
X2290927Y-1115517D01*
X2283663Y-1115517D01*
X2277364Y-1116228D01*
X2271877Y-1118108D01*
X2265934Y-1121816D01*
X2262428Y-1123188D01*
X2258669Y-1123188D01*
X2255164Y-1121816D01*
X2249322Y-1118108D01*
X2243836Y-1116228D01*
X2237536Y-1115517D01*
X2188311Y-1115517D01*
X2184501Y-1114755D01*
X2181301Y-1112672D01*
X2179066Y-1109522D01*
X2178151Y-1105763D01*
X2178710Y-1101953D01*
X2179574Y-1099566D01*
X2180285Y-1093216D01*
X2180285Y-1040384D01*
X2179574Y-1034034D01*
X2177643Y-1028598D01*
X2175865Y-1025753D01*
X2174544Y-1022603D01*
X2174341Y-1019200D01*
X2175306Y-1015898D01*
X2177288Y-1013155D01*
X2230729Y-959662D01*
X2235504Y-953820D01*
X2238654Y-947572D01*
X2240483Y-940714D01*
X2240940Y-935177D01*
X2240940Y-724865D01*
X2241702Y-720953D01*
X2243937Y-717702D01*
X2247188Y-715467D01*
X2251100Y-714705D01*
X2281834Y-714705D01*
X2288133Y-713994D01*
X2293620Y-712063D01*
X2298496Y-709015D01*
X2302611Y-704900D01*
X2305710Y-700024D01*
X2307590Y-694537D01*
X2308301Y-688238D01*
X2308301Y-449072D01*
X2309063Y-445160D01*
X2311298Y-441909D01*
X2314600Y-439674D01*
X2318461Y-438912D01*
X3167938Y-438912D01*
X3171799Y-439674D01*
X3175101Y-441909D01*
X3177336Y-445160D01*
X3178098Y-449072D01*
X3178098Y-688238D01*
X3178810Y-694537D01*
X3180689Y-700024D01*
X3183788Y-704900D01*
X3187903Y-709015D01*
X3192780Y-712063D01*
X3198266Y-713994D01*
X3204565Y-714705D01*
X3237534Y-714705D01*
X3241649Y-715568D01*
X3245053Y-718007D01*
X3247186Y-721614D01*
X3248406Y-725271D01*
X3251962Y-731469D01*
X3255568Y-735685D01*
X3535629Y-1015746D01*
X3541522Y-1020521D01*
X3547719Y-1023670D01*
X3554628Y-1025499D01*
X3560114Y-1025956D01*
X3829558Y-1025956D01*
X3833622Y-1026820D01*
X3837025Y-1029258D01*
X3839159Y-1032865D01*
X3839667Y-1036980D01*
X3838905Y-1045921D01*
X3839768Y-1055674D01*
X3842308Y-1065174D01*
X3846423Y-1074064D01*
X3852062Y-1082141D01*
X3859022Y-1089050D01*
X3867048Y-1094689D01*
X3875989Y-1098854D01*
X3885437Y-1101394D01*
X3895242Y-1102258D01*
X3905046Y-1101394D01*
X3914495Y-1098854D01*
X3923436Y-1094689D01*
X3931462Y-1089050D01*
X3938422Y-1082141D01*
X3944061Y-1074064D01*
X3948176Y-1065174D01*
X3950715Y-1055674D01*
X3951579Y-1045921D01*
X3950817Y-1036980D01*
X3951325Y-1032865D01*
X3953459Y-1029258D01*
X3956862Y-1026820D01*
X3960926Y-1025956D01*
X4063949Y-1025956D01*
X4068114Y-1026871D01*
X4071518Y-1029360D01*
X4073651Y-1033068D01*
X4074007Y-1037285D01*
X4072686Y-1041349D01*
X4069791Y-1044448D01*
X4064050Y-1048410D01*
X4057142Y-1055370D01*
X4051503Y-1063396D01*
X4047337Y-1072337D01*
X4044797Y-1081786D01*
X4043934Y-1091590D01*
X4044797Y-1101394D01*
X4047337Y-1110843D01*
X4051503Y-1119784D01*
X4057142Y-1127810D01*
X4064050Y-1134770D01*
X4072128Y-1140409D01*
X4081018Y-1144524D01*
X4090466Y-1147064D01*
X4101490Y-1147978D01*
X4105148Y-1148994D01*
X4108196Y-1151331D01*
X4110177Y-1154633D01*
X4110786Y-1158392D01*
X4109974Y-1162100D01*
X4107840Y-1165301D01*
X3555288Y-1717802D01*
X3551682Y-1722069D01*
X3549853Y-1725066D01*
X3547008Y-1728165D01*
X3542487Y-1731314D01*
X3535578Y-1738223D01*
X3529939Y-1746300D01*
X3525774Y-1755190D01*
X3523234Y-1764690D01*
X3522370Y-1774494D01*
X3523234Y-1784248D01*
X3524097Y-1787448D01*
X3524402Y-1791157D01*
X3523335Y-1794713D01*
X3521100Y-1797659D01*
X3517950Y-1799589D01*
X3514293Y-1800250D01*
G37*

%LPC*%
G36*
X3280765Y-1708302D02*
G01*
X3290570Y-1707438D01*
X3300069Y-1704898D01*
X3308959Y-1700784D01*
X3317036Y-1695145D01*
X3323945Y-1688185D01*
X3329584Y-1680159D01*
X3333750Y-1671218D01*
X3336290Y-1661769D01*
X3337153Y-1651965D01*
X3336290Y-1642160D01*
X3333750Y-1632712D01*
X3329584Y-1623771D01*
X3323945Y-1615744D01*
X3317036Y-1608785D01*
X3308959Y-1603146D01*
X3300069Y-1599031D01*
X3290570Y-1596491D01*
X3280765Y-1595628D01*
X3271012Y-1596491D01*
X3261512Y-1599031D01*
X3252622Y-1603146D01*
X3244545Y-1608785D01*
X3237636Y-1615744D01*
X3231997Y-1623771D01*
X3227832Y-1632712D01*
X3225292Y-1642160D01*
X3224428Y-1651965D01*
X3225292Y-1661769D01*
X3227832Y-1671218D01*
X3231997Y-1680159D01*
X3237636Y-1688185D01*
X3244545Y-1695145D01*
X3252622Y-1700784D01*
X3261512Y-1704898D01*
X3271012Y-1707438D01*
G37*
G36*
X3027222Y-1546250D02*
G01*
X3036976Y-1545386D01*
X3046476Y-1542846D01*
X3055366Y-1538732D01*
X3063443Y-1533093D01*
X3070352Y-1526133D01*
X3075990Y-1518107D01*
X3080156Y-1509166D01*
X3082696Y-1499717D01*
X3083560Y-1489913D01*
X3082696Y-1480108D01*
X3080156Y-1470660D01*
X3075990Y-1461719D01*
X3070352Y-1453692D01*
X3063443Y-1446733D01*
X3055366Y-1441094D01*
X3046476Y-1436979D01*
X3036976Y-1434439D01*
X3027222Y-1433576D01*
X3017418Y-1434439D01*
X3007918Y-1436979D01*
X2999028Y-1441094D01*
X2990951Y-1446733D01*
X2984042Y-1453692D01*
X2978404Y-1461719D01*
X2974238Y-1470660D01*
X2971698Y-1480108D01*
X2970834Y-1489913D01*
X2971698Y-1499717D01*
X2974238Y-1509166D01*
X2978404Y-1518107D01*
X2984042Y-1526133D01*
X2990951Y-1533093D01*
X2999028Y-1538732D01*
X3007918Y-1542846D01*
X3017418Y-1545386D01*
G37*
G36*
X2841599Y-1449324D02*
G01*
X2851404Y-1448460D01*
X2860852Y-1445920D01*
X2869793Y-1441754D01*
X2877820Y-1436116D01*
X2884779Y-1429207D01*
X2890418Y-1421130D01*
X2894533Y-1412240D01*
X2897073Y-1402740D01*
X2897936Y-1392986D01*
X2897073Y-1383182D01*
X2894533Y-1373682D01*
X2890418Y-1364792D01*
X2884779Y-1356715D01*
X2877820Y-1349806D01*
X2869793Y-1344168D01*
X2860852Y-1340002D01*
X2851404Y-1337462D01*
X2841599Y-1336598D01*
X2831795Y-1337462D01*
X2822346Y-1340002D01*
X2813405Y-1344168D01*
X2805379Y-1349806D01*
X2798419Y-1356715D01*
X2792780Y-1364792D01*
X2788666Y-1373682D01*
X2786126Y-1383182D01*
X2785262Y-1392986D01*
X2786126Y-1402740D01*
X2788666Y-1412240D01*
X2792780Y-1421130D01*
X2798419Y-1429207D01*
X2805379Y-1436116D01*
X2813405Y-1441754D01*
X2822346Y-1445920D01*
X2831795Y-1448460D01*
G37*
G36*
X3578758Y-1448511D02*
G01*
X3588512Y-1447647D01*
X3598011Y-1445107D01*
X3606901Y-1440992D01*
X3614978Y-1435354D01*
X3621887Y-1428394D01*
X3627526Y-1420368D01*
X3631692Y-1411427D01*
X3634232Y-1401978D01*
X3635095Y-1392174D01*
X3634232Y-1382369D01*
X3631692Y-1372920D01*
X3627526Y-1363980D01*
X3621887Y-1355953D01*
X3614978Y-1348994D01*
X3606901Y-1343355D01*
X3598011Y-1339240D01*
X3588512Y-1336700D01*
X3578758Y-1335836D01*
X3568954Y-1336700D01*
X3559454Y-1339240D01*
X3550564Y-1343355D01*
X3542487Y-1348994D01*
X3535578Y-1355953D01*
X3529939Y-1363980D01*
X3525774Y-1372920D01*
X3523234Y-1382369D01*
X3522370Y-1392174D01*
X3523234Y-1401978D01*
X3525774Y-1411427D01*
X3529939Y-1420368D01*
X3535578Y-1428394D01*
X3542487Y-1435354D01*
X3550564Y-1440992D01*
X3559454Y-1445107D01*
X3568954Y-1447647D01*
G37*
G36*
X2331872Y-1322933D02*
G01*
X2339086Y-1322933D01*
X2345436Y-1322171D01*
X2350871Y-1320292D01*
X2355799Y-1317193D01*
X2359863Y-1313129D01*
X2362962Y-1308201D01*
X2364892Y-1302766D01*
X2365603Y-1296416D01*
X2365603Y-1289862D01*
X2331872Y-1289862D01*
G37*
G36*
X3044748Y-1322273D02*
G01*
X3054553Y-1321409D01*
X3064002Y-1318869D01*
X3072942Y-1314754D01*
X3080969Y-1309116D01*
X3087928Y-1302156D01*
X3093567Y-1294130D01*
X3097682Y-1285189D01*
X3100222Y-1275740D01*
X3101086Y-1265936D01*
X3100222Y-1256131D01*
X3097682Y-1246682D01*
X3093567Y-1237742D01*
X3087928Y-1229715D01*
X3080969Y-1222756D01*
X3072942Y-1217117D01*
X3064002Y-1213002D01*
X3054553Y-1210462D01*
X3044748Y-1209598D01*
X3034944Y-1210462D01*
X3025495Y-1213002D01*
X3016554Y-1217117D01*
X3008528Y-1222756D01*
X3001568Y-1229715D01*
X2995930Y-1237742D01*
X2991815Y-1246682D01*
X2989275Y-1256131D01*
X2988411Y-1265936D01*
X2989275Y-1275740D01*
X2991815Y-1285189D01*
X2995930Y-1294130D01*
X3001568Y-1302156D01*
X3008528Y-1309116D01*
X3016554Y-1314754D01*
X3025495Y-1318869D01*
X3034944Y-1321409D01*
G37*
G36*
X2331872Y-1250137D02*
G01*
X2365603Y-1250137D01*
X2365603Y-1243584D01*
X2364892Y-1237234D01*
X2362962Y-1231798D01*
X2357170Y-1223111D01*
X2356408Y-1219200D01*
X2357170Y-1215288D01*
X2359863Y-1211529D01*
X2362962Y-1206601D01*
X2364892Y-1201166D01*
X2365603Y-1194816D01*
X2365603Y-1188262D01*
X2331872Y-1188262D01*
G37*
G36*
X2331872Y-1148537D02*
G01*
X2365603Y-1148537D01*
X2365603Y-1141984D01*
X2364892Y-1135634D01*
X2362962Y-1130198D01*
X2359863Y-1125270D01*
X2355799Y-1121206D01*
X2350871Y-1118108D01*
X2345436Y-1116228D01*
X2339086Y-1115517D01*
X2331872Y-1115517D01*
G37*
G36*
X2350312Y-1056284D02*
G01*
X2360066Y-1055420D01*
X2369566Y-1052880D01*
X2378456Y-1048715D01*
X2386533Y-1043076D01*
X2393442Y-1036167D01*
X2399080Y-1028090D01*
X2403246Y-1019200D01*
X2405786Y-1009700D01*
X2406650Y-999947D01*
X2405786Y-990142D01*
X2403246Y-980643D01*
X2399080Y-971753D01*
X2393442Y-963676D01*
X2386533Y-956767D01*
X2378456Y-951128D01*
X2369566Y-946962D01*
X2360066Y-944422D01*
X2350312Y-943559D01*
X2340508Y-944422D01*
X2331008Y-946962D01*
X2322118Y-951128D01*
X2314041Y-956767D01*
X2307132Y-963676D01*
X2301494Y-971753D01*
X2297328Y-980643D01*
X2294788Y-990142D01*
X2293924Y-999947D01*
X2294788Y-1009700D01*
X2297328Y-1019200D01*
X2301494Y-1028090D01*
X2307132Y-1036167D01*
X2314041Y-1043076D01*
X2322118Y-1048715D01*
X2331008Y-1052880D01*
X2340508Y-1055420D01*
G37*
G36*
X2742234Y-878179D02*
G01*
X2751988Y-877316D01*
X2761488Y-874776D01*
X2770378Y-870610D01*
X2778455Y-864971D01*
X2785364Y-858062D01*
X2791002Y-849985D01*
X2795168Y-841095D01*
X2797708Y-831596D01*
X2798572Y-821791D01*
X2797708Y-812038D01*
X2795168Y-802538D01*
X2791002Y-793648D01*
X2785364Y-785571D01*
X2778455Y-778662D01*
X2770378Y-773023D01*
X2761488Y-768858D01*
X2751988Y-766318D01*
X2742234Y-765454D01*
X2732430Y-766318D01*
X2722930Y-768858D01*
X2714040Y-773023D01*
X2705963Y-778662D01*
X2699054Y-785571D01*
X2693416Y-793648D01*
X2689250Y-802538D01*
X2686710Y-812038D01*
X2685846Y-821791D01*
X2686710Y-831596D01*
X2689250Y-841095D01*
X2693416Y-849985D01*
X2699054Y-858062D01*
X2705963Y-864971D01*
X2714040Y-870610D01*
X2722930Y-874776D01*
X2732430Y-877316D01*
G37*

%LPD*%
G36*
X3401872Y-2187905D02*
G01*
X3398012Y-2187092D01*
X3394710Y-2184908D01*
X3016250Y-1806448D01*
X3013862Y-1802739D01*
X3013303Y-1798370D01*
X3013456Y-1796440D01*
X3014522Y-1792782D01*
X3016808Y-1789734D01*
X3020110Y-1787804D01*
X3023870Y-1787194D01*
X3027578Y-1788007D01*
X3030778Y-1790141D01*
X3097733Y-1857095D01*
X3103575Y-1861870D01*
X3109823Y-1865020D01*
X3116681Y-1866849D01*
X3122218Y-1867306D01*
X3825341Y-1867306D01*
X3832809Y-1866544D01*
X3839464Y-1864360D01*
X3845661Y-1860804D01*
X3849827Y-1857197D01*
X4196130Y-1510893D01*
X4199432Y-1508709D01*
X4203344Y-1507947D01*
X4279900Y-1507947D01*
X4284014Y-1508760D01*
X4287367Y-1511198D01*
X4289501Y-1514805D01*
X4290009Y-1518970D01*
X4289094Y-1529384D01*
X4289958Y-1539189D01*
X4292498Y-1548638D01*
X4296664Y-1557578D01*
X4302302Y-1565605D01*
X4309211Y-1572564D01*
X4317288Y-1578203D01*
X4326178Y-1582318D01*
X4335678Y-1584858D01*
X4345482Y-1585722D01*
X4355236Y-1584858D01*
X4364736Y-1582318D01*
X4373626Y-1578203D01*
X4381703Y-1572564D01*
X4388358Y-1565910D01*
X4391660Y-1563674D01*
X4395520Y-1562912D01*
X4483811Y-1562912D01*
X4491431Y-1562100D01*
X4496257Y-1560677D01*
X4501896Y-1558188D01*
X4504182Y-1557934D01*
X4516120Y-1557934D01*
X4520031Y-1558696D01*
X4523333Y-1560931D01*
X4525518Y-1564182D01*
X4526280Y-1568094D01*
X4526280Y-1611630D01*
X4525416Y-1615795D01*
X4522876Y-1619199D01*
X4519168Y-1621332D01*
X4514951Y-1621739D01*
X4510938Y-1620367D01*
X4507788Y-1617472D01*
X4502505Y-1609902D01*
X4495596Y-1602943D01*
X4487519Y-1597304D01*
X4478629Y-1593189D01*
X4469130Y-1590649D01*
X4459376Y-1589786D01*
X4449572Y-1590649D01*
X4440072Y-1593189D01*
X4431182Y-1597304D01*
X4423105Y-1602943D01*
X4416196Y-1609902D01*
X4410557Y-1617929D01*
X4406392Y-1626870D01*
X4403852Y-1636318D01*
X4402988Y-1646123D01*
X4403852Y-1655927D01*
X4406392Y-1665376D01*
X4410557Y-1674317D01*
X4416196Y-1682343D01*
X4423105Y-1689303D01*
X4431182Y-1694942D01*
X4440072Y-1699056D01*
X4449572Y-1701596D01*
X4459376Y-1702460D01*
X4469130Y-1701596D01*
X4478629Y-1699056D01*
X4487519Y-1694942D01*
X4495596Y-1689303D01*
X4502505Y-1682343D01*
X4507788Y-1674774D01*
X4510938Y-1671878D01*
X4514951Y-1670507D01*
X4519168Y-1670913D01*
X4522876Y-1673047D01*
X4525416Y-1676450D01*
X4526280Y-1680616D01*
X4526280Y-1770989D01*
X4525467Y-1775053D01*
X4523028Y-1778457D01*
X4519472Y-1780590D01*
X4515358Y-1781149D01*
X4511395Y-1779981D01*
X4508195Y-1777339D01*
X4506315Y-1773631D01*
X4504944Y-1768500D01*
X4500778Y-1759559D01*
X4495139Y-1751533D01*
X4488230Y-1744573D01*
X4480153Y-1738934D01*
X4471263Y-1734820D01*
X4461764Y-1732280D01*
X4452010Y-1731416D01*
X4442206Y-1732280D01*
X4432706Y-1734820D01*
X4425442Y-1738172D01*
X4421428Y-1739138D01*
X4417415Y-1738426D01*
X4413961Y-1736140D01*
X4411065Y-1733245D01*
X4402988Y-1727606D01*
X4394098Y-1723440D01*
X4384598Y-1720900D01*
X4374845Y-1720037D01*
X4365040Y-1720900D01*
X4355541Y-1723440D01*
X4346651Y-1727606D01*
X4338574Y-1733245D01*
X4331665Y-1740154D01*
X4326026Y-1748231D01*
X4321860Y-1757121D01*
X4319320Y-1766620D01*
X4318457Y-1776425D01*
X4319320Y-1786178D01*
X4321860Y-1795678D01*
X4326026Y-1804568D01*
X4331665Y-1812645D01*
X4338574Y-1819554D01*
X4346651Y-1825193D01*
X4355541Y-1829358D01*
X4365040Y-1831898D01*
X4374845Y-1832762D01*
X4384598Y-1831898D01*
X4394098Y-1829358D01*
X4401362Y-1825955D01*
X4405325Y-1825040D01*
X4409287Y-1825701D01*
X4412742Y-1827885D01*
X4416704Y-1831695D01*
X4418939Y-1834997D01*
X4419752Y-1838909D01*
X4418990Y-1842871D01*
X4416806Y-1846173D01*
X4382262Y-1880717D01*
X4377486Y-1886610D01*
X4374337Y-1892807D01*
X4372508Y-1899716D01*
X4372051Y-1905203D01*
X4372051Y-2022856D01*
X4371289Y-2026767D01*
X4369054Y-2030069D01*
X4362399Y-2036724D01*
X4356760Y-2044750D01*
X4352645Y-2053691D01*
X4350105Y-2063140D01*
X4349242Y-2072944D01*
X4350105Y-2082749D01*
X4352645Y-2092198D01*
X4356760Y-2101138D01*
X4362399Y-2109165D01*
X4369358Y-2116124D01*
X4377385Y-2121763D01*
X4386326Y-2125878D01*
X4395774Y-2128418D01*
X4402074Y-2128977D01*
X4406239Y-2130298D01*
X4409490Y-2133295D01*
X4411167Y-2137359D01*
X4410964Y-2141728D01*
X4409846Y-2146046D01*
X4408982Y-2155850D01*
X4409846Y-2165604D01*
X4411878Y-2173173D01*
X4412132Y-2176881D01*
X4411116Y-2180437D01*
X4408830Y-2183384D01*
X4405680Y-2185314D01*
X4402023Y-2185974D01*
X4390288Y-2185974D01*
X4383938Y-2186686D01*
X4378858Y-2187905D01*
G37*

%LPC*%
G36*
X4247997Y-1686610D02*
G01*
X4257751Y-1685747D01*
X4267250Y-1683207D01*
X4276140Y-1679092D01*
X4284218Y-1673453D01*
X4291126Y-1666493D01*
X4296765Y-1658467D01*
X4300931Y-1649526D01*
X4303471Y-1640078D01*
X4304334Y-1630273D01*
X4303471Y-1620469D01*
X4300931Y-1611020D01*
X4296765Y-1602079D01*
X4291126Y-1594053D01*
X4284218Y-1587093D01*
X4276140Y-1581454D01*
X4267250Y-1577340D01*
X4257751Y-1574800D01*
X4247997Y-1573936D01*
X4238193Y-1574800D01*
X4228693Y-1577340D01*
X4219803Y-1581454D01*
X4211726Y-1587093D01*
X4204817Y-1594053D01*
X4199178Y-1602079D01*
X4195013Y-1611020D01*
X4192473Y-1620469D01*
X4191609Y-1630273D01*
X4192473Y-1640078D01*
X4195013Y-1649526D01*
X4199178Y-1658467D01*
X4204817Y-1666493D01*
X4211726Y-1673453D01*
X4219803Y-1679092D01*
X4228693Y-1683207D01*
X4238193Y-1685747D01*
G37*

%LPD*%
G36*
X2811526Y-2811881D02*
G01*
X2807614Y-2811119D01*
X2804312Y-2808884D01*
X2791561Y-2796133D01*
X2785719Y-2791409D01*
X2779471Y-2788208D01*
X2772613Y-2786380D01*
X2767076Y-2785973D01*
X2723692Y-2785973D01*
X2716225Y-2786735D01*
X2709570Y-2788920D01*
X2703372Y-2792476D01*
X2699156Y-2796032D01*
X2686456Y-2808782D01*
X2683154Y-2810967D01*
X2679242Y-2811780D01*
X2318461Y-2811780D01*
X2314600Y-2810967D01*
X2311298Y-2808782D01*
X2309063Y-2805480D01*
X2308301Y-2801620D01*
X2308301Y-2562961D01*
X2307590Y-2556662D01*
X2305710Y-2551176D01*
X2302611Y-2546299D01*
X2298496Y-2542184D01*
X2293620Y-2539136D01*
X2288133Y-2537206D01*
X2281834Y-2536494D01*
X2249017Y-2536494D01*
X2245004Y-2535682D01*
X2241651Y-2533345D01*
X2239518Y-2529890D01*
X2237994Y-2525826D01*
X2234539Y-2519832D01*
X2229815Y-2514600D01*
X2224176Y-2510485D01*
X2217775Y-2507640D01*
X2210917Y-2506167D01*
X2207158Y-2506014D01*
X2129993Y-2506014D01*
X2126081Y-2505202D01*
X2122779Y-2503017D01*
X2116124Y-2496362D01*
X2108098Y-2490724D01*
X2103526Y-2488590D01*
X2100021Y-2485898D01*
X2097989Y-2481986D01*
X2097786Y-2477617D01*
X2099462Y-2473553D01*
X2102764Y-2468880D01*
X2106930Y-2459939D01*
X2109470Y-2450490D01*
X2110333Y-2440686D01*
X2109470Y-2430881D01*
X2106930Y-2421432D01*
X2102764Y-2412492D01*
X2097125Y-2404465D01*
X2090470Y-2397810D01*
X2088286Y-2394508D01*
X2087524Y-2390597D01*
X2087524Y-2152497D01*
X2086711Y-2145030D01*
X2084527Y-2138222D01*
X2081987Y-2133600D01*
X2080768Y-2131872D01*
X2079040Y-2127808D01*
X2079193Y-2123389D01*
X2081225Y-2119477D01*
X2084730Y-2116785D01*
X2089048Y-2115820D01*
X2113432Y-2115820D01*
X2119731Y-2115108D01*
X2125218Y-2113178D01*
X2130094Y-2110079D01*
X2134209Y-2106015D01*
X2137257Y-2101088D01*
X2139188Y-2095652D01*
X2139899Y-2089353D01*
X2139899Y-2025446D01*
X2139188Y-2019147D01*
X2137257Y-2013712D01*
X2134209Y-2008784D01*
X2130094Y-2004720D01*
X2125218Y-2001621D01*
X2119731Y-1999691D01*
X2113432Y-1998980D01*
X1994560Y-1998980D01*
X1988261Y-1999691D01*
X1982774Y-2001621D01*
X1977898Y-2004720D01*
X1973783Y-2008784D01*
X1970735Y-2013712D01*
X1968906Y-2018842D01*
X1967484Y-2021535D01*
X1965299Y-2023719D01*
X1962556Y-2025142D01*
X1957273Y-2026869D01*
X1951431Y-2030272D01*
X1946198Y-2034997D01*
X1942084Y-2040636D01*
X1940509Y-2043734D01*
X1938934Y-2048002D01*
X1936800Y-2051456D01*
X1933498Y-2053793D01*
X1929587Y-2054656D01*
X1925574Y-2053945D01*
X1922221Y-2051710D01*
X1820367Y-1949856D01*
X1818182Y-1946554D01*
X1817420Y-1942693D01*
X1818182Y-1938782D01*
X1820367Y-1935480D01*
X1823669Y-1933295D01*
X1827580Y-1932533D01*
X1833727Y-1932533D01*
X1833727Y-1899462D01*
X1816963Y-1899462D01*
X1813052Y-1898700D01*
X1809750Y-1896465D01*
X1807565Y-1893163D01*
X1806803Y-1889302D01*
X1806803Y-1869897D01*
X1807565Y-1866036D01*
X1809750Y-1862734D01*
X1813052Y-1860499D01*
X1816963Y-1859737D01*
X1833727Y-1859737D01*
X1833727Y-1826717D01*
X1826463Y-1826717D01*
X1820164Y-1827428D01*
X1814677Y-1829307D01*
X1808734Y-1833016D01*
X1805279Y-1834388D01*
X1801520Y-1834388D01*
X1798015Y-1833016D01*
X1790954Y-1828647D01*
X1788363Y-1826412D01*
X1786686Y-1823415D01*
X1786128Y-1820011D01*
X1786128Y-1685188D01*
X1786686Y-1681784D01*
X1788363Y-1678787D01*
X1790954Y-1676501D01*
X1798116Y-1672132D01*
X1801622Y-1670812D01*
X1805330Y-1670812D01*
X1808835Y-1672183D01*
X1814677Y-1675892D01*
X1820164Y-1677771D01*
X1826463Y-1678533D01*
X1833727Y-1678533D01*
X1833727Y-1645462D01*
X1816963Y-1645462D01*
X1813052Y-1644700D01*
X1809750Y-1642465D01*
X1807565Y-1639163D01*
X1806803Y-1635302D01*
X1806803Y-1615897D01*
X1807565Y-1612036D01*
X1809750Y-1608734D01*
X1813052Y-1606499D01*
X1816963Y-1605737D01*
X1833727Y-1605737D01*
X1833727Y-1572717D01*
X1826463Y-1572717D01*
X1820164Y-1573428D01*
X1814677Y-1575308D01*
X1808734Y-1579016D01*
X1805228Y-1580388D01*
X1801469Y-1580388D01*
X1797964Y-1579016D01*
X1788871Y-1573682D01*
X1786737Y-1571447D01*
X1785315Y-1568704D01*
X1783181Y-1562100D01*
X1779625Y-1555902D01*
X1776018Y-1551736D01*
X1712925Y-1488592D01*
X1710689Y-1485290D01*
X1709928Y-1481429D01*
X1709928Y-1431188D01*
X1710486Y-1427784D01*
X1712163Y-1424787D01*
X1714754Y-1422501D01*
X1721916Y-1418132D01*
X1725422Y-1416812D01*
X1729130Y-1416812D01*
X1732635Y-1418183D01*
X1738477Y-1421892D01*
X1743964Y-1423771D01*
X1750263Y-1424533D01*
X1757527Y-1424533D01*
X1757527Y-1391462D01*
X1740763Y-1391462D01*
X1736852Y-1390700D01*
X1733550Y-1388465D01*
X1731365Y-1385163D01*
X1730603Y-1381302D01*
X1730603Y-1361897D01*
X1731365Y-1358036D01*
X1733550Y-1354734D01*
X1736852Y-1352499D01*
X1740763Y-1351737D01*
X1757527Y-1351737D01*
X1757527Y-1329740D01*
X1758238Y-1325930D01*
X1760321Y-1322730D01*
X1763471Y-1320495D01*
X1767230Y-1319580D01*
X1771040Y-1320139D01*
X1776882Y-1322171D01*
X1783181Y-1322933D01*
X1788312Y-1322933D01*
X1792224Y-1323695D01*
X1795525Y-1325880D01*
X1797710Y-1329182D01*
X1798472Y-1333093D01*
X1798472Y-1351737D01*
X1832203Y-1351737D01*
X1832203Y-1345184D01*
X1831492Y-1338834D01*
X1830578Y-1336294D01*
X1830019Y-1332738D01*
X1830730Y-1329182D01*
X1832660Y-1326083D01*
X1835556Y-1323898D01*
X1839061Y-1322882D01*
X1844954Y-1322171D01*
X1850847Y-1320139D01*
X1854200Y-1319580D01*
X1858467Y-1320444D01*
X1861210Y-1321917D01*
X1863343Y-1324102D01*
X1864766Y-1326896D01*
X1866900Y-1333500D01*
X1870456Y-1339697D01*
X1874062Y-1343863D01*
X1946554Y-1416405D01*
X1952447Y-1421130D01*
X1958644Y-1424330D01*
X1965553Y-1426159D01*
X1971039Y-1426616D01*
X2044446Y-1426616D01*
X2048510Y-1427429D01*
X2051913Y-1429867D01*
X2054047Y-1433474D01*
X2054555Y-1437640D01*
X2053793Y-1446530D01*
X2054656Y-1456334D01*
X2057196Y-1465783D01*
X2061311Y-1474724D01*
X2066950Y-1482750D01*
X2073910Y-1489710D01*
X2081936Y-1495348D01*
X2085593Y-1497025D01*
X2088743Y-1499311D01*
X2090775Y-1502664D01*
X2091436Y-1506474D01*
X2090623Y-1510284D01*
X2088388Y-1513484D01*
X2085136Y-1515668D01*
X2081275Y-1516380D01*
X1994560Y-1516380D01*
X1988261Y-1517091D01*
X1982774Y-1519021D01*
X1977898Y-1522120D01*
X1973783Y-1526184D01*
X1970735Y-1531112D01*
X1968804Y-1536547D01*
X1968093Y-1542846D01*
X1968093Y-1606753D01*
X1968804Y-1613052D01*
X1970735Y-1618488D01*
X1973783Y-1623415D01*
X1977898Y-1627479D01*
X1982774Y-1630578D01*
X1988261Y-1632508D01*
X1994560Y-1633220D01*
X2113432Y-1633220D01*
X2119731Y-1632508D01*
X2125218Y-1630578D01*
X2130094Y-1627479D01*
X2137410Y-1620266D01*
X2141677Y-1618792D01*
X2146147Y-1619300D01*
X2149957Y-1621688D01*
X2151735Y-1623517D01*
X2159254Y-1628749D01*
X2162251Y-1632102D01*
X2163572Y-1636369D01*
X2162911Y-1640789D01*
X2160371Y-1644497D01*
X2156104Y-1648510D01*
X2152091Y-1654048D01*
X2149246Y-1660448D01*
X2147773Y-1667306D01*
X2147620Y-1687880D01*
X2146808Y-1691792D01*
X2144623Y-1695094D01*
X2105355Y-1734312D01*
X2101646Y-1736699D01*
X2097278Y-1737258D01*
X2093823Y-1736953D01*
X2084019Y-1737817D01*
X2074519Y-1740357D01*
X2065629Y-1744522D01*
X2057552Y-1750161D01*
X2050643Y-1757070D01*
X2045004Y-1765147D01*
X2040839Y-1774037D01*
X2038299Y-1783537D01*
X2037435Y-1793341D01*
X2038299Y-1803095D01*
X2040839Y-1812594D01*
X2045004Y-1821484D01*
X2050643Y-1829562D01*
X2057552Y-1836470D01*
X2065629Y-1842109D01*
X2074519Y-1846275D01*
X2084019Y-1848815D01*
X2093823Y-1849678D01*
X2103577Y-1848815D01*
X2113076Y-1846275D01*
X2121966Y-1842109D01*
X2130044Y-1836470D01*
X2136952Y-1829562D01*
X2142591Y-1821484D01*
X2146757Y-1812594D01*
X2149297Y-1803095D01*
X2150160Y-1793341D01*
X2149856Y-1789836D01*
X2150414Y-1785467D01*
X2152802Y-1781759D01*
X2202332Y-1732178D01*
X2205634Y-1729993D01*
X2209495Y-1729232D01*
X2323439Y-1729232D01*
X2329738Y-1728520D01*
X2335225Y-1726590D01*
X2340864Y-1723034D01*
X2344572Y-1721612D01*
X2348484Y-1721713D01*
X2352090Y-1723339D01*
X2357678Y-1727250D01*
X2366619Y-1731365D01*
X2376068Y-1733905D01*
X2385872Y-1734769D01*
X2395677Y-1733905D01*
X2405126Y-1731365D01*
X2414066Y-1727250D01*
X2422093Y-1721612D01*
X2429052Y-1714652D01*
X2434691Y-1706625D01*
X2438806Y-1697685D01*
X2441346Y-1688236D01*
X2442210Y-1678432D01*
X2441346Y-1668627D01*
X2438806Y-1659178D01*
X2434691Y-1650238D01*
X2429052Y-1642211D01*
X2422093Y-1635251D01*
X2414066Y-1629613D01*
X2405126Y-1625498D01*
X2395677Y-1622958D01*
X2385872Y-1622094D01*
X2376068Y-1622958D01*
X2366619Y-1625498D01*
X2358999Y-1629003D01*
X2355443Y-1629968D01*
X2351836Y-1629562D01*
X2348585Y-1627936D01*
X2346096Y-1625244D01*
X2344216Y-1622196D01*
X2340102Y-1618132D01*
X2335225Y-1615033D01*
X2329738Y-1613103D01*
X2323439Y-1612392D01*
X2250744Y-1612392D01*
X2247087Y-1611731D01*
X2243937Y-1609801D01*
X2241651Y-1606854D01*
X2240635Y-1603298D01*
X2240889Y-1599590D01*
X2243429Y-1590141D01*
X2244293Y-1580337D01*
X2243429Y-1570532D01*
X2240889Y-1561084D01*
X2236774Y-1552143D01*
X2228443Y-1540306D01*
X2227681Y-1536446D01*
X2227681Y-1501394D01*
X2178100Y-1501394D01*
X2178100Y-1510741D01*
X2178659Y-1515770D01*
X2178456Y-1519326D01*
X2176983Y-1522628D01*
X2174443Y-1525168D01*
X2171192Y-1526692D01*
X2168702Y-1527403D01*
X2159762Y-1531518D01*
X2152802Y-1536395D01*
X2149449Y-1537970D01*
X2145690Y-1538173D01*
X2142134Y-1537004D01*
X2139238Y-1534668D01*
X2134209Y-1526184D01*
X2130094Y-1522120D01*
X2124405Y-1518513D01*
X2121560Y-1515821D01*
X2119934Y-1512265D01*
X2119731Y-1508404D01*
X2121052Y-1504696D01*
X2123643Y-1501800D01*
X2127148Y-1500073D01*
X2129383Y-1499463D01*
X2138324Y-1495348D01*
X2146350Y-1489710D01*
X2153259Y-1482750D01*
X2159101Y-1474368D01*
X2163064Y-1465783D01*
X2163622Y-1463700D01*
X2165654Y-1459839D01*
X2169160Y-1457147D01*
X2173478Y-1456182D01*
X2227681Y-1456182D01*
X2227681Y-1436776D01*
X2228443Y-1432864D01*
X2230628Y-1429562D01*
X2233930Y-1427378D01*
X2237841Y-1426616D01*
X2290216Y-1426616D01*
X2294077Y-1427378D01*
X2297379Y-1429562D01*
X2299563Y-1432864D01*
X2300376Y-1436776D01*
X2300376Y-1456182D01*
X2319680Y-1456182D01*
X2323338Y-1456842D01*
X2326487Y-1458772D01*
X2328773Y-1461719D01*
X2329789Y-1465275D01*
X2329535Y-1468983D01*
X2329027Y-1470863D01*
X2328164Y-1480667D01*
X2328976Y-1490319D01*
X2328519Y-1494485D01*
X2326386Y-1498092D01*
X2322982Y-1500530D01*
X2318867Y-1501394D01*
X2300376Y-1501394D01*
X2300376Y-1537208D01*
X2323439Y-1537208D01*
X2329738Y-1536496D01*
X2335225Y-1534566D01*
X2340102Y-1531467D01*
X2341930Y-1529638D01*
X2344826Y-1527606D01*
X2348230Y-1526692D01*
X2351786Y-1526997D01*
X2356307Y-1529486D01*
X2365248Y-1533601D01*
X2374696Y-1536141D01*
X2384501Y-1537004D01*
X2388006Y-1536700D01*
X2392375Y-1537309D01*
X2396083Y-1539646D01*
X3345078Y-2488641D01*
X3347262Y-2491943D01*
X3348024Y-2495854D01*
X3347262Y-2499715D01*
X3345078Y-2503017D01*
X3341776Y-2505202D01*
X3337864Y-2506014D01*
X3279241Y-2506014D01*
X3275482Y-2506167D01*
X3268624Y-2507640D01*
X3262223Y-2510485D01*
X3256584Y-2514600D01*
X3251860Y-2519832D01*
X3248406Y-2525826D01*
X3246882Y-2529890D01*
X3244748Y-2533345D01*
X3241395Y-2535682D01*
X3237382Y-2536494D01*
X3204565Y-2536494D01*
X3198266Y-2537206D01*
X3192780Y-2539136D01*
X3187903Y-2542184D01*
X3183788Y-2546299D01*
X3180689Y-2551176D01*
X3178810Y-2556662D01*
X3178098Y-2562961D01*
X3178098Y-2582316D01*
X3177387Y-2585923D01*
X3175457Y-2589123D01*
X3172561Y-2591358D01*
X3169005Y-2592425D01*
X3165297Y-2592120D01*
X3161741Y-2591155D01*
X3151936Y-2590292D01*
X3142132Y-2591155D01*
X3132683Y-2593695D01*
X3123742Y-2597861D01*
X3115716Y-2603500D01*
X3108756Y-2610408D01*
X3103118Y-2618486D01*
X3099003Y-2627376D01*
X3096463Y-2636875D01*
X3095599Y-2646680D01*
X3096463Y-2656433D01*
X3099003Y-2665933D01*
X3103118Y-2674823D01*
X3108756Y-2682900D01*
X3115716Y-2689809D01*
X3123742Y-2695448D01*
X3132683Y-2699613D01*
X3142132Y-2702153D01*
X3151936Y-2703017D01*
X3161741Y-2702153D01*
X3165297Y-2701188D01*
X3169005Y-2700883D01*
X3172561Y-2701950D01*
X3175457Y-2704185D01*
X3177387Y-2707386D01*
X3178098Y-2710992D01*
X3178098Y-2801721D01*
X3177336Y-2805633D01*
X3175101Y-2808884D01*
X3171799Y-2811119D01*
X3167938Y-2811881D01*
G37*

%LPC*%
G36*
X2742336Y-2674467D02*
G01*
X2752090Y-2673604D01*
X2761589Y-2671064D01*
X2770479Y-2666949D01*
X2778556Y-2661310D01*
X2785465Y-2654350D01*
X2791104Y-2646324D01*
X2795270Y-2637383D01*
X2797810Y-2627934D01*
X2798673Y-2618130D01*
X2797810Y-2608326D01*
X2795270Y-2598877D01*
X2791104Y-2589936D01*
X2785465Y-2581910D01*
X2778556Y-2574950D01*
X2770479Y-2569311D01*
X2761589Y-2565196D01*
X2752090Y-2562656D01*
X2742336Y-2561793D01*
X2732532Y-2562656D01*
X2723032Y-2565196D01*
X2714193Y-2569311D01*
X2710738Y-2570226D01*
X2707233Y-2569921D01*
X2704033Y-2568397D01*
X2701544Y-2565857D01*
X2695244Y-2556764D01*
X2688336Y-2549855D01*
X2680258Y-2544216D01*
X2671368Y-2540050D01*
X2661869Y-2537510D01*
X2652115Y-2536647D01*
X2642311Y-2537510D01*
X2632811Y-2540050D01*
X2623921Y-2544216D01*
X2615844Y-2549855D01*
X2608935Y-2556764D01*
X2603296Y-2564841D01*
X2599131Y-2573731D01*
X2596591Y-2583230D01*
X2595727Y-2593035D01*
X2596591Y-2602788D01*
X2599131Y-2612288D01*
X2603296Y-2621178D01*
X2608935Y-2629255D01*
X2615844Y-2636164D01*
X2623921Y-2641803D01*
X2632811Y-2645968D01*
X2642311Y-2648508D01*
X2652115Y-2649372D01*
X2661869Y-2648508D01*
X2671368Y-2645968D01*
X2680208Y-2641854D01*
X2683662Y-2640939D01*
X2687167Y-2641244D01*
X2690368Y-2642768D01*
X2692857Y-2645257D01*
X2699156Y-2654350D01*
X2706065Y-2661310D01*
X2714142Y-2666949D01*
X2723032Y-2671064D01*
X2732532Y-2673604D01*
G37*
G36*
X2449372Y-2595778D02*
G01*
X2459126Y-2594914D01*
X2468626Y-2592374D01*
X2477516Y-2588260D01*
X2485593Y-2582621D01*
X2492502Y-2575661D01*
X2498140Y-2567635D01*
X2502306Y-2558694D01*
X2504846Y-2549245D01*
X2505710Y-2539441D01*
X2504846Y-2529636D01*
X2502306Y-2520188D01*
X2498140Y-2511247D01*
X2492502Y-2503220D01*
X2485593Y-2496261D01*
X2477516Y-2490622D01*
X2468626Y-2486507D01*
X2459126Y-2483967D01*
X2449372Y-2483104D01*
X2439568Y-2483967D01*
X2430068Y-2486507D01*
X2421178Y-2490622D01*
X2413101Y-2496261D01*
X2406192Y-2503220D01*
X2400554Y-2511247D01*
X2396388Y-2520188D01*
X2393848Y-2529636D01*
X2392984Y-2539441D01*
X2393848Y-2549245D01*
X2396388Y-2558694D01*
X2400554Y-2567635D01*
X2406192Y-2575661D01*
X2413101Y-2582621D01*
X2421178Y-2588260D01*
X2430068Y-2592374D01*
X2439568Y-2594914D01*
G37*
G36*
X2650388Y-2494381D02*
G01*
X2660142Y-2493518D01*
X2669641Y-2490978D01*
X2678531Y-2486863D01*
X2686608Y-2481224D01*
X2693517Y-2474264D01*
X2699156Y-2466238D01*
X2703322Y-2457297D01*
X2705862Y-2447848D01*
X2706725Y-2438044D01*
X2705862Y-2428240D01*
X2703322Y-2418791D01*
X2699156Y-2409850D01*
X2693517Y-2401824D01*
X2686608Y-2394864D01*
X2678531Y-2389225D01*
X2669641Y-2385110D01*
X2660142Y-2382570D01*
X2650388Y-2381707D01*
X2640584Y-2382570D01*
X2632710Y-2384653D01*
X2629204Y-2384958D01*
X2625801Y-2384044D01*
X2622905Y-2382012D01*
X2370988Y-2130094D01*
X2364689Y-2125014D01*
X2362098Y-2121865D01*
X2360980Y-2117902D01*
X2361438Y-2113838D01*
X2363520Y-2110333D01*
X2366772Y-2107895D01*
X2369769Y-2106523D01*
X2377846Y-2100884D01*
X2384755Y-2093925D01*
X2390394Y-2085898D01*
X2394559Y-2076957D01*
X2397099Y-2067509D01*
X2397963Y-2057704D01*
X2397099Y-2047900D01*
X2394559Y-2038451D01*
X2390394Y-2029510D01*
X2384755Y-2021484D01*
X2377846Y-2014524D01*
X2369769Y-2008886D01*
X2360726Y-2004669D01*
X2357170Y-2003602D01*
X2353411Y-2001520D01*
X2350820Y-1998116D01*
X2349906Y-1993900D01*
X2349906Y-1983993D01*
X2300376Y-1983993D01*
X2300376Y-2015540D01*
X2299868Y-2018588D01*
X2298496Y-2021382D01*
X2292807Y-2029510D01*
X2288641Y-2038451D01*
X2286101Y-2047900D01*
X2285238Y-2057704D01*
X2286101Y-2067509D01*
X2288641Y-2076957D01*
X2290318Y-2080564D01*
X2291283Y-2084476D01*
X2290572Y-2088489D01*
X2288438Y-2091893D01*
X2285085Y-2094179D01*
X2281123Y-2094992D01*
X2204567Y-2094992D01*
X2198268Y-2095703D01*
X2192782Y-2097633D01*
X2187905Y-2100732D01*
X2183790Y-2104796D01*
X2180742Y-2109724D01*
X2178812Y-2115159D01*
X2178100Y-2121458D01*
X2178100Y-2185365D01*
X2178812Y-2191664D01*
X2180742Y-2197100D01*
X2183790Y-2202027D01*
X2187905Y-2206091D01*
X2192782Y-2209190D01*
X2198268Y-2211120D01*
X2204567Y-2211832D01*
X2323439Y-2211832D01*
X2329738Y-2211120D01*
X2335225Y-2209190D01*
X2340660Y-2205786D01*
X2343810Y-2204466D01*
X2347214Y-2204262D01*
X2350465Y-2205228D01*
X2353259Y-2207209D01*
X2593289Y-2447239D01*
X2594914Y-2449372D01*
X2595930Y-2451811D01*
X2597404Y-2457297D01*
X2601569Y-2466238D01*
X2607208Y-2474264D01*
X2614117Y-2481224D01*
X2622194Y-2486863D01*
X2631084Y-2490978D01*
X2640584Y-2493518D01*
G37*
G36*
X2172970Y-2434132D02*
G01*
X2182723Y-2433269D01*
X2192223Y-2430729D01*
X2201113Y-2426563D01*
X2209190Y-2420924D01*
X2216099Y-2414016D01*
X2221738Y-2405938D01*
X2225903Y-2397048D01*
X2228443Y-2387549D01*
X2229307Y-2377795D01*
X2228443Y-2367991D01*
X2225903Y-2358491D01*
X2221738Y-2349601D01*
X2216099Y-2341524D01*
X2209190Y-2334615D01*
X2201113Y-2328976D01*
X2192223Y-2324811D01*
X2182723Y-2322271D01*
X2172970Y-2321407D01*
X2163165Y-2322271D01*
X2153666Y-2324811D01*
X2144776Y-2328976D01*
X2136698Y-2334615D01*
X2129790Y-2341524D01*
X2124151Y-2349601D01*
X2119985Y-2358491D01*
X2117445Y-2367991D01*
X2116582Y-2377795D01*
X2117445Y-2387549D01*
X2119985Y-2397048D01*
X2124151Y-2405938D01*
X2129790Y-2414016D01*
X2136698Y-2420924D01*
X2144776Y-2426563D01*
X2153666Y-2430729D01*
X2163165Y-2433269D01*
G37*
G36*
X2204567Y-2019807D02*
G01*
X2227681Y-2019807D01*
X2227681Y-1983993D01*
X2178100Y-1983993D01*
X2178100Y-1993341D01*
X2178812Y-1999640D01*
X2180742Y-2005075D01*
X2183790Y-2010003D01*
X2187905Y-2014067D01*
X2192782Y-2017166D01*
X2198268Y-2019096D01*
G37*
G36*
X2300376Y-1938782D02*
G01*
X2349906Y-1938782D01*
X2349906Y-1929434D01*
X2349195Y-1923135D01*
X2347264Y-1917700D01*
X2344216Y-1912772D01*
X2340102Y-1908708D01*
X2335225Y-1905609D01*
X2329738Y-1903679D01*
X2323439Y-1902968D01*
X2300376Y-1902968D01*
G37*
G36*
X2178100Y-1938782D02*
G01*
X2227681Y-1938782D01*
X2227681Y-1902968D01*
X2204567Y-1902968D01*
X2198268Y-1903679D01*
X2192782Y-1905609D01*
X2187905Y-1908708D01*
X2183790Y-1912772D01*
X2180742Y-1917700D01*
X2178812Y-1923135D01*
X2178100Y-1929434D01*
G37*
G36*
X1874672Y-1932533D02*
G01*
X1881886Y-1932533D01*
X1888236Y-1931771D01*
X1893671Y-1929892D01*
X1898599Y-1926793D01*
X1902663Y-1922729D01*
X1905762Y-1917801D01*
X1907692Y-1912366D01*
X1908403Y-1906016D01*
X1908403Y-1899462D01*
X1874672Y-1899462D01*
G37*
G36*
X1874672Y-1859737D02*
G01*
X1908403Y-1859737D01*
X1908403Y-1853184D01*
X1907692Y-1846834D01*
X1905762Y-1841398D01*
X1902663Y-1836470D01*
X1898599Y-1832406D01*
X1893671Y-1829307D01*
X1888236Y-1827428D01*
X1881886Y-1826717D01*
X1874672Y-1826717D01*
G37*
G36*
X1874672Y-1678533D02*
G01*
X1881886Y-1678533D01*
X1888236Y-1677771D01*
X1893671Y-1675892D01*
X1898599Y-1672793D01*
X1902663Y-1668729D01*
X1905762Y-1663801D01*
X1907692Y-1658366D01*
X1908403Y-1652016D01*
X1908403Y-1645462D01*
X1874672Y-1645462D01*
G37*
G36*
X1874672Y-1605737D02*
G01*
X1908403Y-1605737D01*
X1908403Y-1599184D01*
X1907692Y-1592834D01*
X1905762Y-1587398D01*
X1902663Y-1582470D01*
X1898599Y-1578406D01*
X1893671Y-1575308D01*
X1888236Y-1573428D01*
X1881886Y-1572717D01*
X1874672Y-1572717D01*
G37*
G36*
X1798472Y-1424533D02*
G01*
X1805686Y-1424533D01*
X1812036Y-1423771D01*
X1817471Y-1421892D01*
X1822399Y-1418793D01*
X1826463Y-1414729D01*
X1829562Y-1409801D01*
X1831492Y-1404366D01*
X1832203Y-1398016D01*
X1832203Y-1391462D01*
X1798472Y-1391462D01*
G37*

%LPD*%
G36*
X1575104Y-2996692D02*
G01*
X1522730Y-2995676D01*
X1470914Y-2992729D01*
X1419250Y-2987852D01*
X1367840Y-2980994D01*
X1316685Y-2972155D01*
X1265885Y-2961436D01*
X1215593Y-2948787D01*
X1165758Y-2934258D01*
X1116533Y-2917850D01*
X1067968Y-2899562D01*
X1020114Y-2879496D01*
X973074Y-2857601D01*
X926896Y-2833928D01*
X881634Y-2808528D01*
X837336Y-2781452D01*
X794156Y-2752750D01*
X752043Y-2722372D01*
X711149Y-2690469D01*
X671474Y-2657043D01*
X633069Y-2622092D01*
X596036Y-2585770D01*
X560374Y-2548026D01*
X526237Y-2508961D01*
X493522Y-2468676D01*
X462432Y-2427122D01*
X432866Y-2384450D01*
X404977Y-2340711D01*
X378764Y-2295956D01*
X354228Y-2250186D01*
X331470Y-2203551D01*
X310489Y-2156104D01*
X291338Y-2107895D01*
X274015Y-2058974D01*
X258521Y-2009444D01*
X244957Y-1959356D01*
X233273Y-1908759D01*
X223520Y-1857806D01*
X215696Y-1806498D01*
X209854Y-1754936D01*
X205892Y-1703222D01*
X203962Y-1651355D01*
X203962Y-1599438D01*
X205943Y-1547622D01*
X209854Y-1495856D01*
X215747Y-1444294D01*
X223570Y-1392986D01*
X233375Y-1342034D01*
X245059Y-1291488D01*
X258622Y-1241399D01*
X274116Y-1191869D01*
X291490Y-1142949D01*
X310642Y-1094740D01*
X331673Y-1047292D01*
X354431Y-1000658D01*
X378968Y-954938D01*
X405180Y-910132D01*
X433070Y-866394D01*
X462635Y-823721D01*
X489712Y-787654D01*
X492861Y-784860D01*
X496874Y-783640D01*
X501040Y-784098D01*
X504698Y-786231D01*
X507136Y-789635D01*
X508000Y-793750D01*
X508000Y-2361184D01*
X509016Y-2362200D01*
X1040384Y-2362200D01*
X1041400Y-2361184D01*
X1041400Y-788416D01*
X1040384Y-787400D01*
X510895Y-787400D01*
X507187Y-786688D01*
X503986Y-784656D01*
X501751Y-781608D01*
X500786Y-777951D01*
X501243Y-774192D01*
X503021Y-770839D01*
X526491Y-741934D01*
X560679Y-702868D01*
X596290Y-665175D01*
X633323Y-628853D01*
X671728Y-593902D01*
X711403Y-560476D01*
X752348Y-528574D01*
X794461Y-498246D01*
X837692Y-469544D01*
X881938Y-442468D01*
X927201Y-417068D01*
X973429Y-393446D01*
X1020470Y-371551D01*
X1068324Y-351485D01*
X1116888Y-333248D01*
X1166114Y-316839D01*
X1215948Y-302310D01*
X1266291Y-289661D01*
X1317040Y-278942D01*
X1368196Y-270154D01*
X1419656Y-263347D01*
X1471320Y-258419D01*
X1523085Y-255473D01*
X1575104Y-254508D01*
X6474663Y-254508D01*
X6527088Y-255473D01*
X6578904Y-258317D01*
X6630568Y-263194D01*
X6681978Y-270002D01*
X6733133Y-278739D01*
X6783933Y-289407D01*
X6834276Y-302006D01*
X6884111Y-316484D01*
X6933336Y-332841D01*
X6981952Y-351078D01*
X7029805Y-371094D01*
X7076897Y-392938D01*
X7123074Y-416559D01*
X7168388Y-441909D01*
X7212685Y-468934D01*
X7255916Y-497585D01*
X7298080Y-527913D01*
X7339025Y-559765D01*
X7378700Y-593191D01*
X7417155Y-628091D01*
X7454239Y-664362D01*
X7489901Y-702056D01*
X7524089Y-741070D01*
X7556855Y-781354D01*
X7587996Y-822858D01*
X7617612Y-865479D01*
X7645552Y-909218D01*
X7671816Y-953922D01*
X7696352Y-999642D01*
X7719161Y-1046276D01*
X7740192Y-1093724D01*
X7759446Y-1141933D01*
X7776819Y-1190802D01*
X7792364Y-1240332D01*
X7805978Y-1290370D01*
X7817713Y-1340916D01*
X7827518Y-1391920D01*
X7835392Y-1443177D01*
X7841335Y-1494739D01*
X7845298Y-1546504D01*
X7847330Y-1598320D01*
X7847380Y-1650238D01*
X7845450Y-1702104D01*
X7841589Y-1753819D01*
X7835747Y-1805381D01*
X7827975Y-1856689D01*
X7818272Y-1907692D01*
X7806639Y-1958238D01*
X7793075Y-2008378D01*
X7777632Y-2057907D01*
X7760360Y-2106828D01*
X7741208Y-2155088D01*
X7720279Y-2202535D01*
X7697571Y-2249220D01*
X7673086Y-2294940D01*
X7646924Y-2339746D01*
X7619034Y-2383536D01*
X7589520Y-2426208D01*
X7558430Y-2467762D01*
X7525816Y-2508097D01*
X7491679Y-2547213D01*
X7456068Y-2584958D01*
X7419035Y-2621330D01*
X7380681Y-2656281D01*
X7341057Y-2689758D01*
X7300163Y-2721711D01*
X7258100Y-2752090D01*
X7214920Y-2780842D01*
X7170674Y-2807970D01*
X7125411Y-2833420D01*
X7079234Y-2857093D01*
X7032193Y-2879039D01*
X6984390Y-2899156D01*
X6935825Y-2917444D01*
X6886600Y-2933903D01*
X6836816Y-2948482D01*
X6786473Y-2961182D01*
X6735724Y-2971952D01*
X6684619Y-2980791D01*
X6633159Y-2987700D01*
X6581495Y-2992678D01*
X6529679Y-2995676D01*
X6477406Y-2996692D01*
X2647137Y-2996692D01*
X2643276Y-2995930D01*
X2639974Y-2993694D01*
X2637739Y-2990443D01*
X2636977Y-2986532D01*
X2637739Y-2982620D01*
X2639974Y-2979369D01*
X2646629Y-2972714D01*
X2652268Y-2964637D01*
X2656382Y-2955747D01*
X2658922Y-2946247D01*
X2659786Y-2936494D01*
X2658922Y-2926689D01*
X2656382Y-2917190D01*
X2652268Y-2908300D01*
X2646629Y-2900222D01*
X2642514Y-2896158D01*
X2640330Y-2892856D01*
X2639568Y-2888996D01*
X2640330Y-2885084D01*
X2642514Y-2881782D01*
X2645816Y-2879598D01*
X2649728Y-2878836D01*
X2680970Y-2878836D01*
X2685288Y-2879750D01*
X2688742Y-2882442D01*
X2690774Y-2886354D01*
X2692349Y-2892196D01*
X2696514Y-2901137D01*
X2702153Y-2909163D01*
X2709062Y-2916123D01*
X2717139Y-2921762D01*
X2726029Y-2925876D01*
X2735529Y-2928416D01*
X2745333Y-2929280D01*
X2755087Y-2928416D01*
X2764586Y-2925876D01*
X2773476Y-2921762D01*
X2781554Y-2916123D01*
X2788462Y-2909163D01*
X2794101Y-2901137D01*
X2798267Y-2892196D01*
X2799791Y-2886456D01*
X2801823Y-2882544D01*
X2805328Y-2879902D01*
X2809595Y-2878937D01*
X3455162Y-2878937D01*
X3458819Y-2879648D01*
X3462020Y-2881630D01*
X3464255Y-2884627D01*
X3465271Y-2888234D01*
X3465931Y-2895701D01*
X3468471Y-2905150D01*
X3472586Y-2914091D01*
X3478225Y-2922117D01*
X3485184Y-2929077D01*
X3493211Y-2934716D01*
X3502151Y-2938830D01*
X3511600Y-2941370D01*
X3521405Y-2942234D01*
X3531209Y-2941370D01*
X3540658Y-2938830D01*
X3549599Y-2934716D01*
X3557625Y-2929077D01*
X3564585Y-2922117D01*
X3570224Y-2914091D01*
X3574338Y-2905150D01*
X3576878Y-2895701D01*
X3577640Y-2887167D01*
X3578809Y-2883204D01*
X3581501Y-2880055D01*
X3585210Y-2878226D01*
X3589426Y-2877159D01*
X3595776Y-2874314D01*
X3601415Y-2870200D01*
X3606139Y-2864967D01*
X3609594Y-2858973D01*
X3611118Y-2854909D01*
X3613251Y-2851454D01*
X3616604Y-2849118D01*
X3620617Y-2848305D01*
X3653434Y-2848305D01*
X3659733Y-2847594D01*
X3665220Y-2845663D01*
X3670096Y-2842615D01*
X3674211Y-2838500D01*
X3677310Y-2833624D01*
X3679190Y-2828137D01*
X3679901Y-2821838D01*
X3679901Y-2614472D01*
X3680663Y-2610561D01*
X3682898Y-2607310D01*
X3686200Y-2605074D01*
X3690061Y-2604312D01*
X3693972Y-2605074D01*
X3697274Y-2607310D01*
X3729278Y-2639314D01*
X3735120Y-2644038D01*
X3741369Y-2647238D01*
X3748227Y-2649067D01*
X3753764Y-2649524D01*
X4889449Y-2649524D01*
X4896916Y-2648712D01*
X4903571Y-2646527D01*
X4909769Y-2642971D01*
X4913934Y-2639415D01*
X5386679Y-2166620D01*
X5390235Y-2164334D01*
X5394401Y-2163673D01*
X5398516Y-2164791D01*
X5401767Y-2167432D01*
X5403697Y-2171192D01*
X5404713Y-2174900D01*
X5408828Y-2183841D01*
X5414467Y-2191867D01*
X5421426Y-2198827D01*
X5429453Y-2204466D01*
X5438394Y-2208580D01*
X5447842Y-2211120D01*
X5457647Y-2211984D01*
X5467451Y-2211120D01*
X5476900Y-2208580D01*
X5485841Y-2204466D01*
X5493867Y-2198827D01*
X5500827Y-2191867D01*
X5506466Y-2183841D01*
X5510580Y-2174900D01*
X5513120Y-2165451D01*
X5513984Y-2155647D01*
X5513628Y-2151430D01*
X5514086Y-2147366D01*
X5516168Y-2143810D01*
X5519470Y-2141372D01*
X5523433Y-2140407D01*
X5527497Y-2141118D01*
X5530951Y-2143353D01*
X5532069Y-2144522D01*
X5540146Y-2150160D01*
X5549036Y-2154326D01*
X5558536Y-2156866D01*
X5568340Y-2157730D01*
X5578094Y-2156866D01*
X5587593Y-2154326D01*
X5596483Y-2150160D01*
X5604560Y-2144522D01*
X5611469Y-2137613D01*
X5617108Y-2129536D01*
X5621274Y-2120646D01*
X5623814Y-2111146D01*
X5624677Y-2101392D01*
X5623864Y-2092452D01*
X5624372Y-2088286D01*
X5626506Y-2084679D01*
X5629910Y-2082241D01*
X5634024Y-2081428D01*
X5829350Y-2081428D01*
X5833211Y-2082190D01*
X5836513Y-2084374D01*
X5843168Y-2091029D01*
X5851245Y-2096668D01*
X5860135Y-2100834D01*
X5869635Y-2103374D01*
X5879439Y-2104237D01*
X5889193Y-2103374D01*
X5898692Y-2100834D01*
X5907582Y-2096668D01*
X5915660Y-2091029D01*
X5922568Y-2084120D01*
X5928207Y-2076043D01*
X5932373Y-2067153D01*
X5934913Y-2057654D01*
X5935776Y-2047900D01*
X5934913Y-2038096D01*
X5932373Y-2028596D01*
X5928207Y-2019706D01*
X5922568Y-2011629D01*
X5915660Y-2004720D01*
X5907582Y-1999081D01*
X5898692Y-1994916D01*
X5889193Y-1992375D01*
X5879439Y-1991512D01*
X5869635Y-1992375D01*
X5860135Y-1994916D01*
X5851245Y-1999081D01*
X5843168Y-2004720D01*
X5836513Y-2011375D01*
X5833211Y-2013559D01*
X5829350Y-2014372D01*
X5719419Y-2014372D01*
X5715457Y-2013559D01*
X5712104Y-2011222D01*
X5709970Y-2007819D01*
X5709259Y-2003856D01*
X5710224Y-1999894D01*
X5713780Y-1992274D01*
X5716320Y-1982825D01*
X5717184Y-1973021D01*
X5716320Y-1963216D01*
X5713780Y-1953768D01*
X5709615Y-1944827D01*
X5703976Y-1936800D01*
X5697067Y-1929841D01*
X5688990Y-1924202D01*
X5680100Y-1920087D01*
X5670600Y-1917547D01*
X5660847Y-1916684D01*
X5651957Y-1917446D01*
X5647791Y-1916938D01*
X5644184Y-1914804D01*
X5641746Y-1911400D01*
X5640933Y-1907336D01*
X5640933Y-1859381D01*
X5640171Y-1853082D01*
X5636920Y-1844395D01*
X5636717Y-1841042D01*
X5637580Y-1837791D01*
X5640933Y-1830578D01*
X5643473Y-1821129D01*
X5644337Y-1811324D01*
X5643473Y-1801520D01*
X5640933Y-1792071D01*
X5636818Y-1783130D01*
X5631180Y-1775104D01*
X5624169Y-1768093D01*
X5621934Y-1764792D01*
X5621172Y-1760931D01*
X5621934Y-1757019D01*
X5624169Y-1753717D01*
X5627471Y-1751533D01*
X5631332Y-1750771D01*
X5985103Y-1750771D01*
X5988761Y-1751431D01*
X5991910Y-1753362D01*
X5994196Y-1756308D01*
X5995212Y-1759864D01*
X5994958Y-1763522D01*
X5993942Y-1767230D01*
X5993079Y-1777034D01*
X5993942Y-1786788D01*
X5996482Y-1796288D01*
X6000648Y-1805178D01*
X6006287Y-1813255D01*
X6013196Y-1820164D01*
X6021273Y-1825802D01*
X6030163Y-1829968D01*
X6039662Y-1832508D01*
X6049467Y-1833372D01*
X6059220Y-1832508D01*
X6068720Y-1829968D01*
X6077610Y-1825802D01*
X6085687Y-1820164D01*
X6092596Y-1813255D01*
X6098235Y-1805178D01*
X6102400Y-1796288D01*
X6104940Y-1786788D01*
X6105804Y-1777034D01*
X6104940Y-1767230D01*
X6103924Y-1763522D01*
X6103670Y-1759864D01*
X6104686Y-1756308D01*
X6106972Y-1753362D01*
X6110122Y-1751431D01*
X6113780Y-1750771D01*
X6213297Y-1750771D01*
X6220764Y-1749958D01*
X6227419Y-1747774D01*
X6233617Y-1744218D01*
X6237782Y-1740662D01*
X6260693Y-1717751D01*
X6263792Y-1715617D01*
X6267500Y-1714804D01*
X6272530Y-1715820D01*
X6278880Y-1716532D01*
X6362700Y-1716532D01*
X6369050Y-1715820D01*
X6374485Y-1713890D01*
X6379413Y-1710791D01*
X6383477Y-1706727D01*
X6386576Y-1701800D01*
X6388455Y-1696364D01*
X6389217Y-1690065D01*
X6389217Y-1661160D01*
X6388455Y-1654860D01*
X6387592Y-1650593D01*
X6388455Y-1646326D01*
X6389217Y-1640027D01*
X6389217Y-1611172D01*
X6388455Y-1604873D01*
X6387592Y-1600606D01*
X6388455Y-1596339D01*
X6389217Y-1590040D01*
X6389217Y-1561134D01*
X6388455Y-1554835D01*
X6386576Y-1549400D01*
X6383477Y-1544472D01*
X6379413Y-1540408D01*
X6374485Y-1537309D01*
X6369050Y-1535379D01*
X6362700Y-1534668D01*
X6304178Y-1534668D01*
X6300520Y-1534007D01*
X6297320Y-1532026D01*
X6295085Y-1529029D01*
X6291478Y-1515618D01*
X6287363Y-1506728D01*
X6281724Y-1498650D01*
X6274765Y-1491742D01*
X6266738Y-1486103D01*
X6257798Y-1481937D01*
X6248349Y-1479397D01*
X6238544Y-1478534D01*
X6228740Y-1479397D01*
X6219291Y-1481937D01*
X6210350Y-1486103D01*
X6202324Y-1491742D01*
X6195364Y-1498650D01*
X6189726Y-1506728D01*
X6185611Y-1515618D01*
X6183071Y-1525117D01*
X6182207Y-1534922D01*
X6183071Y-1544675D01*
X6185611Y-1554175D01*
X6189726Y-1563065D01*
X6194247Y-1569516D01*
X6195720Y-1572717D01*
X6196025Y-1576222D01*
X6195110Y-1579626D01*
X6193129Y-1582521D01*
X6186220Y-1589379D01*
X6180582Y-1597406D01*
X6176467Y-1606346D01*
X6173927Y-1615795D01*
X6173063Y-1625600D01*
X6173927Y-1635404D01*
X6176467Y-1644853D01*
X6180582Y-1653793D01*
X6186220Y-1661820D01*
X6190742Y-1666341D01*
X6192977Y-1669643D01*
X6193739Y-1673555D01*
X6192977Y-1677416D01*
X6190742Y-1680718D01*
X6187440Y-1682902D01*
X6183579Y-1683715D01*
X5907938Y-1683715D01*
X5904128Y-1682953D01*
X5900928Y-1680870D01*
X5898692Y-1677720D01*
X5897778Y-1673961D01*
X5898337Y-1670151D01*
X5900318Y-1666849D01*
X5901537Y-1665376D01*
X5909360Y-1653743D01*
X5912612Y-1647139D01*
X5863539Y-1647139D01*
X5863539Y-1673555D01*
X5862777Y-1677416D01*
X5860592Y-1680718D01*
X5857290Y-1682902D01*
X5853379Y-1683715D01*
X5779820Y-1683715D01*
X5775909Y-1682902D01*
X5772607Y-1680718D01*
X5770422Y-1677416D01*
X5769660Y-1673555D01*
X5769660Y-1647139D01*
X5717133Y-1647139D01*
X5713374Y-1646428D01*
X5710174Y-1644396D01*
X5707938Y-1641297D01*
X5705297Y-1635556D01*
X5699658Y-1627530D01*
X5692698Y-1620570D01*
X5684672Y-1614932D01*
X5675731Y-1610817D01*
X5666282Y-1608277D01*
X5656478Y-1607413D01*
X5646674Y-1608277D01*
X5637225Y-1610817D01*
X5628284Y-1614932D01*
X5620258Y-1620570D01*
X5612587Y-1628292D01*
X5609285Y-1630476D01*
X5605424Y-1631289D01*
X5601512Y-1630527D01*
X5598210Y-1628292D01*
X5596026Y-1624990D01*
X5595264Y-1621129D01*
X5595264Y-1593240D01*
X5594451Y-1585772D01*
X5592267Y-1579118D01*
X5588711Y-1572920D01*
X5585155Y-1568704D01*
X5560364Y-1543964D01*
X5554421Y-1539138D01*
X5550052Y-1536750D01*
X5543296Y-1534566D01*
X5540502Y-1533144D01*
X5538317Y-1531010D01*
X5536539Y-1527352D01*
X5535980Y-1524000D01*
X5536539Y-1520647D01*
X5538571Y-1514754D01*
X5539333Y-1508455D01*
X5539333Y-1501190D01*
X5506262Y-1501190D01*
X5506262Y-1502918D01*
X5505500Y-1506829D01*
X5503265Y-1510131D01*
X5499963Y-1512316D01*
X5496102Y-1513078D01*
X5476697Y-1513078D01*
X5472836Y-1512316D01*
X5469534Y-1510131D01*
X5467299Y-1506829D01*
X5466537Y-1502918D01*
X5466537Y-1501190D01*
X5433517Y-1501190D01*
X5433517Y-1508455D01*
X5434228Y-1514754D01*
X5436260Y-1520647D01*
X5436819Y-1524000D01*
X5436260Y-1527352D01*
X5434228Y-1533245D01*
X5433517Y-1539544D01*
X5433517Y-1595018D01*
X5434228Y-1601317D01*
X5436108Y-1606753D01*
X5439206Y-1611680D01*
X5443270Y-1615744D01*
X5445506Y-1617167D01*
X5448554Y-1620164D01*
X5450128Y-1624228D01*
X5449824Y-1628546D01*
X5447792Y-1632356D01*
X5444337Y-1634998D01*
X5440070Y-1635912D01*
X5389321Y-1635912D01*
X5385460Y-1635150D01*
X5382158Y-1632915D01*
X5377688Y-1628444D01*
X5375706Y-1625701D01*
X5374741Y-1622399D01*
X5374944Y-1618996D01*
X5376265Y-1615846D01*
X5378043Y-1613001D01*
X5379974Y-1607566D01*
X5380685Y-1601216D01*
X5380685Y-1548384D01*
X5379974Y-1542034D01*
X5378043Y-1536598D01*
X5376265Y-1533702D01*
X5374944Y-1530553D01*
X5374741Y-1527200D01*
X5375706Y-1523898D01*
X5377688Y-1521155D01*
X5382463Y-1516329D01*
X5385562Y-1511401D01*
X5387492Y-1505966D01*
X5388203Y-1499616D01*
X5388203Y-1489405D01*
X5389067Y-1485341D01*
X5391505Y-1481937D01*
X5395061Y-1479804D01*
X5399227Y-1479296D01*
X5409539Y-1480210D01*
X5419293Y-1479346D01*
X5428792Y-1476806D01*
X5437682Y-1472641D01*
X5445760Y-1467002D01*
X5449570Y-1463192D01*
X5452821Y-1461008D01*
X5456732Y-1460246D01*
X5466537Y-1460246D01*
X5466537Y-1428445D01*
X5467299Y-1424533D01*
X5469534Y-1421231D01*
X5472836Y-1419047D01*
X5476697Y-1418285D01*
X5496102Y-1418285D01*
X5499963Y-1419047D01*
X5503265Y-1421231D01*
X5505500Y-1424533D01*
X5506262Y-1428445D01*
X5506262Y-1460246D01*
X5539333Y-1460246D01*
X5539333Y-1452981D01*
X5538571Y-1446682D01*
X5536692Y-1441246D01*
X5533593Y-1436319D01*
X5529529Y-1432255D01*
X5527548Y-1430985D01*
X5524601Y-1428191D01*
X5523026Y-1424432D01*
X5523026Y-1420368D01*
X5524601Y-1416608D01*
X5527548Y-1413814D01*
X5529529Y-1412544D01*
X5531967Y-1410157D01*
X5535371Y-1407871D01*
X5539435Y-1407160D01*
X5543448Y-1408125D01*
X5548172Y-1410309D01*
X5557672Y-1412849D01*
X5567476Y-1413713D01*
X5577230Y-1412849D01*
X5586730Y-1410309D01*
X5595620Y-1406194D01*
X5603697Y-1400556D01*
X5610606Y-1393596D01*
X5616244Y-1385570D01*
X5620410Y-1376629D01*
X5622950Y-1367180D01*
X5623814Y-1357376D01*
X5622950Y-1347571D01*
X5620410Y-1338122D01*
X5616244Y-1329182D01*
X5608167Y-1317853D01*
X5607253Y-1314399D01*
X5607558Y-1310894D01*
X5609031Y-1307693D01*
X5614060Y-1300530D01*
X5618226Y-1291640D01*
X5620766Y-1282141D01*
X5621629Y-1272387D01*
X5620766Y-1262583D01*
X5618226Y-1253083D01*
X5614060Y-1244193D01*
X5608421Y-1236116D01*
X5601512Y-1229207D01*
X5593435Y-1223568D01*
X5584545Y-1219403D01*
X5575046Y-1216863D01*
X5565292Y-1215999D01*
X5555488Y-1216863D01*
X5545988Y-1219403D01*
X5537098Y-1223568D01*
X5534914Y-1225092D01*
X5532018Y-1226464D01*
X5528868Y-1226921D01*
X5525719Y-1226362D01*
X5519166Y-1224026D01*
X5512816Y-1223314D01*
X5459984Y-1223314D01*
X5453634Y-1224026D01*
X5451551Y-1224788D01*
X5447741Y-1225346D01*
X5443931Y-1224381D01*
X5440781Y-1222146D01*
X5438749Y-1218844D01*
X5438038Y-1215034D01*
X5438851Y-1211224D01*
X5441035Y-1207973D01*
X5442813Y-1206246D01*
X5448452Y-1198168D01*
X5452567Y-1189278D01*
X5455107Y-1179779D01*
X5455970Y-1170025D01*
X5455107Y-1160221D01*
X5452567Y-1150721D01*
X5448452Y-1141831D01*
X5442813Y-1133754D01*
X5435854Y-1126845D01*
X5427827Y-1121206D01*
X5418886Y-1117041D01*
X5409438Y-1114501D01*
X5399633Y-1113637D01*
X5391708Y-1114348D01*
X5387543Y-1113840D01*
X5384952Y-1112266D01*
X5383377Y-1114806D01*
X5380228Y-1117142D01*
X5371439Y-1121206D01*
X5363413Y-1126845D01*
X5355793Y-1134465D01*
X5352491Y-1136650D01*
X5346954Y-1137462D01*
X5346954Y-1148283D01*
X5346649Y-1150924D01*
X5344515Y-1158748D01*
X5342483Y-1162659D01*
X5339029Y-1165352D01*
X5334711Y-1166317D01*
X5316169Y-1166317D01*
X5312257Y-1165504D01*
X5308955Y-1163320D01*
X5306771Y-1160018D01*
X5306009Y-1156157D01*
X5306009Y-1137462D01*
X5304282Y-1137462D01*
X5300370Y-1136700D01*
X5297068Y-1134465D01*
X5294884Y-1131163D01*
X5294122Y-1127302D01*
X5294122Y-1107897D01*
X5294884Y-1104036D01*
X5297068Y-1100734D01*
X5300370Y-1098499D01*
X5304282Y-1097737D01*
X5306009Y-1097737D01*
X5306009Y-1064717D01*
X5298744Y-1064717D01*
X5292445Y-1065428D01*
X5286552Y-1067460D01*
X5283200Y-1068019D01*
X5278932Y-1067155D01*
X5276138Y-1065631D01*
X5273903Y-1063294D01*
X5272532Y-1060399D01*
X5271160Y-1055624D01*
X5270042Y-1053236D01*
X5269077Y-1048918D01*
X5269077Y-1020622D01*
X5269839Y-1016762D01*
X5272074Y-1013460D01*
X5274564Y-1010919D01*
X5277866Y-1008735D01*
X5281777Y-1007973D01*
X5569407Y-1007973D01*
X5573318Y-1008735D01*
X5576620Y-1010919D01*
X5583275Y-1017574D01*
X5591302Y-1023213D01*
X5600242Y-1027379D01*
X5609691Y-1029919D01*
X5619496Y-1030782D01*
X5629300Y-1029919D01*
X5638749Y-1027379D01*
X5647690Y-1023213D01*
X5655716Y-1017574D01*
X5662676Y-1010666D01*
X5668314Y-1002588D01*
X5672429Y-993698D01*
X5674969Y-984199D01*
X5675833Y-974445D01*
X5674969Y-964641D01*
X5672429Y-955141D01*
X5668314Y-946251D01*
X5662676Y-938174D01*
X5655716Y-931265D01*
X5647690Y-925626D01*
X5638749Y-921461D01*
X5629300Y-918921D01*
X5619496Y-918057D01*
X5609691Y-918921D01*
X5600242Y-921461D01*
X5591302Y-925626D01*
X5583275Y-931265D01*
X5576620Y-937920D01*
X5573318Y-940104D01*
X5569407Y-940917D01*
X5447233Y-940917D01*
X5443270Y-940104D01*
X5439918Y-937768D01*
X5437733Y-934364D01*
X5437073Y-930402D01*
X5438038Y-926439D01*
X5442305Y-917244D01*
X5444845Y-907745D01*
X5445709Y-897991D01*
X5444845Y-888187D01*
X5442305Y-878687D01*
X5438190Y-869797D01*
X5432552Y-861720D01*
X5425592Y-854811D01*
X5417566Y-849172D01*
X5408625Y-845007D01*
X5394858Y-841400D01*
X5391810Y-839063D01*
X5389880Y-835761D01*
X5389270Y-832002D01*
X5390083Y-828294D01*
X5392216Y-825093D01*
X5646216Y-571093D01*
X5649518Y-568909D01*
X5653430Y-568147D01*
X5692952Y-568147D01*
X5696712Y-567944D01*
X5703570Y-566470D01*
X5709970Y-563626D01*
X5715609Y-559511D01*
X5720334Y-554278D01*
X5723788Y-548284D01*
X5725312Y-544220D01*
X5727446Y-540766D01*
X5730798Y-538429D01*
X5734812Y-537616D01*
X5742635Y-537616D01*
X5748934Y-536905D01*
X5754420Y-534974D01*
X5759297Y-531926D01*
X5763412Y-527812D01*
X5766511Y-522935D01*
X5768543Y-517042D01*
X5770676Y-513486D01*
X5774080Y-511098D01*
X5778144Y-510235D01*
X6058255Y-510235D01*
X6062319Y-511098D01*
X6065723Y-513486D01*
X6067856Y-517042D01*
X6069888Y-522935D01*
X6072987Y-527812D01*
X6077102Y-531926D01*
X6081979Y-534974D01*
X6087465Y-536905D01*
X6093764Y-537616D01*
X6192621Y-537616D01*
X6198920Y-536905D01*
X6204407Y-534974D01*
X6209284Y-531926D01*
X6213398Y-527812D01*
X6216497Y-522935D01*
X6218377Y-517448D01*
X6219088Y-511149D01*
X6219088Y-442264D01*
X6218377Y-435965D01*
X6216497Y-430479D01*
X6213398Y-425602D01*
X6209284Y-421487D01*
X6204407Y-418439D01*
X6198920Y-416509D01*
X6192621Y-415798D01*
X6093764Y-415798D01*
X6087465Y-416509D01*
X6081979Y-418439D01*
X6077102Y-421487D01*
X6072987Y-425602D01*
X6069888Y-430479D01*
X6067856Y-436372D01*
X6065723Y-439928D01*
X6062319Y-442315D01*
X6058255Y-443179D01*
X5778144Y-443179D01*
X5774080Y-442315D01*
X5770676Y-439928D01*
X5768543Y-436372D01*
X5766511Y-430479D01*
X5763412Y-425602D01*
X5759297Y-421487D01*
X5754420Y-418439D01*
X5748934Y-416509D01*
X5742635Y-415798D01*
X5643778Y-415798D01*
X5637479Y-416509D01*
X5631992Y-418439D01*
X5627116Y-421487D01*
X5623001Y-425602D01*
X5619902Y-430479D01*
X5618022Y-435965D01*
X5617311Y-442264D01*
X5617311Y-501497D01*
X5616295Y-505866D01*
X5613552Y-509371D01*
X5611215Y-511251D01*
X5246014Y-876503D01*
X5242712Y-878687D01*
X5238800Y-879500D01*
X4937455Y-879500D01*
X4933340Y-878636D01*
X4929936Y-876198D01*
X4927803Y-872591D01*
X4927295Y-868426D01*
X4928108Y-859536D01*
X4927244Y-849731D01*
X4924704Y-840282D01*
X4920538Y-831342D01*
X4914900Y-823315D01*
X4907991Y-816356D01*
X4899914Y-810717D01*
X4891024Y-806602D01*
X4881524Y-804062D01*
X4871770Y-803198D01*
X4861966Y-804062D01*
X4852466Y-806602D01*
X4843576Y-810717D01*
X4835499Y-816356D01*
X4828590Y-823315D01*
X4822952Y-831342D01*
X4818786Y-840282D01*
X4816246Y-849731D01*
X4815382Y-859536D01*
X4816195Y-868426D01*
X4815687Y-872591D01*
X4813554Y-876198D01*
X4810150Y-878636D01*
X4806035Y-879500D01*
X4555794Y-879500D01*
X4551883Y-878687D01*
X4548581Y-876503D01*
X4546396Y-873201D01*
X4545634Y-869340D01*
X4545634Y-692454D01*
X4544872Y-686155D01*
X4542993Y-680720D01*
X4539691Y-675436D01*
X4538522Y-672846D01*
X4538116Y-670001D01*
X4538116Y-604977D01*
X4537405Y-598678D01*
X4535474Y-593191D01*
X4532426Y-588314D01*
X4528312Y-584200D01*
X4523435Y-581101D01*
X4517948Y-579221D01*
X4511649Y-578510D01*
X4432757Y-578510D01*
X4426458Y-579221D01*
X4420971Y-581101D01*
X4416094Y-584200D01*
X4411980Y-588314D01*
X4408932Y-593191D01*
X4407001Y-598678D01*
X4406290Y-604977D01*
X4406290Y-652272D01*
X4405528Y-656132D01*
X4403394Y-659384D01*
X4400194Y-661619D01*
X4396384Y-662432D01*
X4392523Y-661822D01*
X4389221Y-659739D01*
X4386935Y-656590D01*
X4384497Y-651408D01*
X4378858Y-643331D01*
X4371949Y-636422D01*
X4363872Y-630783D01*
X4354982Y-626618D01*
X4345482Y-624078D01*
X4335729Y-623214D01*
X4325924Y-624078D01*
X4316425Y-626618D01*
X4307535Y-630783D01*
X4299458Y-636422D01*
X4292549Y-643331D01*
X4286910Y-651408D01*
X4282744Y-660298D01*
X4280204Y-669798D01*
X4279341Y-679602D01*
X4280204Y-689356D01*
X4282744Y-698855D01*
X4286910Y-707745D01*
X4292549Y-715822D01*
X4299458Y-722731D01*
X4307535Y-728370D01*
X4316425Y-732536D01*
X4325924Y-735076D01*
X4335729Y-735939D01*
X4345482Y-735076D01*
X4351020Y-733602D01*
X4354677Y-733298D01*
X4358233Y-734364D01*
X4361180Y-736600D01*
X4363110Y-739749D01*
X4363821Y-743407D01*
X4363821Y-886358D01*
X4364532Y-892657D01*
X4365548Y-895654D01*
X4366107Y-899414D01*
X4365294Y-903071D01*
X4363161Y-906221D01*
X4229709Y-1039672D01*
X4226407Y-1041857D01*
X4222546Y-1042619D01*
X4218635Y-1041857D01*
X4206544Y-1033271D01*
X4197654Y-1029106D01*
X4188155Y-1026566D01*
X4178401Y-1025702D01*
X4174896Y-1026007D01*
X4170527Y-1025448D01*
X4166819Y-1023061D01*
X4112818Y-969111D01*
X4106976Y-964336D01*
X4100728Y-961186D01*
X4093870Y-959358D01*
X4088333Y-958900D01*
X3577844Y-958900D01*
X3573932Y-958138D01*
X3570630Y-955903D01*
X3346754Y-732028D01*
X3344621Y-728929D01*
X3343808Y-725220D01*
X3344367Y-721512D01*
X3346246Y-718261D01*
X3349193Y-715873D01*
X3352800Y-714756D01*
X3359708Y-713994D01*
X3365195Y-712063D01*
X3370072Y-709015D01*
X3374186Y-704900D01*
X3377285Y-700024D01*
X3379165Y-694537D01*
X3379876Y-688238D01*
X3379876Y-429361D01*
X3379165Y-423062D01*
X3377285Y-417576D01*
X3374186Y-412699D01*
X3370072Y-408584D01*
X3365195Y-405536D01*
X3359708Y-403606D01*
X3353409Y-402894D01*
X3320440Y-402894D01*
X3316325Y-402031D01*
X3312922Y-399592D01*
X3310788Y-395986D01*
X3309569Y-392328D01*
X3306013Y-386130D01*
X3302711Y-382320D01*
X3296665Y-377291D01*
X3290468Y-374142D01*
X3283559Y-372313D01*
X3278073Y-371856D01*
X1908454Y-371856D01*
X1900986Y-372668D01*
X1894332Y-374802D01*
X1888134Y-378358D01*
X1884324Y-381660D01*
X1879193Y-387807D01*
X1876806Y-392226D01*
X1875586Y-395986D01*
X1873453Y-399592D01*
X1870049Y-402031D01*
X1865934Y-402894D01*
X1832965Y-402894D01*
X1826666Y-403606D01*
X1821180Y-405536D01*
X1816303Y-408584D01*
X1812188Y-412699D01*
X1809089Y-417576D01*
X1807210Y-423062D01*
X1806498Y-429361D01*
X1806498Y-688238D01*
X1807210Y-694537D01*
X1809089Y-700024D01*
X1812188Y-704900D01*
X1816303Y-709015D01*
X1821180Y-712063D01*
X1826666Y-713994D01*
X1833575Y-714756D01*
X1837182Y-715873D01*
X1840128Y-718261D01*
X1842007Y-721512D01*
X1842566Y-725220D01*
X1841754Y-728929D01*
X1839620Y-732028D01*
X1729079Y-842568D01*
X1724355Y-848410D01*
X1721154Y-854659D01*
X1719325Y-861517D01*
X1718919Y-867054D01*
X1718919Y-882142D01*
X1718106Y-886053D01*
X1715922Y-889304D01*
X1712620Y-891540D01*
X1708759Y-892302D01*
X1455623Y-892302D01*
X1448155Y-893114D01*
X1441500Y-895248D01*
X1435303Y-898804D01*
X1431086Y-902411D01*
X1411935Y-921562D01*
X1408226Y-923950D01*
X1403858Y-924509D01*
X1397050Y-923899D01*
X1387246Y-924763D01*
X1377746Y-927303D01*
X1368856Y-931468D01*
X1360779Y-937107D01*
X1353870Y-944016D01*
X1348232Y-952093D01*
X1344066Y-960983D01*
X1341526Y-970483D01*
X1340662Y-980287D01*
X1341526Y-990041D01*
X1344066Y-999540D01*
X1348232Y-1008430D01*
X1353870Y-1016508D01*
X1360779Y-1023416D01*
X1368856Y-1029055D01*
X1377746Y-1033221D01*
X1387246Y-1035761D01*
X1396542Y-1036574D01*
X1399946Y-1037488D01*
X1402842Y-1039520D01*
X1587550Y-1224229D01*
X1593392Y-1228953D01*
X1599641Y-1232154D01*
X1606499Y-1233982D01*
X1612036Y-1234440D01*
X1691741Y-1234440D01*
X1695653Y-1235202D01*
X1698955Y-1237386D01*
X1701139Y-1240688D01*
X1701901Y-1244600D01*
X1701139Y-1248460D01*
X1698955Y-1251762D01*
X1653082Y-1297635D01*
X1648256Y-1303578D01*
X1645869Y-1307947D01*
X1643684Y-1314704D01*
X1642262Y-1317498D01*
X1640128Y-1319682D01*
X1636928Y-1321308D01*
X1632000Y-1324406D01*
X1627936Y-1328470D01*
X1624838Y-1333398D01*
X1622907Y-1338834D01*
X1622196Y-1345184D01*
X1622196Y-1398016D01*
X1622907Y-1404366D01*
X1624838Y-1409801D01*
X1627936Y-1414729D01*
X1632000Y-1418793D01*
X1638046Y-1422552D01*
X1640636Y-1424787D01*
X1642313Y-1427784D01*
X1642872Y-1431188D01*
X1642872Y-1499006D01*
X1643684Y-1506474D01*
X1645818Y-1513128D01*
X1649374Y-1519326D01*
X1652981Y-1523492D01*
X1701393Y-1571955D01*
X1703374Y-1574698D01*
X1704339Y-1578000D01*
X1704136Y-1581404D01*
X1702816Y-1584553D01*
X1701038Y-1587398D01*
X1699107Y-1592834D01*
X1698396Y-1599184D01*
X1698396Y-1652016D01*
X1699107Y-1658366D01*
X1701038Y-1663801D01*
X1704136Y-1668729D01*
X1708200Y-1672793D01*
X1714246Y-1676552D01*
X1716836Y-1678787D01*
X1718513Y-1681784D01*
X1719072Y-1685188D01*
X1719072Y-1820011D01*
X1718513Y-1823415D01*
X1716836Y-1826412D01*
X1714246Y-1828647D01*
X1708200Y-1832406D01*
X1704136Y-1836470D01*
X1701038Y-1841398D01*
X1699107Y-1846834D01*
X1698396Y-1853184D01*
X1698396Y-1906016D01*
X1699107Y-1912366D01*
X1701038Y-1917801D01*
X1704136Y-1922729D01*
X1708200Y-1926793D01*
X1716328Y-1931517D01*
X1718462Y-1933702D01*
X1719884Y-1936496D01*
X1722018Y-1943100D01*
X1725574Y-1949297D01*
X1729181Y-1953463D01*
X1868373Y-2092706D01*
X1870710Y-2096262D01*
X1871370Y-2100427D01*
X1870252Y-2104491D01*
X1867611Y-2107793D01*
X1854200Y-2114042D01*
X1846173Y-2119680D01*
X1839214Y-2126589D01*
X1833575Y-2134666D01*
X1829460Y-2143556D01*
X1826920Y-2153056D01*
X1826056Y-2162860D01*
X1826920Y-2172614D01*
X1829460Y-2182114D01*
X1833575Y-2191004D01*
X1839214Y-2199081D01*
X1846173Y-2205990D01*
X1854200Y-2211628D01*
X1863140Y-2215794D01*
X1872589Y-2218334D01*
X1882343Y-2219198D01*
X1893366Y-2218131D01*
X1897532Y-2218639D01*
X1901189Y-2220772D01*
X1903628Y-2224176D01*
X1904492Y-2228291D01*
X1904492Y-2322677D01*
X1903628Y-2326792D01*
X1901189Y-2330196D01*
X1897583Y-2332329D01*
X1893468Y-2332837D01*
X1884578Y-2332024D01*
X1874774Y-2332888D01*
X1865274Y-2335428D01*
X1856384Y-2339594D01*
X1848307Y-2345232D01*
X1841398Y-2352141D01*
X1835759Y-2360218D01*
X1831593Y-2369108D01*
X1829054Y-2378608D01*
X1828190Y-2388412D01*
X1829054Y-2398166D01*
X1831593Y-2407666D01*
X1835759Y-2416556D01*
X1841398Y-2424633D01*
X1848307Y-2431542D01*
X1856384Y-2437180D01*
X1865274Y-2441346D01*
X1874774Y-2443886D01*
X1884578Y-2444750D01*
X1894332Y-2443886D01*
X1903831Y-2441346D01*
X1912721Y-2437180D01*
X1917446Y-2434640D01*
X1920951Y-2434336D01*
X1924354Y-2435250D01*
X1927250Y-2437282D01*
X1939950Y-2449982D01*
X1942287Y-2453690D01*
X1942896Y-2458059D01*
X1941525Y-2462276D01*
X1938528Y-2465527D01*
X1929384Y-2471826D01*
X1922424Y-2478735D01*
X1916785Y-2486812D01*
X1912670Y-2495702D01*
X1911908Y-2498445D01*
X1909876Y-2502357D01*
X1906371Y-2505049D01*
X1902104Y-2506014D01*
X1839264Y-2506014D01*
X1835353Y-2505202D01*
X1832051Y-2503017D01*
X1825396Y-2496362D01*
X1817370Y-2490724D01*
X1808429Y-2486558D01*
X1798980Y-2484018D01*
X1789175Y-2483154D01*
X1779371Y-2484018D01*
X1769922Y-2486558D01*
X1760982Y-2490724D01*
X1752955Y-2496362D01*
X1745996Y-2503271D01*
X1740357Y-2511348D01*
X1736242Y-2520238D01*
X1733702Y-2529738D01*
X1732838Y-2539542D01*
X1733702Y-2549296D01*
X1736242Y-2558796D01*
X1740357Y-2567686D01*
X1745996Y-2575763D01*
X1752955Y-2582672D01*
X1760982Y-2588310D01*
X1769922Y-2592476D01*
X1779371Y-2595016D01*
X1789175Y-2595880D01*
X1795424Y-2595321D01*
X1799589Y-2595829D01*
X1803196Y-2597962D01*
X1805635Y-2601366D01*
X1806498Y-2605430D01*
X1806498Y-2821838D01*
X1807210Y-2828137D01*
X1809089Y-2833624D01*
X1812188Y-2838500D01*
X1816303Y-2842615D01*
X1821180Y-2845663D01*
X1826666Y-2847594D01*
X1832965Y-2848305D01*
X1981809Y-2848305D01*
X1988108Y-2847594D01*
X1993595Y-2845663D01*
X1998472Y-2842615D01*
X2002586Y-2838500D01*
X2005685Y-2833624D01*
X2007565Y-2828137D01*
X2008276Y-2821838D01*
X2008276Y-2564587D01*
X2009038Y-2560777D01*
X2011172Y-2557475D01*
X2014372Y-2555290D01*
X2018182Y-2554427D01*
X2022043Y-2555087D01*
X2025345Y-2557170D01*
X2027682Y-2560320D01*
X2031085Y-2567686D01*
X2036724Y-2575763D01*
X2043684Y-2582672D01*
X2051710Y-2588310D01*
X2060651Y-2592476D01*
X2070100Y-2595016D01*
X2079904Y-2595880D01*
X2089708Y-2595016D01*
X2093722Y-2593949D01*
X2097430Y-2593644D01*
X2100986Y-2594711D01*
X2103882Y-2596946D01*
X2105812Y-2600096D01*
X2106523Y-2603754D01*
X2106523Y-2821838D01*
X2107234Y-2828137D01*
X2109114Y-2833624D01*
X2112213Y-2838500D01*
X2116328Y-2842615D01*
X2121204Y-2845663D01*
X2126691Y-2847594D01*
X2132990Y-2848305D01*
X2165807Y-2848305D01*
X2169820Y-2849118D01*
X2173173Y-2851454D01*
X2175306Y-2854909D01*
X2176830Y-2858973D01*
X2180285Y-2864967D01*
X2185009Y-2870200D01*
X2190648Y-2874314D01*
X2197049Y-2877159D01*
X2203907Y-2878632D01*
X2207666Y-2878836D01*
X2557170Y-2878836D01*
X2561082Y-2879598D01*
X2564384Y-2881782D01*
X2566568Y-2885084D01*
X2567330Y-2888996D01*
X2566568Y-2892856D01*
X2564384Y-2896158D01*
X2560269Y-2900222D01*
X2554630Y-2908300D01*
X2550515Y-2917190D01*
X2547975Y-2926689D01*
X2547112Y-2936494D01*
X2547975Y-2946247D01*
X2550515Y-2955747D01*
X2554630Y-2964637D01*
X2560269Y-2972714D01*
X2566924Y-2979369D01*
X2569159Y-2982620D01*
X2569921Y-2986532D01*
X2569159Y-2990443D01*
X2566924Y-2993694D01*
X2563622Y-2995930D01*
X2559761Y-2996692D01*
G37*

%LPC*%
G36*
X5643778Y-2860802D02*
G01*
X5742635Y-2860802D01*
X5748934Y-2860090D01*
X5754420Y-2858160D01*
X5759297Y-2855112D01*
X5763412Y-2850997D01*
X5766511Y-2846120D01*
X5768543Y-2840228D01*
X5770676Y-2836672D01*
X5774080Y-2834284D01*
X5778144Y-2833420D01*
X5854903Y-2833420D01*
X5858814Y-2834182D01*
X5862116Y-2836418D01*
X5868771Y-2843072D01*
X5876798Y-2848711D01*
X5885738Y-2852826D01*
X5895187Y-2855366D01*
X5904992Y-2856230D01*
X5914796Y-2855366D01*
X5924245Y-2852826D01*
X5933186Y-2848711D01*
X5941212Y-2843072D01*
X5947867Y-2836418D01*
X5951169Y-2834182D01*
X5955080Y-2833420D01*
X6058255Y-2833420D01*
X6062319Y-2834284D01*
X6065723Y-2836672D01*
X6067856Y-2840228D01*
X6069888Y-2846120D01*
X6072987Y-2850997D01*
X6077102Y-2855112D01*
X6081979Y-2858160D01*
X6087465Y-2860090D01*
X6093764Y-2860802D01*
X6192621Y-2860802D01*
X6198920Y-2860090D01*
X6204407Y-2858160D01*
X6209284Y-2855112D01*
X6213398Y-2850997D01*
X6216497Y-2846120D01*
X6218377Y-2840634D01*
X6219088Y-2834335D01*
X6219088Y-2765450D01*
X6218377Y-2759151D01*
X6216497Y-2753664D01*
X6213398Y-2748788D01*
X6209284Y-2744673D01*
X6204407Y-2741625D01*
X6198920Y-2739694D01*
X6192621Y-2738983D01*
X6093764Y-2738983D01*
X6087465Y-2739694D01*
X6081979Y-2741625D01*
X6077102Y-2744673D01*
X6072987Y-2748788D01*
X6069888Y-2753664D01*
X6067856Y-2759557D01*
X6065723Y-2763113D01*
X6062319Y-2765501D01*
X6058255Y-2766364D01*
X5955080Y-2766364D01*
X5951169Y-2765602D01*
X5947867Y-2763367D01*
X5941212Y-2756712D01*
X5933186Y-2751074D01*
X5924245Y-2746959D01*
X5914796Y-2744419D01*
X5904992Y-2743555D01*
X5895187Y-2744419D01*
X5885738Y-2746959D01*
X5876798Y-2751074D01*
X5868771Y-2756712D01*
X5862116Y-2763367D01*
X5858814Y-2765602D01*
X5854903Y-2766364D01*
X5778144Y-2766364D01*
X5774080Y-2765501D01*
X5770676Y-2763113D01*
X5768543Y-2759557D01*
X5766511Y-2753664D01*
X5763412Y-2748788D01*
X5759297Y-2744673D01*
X5754420Y-2741625D01*
X5748934Y-2739694D01*
X5742635Y-2738983D01*
X5643778Y-2738983D01*
X5637479Y-2739694D01*
X5631992Y-2741625D01*
X5627116Y-2744673D01*
X5623001Y-2748788D01*
X5619902Y-2753664D01*
X5618022Y-2759151D01*
X5617311Y-2765450D01*
X5617311Y-2834335D01*
X5618022Y-2840634D01*
X5619902Y-2846120D01*
X5623001Y-2850997D01*
X5627116Y-2855112D01*
X5631992Y-2858160D01*
X5637479Y-2860090D01*
G37*
G36*
X5344414Y-2791663D02*
G01*
X5354167Y-2790799D01*
X5363667Y-2788259D01*
X5372557Y-2784094D01*
X5380634Y-2778455D01*
X5387543Y-2771546D01*
X5393182Y-2763469D01*
X5397347Y-2754579D01*
X5399887Y-2745079D01*
X5400751Y-2735326D01*
X5399887Y-2725521D01*
X5397347Y-2716022D01*
X5393182Y-2707132D01*
X5387543Y-2699054D01*
X5380634Y-2692146D01*
X5372557Y-2686507D01*
X5363667Y-2682341D01*
X5354167Y-2679801D01*
X5344414Y-2678938D01*
X5334609Y-2679801D01*
X5325110Y-2682341D01*
X5316220Y-2686507D01*
X5308142Y-2692146D01*
X5301234Y-2699054D01*
X5295595Y-2707132D01*
X5291429Y-2716022D01*
X5288889Y-2725521D01*
X5288026Y-2735326D01*
X5288889Y-2745079D01*
X5291429Y-2754579D01*
X5295595Y-2763469D01*
X5301234Y-2771546D01*
X5308142Y-2778455D01*
X5316220Y-2784094D01*
X5325110Y-2788259D01*
X5334609Y-2790799D01*
G37*
G36*
X5643778Y-2645816D02*
G01*
X5742635Y-2645816D01*
X5748934Y-2645105D01*
X5754420Y-2643174D01*
X5759297Y-2640126D01*
X5763412Y-2636012D01*
X5766511Y-2631135D01*
X5768543Y-2625242D01*
X5770676Y-2621686D01*
X5774080Y-2619298D01*
X5778144Y-2618435D01*
X6058255Y-2618435D01*
X6062319Y-2619298D01*
X6065723Y-2621686D01*
X6067856Y-2625242D01*
X6069888Y-2631135D01*
X6072987Y-2636012D01*
X6077102Y-2640126D01*
X6081979Y-2643174D01*
X6087465Y-2645105D01*
X6093764Y-2645816D01*
X6192621Y-2645816D01*
X6198920Y-2645105D01*
X6204407Y-2643174D01*
X6209284Y-2640126D01*
X6213398Y-2636012D01*
X6216497Y-2631135D01*
X6218377Y-2625648D01*
X6219088Y-2619349D01*
X6219088Y-2550464D01*
X6218377Y-2544165D01*
X6216497Y-2538679D01*
X6213398Y-2533802D01*
X6209284Y-2529687D01*
X6204407Y-2526639D01*
X6198920Y-2524709D01*
X6192621Y-2523998D01*
X6093764Y-2523998D01*
X6087465Y-2524709D01*
X6081979Y-2526639D01*
X6077102Y-2529687D01*
X6072987Y-2533802D01*
X6069888Y-2538679D01*
X6067856Y-2544572D01*
X6065723Y-2548128D01*
X6062319Y-2550515D01*
X6058255Y-2551379D01*
X5778144Y-2551379D01*
X5774080Y-2550515D01*
X5770676Y-2548128D01*
X5768543Y-2544572D01*
X5766511Y-2538679D01*
X5763412Y-2533802D01*
X5759297Y-2529687D01*
X5754420Y-2526639D01*
X5748934Y-2524709D01*
X5742635Y-2523998D01*
X5643219Y-2523998D01*
X5639409Y-2523286D01*
X5636158Y-2521153D01*
X5632246Y-2517444D01*
X5624118Y-2511704D01*
X5615279Y-2507589D01*
X5604408Y-2504795D01*
X5600954Y-2503119D01*
X5598363Y-2500325D01*
X5596991Y-2496718D01*
X5597042Y-2492908D01*
X5598515Y-2489352D01*
X5601157Y-2486609D01*
X5608777Y-2481275D01*
X5615736Y-2474366D01*
X5621375Y-2466289D01*
X5625490Y-2457399D01*
X5628030Y-2447899D01*
X5628894Y-2438146D01*
X5628030Y-2428341D01*
X5625490Y-2418842D01*
X5621375Y-2409952D01*
X5615736Y-2401874D01*
X5608777Y-2394966D01*
X5600750Y-2389327D01*
X5591810Y-2385161D01*
X5582361Y-2382621D01*
X5572556Y-2381758D01*
X5562752Y-2382621D01*
X5553303Y-2385161D01*
X5544362Y-2389327D01*
X5536336Y-2394966D01*
X5529376Y-2401874D01*
X5523738Y-2409952D01*
X5519623Y-2418842D01*
X5517083Y-2428341D01*
X5516219Y-2438146D01*
X5517083Y-2447899D01*
X5519623Y-2457399D01*
X5523738Y-2466289D01*
X5529376Y-2474366D01*
X5536336Y-2481275D01*
X5544362Y-2486914D01*
X5553252Y-2491079D01*
X5564073Y-2493873D01*
X5567527Y-2495499D01*
X5570118Y-2498344D01*
X5571540Y-2501900D01*
X5571490Y-2505710D01*
X5570016Y-2509266D01*
X5567324Y-2512009D01*
X5559704Y-2517343D01*
X5552795Y-2524302D01*
X5547156Y-2532329D01*
X5542991Y-2541270D01*
X5540451Y-2550718D01*
X5539587Y-2560523D01*
X5540451Y-2570327D01*
X5542991Y-2579776D01*
X5547156Y-2588717D01*
X5552795Y-2596743D01*
X5559704Y-2603703D01*
X5567781Y-2609342D01*
X5576671Y-2613456D01*
X5586171Y-2615996D01*
X5595975Y-2616860D01*
X5605526Y-2616047D01*
X5610504Y-2616758D01*
X5614111Y-2618536D01*
X5616752Y-2621584D01*
X5619902Y-2631135D01*
X5623001Y-2636012D01*
X5627116Y-2640126D01*
X5631992Y-2643174D01*
X5637479Y-2645105D01*
G37*
G36*
X7213092Y-2163927D02*
G01*
X7282332Y-2163927D01*
X7294219Y-2163064D01*
X7305497Y-2160625D01*
X7316317Y-2156561D01*
X7326426Y-2151075D01*
X7335672Y-2144115D01*
X7343851Y-2135987D01*
X7350759Y-2126742D01*
X7356297Y-2116632D01*
X7360310Y-2105812D01*
X7362748Y-2094534D01*
X7363561Y-2083003D01*
X7362748Y-2071522D01*
X7360310Y-2060244D01*
X7356297Y-2049424D01*
X7350759Y-2039264D01*
X7343851Y-2030018D01*
X7335672Y-2021890D01*
X7326426Y-2014982D01*
X7316317Y-2009444D01*
X7305497Y-2005380D01*
X7294219Y-2002942D01*
X7282332Y-2002078D01*
X7213092Y-2002078D01*
X7201204Y-2002942D01*
X7189927Y-2005380D01*
X7179106Y-2009444D01*
X7168997Y-2014982D01*
X7159752Y-2021890D01*
X7151573Y-2030018D01*
X7144664Y-2039264D01*
X7139127Y-2049424D01*
X7135114Y-2060244D01*
X7132624Y-2071522D01*
X7131812Y-2083003D01*
X7132624Y-2094534D01*
X7135114Y-2105812D01*
X7139127Y-2116632D01*
X7144664Y-2126742D01*
X7151573Y-2135987D01*
X7159752Y-2144115D01*
X7168997Y-2151075D01*
X7179106Y-2156561D01*
X7189927Y-2160625D01*
X7201204Y-2163064D01*
G37*
G36*
X6780072Y-2163927D02*
G01*
X6879336Y-2163927D01*
X6891223Y-2163064D01*
X6902500Y-2160625D01*
X6913321Y-2156561D01*
X6923430Y-2151075D01*
X6932675Y-2144115D01*
X6940854Y-2135987D01*
X6947763Y-2126742D01*
X6953300Y-2116632D01*
X6957314Y-2105812D01*
X6959752Y-2094534D01*
X6960616Y-2083003D01*
X6959752Y-2071522D01*
X6957314Y-2060244D01*
X6953300Y-2049424D01*
X6947763Y-2039264D01*
X6940854Y-2030018D01*
X6932675Y-2021890D01*
X6923430Y-2014982D01*
X6913321Y-2009444D01*
X6909714Y-2008073D01*
X6906056Y-2005736D01*
X6903720Y-2002078D01*
X6903161Y-1997760D01*
X6904380Y-1993646D01*
X6907275Y-1990394D01*
X6916267Y-1983790D01*
X6923074Y-1976678D01*
X6928662Y-1968449D01*
X6932726Y-1959457D01*
X6935216Y-1949856D01*
X6936079Y-1940001D01*
X6935216Y-1930146D01*
X6932726Y-1920544D01*
X6928662Y-1911553D01*
X6923074Y-1903323D01*
X6916267Y-1896160D01*
X6908292Y-1890318D01*
X6906463Y-1889353D01*
X6903415Y-1887067D01*
X6901484Y-1883765D01*
X6900875Y-1880006D01*
X6901688Y-1876298D01*
X6903872Y-1873097D01*
X6917080Y-1859889D01*
X6921804Y-1854047D01*
X6925005Y-1847799D01*
X6926834Y-1840941D01*
X6927291Y-1835404D01*
X6927291Y-1444091D01*
X6928053Y-1440230D01*
X6930237Y-1436928D01*
X6985863Y-1381302D01*
X6990638Y-1375410D01*
X6993788Y-1369212D01*
X6995617Y-1362303D01*
X6996074Y-1356817D01*
X6996074Y-1191209D01*
X6995312Y-1183741D01*
X6993128Y-1177086D01*
X6989572Y-1170889D01*
X6985965Y-1166723D01*
X6927850Y-1108608D01*
X6925716Y-1105408D01*
X6924903Y-1101598D01*
X6925564Y-1097737D01*
X6927646Y-1094486D01*
X6930796Y-1092200D01*
X6934555Y-1091285D01*
X6938416Y-1091844D01*
X6943445Y-1093571D01*
X6949744Y-1094333D01*
X7005218Y-1094333D01*
X7011517Y-1093571D01*
X7016953Y-1091692D01*
X7021880Y-1088593D01*
X7025944Y-1084529D01*
X7029043Y-1079601D01*
X7030974Y-1074166D01*
X7031685Y-1067816D01*
X7031685Y-1014984D01*
X7030974Y-1008634D01*
X7029043Y-1003198D01*
X7025944Y-998270D01*
X7021880Y-994206D01*
X7013752Y-989482D01*
X7011568Y-987196D01*
X7010146Y-984351D01*
X7009231Y-981303D01*
X7008774Y-977392D01*
X7009688Y-967384D01*
X7008825Y-957580D01*
X7006285Y-948080D01*
X7002119Y-939190D01*
X6996480Y-931113D01*
X6989572Y-924204D01*
X6981494Y-918565D01*
X6972604Y-914400D01*
X6963105Y-911860D01*
X6953351Y-910996D01*
X6943547Y-911860D01*
X6934047Y-914400D01*
X6925157Y-918565D01*
X6917080Y-924204D01*
X6910171Y-931113D01*
X6904532Y-939190D01*
X6900367Y-948080D01*
X6897827Y-957580D01*
X6896963Y-967384D01*
X6897878Y-977442D01*
X6897370Y-981608D01*
X6895236Y-985215D01*
X6891832Y-987653D01*
X6887718Y-988517D01*
X6863181Y-988517D01*
X6856882Y-989228D01*
X6851446Y-991108D01*
X6846519Y-994206D01*
X6842455Y-998270D01*
X6839356Y-1003198D01*
X6837425Y-1008634D01*
X6836714Y-1014984D01*
X6836714Y-1067816D01*
X6837425Y-1074166D01*
X6839356Y-1079601D01*
X6842455Y-1084529D01*
X6846519Y-1088593D01*
X6852564Y-1092352D01*
X6855155Y-1094587D01*
X6856831Y-1097584D01*
X6857390Y-1100988D01*
X6857390Y-1118565D01*
X6858253Y-1126896D01*
X6857847Y-1131062D01*
X6855714Y-1134719D01*
X6852310Y-1137208D01*
X6848144Y-1138123D01*
X6780072Y-1138123D01*
X6768185Y-1138936D01*
X6756908Y-1141425D01*
X6746138Y-1145438D01*
X6735978Y-1150975D01*
X6726732Y-1157884D01*
X6718604Y-1166063D01*
X6716674Y-1168603D01*
X6714185Y-1170940D01*
X6711035Y-1172362D01*
X6707581Y-1172616D01*
X6704279Y-1171702D01*
X6694576Y-1167180D01*
X6685076Y-1164640D01*
X6675323Y-1163777D01*
X6671818Y-1164082D01*
X6667449Y-1163523D01*
X6663740Y-1161135D01*
X6622237Y-1119682D01*
X6616395Y-1114907D01*
X6610146Y-1111758D01*
X6603695Y-1109980D01*
X6600291Y-1108354D01*
X6597751Y-1105560D01*
X6594144Y-1099870D01*
X6590080Y-1095806D01*
X6585153Y-1092708D01*
X6579717Y-1090828D01*
X6573418Y-1090117D01*
X6517944Y-1090117D01*
X6511645Y-1090828D01*
X6505752Y-1092860D01*
X6502400Y-1093419D01*
X6499047Y-1092860D01*
X6493154Y-1090828D01*
X6486855Y-1090117D01*
X6479590Y-1090117D01*
X6479590Y-1123137D01*
X6481318Y-1123137D01*
X6485229Y-1123899D01*
X6488531Y-1126134D01*
X6490716Y-1129436D01*
X6491478Y-1133297D01*
X6491478Y-1152702D01*
X6490716Y-1156563D01*
X6488531Y-1159865D01*
X6485229Y-1162100D01*
X6481318Y-1162862D01*
X6479590Y-1162862D01*
X6479590Y-1206093D01*
X6478676Y-1210360D01*
X6475984Y-1213866D01*
X6472072Y-1215898D01*
X6472072Y-1224737D01*
X6488836Y-1224737D01*
X6492748Y-1225499D01*
X6496050Y-1227734D01*
X6498234Y-1231036D01*
X6498996Y-1234897D01*
X6498996Y-1254302D01*
X6498234Y-1258163D01*
X6496050Y-1261465D01*
X6492748Y-1263700D01*
X6488836Y-1264462D01*
X6472072Y-1264462D01*
X6472072Y-1326337D01*
X6488836Y-1326337D01*
X6492748Y-1327099D01*
X6496050Y-1329334D01*
X6498234Y-1332636D01*
X6498996Y-1336497D01*
X6498996Y-1355902D01*
X6498234Y-1359763D01*
X6496050Y-1363065D01*
X6492748Y-1365300D01*
X6488836Y-1366062D01*
X6472072Y-1366062D01*
X6472072Y-1393850D01*
X6471310Y-1397762D01*
X6469126Y-1401064D01*
X6465824Y-1403248D01*
X6461912Y-1404010D01*
X6458051Y-1403248D01*
X6454749Y-1401064D01*
X6434074Y-1380388D01*
X6431889Y-1377086D01*
X6431127Y-1373174D01*
X6431127Y-1366062D01*
X6423964Y-1366062D01*
X6420053Y-1365300D01*
X6416802Y-1363065D01*
X6397396Y-1343710D01*
X6395212Y-1340408D01*
X6394399Y-1336497D01*
X6395212Y-1332636D01*
X6397396Y-1329334D01*
X6400698Y-1327099D01*
X6404559Y-1326337D01*
X6431127Y-1326337D01*
X6431127Y-1264462D01*
X6397396Y-1264462D01*
X6397396Y-1271016D01*
X6398107Y-1277366D01*
X6400038Y-1282801D01*
X6405829Y-1291488D01*
X6406591Y-1295400D01*
X6405829Y-1299311D01*
X6401257Y-1306068D01*
X6398412Y-1309014D01*
X6394551Y-1310589D01*
X6390436Y-1310538D01*
X6386677Y-1308862D01*
X6383883Y-1305814D01*
X6382562Y-1301851D01*
X6381800Y-1295755D01*
X6379718Y-1289304D01*
X6376212Y-1283208D01*
X6371488Y-1278026D01*
X6365849Y-1273911D01*
X6359499Y-1271066D01*
X6356756Y-1270406D01*
X6353708Y-1269085D01*
X6351270Y-1266799D01*
X6349492Y-1263446D01*
X6346393Y-1258519D01*
X6342329Y-1254455D01*
X6337401Y-1251356D01*
X6331966Y-1249426D01*
X6325616Y-1248714D01*
X6272784Y-1248714D01*
X6266434Y-1249426D01*
X6260998Y-1251356D01*
X6256070Y-1254455D01*
X6252006Y-1258519D01*
X6248908Y-1263446D01*
X6247028Y-1268882D01*
X6246317Y-1275181D01*
X6246317Y-1330655D01*
X6247028Y-1336954D01*
X6249060Y-1342847D01*
X6249619Y-1346200D01*
X6249060Y-1349552D01*
X6247028Y-1355445D01*
X6246317Y-1361744D01*
X6246317Y-1369009D01*
X6279337Y-1369009D01*
X6279337Y-1367282D01*
X6280099Y-1363370D01*
X6282334Y-1360068D01*
X6285636Y-1357884D01*
X6289497Y-1357122D01*
X6308902Y-1357122D01*
X6312763Y-1357884D01*
X6316065Y-1360068D01*
X6318300Y-1363370D01*
X6319062Y-1367282D01*
X6319062Y-1369009D01*
X6323634Y-1369009D01*
X6327546Y-1369771D01*
X6330848Y-1371955D01*
X6351524Y-1392631D01*
X6353708Y-1395933D01*
X6354470Y-1399794D01*
X6353708Y-1403705D01*
X6351524Y-1407007D01*
X6348222Y-1409192D01*
X6344310Y-1409954D01*
X6319062Y-1409954D01*
X6319062Y-1443685D01*
X6325616Y-1443685D01*
X6331966Y-1442974D01*
X6337401Y-1441043D01*
X6342329Y-1437944D01*
X6346393Y-1433880D01*
X6349492Y-1428953D01*
X6351371Y-1423517D01*
X6352184Y-1416608D01*
X6353302Y-1413002D01*
X6355638Y-1410055D01*
X6358890Y-1408176D01*
X6362649Y-1407617D01*
X6366306Y-1408430D01*
X6369456Y-1410563D01*
X6457797Y-1498904D01*
X6463741Y-1503730D01*
X6468313Y-1506220D01*
X6473393Y-1508556D01*
X6476187Y-1511808D01*
X6483146Y-1518767D01*
X6491173Y-1524406D01*
X6504787Y-1530756D01*
X6507480Y-1534261D01*
X6508394Y-1538579D01*
X6508394Y-1561744D01*
X6545021Y-1561744D01*
X6549237Y-1562709D01*
X6548475Y-1554835D01*
X6546596Y-1549400D01*
X6543497Y-1544472D01*
X6541363Y-1542338D01*
X6539179Y-1539087D01*
X6538366Y-1535328D01*
X6539026Y-1531518D01*
X6541109Y-1528216D01*
X6544259Y-1525930D01*
X6547510Y-1524406D01*
X6556400Y-1518158D01*
X6560464Y-1516481D01*
X6564833Y-1516684D01*
X6568744Y-1518716D01*
X6571437Y-1522171D01*
X6572402Y-1526489D01*
X6572402Y-1567230D01*
X6571691Y-1570939D01*
X6569709Y-1574088D01*
X6566712Y-1576374D01*
X6563106Y-1577340D01*
X6560261Y-1577594D01*
X6556095Y-1577136D01*
X6554216Y-1576019D01*
X6552488Y-1578813D01*
X6549339Y-1581099D01*
X6542582Y-1584248D01*
X6538366Y-1586585D01*
X6535216Y-1587042D01*
X6532067Y-1586433D01*
X6529070Y-1585417D01*
X6522720Y-1584706D01*
X6438900Y-1584706D01*
X6432550Y-1585417D01*
X6427114Y-1587296D01*
X6423609Y-1589024D01*
X6420815Y-1589430D01*
X6412433Y-1589430D01*
X6413144Y-1596339D01*
X6414008Y-1600606D01*
X6413144Y-1604873D01*
X6412433Y-1611172D01*
X6412433Y-1640027D01*
X6413144Y-1646326D01*
X6414008Y-1650593D01*
X6413144Y-1654860D01*
X6412433Y-1661160D01*
X6412433Y-1690065D01*
X6413144Y-1696364D01*
X6415024Y-1701800D01*
X6418122Y-1706727D01*
X6422186Y-1710791D01*
X6427114Y-1713890D01*
X6432550Y-1715820D01*
X6438900Y-1716532D01*
X6472224Y-1716532D01*
X6474561Y-1716786D01*
X6476796Y-1717649D01*
X6482435Y-1720494D01*
X6489344Y-1722323D01*
X6494830Y-1722780D01*
X6594043Y-1722780D01*
X6601510Y-1722018D01*
X6608216Y-1719834D01*
X6614363Y-1716278D01*
X6618579Y-1712671D01*
X6641795Y-1689455D01*
X6645097Y-1687220D01*
X6649008Y-1686458D01*
X6652869Y-1687220D01*
X6656171Y-1689455D01*
X6658356Y-1692757D01*
X6659168Y-1696618D01*
X6659168Y-1725371D01*
X6659372Y-1727555D01*
X6658864Y-1731975D01*
X6656476Y-1735785D01*
X6548069Y-1844192D01*
X6544411Y-1848510D01*
X6540906Y-1851152D01*
X6536639Y-1852117D01*
X6492544Y-1852117D01*
X6486245Y-1852828D01*
X6480352Y-1854860D01*
X6477000Y-1855419D01*
X6473647Y-1854860D01*
X6467754Y-1852828D01*
X6461455Y-1852117D01*
X6454190Y-1852117D01*
X6454190Y-1885137D01*
X6455918Y-1885137D01*
X6459829Y-1885899D01*
X6463131Y-1888134D01*
X6465316Y-1891436D01*
X6466078Y-1895297D01*
X6466078Y-1912315D01*
X6465316Y-1916175D01*
X6463131Y-1919478D01*
X6459829Y-1921662D01*
X6455918Y-1922475D01*
X6381445Y-1922475D01*
X6377533Y-1921662D01*
X6374231Y-1919478D01*
X6372047Y-1916175D01*
X6371285Y-1912315D01*
X6371285Y-1895297D01*
X6372047Y-1891436D01*
X6374231Y-1888134D01*
X6377533Y-1885899D01*
X6381445Y-1885137D01*
X6413246Y-1885137D01*
X6413246Y-1852117D01*
X6405981Y-1852117D01*
X6399682Y-1852828D01*
X6394246Y-1854707D01*
X6389319Y-1857806D01*
X6385255Y-1861870D01*
X6383985Y-1863852D01*
X6381191Y-1866798D01*
X6377432Y-1868373D01*
X6373368Y-1868373D01*
X6369608Y-1866798D01*
X6366814Y-1863852D01*
X6365544Y-1861870D01*
X6361480Y-1857806D01*
X6356553Y-1854707D01*
X6351117Y-1852828D01*
X6344818Y-1852117D01*
X6289344Y-1852117D01*
X6283045Y-1852828D01*
X6277152Y-1854860D01*
X6273800Y-1855419D01*
X6270447Y-1854860D01*
X6264554Y-1852828D01*
X6258255Y-1852117D01*
X6250990Y-1852117D01*
X6250990Y-1885137D01*
X6252718Y-1885137D01*
X6256629Y-1885899D01*
X6259931Y-1888134D01*
X6262116Y-1891436D01*
X6262878Y-1895297D01*
X6262878Y-1914702D01*
X6262116Y-1918563D01*
X6259931Y-1921865D01*
X6256629Y-1924100D01*
X6252718Y-1924862D01*
X6250990Y-1924862D01*
X6250990Y-1957933D01*
X6258255Y-1957933D01*
X6264554Y-1957171D01*
X6270447Y-1955139D01*
X6273800Y-1954580D01*
X6278067Y-1955444D01*
X6280962Y-1957070D01*
X6283248Y-1959508D01*
X6284569Y-1962556D01*
X6286449Y-1968500D01*
X6289954Y-1974596D01*
X6294678Y-1979777D01*
X6297777Y-1982317D01*
X6299606Y-1984248D01*
X6301689Y-1988820D01*
X6304483Y-1999183D01*
X6308598Y-2008073D01*
X6314236Y-2016150D01*
X6321196Y-2023059D01*
X6329222Y-2028698D01*
X6338163Y-2032863D01*
X6347612Y-2035403D01*
X6357416Y-2036267D01*
X6367221Y-2035403D01*
X6376670Y-2032863D01*
X6385610Y-2028698D01*
X6393637Y-2023059D01*
X6400596Y-2016150D01*
X6406235Y-2008073D01*
X6410350Y-1999183D01*
X6410960Y-1997049D01*
X6412992Y-1993138D01*
X6416446Y-1990445D01*
X6420764Y-1989531D01*
X6570980Y-1989531D01*
X6578447Y-1988718D01*
X6585102Y-1986534D01*
X6591300Y-1982978D01*
X6595465Y-1979422D01*
X6672376Y-1902460D01*
X6675678Y-1900275D01*
X6679590Y-1899513D01*
X6683451Y-1900275D01*
X6686753Y-1902460D01*
X6688988Y-1905762D01*
X6689750Y-1909673D01*
X6689750Y-1920443D01*
X6690461Y-1926742D01*
X6691325Y-1931009D01*
X6690461Y-1935276D01*
X6689750Y-1942134D01*
X6698132Y-1942134D01*
X6700926Y-1942541D01*
X6704431Y-1944268D01*
X6709918Y-1946198D01*
X6716217Y-1946910D01*
X6811314Y-1946910D01*
X6815378Y-1947773D01*
X6818782Y-1950212D01*
X6820916Y-1953818D01*
X6821830Y-1956409D01*
X6822338Y-1960219D01*
X6821424Y-1963928D01*
X6819188Y-1967077D01*
X6815937Y-1969109D01*
X6812178Y-1969871D01*
X6808266Y-1969871D01*
X6808266Y-1972157D01*
X6824065Y-1972157D01*
X6828434Y-1973173D01*
X6831939Y-1975916D01*
X6835546Y-1980387D01*
X6837476Y-1982063D01*
X6839915Y-1985314D01*
X6840880Y-1989277D01*
X6840220Y-1993290D01*
X6838086Y-1996744D01*
X6834733Y-1999030D01*
X6830720Y-1999843D01*
X6804456Y-1999843D01*
X6801459Y-2001520D01*
X6798106Y-2002078D01*
X6780072Y-2002078D01*
X6768185Y-2002942D01*
X6756908Y-2005380D01*
X6751777Y-2007311D01*
X6747459Y-2007920D01*
X6743293Y-2006701D01*
X6740042Y-2003806D01*
X6738264Y-1999843D01*
X6689750Y-1999843D01*
X6690461Y-2006752D01*
X6692392Y-2012238D01*
X6695440Y-2017115D01*
X6699554Y-2021230D01*
X6704431Y-2024278D01*
X6706108Y-2024888D01*
X6709816Y-2027174D01*
X6712203Y-2030831D01*
X6712864Y-2035149D01*
X6711645Y-2039315D01*
X6706158Y-2049424D01*
X6702094Y-2060244D01*
X6699656Y-2071522D01*
X6698843Y-2083003D01*
X6699656Y-2094534D01*
X6702094Y-2105812D01*
X6706158Y-2116632D01*
X6711696Y-2126742D01*
X6718604Y-2135987D01*
X6726732Y-2144115D01*
X6735978Y-2151075D01*
X6746138Y-2156561D01*
X6756908Y-2160625D01*
X6768185Y-2163064D01*
G37*
G36*
X1571701Y-2002789D02*
G01*
X1581505Y-2001926D01*
X1590954Y-1999386D01*
X1599895Y-1995220D01*
X1607921Y-1989582D01*
X1614881Y-1982673D01*
X1620520Y-1974596D01*
X1624634Y-1965706D01*
X1627174Y-1956206D01*
X1628038Y-1946452D01*
X1627174Y-1936648D01*
X1624634Y-1927148D01*
X1620520Y-1918258D01*
X1614881Y-1910181D01*
X1607921Y-1903272D01*
X1599895Y-1897634D01*
X1590954Y-1893468D01*
X1581505Y-1890928D01*
X1571701Y-1890064D01*
X1561896Y-1890928D01*
X1552448Y-1893468D01*
X1543507Y-1897634D01*
X1535480Y-1903272D01*
X1528521Y-1910181D01*
X1522882Y-1918258D01*
X1518767Y-1927148D01*
X1516227Y-1936648D01*
X1515364Y-1946452D01*
X1516227Y-1956206D01*
X1518767Y-1965706D01*
X1522882Y-1974596D01*
X1528521Y-1982673D01*
X1535480Y-1989582D01*
X1543507Y-1995220D01*
X1552448Y-1999386D01*
X1561896Y-2001926D01*
G37*
G36*
X6689750Y-1972157D02*
G01*
X6738061Y-1972157D01*
X6738061Y-1969871D01*
X6689750Y-1969871D01*
G37*
G36*
X6202781Y-1957933D02*
G01*
X6210046Y-1957933D01*
X6210046Y-1924862D01*
X6176314Y-1924862D01*
X6176314Y-1931416D01*
X6177026Y-1937766D01*
X6178956Y-1943201D01*
X6182055Y-1948129D01*
X6186119Y-1952193D01*
X6191046Y-1955292D01*
X6196482Y-1957171D01*
G37*
G36*
X6176314Y-1885137D02*
G01*
X6210046Y-1885137D01*
X6210046Y-1852117D01*
X6202781Y-1852117D01*
X6196482Y-1852828D01*
X6191046Y-1854707D01*
X6186119Y-1857806D01*
X6182055Y-1861870D01*
X6178956Y-1866798D01*
X6177026Y-1872234D01*
X6176314Y-1878584D01*
G37*
G36*
X6412433Y-1561744D02*
G01*
X6453225Y-1561744D01*
X6453225Y-1534668D01*
X6438900Y-1534668D01*
X6432550Y-1535379D01*
X6427114Y-1537309D01*
X6422186Y-1540408D01*
X6418122Y-1544472D01*
X6415024Y-1549400D01*
X6413144Y-1554835D01*
G37*
G36*
X5863539Y-1553260D02*
G01*
X5912612Y-1553260D01*
X5909360Y-1546656D01*
X5901537Y-1535023D01*
X5892342Y-1524457D01*
X5881776Y-1515262D01*
X5870143Y-1507439D01*
X5863539Y-1504188D01*
G37*
G36*
X5720588Y-1553260D02*
G01*
X5769660Y-1553260D01*
X5769660Y-1504188D01*
X5763056Y-1507439D01*
X5751423Y-1515262D01*
X5740857Y-1524457D01*
X5731662Y-1535023D01*
X5723839Y-1546656D01*
G37*
G36*
X6272784Y-1443685D02*
G01*
X6279337Y-1443685D01*
X6279337Y-1409954D01*
X6246317Y-1409954D01*
X6246317Y-1417218D01*
X6247028Y-1423517D01*
X6248908Y-1428953D01*
X6252006Y-1433880D01*
X6256070Y-1437944D01*
X6260998Y-1441043D01*
X6266434Y-1442974D01*
G37*
G36*
X7213092Y-1299921D02*
G01*
X7282332Y-1299921D01*
X7294219Y-1299057D01*
X7305497Y-1296619D01*
X7316317Y-1292606D01*
X7326426Y-1287068D01*
X7335672Y-1280160D01*
X7343851Y-1271981D01*
X7350759Y-1262735D01*
X7356297Y-1252626D01*
X7360310Y-1241806D01*
X7362748Y-1230528D01*
X7363561Y-1218996D01*
X7362748Y-1207516D01*
X7360310Y-1196238D01*
X7356297Y-1185418D01*
X7350759Y-1175308D01*
X7343851Y-1166063D01*
X7335672Y-1157884D01*
X7326426Y-1150975D01*
X7316317Y-1145438D01*
X7305497Y-1141425D01*
X7294219Y-1138936D01*
X7282332Y-1138123D01*
X7213092Y-1138123D01*
X7201204Y-1138936D01*
X7189927Y-1141425D01*
X7179106Y-1145438D01*
X7168997Y-1150975D01*
X7159752Y-1157884D01*
X7151573Y-1166063D01*
X7144664Y-1175308D01*
X7139127Y-1185418D01*
X7135114Y-1196238D01*
X7132624Y-1207516D01*
X7131812Y-1218996D01*
X7132624Y-1230528D01*
X7135114Y-1241806D01*
X7139127Y-1252626D01*
X7144664Y-1262735D01*
X7151573Y-1271981D01*
X7159752Y-1280160D01*
X7168997Y-1287068D01*
X7179106Y-1292606D01*
X7189927Y-1296619D01*
X7201204Y-1299057D01*
G37*
G36*
X6397396Y-1224737D02*
G01*
X6431127Y-1224737D01*
X6431127Y-1181557D01*
X6432042Y-1177239D01*
X6434734Y-1173734D01*
X6438646Y-1171702D01*
X6438646Y-1162862D01*
X6404914Y-1162862D01*
X6404914Y-1169416D01*
X6405626Y-1175766D01*
X6407556Y-1181201D01*
X6409334Y-1184097D01*
X6410655Y-1187246D01*
X6410858Y-1190599D01*
X6409893Y-1193901D01*
X6407912Y-1196644D01*
X6403136Y-1201470D01*
X6400038Y-1206398D01*
X6398107Y-1211834D01*
X6397396Y-1218184D01*
G37*
G36*
X6404914Y-1123137D02*
G01*
X6438646Y-1123137D01*
X6438646Y-1090117D01*
X6431381Y-1090117D01*
X6425082Y-1090828D01*
X6419646Y-1092708D01*
X6414719Y-1095806D01*
X6410655Y-1099870D01*
X6407556Y-1104798D01*
X6405626Y-1110234D01*
X6404914Y-1116584D01*
G37*
G36*
X5380685Y-1099108D02*
G01*
X5380685Y-1091184D01*
X5379974Y-1084834D01*
X5378043Y-1079398D01*
X5374944Y-1074470D01*
X5370880Y-1070406D01*
X5365953Y-1067308D01*
X5360517Y-1065428D01*
X5354218Y-1064717D01*
X5346954Y-1064717D01*
X5346954Y-1097737D01*
X5375910Y-1097737D01*
X5379770Y-1098499D01*
G37*
G36*
X3927094Y-918616D02*
G01*
X3936898Y-917752D01*
X3946347Y-915212D01*
X3955287Y-911098D01*
X3963314Y-905459D01*
X3970274Y-898499D01*
X3975912Y-890473D01*
X3980027Y-881532D01*
X3982567Y-872083D01*
X3983431Y-862279D01*
X3982567Y-852474D01*
X3980027Y-843026D01*
X3975912Y-834085D01*
X3970274Y-826058D01*
X3963314Y-819099D01*
X3955287Y-813460D01*
X3946347Y-809345D01*
X3936898Y-806805D01*
X3927094Y-805942D01*
X3917289Y-806805D01*
X3907840Y-809345D01*
X3898900Y-813460D01*
X3890873Y-819099D01*
X3883914Y-826058D01*
X3878275Y-834085D01*
X3874160Y-843026D01*
X3871620Y-852474D01*
X3870756Y-862279D01*
X3871620Y-872083D01*
X3874160Y-881532D01*
X3878275Y-890473D01*
X3883914Y-898499D01*
X3890873Y-905459D01*
X3898900Y-911098D01*
X3907840Y-915212D01*
X3917289Y-917752D01*
G37*
G36*
X5145989Y-849477D02*
G01*
X5155793Y-848614D01*
X5165242Y-846074D01*
X5174183Y-841908D01*
X5182209Y-836269D01*
X5189169Y-829360D01*
X5194808Y-821283D01*
X5198922Y-812393D01*
X5201462Y-802894D01*
X5202326Y-793140D01*
X5201462Y-783336D01*
X5198922Y-773836D01*
X5194808Y-764946D01*
X5189169Y-756869D01*
X5182209Y-749960D01*
X5174183Y-744321D01*
X5165242Y-740156D01*
X5155793Y-737616D01*
X5145989Y-736752D01*
X5136184Y-737616D01*
X5126736Y-740156D01*
X5117795Y-744321D01*
X5109768Y-749960D01*
X5102809Y-756869D01*
X5097170Y-764946D01*
X5093055Y-773836D01*
X5090515Y-783336D01*
X5089652Y-793140D01*
X5090515Y-802894D01*
X5093055Y-812393D01*
X5097170Y-821283D01*
X5102809Y-829360D01*
X5109768Y-836269D01*
X5117795Y-841908D01*
X5126736Y-846074D01*
X5136184Y-848614D01*
G37*
G36*
X3697732Y-768045D02*
G01*
X3707536Y-767181D01*
X3716985Y-764641D01*
X3725926Y-760476D01*
X3733952Y-754837D01*
X3740912Y-747928D01*
X3746550Y-739851D01*
X3750665Y-730961D01*
X3753205Y-721461D01*
X3754069Y-711708D01*
X3753205Y-701903D01*
X3750665Y-692404D01*
X3746550Y-683514D01*
X3740912Y-675436D01*
X3733952Y-668528D01*
X3725926Y-662889D01*
X3716985Y-658723D01*
X3707536Y-656183D01*
X3697732Y-655320D01*
X3690975Y-655929D01*
X3686810Y-655421D01*
X3683203Y-653288D01*
X3680764Y-649884D01*
X3679901Y-645820D01*
X3679901Y-429361D01*
X3679190Y-423062D01*
X3677310Y-417576D01*
X3674211Y-412699D01*
X3670096Y-408584D01*
X3665220Y-405536D01*
X3659733Y-403606D01*
X3653434Y-402894D01*
X3504590Y-402894D01*
X3498291Y-403606D01*
X3492804Y-405536D01*
X3487928Y-408584D01*
X3483813Y-412699D01*
X3480714Y-417576D01*
X3478834Y-423062D01*
X3478123Y-429361D01*
X3478123Y-688238D01*
X3478834Y-694537D01*
X3480714Y-700024D01*
X3483813Y-704900D01*
X3487928Y-709015D01*
X3492804Y-712063D01*
X3498291Y-713994D01*
X3504590Y-714705D01*
X3537407Y-714705D01*
X3541420Y-715518D01*
X3544773Y-717854D01*
X3546906Y-721309D01*
X3548430Y-725373D01*
X3551885Y-731367D01*
X3556609Y-736600D01*
X3562248Y-740714D01*
X3568649Y-743559D01*
X3575507Y-745032D01*
X3579266Y-745236D01*
X3647643Y-745236D01*
X3651554Y-745998D01*
X3654856Y-748182D01*
X3661511Y-754837D01*
X3669537Y-760476D01*
X3678478Y-764641D01*
X3687927Y-767181D01*
G37*
G36*
X5643778Y-752602D02*
G01*
X5742635Y-752602D01*
X5748934Y-751890D01*
X5754420Y-749960D01*
X5759297Y-746912D01*
X5763412Y-742797D01*
X5766511Y-737920D01*
X5768390Y-732434D01*
X5769102Y-726135D01*
X5769102Y-673404D01*
X5769864Y-669493D01*
X5772099Y-666242D01*
X5775401Y-664006D01*
X5779262Y-663244D01*
X5783173Y-663244D01*
X5787085Y-664006D01*
X5790387Y-666242D01*
X5797042Y-672896D01*
X5805068Y-678535D01*
X5814009Y-682650D01*
X5823458Y-685190D01*
X5833262Y-686054D01*
X5836767Y-685749D01*
X5841136Y-686358D01*
X5844844Y-688695D01*
X5871159Y-715010D01*
X5877001Y-719785D01*
X5883249Y-722934D01*
X5890107Y-724763D01*
X5895644Y-725220D01*
X6058255Y-725220D01*
X6062319Y-726084D01*
X6065723Y-728472D01*
X6067856Y-732028D01*
X6069888Y-737920D01*
X6072987Y-742797D01*
X6077102Y-746912D01*
X6081979Y-749960D01*
X6087465Y-751890D01*
X6093764Y-752602D01*
X6192621Y-752602D01*
X6198920Y-751890D01*
X6204407Y-749960D01*
X6209284Y-746912D01*
X6213398Y-742797D01*
X6216497Y-737920D01*
X6218377Y-732434D01*
X6219088Y-726135D01*
X6219088Y-657250D01*
X6218377Y-650951D01*
X6216497Y-645464D01*
X6213398Y-640588D01*
X6209284Y-636473D01*
X6204407Y-633425D01*
X6198920Y-631494D01*
X6192621Y-630783D01*
X6093764Y-630783D01*
X6087465Y-631494D01*
X6081979Y-633425D01*
X6077102Y-636473D01*
X6072987Y-640588D01*
X6069888Y-645464D01*
X6067856Y-651357D01*
X6065723Y-654913D01*
X6062319Y-657301D01*
X6058255Y-658164D01*
X5913323Y-658164D01*
X5909462Y-657402D01*
X5906160Y-655167D01*
X5892241Y-641299D01*
X5889904Y-637590D01*
X5889294Y-633222D01*
X5889599Y-629716D01*
X5888736Y-619912D01*
X5886196Y-610463D01*
X5882081Y-601522D01*
X5876442Y-593496D01*
X5869482Y-586536D01*
X5861456Y-580898D01*
X5852515Y-576783D01*
X5843066Y-574243D01*
X5833262Y-573379D01*
X5823458Y-574243D01*
X5814009Y-576783D01*
X5805068Y-580898D01*
X5797042Y-586536D01*
X5790387Y-593191D01*
X5787085Y-595426D01*
X5783173Y-596188D01*
X5697829Y-596188D01*
X5690362Y-597001D01*
X5683707Y-599135D01*
X5677509Y-602691D01*
X5673293Y-606298D01*
X5669889Y-609701D01*
X5665063Y-615696D01*
X5662625Y-620115D01*
X5661406Y-623874D01*
X5659272Y-627481D01*
X5655868Y-629920D01*
X5651754Y-630783D01*
X5643778Y-630783D01*
X5637479Y-631494D01*
X5631992Y-633425D01*
X5627116Y-636473D01*
X5623001Y-640588D01*
X5619902Y-645464D01*
X5618022Y-650951D01*
X5617311Y-657250D01*
X5617311Y-726135D01*
X5618022Y-732434D01*
X5619902Y-737920D01*
X5623001Y-742797D01*
X5627116Y-746912D01*
X5631992Y-749960D01*
X5637479Y-751890D01*
G37*
G36*
X3841902Y-727710D02*
G01*
X3851706Y-726846D01*
X3861155Y-724306D01*
X3870096Y-720191D01*
X3876801Y-715467D01*
X3880561Y-713841D01*
X3884676Y-713841D01*
X3888435Y-715467D01*
X3892804Y-718515D01*
X3901744Y-722680D01*
X3911193Y-725220D01*
X3920998Y-726084D01*
X3930802Y-725220D01*
X3940251Y-722680D01*
X3949192Y-718515D01*
X3957218Y-712876D01*
X3964178Y-705967D01*
X3969816Y-697890D01*
X3973931Y-689000D01*
X3976471Y-679500D01*
X3977335Y-669747D01*
X3976471Y-659942D01*
X3973931Y-650443D01*
X3969816Y-641553D01*
X3964178Y-633476D01*
X3957218Y-626567D01*
X3949192Y-620928D01*
X3940251Y-616762D01*
X3930802Y-614222D01*
X3920998Y-613359D01*
X3911193Y-614222D01*
X3901744Y-616762D01*
X3892804Y-620928D01*
X3886098Y-625652D01*
X3882339Y-627278D01*
X3878224Y-627278D01*
X3874465Y-625652D01*
X3870096Y-622554D01*
X3861155Y-618439D01*
X3851706Y-615899D01*
X3841902Y-615035D01*
X3832098Y-615899D01*
X3822649Y-618439D01*
X3813708Y-622554D01*
X3805682Y-628192D01*
X3798722Y-635152D01*
X3793083Y-643178D01*
X3788968Y-652119D01*
X3786428Y-661568D01*
X3785565Y-671372D01*
X3786428Y-681177D01*
X3788968Y-690626D01*
X3793083Y-699566D01*
X3798722Y-707593D01*
X3805682Y-714552D01*
X3813708Y-720191D01*
X3822649Y-724306D01*
X3832098Y-726846D01*
G37*
G36*
X4254347Y-563422D02*
G01*
X4264101Y-562559D01*
X4273600Y-560019D01*
X4282490Y-555853D01*
X4290568Y-550214D01*
X4297476Y-543306D01*
X4303115Y-535228D01*
X4307281Y-526338D01*
X4309821Y-516839D01*
X4310684Y-507085D01*
X4309821Y-497281D01*
X4307281Y-487781D01*
X4303115Y-478891D01*
X4297476Y-470814D01*
X4290568Y-463905D01*
X4282490Y-458266D01*
X4273600Y-454101D01*
X4264101Y-451561D01*
X4254347Y-450697D01*
X4244543Y-451561D01*
X4235043Y-454101D01*
X4226153Y-458266D01*
X4218076Y-463905D01*
X4211167Y-470814D01*
X4205528Y-478891D01*
X4201363Y-487781D01*
X4198823Y-497281D01*
X4197959Y-507085D01*
X4198823Y-516839D01*
X4201363Y-526338D01*
X4205528Y-535228D01*
X4211167Y-543306D01*
X4218076Y-550214D01*
X4226153Y-555853D01*
X4235043Y-560019D01*
X4244543Y-562559D01*
G37*

%LPD*%
G36*
X6672275Y-1362506D02*
G01*
X6668414Y-1361694D01*
X6665112Y-1359509D01*
X6628485Y-1322882D01*
X6622592Y-1318107D01*
X6616242Y-1314907D01*
X6611162Y-1313383D01*
X6607860Y-1311757D01*
X6605371Y-1309014D01*
X6598970Y-1299311D01*
X6598208Y-1295400D01*
X6598970Y-1291488D01*
X6601663Y-1287729D01*
X6604762Y-1282801D01*
X6606692Y-1277366D01*
X6607403Y-1271016D01*
X6607403Y-1253185D01*
X6608267Y-1249019D01*
X6610807Y-1245565D01*
X6614515Y-1243482D01*
X6618731Y-1243076D01*
X6622796Y-1244447D01*
X6625894Y-1247394D01*
X6632143Y-1256385D01*
X6639052Y-1263294D01*
X6647129Y-1268933D01*
X6656019Y-1273098D01*
X6665518Y-1275638D01*
X6675323Y-1276502D01*
X6682028Y-1275892D01*
X6686042Y-1276350D01*
X6689547Y-1278331D01*
X6692036Y-1281480D01*
X6693052Y-1285392D01*
X6692544Y-1289354D01*
X6690461Y-1295247D01*
X6689750Y-1302156D01*
X6738264Y-1302156D01*
X6740042Y-1298194D01*
X6743293Y-1295298D01*
X6747459Y-1294079D01*
X6751777Y-1294688D01*
X6756908Y-1296619D01*
X6768185Y-1299057D01*
X6780072Y-1299921D01*
X6798106Y-1299921D01*
X6801459Y-1300480D01*
X6804456Y-1302156D01*
X6830720Y-1302156D01*
X6834682Y-1302969D01*
X6838035Y-1305306D01*
X6840220Y-1308709D01*
X6840880Y-1312773D01*
X6839864Y-1316685D01*
X6837425Y-1319936D01*
X6835546Y-1321612D01*
X6831939Y-1326083D01*
X6828383Y-1328877D01*
X6824014Y-1329842D01*
X6808266Y-1329842D01*
X6808266Y-1332179D01*
X6812178Y-1332179D01*
X6815937Y-1332890D01*
X6819188Y-1334973D01*
X6821424Y-1338072D01*
X6822338Y-1341780D01*
X6821779Y-1345590D01*
X6820916Y-1348181D01*
X6818782Y-1351788D01*
X6815378Y-1354226D01*
X6811314Y-1355090D01*
X6716217Y-1355090D01*
X6709918Y-1355801D01*
X6704431Y-1357731D01*
X6700926Y-1359458D01*
X6698132Y-1359865D01*
X6686397Y-1359865D01*
X6683248Y-1361795D01*
X6679590Y-1362506D01*
G37*

%LPC*%
G36*
X6689750Y-1332179D02*
G01*
X6738061Y-1332179D01*
X6738061Y-1329842D01*
X6689750Y-1329842D01*
G37*

%LPD*%
D10*
X5588000Y-1973681D02*
G01*
X5637885Y-1973681D01*
X5660821Y-1973021D02*
G01*
X5638546Y-1973021D01*
X5637885Y-1973681D01*
X4567199Y-2024405D02*
G01*
X4465904Y-2024405D01*
X6692798Y-1726006D02*
G01*
X6692671Y-1725879D01*
X6692671Y-1626133D01*
X6692798Y-1626006D01*
X6773189Y-1626006D02*
G01*
X6692798Y-1626006D01*
X6714007Y-1726006D02*
G01*
X6713651Y-1726006D01*
X6713651Y-1726006D02*
G01*
X6692798Y-1726006D01*
X6773189Y-1726006D02*
G01*
X6714007Y-1726006D01*
X6713651Y-1726006D02*
G01*
X6571462Y-1868195D01*
X6571462Y-1905000D01*
X6520281Y-1905000D02*
G01*
X6571462Y-1905000D01*
X5486400Y-1887118D02*
G01*
X5486400Y-1835937D01*
X6320790Y-1675612D02*
G01*
X6255410Y-1675612D01*
X5486400Y-1567281D02*
G01*
X5536285Y-1567281D01*
X5561711Y-1717217D02*
G01*
X5561711Y-1760626D01*
X5486400Y-1835937D01*
X5536285Y-1567281D02*
G01*
X5561711Y-1592707D01*
X5561711Y-1717217D01*
X5561711Y-1717217D02*
G01*
X6213805Y-1717217D01*
X6255410Y-1675612D01*
X5334000Y-1473200D02*
G01*
X5334000Y-1423314D01*
X5486400Y-1364081D02*
G01*
X5436514Y-1364081D01*
X5436514Y-1364081D02*
G01*
X5393232Y-1364081D01*
X5334000Y-1423314D01*
X4645101Y-1424406D02*
G01*
X4749546Y-1528851D01*
X4999863Y-1528851D01*
X5105527Y-1423187D01*
X5333873Y-1423187D01*
X5334000Y-1423314D01*
X4567199Y-1424406D02*
G01*
X4645101Y-1424406D01*
X5239918Y-1219200D02*
G01*
X5239918Y-1169314D01*
X4567199Y-1074394D02*
G01*
X4796409Y-1074394D01*
X4823206Y-1047597D01*
X5002961Y-1047597D01*
X5124678Y-1169314D01*
X5239918Y-1169314D01*
X4970881Y-1320800D02*
G01*
X4970881Y-1270914D01*
X4645101Y-1174394D02*
G01*
X4645101Y-1177925D01*
X4737989Y-1270812D01*
X4970780Y-1270812D01*
X4970881Y-1270914D01*
X4567199Y-1174394D02*
G01*
X4645101Y-1174394D01*
X5239918Y-1574800D02*
G01*
X5188762Y-1574800D01*
X5188762Y-1574800D02*
G01*
X5188356Y-1574393D01*
X4567199Y-1574393D01*
X5239918Y-1981200D02*
G01*
X5239918Y-1931314D01*
X4567199Y-1724406D02*
G01*
X4645101Y-1724406D01*
X5239918Y-1931314D02*
G01*
X5190032Y-1931314D01*
X4983124Y-1724406D01*
X4645101Y-1724406D01*
X5239918Y-2082800D02*
G01*
X5222417Y-2100300D01*
X5141645Y-2100300D01*
X5108879Y-2067534D01*
X5108879Y-1914906D01*
X4954905Y-1760931D01*
X4709185Y-1760931D01*
X4695723Y-1774393D01*
X4567199Y-1774393D01*
X4645101Y-1874393D02*
G01*
X4645101Y-1891207D01*
X4735093Y-1981200D01*
X4884318Y-1981200D01*
X4567199Y-1874393D02*
G01*
X4645101Y-1874393D01*
X2207412Y-558800D02*
G01*
X2207412Y-711682D01*
X2126081Y-1016914D02*
G01*
X2207412Y-935583D01*
X2207412Y-711682D01*
X2126081Y-1066800D02*
G01*
X2126081Y-1016914D01*
X5239918Y-1879600D02*
G01*
X5239918Y-1829714D01*
X4567199Y-1624406D02*
G01*
X5034610Y-1624406D01*
X5239918Y-1829714D01*
X4567199Y-1324406D02*
G01*
X4260900Y-1324406D01*
X4095419Y-1489887D01*
X4013149Y-1489887D01*
X3959707Y-1436446D01*
X5239918Y-1117600D02*
G01*
X5239918Y-1067714D01*
X5239918Y-1067714D02*
G01*
X5235549Y-1063345D01*
X5235549Y-1002537D01*
X5263667Y-974420D01*
X5619496Y-974420D01*
X5401538Y-1283893D02*
G01*
X5377662Y-1307769D01*
X5377662Y-1320800D01*
X5326481Y-1320800D02*
G01*
X5377662Y-1320800D01*
X4567199Y-1224407D02*
G01*
X4489323Y-1224407D01*
X4489323Y-1224407D02*
G01*
X4452366Y-1187450D01*
X4452366Y-1151432D01*
X4799660Y-2065858D02*
G01*
X4816221Y-2065858D01*
X4833162Y-2082800D01*
X4884318Y-2082800D02*
G01*
X4833162Y-2082800D01*
X4405579Y-2072944D02*
G01*
X4405579Y-1904822D01*
X4469180Y-1841220D01*
X4474159Y-1841220D01*
X4490974Y-1824405D01*
X4567199Y-1824405D01*
X6553200Y-1346200D02*
G01*
X6604381Y-1346200D01*
X6773189Y-1905990D02*
G01*
X6773189Y-1875993D01*
X6553200Y-1244600D02*
G01*
X6553200Y-1346200D01*
X6773164Y-1426006D02*
G01*
X6773164Y-1396009D01*
X6773189Y-1875993D02*
G01*
X6853555Y-1875993D01*
X6893737Y-1426006D02*
G01*
X6893737Y-1835810D01*
X6853555Y-1875993D01*
X6890918Y-1041400D02*
G01*
X6890918Y-1119073D01*
X6962546Y-1190701D01*
X6962546Y-1357198D01*
X6893737Y-1426006D01*
X6893737Y-1426006D02*
G01*
X6773164Y-1426006D01*
X6773164Y-1396009D02*
G01*
X6654190Y-1396009D01*
X6654190Y-1396009D02*
G01*
X6604381Y-1346200D01*
X6654190Y-1396009D02*
G01*
X6605905Y-1444294D01*
X6605905Y-1569440D01*
X6636029Y-1599565D01*
X6636029Y-1647799D01*
X6594576Y-1689252D01*
X6494449Y-1689252D01*
X6480810Y-1675612D01*
X1897481Y-1270000D02*
G01*
X1897481Y-1319885D01*
X1897481Y-1319885D02*
G01*
X1970659Y-1393063D01*
X2681097Y-1393063D01*
X3121812Y-1833778D01*
X3825849Y-1833778D01*
X4185234Y-1474393D01*
X4567199Y-1474393D01*
X1971116Y-2057400D02*
G01*
X1971116Y-2108352D01*
X1975535Y-2112772D01*
X2014778Y-2112772D01*
X2053971Y-2151964D01*
X2053971Y-2440686D01*
X2053996Y-2057400D02*
G01*
X1971116Y-2057400D01*
X2264003Y-1670812D02*
G01*
X2181123Y-1670812D01*
X2093798Y-1793316D02*
G01*
X2181123Y-1705991D01*
X2181123Y-1670812D01*
X6773189Y-1675993D02*
G01*
X6853555Y-1675993D01*
X6845934Y-1575993D02*
G01*
X6853681Y-1583740D01*
X6853681Y-1675866D01*
X6853555Y-1675993D01*
X6805803Y-1575993D02*
G01*
X6845934Y-1575993D01*
X6805803Y-1575993D02*
G01*
X6773189Y-1575993D01*
X6675297Y-1220139D02*
G01*
X6598158Y-1143000D01*
X6545681Y-1143000D01*
X6773189Y-1575993D02*
G01*
X6688124Y-1575993D01*
X6667627Y-1555496D01*
X4970881Y-1219200D02*
G01*
X4970881Y-1169314D01*
X4872380Y-1105255D02*
G01*
X4936439Y-1169314D01*
X4970881Y-1169314D01*
X4952644Y-1469237D02*
G01*
X4884318Y-1400911D01*
X4884318Y-1320800D01*
X5588000Y-1811324D02*
G01*
X5588000Y-1887118D01*
X3579012Y-558800D02*
G01*
X3579012Y-711682D01*
X3579012Y-711682D02*
G01*
X3697732Y-711682D01*
X1907387Y-2692400D02*
G01*
X1907387Y-2539517D01*
X1907387Y-2539517D02*
G01*
X1789175Y-2539517D01*
X3278987Y-2692400D02*
G01*
X3278987Y-2539517D01*
X3278987Y-2539517D02*
G01*
X3397732Y-2539517D01*
X6143193Y-2799892D02*
G01*
X5904992Y-2799892D01*
X5904992Y-2799892D02*
G01*
X5693206Y-2799892D01*
X5693206Y-691692D02*
G01*
X5693206Y-633806D01*
X5833262Y-629716D02*
G01*
X5697296Y-629716D01*
X5693206Y-633806D01*
X6143193Y-691692D02*
G01*
X5895238Y-691692D01*
X5833262Y-629716D01*
X4567199Y-1974392D02*
G01*
X4645101Y-1974392D01*
X4645101Y-1974392D02*
G01*
X4674031Y-2003323D01*
X4674031Y-2015413D01*
X4249445Y-1412011D02*
G01*
X4287062Y-1374394D01*
X4567199Y-1374394D01*
X6229400Y-1625600D02*
G01*
X6320790Y-1625600D01*
X6977481Y-1041400D02*
G01*
X6977481Y-991514D01*
X6977481Y-991514D02*
G01*
X6953326Y-967359D01*
X6480810Y-1625600D02*
G01*
X6546189Y-1625600D01*
X6570776Y-1633042D02*
G01*
X6553631Y-1633042D01*
X6546189Y-1625600D01*
X4884318Y-1219200D02*
G01*
X4884318Y-1169314D01*
X4747895Y-1205103D02*
G01*
X4819065Y-1205103D01*
X4833162Y-1219200D01*
X4884318Y-1219200D02*
G01*
X4833162Y-1219200D01*
X4567199Y-1124407D02*
G01*
X4793081Y-1124407D01*
X4837988Y-1169314D01*
X4884318Y-1169314D01*
X5492724Y-1669440D02*
G01*
X5371236Y-1669440D01*
X5326481Y-1624685D01*
X5326481Y-1574800D02*
G01*
X5326481Y-1624685D01*
X6143193Y-2584907D02*
G01*
X5693206Y-2584907D01*
X5693206Y-2584907D02*
G01*
X5620334Y-2584907D01*
X5595950Y-2560523D02*
G01*
X5620334Y-2584907D01*
X5326481Y-1879600D02*
G01*
X5377662Y-1879600D01*
X5461965Y-1781098D02*
G01*
X5377662Y-1865401D01*
X5377662Y-1879600D01*
X6317081Y-1954885D02*
G01*
X6356324Y-1954885D01*
X6357416Y-1955977D01*
X6357416Y-1955977D02*
G01*
X6571488Y-1955977D01*
X6682968Y-1844497D01*
X6682968Y-1799996D01*
X6706971Y-1775993D01*
X6773189Y-1775993D01*
X6357416Y-1955977D02*
G01*
X6357416Y-1979904D01*
X6317081Y-1905000D02*
G01*
X6317081Y-1954885D01*
X6659372Y-1467459D02*
G01*
X6684264Y-1467459D01*
X6692798Y-1475994D01*
X6773189Y-1475994D02*
G01*
X6692798Y-1475994D01*
X6519367Y-1475587D02*
G01*
X6481876Y-1475587D01*
X6349085Y-1342796D01*
X6349085Y-1302918D01*
X6299200Y-1302918D02*
G01*
X6349085Y-1302918D01*
X4970881Y-1981200D02*
G01*
X4970881Y-1931314D01*
X4970881Y-1931314D02*
G01*
X4969179Y-1929612D01*
X4759147Y-1929612D01*
X4756099Y-1926564D01*
X2957245Y-1794865D02*
G01*
X3383787Y-2221407D01*
X4561713Y-2221407D01*
X4606264Y-2265959D01*
X4837607Y-2265959D01*
X4970881Y-2132685D01*
X4970881Y-2082800D02*
G01*
X4970881Y-2132685D01*
X5326481Y-1219200D02*
G01*
X5377662Y-1219200D01*
X5399633Y-1170000D02*
G01*
X5377662Y-1191971D01*
X5377662Y-1219200D01*
X6255410Y-1575587D02*
G01*
X6255410Y-1551762D01*
X6238544Y-1534896D01*
X6320790Y-1575587D02*
G01*
X6255410Y-1575587D01*
X4567199Y-1524406D02*
G01*
X4489323Y-1524406D01*
X4489323Y-1524406D02*
G01*
X4484344Y-1529384D01*
X4345457Y-1529384D01*
X2264003Y-2153412D02*
G01*
X2346883Y-2153412D01*
X2650363Y-2438044D02*
G01*
X2631516Y-2438044D01*
X2346883Y-2153412D01*
X5326481Y-2082800D02*
G01*
X5326481Y-2132685D01*
X5326481Y-2132685D02*
G01*
X4981752Y-2477414D01*
X3381248Y-2477414D01*
X2384501Y-1480667D01*
X5565267Y-1272362D02*
G01*
X5541441Y-1272362D01*
X5536285Y-1277518D01*
X5486400Y-1277518D02*
G01*
X5536285Y-1277518D01*
X4759121Y-1815261D02*
G01*
X4823460Y-1879600D01*
X4884318Y-1879600D01*
X1854200Y-1904542D02*
G01*
X1854200Y-1929485D01*
X1854200Y-1904542D02*
G01*
X1854200Y-1879600D01*
X2311400Y-1118514D02*
G01*
X2309698Y-1116812D01*
X1932101Y-1116812D01*
X1930400Y-1118514D01*
X2311400Y-1168400D02*
G01*
X2311400Y-1118514D01*
X1930400Y-1168400D02*
G01*
X1930400Y-1118514D01*
X1625600Y-1066800D02*
G01*
X1625600Y-1116685D01*
X6451600Y-1194714D02*
G01*
X6453428Y-1192885D01*
X6459118Y-1192885D01*
X6451600Y-1244600D02*
G01*
X6451600Y-1194714D01*
X6459118Y-1143000D02*
G01*
X6459118Y-1192885D01*
X1930400Y-1066800D02*
G01*
X1930400Y-1116685D01*
X1930400Y-1116685D02*
G01*
X1929485Y-1117600D01*
X1625600Y-1116685D02*
G01*
X1626514Y-1117600D01*
X1929485Y-1117600D01*
X1929485Y-1117600D02*
G01*
X1930400Y-1118514D01*
X1778000Y-1371600D02*
G01*
X1778000Y-1421485D01*
X6773189Y-1986000D02*
G01*
X6773189Y-1956003D01*
X6451600Y-1244600D02*
G01*
X6451600Y-1294485D01*
X6433718Y-1905000D02*
G01*
X6433718Y-1855114D01*
X6230518Y-1855114D02*
G01*
X6230645Y-1854987D01*
X6400800Y-1854987D01*
X6400800Y-1854987D02*
G01*
X6433591Y-1854987D01*
X6433718Y-1855114D01*
X6400800Y-1854987D02*
G01*
X6400800Y-1590217D01*
X6415430Y-1575587D01*
X6480810Y-1575587D02*
G01*
X6415430Y-1575587D01*
X6451600Y-1346200D02*
G01*
X6451600Y-1296314D01*
X6274257Y-1389481D02*
G01*
X6249314Y-1389481D01*
X6274257Y-1389481D02*
G01*
X6299200Y-1389481D01*
X6451600Y-1296314D02*
G01*
X6451600Y-1294485D01*
X1854200Y-1879600D02*
G01*
X1854200Y-1716887D01*
X1854200Y-1716887D02*
G01*
X1854200Y-1625600D01*
X1854200Y-1716887D02*
G01*
X2075611Y-1716887D01*
X6230518Y-1880057D02*
G01*
X6230518Y-1855114D01*
X6415430Y-1575587D02*
G01*
X6249314Y-1409471D01*
X1854200Y-1929485D02*
G01*
X1886102Y-1961388D01*
X2181123Y-1961388D01*
X2264003Y-1961388D02*
G01*
X2181123Y-1961388D01*
X5232400Y-1473200D02*
G01*
X5232400Y-1523085D01*
X5816600Y-1600200D02*
G01*
X5697118Y-1480718D01*
X5486400Y-1480718D01*
X5436514Y-1480718D02*
G01*
X5394020Y-1523212D01*
X5232527Y-1523212D01*
X5232400Y-1523085D01*
X5486400Y-1480718D02*
G01*
X5436514Y-1480718D01*
X2311400Y-1270000D02*
G01*
X2311400Y-1221638D01*
X2311400Y-1221638D02*
G01*
X2311400Y-1168400D01*
X2311400Y-1221638D02*
G01*
X2383739Y-1221638D01*
X6249314Y-1409471D02*
G01*
X6249314Y-1389481D01*
X6249314Y-1389481D02*
G01*
X6249187Y-1389354D01*
X6249187Y-1251610D01*
X6256197Y-1244600D01*
X6451600Y-1244600D01*
X6230518Y-1880057D02*
G01*
X6230518Y-1905000D01*
X6230518Y-1954885D02*
G01*
X6320561Y-2044928D01*
X6525844Y-2044928D01*
X6584772Y-1986000D01*
X6773189Y-1986000D01*
X2108200Y-1319885D02*
G01*
X2119782Y-1331468D01*
X2299817Y-1331468D01*
X2311400Y-1319885D01*
X2108200Y-1270000D02*
G01*
X2108200Y-1319885D01*
X2311400Y-1270000D02*
G01*
X2311400Y-1319885D01*
X6773189Y-1345996D02*
G01*
X6773189Y-1315999D01*
X6773189Y-1315999D02*
G01*
X6692798Y-1315999D01*
X4567199Y-1024407D02*
G01*
X4645101Y-1024407D01*
X6249314Y-1409471D02*
G01*
X6058585Y-1600200D01*
X5816600Y-1600200D01*
X2264003Y-1478788D02*
G01*
X2181123Y-1478788D01*
X1854200Y-1499997D02*
G01*
X2159914Y-1499997D01*
X2181123Y-1478788D01*
X1854200Y-1625600D02*
G01*
X1854200Y-1499997D01*
X1854200Y-1499997D02*
G01*
X1854200Y-1497685D01*
X1778000Y-1421485D01*
X6459118Y-1192885D02*
G01*
X6460820Y-1194587D01*
X6600444Y-1194587D01*
X6604863Y-1199007D01*
X6604863Y-1228064D01*
X6692798Y-1315999D01*
X6230518Y-1905000D02*
G01*
X6230518Y-1929942D01*
X6230518Y-1929942D02*
G01*
X6230518Y-1954885D01*
X6230518Y-1929942D02*
G01*
X6156375Y-1929942D01*
X4728006Y-1016838D02*
G01*
X4652670Y-1016838D01*
X4645101Y-1024407D01*
X5289981Y-1028852D02*
G01*
X5326481Y-1065352D01*
X5326481Y-1117600D01*
X4247489Y-1801215D02*
G01*
X4349115Y-1699590D01*
X4481525Y-1699590D01*
X4506722Y-1674393D01*
X4567199Y-1674393D01*
X2187956Y-1580337D02*
G01*
X2142413Y-1580337D01*
X2136876Y-1574800D01*
X2053996Y-1574800D02*
G01*
X2136876Y-1574800D01*
X2039518Y-1066800D02*
G01*
X2039518Y-855167D01*
X2136470Y-758215D01*
X5050231Y-2035225D02*
G01*
X5050231Y-1958949D01*
X4970881Y-1879600D01*
X4567199Y-1274394D02*
G01*
X4232300Y-1274394D01*
X4079925Y-1426768D01*
X6143193Y-476707D02*
G01*
X5693206Y-476707D01*
X5693206Y-476707D02*
G01*
X5693206Y-534593D01*
X5693206Y-534593D02*
G01*
X5635320Y-534593D01*
X5256911Y-913003D01*
X4403775Y-913003D01*
X4234688Y-1082090D01*
X4234688Y-1104519D01*
X4203674Y-1135532D01*
X4185005Y-1135532D01*
X3578733Y-1741805D01*
X3578733Y-1774469D01*
X5326481Y-1981200D02*
G01*
X5326481Y-2031085D01*
X5164353Y-2046071D02*
G01*
X5177637Y-2032787D01*
X5324779Y-2032787D01*
X5326481Y-2031085D01*
X4567199Y-1924405D02*
G01*
X4465929Y-1924405D01*
X1907387Y-558800D02*
G01*
X1907387Y-711682D01*
X3278987Y-405917D02*
G01*
X3278454Y-405384D01*
X1907921Y-405384D01*
X1907387Y-405917D01*
X3278987Y-558800D02*
G01*
X3278987Y-405917D01*
X1907387Y-558800D02*
G01*
X1907387Y-405917D01*
X3579012Y-2692400D02*
G01*
X3579012Y-2845282D01*
X2207412Y-2692400D02*
G01*
X2207412Y-2845282D01*
X1810918Y-1270000D02*
G01*
X1810918Y-1220114D01*
X1828800Y-1168400D02*
G01*
X1777644Y-1168400D01*
X1676400Y-1371600D02*
G01*
X1676400Y-1321714D01*
X2209800Y-1168400D02*
G01*
X2209800Y-1201826D01*
X2209800Y-1201826D02*
G01*
X2209800Y-1270000D01*
X2209800Y-1201826D02*
G01*
X2024888Y-1201826D01*
X2006600Y-1220114D01*
X2006600Y-1270000D02*
G01*
X2006600Y-1220114D01*
X1828800Y-1066800D02*
G01*
X1777644Y-1066800D01*
X1676400Y-1321714D02*
G01*
X1790700Y-1207414D01*
X1810918Y-1220114D02*
G01*
X1803400Y-1220114D01*
X1790700Y-1207414D01*
X1810918Y-1220114D02*
G01*
X1811045Y-1219987D01*
X2006473Y-1219987D01*
X2006600Y-1220114D01*
X1752600Y-1575714D02*
G01*
X1676400Y-1499514D01*
X1676400Y-1371600D01*
X1752600Y-1625600D02*
G01*
X1752600Y-1575714D01*
X1752600Y-1625600D02*
G01*
X1752600Y-1879600D01*
X2207412Y-2692400D02*
G01*
X2207412Y-2539517D01*
X2079904Y-2539517D02*
G01*
X2207412Y-2539517D01*
X1727200Y-1066800D02*
G01*
X1752422Y-1041577D01*
X1752422Y-1041577D02*
G01*
X1777644Y-1066800D01*
X1790700Y-1207414D02*
G01*
X1784172Y-1200886D01*
X1784172Y-1200886D02*
G01*
X1777644Y-1194358D01*
X1777644Y-1168400D01*
X1752422Y-925830D02*
G01*
X1752422Y-1041577D01*
X2079904Y-2539517D02*
G01*
X2076907Y-2539517D01*
X1938020Y-2400630D01*
X1938020Y-2114905D01*
X1752600Y-1929485D01*
X1752600Y-1879600D02*
G01*
X1752600Y-1929485D01*
X1907387Y-711682D02*
G01*
X1752422Y-866648D01*
X1752422Y-925830D01*
X3579012Y-2845282D02*
G01*
X3556431Y-2845282D01*
X3543579Y-2832430D01*
X3499256Y-2832430D01*
X3486276Y-2845409D01*
X2793415Y-2845409D01*
X2767482Y-2819476D01*
X2723159Y-2819476D01*
X2697353Y-2845282D01*
X2207412Y-2845282D01*
X5486400Y-1973681D02*
G01*
X5536285Y-1973681D01*
X5536285Y-2046122D02*
G01*
X5536285Y-1973681D01*
X5879414Y-2047875D02*
G01*
X5538038Y-2047875D01*
X5536285Y-2046122D01*
X3579012Y-2692400D02*
G01*
X3579012Y-2539517D01*
X1784172Y-1200886D02*
G01*
X1611630Y-1200886D01*
X1417066Y-1006322D01*
X1417066Y-980262D01*
X1417066Y-980262D02*
G01*
X1417066Y-963853D01*
X1455089Y-925830D01*
X1752422Y-925830D01*
X1397025Y-980262D02*
G01*
X1417066Y-980262D01*
X3579012Y-2539517D02*
G01*
X3676904Y-2539517D01*
X3753358Y-2615971D01*
X4889957Y-2615971D01*
X5435066Y-2070862D01*
X5435066Y-2070862D02*
G01*
X5459806Y-2046122D01*
X5536285Y-2046122D01*
X3278987Y-558800D02*
G01*
X3278987Y-711682D01*
X4985080Y-1105357D02*
G01*
X5188762Y-1309039D01*
X5188762Y-1320800D01*
X5239918Y-1320800D02*
G01*
X5188762Y-1320800D01*
X4178376Y-1082065D02*
G01*
X4088739Y-992428D01*
X3559733Y-992428D01*
X3278987Y-711682D01*
D11*
G01*
X5326482Y-1320800D03*
G01*
X5239917Y-1320800D03*
D12*
G01*
X6299200Y-1389482D03*
D13*
G01*
X6299200Y-1302918D03*
D11*
G01*
X6545682Y-1143000D03*
G01*
X6459117Y-1143000D03*
G01*
X6520282Y-1905000D03*
G01*
X6433717Y-1905000D03*
G01*
X6317082Y-1905000D03*
G01*
X6230517Y-1905000D03*
D14*
G01*
X6773189Y-1315999D03*
G01*
X6773189Y-1345996D03*
G01*
X6773164Y-1396009D03*
D15*
G01*
X6773160Y-1426000D03*
D14*
G01*
X6773189Y-1475994D03*
G01*
X6773087Y-1526032D03*
G01*
X6773189Y-1575993D03*
G01*
X6773189Y-1626006D03*
G01*
X6773189Y-1675993D03*
G01*
X6773189Y-1726006D03*
G01*
X6773189Y-1775993D03*
G01*
X6773087Y-1826006D03*
G01*
X6773189Y-1875993D03*
G01*
X6773189Y-1905990D03*
G01*
X6773189Y-1956003D03*
G01*
X6773189Y-1986000D03*
D16*
G01*
X2006600Y-1270000D03*
G01*
X2108200Y-1270000D03*
G01*
X1752600Y-1625600D03*
G01*
X1854200Y-1625600D03*
G01*
X1828800Y-1168400D03*
G01*
X1930400Y-1168400D03*
G01*
X1828800Y-1066800D03*
G01*
X1930400Y-1066800D03*
G01*
X6553200Y-1346200D03*
G01*
X6451600Y-1346200D03*
G01*
X6553200Y-1244600D03*
G01*
X6451600Y-1244600D03*
D17*
G01*
X6480810Y-1675612D03*
G01*
X6480810Y-1625600D03*
G01*
X6480810Y-1575587D03*
G01*
X6320790Y-1575587D03*
G01*
X6320790Y-1625600D03*
G01*
X6320790Y-1675612D03*
D12*
G01*
X5486400Y-1887117D03*
D13*
G01*
X5486400Y-1973681D03*
D12*
G01*
X5486400Y-1567282D03*
D13*
G01*
X5486400Y-1480718D03*
D18*
G01*
X6890917Y-1041400D03*
G01*
X6977482Y-1041400D03*
D16*
G01*
X1727200Y-1066800D03*
G01*
X1625600Y-1066800D03*
G01*
X5334000Y-1473200D03*
G01*
X5232400Y-1473200D03*
G01*
X2209800Y-1270000D03*
G01*
X2311400Y-1270000D03*
G01*
X2209800Y-1168400D03*
G01*
X2311400Y-1168400D03*
D18*
G01*
X5239917Y-1219200D03*
G01*
X5326482Y-1219200D03*
D11*
G01*
X4970882Y-1320800D03*
G01*
X4884317Y-1320800D03*
G01*
X4970882Y-1879600D03*
G01*
X4884317Y-1879600D03*
D18*
G01*
X5239917Y-1117600D03*
G01*
X5326482Y-1117600D03*
G01*
X4884317Y-1219200D03*
G01*
X4970882Y-1219200D03*
D12*
G01*
X5486400Y-1364082D03*
D13*
G01*
X5486400Y-1277518D03*
D11*
G01*
X1897482Y-1270000D03*
G01*
X1810917Y-1270000D03*
D18*
G01*
X5239917Y-1574800D03*
G01*
X5326482Y-1574800D03*
G01*
X5239917Y-1879600D03*
G01*
X5326482Y-1879600D03*
G01*
X5239917Y-1981200D03*
G01*
X5326482Y-1981200D03*
G01*
X5239917Y-2082800D03*
G01*
X5326482Y-2082800D03*
G01*
X4884317Y-2082800D03*
G01*
X4970882Y-2082800D03*
G01*
X4884317Y-1981200D03*
G01*
X4970882Y-1981200D03*
D12*
G01*
X5588000Y-1973682D03*
D13*
G01*
X5588000Y-1887118D03*
D19*
G01*
X4567199Y-974394D03*
G01*
X4567199Y-1024407D03*
G01*
X4567199Y-1074394D03*
G01*
X4567199Y-1124407D03*
G01*
X4567199Y-1174394D03*
G01*
X4567199Y-1224407D03*
G01*
X4567199Y-1274394D03*
G01*
X4567199Y-1324406D03*
G01*
X4567199Y-1374394D03*
G01*
X4567199Y-1424406D03*
G01*
X4567199Y-1474393D03*
G01*
X4567199Y-1524406D03*
G01*
X4567199Y-1574393D03*
G01*
X4567199Y-1624406D03*
G01*
X4567199Y-1674393D03*
G01*
X4567199Y-1724406D03*
G01*
X4567199Y-1774393D03*
G01*
X4567199Y-1824405D03*
G01*
X4567199Y-1874392D03*
G01*
X4567199Y-1924405D03*
G01*
X4567199Y-1974392D03*
G01*
X4567199Y-2024405D03*
G01*
X4567199Y-2074392D03*
G01*
X4567199Y-2124405D03*
D20*
G01*
X4472203Y-684403D03*
D21*
G01*
X4454702Y-789406D03*
G01*
X4454702Y-2309393D03*
D20*
G01*
X4472203Y-2414397D03*
D22*
G01*
X5693206Y-476707D03*
G01*
X6143193Y-476707D03*
G01*
X5693206Y-691692D03*
G01*
X6143193Y-691692D03*
G01*
X5693206Y-2584907D03*
G01*
X6143193Y-2584907D03*
G01*
X5693206Y-2799892D03*
G01*
X6143193Y-2799892D03*
D16*
G01*
X1752600Y-1879600D03*
G01*
X1854200Y-1879600D03*
G01*
X1676400Y-1371600D03*
G01*
X1778000Y-1371600D03*
D23*
G01*
X3278987Y-2692400D03*
G01*
X3579012Y-2692400D03*
G01*
X1907387Y-2692400D03*
G01*
X2207412Y-2692400D03*
D24*
G01*
X2264003Y-2153412D03*
G01*
X2264003Y-1961388D03*
G01*
X2053996Y-2057400D03*
D23*
G01*
X3579012Y-558800D03*
G01*
X3278987Y-558800D03*
G01*
X2207412Y-558800D03*
G01*
X1907387Y-558800D03*
D24*
G01*
X2264003Y-1670812D03*
G01*
X2264003Y-1478788D03*
G01*
X2053996Y-1574800D03*
D11*
G01*
X2126082Y-1066800D03*
G01*
X2039517Y-1066800D03*
D25*
G01*
X5816600Y-1600200D03*
D26*
G01*
X6829704Y-2083003D03*
G01*
X6829704Y-1218996D03*
D27*
G01*
X7247712Y-1218996D03*
G01*
X7247712Y-2083003D03*
D28*
G01*
X4985080Y-1105357D03*
G01*
X5435066Y-2070862D03*
G01*
X4413529Y-981176D03*
G01*
X4178376Y-1082065D03*
G01*
X1397025Y-980262D03*
G01*
X5879414Y-2047875D03*
G01*
X2079904Y-2539517D03*
G01*
X4465929Y-1924405D03*
G01*
X5164353Y-2046071D03*
G01*
X5389372Y-897966D03*
G01*
X3578733Y-1774469D03*
G01*
X1884553Y-2388387D03*
G01*
X2603449Y-2936468D03*
G01*
X5050231Y-2035225D03*
G01*
X4079925Y-1426768D03*
G01*
X2187956Y-1580337D03*
G01*
X2136470Y-758215D03*
G01*
X5289981Y-1028852D03*
G01*
X6156375Y-1929942D03*
G01*
X4728006Y-1016838D03*
G01*
X4247489Y-1801215D03*
G01*
X2383739Y-1221638D03*
G01*
X2075611Y-1716887D03*
G01*
X4759121Y-1815261D03*
G01*
X4451985Y-1787753D03*
G01*
X3895242Y-1045895D03*
G01*
X5565267Y-1272362D03*
G01*
X4360316Y-1038402D03*
G01*
X2384501Y-1480667D03*
G01*
X3920998Y-669721D03*
G01*
X4374819Y-1776399D03*
G01*
X1882393Y-2162835D03*
G01*
X2650363Y-2438044D03*
G01*
X3578733Y-1392174D03*
G01*
X3927094Y-862279D03*
G01*
X4345457Y-1529384D03*
G01*
X3841902Y-671372D03*
G01*
X5656478Y-1663750D03*
G01*
X6238544Y-1534896D03*
G01*
X5399633Y-1170000D03*
G01*
X2350287Y-999921D03*
G01*
X2957245Y-1794865D03*
G01*
X2385872Y-1678432D03*
G01*
X4756099Y-1926564D03*
G01*
X4254322Y-507060D03*
G01*
X6519367Y-1475587D03*
G01*
X6659372Y-1467459D03*
G01*
X2341600Y-2057704D03*
G01*
X2172944Y-2377770D03*
G01*
X6357416Y-1979904D03*
G01*
X5461965Y-1781098D03*
G01*
X5595950Y-2560523D03*
G01*
X3788079Y-2556078D03*
G01*
X4736338Y-2209292D03*
G01*
X1571701Y-1946427D03*
G01*
X3044748Y-1265936D03*
G01*
X4701590Y-1354378D03*
G01*
X2841599Y-1392961D03*
G01*
X5567451Y-1357376D03*
G01*
X2672410Y-1588897D03*
G01*
X4839944Y-1468247D03*
G01*
X3027197Y-1489913D03*
G01*
X5409514Y-1423847D03*
G01*
X2449347Y-2539441D03*
G01*
X3441039Y-2784805D03*
G01*
X6049441Y-1777009D03*
G01*
X4247972Y-1630273D03*
G01*
X5492724Y-1669440D03*
G01*
X5145989Y-793115D03*
G01*
X4121759Y-1300861D03*
G01*
X5116957Y-1336090D03*
G01*
X2000224Y-2185085D03*
G01*
X3876675Y-2288641D03*
G01*
X4747895Y-1205103D03*
G01*
X4217390Y-1196568D03*
G01*
X5055844Y-2155647D03*
G01*
X5457647Y-2155647D03*
G01*
X6570776Y-1633042D03*
G01*
X5568315Y-2101367D03*
G01*
X6229400Y-1625600D03*
G01*
X6953326Y-967359D03*
G01*
X4249445Y-1412011D03*
G01*
X4674031Y-2015413D03*
G01*
X5833262Y-629716D03*
G01*
X5904992Y-2799892D03*
G01*
X3397732Y-2539517D03*
G01*
X1789175Y-2539517D03*
G01*
X3697732Y-711682D03*
G01*
X4675301Y-2092299D03*
G01*
X4459351Y-1646123D03*
G01*
X3280790Y-1651965D03*
G01*
X2742311Y-2618130D03*
G01*
X2745308Y-2872943D03*
G01*
X5588000Y-1811324D03*
G01*
X1474622Y-985646D03*
G01*
X5344388Y-2735300D03*
G01*
X3521405Y-2885897D03*
G01*
X4952644Y-1469237D03*
G01*
X4871745Y-859536D03*
G01*
X2742209Y-821817D03*
G01*
X4872380Y-1105255D03*
G01*
X4100296Y-1091590D03*
G01*
X6675297Y-1220139D03*
G01*
X6667627Y-1555496D03*
G01*
X1965604Y-2514981D03*
G01*
X2652090Y-2593009D03*
G01*
X2093798Y-1793316D03*
G01*
X2053971Y-2440686D03*
G01*
X5572556Y-2438120D03*
G01*
X3151936Y-2646654D03*
G01*
X4799660Y-2065858D03*
G01*
X4405579Y-2072944D03*
G01*
X5401538Y-1283893D03*
G01*
X4335703Y-679577D03*
G01*
X4452366Y-1151432D03*
G01*
X5619496Y-974420D03*
G01*
X3959707Y-1436446D03*
G01*
X2110130Y-1446530D03*
G01*
X4465320Y-2155825D03*
G01*
X5660821Y-1973021D03*
G01*
X4465904Y-2024405D03*
M02*
