G04 Layer: TopLayer*
G04 EasyEDA v6.5.39, 2023-12-11 18:00:09*
G04 fc83978cdc934b7da63e149a84a413c2,10*
G04 Gerber Generator version 0.2*
G04 Scale: 100 percent, Rotated: No, Reflected: No *
G04 Dimensions in millimeters *
G04 leading zeros omitted , absolute positions ,4 integer and 5 decimal *
%FSLAX45Y45*%
%MOMM*%

%AMMACRO1*21,1,$1,$2,0,0,$3*%
%ADD10C,0.1524*%
%ADD11MACRO1,0.54X0.5656X0.0000*%
%ADD12R,0.5400X0.5657*%
%ADD13R,0.3000X1.1500*%
%ADD14MACRO1,0.3X1.15X0.0000*%
%ADD15MACRO1,5X4X0.0000*%
%ADD16R,0.4999X0.5799*%
%ADD17R,0.4999X0.4999*%
%ADD18O,1.0999978000000001X2.0999958*%
%ADD19O,1.0999978000000001X1.7999964*%
%ADD20R,1.2380X1.2380*%
%ADD21C,1.2380*%
%ADD22C,0.5080*%
%ADD23C,0.0190*%

%LPD*%
G36*
X36068Y-4292092D02*
G01*
X32156Y-4291330D01*
X28905Y-4289094D01*
X26670Y-4285843D01*
X25908Y-4281932D01*
X25908Y-36068D01*
X26670Y-32156D01*
X28905Y-28905D01*
X32156Y-26670D01*
X36068Y-25908D01*
X6567931Y-25908D01*
X6571843Y-26670D01*
X6575094Y-28905D01*
X6577330Y-32156D01*
X6578092Y-36068D01*
X6578092Y-4281932D01*
X6577330Y-4285843D01*
X6575094Y-4289094D01*
X6571843Y-4291330D01*
X6567931Y-4292092D01*
X4074160Y-4292092D01*
X4070248Y-4291330D01*
X4066997Y-4289094D01*
X4064762Y-4285843D01*
X4064000Y-4281932D01*
X4064000Y-3658615D01*
X4062984Y-3657600D01*
X2541016Y-3657600D01*
X2540000Y-3658615D01*
X2540000Y-4281932D01*
X2539238Y-4285843D01*
X2537002Y-4289094D01*
X2533751Y-4291330D01*
X2529840Y-4292092D01*
G37*

%LPC*%
G36*
X6354572Y-4242358D02*
G01*
X6372910Y-4240936D01*
X6390995Y-4237634D01*
X6408623Y-4232503D01*
X6425641Y-4225594D01*
X6441846Y-4216958D01*
X6457086Y-4206697D01*
X6471158Y-4194911D01*
X6484010Y-4181754D01*
X6495389Y-4167378D01*
X6505244Y-4151884D01*
X6513474Y-4135424D01*
X6519926Y-4118254D01*
X6524599Y-4100474D01*
X6527444Y-4082338D01*
X6528409Y-4064000D01*
X6527444Y-4045661D01*
X6524599Y-4027525D01*
X6519926Y-4009745D01*
X6513474Y-3992575D01*
X6505244Y-3976115D01*
X6495389Y-3960622D01*
X6484010Y-3946245D01*
X6471158Y-3933088D01*
X6457086Y-3921302D01*
X6441846Y-3911041D01*
X6425641Y-3902405D01*
X6408623Y-3895496D01*
X6390995Y-3890365D01*
X6372910Y-3887063D01*
X6354572Y-3885641D01*
X6336233Y-3886149D01*
X6317996Y-3888486D01*
X6300165Y-3892702D01*
X6282791Y-3898747D01*
X6266180Y-3906520D01*
X6250432Y-3915968D01*
X6235700Y-3926992D01*
X6222238Y-3939489D01*
X6210096Y-3953306D01*
X6199479Y-3968242D01*
X6190437Y-3984244D01*
X6183071Y-4001058D01*
X6177483Y-4018584D01*
X6173724Y-4036568D01*
X6171844Y-4054805D01*
X6171844Y-4073194D01*
X6173724Y-4091432D01*
X6177483Y-4109415D01*
X6183071Y-4126941D01*
X6190437Y-4143756D01*
X6199479Y-4159758D01*
X6210096Y-4174693D01*
X6222238Y-4188510D01*
X6235700Y-4201007D01*
X6250432Y-4212031D01*
X6266180Y-4221480D01*
X6282791Y-4229252D01*
X6300165Y-4235297D01*
X6317996Y-4239514D01*
X6336233Y-4241850D01*
G37*
G36*
X258571Y-4242358D02*
G01*
X276910Y-4240936D01*
X294995Y-4237634D01*
X312623Y-4232503D01*
X329641Y-4225594D01*
X345846Y-4216958D01*
X361086Y-4206697D01*
X375158Y-4194911D01*
X388010Y-4181754D01*
X399389Y-4167378D01*
X409244Y-4151884D01*
X417474Y-4135424D01*
X423926Y-4118254D01*
X428599Y-4100474D01*
X431444Y-4082338D01*
X432409Y-4064000D01*
X431444Y-4045661D01*
X428599Y-4027525D01*
X423926Y-4009745D01*
X417474Y-3992575D01*
X409244Y-3976115D01*
X399389Y-3960622D01*
X388010Y-3946245D01*
X375158Y-3933088D01*
X361086Y-3921302D01*
X345846Y-3911041D01*
X329641Y-3902405D01*
X312623Y-3895496D01*
X294995Y-3890365D01*
X276910Y-3887063D01*
X258571Y-3885641D01*
X240233Y-3886149D01*
X221996Y-3888486D01*
X204165Y-3892702D01*
X186791Y-3898747D01*
X170180Y-3906520D01*
X154432Y-3915968D01*
X139700Y-3926992D01*
X126237Y-3939489D01*
X114096Y-3953306D01*
X103479Y-3968242D01*
X94437Y-3984244D01*
X87071Y-4001058D01*
X81483Y-4018584D01*
X77724Y-4036568D01*
X75844Y-4054805D01*
X75844Y-4073194D01*
X77724Y-4091432D01*
X81483Y-4109415D01*
X87071Y-4126941D01*
X94437Y-4143756D01*
X103479Y-4159758D01*
X114096Y-4174693D01*
X126237Y-4188510D01*
X139700Y-4201007D01*
X154432Y-4212031D01*
X170180Y-4221480D01*
X186791Y-4229252D01*
X204165Y-4235297D01*
X221996Y-4239514D01*
X240233Y-4241850D01*
G37*
G36*
X5943803Y-4112361D02*
G01*
X5955284Y-4111548D01*
X5966561Y-4109110D01*
X5977382Y-4105097D01*
X5987491Y-4099560D01*
X5996736Y-4092651D01*
X6004915Y-4084472D01*
X6011824Y-4075226D01*
X6017361Y-4065117D01*
X6021374Y-4054297D01*
X6023864Y-4043019D01*
X6024676Y-4031132D01*
X6024676Y-3961892D01*
X6023864Y-3950004D01*
X6021374Y-3938727D01*
X6017361Y-3927906D01*
X6011824Y-3917797D01*
X6004915Y-3908551D01*
X5996736Y-3900373D01*
X5987491Y-3893464D01*
X5977382Y-3887927D01*
X5966561Y-3883914D01*
X5955284Y-3881424D01*
X5943803Y-3880612D01*
X5932271Y-3881424D01*
X5920994Y-3883914D01*
X5910173Y-3887927D01*
X5900064Y-3893464D01*
X5890818Y-3900373D01*
X5882640Y-3908551D01*
X5875731Y-3917797D01*
X5870194Y-3927906D01*
X5866180Y-3938727D01*
X5863742Y-3950004D01*
X5862878Y-3961892D01*
X5862878Y-4031132D01*
X5863742Y-4043019D01*
X5866180Y-4054297D01*
X5870194Y-4065117D01*
X5875731Y-4075226D01*
X5882640Y-4084472D01*
X5890818Y-4092651D01*
X5900064Y-4099560D01*
X5910173Y-4105097D01*
X5920994Y-4109110D01*
X5932271Y-4111548D01*
G37*
G36*
X5079796Y-4112361D02*
G01*
X5091277Y-4111548D01*
X5102555Y-4109110D01*
X5113375Y-4105097D01*
X5123535Y-4099560D01*
X5132781Y-4092651D01*
X5140909Y-4084472D01*
X5147818Y-4075226D01*
X5153355Y-4065117D01*
X5157419Y-4054297D01*
X5159857Y-4043019D01*
X5160721Y-4031132D01*
X5160721Y-3961892D01*
X5159857Y-3950004D01*
X5157419Y-3938727D01*
X5153355Y-3927906D01*
X5147818Y-3917797D01*
X5140909Y-3908551D01*
X5132781Y-3900373D01*
X5123535Y-3893464D01*
X5113375Y-3887927D01*
X5102555Y-3883914D01*
X5091277Y-3881424D01*
X5079796Y-3880612D01*
X5068265Y-3881424D01*
X5056987Y-3883914D01*
X5046167Y-3887927D01*
X5036058Y-3893464D01*
X5026812Y-3900373D01*
X5018684Y-3908551D01*
X5011724Y-3917797D01*
X5006238Y-3927906D01*
X5002174Y-3938727D01*
X4999736Y-3950004D01*
X4998872Y-3961892D01*
X4998872Y-4031132D01*
X4999736Y-4043019D01*
X5002174Y-4054297D01*
X5006238Y-4065117D01*
X5011724Y-4075226D01*
X5018684Y-4084472D01*
X5026812Y-4092651D01*
X5036058Y-4099560D01*
X5046167Y-4105097D01*
X5056987Y-4109110D01*
X5068265Y-4111548D01*
G37*
G36*
X4458309Y-3740912D02*
G01*
X5243068Y-3740912D01*
X5250535Y-3740150D01*
X5257241Y-3737965D01*
X5263388Y-3734409D01*
X5267604Y-3730802D01*
X5328615Y-3669792D01*
X5331917Y-3667556D01*
X5335828Y-3666794D01*
X5705348Y-3666794D01*
X5712815Y-3666032D01*
X5719521Y-3663848D01*
X5725668Y-3660292D01*
X5729884Y-3656685D01*
X5733948Y-3652621D01*
X5737047Y-3650487D01*
X5740654Y-3649624D01*
X5744362Y-3650132D01*
X5747613Y-3651961D01*
X5750001Y-3654806D01*
X5752439Y-3659174D01*
X5758637Y-3666896D01*
X5766104Y-3673398D01*
X5774537Y-3678580D01*
X5783732Y-3682288D01*
X5793384Y-3684371D01*
X5803290Y-3684778D01*
X5813094Y-3683558D01*
X5822543Y-3680663D01*
X5831382Y-3676192D01*
X5839358Y-3670300D01*
X5846216Y-3663137D01*
X5850890Y-3656228D01*
X5854090Y-3653231D01*
X5858306Y-3651808D01*
X5862675Y-3652367D01*
X5866434Y-3654704D01*
X5868822Y-3658362D01*
X5870194Y-3662121D01*
X5875731Y-3672230D01*
X5882640Y-3681476D01*
X5890818Y-3689654D01*
X5900064Y-3696563D01*
X5910173Y-3702100D01*
X5920994Y-3706114D01*
X5932271Y-3708552D01*
X5943803Y-3709415D01*
X5955284Y-3708552D01*
X5966561Y-3706114D01*
X5977382Y-3702100D01*
X5987491Y-3696563D01*
X5996736Y-3689654D01*
X6004915Y-3681476D01*
X6011824Y-3672230D01*
X6017361Y-3662121D01*
X6021374Y-3651300D01*
X6023864Y-3640023D01*
X6024676Y-3628136D01*
X6024676Y-3528872D01*
X6023864Y-3516985D01*
X6021374Y-3505708D01*
X6017361Y-3494938D01*
X6011824Y-3484778D01*
X6004915Y-3475532D01*
X5996736Y-3467404D01*
X5987491Y-3460496D01*
X5977382Y-3454958D01*
X5966561Y-3450894D01*
X5955284Y-3448456D01*
X5943803Y-3447643D01*
X5932271Y-3448456D01*
X5920994Y-3450894D01*
X5910173Y-3454958D01*
X5900115Y-3460445D01*
X5895898Y-3461664D01*
X5891580Y-3461004D01*
X5887923Y-3458616D01*
X5885637Y-3454908D01*
X5885078Y-3453231D01*
X5881979Y-3448354D01*
X5877915Y-3444240D01*
X5872988Y-3441192D01*
X5867552Y-3439261D01*
X5860643Y-3438550D01*
X5860643Y-3487064D01*
X5864606Y-3488842D01*
X5867501Y-3492093D01*
X5868720Y-3496259D01*
X5868111Y-3500577D01*
X5866180Y-3505708D01*
X5863742Y-3516985D01*
X5862878Y-3528872D01*
X5862878Y-3546906D01*
X5862320Y-3550259D01*
X5860643Y-3553256D01*
X5860643Y-3579571D01*
X5859830Y-3583482D01*
X5857595Y-3586835D01*
X5854242Y-3589020D01*
X5850331Y-3589731D01*
X5846419Y-3588918D01*
X5843117Y-3586632D01*
X5839358Y-3582670D01*
X5837072Y-3580942D01*
X5834837Y-3578707D01*
X5833414Y-3575913D01*
X5832957Y-3572814D01*
X5832957Y-3557066D01*
X5830620Y-3557066D01*
X5830620Y-3561079D01*
X5829960Y-3564788D01*
X5827928Y-3567937D01*
X5824880Y-3570224D01*
X5821273Y-3571189D01*
X5817514Y-3570782D01*
X5814872Y-3569970D01*
X5811164Y-3567887D01*
X5808573Y-3564432D01*
X5807710Y-3560267D01*
X5807710Y-3465017D01*
X5806998Y-3458718D01*
X5805068Y-3453231D01*
X5803341Y-3449726D01*
X5802934Y-3446932D01*
X5802934Y-3438550D01*
X5796026Y-3439261D01*
X5791809Y-3440125D01*
X5787542Y-3439261D01*
X5781243Y-3438550D01*
X5730494Y-3438550D01*
X5726582Y-3437788D01*
X5723331Y-3435604D01*
X5721096Y-3432301D01*
X5720334Y-3428390D01*
X5720334Y-3267710D01*
X5719572Y-3260242D01*
X5717387Y-3253587D01*
X5713831Y-3247390D01*
X5710224Y-3243224D01*
X5687364Y-3220364D01*
X5681421Y-3215538D01*
X5677052Y-3213150D01*
X5670296Y-3210966D01*
X5667502Y-3209544D01*
X5665317Y-3207410D01*
X5663539Y-3203752D01*
X5662980Y-3200400D01*
X5663539Y-3197047D01*
X5665571Y-3191154D01*
X5666333Y-3184855D01*
X5666333Y-3177590D01*
X5633262Y-3177590D01*
X5633262Y-3179318D01*
X5632500Y-3183229D01*
X5630265Y-3186531D01*
X5626963Y-3188716D01*
X5623102Y-3189478D01*
X5603697Y-3189478D01*
X5599836Y-3188716D01*
X5596534Y-3186531D01*
X5594299Y-3183229D01*
X5593537Y-3179318D01*
X5593537Y-3177590D01*
X5531662Y-3177590D01*
X5531662Y-3179318D01*
X5530900Y-3183229D01*
X5528665Y-3186531D01*
X5525363Y-3188716D01*
X5521502Y-3189478D01*
X5502097Y-3189478D01*
X5498236Y-3188716D01*
X5494934Y-3186531D01*
X5492699Y-3183229D01*
X5491937Y-3179318D01*
X5491937Y-3177590D01*
X5458917Y-3177590D01*
X5458917Y-3184855D01*
X5459628Y-3191154D01*
X5461660Y-3197047D01*
X5462219Y-3200400D01*
X5461355Y-3204667D01*
X5459882Y-3207410D01*
X5457698Y-3209544D01*
X5454904Y-3210966D01*
X5448300Y-3213100D01*
X5442102Y-3216656D01*
X5437936Y-3220262D01*
X5355082Y-3303066D01*
X5350357Y-3308959D01*
X5347157Y-3315157D01*
X5345328Y-3322065D01*
X5344922Y-3327552D01*
X5344922Y-3428288D01*
X5344109Y-3432200D01*
X5341924Y-3435451D01*
X5338622Y-3437686D01*
X5334762Y-3438448D01*
X5322366Y-3438448D01*
X5316016Y-3439160D01*
X5311648Y-3440074D01*
X5307533Y-3439261D01*
X5301234Y-3438550D01*
X5242356Y-3438550D01*
X5236057Y-3439261D01*
X5231790Y-3440125D01*
X5227523Y-3439261D01*
X5220665Y-3438550D01*
X5220665Y-3446932D01*
X5220258Y-3449726D01*
X5218531Y-3453231D01*
X5216601Y-3458718D01*
X5215890Y-3465017D01*
X5215890Y-3560267D01*
X5215331Y-3563670D01*
X5213654Y-3566668D01*
X5211064Y-3568903D01*
X5207863Y-3570224D01*
X5205222Y-3570782D01*
X5200751Y-3570732D01*
X5196738Y-3568750D01*
X5193944Y-3565245D01*
X5192928Y-3560826D01*
X5192928Y-3557066D01*
X5190642Y-3557066D01*
X5190642Y-3572713D01*
X5189778Y-3576878D01*
X5187238Y-3580282D01*
X5179872Y-3586886D01*
X5176520Y-3588867D01*
X5172710Y-3589426D01*
X5168950Y-3588562D01*
X5165801Y-3586327D01*
X5163667Y-3583076D01*
X5162956Y-3579266D01*
X5162956Y-3553256D01*
X5161280Y-3550259D01*
X5160721Y-3546906D01*
X5160721Y-3528872D01*
X5159857Y-3516985D01*
X5157419Y-3505708D01*
X5155488Y-3500577D01*
X5154879Y-3496259D01*
X5156098Y-3492093D01*
X5158994Y-3488842D01*
X5162956Y-3487064D01*
X5162956Y-3438550D01*
X5156047Y-3439261D01*
X5150561Y-3441192D01*
X5145684Y-3444240D01*
X5141569Y-3448354D01*
X5138521Y-3453231D01*
X5137912Y-3454908D01*
X5135626Y-3458616D01*
X5131968Y-3461004D01*
X5127650Y-3461664D01*
X5123484Y-3460445D01*
X5113375Y-3454958D01*
X5102555Y-3450894D01*
X5091277Y-3448456D01*
X5079796Y-3447643D01*
X5068265Y-3448456D01*
X5056987Y-3450894D01*
X5046167Y-3454958D01*
X5036058Y-3460496D01*
X5026812Y-3467404D01*
X5018684Y-3475532D01*
X5011724Y-3484778D01*
X5006238Y-3494938D01*
X5002174Y-3505708D01*
X4999736Y-3516985D01*
X4998872Y-3528872D01*
X4998872Y-3628136D01*
X4999736Y-3640023D01*
X5002174Y-3651300D01*
X5005476Y-3660140D01*
X5006136Y-3664000D01*
X5005273Y-3667760D01*
X5003038Y-3670960D01*
X4999786Y-3673094D01*
X4995976Y-3673856D01*
X4476038Y-3673856D01*
X4472127Y-3673094D01*
X4468825Y-3670858D01*
X4358640Y-3560673D01*
X4356608Y-3557778D01*
X4355693Y-3554425D01*
X4354830Y-3544671D01*
X4352391Y-3535832D01*
X4348378Y-3527551D01*
X4342993Y-3520135D01*
X4336338Y-3513734D01*
X4328668Y-3508705D01*
X4320235Y-3505098D01*
X4311243Y-3503015D01*
X4302099Y-3502609D01*
X4292955Y-3503879D01*
X4284218Y-3506724D01*
X4276140Y-3511042D01*
X4268978Y-3516782D01*
X4262932Y-3523691D01*
X4258208Y-3531615D01*
X4254957Y-3540201D01*
X4253331Y-3549243D01*
X4253331Y-3558438D01*
X4254957Y-3567480D01*
X4258208Y-3576065D01*
X4262932Y-3583990D01*
X4268978Y-3590899D01*
X4276140Y-3596640D01*
X4284218Y-3600958D01*
X4292955Y-3603802D01*
X4307586Y-3605682D01*
X4311091Y-3607968D01*
X4433824Y-3730701D01*
X4439716Y-3735476D01*
X4445914Y-3738626D01*
X4452823Y-3740454D01*
G37*
G36*
X5830620Y-3486861D02*
G01*
X5832957Y-3486861D01*
X5832957Y-3438550D01*
X5830620Y-3438550D01*
G37*
G36*
X5190642Y-3486861D02*
G01*
X5192928Y-3486861D01*
X5192928Y-3438550D01*
X5190642Y-3438550D01*
G37*
G36*
X2949498Y-3439617D02*
G01*
X2958693Y-3439210D01*
X2967634Y-3437128D01*
X2976118Y-3433521D01*
X2983788Y-3428492D01*
X2990392Y-3422091D01*
X2995828Y-3414674D01*
X2999790Y-3406394D01*
X3002229Y-3397554D01*
X3003092Y-3388410D01*
X3002229Y-3379215D01*
X2999790Y-3370376D01*
X2995828Y-3362096D01*
X2990392Y-3354679D01*
X2983788Y-3348278D01*
X2976118Y-3343249D01*
X2967634Y-3339642D01*
X2958693Y-3337560D01*
X2949498Y-3337153D01*
X2940405Y-3338423D01*
X2931668Y-3341268D01*
X2923590Y-3345586D01*
X2916377Y-3351326D01*
X2910332Y-3358235D01*
X2905607Y-3366160D01*
X2902407Y-3374745D01*
X2900730Y-3383787D01*
X2900730Y-3392982D01*
X2902407Y-3402025D01*
X2905607Y-3410610D01*
X2910332Y-3418535D01*
X2916377Y-3425444D01*
X2923590Y-3431184D01*
X2931668Y-3435502D01*
X2940405Y-3438347D01*
G37*
G36*
X5051552Y-3412286D02*
G01*
X5060696Y-3411880D01*
X5069687Y-3409848D01*
X5078120Y-3406241D01*
X5085791Y-3401161D01*
X5092446Y-3394811D01*
X5097830Y-3387394D01*
X5101844Y-3379114D01*
X5104282Y-3370224D01*
X5105095Y-3361080D01*
X5104282Y-3351936D01*
X5101844Y-3343046D01*
X5097830Y-3334765D01*
X5092446Y-3327349D01*
X5085791Y-3320999D01*
X5078120Y-3315919D01*
X5069687Y-3312312D01*
X5060696Y-3310280D01*
X5051552Y-3309874D01*
X5042408Y-3311093D01*
X5033670Y-3313937D01*
X5025593Y-3318306D01*
X5018430Y-3324047D01*
X5012385Y-3330956D01*
X5007660Y-3338829D01*
X5004409Y-3347465D01*
X5002784Y-3356508D01*
X5002784Y-3365652D01*
X5004409Y-3374694D01*
X5007660Y-3383330D01*
X5012385Y-3391204D01*
X5018430Y-3398113D01*
X5025593Y-3403854D01*
X5033670Y-3408222D01*
X5042408Y-3411067D01*
G37*
G36*
X4033621Y-3379927D02*
G01*
X4042765Y-3379520D01*
X4051757Y-3377437D01*
X4060190Y-3373831D01*
X4067860Y-3368801D01*
X4074515Y-3362401D01*
X4079900Y-3354984D01*
X4083913Y-3346704D01*
X4086351Y-3337864D01*
X4087164Y-3328670D01*
X4086351Y-3319526D01*
X4083913Y-3310686D01*
X4079900Y-3302406D01*
X4074515Y-3294989D01*
X4067860Y-3288588D01*
X4060240Y-3283559D01*
X4050741Y-3279546D01*
X4047134Y-3277006D01*
X4044950Y-3273145D01*
X4044645Y-3268776D01*
X4046169Y-3264611D01*
X4050284Y-3258312D01*
X4052163Y-3252927D01*
X4052925Y-3246628D01*
X4052925Y-3040888D01*
X4053687Y-3036976D01*
X4055872Y-3033725D01*
X4059174Y-3031490D01*
X4063085Y-3030728D01*
X4075379Y-3030728D01*
X4079544Y-3031642D01*
X4090263Y-3039973D01*
X4098340Y-3044342D01*
X4107078Y-3047187D01*
X4116171Y-3048406D01*
X4125366Y-3048000D01*
X4134307Y-3045968D01*
X4142790Y-3042361D01*
X4150461Y-3037281D01*
X4157065Y-3030931D01*
X4162501Y-3023514D01*
X4166463Y-3015234D01*
X4168901Y-3006344D01*
X4169765Y-2997200D01*
X4168901Y-2988056D01*
X4166463Y-2979166D01*
X4162501Y-2970885D01*
X4157065Y-2963468D01*
X4150461Y-2957118D01*
X4142790Y-2952038D01*
X4134307Y-2948432D01*
X4125366Y-2946400D01*
X4116171Y-2945993D01*
X4107078Y-2947212D01*
X4098340Y-2950057D01*
X4090263Y-2954426D01*
X4079544Y-2962757D01*
X4075379Y-2963672D01*
X4063085Y-2963672D01*
X4059174Y-2962910D01*
X4055872Y-2960674D01*
X4053687Y-2957423D01*
X4052925Y-2953512D01*
X4052925Y-2747772D01*
X4052163Y-2741472D01*
X4050284Y-2735986D01*
X4047185Y-2731109D01*
X4043121Y-2726994D01*
X4038193Y-2723896D01*
X4032758Y-2722016D01*
X4026408Y-2721305D01*
X3627577Y-2721305D01*
X3621227Y-2722016D01*
X3615791Y-2723896D01*
X3610864Y-2726994D01*
X3606800Y-2731109D01*
X3603701Y-2735986D01*
X3601821Y-2741472D01*
X3601110Y-2747772D01*
X3601110Y-3246628D01*
X3601821Y-3252927D01*
X3603701Y-3258413D01*
X3606800Y-3263290D01*
X3610864Y-3267405D01*
X3615791Y-3270503D01*
X3621227Y-3272383D01*
X3627577Y-3273094D01*
X3714902Y-3273094D01*
X3718356Y-3273704D01*
X3721404Y-3275482D01*
X3723690Y-3278174D01*
X3724910Y-3281476D01*
X3725621Y-3285388D01*
X3728821Y-3293973D01*
X3733546Y-3301898D01*
X3739591Y-3308807D01*
X3746804Y-3314547D01*
X3754882Y-3318865D01*
X3763619Y-3321710D01*
X3772712Y-3322980D01*
X3781907Y-3322574D01*
X3790848Y-3320491D01*
X3799332Y-3316884D01*
X3807002Y-3311855D01*
X3813606Y-3305454D01*
X3819042Y-3298037D01*
X3823004Y-3289757D01*
X3825544Y-3280562D01*
X3827627Y-3276701D01*
X3831082Y-3274060D01*
X3835349Y-3273094D01*
X3994658Y-3273094D01*
X3998722Y-3273958D01*
X4002125Y-3276346D01*
X4004259Y-3279901D01*
X4004818Y-3284016D01*
X4003649Y-3288029D01*
X3994454Y-3298545D01*
X3989730Y-3306470D01*
X3986479Y-3315055D01*
X3984853Y-3324098D01*
X3984853Y-3333292D01*
X3986479Y-3342335D01*
X3989730Y-3350920D01*
X3994454Y-3358845D01*
X4000500Y-3365754D01*
X4007662Y-3371494D01*
X4015740Y-3375812D01*
X4024477Y-3378657D01*
G37*
G36*
X2883357Y-3273094D02*
G01*
X2976422Y-3273094D01*
X2982772Y-3272383D01*
X2988208Y-3270503D01*
X2993136Y-3267405D01*
X2997200Y-3263290D01*
X3000298Y-3258413D01*
X3002178Y-3252927D01*
X3002940Y-3246628D01*
X3002940Y-3128568D01*
X2883357Y-3128568D01*
G37*
G36*
X2577592Y-3273094D02*
G01*
X2670657Y-3273094D01*
X2670657Y-3128568D01*
X2551125Y-3128568D01*
X2551125Y-3246628D01*
X2551836Y-3252927D01*
X2553716Y-3258413D01*
X2556814Y-3263290D01*
X2560878Y-3267405D01*
X2565806Y-3270503D01*
X2571242Y-3272383D01*
G37*
G36*
X4933746Y-3266135D02*
G01*
X4942941Y-3265728D01*
X4951882Y-3263646D01*
X4960366Y-3260039D01*
X4968036Y-3255010D01*
X4974640Y-3248609D01*
X4980076Y-3241192D01*
X4984038Y-3232912D01*
X4986477Y-3224072D01*
X4987340Y-3214928D01*
X4986477Y-3205734D01*
X4984038Y-3196894D01*
X4980076Y-3188614D01*
X4974640Y-3181197D01*
X4968036Y-3174796D01*
X4960366Y-3169767D01*
X4951882Y-3166160D01*
X4942941Y-3164078D01*
X4933746Y-3163671D01*
X4924653Y-3164941D01*
X4915916Y-3167786D01*
X4907838Y-3172104D01*
X4900625Y-3177844D01*
X4894580Y-3184753D01*
X4889855Y-3192678D01*
X4886655Y-3201263D01*
X4884978Y-3210306D01*
X4884978Y-3219500D01*
X4886655Y-3228543D01*
X4889855Y-3237128D01*
X4894580Y-3245053D01*
X4900625Y-3251962D01*
X4907838Y-3257702D01*
X4915916Y-3262020D01*
X4924653Y-3264865D01*
G37*
G36*
X5279440Y-3266135D02*
G01*
X5288635Y-3265728D01*
X5297576Y-3263646D01*
X5306060Y-3260039D01*
X5313730Y-3255010D01*
X5320334Y-3248609D01*
X5325770Y-3241192D01*
X5329732Y-3232912D01*
X5332171Y-3224072D01*
X5333034Y-3214928D01*
X5332171Y-3205734D01*
X5329732Y-3196894D01*
X5325770Y-3188614D01*
X5320334Y-3181197D01*
X5313730Y-3174796D01*
X5306060Y-3169767D01*
X5297576Y-3166160D01*
X5288635Y-3164078D01*
X5279440Y-3163671D01*
X5270347Y-3164941D01*
X5261610Y-3167786D01*
X5253532Y-3172104D01*
X5246319Y-3177844D01*
X5240274Y-3184753D01*
X5235549Y-3192678D01*
X5232349Y-3201263D01*
X5230672Y-3210306D01*
X5230672Y-3219500D01*
X5232349Y-3228543D01*
X5235549Y-3237128D01*
X5240274Y-3245053D01*
X5246319Y-3251962D01*
X5253532Y-3257702D01*
X5261610Y-3262020D01*
X5270347Y-3264865D01*
G37*
G36*
X5633262Y-3136646D02*
G01*
X5666333Y-3136646D01*
X5666333Y-3129381D01*
X5665571Y-3123082D01*
X5663692Y-3117646D01*
X5660593Y-3112719D01*
X5656529Y-3108655D01*
X5651601Y-3105556D01*
X5646166Y-3103626D01*
X5639816Y-3102914D01*
X5633262Y-3102914D01*
G37*
G36*
X5458917Y-3136646D02*
G01*
X5491937Y-3136646D01*
X5491937Y-3102914D01*
X5485384Y-3102914D01*
X5479034Y-3103626D01*
X5473598Y-3105556D01*
X5468670Y-3108655D01*
X5464606Y-3112719D01*
X5461508Y-3117646D01*
X5459628Y-3123082D01*
X5458917Y-3129381D01*
G37*
G36*
X5531662Y-3136646D02*
G01*
X5593537Y-3136646D01*
X5593537Y-3102914D01*
X5586984Y-3102914D01*
X5580634Y-3103626D01*
X5575198Y-3105556D01*
X5566511Y-3111347D01*
X5562600Y-3112109D01*
X5558688Y-3111347D01*
X5554929Y-3108655D01*
X5550001Y-3105556D01*
X5544566Y-3103626D01*
X5538216Y-3102914D01*
X5531662Y-3102914D01*
G37*
G36*
X2020874Y-2886659D02*
G01*
X2030018Y-2886252D01*
X2039010Y-2884220D01*
X2047443Y-2880614D01*
X2055114Y-2875534D01*
X2061768Y-2869184D01*
X2067153Y-2861767D01*
X2071166Y-2853486D01*
X2073605Y-2844596D01*
X2074418Y-2835452D01*
X2073605Y-2826308D01*
X2071166Y-2817418D01*
X2067153Y-2809138D01*
X2061768Y-2801721D01*
X2055114Y-2795371D01*
X2047443Y-2790291D01*
X2039010Y-2786684D01*
X2030018Y-2784652D01*
X2020874Y-2784246D01*
X2011730Y-2785465D01*
X2002993Y-2788310D01*
X1994916Y-2792679D01*
X1987753Y-2798419D01*
X1981707Y-2805328D01*
X1976983Y-2813202D01*
X1973732Y-2821838D01*
X1972106Y-2830880D01*
X1972106Y-2840024D01*
X1973732Y-2849067D01*
X1976983Y-2857703D01*
X1981707Y-2865577D01*
X1987753Y-2872486D01*
X1994916Y-2878226D01*
X2002993Y-2882595D01*
X2011730Y-2885440D01*
G37*
G36*
X2551125Y-2865831D02*
G01*
X2670657Y-2865831D01*
X2670657Y-2721305D01*
X2577592Y-2721305D01*
X2571242Y-2722016D01*
X2565806Y-2723896D01*
X2560878Y-2726994D01*
X2556814Y-2731109D01*
X2553716Y-2735986D01*
X2551836Y-2741472D01*
X2551125Y-2747772D01*
G37*
G36*
X2883357Y-2865831D02*
G01*
X3002940Y-2865831D01*
X3002940Y-2758541D01*
X3003905Y-2754122D01*
X3006750Y-2748229D01*
X3009188Y-2739390D01*
X3010052Y-2730246D01*
X3009188Y-2721051D01*
X3006750Y-2712212D01*
X3002788Y-2703931D01*
X2997352Y-2696514D01*
X2990748Y-2690114D01*
X2983077Y-2685084D01*
X2974594Y-2681478D01*
X2965653Y-2679395D01*
X2956458Y-2678988D01*
X2947365Y-2680258D01*
X2938627Y-2683103D01*
X2930550Y-2687421D01*
X2923336Y-2693162D01*
X2917291Y-2700070D01*
X2912567Y-2707995D01*
X2910078Y-2714701D01*
X2907893Y-2718155D01*
X2904540Y-2720492D01*
X2900527Y-2721305D01*
X2883357Y-2721305D01*
G37*
G36*
X2421280Y-2810357D02*
G01*
X2430475Y-2809951D01*
X2439416Y-2807919D01*
X2447899Y-2804312D01*
X2455570Y-2799232D01*
X2462174Y-2792882D01*
X2467610Y-2785465D01*
X2471572Y-2777185D01*
X2474010Y-2768295D01*
X2474874Y-2759151D01*
X2474010Y-2750007D01*
X2471572Y-2741117D01*
X2467610Y-2732836D01*
X2462174Y-2725420D01*
X2455570Y-2719070D01*
X2447899Y-2713990D01*
X2439416Y-2710383D01*
X2430475Y-2708351D01*
X2421280Y-2707944D01*
X2412187Y-2709164D01*
X2403449Y-2712008D01*
X2395372Y-2716377D01*
X2388158Y-2722118D01*
X2382113Y-2729026D01*
X2377389Y-2736900D01*
X2374188Y-2745536D01*
X2372512Y-2754579D01*
X2372512Y-2763723D01*
X2374188Y-2772765D01*
X2377389Y-2781401D01*
X2382113Y-2789275D01*
X2388158Y-2796184D01*
X2395372Y-2801924D01*
X2403449Y-2806293D01*
X2412187Y-2809138D01*
G37*
G36*
X4827168Y-2709976D02*
G01*
X4836363Y-2709570D01*
X4845304Y-2707538D01*
X4853787Y-2703931D01*
X4861458Y-2698851D01*
X4868062Y-2692501D01*
X4873498Y-2685084D01*
X4877460Y-2676804D01*
X4879898Y-2667914D01*
X4880762Y-2658770D01*
X4879898Y-2649626D01*
X4877460Y-2640736D01*
X4873498Y-2632456D01*
X4868062Y-2625039D01*
X4861458Y-2618689D01*
X4853787Y-2613609D01*
X4845304Y-2610002D01*
X4836363Y-2607970D01*
X4827168Y-2607564D01*
X4818075Y-2608783D01*
X4809337Y-2611628D01*
X4801260Y-2615996D01*
X4794046Y-2621737D01*
X4788001Y-2628646D01*
X4783277Y-2636520D01*
X4780076Y-2645156D01*
X4778400Y-2654198D01*
X4778400Y-2663342D01*
X4780076Y-2672384D01*
X4783277Y-2681020D01*
X4788001Y-2688894D01*
X4794046Y-2695803D01*
X4801260Y-2701544D01*
X4809337Y-2705912D01*
X4818075Y-2708757D01*
G37*
G36*
X885088Y-2589784D02*
G01*
X894283Y-2589377D01*
X903224Y-2587294D01*
X911707Y-2583688D01*
X919378Y-2578658D01*
X925982Y-2572258D01*
X931418Y-2564841D01*
X935380Y-2556560D01*
X937818Y-2547721D01*
X938682Y-2538577D01*
X937818Y-2529382D01*
X935380Y-2520543D01*
X931418Y-2512263D01*
X925982Y-2504846D01*
X919378Y-2498445D01*
X911707Y-2493416D01*
X903224Y-2489809D01*
X894283Y-2487726D01*
X885088Y-2487320D01*
X875995Y-2488590D01*
X867257Y-2491435D01*
X859180Y-2495753D01*
X851966Y-2501493D01*
X845921Y-2508402D01*
X841197Y-2516327D01*
X837996Y-2524912D01*
X836320Y-2533954D01*
X836320Y-2543149D01*
X837996Y-2552192D01*
X841197Y-2560777D01*
X845921Y-2568702D01*
X851966Y-2575610D01*
X859180Y-2581351D01*
X867257Y-2585669D01*
X875995Y-2588514D01*
G37*
G36*
X2885948Y-2489200D02*
G01*
X2895142Y-2488793D01*
X2904083Y-2486761D01*
X2912567Y-2483154D01*
X2920238Y-2478074D01*
X2926842Y-2471724D01*
X2932277Y-2464308D01*
X2936240Y-2456027D01*
X2938678Y-2447137D01*
X2939542Y-2437993D01*
X2938678Y-2428849D01*
X2936240Y-2419959D01*
X2935478Y-2418334D01*
X2934462Y-2414371D01*
X2935122Y-2410358D01*
X2937256Y-2406904D01*
X2940608Y-2404567D01*
X2945688Y-2402382D01*
X2953359Y-2397353D01*
X2960014Y-2390952D01*
X2965399Y-2383536D01*
X2969412Y-2375255D01*
X2971850Y-2366416D01*
X2972663Y-2357272D01*
X2971850Y-2348077D01*
X2969412Y-2339238D01*
X2965399Y-2330958D01*
X2960014Y-2323541D01*
X2953359Y-2317140D01*
X2945688Y-2312111D01*
X2937256Y-2308504D01*
X2928264Y-2306421D01*
X2919120Y-2306015D01*
X2909976Y-2307285D01*
X2901238Y-2310130D01*
X2893161Y-2314448D01*
X2885998Y-2320188D01*
X2879953Y-2327097D01*
X2875229Y-2335022D01*
X2871978Y-2343607D01*
X2870352Y-2352649D01*
X2870352Y-2361844D01*
X2871978Y-2370886D01*
X2874518Y-2377592D01*
X2875127Y-2381656D01*
X2874162Y-2385568D01*
X2871673Y-2388819D01*
X2860040Y-2395220D01*
X2852826Y-2400960D01*
X2846781Y-2407869D01*
X2842056Y-2415743D01*
X2838856Y-2424379D01*
X2837180Y-2433421D01*
X2837180Y-2442565D01*
X2838856Y-2451608D01*
X2842056Y-2460244D01*
X2846781Y-2468118D01*
X2852826Y-2475026D01*
X2860040Y-2480767D01*
X2868117Y-2485136D01*
X2876854Y-2487980D01*
G37*
G36*
X4606645Y-2408478D02*
G01*
X4615840Y-2408072D01*
X4624781Y-2405989D01*
X4633264Y-2402382D01*
X4640935Y-2397353D01*
X4647539Y-2390952D01*
X4652975Y-2383536D01*
X4656937Y-2375255D01*
X4659376Y-2366416D01*
X4660239Y-2357272D01*
X4659376Y-2348077D01*
X4656937Y-2339238D01*
X4652975Y-2330958D01*
X4647539Y-2323541D01*
X4640935Y-2317140D01*
X4633264Y-2312111D01*
X4624781Y-2308504D01*
X4615840Y-2306421D01*
X4606645Y-2306015D01*
X4597552Y-2307285D01*
X4588814Y-2310130D01*
X4580737Y-2314448D01*
X4573524Y-2320188D01*
X4567478Y-2327097D01*
X4562754Y-2335022D01*
X4559554Y-2343607D01*
X4557877Y-2352649D01*
X4557877Y-2361844D01*
X4559554Y-2370886D01*
X4562754Y-2379472D01*
X4567478Y-2387396D01*
X4573524Y-2394305D01*
X4580737Y-2400046D01*
X4588814Y-2404364D01*
X4597552Y-2407208D01*
G37*
G36*
X4797602Y-2385415D02*
G01*
X4806746Y-2385009D01*
X4815738Y-2382926D01*
X4824171Y-2379319D01*
X4831842Y-2374290D01*
X4838496Y-2367889D01*
X4843881Y-2360472D01*
X4847894Y-2352192D01*
X4850333Y-2343353D01*
X4851146Y-2334209D01*
X4850333Y-2325014D01*
X4847894Y-2316175D01*
X4843881Y-2307894D01*
X4838496Y-2300478D01*
X4831842Y-2294077D01*
X4824171Y-2289048D01*
X4815738Y-2285441D01*
X4806746Y-2283358D01*
X4797602Y-2282952D01*
X4788458Y-2284222D01*
X4779721Y-2287066D01*
X4771644Y-2291384D01*
X4764481Y-2297125D01*
X4758436Y-2304034D01*
X4753711Y-2311958D01*
X4750460Y-2320544D01*
X4748834Y-2329586D01*
X4748834Y-2338781D01*
X4750460Y-2347823D01*
X4753711Y-2356408D01*
X4758436Y-2364333D01*
X4764481Y-2371242D01*
X4771644Y-2376982D01*
X4779721Y-2381300D01*
X4788458Y-2384145D01*
G37*
G36*
X2251913Y-2271369D02*
G01*
X2261057Y-2270963D01*
X2270048Y-2268931D01*
X2278481Y-2265324D01*
X2286152Y-2260244D01*
X2292807Y-2253894D01*
X2298192Y-2246477D01*
X2302205Y-2238197D01*
X2304643Y-2229307D01*
X2305456Y-2220163D01*
X2304643Y-2211019D01*
X2302205Y-2202129D01*
X2298192Y-2193848D01*
X2295601Y-2190292D01*
X2293874Y-2186432D01*
X2293874Y-2182215D01*
X2295601Y-2178354D01*
X2297531Y-2175713D01*
X2301494Y-2167432D01*
X2303932Y-2158593D01*
X2304796Y-2149449D01*
X2303932Y-2140254D01*
X2301494Y-2131415D01*
X2297531Y-2123135D01*
X2292096Y-2115718D01*
X2285492Y-2109317D01*
X2277821Y-2104288D01*
X2269337Y-2100681D01*
X2260396Y-2098598D01*
X2251202Y-2098192D01*
X2242108Y-2099462D01*
X2233371Y-2102307D01*
X2225294Y-2106625D01*
X2218080Y-2112365D01*
X2212035Y-2119274D01*
X2207310Y-2127199D01*
X2204110Y-2135784D01*
X2202434Y-2144826D01*
X2202434Y-2154021D01*
X2204110Y-2163064D01*
X2207310Y-2171649D01*
X2212390Y-2180132D01*
X2213660Y-2183536D01*
X2213660Y-2187194D01*
X2212390Y-2190597D01*
X2208022Y-2197912D01*
X2204770Y-2206548D01*
X2203145Y-2215591D01*
X2203145Y-2224735D01*
X2204770Y-2233777D01*
X2208022Y-2242413D01*
X2212746Y-2250287D01*
X2218791Y-2257196D01*
X2225954Y-2262936D01*
X2234031Y-2267305D01*
X2242769Y-2270150D01*
G37*
G36*
X3405174Y-2174646D02*
G01*
X3414369Y-2174240D01*
X3423310Y-2172208D01*
X3431794Y-2168601D01*
X3439464Y-2163521D01*
X3446068Y-2157171D01*
X3451504Y-2149754D01*
X3455466Y-2141474D01*
X3457905Y-2132584D01*
X3458768Y-2123440D01*
X3457905Y-2114296D01*
X3455466Y-2105406D01*
X3451504Y-2097125D01*
X3446068Y-2089708D01*
X3444138Y-2087829D01*
X3441852Y-2084527D01*
X3441039Y-2080514D01*
X3441039Y-2064766D01*
X3440226Y-2057298D01*
X3438042Y-2050643D01*
X3434486Y-2044446D01*
X3430930Y-2040280D01*
X3218789Y-1828139D01*
X3216503Y-1824634D01*
X3215792Y-1820519D01*
X3216859Y-1816455D01*
X3219450Y-1813153D01*
X3223158Y-1811172D01*
X3227324Y-1810867D01*
X3234791Y-1811883D01*
X3243935Y-1811477D01*
X3252927Y-1809445D01*
X3261360Y-1805838D01*
X3269030Y-1800758D01*
X3275685Y-1794408D01*
X3281070Y-1786991D01*
X3285083Y-1778711D01*
X3287522Y-1769821D01*
X3288334Y-1760677D01*
X3287522Y-1751533D01*
X3285083Y-1742643D01*
X3281070Y-1734362D01*
X3275685Y-1726946D01*
X3269030Y-1720596D01*
X3261360Y-1715516D01*
X3252927Y-1711909D01*
X3243935Y-1709877D01*
X3234791Y-1709470D01*
X3225647Y-1710689D01*
X3216910Y-1713534D01*
X3208832Y-1717903D01*
X3201670Y-1723643D01*
X3195624Y-1730552D01*
X3190900Y-1738426D01*
X3187649Y-1747062D01*
X3186023Y-1756105D01*
X3186023Y-1765249D01*
X3186887Y-1770075D01*
X3186734Y-1774342D01*
X3184855Y-1778152D01*
X3181604Y-1780895D01*
X3177489Y-1782013D01*
X3173272Y-1781352D01*
X3169716Y-1779066D01*
X3066948Y-1676298D01*
X3064611Y-1672691D01*
X3064002Y-1668373D01*
X3065221Y-1664258D01*
X3068066Y-1661007D01*
X3072739Y-1659026D01*
X3084474Y-1654657D01*
X3095447Y-1648663D01*
X3105505Y-1641144D01*
X3114344Y-1632305D01*
X3121863Y-1622247D01*
X3127857Y-1611274D01*
X3132226Y-1599539D01*
X3134868Y-1587296D01*
X3135782Y-1574800D01*
X3134868Y-1562303D01*
X3132226Y-1550060D01*
X3127857Y-1538325D01*
X3121863Y-1527352D01*
X3114344Y-1517294D01*
X3105505Y-1508455D01*
X3095447Y-1500936D01*
X3084474Y-1494942D01*
X3072739Y-1490573D01*
X3060496Y-1487932D01*
X3048000Y-1487017D01*
X3035503Y-1487932D01*
X3023260Y-1490573D01*
X3011525Y-1494942D01*
X3000552Y-1500936D01*
X2990494Y-1508455D01*
X2981655Y-1517294D01*
X2974136Y-1527352D01*
X2968142Y-1538325D01*
X2963773Y-1550060D01*
X2961792Y-1554734D01*
X2958541Y-1557578D01*
X2954426Y-1558798D01*
X2950108Y-1558188D01*
X2946501Y-1555851D01*
X2503881Y-1113282D01*
X2501747Y-1110030D01*
X2500934Y-1106220D01*
X2501595Y-1102410D01*
X2503678Y-1099108D01*
X2506878Y-1096822D01*
X2510637Y-1095908D01*
X2513228Y-1095806D01*
X2522220Y-1093774D01*
X2530652Y-1090168D01*
X2538323Y-1085088D01*
X2544978Y-1078738D01*
X2550363Y-1071321D01*
X2554376Y-1063040D01*
X2556814Y-1054150D01*
X2557627Y-1045006D01*
X2556814Y-1035862D01*
X2554376Y-1026972D01*
X2550363Y-1018692D01*
X2544978Y-1011275D01*
X2538323Y-1004925D01*
X2530652Y-999845D01*
X2522220Y-996238D01*
X2513228Y-994206D01*
X2504084Y-993800D01*
X2494940Y-995019D01*
X2486202Y-997864D01*
X2478125Y-1002233D01*
X2470962Y-1007973D01*
X2464917Y-1014882D01*
X2460193Y-1022756D01*
X2456992Y-1031341D01*
X2455164Y-1041857D01*
X2453487Y-1045921D01*
X2450236Y-1048918D01*
X2446070Y-1050239D01*
X2441702Y-1049680D01*
X2437942Y-1047343D01*
X2341219Y-950569D01*
X2335326Y-945794D01*
X2329129Y-942644D01*
X2322220Y-940816D01*
X2316734Y-940358D01*
X1590903Y-940358D01*
X1583436Y-941171D01*
X1576781Y-943305D01*
X1566722Y-949248D01*
X1562963Y-949756D01*
X1559204Y-948842D01*
X1556105Y-946607D01*
X1554022Y-943356D01*
X1553311Y-939596D01*
X1553311Y-909574D01*
X1553159Y-908100D01*
X1553616Y-903732D01*
X1555851Y-899972D01*
X1559509Y-897483D01*
X1563827Y-896772D01*
X1568043Y-897991D01*
X1573885Y-901141D01*
X1582623Y-903986D01*
X1591767Y-905205D01*
X1600911Y-904798D01*
X1609902Y-902766D01*
X1618335Y-899160D01*
X1626006Y-894080D01*
X1632661Y-887730D01*
X1638046Y-880313D01*
X1642059Y-872032D01*
X1644497Y-863142D01*
X1645310Y-853998D01*
X1644954Y-849884D01*
X1645462Y-845718D01*
X1647545Y-842111D01*
X1650949Y-839673D01*
X1655064Y-838809D01*
X1879346Y-838809D01*
X1883511Y-839724D01*
X1894230Y-848055D01*
X1902307Y-852424D01*
X1911045Y-855268D01*
X1920138Y-856487D01*
X1929333Y-856081D01*
X1938274Y-854049D01*
X1946757Y-850442D01*
X1954428Y-845362D01*
X1961032Y-839012D01*
X1966468Y-831596D01*
X1970430Y-823315D01*
X1972868Y-814425D01*
X1973732Y-805281D01*
X1972868Y-796137D01*
X1970430Y-787247D01*
X1966468Y-778967D01*
X1961032Y-771550D01*
X1954428Y-765200D01*
X1946757Y-760120D01*
X1938274Y-756513D01*
X1929333Y-754481D01*
X1920138Y-754075D01*
X1911045Y-755294D01*
X1902307Y-758139D01*
X1894230Y-762508D01*
X1883511Y-770839D01*
X1879346Y-771753D01*
X1343761Y-771753D01*
X1336294Y-772566D01*
X1329639Y-774700D01*
X1323441Y-778256D01*
X1319580Y-781558D01*
X1314297Y-787958D01*
X1311148Y-794156D01*
X1309370Y-800557D01*
X1307744Y-803960D01*
X1304950Y-806500D01*
X1301292Y-808786D01*
X1297178Y-812901D01*
X1294130Y-817778D01*
X1292199Y-823264D01*
X1291488Y-829564D01*
X1291488Y-878433D01*
X1292199Y-884732D01*
X1294282Y-890625D01*
X1294841Y-894029D01*
X1294282Y-897382D01*
X1292199Y-903274D01*
X1291488Y-909574D01*
X1291488Y-915162D01*
X1323543Y-915162D01*
X1324305Y-911148D01*
X1326540Y-907897D01*
X1329791Y-905662D01*
X1333703Y-904900D01*
X1351076Y-904900D01*
X1354988Y-905662D01*
X1358239Y-907897D01*
X1360474Y-911148D01*
X1361236Y-915162D01*
X1393291Y-915162D01*
X1394053Y-911148D01*
X1396288Y-907897D01*
X1399540Y-905662D01*
X1403553Y-904900D01*
X1403553Y-872845D01*
X1399540Y-872083D01*
X1396288Y-869848D01*
X1394053Y-866597D01*
X1393291Y-862685D01*
X1393291Y-848969D01*
X1394053Y-845058D01*
X1396288Y-841806D01*
X1399540Y-839571D01*
X1403451Y-838809D01*
X1441348Y-838809D01*
X1445260Y-839571D01*
X1448511Y-841806D01*
X1450746Y-845058D01*
X1451508Y-848969D01*
X1451508Y-862685D01*
X1450746Y-866597D01*
X1448511Y-869848D01*
X1445260Y-872083D01*
X1441246Y-872845D01*
X1441246Y-904900D01*
X1445260Y-905662D01*
X1448511Y-907897D01*
X1450746Y-911148D01*
X1451508Y-915060D01*
X1451508Y-958443D01*
X1452219Y-964742D01*
X1454302Y-970635D01*
X1454861Y-973988D01*
X1454302Y-977341D01*
X1452219Y-983234D01*
X1451508Y-989584D01*
X1451508Y-1038402D01*
X1452219Y-1044752D01*
X1454302Y-1050645D01*
X1454861Y-1053998D01*
X1454302Y-1057351D01*
X1452219Y-1063244D01*
X1451508Y-1069594D01*
X1451508Y-1112926D01*
X1450746Y-1116838D01*
X1448511Y-1120089D01*
X1445260Y-1122324D01*
X1441246Y-1123086D01*
X1441246Y-1155141D01*
X1445260Y-1155903D01*
X1448511Y-1158138D01*
X1450746Y-1161389D01*
X1451508Y-1165301D01*
X1451508Y-1182674D01*
X1450746Y-1186586D01*
X1448511Y-1189837D01*
X1445260Y-1192072D01*
X1441348Y-1192834D01*
X1435963Y-1192834D01*
X1433576Y-1193749D01*
X1431086Y-1194104D01*
X1413713Y-1194104D01*
X1411224Y-1193749D01*
X1408836Y-1192834D01*
X1404975Y-1192072D01*
X1401673Y-1189837D01*
X1396288Y-1184452D01*
X1394053Y-1181150D01*
X1393291Y-1177290D01*
X1393291Y-1165301D01*
X1394053Y-1161389D01*
X1396288Y-1158138D01*
X1399540Y-1155903D01*
X1403553Y-1155141D01*
X1403553Y-1123086D01*
X1399540Y-1122324D01*
X1396288Y-1120089D01*
X1394053Y-1116838D01*
X1393291Y-1112875D01*
X1361236Y-1112875D01*
X1360474Y-1116838D01*
X1358239Y-1120140D01*
X1354988Y-1122324D01*
X1351076Y-1123086D01*
X1333703Y-1123086D01*
X1329791Y-1122324D01*
X1326540Y-1120140D01*
X1324305Y-1116838D01*
X1323543Y-1112875D01*
X1291488Y-1112875D01*
X1291488Y-1118412D01*
X1292199Y-1124762D01*
X1294282Y-1130655D01*
X1294841Y-1134008D01*
X1294282Y-1137361D01*
X1292199Y-1143254D01*
X1291488Y-1149553D01*
X1291488Y-1206449D01*
X1292199Y-1212748D01*
X1294130Y-1218184D01*
X1297178Y-1223111D01*
X1301292Y-1227175D01*
X1306169Y-1230274D01*
X1311656Y-1232204D01*
X1317955Y-1232916D01*
X1345692Y-1232916D01*
X1349552Y-1233678D01*
X1352854Y-1235862D01*
X1355496Y-1238504D01*
X1357680Y-1241806D01*
X1358493Y-1245717D01*
X1358493Y-1290675D01*
X1357680Y-1294536D01*
X1355496Y-1297838D01*
X1351178Y-1302156D01*
X1347673Y-1304442D01*
X1333042Y-1306322D01*
X1324305Y-1309166D01*
X1316228Y-1313484D01*
X1309065Y-1319225D01*
X1303020Y-1326134D01*
X1298295Y-1334058D01*
X1295044Y-1342644D01*
X1293418Y-1351686D01*
X1293418Y-1360881D01*
X1295044Y-1369923D01*
X1298295Y-1378508D01*
X1303020Y-1386433D01*
X1309065Y-1393342D01*
X1316228Y-1399082D01*
X1324305Y-1403400D01*
X1333042Y-1406245D01*
X1342186Y-1407515D01*
X1351330Y-1407109D01*
X1360322Y-1405026D01*
X1368755Y-1401419D01*
X1376426Y-1396390D01*
X1383080Y-1389989D01*
X1388465Y-1382572D01*
X1392478Y-1374292D01*
X1394917Y-1365453D01*
X1395780Y-1355699D01*
X1396695Y-1352346D01*
X1398727Y-1349451D01*
X1415338Y-1332839D01*
X1420063Y-1326997D01*
X1423263Y-1320749D01*
X1425092Y-1313891D01*
X1425549Y-1308354D01*
X1425549Y-1271320D01*
X1426311Y-1267409D01*
X1428496Y-1264107D01*
X1431798Y-1261922D01*
X1435709Y-1261160D01*
X1496161Y-1261160D01*
X1503629Y-1260348D01*
X1510284Y-1258163D01*
X1516481Y-1254607D01*
X1520647Y-1251051D01*
X1525727Y-1245971D01*
X1530502Y-1240078D01*
X1533652Y-1233830D01*
X1535430Y-1227429D01*
X1537055Y-1224026D01*
X1539849Y-1221486D01*
X1543507Y-1219200D01*
X1547622Y-1215085D01*
X1550670Y-1210208D01*
X1552600Y-1204772D01*
X1553362Y-1197559D01*
X1554327Y-1194257D01*
X1556308Y-1191463D01*
X1636826Y-1110894D01*
X1639925Y-1108760D01*
X1643583Y-1107948D01*
X1650390Y-1107643D01*
X1659331Y-1105560D01*
X1667814Y-1101953D01*
X1675485Y-1096924D01*
X1682089Y-1090523D01*
X1687525Y-1083106D01*
X1691487Y-1074826D01*
X1693925Y-1065987D01*
X1694789Y-1056843D01*
X1694180Y-1050137D01*
X1694688Y-1046022D01*
X1696770Y-1042416D01*
X1700174Y-1039926D01*
X1704289Y-1039114D01*
X1818741Y-1039114D01*
X1822602Y-1039876D01*
X1825904Y-1042060D01*
X2259685Y-1475841D01*
X2261920Y-1479194D01*
X2262632Y-1483156D01*
X2261768Y-1487119D01*
X2259482Y-1490370D01*
X2256028Y-1492504D01*
X2249525Y-1494942D01*
X2238552Y-1500936D01*
X2228494Y-1508455D01*
X2219655Y-1517294D01*
X2212136Y-1527352D01*
X2206142Y-1538325D01*
X2201773Y-1550060D01*
X2199132Y-1562303D01*
X2198217Y-1574800D01*
X2199132Y-1587296D01*
X2201773Y-1599539D01*
X2206142Y-1611274D01*
X2212136Y-1622247D01*
X2219655Y-1632305D01*
X2228494Y-1641144D01*
X2238552Y-1648663D01*
X2249525Y-1654657D01*
X2261260Y-1659026D01*
X2273503Y-1661668D01*
X2286000Y-1662582D01*
X2298496Y-1661668D01*
X2310739Y-1659026D01*
X2322474Y-1654657D01*
X2333447Y-1648663D01*
X2343505Y-1641144D01*
X2352344Y-1632305D01*
X2359863Y-1622247D01*
X2365857Y-1611274D01*
X2368296Y-1604772D01*
X2370429Y-1601317D01*
X2373731Y-1599031D01*
X2377643Y-1598168D01*
X2381605Y-1598879D01*
X2384958Y-1601114D01*
X2737662Y-1953768D01*
X2739745Y-1956917D01*
X2740609Y-1960575D01*
X2740050Y-1964283D01*
X2738221Y-1967534D01*
X2735275Y-1969922D01*
X2731516Y-1971954D01*
X2724353Y-1977694D01*
X2718308Y-1984603D01*
X2713583Y-1992477D01*
X2710332Y-2001113D01*
X2708706Y-2010156D01*
X2708706Y-2019300D01*
X2710332Y-2028342D01*
X2713583Y-2036978D01*
X2718308Y-2044852D01*
X2724353Y-2051761D01*
X2731516Y-2057501D01*
X2739593Y-2061870D01*
X2748330Y-2064715D01*
X2757474Y-2065934D01*
X2766618Y-2065528D01*
X2775610Y-2063496D01*
X2784043Y-2059889D01*
X2791714Y-2054809D01*
X2798368Y-2048459D01*
X2803753Y-2041042D01*
X2806700Y-2036572D01*
X2810002Y-2034590D01*
X2813812Y-2033930D01*
X2817571Y-2034743D01*
X2820771Y-2036927D01*
X2891993Y-2108149D01*
X2897886Y-2112924D01*
X2904083Y-2116074D01*
X2910992Y-2117902D01*
X2916478Y-2118360D01*
X3308045Y-2118360D01*
X3312261Y-2119274D01*
X3322929Y-2127605D01*
X3331006Y-2131974D01*
X3339744Y-2134819D01*
X3354324Y-2136698D01*
X3357829Y-2138984D01*
X3360115Y-2142591D01*
X3361283Y-2145690D01*
X3366008Y-2153564D01*
X3372053Y-2160473D01*
X3379266Y-2166213D01*
X3387344Y-2170582D01*
X3396081Y-2173427D01*
G37*
G36*
X4744008Y-1949145D02*
G01*
X4753152Y-1948738D01*
X4762144Y-1946706D01*
X4770577Y-1943100D01*
X4778248Y-1938020D01*
X4784902Y-1931670D01*
X4790287Y-1924253D01*
X4794300Y-1915972D01*
X4796739Y-1907082D01*
X4797552Y-1897938D01*
X4796739Y-1888794D01*
X4794300Y-1879904D01*
X4790287Y-1871624D01*
X4784902Y-1864207D01*
X4778248Y-1857857D01*
X4770577Y-1852777D01*
X4762144Y-1849170D01*
X4753152Y-1847138D01*
X4744008Y-1846732D01*
X4734864Y-1847951D01*
X4726127Y-1850796D01*
X4718050Y-1855165D01*
X4710887Y-1860905D01*
X4704842Y-1867814D01*
X4700117Y-1875688D01*
X4696866Y-1884324D01*
X4695240Y-1893366D01*
X4695240Y-1902510D01*
X4696866Y-1911553D01*
X4700117Y-1920189D01*
X4704842Y-1928063D01*
X4710887Y-1934972D01*
X4718050Y-1940712D01*
X4726127Y-1945081D01*
X4734864Y-1947925D01*
G37*
G36*
X3985514Y-1924507D02*
G01*
X3994658Y-1924100D01*
X4003649Y-1922018D01*
X4012082Y-1918411D01*
X4019753Y-1913382D01*
X4026408Y-1906981D01*
X4031792Y-1899564D01*
X4035806Y-1891284D01*
X4038244Y-1882444D01*
X4039057Y-1873300D01*
X4038244Y-1864106D01*
X4035806Y-1855266D01*
X4031792Y-1846986D01*
X4026408Y-1839569D01*
X4019753Y-1833168D01*
X4012082Y-1828139D01*
X4003649Y-1824532D01*
X3994658Y-1822450D01*
X3985514Y-1822043D01*
X3976370Y-1823313D01*
X3967632Y-1826158D01*
X3959555Y-1830476D01*
X3952392Y-1836216D01*
X3946347Y-1843125D01*
X3941622Y-1851050D01*
X3938371Y-1859635D01*
X3936746Y-1868678D01*
X3936746Y-1877872D01*
X3938371Y-1886915D01*
X3941622Y-1895500D01*
X3946347Y-1903425D01*
X3952392Y-1910334D01*
X3959555Y-1916074D01*
X3967632Y-1920392D01*
X3976370Y-1923237D01*
G37*
G36*
X3349853Y-1881987D02*
G01*
X3358997Y-1881581D01*
X3367989Y-1879549D01*
X3376422Y-1875942D01*
X3384092Y-1870862D01*
X3390747Y-1864512D01*
X3396132Y-1857095D01*
X3400145Y-1848815D01*
X3402584Y-1839925D01*
X3403396Y-1830781D01*
X3402584Y-1821637D01*
X3400145Y-1812747D01*
X3396132Y-1804466D01*
X3390747Y-1797050D01*
X3384092Y-1790700D01*
X3376422Y-1785620D01*
X3367989Y-1782013D01*
X3358997Y-1779981D01*
X3349853Y-1779574D01*
X3340709Y-1780793D01*
X3331972Y-1783638D01*
X3323894Y-1788007D01*
X3316732Y-1793748D01*
X3310686Y-1800656D01*
X3305962Y-1808530D01*
X3302711Y-1817166D01*
X3301085Y-1826209D01*
X3301085Y-1835353D01*
X3302711Y-1844395D01*
X3305962Y-1853031D01*
X3310686Y-1860905D01*
X3316732Y-1867814D01*
X3323894Y-1873554D01*
X3331972Y-1877923D01*
X3340709Y-1880768D01*
G37*
G36*
X1269644Y-1847189D02*
G01*
X1278788Y-1846783D01*
X1287780Y-1844751D01*
X1296212Y-1841144D01*
X1303883Y-1836064D01*
X1310538Y-1829714D01*
X1315923Y-1822297D01*
X1319936Y-1814017D01*
X1322374Y-1805127D01*
X1323187Y-1795983D01*
X1322374Y-1786839D01*
X1319936Y-1777949D01*
X1315923Y-1769668D01*
X1310538Y-1762252D01*
X1303883Y-1755902D01*
X1296212Y-1750822D01*
X1287780Y-1747215D01*
X1278788Y-1745183D01*
X1269644Y-1744776D01*
X1260500Y-1745996D01*
X1251762Y-1748840D01*
X1243685Y-1753209D01*
X1236522Y-1758950D01*
X1230477Y-1765858D01*
X1225753Y-1773732D01*
X1222502Y-1782368D01*
X1220876Y-1791411D01*
X1220876Y-1800555D01*
X1222502Y-1809597D01*
X1225753Y-1818233D01*
X1230477Y-1826107D01*
X1236522Y-1833016D01*
X1243685Y-1838756D01*
X1251762Y-1843125D01*
X1260500Y-1845970D01*
G37*
G36*
X4056532Y-1811985D02*
G01*
X4065676Y-1811578D01*
X4074668Y-1809546D01*
X4083100Y-1805939D01*
X4090771Y-1800860D01*
X4097426Y-1794510D01*
X4102811Y-1787093D01*
X4106824Y-1778812D01*
X4109262Y-1769922D01*
X4110075Y-1760778D01*
X4109262Y-1751634D01*
X4106824Y-1742744D01*
X4102811Y-1734464D01*
X4097426Y-1727047D01*
X4090771Y-1720697D01*
X4083100Y-1715617D01*
X4074668Y-1712010D01*
X4065676Y-1709978D01*
X4056532Y-1709572D01*
X4047388Y-1710791D01*
X4038650Y-1713636D01*
X4030573Y-1718005D01*
X4023410Y-1723745D01*
X4017365Y-1730654D01*
X4012641Y-1738528D01*
X4009390Y-1747164D01*
X4007764Y-1756206D01*
X4007764Y-1765350D01*
X4009390Y-1774393D01*
X4012641Y-1783029D01*
X4017365Y-1790903D01*
X4023410Y-1797812D01*
X4030573Y-1803552D01*
X4038650Y-1807921D01*
X4047388Y-1810766D01*
G37*
G36*
X607923Y-1797862D02*
G01*
X617067Y-1797456D01*
X626059Y-1795373D01*
X634492Y-1791766D01*
X642162Y-1786737D01*
X648817Y-1780336D01*
X654202Y-1772920D01*
X658215Y-1764639D01*
X660654Y-1755800D01*
X661466Y-1746656D01*
X660654Y-1737461D01*
X658215Y-1728622D01*
X654202Y-1720342D01*
X648817Y-1712925D01*
X642162Y-1706524D01*
X634492Y-1701495D01*
X626059Y-1697888D01*
X617067Y-1695805D01*
X607923Y-1695399D01*
X598779Y-1696669D01*
X590042Y-1699514D01*
X581964Y-1703832D01*
X574802Y-1709572D01*
X568756Y-1716481D01*
X564032Y-1724406D01*
X560781Y-1732991D01*
X559155Y-1742033D01*
X559155Y-1751228D01*
X560781Y-1760270D01*
X564032Y-1768856D01*
X568756Y-1776780D01*
X574802Y-1783689D01*
X581964Y-1789430D01*
X590042Y-1793748D01*
X598779Y-1796592D01*
G37*
G36*
X954125Y-1719376D02*
G01*
X963269Y-1718970D01*
X972261Y-1716938D01*
X980694Y-1713331D01*
X988364Y-1708251D01*
X995019Y-1701901D01*
X1000404Y-1694484D01*
X1004417Y-1686204D01*
X1006856Y-1677314D01*
X1007668Y-1668170D01*
X1006856Y-1659026D01*
X1004417Y-1650136D01*
X1000404Y-1641856D01*
X995019Y-1634439D01*
X988364Y-1628089D01*
X980694Y-1623009D01*
X972261Y-1619402D01*
X963269Y-1617370D01*
X954125Y-1616964D01*
X944981Y-1618183D01*
X936244Y-1621028D01*
X928166Y-1625396D01*
X921003Y-1631137D01*
X914958Y-1638046D01*
X910234Y-1645920D01*
X906983Y-1654556D01*
X905357Y-1663598D01*
X905357Y-1672742D01*
X906983Y-1681784D01*
X910234Y-1690420D01*
X914958Y-1698294D01*
X921003Y-1705203D01*
X928166Y-1710943D01*
X936244Y-1715312D01*
X944981Y-1718157D01*
G37*
G36*
X3556000Y-1662582D02*
G01*
X3568496Y-1661668D01*
X3580739Y-1659026D01*
X3592474Y-1654657D01*
X3603447Y-1648663D01*
X3613505Y-1641144D01*
X3622344Y-1632305D01*
X3629863Y-1622247D01*
X3635857Y-1611274D01*
X3640226Y-1599539D01*
X3642868Y-1587296D01*
X3643782Y-1574800D01*
X3642868Y-1562303D01*
X3640226Y-1550060D01*
X3635857Y-1538325D01*
X3629863Y-1527352D01*
X3622344Y-1517294D01*
X3613505Y-1508455D01*
X3603447Y-1500936D01*
X3592474Y-1494942D01*
X3580739Y-1490573D01*
X3568496Y-1487932D01*
X3556000Y-1487017D01*
X3543503Y-1487932D01*
X3531260Y-1490573D01*
X3519525Y-1494942D01*
X3508552Y-1500936D01*
X3498494Y-1508455D01*
X3489655Y-1517294D01*
X3482136Y-1527352D01*
X3476142Y-1538325D01*
X3471773Y-1550060D01*
X3469132Y-1562303D01*
X3468217Y-1574800D01*
X3469132Y-1587296D01*
X3471773Y-1599539D01*
X3476142Y-1611274D01*
X3482136Y-1622247D01*
X3489655Y-1632305D01*
X3498494Y-1641144D01*
X3508552Y-1648663D01*
X3519525Y-1654657D01*
X3531260Y-1659026D01*
X3543503Y-1661668D01*
G37*
G36*
X4318000Y-1662582D02*
G01*
X4330496Y-1661668D01*
X4342739Y-1659026D01*
X4354474Y-1654657D01*
X4365447Y-1648663D01*
X4375505Y-1641144D01*
X4384344Y-1632305D01*
X4391863Y-1622247D01*
X4397857Y-1611274D01*
X4402226Y-1599539D01*
X4404868Y-1587296D01*
X4405782Y-1574800D01*
X4404868Y-1562303D01*
X4402226Y-1550060D01*
X4397857Y-1538325D01*
X4391863Y-1527352D01*
X4384344Y-1517294D01*
X4375505Y-1508455D01*
X4365447Y-1500936D01*
X4354474Y-1494942D01*
X4342739Y-1490573D01*
X4330496Y-1487932D01*
X4318000Y-1487017D01*
X4305503Y-1487932D01*
X4293260Y-1490573D01*
X4281525Y-1494942D01*
X4270552Y-1500936D01*
X4260494Y-1508455D01*
X4251655Y-1517294D01*
X4244136Y-1527352D01*
X4238142Y-1538325D01*
X4233773Y-1550060D01*
X4231132Y-1562303D01*
X4230217Y-1574800D01*
X4231132Y-1587296D01*
X4233773Y-1599539D01*
X4238142Y-1611274D01*
X4244136Y-1622247D01*
X4251655Y-1632305D01*
X4260494Y-1641144D01*
X4270552Y-1648663D01*
X4281525Y-1654657D01*
X4293260Y-1659026D01*
X4305503Y-1661668D01*
G37*
G36*
X365302Y-1640586D02*
G01*
X374446Y-1640179D01*
X383438Y-1638147D01*
X391871Y-1634540D01*
X399542Y-1629460D01*
X406196Y-1623110D01*
X411581Y-1615694D01*
X415594Y-1607413D01*
X418033Y-1598523D01*
X418846Y-1589379D01*
X418033Y-1580235D01*
X415594Y-1571345D01*
X411581Y-1563065D01*
X406196Y-1555648D01*
X399542Y-1549298D01*
X391871Y-1544218D01*
X383438Y-1540611D01*
X374446Y-1538579D01*
X367639Y-1538274D01*
X364032Y-1537411D01*
X360934Y-1535328D01*
X344932Y-1519275D01*
X342696Y-1515973D01*
X341934Y-1512112D01*
X341934Y-1458976D01*
X342747Y-1455013D01*
X344982Y-1451711D01*
X348386Y-1449527D01*
X352348Y-1448816D01*
X356260Y-1449679D01*
X359511Y-1452016D01*
X363220Y-1456029D01*
X366725Y-1458976D01*
X370890Y-1461719D01*
X375005Y-1463852D01*
X380034Y-1465681D01*
X384556Y-1466697D01*
X391820Y-1467307D01*
X421182Y-1467307D01*
X424332Y-1467154D01*
X429564Y-1466443D01*
X434136Y-1465224D01*
X439115Y-1463243D01*
X443179Y-1460957D01*
X447243Y-1458061D01*
X450596Y-1455013D01*
X453999Y-1451051D01*
X456895Y-1446631D01*
X458825Y-1442821D01*
X460654Y-1437741D01*
X461670Y-1433220D01*
X462330Y-1425956D01*
X462330Y-1306626D01*
X462178Y-1303477D01*
X461467Y-1298244D01*
X460248Y-1293672D01*
X458216Y-1288694D01*
X456184Y-1284935D01*
X453288Y-1280820D01*
X449529Y-1276756D01*
X446074Y-1273810D01*
X441959Y-1271066D01*
X437438Y-1268780D01*
X432816Y-1267155D01*
X428243Y-1266139D01*
X420979Y-1265529D01*
X388467Y-1265631D01*
X383235Y-1266342D01*
X378612Y-1267561D01*
X374040Y-1269390D01*
X369620Y-1271828D01*
X365556Y-1274724D01*
X362153Y-1277823D01*
X359714Y-1280617D01*
X356463Y-1283055D01*
X352501Y-1284020D01*
X348488Y-1283360D01*
X345033Y-1281176D01*
X342747Y-1277823D01*
X341934Y-1273860D01*
X341934Y-1232458D01*
X342696Y-1228547D01*
X344932Y-1225296D01*
X348183Y-1223060D01*
X352094Y-1222298D01*
X367995Y-1222298D01*
X375208Y-1221689D01*
X379780Y-1220673D01*
X384403Y-1218996D01*
X388975Y-1216710D01*
X392836Y-1214170D01*
X397002Y-1210564D01*
X400100Y-1207211D01*
X402945Y-1203198D01*
X405434Y-1198727D01*
X407212Y-1194155D01*
X408432Y-1189583D01*
X409143Y-1184351D01*
X409295Y-1181201D01*
X409295Y-1151839D01*
X408686Y-1144676D01*
X407619Y-1140002D01*
X405993Y-1135380D01*
X403707Y-1130808D01*
X401015Y-1126744D01*
X397814Y-1123035D01*
X394004Y-1119530D01*
X390194Y-1116838D01*
X385724Y-1114399D01*
X383133Y-1113332D01*
X379882Y-1111250D01*
X377647Y-1108049D01*
X376732Y-1104290D01*
X377342Y-1100480D01*
X379323Y-1097127D01*
X382422Y-1094790D01*
X390042Y-1091031D01*
X394004Y-1088288D01*
X398018Y-1084529D01*
X400964Y-1081074D01*
X403707Y-1076960D01*
X405993Y-1072438D01*
X407670Y-1067816D01*
X408736Y-1062736D01*
X352247Y-1062736D01*
X352247Y-1100328D01*
X351485Y-1104239D01*
X349300Y-1107490D01*
X345998Y-1109726D01*
X342087Y-1110488D01*
X274726Y-1110488D01*
X270814Y-1109726D01*
X267512Y-1107490D01*
X265328Y-1104239D01*
X264566Y-1100328D01*
X264566Y-1062736D01*
X208076Y-1062736D01*
X209550Y-1069136D01*
X211582Y-1074115D01*
X213817Y-1078179D01*
X216712Y-1082243D01*
X219811Y-1085596D01*
X223723Y-1088999D01*
X228092Y-1091844D01*
X234188Y-1094689D01*
X237286Y-1096924D01*
X239318Y-1100175D01*
X240029Y-1103884D01*
X239318Y-1107643D01*
X237286Y-1110843D01*
X234188Y-1113078D01*
X227736Y-1116177D01*
X223723Y-1118819D01*
X220014Y-1122019D01*
X216712Y-1125575D01*
X213817Y-1129639D01*
X211582Y-1133703D01*
X209550Y-1138631D01*
X208330Y-1143304D01*
X207619Y-1148486D01*
X207517Y-1180998D01*
X208127Y-1188212D01*
X209143Y-1192733D01*
X210972Y-1197762D01*
X213055Y-1201928D01*
X215849Y-1206093D01*
X218795Y-1209548D01*
X222605Y-1213104D01*
X226618Y-1215948D01*
X231038Y-1218438D01*
X235610Y-1220216D01*
X240131Y-1221435D01*
X247040Y-1222248D01*
X264769Y-1222298D01*
X268630Y-1223060D01*
X271932Y-1225296D01*
X274116Y-1228598D01*
X274878Y-1232458D01*
X274878Y-1529689D01*
X275691Y-1537157D01*
X277825Y-1543812D01*
X281381Y-1550009D01*
X284988Y-1554175D01*
X313537Y-1582775D01*
X315772Y-1586077D01*
X316534Y-1589938D01*
X316534Y-1593951D01*
X318160Y-1602994D01*
X321411Y-1611630D01*
X326136Y-1619504D01*
X332181Y-1626412D01*
X339344Y-1632153D01*
X347421Y-1636522D01*
X356158Y-1639366D01*
G37*
G36*
X1864258Y-1569466D02*
G01*
X1873453Y-1569059D01*
X1882393Y-1567027D01*
X1890877Y-1563420D01*
X1898548Y-1558340D01*
X1905152Y-1551990D01*
X1910588Y-1544574D01*
X1914550Y-1536293D01*
X1916988Y-1527403D01*
X1917852Y-1518259D01*
X1916988Y-1509115D01*
X1914550Y-1500225D01*
X1910588Y-1491945D01*
X1905152Y-1484528D01*
X1898548Y-1478178D01*
X1890877Y-1473098D01*
X1882393Y-1469491D01*
X1873453Y-1467459D01*
X1864258Y-1467053D01*
X1855165Y-1468272D01*
X1846427Y-1471117D01*
X1838350Y-1475486D01*
X1831136Y-1481226D01*
X1825091Y-1488135D01*
X1820367Y-1496009D01*
X1817166Y-1504645D01*
X1815490Y-1513687D01*
X1815490Y-1522831D01*
X1817166Y-1531874D01*
X1820367Y-1540510D01*
X1825091Y-1548384D01*
X1831136Y-1555292D01*
X1838350Y-1561033D01*
X1846427Y-1565402D01*
X1855165Y-1568246D01*
G37*
G36*
X5609996Y-1533652D02*
G01*
X5619140Y-1533245D01*
X5628132Y-1531213D01*
X5636564Y-1527606D01*
X5644235Y-1522526D01*
X5650890Y-1516176D01*
X5656275Y-1508760D01*
X5660288Y-1500479D01*
X5662726Y-1491589D01*
X5663539Y-1482445D01*
X5662726Y-1473301D01*
X5660288Y-1464411D01*
X5656275Y-1456131D01*
X5650890Y-1448714D01*
X5644235Y-1442364D01*
X5636564Y-1437284D01*
X5628132Y-1433677D01*
X5619140Y-1431645D01*
X5609996Y-1431239D01*
X5600852Y-1432458D01*
X5592114Y-1435303D01*
X5584037Y-1439672D01*
X5576874Y-1445412D01*
X5570829Y-1452321D01*
X5566105Y-1460195D01*
X5562854Y-1468831D01*
X5561228Y-1477873D01*
X5561228Y-1487017D01*
X5562854Y-1496060D01*
X5566105Y-1504696D01*
X5570829Y-1512570D01*
X5576874Y-1519478D01*
X5584037Y-1525219D01*
X5592114Y-1529588D01*
X5600852Y-1532432D01*
G37*
G36*
X1081481Y-1477619D02*
G01*
X1090625Y-1477213D01*
X1099616Y-1475130D01*
X1108049Y-1471523D01*
X1115720Y-1466494D01*
X1122375Y-1460093D01*
X1127760Y-1452676D01*
X1131773Y-1444396D01*
X1134211Y-1435557D01*
X1135024Y-1426413D01*
X1134211Y-1417218D01*
X1131773Y-1408379D01*
X1127760Y-1400098D01*
X1122375Y-1392682D01*
X1115720Y-1386281D01*
X1108049Y-1381252D01*
X1099616Y-1377645D01*
X1090625Y-1375562D01*
X1081481Y-1375156D01*
X1072337Y-1376426D01*
X1063599Y-1379270D01*
X1055522Y-1383588D01*
X1048359Y-1389329D01*
X1042314Y-1396238D01*
X1037590Y-1404162D01*
X1034338Y-1412748D01*
X1032713Y-1421790D01*
X1032713Y-1430985D01*
X1034338Y-1440027D01*
X1037590Y-1448612D01*
X1042314Y-1456537D01*
X1048359Y-1463446D01*
X1055522Y-1469186D01*
X1063599Y-1473504D01*
X1072337Y-1476349D01*
G37*
G36*
X645617Y-1467307D02*
G01*
X674979Y-1467307D01*
X682244Y-1466697D01*
X686765Y-1465681D01*
X691794Y-1463852D01*
X695960Y-1461719D01*
X700074Y-1458976D01*
X703580Y-1456029D01*
X707085Y-1452219D01*
X710184Y-1447850D01*
X712216Y-1444142D01*
X714248Y-1439164D01*
X715467Y-1434592D01*
X716178Y-1429308D01*
X716330Y-1426159D01*
X716330Y-1306830D01*
X715670Y-1299565D01*
X714654Y-1295044D01*
X712825Y-1290015D01*
X710895Y-1286154D01*
X708152Y-1281938D01*
X704596Y-1277772D01*
X701243Y-1274724D01*
X697179Y-1271828D01*
X692759Y-1269390D01*
X688187Y-1267561D01*
X683564Y-1266342D01*
X678332Y-1265631D01*
X645820Y-1265529D01*
X638556Y-1266139D01*
X633984Y-1267155D01*
X629361Y-1268780D01*
X624840Y-1271066D01*
X620725Y-1273810D01*
X617270Y-1276756D01*
X613511Y-1280820D01*
X610616Y-1284935D01*
X608584Y-1288694D01*
X606552Y-1293672D01*
X605383Y-1298092D01*
X604469Y-1306474D01*
X603351Y-1310081D01*
X600964Y-1313078D01*
X597662Y-1314958D01*
X593902Y-1315516D01*
X586740Y-1315161D01*
X577646Y-1316431D01*
X568909Y-1319276D01*
X560832Y-1323594D01*
X553618Y-1329334D01*
X547573Y-1336243D01*
X542848Y-1344168D01*
X539648Y-1352753D01*
X537972Y-1361795D01*
X537972Y-1370990D01*
X539648Y-1380032D01*
X542848Y-1388618D01*
X547573Y-1396542D01*
X553618Y-1403451D01*
X560832Y-1409192D01*
X568909Y-1413510D01*
X577646Y-1416354D01*
X586740Y-1417624D01*
X593902Y-1417269D01*
X597712Y-1417828D01*
X601065Y-1419758D01*
X603402Y-1422806D01*
X604469Y-1426514D01*
X605078Y-1433220D01*
X606145Y-1437741D01*
X607974Y-1442821D01*
X609904Y-1446631D01*
X612800Y-1451051D01*
X616204Y-1455013D01*
X619556Y-1458061D01*
X623620Y-1460957D01*
X627684Y-1463243D01*
X632663Y-1465224D01*
X637235Y-1466443D01*
X642467Y-1467154D01*
G37*
G36*
X2988462Y-1462278D02*
G01*
X2997657Y-1461871D01*
X3006598Y-1459788D01*
X3015081Y-1456182D01*
X3022752Y-1451152D01*
X3029356Y-1444752D01*
X3034792Y-1437335D01*
X3038754Y-1429054D01*
X3041192Y-1420215D01*
X3041446Y-1417624D01*
X3042412Y-1414170D01*
X3044444Y-1411274D01*
X3047390Y-1409242D01*
X3050844Y-1408379D01*
X3060496Y-1407668D01*
X3072739Y-1405026D01*
X3084474Y-1400657D01*
X3095447Y-1394663D01*
X3105505Y-1387144D01*
X3114344Y-1378305D01*
X3121863Y-1368247D01*
X3127857Y-1357274D01*
X3132226Y-1345539D01*
X3134868Y-1333296D01*
X3135782Y-1320800D01*
X3134868Y-1308303D01*
X3132226Y-1296060D01*
X3127857Y-1284325D01*
X3121863Y-1273352D01*
X3114344Y-1263294D01*
X3105505Y-1254455D01*
X3095447Y-1246936D01*
X3084474Y-1240942D01*
X3072739Y-1236573D01*
X3060496Y-1233932D01*
X3048000Y-1233017D01*
X3035503Y-1233932D01*
X3023260Y-1236573D01*
X3011525Y-1240942D01*
X3000552Y-1246936D01*
X2990494Y-1254455D01*
X2981655Y-1263294D01*
X2974136Y-1273352D01*
X2968142Y-1284325D01*
X2963773Y-1296060D01*
X2961132Y-1308303D01*
X2960217Y-1320800D01*
X2961132Y-1333296D01*
X2963773Y-1345539D01*
X2967532Y-1355598D01*
X2968193Y-1359154D01*
X2967532Y-1362710D01*
X2965653Y-1365859D01*
X2955340Y-1373987D01*
X2949295Y-1380896D01*
X2944571Y-1388821D01*
X2941370Y-1397406D01*
X2939694Y-1406448D01*
X2939694Y-1415643D01*
X2941370Y-1424686D01*
X2944571Y-1433271D01*
X2949295Y-1441196D01*
X2955340Y-1448104D01*
X2962554Y-1453845D01*
X2970631Y-1458163D01*
X2979369Y-1461008D01*
G37*
G36*
X3556000Y-1408582D02*
G01*
X3568496Y-1407668D01*
X3580739Y-1405026D01*
X3592474Y-1400657D01*
X3603447Y-1394663D01*
X3613505Y-1387144D01*
X3622344Y-1378305D01*
X3629863Y-1368247D01*
X3635857Y-1357274D01*
X3640226Y-1345539D01*
X3642868Y-1333296D01*
X3643782Y-1320800D01*
X3642868Y-1308303D01*
X3640226Y-1296060D01*
X3635857Y-1284325D01*
X3629863Y-1273352D01*
X3622344Y-1263294D01*
X3613505Y-1254455D01*
X3603447Y-1246936D01*
X3592474Y-1240942D01*
X3580739Y-1236573D01*
X3568496Y-1233932D01*
X3556000Y-1233017D01*
X3543503Y-1233932D01*
X3531260Y-1236573D01*
X3519525Y-1240942D01*
X3508552Y-1246936D01*
X3498494Y-1254455D01*
X3489655Y-1263294D01*
X3482136Y-1273352D01*
X3476142Y-1284325D01*
X3471773Y-1296060D01*
X3469132Y-1308303D01*
X3468217Y-1320800D01*
X3469132Y-1333296D01*
X3471773Y-1345539D01*
X3476142Y-1357274D01*
X3482136Y-1368247D01*
X3489655Y-1378305D01*
X3498494Y-1387144D01*
X3508552Y-1394663D01*
X3519525Y-1400657D01*
X3531260Y-1405026D01*
X3543503Y-1407668D01*
G37*
G36*
X4318000Y-1408582D02*
G01*
X4330496Y-1407668D01*
X4342739Y-1405026D01*
X4354474Y-1400657D01*
X4365447Y-1394663D01*
X4375505Y-1387144D01*
X4384344Y-1378305D01*
X4391863Y-1368247D01*
X4397857Y-1357274D01*
X4402226Y-1345539D01*
X4404868Y-1333296D01*
X4405782Y-1320800D01*
X4404868Y-1308303D01*
X4402226Y-1296060D01*
X4397857Y-1284325D01*
X4391863Y-1273352D01*
X4384344Y-1263294D01*
X4375505Y-1254455D01*
X4365447Y-1246936D01*
X4354474Y-1240942D01*
X4342739Y-1236573D01*
X4330496Y-1233932D01*
X4318000Y-1233017D01*
X4305503Y-1233932D01*
X4293260Y-1236573D01*
X4281525Y-1240942D01*
X4270552Y-1246936D01*
X4260494Y-1254455D01*
X4251655Y-1263294D01*
X4250537Y-1264818D01*
X4247134Y-1267714D01*
X4242765Y-1268882D01*
X4238345Y-1268069D01*
X4234738Y-1265377D01*
X4232605Y-1261414D01*
X4231030Y-1255776D01*
X4227068Y-1247495D01*
X4221632Y-1240078D01*
X4215028Y-1233728D01*
X4207357Y-1228648D01*
X4198874Y-1225042D01*
X4189933Y-1223010D01*
X4180738Y-1222603D01*
X4171645Y-1223822D01*
X4162907Y-1226667D01*
X4154830Y-1231036D01*
X4147616Y-1236776D01*
X4141571Y-1243685D01*
X4136847Y-1251559D01*
X4133646Y-1260195D01*
X4131970Y-1269238D01*
X4131970Y-1278382D01*
X4133646Y-1287424D01*
X4136847Y-1296060D01*
X4141571Y-1303934D01*
X4147616Y-1310843D01*
X4154830Y-1316583D01*
X4162907Y-1320952D01*
X4171645Y-1323797D01*
X4180738Y-1325016D01*
X4189933Y-1324610D01*
X4198874Y-1322578D01*
X4207357Y-1318971D01*
X4214571Y-1314196D01*
X4218482Y-1312672D01*
X4222699Y-1312824D01*
X4226458Y-1314653D01*
X4229150Y-1317904D01*
X4230319Y-1321917D01*
X4231132Y-1333296D01*
X4233773Y-1345539D01*
X4238142Y-1357274D01*
X4244136Y-1368247D01*
X4251655Y-1378305D01*
X4260494Y-1387144D01*
X4270552Y-1394663D01*
X4281525Y-1400657D01*
X4293260Y-1405026D01*
X4305503Y-1407668D01*
G37*
G36*
X5683859Y-1358087D02*
G01*
X5693003Y-1357680D01*
X5701995Y-1355598D01*
X5710428Y-1351991D01*
X5718098Y-1346962D01*
X5724753Y-1340561D01*
X5730138Y-1333144D01*
X5734151Y-1324864D01*
X5736590Y-1316024D01*
X5737402Y-1306880D01*
X5736590Y-1297686D01*
X5734151Y-1288846D01*
X5730138Y-1280566D01*
X5724753Y-1273149D01*
X5718098Y-1266748D01*
X5710428Y-1261719D01*
X5701995Y-1258112D01*
X5693003Y-1256030D01*
X5683859Y-1255623D01*
X5674715Y-1256893D01*
X5665978Y-1259738D01*
X5657900Y-1264056D01*
X5650738Y-1269796D01*
X5644692Y-1276705D01*
X5639968Y-1284630D01*
X5636717Y-1293215D01*
X5635091Y-1302258D01*
X5635091Y-1311452D01*
X5636717Y-1320495D01*
X5639968Y-1329080D01*
X5644692Y-1337005D01*
X5650738Y-1343914D01*
X5657900Y-1349654D01*
X5665978Y-1353972D01*
X5674715Y-1356817D01*
G37*
G36*
X995375Y-1314399D02*
G01*
X1004519Y-1313992D01*
X1013510Y-1311960D01*
X1021943Y-1308354D01*
X1029614Y-1303274D01*
X1036269Y-1296924D01*
X1041653Y-1289507D01*
X1045667Y-1281226D01*
X1048105Y-1272336D01*
X1048918Y-1263192D01*
X1048105Y-1254048D01*
X1045667Y-1245158D01*
X1041653Y-1236878D01*
X1036269Y-1229461D01*
X1029614Y-1223111D01*
X1021943Y-1218031D01*
X1013510Y-1214424D01*
X1004519Y-1212392D01*
X995375Y-1211986D01*
X986231Y-1213205D01*
X977493Y-1216050D01*
X975360Y-1217218D01*
X971550Y-1218387D01*
X967587Y-1217980D01*
X964031Y-1216101D01*
X961542Y-1213002D01*
X960424Y-1209192D01*
X960069Y-1205636D01*
X957630Y-1196797D01*
X953668Y-1188516D01*
X948232Y-1181100D01*
X941628Y-1174699D01*
X933958Y-1169670D01*
X925474Y-1166063D01*
X916533Y-1163980D01*
X907338Y-1163574D01*
X898245Y-1164844D01*
X889508Y-1167688D01*
X881430Y-1172006D01*
X874217Y-1177747D01*
X868527Y-1184249D01*
X865073Y-1186840D01*
X860856Y-1187754D01*
X802233Y-1187754D01*
X802233Y-1222298D01*
X818184Y-1222298D01*
X821334Y-1222146D01*
X826566Y-1221435D01*
X831189Y-1220216D01*
X835761Y-1218438D01*
X840282Y-1215948D01*
X843026Y-1214018D01*
X846734Y-1212443D01*
X850747Y-1212392D01*
X854456Y-1213967D01*
X857300Y-1216812D01*
X858824Y-1220571D01*
X860247Y-1228445D01*
X863447Y-1237030D01*
X868171Y-1244955D01*
X874217Y-1251864D01*
X881430Y-1257604D01*
X889508Y-1261922D01*
X898245Y-1264767D01*
X907338Y-1266037D01*
X916533Y-1265631D01*
X925474Y-1263548D01*
X932637Y-1260500D01*
X936193Y-1259687D01*
X939800Y-1260195D01*
X943000Y-1261922D01*
X945387Y-1264615D01*
X946658Y-1268018D01*
X948232Y-1276807D01*
X951484Y-1285443D01*
X956208Y-1293317D01*
X962253Y-1300226D01*
X969416Y-1305966D01*
X977493Y-1310335D01*
X986231Y-1313180D01*
G37*
G36*
X5159451Y-1240383D02*
G01*
X5168595Y-1239977D01*
X5177586Y-1237945D01*
X5186019Y-1234338D01*
X5193690Y-1229258D01*
X5200345Y-1222908D01*
X5205730Y-1215491D01*
X5209743Y-1207211D01*
X5212181Y-1198321D01*
X5212994Y-1189177D01*
X5212181Y-1180033D01*
X5209743Y-1171143D01*
X5205730Y-1162862D01*
X5200345Y-1155446D01*
X5193690Y-1149096D01*
X5186019Y-1144016D01*
X5177586Y-1140409D01*
X5168595Y-1138377D01*
X5159451Y-1137970D01*
X5150307Y-1139190D01*
X5141569Y-1142034D01*
X5133492Y-1146403D01*
X5126329Y-1152144D01*
X5120284Y-1159052D01*
X5115560Y-1166926D01*
X5112308Y-1175562D01*
X5110683Y-1184605D01*
X5110683Y-1193749D01*
X5112308Y-1202791D01*
X5115560Y-1211427D01*
X5120284Y-1219301D01*
X5126329Y-1226210D01*
X5133492Y-1231950D01*
X5141569Y-1236319D01*
X5150307Y-1239164D01*
G37*
G36*
X698804Y-1222298D02*
G01*
X714552Y-1222298D01*
X714552Y-1187754D01*
X658114Y-1187754D01*
X659587Y-1194155D01*
X661416Y-1198727D01*
X663854Y-1203198D01*
X666699Y-1207211D01*
X669798Y-1210564D01*
X673963Y-1214170D01*
X677824Y-1216710D01*
X682396Y-1218996D01*
X687019Y-1220673D01*
X691591Y-1221689D01*
G37*
G36*
X5749798Y-1199489D02*
G01*
X5758992Y-1199083D01*
X5767933Y-1197051D01*
X5776417Y-1193444D01*
X5784088Y-1188364D01*
X5790692Y-1182014D01*
X5796127Y-1174597D01*
X5800090Y-1166317D01*
X5802528Y-1157427D01*
X5803392Y-1148283D01*
X5802528Y-1139139D01*
X5800090Y-1130249D01*
X5796127Y-1121968D01*
X5790692Y-1114552D01*
X5784088Y-1108202D01*
X5776417Y-1103122D01*
X5767933Y-1099515D01*
X5758992Y-1097483D01*
X5749798Y-1097076D01*
X5740704Y-1098296D01*
X5731967Y-1101140D01*
X5723890Y-1105509D01*
X5716676Y-1111250D01*
X5710631Y-1118158D01*
X5705906Y-1126032D01*
X5702706Y-1134668D01*
X5701030Y-1143711D01*
X5701030Y-1152855D01*
X5702706Y-1161897D01*
X5705906Y-1170533D01*
X5710631Y-1178407D01*
X5716676Y-1185316D01*
X5723890Y-1191056D01*
X5731967Y-1195425D01*
X5740704Y-1198270D01*
G37*
G36*
X3556000Y-1154582D02*
G01*
X3568496Y-1153668D01*
X3580739Y-1151026D01*
X3592474Y-1146657D01*
X3603447Y-1140663D01*
X3613505Y-1133144D01*
X3622344Y-1124305D01*
X3629863Y-1114247D01*
X3635857Y-1103274D01*
X3640226Y-1091539D01*
X3642868Y-1079296D01*
X3643782Y-1066800D01*
X3642868Y-1054303D01*
X3640226Y-1042060D01*
X3635857Y-1030325D01*
X3629863Y-1019352D01*
X3622344Y-1009294D01*
X3613505Y-1000455D01*
X3603447Y-992936D01*
X3592474Y-986942D01*
X3580739Y-982573D01*
X3568496Y-979932D01*
X3556000Y-979017D01*
X3543503Y-979932D01*
X3531260Y-982573D01*
X3519525Y-986942D01*
X3508552Y-992936D01*
X3498494Y-1000455D01*
X3489655Y-1009294D01*
X3482136Y-1019352D01*
X3476142Y-1030325D01*
X3471773Y-1042060D01*
X3469132Y-1054303D01*
X3468217Y-1066800D01*
X3469132Y-1079296D01*
X3471773Y-1091539D01*
X3476142Y-1103274D01*
X3482136Y-1114247D01*
X3489655Y-1124305D01*
X3498494Y-1133144D01*
X3508552Y-1140663D01*
X3519525Y-1146657D01*
X3531260Y-1151026D01*
X3543503Y-1153668D01*
G37*
G36*
X3048000Y-1154582D02*
G01*
X3060496Y-1153668D01*
X3072739Y-1151026D01*
X3084474Y-1146657D01*
X3095447Y-1140663D01*
X3105505Y-1133144D01*
X3114344Y-1124305D01*
X3121863Y-1114247D01*
X3127857Y-1103274D01*
X3132226Y-1091539D01*
X3134868Y-1079296D01*
X3135782Y-1066800D01*
X3134868Y-1054303D01*
X3132226Y-1042060D01*
X3127857Y-1030325D01*
X3121863Y-1019352D01*
X3114344Y-1009294D01*
X3105505Y-1000455D01*
X3095447Y-992936D01*
X3084474Y-986942D01*
X3072739Y-982573D01*
X3060496Y-979932D01*
X3048000Y-979017D01*
X3035503Y-979932D01*
X3023260Y-982573D01*
X3011525Y-986942D01*
X3000552Y-992936D01*
X2990494Y-1000455D01*
X2981655Y-1009294D01*
X2974136Y-1019352D01*
X2968142Y-1030325D01*
X2963773Y-1042060D01*
X2961132Y-1054303D01*
X2960217Y-1066800D01*
X2961132Y-1079296D01*
X2963773Y-1091539D01*
X2968142Y-1103274D01*
X2974136Y-1114247D01*
X2981655Y-1124305D01*
X2990494Y-1133144D01*
X3000552Y-1140663D01*
X3011525Y-1146657D01*
X3023260Y-1151026D01*
X3035503Y-1153668D01*
G37*
G36*
X4318000Y-1154582D02*
G01*
X4330496Y-1153668D01*
X4342739Y-1151026D01*
X4354474Y-1146657D01*
X4365447Y-1140663D01*
X4375505Y-1133144D01*
X4384344Y-1124305D01*
X4391863Y-1114247D01*
X4397857Y-1103274D01*
X4402226Y-1091539D01*
X4404868Y-1079296D01*
X4405782Y-1066800D01*
X4404868Y-1054303D01*
X4402226Y-1042060D01*
X4397857Y-1030325D01*
X4391863Y-1019352D01*
X4384344Y-1009294D01*
X4375505Y-1000455D01*
X4365447Y-992936D01*
X4354474Y-986942D01*
X4342739Y-982573D01*
X4330496Y-979932D01*
X4318000Y-979017D01*
X4305503Y-979932D01*
X4293260Y-982573D01*
X4281525Y-986942D01*
X4270552Y-992936D01*
X4260494Y-1000455D01*
X4251655Y-1009294D01*
X4244136Y-1019352D01*
X4238142Y-1030325D01*
X4233773Y-1042060D01*
X4231132Y-1054303D01*
X4230217Y-1066800D01*
X4231132Y-1079296D01*
X4233773Y-1091539D01*
X4238142Y-1103274D01*
X4244136Y-1114247D01*
X4251655Y-1124305D01*
X4260494Y-1133144D01*
X4270552Y-1140663D01*
X4281525Y-1146657D01*
X4293260Y-1151026D01*
X4305503Y-1153668D01*
G37*
G36*
X658063Y-1145032D02*
G01*
X714552Y-1145032D01*
X714552Y-1107490D01*
X715314Y-1103579D01*
X717499Y-1100277D01*
X720801Y-1098092D01*
X724712Y-1097330D01*
X792073Y-1097330D01*
X795985Y-1098092D01*
X799287Y-1100277D01*
X801471Y-1103579D01*
X802233Y-1107490D01*
X802233Y-1145032D01*
X858723Y-1145032D01*
X857250Y-1138631D01*
X855218Y-1133703D01*
X852982Y-1129639D01*
X850087Y-1125575D01*
X846785Y-1122019D01*
X843076Y-1118819D01*
X839063Y-1116126D01*
X832612Y-1113078D01*
X829056Y-1110284D01*
X827074Y-1106220D01*
X827074Y-1101699D01*
X829005Y-1097635D01*
X832510Y-1094790D01*
X840028Y-1091082D01*
X844194Y-1088085D01*
X848004Y-1084580D01*
X850950Y-1081074D01*
X853744Y-1076960D01*
X855827Y-1072794D01*
X857656Y-1067765D01*
X858672Y-1063244D01*
X859332Y-1055979D01*
X859332Y-1026617D01*
X859180Y-1023467D01*
X858469Y-1018235D01*
X857250Y-1013663D01*
X855218Y-1008684D01*
X852982Y-1004620D01*
X850087Y-1000556D01*
X846988Y-997203D01*
X843076Y-993800D01*
X838708Y-990955D01*
X832662Y-988110D01*
X829513Y-985824D01*
X827481Y-982522D01*
X826820Y-978662D01*
X827633Y-974902D01*
X829818Y-971702D01*
X833069Y-969518D01*
X835660Y-968451D01*
X840181Y-965962D01*
X844194Y-963066D01*
X847801Y-959764D01*
X851001Y-956056D01*
X853744Y-951941D01*
X855827Y-947775D01*
X857656Y-942797D01*
X858723Y-938123D01*
X859332Y-930960D01*
X859332Y-901598D01*
X859180Y-898448D01*
X858469Y-893216D01*
X857250Y-888644D01*
X855218Y-883716D01*
X852982Y-879652D01*
X850087Y-875588D01*
X846988Y-872185D01*
X843026Y-868781D01*
X838962Y-866089D01*
X834440Y-863803D01*
X829818Y-862126D01*
X825246Y-861110D01*
X817981Y-860501D01*
X698601Y-860501D01*
X695452Y-860653D01*
X690219Y-861364D01*
X685647Y-862584D01*
X681075Y-864412D01*
X676605Y-866851D01*
X672795Y-869543D01*
X668782Y-873252D01*
X665835Y-876706D01*
X663092Y-880821D01*
X660806Y-885393D01*
X659130Y-890016D01*
X658114Y-894587D01*
X657504Y-901801D01*
X657504Y-931164D01*
X657656Y-934313D01*
X658368Y-939495D01*
X659587Y-944168D01*
X661416Y-948740D01*
X663854Y-953211D01*
X666699Y-957224D01*
X670001Y-960780D01*
X673963Y-964133D01*
X677722Y-966673D01*
X684225Y-969721D01*
X687730Y-972515D01*
X689711Y-976579D01*
X689762Y-981100D01*
X687832Y-985164D01*
X684326Y-988009D01*
X676757Y-991768D01*
X672795Y-994511D01*
X668782Y-998270D01*
X665835Y-1001725D01*
X663092Y-1005840D01*
X660806Y-1010361D01*
X659130Y-1014984D01*
X658114Y-1019556D01*
X657504Y-1026820D01*
X657504Y-1056182D01*
X657656Y-1059332D01*
X658368Y-1064564D01*
X659587Y-1069187D01*
X661416Y-1073759D01*
X663854Y-1078179D01*
X666699Y-1082243D01*
X669798Y-1085596D01*
X673963Y-1089152D01*
X678078Y-1091844D01*
X684174Y-1094689D01*
X687273Y-1096975D01*
X689356Y-1100277D01*
X690016Y-1104138D01*
X689152Y-1107897D01*
X686968Y-1111097D01*
X683768Y-1113282D01*
X681126Y-1114348D01*
X676605Y-1116838D01*
X672795Y-1119530D01*
X668985Y-1123035D01*
X665784Y-1126744D01*
X663092Y-1130808D01*
X660806Y-1135380D01*
X659180Y-1140002D01*
G37*
G36*
X1291488Y-1075182D02*
G01*
X1323543Y-1075182D01*
X1323543Y-1032865D01*
X1291488Y-1032865D01*
X1291488Y-1038402D01*
X1292199Y-1044752D01*
X1294282Y-1050645D01*
X1294841Y-1053998D01*
X1294282Y-1057351D01*
X1292199Y-1063244D01*
X1291488Y-1069594D01*
G37*
G36*
X1361236Y-1075182D02*
G01*
X1393291Y-1075182D01*
X1393291Y-1069594D01*
X1392580Y-1063244D01*
X1390497Y-1057351D01*
X1389938Y-1053998D01*
X1390497Y-1050645D01*
X1392580Y-1044752D01*
X1393291Y-1038402D01*
X1393291Y-1032865D01*
X1361236Y-1032865D01*
G37*
G36*
X208076Y-1020064D02*
G01*
X264566Y-1020064D01*
X264566Y-982471D01*
X265328Y-978560D01*
X267512Y-975309D01*
X270814Y-973074D01*
X274726Y-972312D01*
X342087Y-972312D01*
X345998Y-973074D01*
X349300Y-975309D01*
X351485Y-978560D01*
X352247Y-982471D01*
X352247Y-1020064D01*
X408686Y-1020064D01*
X407212Y-1013612D01*
X405434Y-1009040D01*
X402945Y-1004620D01*
X400100Y-1000556D01*
X397002Y-997203D01*
X392836Y-993648D01*
X388721Y-990955D01*
X382625Y-988110D01*
X379526Y-985824D01*
X377444Y-982522D01*
X376783Y-978662D01*
X377647Y-974902D01*
X379831Y-971702D01*
X383032Y-969518D01*
X385673Y-968451D01*
X390194Y-965962D01*
X394004Y-963269D01*
X397814Y-959764D01*
X401015Y-956056D01*
X403707Y-951992D01*
X405993Y-947419D01*
X407619Y-942797D01*
X408686Y-938123D01*
X409295Y-930960D01*
X409295Y-901598D01*
X409143Y-898448D01*
X408432Y-893216D01*
X407212Y-888644D01*
X405434Y-884072D01*
X402945Y-879602D01*
X400100Y-875588D01*
X397002Y-872236D01*
X392836Y-868629D01*
X388975Y-866089D01*
X384403Y-863803D01*
X379780Y-862126D01*
X375208Y-861110D01*
X367995Y-860501D01*
X248615Y-860501D01*
X245465Y-860653D01*
X240233Y-861364D01*
X235610Y-862584D01*
X231038Y-864412D01*
X226618Y-866851D01*
X222605Y-869696D01*
X218795Y-873252D01*
X215849Y-876706D01*
X213055Y-880871D01*
X210972Y-885037D01*
X209143Y-890066D01*
X208127Y-894587D01*
X207517Y-901801D01*
X207619Y-934313D01*
X208330Y-939495D01*
X209550Y-944168D01*
X211582Y-949096D01*
X213817Y-953160D01*
X216712Y-957224D01*
X220014Y-960780D01*
X223723Y-963980D01*
X227736Y-966673D01*
X234188Y-969721D01*
X237744Y-972515D01*
X239725Y-976579D01*
X239725Y-981100D01*
X237794Y-985164D01*
X234289Y-988009D01*
X226771Y-991717D01*
X222605Y-994714D01*
X218795Y-998219D01*
X215849Y-1001725D01*
X213055Y-1005890D01*
X210972Y-1010005D01*
X209143Y-1015034D01*
G37*
G36*
X1361236Y-995171D02*
G01*
X1393291Y-995171D01*
X1393291Y-989584D01*
X1392580Y-983234D01*
X1390497Y-977341D01*
X1389938Y-973988D01*
X1390497Y-970635D01*
X1392580Y-964742D01*
X1393291Y-958443D01*
X1393291Y-952855D01*
X1361236Y-952855D01*
G37*
G36*
X1291488Y-995171D02*
G01*
X1323543Y-995171D01*
X1323543Y-952855D01*
X1291488Y-952855D01*
X1291488Y-958443D01*
X1292199Y-964742D01*
X1294282Y-970635D01*
X1294841Y-973988D01*
X1294282Y-977341D01*
X1292199Y-983234D01*
X1291488Y-989584D01*
G37*
G36*
X3556000Y-900582D02*
G01*
X3568496Y-899668D01*
X3580739Y-897026D01*
X3592474Y-892657D01*
X3603447Y-886663D01*
X3613505Y-879144D01*
X3622344Y-870305D01*
X3629863Y-860247D01*
X3635857Y-849274D01*
X3640226Y-837539D01*
X3642868Y-825296D01*
X3643782Y-812800D01*
X3642868Y-800303D01*
X3640226Y-788060D01*
X3635857Y-776325D01*
X3629863Y-765352D01*
X3622344Y-755294D01*
X3613505Y-746455D01*
X3603447Y-738936D01*
X3592474Y-732942D01*
X3580739Y-728573D01*
X3568496Y-725932D01*
X3556000Y-725017D01*
X3543503Y-725932D01*
X3531260Y-728573D01*
X3519525Y-732942D01*
X3508552Y-738936D01*
X3498494Y-746455D01*
X3489655Y-755294D01*
X3482136Y-765352D01*
X3476142Y-776325D01*
X3471773Y-788060D01*
X3469132Y-800303D01*
X3468217Y-812800D01*
X3469132Y-825296D01*
X3471773Y-837539D01*
X3476142Y-849274D01*
X3482136Y-860247D01*
X3489655Y-870305D01*
X3498494Y-879144D01*
X3508552Y-886663D01*
X3519525Y-892657D01*
X3531260Y-897026D01*
X3543503Y-899668D01*
G37*
G36*
X2286000Y-900582D02*
G01*
X2298496Y-899668D01*
X2310739Y-897026D01*
X2322474Y-892657D01*
X2333447Y-886663D01*
X2343505Y-879144D01*
X2352344Y-870305D01*
X2359863Y-860247D01*
X2365857Y-849274D01*
X2370226Y-837539D01*
X2372868Y-825296D01*
X2373782Y-812800D01*
X2372868Y-800303D01*
X2370226Y-788060D01*
X2365857Y-776325D01*
X2359863Y-765352D01*
X2352344Y-755294D01*
X2343505Y-746455D01*
X2333447Y-738936D01*
X2322474Y-732942D01*
X2310739Y-728573D01*
X2298496Y-725932D01*
X2286000Y-725017D01*
X2273503Y-725932D01*
X2261260Y-728573D01*
X2249525Y-732942D01*
X2238552Y-738936D01*
X2228494Y-746455D01*
X2219655Y-755294D01*
X2212136Y-765352D01*
X2206142Y-776325D01*
X2201773Y-788060D01*
X2199132Y-800303D01*
X2198217Y-812800D01*
X2199132Y-825296D01*
X2201773Y-837539D01*
X2206142Y-849274D01*
X2212136Y-860247D01*
X2219655Y-870305D01*
X2228494Y-879144D01*
X2238552Y-886663D01*
X2249525Y-892657D01*
X2261260Y-897026D01*
X2273503Y-899668D01*
G37*
G36*
X3048000Y-900582D02*
G01*
X3060496Y-899668D01*
X3072739Y-897026D01*
X3084474Y-892657D01*
X3095447Y-886663D01*
X3105505Y-879144D01*
X3114344Y-870305D01*
X3121863Y-860247D01*
X3127857Y-849274D01*
X3132226Y-837539D01*
X3134868Y-825296D01*
X3135782Y-812800D01*
X3134868Y-800303D01*
X3132226Y-788060D01*
X3127857Y-776325D01*
X3121863Y-765352D01*
X3114344Y-755294D01*
X3105505Y-746455D01*
X3095447Y-738936D01*
X3084474Y-732942D01*
X3072739Y-728573D01*
X3060496Y-725932D01*
X3048000Y-725017D01*
X3035503Y-725932D01*
X3023260Y-728573D01*
X3011525Y-732942D01*
X3000552Y-738936D01*
X2990494Y-746455D01*
X2981655Y-755294D01*
X2974136Y-765352D01*
X2968142Y-776325D01*
X2963773Y-788060D01*
X2961132Y-800303D01*
X2960217Y-812800D01*
X2961132Y-825296D01*
X2963773Y-837539D01*
X2968142Y-849274D01*
X2974136Y-860247D01*
X2981655Y-870305D01*
X2990494Y-879144D01*
X3000552Y-886663D01*
X3011525Y-892657D01*
X3023260Y-897026D01*
X3035503Y-899668D01*
G37*
G36*
X4318000Y-900582D02*
G01*
X4330496Y-899668D01*
X4342739Y-897026D01*
X4354474Y-892657D01*
X4365447Y-886663D01*
X4375505Y-879144D01*
X4384344Y-870305D01*
X4391863Y-860247D01*
X4397857Y-849274D01*
X4402226Y-837539D01*
X4404868Y-825296D01*
X4405782Y-812800D01*
X4404868Y-800303D01*
X4402226Y-788060D01*
X4397857Y-776325D01*
X4391863Y-765352D01*
X4384344Y-755294D01*
X4375505Y-746455D01*
X4365447Y-738936D01*
X4354474Y-732942D01*
X4342739Y-728573D01*
X4330496Y-725932D01*
X4318000Y-725017D01*
X4305503Y-725932D01*
X4293260Y-728573D01*
X4281525Y-732942D01*
X4270552Y-738936D01*
X4260494Y-746455D01*
X4251655Y-755294D01*
X4244136Y-765352D01*
X4238142Y-776325D01*
X4233773Y-788060D01*
X4231132Y-800303D01*
X4230217Y-812800D01*
X4231132Y-825296D01*
X4233773Y-837539D01*
X4238142Y-849274D01*
X4244136Y-860247D01*
X4251655Y-870305D01*
X4260494Y-879144D01*
X4270552Y-886663D01*
X4281525Y-892657D01*
X4293260Y-897026D01*
X4305503Y-899668D01*
G37*
G36*
X2842818Y-890422D02*
G01*
X2851962Y-890016D01*
X2860954Y-887984D01*
X2869387Y-884377D01*
X2877058Y-879297D01*
X2883712Y-872947D01*
X2889097Y-865530D01*
X2893110Y-857250D01*
X2895549Y-848360D01*
X2896362Y-839216D01*
X2895549Y-830071D01*
X2893110Y-821182D01*
X2889097Y-812901D01*
X2883712Y-805484D01*
X2877058Y-799134D01*
X2869387Y-794054D01*
X2860954Y-790448D01*
X2851962Y-788416D01*
X2842818Y-788009D01*
X2833674Y-789228D01*
X2824937Y-792073D01*
X2816860Y-796442D01*
X2809697Y-802182D01*
X2803652Y-809091D01*
X2798927Y-816965D01*
X2795676Y-825601D01*
X2794050Y-834644D01*
X2794050Y-843787D01*
X2795676Y-852830D01*
X2798927Y-861466D01*
X2803652Y-869340D01*
X2809697Y-876249D01*
X2816860Y-881989D01*
X2824937Y-886358D01*
X2833674Y-889203D01*
G37*
G36*
X391617Y-817321D02*
G01*
X420979Y-817321D01*
X428243Y-816660D01*
X432816Y-815644D01*
X437438Y-814019D01*
X441959Y-811733D01*
X446074Y-808990D01*
X449529Y-806043D01*
X453288Y-801979D01*
X456184Y-797864D01*
X458216Y-794105D01*
X460248Y-789127D01*
X461467Y-784555D01*
X462178Y-779322D01*
X462330Y-776173D01*
X462330Y-656844D01*
X461670Y-649579D01*
X460654Y-645058D01*
X458825Y-639978D01*
X456895Y-636168D01*
X453999Y-631748D01*
X450596Y-627786D01*
X447243Y-624738D01*
X443179Y-621842D01*
X439115Y-619556D01*
X434136Y-617575D01*
X429564Y-616356D01*
X424332Y-615645D01*
X421182Y-615492D01*
X391820Y-615492D01*
X384556Y-616102D01*
X380034Y-617118D01*
X375005Y-618947D01*
X370890Y-621080D01*
X366725Y-623824D01*
X363220Y-626770D01*
X359714Y-630580D01*
X356616Y-634949D01*
X354584Y-638657D01*
X352552Y-643636D01*
X351332Y-648208D01*
X350621Y-653491D01*
X350520Y-681532D01*
X349656Y-685546D01*
X347370Y-688898D01*
X343916Y-691083D01*
X339902Y-691692D01*
X332130Y-691337D01*
X322986Y-692607D01*
X314248Y-695452D01*
X306171Y-699770D01*
X299008Y-705510D01*
X292963Y-712419D01*
X288239Y-720344D01*
X284988Y-728929D01*
X283362Y-737971D01*
X283362Y-747166D01*
X284988Y-756208D01*
X288239Y-764794D01*
X292963Y-772718D01*
X299008Y-779627D01*
X306171Y-785368D01*
X314248Y-789686D01*
X322986Y-792530D01*
X332130Y-793800D01*
X341274Y-793394D01*
X345236Y-792480D01*
X349300Y-792378D01*
X353060Y-793902D01*
X355955Y-796798D01*
X358597Y-800811D01*
X362204Y-805027D01*
X365556Y-808075D01*
X369620Y-810971D01*
X374040Y-813409D01*
X378612Y-815238D01*
X383235Y-816457D01*
X388467Y-817168D01*
G37*
G36*
X681736Y-816711D02*
G01*
X688187Y-815238D01*
X692759Y-813409D01*
X697179Y-810971D01*
X701243Y-808075D01*
X704596Y-805027D01*
X708152Y-800862D01*
X710895Y-796645D01*
X712825Y-792784D01*
X714654Y-787755D01*
X715670Y-783234D01*
X716330Y-775970D01*
X716330Y-760272D01*
X681736Y-760272D01*
G37*
G36*
X639064Y-816711D02*
G01*
X639064Y-760272D01*
X604520Y-760272D01*
X604621Y-779322D01*
X605332Y-784555D01*
X606552Y-789127D01*
X608584Y-794105D01*
X610616Y-797864D01*
X613511Y-801979D01*
X617270Y-806043D01*
X620725Y-808990D01*
X624840Y-811733D01*
X629361Y-814019D01*
X633984Y-815644D01*
G37*
G36*
X604520Y-672541D02*
G01*
X639064Y-672541D01*
X639064Y-616102D01*
X632663Y-617575D01*
X627684Y-619556D01*
X623620Y-621842D01*
X619556Y-624738D01*
X616204Y-627786D01*
X612800Y-631748D01*
X609904Y-636168D01*
X607974Y-639978D01*
X606145Y-645058D01*
X605129Y-649579D01*
X604520Y-656844D01*
G37*
G36*
X681736Y-672541D02*
G01*
X716330Y-672541D01*
X716330Y-656640D01*
X716178Y-653491D01*
X715467Y-648208D01*
X714248Y-643636D01*
X712216Y-638657D01*
X710184Y-634949D01*
X707085Y-630580D01*
X703580Y-626770D01*
X700074Y-623824D01*
X695960Y-621080D01*
X691794Y-618947D01*
X686765Y-617118D01*
X681736Y-616051D01*
G37*
G36*
X3556000Y-646582D02*
G01*
X3568496Y-645668D01*
X3580739Y-643026D01*
X3592474Y-638657D01*
X3603447Y-632663D01*
X3613505Y-625144D01*
X3622344Y-616305D01*
X3629863Y-606247D01*
X3635857Y-595274D01*
X3640226Y-583539D01*
X3642868Y-571296D01*
X3643782Y-558800D01*
X3642868Y-546303D01*
X3640226Y-534060D01*
X3635857Y-522325D01*
X3629863Y-511352D01*
X3622344Y-501294D01*
X3613505Y-492455D01*
X3603447Y-484936D01*
X3592474Y-478942D01*
X3580739Y-474573D01*
X3568496Y-471932D01*
X3556000Y-471017D01*
X3543503Y-471932D01*
X3531260Y-474573D01*
X3519525Y-478942D01*
X3508552Y-484936D01*
X3498494Y-492455D01*
X3489655Y-501294D01*
X3482136Y-511352D01*
X3476142Y-522325D01*
X3471773Y-534060D01*
X3469132Y-546303D01*
X3468217Y-558800D01*
X3469132Y-571296D01*
X3471773Y-583539D01*
X3476142Y-595274D01*
X3482136Y-606247D01*
X3489655Y-616305D01*
X3498494Y-625144D01*
X3508552Y-632663D01*
X3519525Y-638657D01*
X3531260Y-643026D01*
X3543503Y-645668D01*
G37*
G36*
X3048000Y-646582D02*
G01*
X3060496Y-645668D01*
X3072739Y-643026D01*
X3084474Y-638657D01*
X3095447Y-632663D01*
X3105505Y-625144D01*
X3114344Y-616305D01*
X3121863Y-606247D01*
X3127857Y-595274D01*
X3132226Y-583539D01*
X3134868Y-571296D01*
X3135782Y-558800D01*
X3134868Y-546303D01*
X3132226Y-534060D01*
X3127857Y-522325D01*
X3121863Y-511352D01*
X3114344Y-501294D01*
X3105505Y-492455D01*
X3095447Y-484936D01*
X3084474Y-478942D01*
X3072739Y-474573D01*
X3060496Y-471932D01*
X3048000Y-471017D01*
X3035503Y-471932D01*
X3023260Y-474573D01*
X3011525Y-478942D01*
X3000552Y-484936D01*
X2990494Y-492455D01*
X2981655Y-501294D01*
X2974136Y-511352D01*
X2968142Y-522325D01*
X2963773Y-534060D01*
X2961132Y-546303D01*
X2960217Y-558800D01*
X2961132Y-571296D01*
X2963773Y-583539D01*
X2968142Y-595274D01*
X2974136Y-606247D01*
X2981655Y-616305D01*
X2990494Y-625144D01*
X3000552Y-632663D01*
X3011525Y-638657D01*
X3023260Y-643026D01*
X3035503Y-645668D01*
G37*
G36*
X4318000Y-646582D02*
G01*
X4330496Y-645668D01*
X4342739Y-643026D01*
X4354474Y-638657D01*
X4365447Y-632663D01*
X4375505Y-625144D01*
X4384344Y-616305D01*
X4391863Y-606247D01*
X4397857Y-595274D01*
X4402226Y-583539D01*
X4404868Y-571296D01*
X4405782Y-558800D01*
X4404868Y-546303D01*
X4402226Y-534060D01*
X4397857Y-522325D01*
X4391863Y-511352D01*
X4384344Y-501294D01*
X4375505Y-492455D01*
X4365447Y-484936D01*
X4354474Y-478942D01*
X4342739Y-474573D01*
X4330496Y-471932D01*
X4318000Y-471017D01*
X4305503Y-471932D01*
X4293260Y-474573D01*
X4281525Y-478942D01*
X4270552Y-484936D01*
X4260494Y-492455D01*
X4251655Y-501294D01*
X4244136Y-511352D01*
X4238142Y-522325D01*
X4233773Y-534060D01*
X4231132Y-546303D01*
X4230217Y-558800D01*
X4231132Y-571296D01*
X4233773Y-583539D01*
X4238142Y-595274D01*
X4244136Y-606247D01*
X4251655Y-616305D01*
X4260494Y-625144D01*
X4270552Y-632663D01*
X4281525Y-638657D01*
X4293260Y-643026D01*
X4305503Y-645668D01*
G37*
G36*
X2286000Y-646582D02*
G01*
X2298496Y-645668D01*
X2310739Y-643026D01*
X2322474Y-638657D01*
X2333447Y-632663D01*
X2343505Y-625144D01*
X2352344Y-616305D01*
X2359863Y-606247D01*
X2365857Y-595274D01*
X2370226Y-583539D01*
X2372868Y-571296D01*
X2373782Y-558800D01*
X2372868Y-546303D01*
X2370226Y-534060D01*
X2365857Y-522325D01*
X2359863Y-511352D01*
X2352344Y-501294D01*
X2343505Y-492455D01*
X2333447Y-484936D01*
X2322474Y-478942D01*
X2310739Y-474573D01*
X2298496Y-471932D01*
X2286000Y-471017D01*
X2273503Y-471932D01*
X2261260Y-474573D01*
X2249525Y-478942D01*
X2238552Y-484936D01*
X2228494Y-492455D01*
X2219655Y-501294D01*
X2212136Y-511352D01*
X2206142Y-522325D01*
X2201773Y-534060D01*
X2199132Y-546303D01*
X2198217Y-558800D01*
X2199132Y-571296D01*
X2201773Y-583539D01*
X2206142Y-595274D01*
X2212136Y-606247D01*
X2219655Y-616305D01*
X2228494Y-625144D01*
X2238552Y-632663D01*
X2249525Y-638657D01*
X2261260Y-643026D01*
X2273503Y-645668D01*
G37*
G36*
X6354572Y-432358D02*
G01*
X6372910Y-430936D01*
X6390995Y-427634D01*
X6408623Y-422503D01*
X6425641Y-415594D01*
X6441846Y-406958D01*
X6457086Y-396697D01*
X6471158Y-384911D01*
X6484010Y-371754D01*
X6495389Y-357378D01*
X6505244Y-341884D01*
X6513474Y-325424D01*
X6519926Y-308254D01*
X6524599Y-290474D01*
X6527444Y-272338D01*
X6528409Y-254000D01*
X6527444Y-235661D01*
X6524599Y-217525D01*
X6519926Y-199745D01*
X6513474Y-182575D01*
X6505244Y-166116D01*
X6495389Y-150622D01*
X6484010Y-136245D01*
X6471158Y-123088D01*
X6457086Y-111302D01*
X6441846Y-101041D01*
X6425641Y-92405D01*
X6408623Y-85496D01*
X6390995Y-80365D01*
X6372910Y-77063D01*
X6354572Y-75641D01*
X6336233Y-76149D01*
X6317996Y-78486D01*
X6300165Y-82702D01*
X6282791Y-88747D01*
X6266180Y-96520D01*
X6250432Y-105968D01*
X6235700Y-116992D01*
X6222238Y-129489D01*
X6210096Y-143306D01*
X6199479Y-158242D01*
X6190437Y-174244D01*
X6183071Y-191058D01*
X6177483Y-208584D01*
X6173724Y-226567D01*
X6171844Y-244805D01*
X6171844Y-263194D01*
X6173724Y-281432D01*
X6177483Y-299415D01*
X6183071Y-316941D01*
X6190437Y-333756D01*
X6199479Y-349758D01*
X6210096Y-364693D01*
X6222238Y-378510D01*
X6235700Y-391007D01*
X6250432Y-402031D01*
X6266180Y-411480D01*
X6282791Y-419252D01*
X6300165Y-425297D01*
X6317996Y-429514D01*
X6336233Y-431850D01*
G37*
G36*
X258571Y-432358D02*
G01*
X276910Y-430936D01*
X294995Y-427634D01*
X312623Y-422503D01*
X329641Y-415594D01*
X345846Y-406958D01*
X361086Y-396697D01*
X375158Y-384911D01*
X388010Y-371754D01*
X399389Y-357378D01*
X409244Y-341884D01*
X417474Y-325424D01*
X423926Y-308254D01*
X428599Y-290474D01*
X431444Y-272338D01*
X432409Y-254000D01*
X431444Y-235661D01*
X428599Y-217525D01*
X423926Y-199745D01*
X417474Y-182575D01*
X409244Y-166116D01*
X399389Y-150622D01*
X388010Y-136245D01*
X375158Y-123088D01*
X361086Y-111302D01*
X345846Y-101041D01*
X329641Y-92405D01*
X312623Y-85496D01*
X294995Y-80365D01*
X276910Y-77063D01*
X258571Y-75641D01*
X240233Y-76149D01*
X221996Y-78486D01*
X204165Y-82702D01*
X186791Y-88747D01*
X170180Y-96520D01*
X154432Y-105968D01*
X139700Y-116992D01*
X126237Y-129489D01*
X114096Y-143306D01*
X103479Y-158242D01*
X94437Y-174244D01*
X87071Y-191058D01*
X81483Y-208584D01*
X77724Y-226567D01*
X75844Y-244805D01*
X75844Y-263194D01*
X77724Y-281432D01*
X81483Y-299415D01*
X87071Y-316941D01*
X94437Y-333756D01*
X103479Y-349758D01*
X114096Y-364693D01*
X126237Y-378510D01*
X139700Y-391007D01*
X154432Y-402031D01*
X170180Y-411480D01*
X186791Y-419252D01*
X204165Y-425297D01*
X221996Y-429514D01*
X240233Y-431850D01*
G37*
G36*
X2224684Y-392633D02*
G01*
X2347315Y-392633D01*
X2353665Y-391871D01*
X2359101Y-389991D01*
X2364028Y-386892D01*
X2368092Y-382828D01*
X2371191Y-377901D01*
X2373071Y-372465D01*
X2373833Y-366115D01*
X2373833Y-243484D01*
X2373071Y-237134D01*
X2371191Y-231698D01*
X2368092Y-226771D01*
X2364028Y-222707D01*
X2359101Y-219608D01*
X2353665Y-217728D01*
X2347315Y-217017D01*
X2224684Y-217017D01*
X2218334Y-217728D01*
X2212898Y-219608D01*
X2207971Y-222707D01*
X2203907Y-226771D01*
X2200808Y-231698D01*
X2198928Y-237134D01*
X2198217Y-243484D01*
X2198217Y-366115D01*
X2198928Y-372465D01*
X2200808Y-377901D01*
X2203907Y-382828D01*
X2207971Y-386892D01*
X2212898Y-389991D01*
X2218334Y-391871D01*
G37*
G36*
X3494684Y-392633D02*
G01*
X3617315Y-392633D01*
X3623665Y-391871D01*
X3629101Y-389991D01*
X3634028Y-386892D01*
X3638092Y-382828D01*
X3641191Y-377901D01*
X3643071Y-372465D01*
X3643833Y-366115D01*
X3643833Y-243484D01*
X3643071Y-237134D01*
X3641191Y-231698D01*
X3638092Y-226771D01*
X3634028Y-222707D01*
X3629101Y-219608D01*
X3623665Y-217728D01*
X3617315Y-217017D01*
X3494684Y-217017D01*
X3488334Y-217728D01*
X3482898Y-219608D01*
X3477971Y-222707D01*
X3473907Y-226771D01*
X3470808Y-231698D01*
X3468928Y-237134D01*
X3468217Y-243484D01*
X3468217Y-366115D01*
X3468928Y-372465D01*
X3470808Y-377901D01*
X3473907Y-382828D01*
X3477971Y-386892D01*
X3482898Y-389991D01*
X3488334Y-391871D01*
G37*
G36*
X3048000Y-392582D02*
G01*
X3060496Y-391668D01*
X3072739Y-389026D01*
X3084474Y-384657D01*
X3095447Y-378663D01*
X3105505Y-371144D01*
X3114344Y-362305D01*
X3121863Y-352247D01*
X3127857Y-341274D01*
X3132226Y-329539D01*
X3134868Y-317296D01*
X3135782Y-304800D01*
X3134868Y-292303D01*
X3132226Y-280060D01*
X3127857Y-268325D01*
X3121863Y-257352D01*
X3114344Y-247294D01*
X3105505Y-238455D01*
X3095447Y-230936D01*
X3084474Y-224942D01*
X3072739Y-220573D01*
X3060496Y-217932D01*
X3048000Y-217017D01*
X3035503Y-217932D01*
X3023260Y-220573D01*
X3011525Y-224942D01*
X3000552Y-230936D01*
X2990494Y-238455D01*
X2981655Y-247294D01*
X2974136Y-257352D01*
X2968142Y-268325D01*
X2963773Y-280060D01*
X2961132Y-292303D01*
X2960217Y-304800D01*
X2961132Y-317296D01*
X2963773Y-329539D01*
X2968142Y-341274D01*
X2974136Y-352247D01*
X2981655Y-362305D01*
X2990494Y-371144D01*
X3000552Y-378663D01*
X3011525Y-384657D01*
X3023260Y-389026D01*
X3035503Y-391668D01*
G37*
G36*
X4318000Y-392582D02*
G01*
X4330496Y-391668D01*
X4342739Y-389026D01*
X4354474Y-384657D01*
X4365447Y-378663D01*
X4375505Y-371144D01*
X4384344Y-362305D01*
X4391863Y-352247D01*
X4397857Y-341274D01*
X4402226Y-329539D01*
X4404868Y-317296D01*
X4405782Y-304800D01*
X4404868Y-292303D01*
X4402226Y-280060D01*
X4397857Y-268325D01*
X4391863Y-257352D01*
X4384344Y-247294D01*
X4375505Y-238455D01*
X4365447Y-230936D01*
X4354474Y-224942D01*
X4342739Y-220573D01*
X4330496Y-217932D01*
X4318000Y-217017D01*
X4305503Y-217932D01*
X4293260Y-220573D01*
X4281525Y-224942D01*
X4270552Y-230936D01*
X4260494Y-238455D01*
X4251655Y-247294D01*
X4244136Y-257352D01*
X4238142Y-268325D01*
X4233773Y-280060D01*
X4231132Y-292303D01*
X4230217Y-304800D01*
X4231132Y-317296D01*
X4233773Y-329539D01*
X4238142Y-341274D01*
X4244136Y-352247D01*
X4251655Y-362305D01*
X4260494Y-371144D01*
X4270552Y-378663D01*
X4281525Y-384657D01*
X4293260Y-389026D01*
X4305503Y-391668D01*
G37*

%LPD*%
D10*
X5686806Y-3521989D02*
G01*
X5686806Y-3267202D01*
X5663285Y-3243681D01*
X5613400Y-3243681D02*
G01*
X5663285Y-3243681D01*
X5511800Y-3243681D02*
G01*
X5461914Y-3243681D01*
X5461914Y-3243681D02*
G01*
X5378424Y-3327171D01*
X5378424Y-3513607D01*
X5386806Y-3521989D01*
X1422400Y-1126109D02*
G01*
X1390294Y-1094003D01*
X1342390Y-1094003D01*
X1422400Y-1173988D02*
G01*
X1422400Y-1126109D01*
X1422400Y-901877D02*
G01*
X1390269Y-934008D01*
X1342390Y-934008D01*
X1422400Y-853998D02*
G01*
X1422400Y-901877D01*
X1342390Y-934008D02*
G01*
X1342390Y-1013993D01*
X1342390Y-1013993D02*
G01*
X1342390Y-1094003D01*
X1342390Y-1094003D02*
G01*
X1294511Y-1094003D01*
X758393Y-1166393D02*
G01*
X724204Y-1166393D01*
X467309Y-909497D01*
X660400Y-716407D02*
G01*
X467309Y-909497D01*
X467309Y-909497D02*
G01*
X335407Y-1041400D01*
X308406Y-1041400D01*
X1249273Y-1166393D02*
G01*
X758393Y-1166393D01*
X1294511Y-1094003D02*
G01*
X1249273Y-1139240D01*
X1249273Y-1166393D01*
X2777007Y-2997200D02*
G01*
X2777007Y-2774315D01*
X5176799Y-3521989D02*
G01*
X5206796Y-3521989D01*
X5816803Y-3521989D02*
G01*
X5846800Y-3521989D01*
X5613400Y-3157118D02*
G01*
X5663285Y-3157118D01*
X5816803Y-3521989D02*
G01*
X5816803Y-3310636D01*
X5663285Y-3157118D01*
X5613400Y-3157118D02*
G01*
X5511800Y-3157118D01*
X5511800Y-3157118D02*
G01*
X5461914Y-3157118D01*
X5206796Y-3422929D02*
G01*
X5206796Y-3521989D01*
X2777007Y-2774315D02*
G01*
X2934436Y-2774315D01*
X2938729Y-2778607D01*
X2978835Y-2778607D01*
X3021431Y-2736011D01*
X3038195Y-2736011D01*
X1249273Y-1166393D02*
G01*
X1249273Y-1179906D01*
X1334389Y-1265021D01*
X5461914Y-3157118D02*
G01*
X5417464Y-3201568D01*
X5417464Y-3201568D02*
G01*
X5206796Y-3412236D01*
X5206796Y-3422929D01*
X5417464Y-3201568D02*
G01*
X5280583Y-3064687D01*
X5206796Y-3422929D02*
G01*
X4934661Y-3422929D01*
X5486806Y-3602354D02*
G01*
X5486908Y-3602456D01*
X5586704Y-3602456D01*
X5586806Y-3602354D01*
X5486806Y-3521989D02*
G01*
X5486806Y-3602354D01*
X5586806Y-3554577D02*
G01*
X5586806Y-3602354D01*
X5586806Y-3554577D02*
G01*
X5586806Y-3521989D01*
X5586806Y-3521989D02*
G01*
X5586806Y-3423361D01*
X5436793Y-3521989D02*
G01*
X5436793Y-3441598D01*
X5536793Y-3521989D02*
G01*
X5536793Y-3441598D01*
X5436793Y-3441598D02*
G01*
X5436920Y-3441471D01*
X5436920Y-3441471D02*
G01*
X5536666Y-3441471D01*
X5536793Y-3441598D01*
X5436920Y-3441471D02*
G01*
X5426811Y-3431362D01*
X5426811Y-3421710D01*
X5256809Y-3521989D02*
G01*
X5286806Y-3521989D01*
X5736793Y-3521964D02*
G01*
X5766790Y-3521964D01*
X5286806Y-3521989D02*
G01*
X5286806Y-3602354D01*
X5736793Y-3521964D02*
G01*
X5736793Y-3602354D01*
X5317718Y-3633266D02*
G01*
X5243601Y-3707384D01*
X4457928Y-3707384D01*
X4304385Y-3553840D01*
X5736793Y-3602354D02*
G01*
X5705881Y-3633266D01*
X5317718Y-3633266D01*
X5317718Y-3633266D02*
G01*
X5286806Y-3602354D01*
X1502410Y-1173988D02*
G01*
X1502410Y-1197914D01*
X1502410Y-1197914D02*
G01*
X1502410Y-1221867D01*
X1502410Y-1197914D02*
G01*
X1643507Y-1056817D01*
X1391996Y-1227607D02*
G01*
X1391996Y-1308760D01*
X1344472Y-1356283D01*
X1502410Y-1221867D02*
G01*
X1496669Y-1227607D01*
X1391996Y-1227607D01*
X1391996Y-1227607D02*
G01*
X1342390Y-1178001D01*
X1502410Y-1094003D02*
G01*
X1550289Y-1094003D01*
X3351174Y-2084832D02*
G01*
X2916097Y-2084832D01*
X1836826Y-1005560D01*
X1613230Y-1005560D01*
X1550289Y-1068501D01*
X1550289Y-1094003D01*
X1550289Y-1013993D02*
G01*
X1590395Y-973886D01*
X2317115Y-973886D01*
X3407486Y-2064257D01*
X3407486Y-2123440D01*
X1502410Y-1013993D02*
G01*
X1550289Y-1013993D01*
X1502410Y-853998D02*
G01*
X1594053Y-853998D01*
X1342390Y-853998D02*
G01*
X1342390Y-806119D01*
X1342390Y-806119D02*
G01*
X1343228Y-805281D01*
X1922449Y-805281D01*
X3826992Y-2997200D02*
G01*
X4099890Y-2997200D01*
X4099890Y-2997200D02*
G01*
X4118483Y-2997200D01*
X660400Y-1366393D02*
G01*
X589051Y-1366393D01*
X308406Y-1166393D02*
G01*
X308406Y-1530197D01*
X367588Y-1589379D01*
X334416Y-742569D02*
G01*
X380238Y-742569D01*
X406400Y-716407D01*
D11*
G01*
X5613400Y-3157117D03*
D12*
G01*
X5613400Y-3243681D03*
D11*
G01*
X5511800Y-3243682D03*
D12*
G01*
X5511800Y-3157118D03*
D13*
G01*
X5846800Y-3521989D03*
G01*
X5816803Y-3521989D03*
G01*
X5766790Y-3521964D03*
D14*
G01*
X5736799Y-3521960D03*
D13*
G01*
X5686806Y-3521989D03*
G01*
X5636768Y-3521887D03*
G01*
X5586806Y-3521989D03*
G01*
X5536793Y-3521989D03*
G01*
X5486806Y-3521989D03*
G01*
X5436793Y-3521989D03*
G01*
X5386806Y-3521989D03*
G01*
X5336794Y-3521887D03*
G01*
X5286806Y-3521989D03*
G01*
X5256809Y-3521989D03*
G01*
X5206796Y-3521989D03*
G01*
X5176799Y-3521989D03*
D15*
G01*
X3826992Y-2997200D03*
G01*
X2777007Y-2997200D03*
G36*
X233400Y-901395D02*
G01*
X233502Y-899591D01*
X233832Y-897813D01*
X234365Y-896086D01*
X235127Y-894435D01*
X236067Y-892886D01*
X237185Y-891463D01*
X238455Y-890168D01*
X239877Y-889050D01*
X241427Y-888111D01*
X243078Y-887374D01*
X244805Y-886841D01*
X246583Y-886510D01*
X248412Y-886409D01*
X368401Y-886409D01*
X370205Y-886510D01*
X371983Y-886841D01*
X373710Y-887374D01*
X375361Y-888111D01*
X376910Y-889050D01*
X378358Y-890168D01*
X379628Y-891463D01*
X380746Y-892886D01*
X381685Y-894435D01*
X382422Y-896086D01*
X382955Y-897813D01*
X383286Y-899591D01*
X383387Y-901395D01*
X383387Y-931392D01*
X383286Y-933196D01*
X382955Y-934999D01*
X382422Y-936726D01*
X381685Y-938377D01*
X380746Y-939927D01*
X379628Y-941349D01*
X378358Y-942619D01*
X376910Y-943737D01*
X375361Y-944676D01*
X373710Y-945413D01*
X371983Y-945972D01*
X370205Y-946302D01*
X368401Y-946403D01*
X248412Y-946403D01*
X246583Y-946302D01*
X244805Y-945972D01*
X243078Y-945413D01*
X241427Y-944676D01*
X239877Y-943737D01*
X238455Y-942619D01*
X237185Y-941349D01*
X236067Y-939927D01*
X235127Y-938377D01*
X234365Y-936726D01*
X233832Y-934999D01*
X233502Y-933196D01*
X233400Y-931392D01*
G37*
G36*
X233400Y-1026388D02*
G01*
X233502Y-1024585D01*
X233832Y-1022807D01*
X234365Y-1021080D01*
X235127Y-1019428D01*
X236067Y-1017879D01*
X237185Y-1016457D01*
X238455Y-1015161D01*
X239877Y-1014044D01*
X241427Y-1013129D01*
X243078Y-1012367D01*
X244805Y-1011834D01*
X246583Y-1011504D01*
X248412Y-1011402D01*
X368401Y-1011402D01*
X370205Y-1011504D01*
X371983Y-1011834D01*
X373710Y-1012367D01*
X375361Y-1013129D01*
X376910Y-1014044D01*
X378358Y-1015161D01*
X379628Y-1016457D01*
X380746Y-1017879D01*
X381685Y-1019428D01*
X382422Y-1021080D01*
X382955Y-1022807D01*
X383286Y-1024585D01*
X383387Y-1026388D01*
X383387Y-1056411D01*
X383286Y-1058214D01*
X382955Y-1059992D01*
X382422Y-1061720D01*
X381685Y-1063371D01*
X380746Y-1064920D01*
X379628Y-1066342D01*
X378358Y-1067638D01*
X376910Y-1068755D01*
X375361Y-1069670D01*
X373710Y-1070432D01*
X371983Y-1070965D01*
X370205Y-1071295D01*
X368401Y-1071397D01*
X248412Y-1071397D01*
X246583Y-1071295D01*
X244805Y-1070965D01*
X243078Y-1070432D01*
X241427Y-1069670D01*
X239877Y-1068755D01*
X238455Y-1067638D01*
X237185Y-1066342D01*
X236067Y-1064920D01*
X235127Y-1063371D01*
X234365Y-1061720D01*
X233832Y-1059992D01*
X233502Y-1058214D01*
X233400Y-1056411D01*
G37*
G36*
X233400Y-1151407D02*
G01*
X233502Y-1149604D01*
X233832Y-1147800D01*
X234365Y-1146073D01*
X235127Y-1144422D01*
X236067Y-1142873D01*
X237185Y-1141450D01*
X238455Y-1140180D01*
X239877Y-1139063D01*
X241427Y-1138123D01*
X243078Y-1137386D01*
X244805Y-1136827D01*
X246583Y-1136497D01*
X248412Y-1136396D01*
X368401Y-1136396D01*
X370205Y-1136497D01*
X371983Y-1136827D01*
X373710Y-1137386D01*
X375361Y-1138123D01*
X376910Y-1139063D01*
X378358Y-1140180D01*
X379628Y-1141450D01*
X380746Y-1142873D01*
X381685Y-1144422D01*
X382422Y-1146073D01*
X382955Y-1147800D01*
X383286Y-1149604D01*
X383387Y-1151407D01*
X383387Y-1181404D01*
X383286Y-1183208D01*
X382955Y-1184986D01*
X382422Y-1186713D01*
X381685Y-1188364D01*
X380746Y-1189913D01*
X379628Y-1191336D01*
X378358Y-1192631D01*
X376910Y-1193749D01*
X375361Y-1194689D01*
X373710Y-1195425D01*
X371983Y-1195959D01*
X370205Y-1196289D01*
X368401Y-1196390D01*
X248412Y-1196390D01*
X246583Y-1196289D01*
X244805Y-1195959D01*
X243078Y-1195425D01*
X241427Y-1194689D01*
X239877Y-1193749D01*
X238455Y-1192631D01*
X237185Y-1191336D01*
X236067Y-1189913D01*
X235127Y-1188364D01*
X234365Y-1186713D01*
X233832Y-1184986D01*
X233502Y-1183208D01*
X233400Y-1181404D01*
G37*
G36*
X421411Y-1291412D02*
G01*
X423214Y-1291513D01*
X424992Y-1291844D01*
X426720Y-1292377D01*
X428371Y-1293114D01*
X429920Y-1294053D01*
X431342Y-1295171D01*
X432638Y-1296441D01*
X433755Y-1297889D01*
X434670Y-1299438D01*
X435432Y-1301089D01*
X435965Y-1302816D01*
X436295Y-1304594D01*
X436397Y-1306398D01*
X436397Y-1426387D01*
X436295Y-1428216D01*
X435965Y-1429994D01*
X435432Y-1431721D01*
X434670Y-1433372D01*
X433755Y-1434922D01*
X432638Y-1436344D01*
X431342Y-1437614D01*
X429920Y-1438732D01*
X428371Y-1439672D01*
X426720Y-1440434D01*
X424992Y-1440967D01*
X423214Y-1441297D01*
X421411Y-1441399D01*
X391388Y-1441399D01*
X389585Y-1441297D01*
X387807Y-1440967D01*
X386080Y-1440434D01*
X384429Y-1439672D01*
X382879Y-1438732D01*
X381457Y-1437614D01*
X380161Y-1436344D01*
X379044Y-1434922D01*
X378129Y-1433372D01*
X377367Y-1431721D01*
X376834Y-1429994D01*
X376504Y-1428216D01*
X376402Y-1426387D01*
X376402Y-1306398D01*
X376504Y-1304594D01*
X376834Y-1302816D01*
X377367Y-1301089D01*
X378129Y-1299438D01*
X379044Y-1297889D01*
X380161Y-1296441D01*
X381457Y-1295171D01*
X382879Y-1294053D01*
X384429Y-1293114D01*
X386080Y-1292377D01*
X387807Y-1291844D01*
X389585Y-1291513D01*
X391388Y-1291412D01*
G37*
G36*
X675411Y-1291412D02*
G01*
X677214Y-1291513D01*
X678992Y-1291844D01*
X680720Y-1292377D01*
X682371Y-1293114D01*
X683920Y-1294053D01*
X685342Y-1295171D01*
X686638Y-1296441D01*
X687755Y-1297889D01*
X688670Y-1299438D01*
X689432Y-1301089D01*
X689965Y-1302816D01*
X690295Y-1304594D01*
X690397Y-1306398D01*
X690397Y-1426387D01*
X690295Y-1428216D01*
X689965Y-1429994D01*
X689432Y-1431721D01*
X688670Y-1433372D01*
X687755Y-1434922D01*
X686638Y-1436344D01*
X685342Y-1437614D01*
X683920Y-1438732D01*
X682371Y-1439672D01*
X680720Y-1440434D01*
X678992Y-1440967D01*
X677214Y-1441297D01*
X675411Y-1441399D01*
X645388Y-1441399D01*
X643585Y-1441297D01*
X641807Y-1440967D01*
X640080Y-1440434D01*
X638429Y-1439672D01*
X636879Y-1438732D01*
X635457Y-1437614D01*
X634161Y-1436344D01*
X633044Y-1434922D01*
X632129Y-1433372D01*
X631367Y-1431721D01*
X630834Y-1429994D01*
X630504Y-1428216D01*
X630402Y-1426387D01*
X630402Y-1306398D01*
X630504Y-1304594D01*
X630834Y-1302816D01*
X631367Y-1301089D01*
X632129Y-1299438D01*
X633044Y-1297889D01*
X634161Y-1296441D01*
X635457Y-1295171D01*
X636879Y-1294053D01*
X638429Y-1293114D01*
X640080Y-1292377D01*
X641807Y-1291844D01*
X643585Y-1291513D01*
X645388Y-1291412D01*
G37*
G36*
X833399Y-1181404D02*
G01*
X833297Y-1183208D01*
X832967Y-1184986D01*
X832434Y-1186713D01*
X831672Y-1188364D01*
X830732Y-1189913D01*
X829614Y-1191336D01*
X828344Y-1192631D01*
X826922Y-1193749D01*
X825373Y-1194689D01*
X823721Y-1195425D01*
X821994Y-1195959D01*
X820216Y-1196289D01*
X818388Y-1196390D01*
X698398Y-1196390D01*
X696595Y-1196289D01*
X694817Y-1195959D01*
X693089Y-1195425D01*
X691438Y-1194689D01*
X689889Y-1193749D01*
X688441Y-1192631D01*
X687171Y-1191336D01*
X686054Y-1189913D01*
X685114Y-1188364D01*
X684377Y-1186713D01*
X683844Y-1184986D01*
X683514Y-1183208D01*
X683412Y-1181404D01*
X683412Y-1151407D01*
X683514Y-1149604D01*
X683844Y-1147800D01*
X684377Y-1146073D01*
X685114Y-1144422D01*
X686054Y-1142873D01*
X687171Y-1141450D01*
X688441Y-1140180D01*
X689889Y-1139063D01*
X691438Y-1138123D01*
X693089Y-1137386D01*
X694817Y-1136827D01*
X696595Y-1136497D01*
X698398Y-1136396D01*
X818388Y-1136396D01*
X820216Y-1136497D01*
X821994Y-1136827D01*
X823721Y-1137386D01*
X825373Y-1138123D01*
X826922Y-1139063D01*
X828344Y-1140180D01*
X829614Y-1141450D01*
X830732Y-1142873D01*
X831672Y-1144422D01*
X832434Y-1146073D01*
X832967Y-1147800D01*
X833297Y-1149604D01*
X833399Y-1151407D01*
G37*
G36*
X833399Y-1056411D02*
G01*
X833297Y-1058214D01*
X832967Y-1059992D01*
X832434Y-1061720D01*
X831672Y-1063371D01*
X830732Y-1064920D01*
X829614Y-1066342D01*
X828344Y-1067638D01*
X826922Y-1068755D01*
X825373Y-1069670D01*
X823721Y-1070432D01*
X821994Y-1070965D01*
X820216Y-1071295D01*
X818388Y-1071397D01*
X698398Y-1071397D01*
X696595Y-1071295D01*
X694817Y-1070965D01*
X693089Y-1070432D01*
X691438Y-1069670D01*
X689889Y-1068755D01*
X688441Y-1067638D01*
X687171Y-1066342D01*
X686054Y-1064920D01*
X685114Y-1063371D01*
X684377Y-1061720D01*
X683844Y-1059992D01*
X683514Y-1058214D01*
X683412Y-1056411D01*
X683412Y-1026388D01*
X683514Y-1024585D01*
X683844Y-1022807D01*
X684377Y-1021080D01*
X685114Y-1019428D01*
X686054Y-1017879D01*
X687171Y-1016457D01*
X688441Y-1015161D01*
X689889Y-1014044D01*
X691438Y-1013129D01*
X693089Y-1012367D01*
X694817Y-1011834D01*
X696595Y-1011504D01*
X698398Y-1011402D01*
X818388Y-1011402D01*
X820216Y-1011504D01*
X821994Y-1011834D01*
X823721Y-1012367D01*
X825373Y-1013129D01*
X826922Y-1014044D01*
X828344Y-1015161D01*
X829614Y-1016457D01*
X830732Y-1017879D01*
X831672Y-1019428D01*
X832434Y-1021080D01*
X832967Y-1022807D01*
X833297Y-1024585D01*
X833399Y-1026388D01*
G37*
G36*
X833399Y-931392D02*
G01*
X833297Y-933196D01*
X832967Y-934999D01*
X832434Y-936726D01*
X831672Y-938377D01*
X830732Y-939927D01*
X829614Y-941349D01*
X828344Y-942619D01*
X826922Y-943737D01*
X825373Y-944676D01*
X823721Y-945413D01*
X821994Y-945972D01*
X820216Y-946302D01*
X818388Y-946403D01*
X698398Y-946403D01*
X696595Y-946302D01*
X694817Y-945972D01*
X693089Y-945413D01*
X691438Y-944676D01*
X689889Y-943737D01*
X688441Y-942619D01*
X687171Y-941349D01*
X686054Y-939927D01*
X685114Y-938377D01*
X684377Y-936726D01*
X683844Y-934999D01*
X683514Y-933196D01*
X683412Y-931392D01*
X683412Y-901395D01*
X683514Y-899591D01*
X683844Y-897813D01*
X684377Y-896086D01*
X685114Y-894435D01*
X686054Y-892886D01*
X687171Y-891463D01*
X688441Y-890168D01*
X689889Y-889050D01*
X691438Y-888111D01*
X693089Y-887374D01*
X694817Y-886841D01*
X696595Y-886510D01*
X698398Y-886409D01*
X818388Y-886409D01*
X820216Y-886510D01*
X821994Y-886841D01*
X823721Y-887374D01*
X825373Y-888111D01*
X826922Y-889050D01*
X828344Y-890168D01*
X829614Y-891463D01*
X830732Y-892886D01*
X831672Y-894435D01*
X832434Y-896086D01*
X832967Y-897813D01*
X833297Y-899591D01*
X833399Y-901395D01*
G37*
G36*
X675411Y-641400D02*
G01*
X677214Y-641502D01*
X678992Y-641832D01*
X680720Y-642366D01*
X682371Y-643128D01*
X683920Y-644067D01*
X685342Y-645185D01*
X686638Y-646455D01*
X687755Y-647877D01*
X688670Y-649427D01*
X689432Y-651078D01*
X689965Y-652805D01*
X690295Y-654583D01*
X690397Y-656412D01*
X690397Y-776401D01*
X690295Y-778205D01*
X689965Y-779983D01*
X689432Y-781710D01*
X688670Y-783361D01*
X687755Y-784910D01*
X686638Y-786358D01*
X685342Y-787628D01*
X683920Y-788746D01*
X682371Y-789686D01*
X680720Y-790422D01*
X678992Y-790956D01*
X677214Y-791286D01*
X675411Y-791387D01*
X645388Y-791387D01*
X643585Y-791286D01*
X641807Y-790956D01*
X640080Y-790422D01*
X638429Y-789686D01*
X636879Y-788746D01*
X635457Y-787628D01*
X634161Y-786358D01*
X633044Y-784910D01*
X632129Y-783361D01*
X631367Y-781710D01*
X630834Y-779983D01*
X630504Y-778205D01*
X630402Y-776401D01*
X630402Y-656412D01*
X630504Y-654583D01*
X630834Y-652805D01*
X631367Y-651078D01*
X632129Y-649427D01*
X633044Y-647877D01*
X634161Y-646455D01*
X635457Y-645185D01*
X636879Y-644067D01*
X638429Y-643128D01*
X640080Y-642366D01*
X641807Y-641832D01*
X643585Y-641502D01*
X645388Y-641400D01*
G37*
G36*
X421411Y-641400D02*
G01*
X423214Y-641502D01*
X424992Y-641832D01*
X426720Y-642366D01*
X428371Y-643128D01*
X429920Y-644067D01*
X431342Y-645185D01*
X432638Y-646455D01*
X433755Y-647877D01*
X434670Y-649427D01*
X435432Y-651078D01*
X435965Y-652805D01*
X436295Y-654583D01*
X436397Y-656412D01*
X436397Y-776401D01*
X436295Y-778205D01*
X435965Y-779983D01*
X435432Y-781710D01*
X434670Y-783361D01*
X433755Y-784910D01*
X432638Y-786358D01*
X431342Y-787628D01*
X429920Y-788746D01*
X428371Y-789686D01*
X426720Y-790422D01*
X424992Y-790956D01*
X423214Y-791286D01*
X421411Y-791387D01*
X391388Y-791387D01*
X389585Y-791286D01*
X387807Y-790956D01*
X386080Y-790422D01*
X384429Y-789686D01*
X382879Y-788746D01*
X381457Y-787628D01*
X380161Y-786358D01*
X379044Y-784910D01*
X378129Y-783361D01*
X377367Y-781710D01*
X376834Y-779983D01*
X376504Y-778205D01*
X376402Y-776401D01*
X376402Y-656412D01*
X376504Y-654583D01*
X376834Y-652805D01*
X377367Y-651078D01*
X378129Y-649427D01*
X379044Y-647877D01*
X380161Y-646455D01*
X381457Y-645185D01*
X382879Y-644067D01*
X384429Y-643128D01*
X386080Y-642366D01*
X387807Y-641832D01*
X389585Y-641502D01*
X391388Y-641400D01*
G37*
D16*
G01*
X1342390Y-1178001D03*
D17*
G01*
X1342390Y-1094003D03*
G01*
X1342390Y-1013993D03*
G01*
X1342390Y-934008D03*
G01*
X1342390Y-853998D03*
G01*
X1422400Y-853998D03*
G01*
X1502410Y-853998D03*
G01*
X1502410Y-934008D03*
G01*
X1502410Y-1013993D03*
G01*
X1502410Y-1094003D03*
G01*
X1502410Y-1173988D03*
G01*
X1422400Y-1173988D03*
D18*
G01*
X5079796Y-3578504D03*
G01*
X5943803Y-3578504D03*
D19*
G01*
X5943803Y-3996512D03*
G01*
X5079796Y-3996512D03*
D20*
G01*
X2286000Y-304800D03*
D21*
G01*
X2286000Y-558800D03*
G01*
X2286000Y-812800D03*
G01*
X2286000Y-1066800D03*
G01*
X2286000Y-1320800D03*
G01*
X2286000Y-1574800D03*
G01*
X3048000Y-1574800D03*
G01*
X3048000Y-1320800D03*
G01*
X3048000Y-1066800D03*
G01*
X3048000Y-812800D03*
G01*
X3048000Y-558800D03*
G01*
X3048000Y-304800D03*
D20*
G01*
X3556000Y-304800D03*
D21*
G01*
X3556000Y-558800D03*
G01*
X3556000Y-812800D03*
G01*
X3556000Y-1066800D03*
G01*
X3556000Y-1320800D03*
G01*
X3556000Y-1574800D03*
G01*
X4318000Y-1574800D03*
G01*
X4318000Y-1320800D03*
G01*
X4318000Y-1066800D03*
G01*
X4318000Y-812800D03*
G01*
X4318000Y-558800D03*
G01*
X4318000Y-304800D03*
D22*
G01*
X4746294Y-1897938D03*
G01*
X5612282Y-1482445D03*
G01*
X5686145Y-1306855D03*
G01*
X4799888Y-2334183D03*
G01*
X5161737Y-1189177D03*
G01*
X1083767Y-1426387D03*
G01*
X2506370Y-1045006D03*
G01*
X909650Y-1214805D03*
G01*
X956411Y-1668170D03*
G01*
X1866569Y-1518259D03*
G01*
X2195830Y-1179322D03*
G01*
X334416Y-742569D03*
G01*
X367588Y-1589379D03*
G01*
X589051Y-1366393D03*
G01*
X4118483Y-2997200D03*
G01*
X2825521Y-1753285D03*
G01*
X2881249Y-1953691D03*
G01*
X3352139Y-1830781D03*
G01*
X2755569Y-1564741D03*
G01*
X4058818Y-1760778D03*
G01*
X3237077Y-1760677D03*
G01*
X610209Y-1746631D03*
G01*
X1922449Y-805281D03*
G01*
X2845104Y-839216D03*
G01*
X1594053Y-853998D03*
G01*
X3407486Y-2123440D03*
G01*
X3351174Y-2084832D03*
G01*
X997661Y-1263192D03*
G01*
X2990773Y-1411046D03*
G01*
X4183049Y-1273810D03*
G01*
X1271930Y-1795983D03*
G01*
X2888259Y-2437993D03*
G01*
X5752109Y-1148283D03*
G01*
X4608957Y-2357247D03*
G01*
X2921406Y-2357247D03*
G01*
X887399Y-2538552D03*
G01*
X2423591Y-2759151D03*
G01*
X2958769Y-2730220D03*
G01*
X4829479Y-2658770D03*
G01*
X2023160Y-2835452D03*
G01*
X2951810Y-3388385D03*
G01*
X5053838Y-3361080D03*
G01*
X4936058Y-3214903D03*
G01*
X5281752Y-3214903D03*
G01*
X1344472Y-1356283D03*
G01*
X1643507Y-1056817D03*
G01*
X2759760Y-2014728D03*
G01*
X3987800Y-1873275D03*
G01*
X3107842Y-1917217D03*
G01*
X4304385Y-3553840D03*
G01*
X2254199Y-2220163D03*
G01*
X4035907Y-3328695D03*
G01*
X5426811Y-3421710D03*
G01*
X2253513Y-2149424D03*
G01*
X3775024Y-3271748D03*
G01*
X5586806Y-3423361D03*
G01*
X2081199Y-2090775D03*
G01*
X5280583Y-3064687D03*
G01*
X4934661Y-3422929D03*
G01*
X3038195Y-2736011D03*
G01*
X1334389Y-1265021D03*
M02*
