G04 Layer: BottomLayer*
G04 EasyEDA v6.5.39, 2023-12-28 21:15:06*
G04 35ff57de02ea422eb169f7c644e1f47a,fc83978cdc934b7da63e149a84a413c2,10*
G04 Gerber Generator version 0.2*
G04 Scale: 100 percent, Rotated: No, Reflected: No *
G04 Dimensions in millimeters *
G04 leading zeros omitted , absolute positions ,4 integer and 5 decimal *
%FSLAX45Y45*%
%MOMM*%

%AMMACRO1*21,1,$1,$2,0,0,$3*%
%AMMACRO2*4,1,4,-0.4001,0.2,-0.4001,-0.2,0.4001,-0.2,0.4001,0.2,-0.4001,0.2,0*%
%AMMACRO3*4,1,4,-0.4001,0.1999,-0.4001,-0.1999,0.4001,-0.1999,0.4001,0.1999,-0.4001,0.1999,0*%
%AMMACRO4*4,1,4,-0.4001,0.2,-0.4001,-0.2,0.4,-0.2,0.4,0.2,-0.4001,0.2,0*%
%AMMACRO5*4,1,4,-0.4001,0.1999,-0.4001,-0.1999,0.4,-0.1999,0.4,0.1999,-0.4001,0.1999,0*%
%ADD10C,0.1524*%
%ADD11MACRO1,0.54X0.5656X-90.0000*%
%ADD12MACRO1,0.5657X0.54X0.0000*%
%ADD13R,0.5400X0.5657*%
%ADD14MACRO1,0.54X0.5656X0.0000*%
%ADD15MACRO1,0.8001X0.8001X-90.0000*%
%ADD16MACRO1,0.8001X0.4X-90.0000*%
%ADD17MACRO1,0.8001X0.4001X-90.0000*%
%ADD18MACRO2*%
%ADD19MACRO3*%
%ADD20MACRO4*%
%ADD21MACRO5*%
%ADD22MACRO1,1.1999X1.1999X-90.0000*%
%ADD23MACRO1,0.5657X0.54X-90.0000*%
%ADD24MACRO1,0.8X0.864X-90.0000*%
%ADD25MACRO1,0.7X0.3X0.0000*%
%ADD26MACRO1,1.3099X0.5499X-90.0000*%
%ADD27MACRO1,1.4999X0.65X0.0000*%
%ADD28MACRO1,0.95X0.4501X0.0000*%
%ADD29MACRO1,4.35X3.4501X-90.0000*%
%ADD30MACRO1,0.54X0.5656X90.0000*%
%ADD31MACRO1,0.5657X0.54X90.0000*%
%ADD32MACRO1,0.5999X0.522X90.0000*%
%ADD33MACRO1,1.1999X0.65X-90.0000*%
%ADD34MACRO1,1.1999X0.65X0.0000*%
%ADD35C,1.6241*%
%ADD36O,2.0999958X1.0999978000000001*%
%ADD37O,1.7999964X1.0999978000000001*%
%ADD38C,0.6096*%
%ADD39C,0.0187*%

%LPD*%
G36*
X4033520Y-1101242D02*
G01*
X4029760Y-1100429D01*
X4026611Y-1098296D01*
X4004360Y-1076045D01*
X3998518Y-1071270D01*
X3992270Y-1068120D01*
X3985412Y-1066292D01*
X3979875Y-1065834D01*
X3960926Y-1065834D01*
X3956862Y-1064971D01*
X3953459Y-1062532D01*
X3951325Y-1058926D01*
X3950817Y-1054811D01*
X3951579Y-1045921D01*
X3950715Y-1036116D01*
X3948176Y-1026617D01*
X3944061Y-1017727D01*
X3938422Y-1009650D01*
X3931462Y-1002741D01*
X3923436Y-997102D01*
X3914495Y-992936D01*
X3905046Y-990396D01*
X3895242Y-989533D01*
X3891737Y-989837D01*
X3887368Y-989279D01*
X3883660Y-986891D01*
X3853230Y-956462D01*
X3847388Y-951737D01*
X3841140Y-948537D01*
X3834282Y-946708D01*
X3828745Y-946302D01*
X2572359Y-946302D01*
X2568143Y-945387D01*
X2564688Y-942797D01*
X2562606Y-939037D01*
X2562250Y-934770D01*
X2563723Y-930706D01*
X2566670Y-926033D01*
X2568600Y-920546D01*
X2569311Y-914247D01*
X2569311Y-901141D01*
X2529738Y-901141D01*
X2529738Y-923747D01*
X2528976Y-927608D01*
X2526792Y-930910D01*
X2523490Y-933094D01*
X2519578Y-933907D01*
X2487218Y-933907D01*
X2483307Y-933094D01*
X2480005Y-930910D01*
X2477820Y-927608D01*
X2477058Y-923747D01*
X2477058Y-901141D01*
X2454452Y-901141D01*
X2450592Y-900379D01*
X2447290Y-898194D01*
X2445054Y-894892D01*
X2444292Y-890981D01*
X2444292Y-858621D01*
X2445054Y-854710D01*
X2447290Y-851408D01*
X2450592Y-849223D01*
X2454452Y-848461D01*
X2479852Y-848461D01*
X2483205Y-846124D01*
X2487218Y-845312D01*
X2519578Y-845312D01*
X2523591Y-846124D01*
X2526944Y-848461D01*
X2572105Y-848461D01*
X2575458Y-846124D01*
X2579471Y-845312D01*
X2684830Y-845312D01*
X2688031Y-845819D01*
X2690926Y-847344D01*
X2693162Y-849630D01*
X2699054Y-858062D01*
X2705963Y-864971D01*
X2714040Y-870610D01*
X2722930Y-874776D01*
X2732430Y-877316D01*
X2742234Y-878179D01*
X2751988Y-877316D01*
X2761488Y-874776D01*
X2770378Y-870610D01*
X2778455Y-864971D01*
X2785364Y-858062D01*
X2791002Y-849985D01*
X2795168Y-841095D01*
X2797708Y-831596D01*
X2798572Y-821791D01*
X2797759Y-812596D01*
X2798267Y-808431D01*
X2800400Y-804824D01*
X2803804Y-802386D01*
X2807868Y-801573D01*
X3883914Y-801573D01*
X3887774Y-802335D01*
X3891076Y-804519D01*
X3893312Y-807821D01*
X3894074Y-811733D01*
X3893312Y-815594D01*
X3891076Y-818896D01*
X3883914Y-826058D01*
X3878275Y-834085D01*
X3874160Y-843026D01*
X3871620Y-852474D01*
X3870756Y-862279D01*
X3871620Y-872083D01*
X3874160Y-881532D01*
X3878275Y-890473D01*
X3883914Y-898499D01*
X3890873Y-905459D01*
X3898900Y-911098D01*
X3907840Y-915212D01*
X3917289Y-917752D01*
X3927094Y-918616D01*
X3936898Y-917752D01*
X3946347Y-915212D01*
X3955287Y-911098D01*
X3963314Y-905459D01*
X3970274Y-898499D01*
X3975912Y-890473D01*
X3980027Y-881532D01*
X3982567Y-872083D01*
X3983431Y-862279D01*
X3983126Y-858774D01*
X3983736Y-854405D01*
X3986072Y-850696D01*
X3994861Y-841908D01*
X3998163Y-839724D01*
X4002074Y-838962D01*
X4115308Y-838962D01*
X4119168Y-839724D01*
X4122470Y-841908D01*
X4124706Y-845210D01*
X4125468Y-849121D01*
X4124706Y-852982D01*
X4122470Y-856284D01*
X4107434Y-871321D01*
X4104182Y-873506D01*
X4100271Y-874268D01*
X4076547Y-874268D01*
X4070248Y-874979D01*
X4064762Y-876909D01*
X4059885Y-880008D01*
X4055770Y-884072D01*
X4052722Y-889000D01*
X4050792Y-894435D01*
X4050080Y-900734D01*
X4050080Y-929640D01*
X4050792Y-935939D01*
X4051655Y-940206D01*
X4050792Y-944473D01*
X4050080Y-951331D01*
X4058462Y-951331D01*
X4061307Y-951737D01*
X4064762Y-953465D01*
X4070908Y-955598D01*
X4074464Y-957732D01*
X4076852Y-961136D01*
X4077715Y-965200D01*
X4076852Y-969264D01*
X4074464Y-972667D01*
X4070908Y-974801D01*
X4064762Y-976934D01*
X4061307Y-978662D01*
X4058462Y-979068D01*
X4050080Y-979068D01*
X4050792Y-985926D01*
X4051655Y-990193D01*
X4050792Y-994460D01*
X4050080Y-1000760D01*
X4050080Y-1029665D01*
X4050792Y-1035964D01*
X4052722Y-1041400D01*
X4055821Y-1046378D01*
X4057243Y-1050086D01*
X4057142Y-1053998D01*
X4055567Y-1057605D01*
X4051503Y-1063396D01*
X4047337Y-1072337D01*
X4044797Y-1081786D01*
X4043934Y-1091996D01*
X4042867Y-1095654D01*
X4040530Y-1098702D01*
X4037279Y-1100632D01*
G37*

%LPD*%
G36*
X5299760Y-1133754D02*
G01*
X5295849Y-1132992D01*
X5292598Y-1130757D01*
X5268772Y-1106982D01*
X5262829Y-1102156D01*
X5258460Y-1099769D01*
X5253380Y-1098092D01*
X5250586Y-1096721D01*
X5248351Y-1094536D01*
X5246928Y-1091793D01*
X5245100Y-1086612D01*
X5242001Y-1081684D01*
X5237886Y-1077620D01*
X5234432Y-1075385D01*
X5231485Y-1072591D01*
X5229860Y-1068832D01*
X5229860Y-1064768D01*
X5231485Y-1061008D01*
X5234432Y-1058214D01*
X5237886Y-1055979D01*
X5242001Y-1051915D01*
X5245100Y-1046987D01*
X5246979Y-1041552D01*
X5247690Y-1035253D01*
X5247690Y-971346D01*
X5246979Y-965047D01*
X5245100Y-959612D01*
X5242001Y-954684D01*
X5237886Y-950620D01*
X5234432Y-948385D01*
X5231485Y-945591D01*
X5229860Y-941832D01*
X5229860Y-937768D01*
X5231485Y-934008D01*
X5234432Y-931214D01*
X5238445Y-928674D01*
X5241594Y-927353D01*
X5244998Y-927150D01*
X5248300Y-928116D01*
X5251043Y-930097D01*
X5306923Y-985977D01*
X5309158Y-989279D01*
X5309920Y-993140D01*
X5309920Y-1123594D01*
X5309158Y-1127455D01*
X5306923Y-1130757D01*
X5303672Y-1132992D01*
G37*

%LPD*%
G36*
X4811369Y-1141171D02*
G01*
X4807407Y-1140460D01*
X4804054Y-1138224D01*
X4772812Y-1106982D01*
X4766970Y-1102207D01*
X4760722Y-1099058D01*
X4753864Y-1097229D01*
X4748326Y-1096772D01*
X4715865Y-1096772D01*
X4711801Y-1095908D01*
X4708398Y-1093520D01*
X4706264Y-1089964D01*
X4705096Y-1086612D01*
X4701997Y-1081684D01*
X4697882Y-1077620D01*
X4694428Y-1075385D01*
X4691481Y-1072591D01*
X4689856Y-1068832D01*
X4689856Y-1064768D01*
X4691481Y-1061008D01*
X4694428Y-1058214D01*
X4697882Y-1055979D01*
X4701997Y-1051915D01*
X4705096Y-1046987D01*
X4706975Y-1041552D01*
X4707686Y-1035253D01*
X4707686Y-971346D01*
X4706975Y-965047D01*
X4705096Y-959612D01*
X4701997Y-954684D01*
X4697882Y-950620D01*
X4694428Y-948385D01*
X4691481Y-945591D01*
X4689856Y-941832D01*
X4689856Y-937768D01*
X4691481Y-934008D01*
X4694428Y-931214D01*
X4697882Y-928979D01*
X4701997Y-924915D01*
X4705096Y-919987D01*
X4706975Y-914552D01*
X4707686Y-908253D01*
X4707686Y-898906D01*
X4650638Y-898906D01*
X4650638Y-934719D01*
X4649876Y-938631D01*
X4647692Y-941933D01*
X4644390Y-944118D01*
X4640478Y-944880D01*
X4573117Y-944880D01*
X4569206Y-944118D01*
X4565904Y-941933D01*
X4563719Y-938631D01*
X4562957Y-934719D01*
X4562957Y-898906D01*
X4505909Y-898906D01*
X4505909Y-908253D01*
X4506620Y-914552D01*
X4508500Y-919987D01*
X4511598Y-924915D01*
X4515713Y-928979D01*
X4519168Y-931214D01*
X4522114Y-934008D01*
X4523740Y-937768D01*
X4523740Y-941832D01*
X4522114Y-945591D01*
X4519168Y-948385D01*
X4515713Y-950620D01*
X4511598Y-954684D01*
X4508500Y-959612D01*
X4506671Y-964793D01*
X4505248Y-967536D01*
X4503013Y-969721D01*
X4500219Y-971143D01*
X4495342Y-972718D01*
X4489145Y-976274D01*
X4485843Y-979119D01*
X4481931Y-981202D01*
X4477512Y-981405D01*
X4473448Y-979728D01*
X4470450Y-976477D01*
X4466488Y-961898D01*
X4462322Y-953008D01*
X4456684Y-944930D01*
X4449775Y-938021D01*
X4441698Y-932383D01*
X4432808Y-928217D01*
X4423308Y-925677D01*
X4413554Y-924814D01*
X4410049Y-925118D01*
X4405680Y-924560D01*
X4401972Y-922172D01*
X4371644Y-891844D01*
X4365752Y-887120D01*
X4359554Y-883919D01*
X4352645Y-882091D01*
X4347159Y-881684D01*
X4327702Y-881684D01*
X4324908Y-881278D01*
X4322318Y-880110D01*
X4317238Y-876909D01*
X4311751Y-874979D01*
X4305452Y-874268D01*
X4281728Y-874268D01*
X4277817Y-873506D01*
X4274566Y-871321D01*
X4259529Y-856284D01*
X4257294Y-852982D01*
X4256532Y-849121D01*
X4257294Y-845210D01*
X4259529Y-841908D01*
X4262831Y-839724D01*
X4266692Y-838962D01*
X4495749Y-838962D01*
X4499610Y-839724D01*
X4502912Y-841908D01*
X4505147Y-845210D01*
X4505909Y-849121D01*
X4505909Y-853694D01*
X4562957Y-853694D01*
X4562957Y-849121D01*
X4563719Y-845210D01*
X4565904Y-841908D01*
X4569206Y-839724D01*
X4573117Y-838962D01*
X4640478Y-838962D01*
X4644390Y-839724D01*
X4647692Y-841908D01*
X4649876Y-845210D01*
X4650638Y-849121D01*
X4650638Y-853694D01*
X4707686Y-853694D01*
X4707686Y-849121D01*
X4708448Y-845210D01*
X4710684Y-841908D01*
X4713986Y-839724D01*
X4717846Y-838962D01*
X4806086Y-838962D01*
X4810201Y-839774D01*
X4813604Y-842213D01*
X4815738Y-845819D01*
X4816246Y-849985D01*
X4815382Y-859536D01*
X4816246Y-869340D01*
X4818786Y-878789D01*
X4822952Y-887730D01*
X4828590Y-895756D01*
X4835499Y-902716D01*
X4843576Y-908354D01*
X4852466Y-912469D01*
X4861966Y-915009D01*
X4871770Y-915873D01*
X4881524Y-915009D01*
X4891024Y-912469D01*
X4899914Y-908354D01*
X4907991Y-902716D01*
X4914900Y-895756D01*
X4916728Y-893165D01*
X4919980Y-890168D01*
X4924145Y-888847D01*
X4928514Y-889457D01*
X4932222Y-891794D01*
X5012436Y-972007D01*
X5014620Y-975309D01*
X5015433Y-979169D01*
X5015433Y-1003046D01*
X5015585Y-1006805D01*
X5017058Y-1013663D01*
X5019903Y-1020064D01*
X5024018Y-1025702D01*
X5029250Y-1030427D01*
X5035092Y-1033830D01*
X5040376Y-1035558D01*
X5043068Y-1036980D01*
X5045252Y-1039164D01*
X5046726Y-1041857D01*
X5048504Y-1046987D01*
X5051602Y-1051915D01*
X5055717Y-1055979D01*
X5059172Y-1058214D01*
X5062118Y-1061008D01*
X5063744Y-1064768D01*
X5063744Y-1068832D01*
X5062118Y-1072591D01*
X5059172Y-1075385D01*
X5055717Y-1077620D01*
X5051196Y-1082090D01*
X5047996Y-1084275D01*
X5044186Y-1085037D01*
X5040376Y-1084376D01*
X5037074Y-1082344D01*
X5034838Y-1079195D01*
X5033873Y-1077163D01*
X5028234Y-1069136D01*
X5021326Y-1062177D01*
X5013248Y-1056538D01*
X5004358Y-1052423D01*
X4994859Y-1049883D01*
X4985105Y-1049020D01*
X4975301Y-1049883D01*
X4965801Y-1052423D01*
X4956911Y-1056538D01*
X4948834Y-1062177D01*
X4941925Y-1069136D01*
X4937099Y-1076045D01*
X4934305Y-1078738D01*
X4930698Y-1080160D01*
X4926838Y-1080160D01*
X4923231Y-1078738D01*
X4920437Y-1076045D01*
X4915560Y-1069035D01*
X4908600Y-1062075D01*
X4900574Y-1056436D01*
X4891633Y-1052322D01*
X4882184Y-1049782D01*
X4872380Y-1048918D01*
X4862576Y-1049782D01*
X4853127Y-1052322D01*
X4844186Y-1056436D01*
X4836160Y-1062075D01*
X4829200Y-1069035D01*
X4823561Y-1077061D01*
X4819446Y-1086002D01*
X4816906Y-1095451D01*
X4816043Y-1105255D01*
X4816906Y-1115060D01*
X4819446Y-1124508D01*
X4820462Y-1126744D01*
X4821428Y-1130655D01*
X4820767Y-1134618D01*
X4818634Y-1138021D01*
X4815332Y-1140358D01*
G37*

%LPD*%
G36*
X4150868Y-1202994D02*
G01*
X4147159Y-1202182D01*
X4143959Y-1200048D01*
X4129684Y-1185722D01*
X4127449Y-1182319D01*
X4126737Y-1178255D01*
X4127703Y-1174242D01*
X4130141Y-1170940D01*
X4133748Y-1168908D01*
X4137812Y-1168450D01*
X4144721Y-1169111D01*
X4153408Y-1169111D01*
X4157014Y-1169771D01*
X4160215Y-1171702D01*
X4162450Y-1174648D01*
X4163517Y-1178204D01*
X4163212Y-1181862D01*
X4161891Y-1186789D01*
X4161282Y-1193749D01*
X4160265Y-1197406D01*
X4157929Y-1200454D01*
X4154627Y-1202385D01*
G37*

%LPD*%
G36*
X4847031Y-1358849D02*
G01*
X4843119Y-1358087D01*
X4839817Y-1355902D01*
X4837633Y-1352600D01*
X4836871Y-1348689D01*
X4836871Y-1185418D01*
X4836058Y-1177950D01*
X4833874Y-1171295D01*
X4832604Y-1169060D01*
X4831283Y-1164996D01*
X4831740Y-1160780D01*
X4833924Y-1157122D01*
X4837379Y-1154633D01*
X4841544Y-1153820D01*
X4845710Y-1154734D01*
X4853127Y-1158189D01*
X4862576Y-1160729D01*
X4872380Y-1161592D01*
X4882184Y-1160729D01*
X4891633Y-1158189D01*
X4900574Y-1154074D01*
X4908600Y-1148435D01*
X4915560Y-1141476D01*
X4920386Y-1134567D01*
X4923180Y-1131874D01*
X4926736Y-1130452D01*
X4930648Y-1130452D01*
X4934204Y-1131874D01*
X4936998Y-1134567D01*
X4941925Y-1141577D01*
X4948834Y-1148537D01*
X4956911Y-1154176D01*
X4965801Y-1158290D01*
X4975301Y-1160830D01*
X4985105Y-1161694D01*
X4994859Y-1160830D01*
X5004358Y-1158290D01*
X5013248Y-1154176D01*
X5021326Y-1148537D01*
X5028539Y-1141272D01*
X5031841Y-1139088D01*
X5035753Y-1138275D01*
X5039614Y-1139088D01*
X5042916Y-1141272D01*
X5045151Y-1144574D01*
X5045913Y-1148435D01*
X5045913Y-1159967D01*
X5045151Y-1163878D01*
X5042916Y-1167130D01*
X4854194Y-1355902D01*
X4850892Y-1358087D01*
G37*

%LPD*%
G36*
X4462170Y-1370939D02*
G01*
X4458258Y-1370177D01*
X4454956Y-1367993D01*
X4422190Y-1335227D01*
X4416348Y-1330452D01*
X4410100Y-1327302D01*
X4403242Y-1325473D01*
X4397705Y-1325016D01*
X4273194Y-1325016D01*
X4269282Y-1324254D01*
X4265980Y-1322019D01*
X4258818Y-1314856D01*
X4256582Y-1311554D01*
X4255820Y-1307693D01*
X4256582Y-1303782D01*
X4258818Y-1300480D01*
X4262120Y-1298295D01*
X4265980Y-1297533D01*
X4320336Y-1297533D01*
X4326636Y-1296771D01*
X4332122Y-1294892D01*
X4338066Y-1291183D01*
X4341571Y-1289812D01*
X4345330Y-1289812D01*
X4348835Y-1291183D01*
X4354677Y-1294892D01*
X4360164Y-1296771D01*
X4366463Y-1297533D01*
X4373727Y-1297533D01*
X4373727Y-1264462D01*
X4356963Y-1264462D01*
X4353052Y-1263700D01*
X4349750Y-1261465D01*
X4347565Y-1258163D01*
X4346803Y-1254302D01*
X4346803Y-1234897D01*
X4347565Y-1231036D01*
X4349750Y-1227734D01*
X4353052Y-1225499D01*
X4356963Y-1224737D01*
X4373727Y-1224737D01*
X4373727Y-1191717D01*
X4366463Y-1191717D01*
X4360164Y-1192428D01*
X4354677Y-1194308D01*
X4348734Y-1198016D01*
X4345228Y-1199388D01*
X4341469Y-1199388D01*
X4337964Y-1198016D01*
X4332122Y-1194308D01*
X4326636Y-1192428D01*
X4320336Y-1191717D01*
X4281982Y-1191717D01*
X4277715Y-1190752D01*
X4274210Y-1188059D01*
X4272178Y-1184148D01*
X4270349Y-1177290D01*
X4266184Y-1168400D01*
X4260545Y-1160322D01*
X4253636Y-1153414D01*
X4251350Y-1151839D01*
X4248353Y-1148588D01*
X4247032Y-1144371D01*
X4247642Y-1140002D01*
X4249978Y-1136294D01*
X4294327Y-1091946D01*
X4299102Y-1086104D01*
X4302709Y-1078992D01*
X4305046Y-1075994D01*
X4308297Y-1074064D01*
X4312056Y-1073454D01*
X4315815Y-1074267D01*
X4318965Y-1076401D01*
X4324096Y-1081582D01*
X4332122Y-1087221D01*
X4341063Y-1091336D01*
X4350512Y-1093876D01*
X4360316Y-1094740D01*
X4370120Y-1093876D01*
X4379569Y-1091336D01*
X4388510Y-1087221D01*
X4396536Y-1081582D01*
X4403496Y-1074623D01*
X4409135Y-1066596D01*
X4413250Y-1057656D01*
X4415790Y-1048207D01*
X4416044Y-1045514D01*
X4417212Y-1041603D01*
X4419854Y-1038453D01*
X4423511Y-1036624D01*
X4432808Y-1034135D01*
X4441698Y-1029969D01*
X4449775Y-1024331D01*
X4454956Y-1019149D01*
X4458258Y-1016914D01*
X4462170Y-1016152D01*
X4466031Y-1016914D01*
X4469333Y-1019149D01*
X4471517Y-1022451D01*
X4472330Y-1026312D01*
X4472330Y-1085748D01*
X4471466Y-1089812D01*
X4469028Y-1093216D01*
X4465421Y-1095349D01*
X4461256Y-1095857D01*
X4452366Y-1095095D01*
X4442561Y-1095959D01*
X4433112Y-1098499D01*
X4424172Y-1102614D01*
X4416145Y-1108252D01*
X4409186Y-1115212D01*
X4403547Y-1123238D01*
X4399432Y-1132179D01*
X4396892Y-1141628D01*
X4396028Y-1151432D01*
X4396892Y-1161237D01*
X4399432Y-1170686D01*
X4403547Y-1179626D01*
X4409186Y-1187653D01*
X4411726Y-1190142D01*
X4413910Y-1193444D01*
X4414672Y-1197356D01*
X4414672Y-1224737D01*
X4448352Y-1224737D01*
X4448352Y-1217472D01*
X4449064Y-1213764D01*
X4451045Y-1210564D01*
X4454042Y-1208328D01*
X4457649Y-1207312D01*
X4461256Y-1207008D01*
X4465421Y-1207516D01*
X4469028Y-1209649D01*
X4471466Y-1213053D01*
X4472330Y-1217117D01*
X4472330Y-1360779D01*
X4471517Y-1364691D01*
X4469333Y-1367993D01*
X4466031Y-1370177D01*
G37*

%LPC*%
G36*
X4414672Y-1297533D02*
G01*
X4421886Y-1297533D01*
X4428236Y-1296771D01*
X4433671Y-1294892D01*
X4438599Y-1291793D01*
X4442663Y-1287729D01*
X4445762Y-1282801D01*
X4447692Y-1277366D01*
X4448403Y-1271016D01*
X4448403Y-1264462D01*
X4414672Y-1264462D01*
G37*

%LPD*%
G36*
X2428341Y-1440535D02*
G01*
X2424226Y-1439824D01*
X2412695Y-1431848D01*
X2403754Y-1427734D01*
X2394305Y-1425194D01*
X2384501Y-1424330D01*
X2380996Y-1424635D01*
X2376627Y-1424025D01*
X2372918Y-1421688D01*
X1924913Y-973632D01*
X1922678Y-970330D01*
X1921916Y-966469D01*
X1921916Y-943762D01*
X1922830Y-939546D01*
X1925370Y-936091D01*
X1929130Y-934008D01*
X1933448Y-933653D01*
X1937461Y-935126D01*
X1942185Y-938072D01*
X1947672Y-940003D01*
X1953971Y-940714D01*
X1992833Y-940714D01*
X1999132Y-940003D01*
X2004618Y-938072D01*
X2010511Y-934415D01*
X2014016Y-933043D01*
X2017775Y-933043D01*
X2021281Y-934415D01*
X2027174Y-938072D01*
X2032660Y-940003D01*
X2038959Y-940714D01*
X2077821Y-940714D01*
X2084120Y-940003D01*
X2089607Y-938072D01*
X2095550Y-934415D01*
X2099056Y-933043D01*
X2102815Y-933043D01*
X2106320Y-934415D01*
X2112213Y-938072D01*
X2117648Y-940003D01*
X2123948Y-940714D01*
X2162860Y-940714D01*
X2169160Y-940003D01*
X2174646Y-938072D01*
X2180488Y-934415D01*
X2183993Y-933043D01*
X2187803Y-933043D01*
X2191308Y-934415D01*
X2197201Y-938072D01*
X2202637Y-940003D01*
X2208936Y-940714D01*
X2247849Y-940714D01*
X2254148Y-940003D01*
X2259584Y-938072D01*
X2264308Y-935126D01*
X2268372Y-933653D01*
X2272639Y-934008D01*
X2276398Y-936091D01*
X2278989Y-939546D01*
X2279904Y-943762D01*
X2279904Y-962507D01*
X2280666Y-969975D01*
X2282850Y-976680D01*
X2286355Y-982726D01*
X2291740Y-988771D01*
X2293772Y-992327D01*
X2294229Y-996442D01*
X2293924Y-999947D01*
X2294788Y-1009700D01*
X2297328Y-1019200D01*
X2301494Y-1028090D01*
X2307132Y-1036167D01*
X2314041Y-1043076D01*
X2322118Y-1048715D01*
X2331008Y-1052880D01*
X2340508Y-1055420D01*
X2350312Y-1056284D01*
X2360066Y-1055420D01*
X2369566Y-1052880D01*
X2378456Y-1048715D01*
X2386533Y-1043076D01*
X2393442Y-1036167D01*
X2399080Y-1028090D01*
X2403246Y-1019200D01*
X2405786Y-1009700D01*
X2406650Y-999947D01*
X2405786Y-990142D01*
X2403246Y-980643D01*
X2399080Y-971753D01*
X2393442Y-963676D01*
X2387803Y-958037D01*
X2385618Y-954786D01*
X2384856Y-950874D01*
X2385618Y-946962D01*
X2387803Y-943711D01*
X2391105Y-941476D01*
X2395016Y-940714D01*
X2417826Y-940714D01*
X2424125Y-940003D01*
X2429560Y-938834D01*
X2433269Y-939698D01*
X2436368Y-941832D01*
X2438501Y-944930D01*
X2439365Y-948639D01*
X2438196Y-954024D01*
X2437485Y-960374D01*
X2437485Y-999236D01*
X2438196Y-1005535D01*
X2440127Y-1011021D01*
X2443784Y-1016914D01*
X2445156Y-1020419D01*
X2445156Y-1024229D01*
X2443784Y-1027734D01*
X2440127Y-1033576D01*
X2438196Y-1039063D01*
X2437485Y-1045362D01*
X2437485Y-1084224D01*
X2438196Y-1090574D01*
X2440127Y-1096010D01*
X2443784Y-1101902D01*
X2445156Y-1105408D01*
X2445156Y-1109218D01*
X2443784Y-1112723D01*
X2440127Y-1118565D01*
X2438196Y-1124051D01*
X2437485Y-1130350D01*
X2437485Y-1169212D01*
X2438196Y-1175562D01*
X2440127Y-1180998D01*
X2443784Y-1186942D01*
X2445156Y-1190447D01*
X2445156Y-1194206D01*
X2443784Y-1197711D01*
X2440127Y-1203604D01*
X2438196Y-1209040D01*
X2437485Y-1215390D01*
X2437485Y-1254252D01*
X2438196Y-1260551D01*
X2440127Y-1266037D01*
X2443784Y-1271930D01*
X2445156Y-1275435D01*
X2445156Y-1279194D01*
X2443784Y-1282700D01*
X2440127Y-1288592D01*
X2438196Y-1294028D01*
X2437485Y-1300378D01*
X2437485Y-1339240D01*
X2438196Y-1345539D01*
X2440127Y-1351026D01*
X2443784Y-1356918D01*
X2445156Y-1360424D01*
X2445156Y-1364234D01*
X2443784Y-1367739D01*
X2440127Y-1373581D01*
X2438196Y-1379067D01*
X2437485Y-1385366D01*
X2437485Y-1424228D01*
X2438044Y-1429207D01*
X2437638Y-1433372D01*
X2435656Y-1436979D01*
X2432354Y-1439519D01*
G37*

%LPD*%
G36*
X2429865Y-1638147D02*
G01*
X2425903Y-1637436D01*
X2422499Y-1635251D01*
X2420213Y-1631950D01*
X2419400Y-1627987D01*
X2419400Y-1622348D01*
X2418638Y-1614881D01*
X2416454Y-1608226D01*
X2412898Y-1602028D01*
X2409291Y-1597863D01*
X2364486Y-1553057D01*
X2362149Y-1549349D01*
X2361539Y-1544980D01*
X2362860Y-1540764D01*
X2365857Y-1537563D01*
X2369921Y-1535836D01*
X2384501Y-1537004D01*
X2394305Y-1536141D01*
X2403754Y-1533601D01*
X2412695Y-1529486D01*
X2420721Y-1523847D01*
X2424684Y-1519834D01*
X2427681Y-1517802D01*
X2431237Y-1516888D01*
X2434844Y-1517294D01*
X2438044Y-1518970D01*
X2440533Y-1521663D01*
X2443835Y-1526946D01*
X2445156Y-1530451D01*
X2445156Y-1534210D01*
X2443784Y-1537716D01*
X2440127Y-1543608D01*
X2438196Y-1549044D01*
X2437485Y-1555394D01*
X2437485Y-1594205D01*
X2438196Y-1600555D01*
X2440127Y-1605991D01*
X2443784Y-1611934D01*
X2445156Y-1615440D01*
X2445156Y-1619199D01*
X2443784Y-1622704D01*
X2440127Y-1628597D01*
X2439162Y-1631340D01*
X2437079Y-1634794D01*
X2433828Y-1637182D01*
G37*

%LPD*%
G36*
X4524197Y-1644497D02*
G01*
X4520133Y-1643380D01*
X4516932Y-1640738D01*
X4515002Y-1636979D01*
X4512310Y-1626870D01*
X4508144Y-1617929D01*
X4505198Y-1613712D01*
X4504131Y-1611172D01*
X4503166Y-1610512D01*
X4495596Y-1602943D01*
X4487519Y-1597304D01*
X4478629Y-1593189D01*
X4469130Y-1590649D01*
X4459376Y-1589786D01*
X4449572Y-1590649D01*
X4440072Y-1593189D01*
X4431182Y-1597304D01*
X4423105Y-1602943D01*
X4416450Y-1609598D01*
X4413148Y-1611833D01*
X4409287Y-1612595D01*
X4402277Y-1612595D01*
X4398416Y-1611833D01*
X4395114Y-1609598D01*
X4376318Y-1590852D01*
X4373981Y-1587144D01*
X4373372Y-1582775D01*
X4374743Y-1578610D01*
X4377690Y-1575358D01*
X4381703Y-1572564D01*
X4388612Y-1565605D01*
X4394250Y-1557578D01*
X4398416Y-1548638D01*
X4400956Y-1539189D01*
X4401820Y-1529384D01*
X4400956Y-1519529D01*
X4399381Y-1513382D01*
X4399127Y-1509725D01*
X4400194Y-1506220D01*
X4402429Y-1503273D01*
X4405579Y-1501394D01*
X4409186Y-1500733D01*
X4465218Y-1500733D01*
X4471517Y-1499971D01*
X4476953Y-1498092D01*
X4481880Y-1494993D01*
X4485944Y-1490929D01*
X4489043Y-1486001D01*
X4490974Y-1480566D01*
X4491685Y-1474216D01*
X4491685Y-1421333D01*
X4492193Y-1417269D01*
X4494276Y-1413713D01*
X4497578Y-1411325D01*
X4501540Y-1410360D01*
X4505553Y-1411122D01*
X4509008Y-1413357D01*
X4615535Y-1519885D01*
X4617720Y-1523187D01*
X4618532Y-1527098D01*
X4618532Y-1544523D01*
X4622190Y-1545437D01*
X4625289Y-1547672D01*
X4627321Y-1550924D01*
X4628083Y-1554683D01*
X4628083Y-1569567D01*
X4627321Y-1573276D01*
X4625289Y-1576527D01*
X4622190Y-1578762D01*
X4618532Y-1579676D01*
X4618532Y-1610512D01*
X4622190Y-1611477D01*
X4625289Y-1613712D01*
X4627321Y-1616913D01*
X4628083Y-1620672D01*
X4628083Y-1630527D01*
X4627270Y-1634439D01*
X4625086Y-1637690D01*
X4621784Y-1639925D01*
X4617923Y-1640687D01*
X4541469Y-1640687D01*
X4535220Y-1641398D01*
X4528312Y-1643888D01*
G37*

%LPC*%
G36*
X4541469Y-1610512D02*
G01*
X4558334Y-1610512D01*
X4558334Y-1579727D01*
X4515002Y-1579727D01*
X4515002Y-1584045D01*
X4515713Y-1590344D01*
X4517644Y-1595831D01*
X4519726Y-1600098D01*
X4520692Y-1600708D01*
X4524806Y-1604822D01*
X4529683Y-1607870D01*
X4535170Y-1609801D01*
G37*
G36*
X4515002Y-1544523D02*
G01*
X4558334Y-1544523D01*
X4558334Y-1513687D01*
X4541469Y-1513687D01*
X4535170Y-1514398D01*
X4529683Y-1516329D01*
X4524806Y-1519377D01*
X4520692Y-1523492D01*
X4517644Y-1528368D01*
X4515713Y-1533855D01*
X4515002Y-1540154D01*
G37*

%LPD*%
G36*
X4883048Y-2410917D02*
G01*
X4879136Y-2410104D01*
X4875834Y-2407920D01*
X4866792Y-2398877D01*
X4864608Y-2395575D01*
X4863846Y-2391664D01*
X4863846Y-2382062D01*
X4854194Y-2382062D01*
X4850282Y-2381300D01*
X4847031Y-2379065D01*
X4827625Y-2359710D01*
X4825441Y-2356408D01*
X4824628Y-2352497D01*
X4825441Y-2348636D01*
X4827625Y-2345334D01*
X4830927Y-2343099D01*
X4834788Y-2342337D01*
X4863846Y-2342337D01*
X4863846Y-2323693D01*
X4864608Y-2319782D01*
X4866792Y-2316480D01*
X4870094Y-2314295D01*
X4874006Y-2313533D01*
X4894630Y-2313533D01*
X4898542Y-2314295D01*
X4901844Y-2316480D01*
X4904028Y-2319782D01*
X4904790Y-2323693D01*
X4904790Y-2342337D01*
X4906518Y-2342337D01*
X4910429Y-2343099D01*
X4913731Y-2345334D01*
X4915916Y-2348636D01*
X4916678Y-2352497D01*
X4916678Y-2371902D01*
X4915916Y-2375763D01*
X4913731Y-2379065D01*
X4910429Y-2381300D01*
X4906518Y-2382062D01*
X4904790Y-2382062D01*
X4904790Y-2400757D01*
X4904028Y-2404618D01*
X4901844Y-2407920D01*
X4898542Y-2410104D01*
X4894630Y-2410917D01*
G37*

%LPD*%
G36*
X3825697Y-2688996D02*
G01*
X3821836Y-2688234D01*
X3818534Y-2686050D01*
X3816299Y-2682748D01*
X3815537Y-2678836D01*
X3815537Y-2662072D01*
X3796893Y-2662072D01*
X3792982Y-2661310D01*
X3789679Y-2659126D01*
X3787495Y-2655824D01*
X3786733Y-2651912D01*
X3786733Y-2631287D01*
X3787495Y-2627376D01*
X3789679Y-2624074D01*
X3792982Y-2621889D01*
X3796893Y-2621127D01*
X3815537Y-2621127D01*
X3815537Y-2610662D01*
X3816045Y-2607462D01*
X3817569Y-2604617D01*
X3819906Y-2602331D01*
X3824325Y-2599232D01*
X3831234Y-2592324D01*
X3834790Y-2587244D01*
X3837889Y-2584348D01*
X3841953Y-2582976D01*
X3846169Y-2583383D01*
X3849878Y-2585466D01*
X3852367Y-2588869D01*
X3853281Y-2593035D01*
X3853281Y-2678836D01*
X3852519Y-2682748D01*
X3850284Y-2686050D01*
X3847033Y-2688234D01*
X3843121Y-2688996D01*
G37*

%LPD*%
G36*
X3548430Y-2764942D02*
G01*
X3544570Y-2764180D01*
X3541268Y-2761945D01*
X3487318Y-2707995D01*
X3481425Y-2703271D01*
X3475228Y-2700070D01*
X3468319Y-2698242D01*
X3462832Y-2697835D01*
X3435045Y-2697835D01*
X3431133Y-2697022D01*
X3427831Y-2694838D01*
X3425647Y-2691536D01*
X3424885Y-2687675D01*
X3424885Y-2665984D01*
X3424174Y-2659634D01*
X3422243Y-2654198D01*
X3419144Y-2649270D01*
X3415080Y-2645206D01*
X3410153Y-2642108D01*
X3404717Y-2640228D01*
X3398418Y-2639517D01*
X3369716Y-2639517D01*
X3365804Y-2638704D01*
X3362502Y-2636520D01*
X3360318Y-2633218D01*
X3359556Y-2629357D01*
X3360318Y-2625445D01*
X3362502Y-2622143D01*
X3386175Y-2598521D01*
X3389884Y-2596134D01*
X3394252Y-2595575D01*
X3397758Y-2595880D01*
X3407511Y-2595016D01*
X3417011Y-2592476D01*
X3425901Y-2588310D01*
X3433978Y-2582672D01*
X3440887Y-2575763D01*
X3446526Y-2567686D01*
X3450691Y-2558796D01*
X3453231Y-2549296D01*
X3454095Y-2539542D01*
X3453231Y-2529738D01*
X3450691Y-2520238D01*
X3446526Y-2511348D01*
X3440887Y-2503271D01*
X3433978Y-2496362D01*
X3425901Y-2490724D01*
X3417011Y-2486558D01*
X3407511Y-2484018D01*
X3397758Y-2483154D01*
X3387953Y-2484018D01*
X3378454Y-2486558D01*
X3369564Y-2490724D01*
X3361486Y-2496362D01*
X3354578Y-2503271D01*
X3348939Y-2511348D01*
X3344773Y-2520238D01*
X3342233Y-2529738D01*
X3341370Y-2539542D01*
X3341674Y-2542997D01*
X3341115Y-2547366D01*
X3338728Y-2551074D01*
X3282950Y-2606903D01*
X3280765Y-2608580D01*
X3278174Y-2609596D01*
X3273653Y-2610662D01*
X3267354Y-2613507D01*
X3261715Y-2617622D01*
X3256991Y-2622804D01*
X3253486Y-2628900D01*
X3251606Y-2634843D01*
X3250285Y-2637891D01*
X3247999Y-2640330D01*
X3244646Y-2642108D01*
X3239719Y-2645206D01*
X3235655Y-2649270D01*
X3232556Y-2654198D01*
X3230626Y-2659634D01*
X3229914Y-2665984D01*
X3229914Y-2718816D01*
X3230626Y-2725166D01*
X3231845Y-2728518D01*
X3232404Y-2732481D01*
X3231388Y-2736291D01*
X3229000Y-2739491D01*
X3225596Y-2741472D01*
X3219246Y-2743708D01*
X3214319Y-2746806D01*
X3210255Y-2750870D01*
X3208985Y-2752852D01*
X3206191Y-2755798D01*
X3202432Y-2757373D01*
X3198368Y-2757373D01*
X3194608Y-2755798D01*
X3191814Y-2752852D01*
X3190544Y-2750870D01*
X3187903Y-2748229D01*
X3185566Y-2744571D01*
X3184956Y-2740253D01*
X3185464Y-2733852D01*
X3185464Y-2696718D01*
X3186226Y-2692857D01*
X3188462Y-2689555D01*
X3195116Y-2682900D01*
X3200755Y-2674823D01*
X3204870Y-2665933D01*
X3207410Y-2656433D01*
X3208274Y-2646680D01*
X3207410Y-2636875D01*
X3204870Y-2627376D01*
X3200755Y-2618486D01*
X3195116Y-2610408D01*
X3188157Y-2603500D01*
X3180130Y-2597861D01*
X3171190Y-2593695D01*
X3161741Y-2591155D01*
X3151936Y-2590292D01*
X3142132Y-2591155D01*
X3132683Y-2593695D01*
X3123742Y-2597861D01*
X3115716Y-2603500D01*
X3108756Y-2610408D01*
X3103118Y-2618486D01*
X3099003Y-2627376D01*
X3096463Y-2636875D01*
X3095599Y-2646680D01*
X3096463Y-2656433D01*
X3099003Y-2665933D01*
X3103118Y-2674823D01*
X3108756Y-2682900D01*
X3115411Y-2689555D01*
X3117646Y-2692857D01*
X3118408Y-2696718D01*
X3118408Y-2716733D01*
X3117850Y-2720086D01*
X3116224Y-2723032D01*
X3113938Y-2725928D01*
X3111550Y-2730347D01*
X3109366Y-2737104D01*
X3107232Y-2740761D01*
X3103829Y-2743250D01*
X3099714Y-2744114D01*
X3097885Y-2744114D01*
X3093770Y-2743250D01*
X3090367Y-2740761D01*
X3088233Y-2737104D01*
X3086100Y-2730500D01*
X3082544Y-2724302D01*
X3078937Y-2720136D01*
X2720086Y-2361234D01*
X2714193Y-2356510D01*
X2707995Y-2353310D01*
X2701086Y-2351481D01*
X2695600Y-2351074D01*
X2567990Y-2351074D01*
X2564130Y-2350262D01*
X2560828Y-2348077D01*
X2558643Y-2344775D01*
X2557830Y-2340914D01*
X2558643Y-2337003D01*
X2560828Y-2333701D01*
X2563622Y-2330907D01*
X2566670Y-2326030D01*
X2568600Y-2320544D01*
X2569311Y-2314244D01*
X2569311Y-2301138D01*
X2529738Y-2301138D01*
X2529738Y-2340914D01*
X2528976Y-2344775D01*
X2526792Y-2348077D01*
X2523490Y-2350262D01*
X2519578Y-2351074D01*
X2487218Y-2351074D01*
X2483307Y-2350262D01*
X2480005Y-2348077D01*
X2477820Y-2344775D01*
X2477058Y-2340914D01*
X2477058Y-2301138D01*
X2454452Y-2301138D01*
X2450592Y-2300376D01*
X2447290Y-2298192D01*
X2445054Y-2294890D01*
X2444292Y-2290978D01*
X2444292Y-2258618D01*
X2445054Y-2254707D01*
X2447290Y-2251405D01*
X2450592Y-2249220D01*
X2454452Y-2248458D01*
X2477058Y-2248458D01*
X2477058Y-2225903D01*
X2477820Y-2221992D01*
X2480005Y-2218690D01*
X2483307Y-2216505D01*
X2487218Y-2215743D01*
X2519578Y-2215743D01*
X2523490Y-2216505D01*
X2526792Y-2218690D01*
X2528976Y-2221992D01*
X2529738Y-2225903D01*
X2529738Y-2248458D01*
X2569311Y-2248458D01*
X2569311Y-2235352D01*
X2568600Y-2229053D01*
X2566670Y-2223566D01*
X2563012Y-2217724D01*
X2561640Y-2214168D01*
X2561640Y-2210409D01*
X2563012Y-2206904D01*
X2566670Y-2201011D01*
X2568600Y-2195576D01*
X2569311Y-2189226D01*
X2569311Y-2150364D01*
X2568600Y-2144064D01*
X2566670Y-2138578D01*
X2563723Y-2133904D01*
X2562250Y-2129840D01*
X2562606Y-2125573D01*
X2564688Y-2121814D01*
X2568143Y-2119223D01*
X2572359Y-2118360D01*
X3109010Y-2118360D01*
X3112922Y-2119122D01*
X3116224Y-2121306D01*
X3659835Y-2664917D01*
X3665778Y-2669743D01*
X3670147Y-2672130D01*
X3676904Y-2674315D01*
X3679647Y-2675737D01*
X3681882Y-2677871D01*
X3683508Y-2681122D01*
X3687216Y-2687066D01*
X3688587Y-2690571D01*
X3688587Y-2694330D01*
X3687216Y-2697835D01*
X3683508Y-2703677D01*
X3681628Y-2709164D01*
X3680917Y-2715463D01*
X3680917Y-2722727D01*
X3713937Y-2722727D01*
X3713937Y-2705963D01*
X3714699Y-2702052D01*
X3716934Y-2698750D01*
X3720236Y-2696565D01*
X3724097Y-2695803D01*
X3743502Y-2695803D01*
X3747363Y-2696565D01*
X3750665Y-2698750D01*
X3752900Y-2702052D01*
X3753662Y-2705963D01*
X3753662Y-2722727D01*
X3772357Y-2722727D01*
X3776218Y-2723489D01*
X3779520Y-2725674D01*
X3781704Y-2728976D01*
X3782517Y-2732887D01*
X3782517Y-2753512D01*
X3781704Y-2757424D01*
X3779520Y-2760726D01*
X3776218Y-2762910D01*
X3772357Y-2763672D01*
X3748379Y-2763672D01*
X3743502Y-2764942D01*
X3724097Y-2764942D01*
X3721608Y-2764637D01*
X3719220Y-2763672D01*
X3675634Y-2763672D01*
X3673246Y-2764637D01*
X3670757Y-2764942D01*
G37*

%LPD*%
G36*
X2318156Y-2811526D02*
G01*
X2314295Y-2810764D01*
X2310993Y-2808528D01*
X2293924Y-2791510D01*
X2291740Y-2788208D01*
X2290927Y-2784297D01*
X2291740Y-2780436D01*
X2293924Y-2777134D01*
X2297226Y-2774899D01*
X2301087Y-2774137D01*
X2316327Y-2774137D01*
X2316327Y-2712262D01*
X2281478Y-2712262D01*
X2277567Y-2711500D01*
X2274316Y-2709265D01*
X2272080Y-2705963D01*
X2271318Y-2702102D01*
X2271318Y-2682697D01*
X2272080Y-2678836D01*
X2274316Y-2675534D01*
X2277567Y-2673299D01*
X2281478Y-2672537D01*
X2316327Y-2672537D01*
X2316327Y-2639517D01*
X2309114Y-2639517D01*
X2302764Y-2640228D01*
X2297328Y-2642108D01*
X2292400Y-2645206D01*
X2288641Y-2648915D01*
X2285390Y-2651150D01*
X2281478Y-2651912D01*
X2277567Y-2651150D01*
X2274316Y-2648915D01*
X2272080Y-2645664D01*
X2271318Y-2641752D01*
X2271318Y-2549398D01*
X2270556Y-2541930D01*
X2268372Y-2535275D01*
X2264816Y-2529078D01*
X2261209Y-2524861D01*
X2184806Y-2448458D01*
X2182520Y-2444953D01*
X2181860Y-2440787D01*
X2182977Y-2436672D01*
X2185619Y-2433421D01*
X2189378Y-2431491D01*
X2192223Y-2430729D01*
X2201113Y-2426563D01*
X2209190Y-2420924D01*
X2216099Y-2414016D01*
X2221738Y-2405938D01*
X2225903Y-2397048D01*
X2228443Y-2387498D01*
X2230374Y-2383739D01*
X2233676Y-2381097D01*
X2237740Y-2379980D01*
X2241905Y-2380640D01*
X2245461Y-2382977D01*
X2390343Y-2527858D01*
X2392730Y-2531567D01*
X2393289Y-2535936D01*
X2392984Y-2539441D01*
X2393848Y-2549245D01*
X2396388Y-2558694D01*
X2400554Y-2567635D01*
X2406192Y-2575661D01*
X2413101Y-2582621D01*
X2421178Y-2588260D01*
X2430068Y-2592374D01*
X2439568Y-2594914D01*
X2449372Y-2595778D01*
X2459126Y-2594914D01*
X2468626Y-2592374D01*
X2477516Y-2588260D01*
X2485593Y-2582621D01*
X2492502Y-2575661D01*
X2498140Y-2567635D01*
X2502306Y-2558694D01*
X2504846Y-2549245D01*
X2505710Y-2539441D01*
X2504897Y-2530551D01*
X2505405Y-2526385D01*
X2507538Y-2522778D01*
X2510942Y-2520340D01*
X2515057Y-2519527D01*
X2604058Y-2519527D01*
X2607919Y-2520289D01*
X2611221Y-2522474D01*
X2620670Y-2531922D01*
X2623058Y-2535631D01*
X2623616Y-2540000D01*
X2622296Y-2544165D01*
X2619298Y-2547416D01*
X2615844Y-2549855D01*
X2608935Y-2556764D01*
X2603296Y-2564841D01*
X2599131Y-2573731D01*
X2596591Y-2583230D01*
X2595727Y-2593035D01*
X2596591Y-2602788D01*
X2599131Y-2612288D01*
X2603296Y-2621178D01*
X2608884Y-2629204D01*
X2616809Y-2637028D01*
X2618790Y-2639771D01*
X2619756Y-2643073D01*
X2619603Y-2646476D01*
X2618282Y-2649677D01*
X2615438Y-2654198D01*
X2613507Y-2659634D01*
X2613050Y-2664053D01*
X2611678Y-2668016D01*
X2608884Y-2671165D01*
X2605786Y-2672537D01*
X2609850Y-2674874D01*
X2612034Y-2678176D01*
X2612796Y-2682087D01*
X2612796Y-2702712D01*
X2612034Y-2706624D01*
X2609850Y-2709926D01*
X2605786Y-2712262D01*
X2608884Y-2713634D01*
X2611678Y-2716784D01*
X2613050Y-2720746D01*
X2613507Y-2725166D01*
X2615539Y-2730906D01*
X2616098Y-2734716D01*
X2615184Y-2738475D01*
X2612898Y-2741625D01*
X2600909Y-2749346D01*
X2596794Y-2750007D01*
X2592730Y-2748940D01*
X2589428Y-2746349D01*
X2587498Y-2742590D01*
X2587193Y-2738424D01*
X2588666Y-2734462D01*
X2590292Y-2731922D01*
X2592171Y-2726436D01*
X2592832Y-2720746D01*
X2594152Y-2716784D01*
X2596997Y-2713634D01*
X2598724Y-2712872D01*
X2559862Y-2712872D01*
X2559862Y-2729636D01*
X2559100Y-2733548D01*
X2556865Y-2736850D01*
X2553563Y-2739034D01*
X2549702Y-2739796D01*
X2530805Y-2739796D01*
X2526690Y-2738932D01*
X2523286Y-2736443D01*
X2521153Y-2732786D01*
X2520137Y-2728061D01*
X2520137Y-2712872D01*
X2506726Y-2712872D01*
X2503017Y-2712212D01*
X2499055Y-2710637D01*
X2495651Y-2708452D01*
X2493365Y-2705150D01*
X2492603Y-2701188D01*
X2492603Y-2682087D01*
X2493365Y-2678176D01*
X2495550Y-2674874D01*
X2498852Y-2672689D01*
X2502763Y-2671927D01*
X2520137Y-2671927D01*
X2520137Y-2638196D01*
X2513584Y-2638196D01*
X2507234Y-2638907D01*
X2501798Y-2640838D01*
X2492349Y-2646832D01*
X2487930Y-2647289D01*
X2483764Y-2645816D01*
X2477871Y-2642108D01*
X2472436Y-2640228D01*
X2466086Y-2639517D01*
X2410663Y-2639517D01*
X2404364Y-2640228D01*
X2398877Y-2642108D01*
X2392934Y-2645816D01*
X2389428Y-2647188D01*
X2385669Y-2647188D01*
X2382164Y-2645816D01*
X2376322Y-2642108D01*
X2370836Y-2640228D01*
X2364536Y-2639517D01*
X2357272Y-2639517D01*
X2357272Y-2672537D01*
X2374036Y-2672537D01*
X2377948Y-2673299D01*
X2381250Y-2675534D01*
X2383434Y-2678836D01*
X2384196Y-2682697D01*
X2384196Y-2702102D01*
X2383434Y-2705963D01*
X2381250Y-2709265D01*
X2377948Y-2711500D01*
X2374036Y-2712262D01*
X2357272Y-2712262D01*
X2357272Y-2774137D01*
X2374036Y-2774137D01*
X2377948Y-2774899D01*
X2381250Y-2777134D01*
X2383434Y-2780436D01*
X2384196Y-2784297D01*
X2384196Y-2801366D01*
X2383434Y-2805277D01*
X2381250Y-2808528D01*
X2377948Y-2810764D01*
X2374036Y-2811526D01*
G37*

%LPC*%
G36*
X2559862Y-2671927D02*
G01*
X2598724Y-2671927D01*
X2596997Y-2671165D01*
X2594152Y-2668016D01*
X2592832Y-2664053D01*
X2592171Y-2658364D01*
X2590292Y-2652928D01*
X2587193Y-2648000D01*
X2583129Y-2643936D01*
X2578201Y-2640838D01*
X2572766Y-2638907D01*
X2566416Y-2638196D01*
X2559862Y-2638196D01*
G37*

%LPD*%
G36*
X2655824Y-2905861D02*
G01*
X2652623Y-2905302D01*
X2649728Y-2903829D01*
X2646629Y-2900222D01*
X2639669Y-2893314D01*
X2631643Y-2887675D01*
X2627172Y-2884932D01*
X2605633Y-2863342D01*
X2603347Y-2859887D01*
X2602636Y-2855772D01*
X2603652Y-2851759D01*
X2606192Y-2848457D01*
X2609799Y-2846476D01*
X2613964Y-2846070D01*
X2621381Y-2846933D01*
X2628646Y-2846933D01*
X2628646Y-2813862D01*
X2603093Y-2813862D01*
X2599182Y-2813100D01*
X2595880Y-2810865D01*
X2593695Y-2807563D01*
X2592933Y-2803702D01*
X2592933Y-2784297D01*
X2593695Y-2780436D01*
X2595880Y-2777134D01*
X2599182Y-2774899D01*
X2603093Y-2774137D01*
X2628646Y-2774137D01*
X2628646Y-2755493D01*
X2629408Y-2751582D01*
X2631592Y-2748280D01*
X2634894Y-2746095D01*
X2638806Y-2745333D01*
X2659430Y-2745333D01*
X2663342Y-2746095D01*
X2666644Y-2748280D01*
X2668828Y-2751582D01*
X2669590Y-2755493D01*
X2669590Y-2774137D01*
X2671318Y-2774137D01*
X2675229Y-2774899D01*
X2678531Y-2777134D01*
X2680716Y-2780436D01*
X2681478Y-2784297D01*
X2681478Y-2803702D01*
X2680716Y-2807563D01*
X2678531Y-2810865D01*
X2675229Y-2813100D01*
X2671318Y-2813862D01*
X2669590Y-2813862D01*
X2669590Y-2846933D01*
X2676855Y-2846933D01*
X2679903Y-2846578D01*
X2683814Y-2846882D01*
X2687320Y-2848660D01*
X2689860Y-2851658D01*
X2691130Y-2855366D01*
X2690876Y-2859278D01*
X2689809Y-2863138D01*
X2688945Y-2872943D01*
X2689809Y-2882747D01*
X2692603Y-2893060D01*
X2692857Y-2896717D01*
X2691841Y-2900273D01*
X2689555Y-2903220D01*
X2686405Y-2905150D01*
X2682748Y-2905861D01*
G37*

%LPD*%
G36*
X2807868Y-2905861D02*
G01*
X2804210Y-2905150D01*
X2801061Y-2903220D01*
X2798775Y-2900273D01*
X2797759Y-2896717D01*
X2798013Y-2893060D01*
X2800807Y-2882747D01*
X2801670Y-2872943D01*
X2800807Y-2863138D01*
X2799638Y-2858922D01*
X2799384Y-2855010D01*
X2800654Y-2851251D01*
X2803194Y-2848305D01*
X2806700Y-2846476D01*
X2810611Y-2846171D01*
X2817114Y-2846933D01*
X2824327Y-2846933D01*
X2824327Y-2813862D01*
X2800045Y-2813862D01*
X2796133Y-2813100D01*
X2792831Y-2810865D01*
X2790647Y-2807563D01*
X2789885Y-2803702D01*
X2789885Y-2784297D01*
X2790647Y-2780436D01*
X2792831Y-2777134D01*
X2796133Y-2774899D01*
X2800045Y-2774137D01*
X2824327Y-2774137D01*
X2824327Y-2738729D01*
X2821787Y-2735529D01*
X2820670Y-2731617D01*
X2821228Y-2727553D01*
X2822092Y-2725166D01*
X2822803Y-2718816D01*
X2822803Y-2712262D01*
X2789072Y-2712262D01*
X2789072Y-2734259D01*
X2788361Y-2738069D01*
X2786278Y-2741269D01*
X2783128Y-2743504D01*
X2779369Y-2744419D01*
X2775559Y-2743860D01*
X2769717Y-2741828D01*
X2763418Y-2741117D01*
X2758287Y-2741117D01*
X2754376Y-2740304D01*
X2751074Y-2738120D01*
X2748889Y-2734818D01*
X2748127Y-2730957D01*
X2748127Y-2712262D01*
X2731363Y-2712262D01*
X2727452Y-2711500D01*
X2724150Y-2709265D01*
X2721965Y-2705963D01*
X2721203Y-2702102D01*
X2721203Y-2683713D01*
X2722067Y-2679649D01*
X2724505Y-2676245D01*
X2728112Y-2674112D01*
X2732227Y-2673604D01*
X2742336Y-2674467D01*
X2752090Y-2673604D01*
X2761589Y-2671064D01*
X2770479Y-2666949D01*
X2773121Y-2665120D01*
X2776982Y-2663444D01*
X2781198Y-2663545D01*
X2785059Y-2665323D01*
X2787802Y-2668524D01*
X2789072Y-2672537D01*
X2830525Y-2672537D01*
X2833979Y-2672283D01*
X2837281Y-2673248D01*
X2840126Y-2675229D01*
X2890215Y-2725318D01*
X2892399Y-2728569D01*
X2893212Y-2732328D01*
X2892501Y-2736189D01*
X2890469Y-2739440D01*
X2887319Y-2741726D01*
X2883560Y-2742641D01*
X2878836Y-2741828D01*
X2872536Y-2741117D01*
X2865272Y-2741117D01*
X2865272Y-2774137D01*
X2882036Y-2774137D01*
X2885948Y-2774899D01*
X2889250Y-2777134D01*
X2891434Y-2780436D01*
X2892196Y-2784297D01*
X2892196Y-2803702D01*
X2891434Y-2807563D01*
X2889250Y-2810865D01*
X2885948Y-2813100D01*
X2882036Y-2813862D01*
X2865272Y-2813862D01*
X2865272Y-2846933D01*
X2872536Y-2846933D01*
X2878836Y-2846171D01*
X2884322Y-2844292D01*
X2890266Y-2840583D01*
X2893771Y-2839212D01*
X2897530Y-2839212D01*
X2901035Y-2840583D01*
X2906877Y-2844292D01*
X2912364Y-2846171D01*
X2918663Y-2846933D01*
X2974086Y-2846933D01*
X2980436Y-2846171D01*
X2985871Y-2844292D01*
X2990799Y-2841193D01*
X2993796Y-2838246D01*
X2997047Y-2836011D01*
X3000959Y-2835249D01*
X3004870Y-2836011D01*
X3008122Y-2838246D01*
X3011119Y-2841193D01*
X3016046Y-2844292D01*
X3021482Y-2846171D01*
X3027781Y-2846933D01*
X3083255Y-2846933D01*
X3089554Y-2846171D01*
X3095447Y-2844139D01*
X3098800Y-2843580D01*
X3102152Y-2844139D01*
X3108045Y-2846171D01*
X3114344Y-2846933D01*
X3169818Y-2846933D01*
X3176117Y-2846171D01*
X3181553Y-2844292D01*
X3186480Y-2841193D01*
X3190544Y-2837129D01*
X3191814Y-2835148D01*
X3194608Y-2832201D01*
X3198368Y-2830626D01*
X3202432Y-2830626D01*
X3206191Y-2832201D01*
X3208985Y-2835148D01*
X3210255Y-2837129D01*
X3214319Y-2841193D01*
X3222447Y-2845917D01*
X3224580Y-2848102D01*
X3226003Y-2850896D01*
X3228136Y-2857500D01*
X3231692Y-2863697D01*
X3235299Y-2867863D01*
X3255924Y-2888488D01*
X3258108Y-2891790D01*
X3258870Y-2895701D01*
X3258108Y-2899562D01*
X3255924Y-2902864D01*
X3252622Y-2905048D01*
X3248710Y-2905861D01*
G37*

%LPD*%
G36*
X1575104Y-2996692D02*
G01*
X1522730Y-2995676D01*
X1470914Y-2992729D01*
X1419250Y-2987852D01*
X1367840Y-2980994D01*
X1316685Y-2972155D01*
X1265885Y-2961436D01*
X1215593Y-2948787D01*
X1165758Y-2934258D01*
X1116533Y-2917850D01*
X1067968Y-2899562D01*
X1020114Y-2879496D01*
X973074Y-2857601D01*
X926896Y-2833928D01*
X881634Y-2808528D01*
X837336Y-2781452D01*
X794156Y-2752750D01*
X752043Y-2722372D01*
X711149Y-2690469D01*
X671474Y-2657043D01*
X633069Y-2622092D01*
X596036Y-2585770D01*
X560374Y-2548026D01*
X526237Y-2508961D01*
X493522Y-2468676D01*
X462432Y-2427122D01*
X432866Y-2384450D01*
X404977Y-2340711D01*
X378764Y-2295956D01*
X354228Y-2250186D01*
X331470Y-2203551D01*
X310489Y-2156104D01*
X291338Y-2107895D01*
X274015Y-2058974D01*
X258521Y-2009444D01*
X244957Y-1959356D01*
X233273Y-1908759D01*
X223520Y-1857806D01*
X215696Y-1806498D01*
X209854Y-1754936D01*
X205892Y-1703222D01*
X203962Y-1651355D01*
X203962Y-1599438D01*
X205943Y-1547622D01*
X209854Y-1495856D01*
X215747Y-1444294D01*
X223570Y-1392986D01*
X233375Y-1342034D01*
X245059Y-1291488D01*
X258622Y-1241399D01*
X274116Y-1191869D01*
X291490Y-1142949D01*
X310642Y-1094740D01*
X331673Y-1047292D01*
X354431Y-1000658D01*
X378968Y-954938D01*
X405180Y-910132D01*
X433070Y-866394D01*
X462635Y-823721D01*
X489712Y-787654D01*
X492861Y-784860D01*
X496874Y-783640D01*
X501040Y-784098D01*
X504698Y-786231D01*
X507136Y-789635D01*
X508000Y-793750D01*
X508000Y-2361184D01*
X509016Y-2362200D01*
X1040384Y-2362200D01*
X1041400Y-2361184D01*
X1041400Y-2348636D01*
X1042111Y-2344826D01*
X1044194Y-2341626D01*
X1047343Y-2339390D01*
X1051102Y-2338476D01*
X1054912Y-2339035D01*
X1057656Y-2340000D01*
X1063955Y-2340711D01*
X1077061Y-2340711D01*
X1077061Y-2301138D01*
X1051560Y-2301138D01*
X1047648Y-2300376D01*
X1044397Y-2298192D01*
X1042162Y-2294890D01*
X1041400Y-2290978D01*
X1041400Y-2258618D01*
X1042162Y-2254707D01*
X1044397Y-2251405D01*
X1047648Y-2249220D01*
X1051560Y-2248458D01*
X1077061Y-2248458D01*
X1077061Y-2198725D01*
X1077366Y-2196134D01*
X1051560Y-2196134D01*
X1047648Y-2195372D01*
X1044397Y-2193188D01*
X1042162Y-2189886D01*
X1041400Y-2185974D01*
X1041400Y-2153615D01*
X1042162Y-2149703D01*
X1044397Y-2146401D01*
X1047648Y-2144217D01*
X1051560Y-2143455D01*
X1087069Y-2143455D01*
X1087069Y-2111146D01*
X1051560Y-2111146D01*
X1047648Y-2110384D01*
X1044397Y-2108200D01*
X1042162Y-2104898D01*
X1041400Y-2100986D01*
X1041400Y-2068626D01*
X1042162Y-2064715D01*
X1044397Y-2061413D01*
X1047648Y-2059228D01*
X1051560Y-2058466D01*
X1087069Y-2058466D01*
X1087069Y-2026157D01*
X1051560Y-2026157D01*
X1047648Y-2025396D01*
X1044397Y-2023160D01*
X1042162Y-2019858D01*
X1041400Y-2015998D01*
X1041400Y-1983587D01*
X1042162Y-1979726D01*
X1044397Y-1976424D01*
X1047648Y-1974189D01*
X1051560Y-1973427D01*
X1087069Y-1973427D01*
X1087069Y-1941169D01*
X1051560Y-1941169D01*
X1047648Y-1940407D01*
X1044397Y-1938172D01*
X1042162Y-1934870D01*
X1041400Y-1931009D01*
X1041400Y-1898599D01*
X1042162Y-1894738D01*
X1044397Y-1891436D01*
X1047648Y-1889201D01*
X1051560Y-1888439D01*
X1087069Y-1888439D01*
X1087069Y-1856130D01*
X1051560Y-1856130D01*
X1047648Y-1855368D01*
X1044397Y-1853184D01*
X1042162Y-1849882D01*
X1041400Y-1845970D01*
X1041400Y-1813610D01*
X1042162Y-1809699D01*
X1044397Y-1806397D01*
X1047648Y-1804212D01*
X1051560Y-1803450D01*
X1087069Y-1803450D01*
X1087069Y-1771142D01*
X1051560Y-1771142D01*
X1047648Y-1770380D01*
X1044397Y-1768195D01*
X1042162Y-1764893D01*
X1041400Y-1760982D01*
X1041400Y-1728622D01*
X1042162Y-1724710D01*
X1044397Y-1721408D01*
X1047648Y-1719224D01*
X1051560Y-1718462D01*
X1087069Y-1718462D01*
X1087069Y-1686153D01*
X1051560Y-1686153D01*
X1047648Y-1685391D01*
X1044397Y-1683156D01*
X1042162Y-1679854D01*
X1041400Y-1675993D01*
X1041400Y-1643583D01*
X1042162Y-1639722D01*
X1044397Y-1636420D01*
X1047648Y-1634185D01*
X1051560Y-1633423D01*
X1087069Y-1633423D01*
X1087069Y-1601165D01*
X1051560Y-1601165D01*
X1047648Y-1600403D01*
X1044397Y-1598168D01*
X1042162Y-1594866D01*
X1041400Y-1591005D01*
X1041400Y-1558594D01*
X1042162Y-1554734D01*
X1044397Y-1551432D01*
X1047648Y-1549196D01*
X1051560Y-1548434D01*
X1087069Y-1548434D01*
X1087069Y-1516176D01*
X1051560Y-1516176D01*
X1047648Y-1515414D01*
X1044397Y-1513179D01*
X1042162Y-1509877D01*
X1041400Y-1506016D01*
X1041400Y-1473606D01*
X1042162Y-1469745D01*
X1044397Y-1466443D01*
X1047648Y-1464208D01*
X1051560Y-1463446D01*
X1087069Y-1463446D01*
X1087069Y-1431137D01*
X1051560Y-1431137D01*
X1047648Y-1430375D01*
X1044397Y-1428191D01*
X1042162Y-1424889D01*
X1041400Y-1420977D01*
X1041400Y-1388618D01*
X1042162Y-1384706D01*
X1044397Y-1381404D01*
X1047648Y-1379220D01*
X1051560Y-1378458D01*
X1087069Y-1378458D01*
X1087069Y-1346149D01*
X1051560Y-1346149D01*
X1047648Y-1345387D01*
X1044397Y-1343202D01*
X1042162Y-1339900D01*
X1041400Y-1335989D01*
X1041400Y-1303629D01*
X1042162Y-1299718D01*
X1044397Y-1296416D01*
X1047648Y-1294231D01*
X1051560Y-1293469D01*
X1087069Y-1293469D01*
X1087069Y-1261160D01*
X1051560Y-1261160D01*
X1047648Y-1260398D01*
X1044397Y-1258163D01*
X1042162Y-1254861D01*
X1041400Y-1251000D01*
X1041400Y-1218590D01*
X1042162Y-1214729D01*
X1044397Y-1211427D01*
X1047648Y-1209192D01*
X1051560Y-1208430D01*
X1087069Y-1208430D01*
X1087069Y-1176172D01*
X1051560Y-1176172D01*
X1047648Y-1175410D01*
X1044397Y-1173175D01*
X1042162Y-1169873D01*
X1041400Y-1166012D01*
X1041400Y-1133602D01*
X1042162Y-1129741D01*
X1044397Y-1126439D01*
X1047648Y-1124204D01*
X1051560Y-1123442D01*
X1087069Y-1123442D01*
X1087069Y-1091133D01*
X1051560Y-1091133D01*
X1047648Y-1090371D01*
X1044397Y-1088186D01*
X1042162Y-1084884D01*
X1041400Y-1080973D01*
X1041400Y-1048613D01*
X1042162Y-1044702D01*
X1044397Y-1041400D01*
X1047648Y-1039215D01*
X1051560Y-1038453D01*
X1087069Y-1038453D01*
X1087069Y-1006144D01*
X1051560Y-1006144D01*
X1047648Y-1005382D01*
X1044397Y-1003198D01*
X1042162Y-999896D01*
X1041400Y-995984D01*
X1041400Y-963625D01*
X1042162Y-959713D01*
X1044397Y-956411D01*
X1047648Y-954227D01*
X1051560Y-953465D01*
X1077366Y-953465D01*
X1077061Y-950874D01*
X1077061Y-901141D01*
X1051560Y-901141D01*
X1047648Y-900379D01*
X1044397Y-898194D01*
X1042162Y-894892D01*
X1041400Y-890981D01*
X1041400Y-858621D01*
X1042162Y-854710D01*
X1044397Y-851408D01*
X1047648Y-849223D01*
X1051560Y-848461D01*
X1077061Y-848461D01*
X1077061Y-808888D01*
X1063955Y-808888D01*
X1057656Y-809599D01*
X1054912Y-810564D01*
X1051102Y-811123D01*
X1047343Y-810209D01*
X1044194Y-807974D01*
X1042111Y-804773D01*
X1041400Y-800963D01*
X1041400Y-788416D01*
X1040384Y-787400D01*
X510895Y-787400D01*
X507187Y-786688D01*
X503986Y-784656D01*
X501751Y-781608D01*
X500786Y-777951D01*
X501243Y-774192D01*
X503021Y-770839D01*
X526491Y-741934D01*
X560679Y-702868D01*
X596290Y-665175D01*
X633323Y-628853D01*
X671728Y-593902D01*
X711403Y-560476D01*
X752348Y-528574D01*
X794461Y-498246D01*
X837692Y-469544D01*
X881938Y-442468D01*
X927201Y-417068D01*
X973429Y-393446D01*
X1020470Y-371551D01*
X1068324Y-351485D01*
X1116888Y-333248D01*
X1166114Y-316839D01*
X1215948Y-302310D01*
X1266291Y-289661D01*
X1317040Y-278942D01*
X1368196Y-270154D01*
X1419656Y-263347D01*
X1471320Y-258419D01*
X1523085Y-255473D01*
X1575104Y-254508D01*
X6474663Y-254508D01*
X6527088Y-255473D01*
X6578904Y-258317D01*
X6630568Y-263194D01*
X6681978Y-270002D01*
X6733133Y-278739D01*
X6783933Y-289407D01*
X6834276Y-302006D01*
X6884111Y-316484D01*
X6933336Y-332841D01*
X6981952Y-351078D01*
X7029805Y-371094D01*
X7076897Y-392938D01*
X7123074Y-416559D01*
X7168388Y-441909D01*
X7212685Y-468934D01*
X7255916Y-497585D01*
X7298080Y-527913D01*
X7339025Y-559765D01*
X7378700Y-593191D01*
X7417155Y-628091D01*
X7454239Y-664362D01*
X7489901Y-702056D01*
X7524089Y-741070D01*
X7556855Y-781354D01*
X7587996Y-822858D01*
X7617612Y-865479D01*
X7645552Y-909218D01*
X7671816Y-953922D01*
X7696352Y-999642D01*
X7719161Y-1046276D01*
X7740192Y-1093724D01*
X7759446Y-1141933D01*
X7776819Y-1190802D01*
X7792364Y-1240332D01*
X7805978Y-1290370D01*
X7817713Y-1340916D01*
X7827518Y-1391920D01*
X7835392Y-1443177D01*
X7841335Y-1494739D01*
X7845298Y-1546504D01*
X7847330Y-1598320D01*
X7847380Y-1650238D01*
X7845450Y-1702104D01*
X7841589Y-1753819D01*
X7835747Y-1805381D01*
X7827975Y-1856689D01*
X7818272Y-1907692D01*
X7806639Y-1958238D01*
X7793075Y-2008378D01*
X7777632Y-2057907D01*
X7760360Y-2106828D01*
X7741208Y-2155088D01*
X7720279Y-2202535D01*
X7697571Y-2249220D01*
X7673086Y-2294940D01*
X7646924Y-2339746D01*
X7619034Y-2383536D01*
X7589520Y-2426208D01*
X7558430Y-2467762D01*
X7525816Y-2508097D01*
X7491679Y-2547213D01*
X7456068Y-2584958D01*
X7419035Y-2621330D01*
X7380681Y-2656281D01*
X7341057Y-2689758D01*
X7300163Y-2721711D01*
X7258100Y-2752090D01*
X7214920Y-2780842D01*
X7170674Y-2807970D01*
X7125411Y-2833420D01*
X7079234Y-2857093D01*
X7032193Y-2879039D01*
X6984390Y-2899156D01*
X6935825Y-2917444D01*
X6886600Y-2933903D01*
X6836816Y-2948482D01*
X6786473Y-2961182D01*
X6735724Y-2971952D01*
X6684619Y-2980791D01*
X6633159Y-2987700D01*
X6581495Y-2992678D01*
X6529679Y-2995676D01*
X6477406Y-2996692D01*
X2647137Y-2996692D01*
X2643276Y-2995930D01*
X2639974Y-2993694D01*
X2637739Y-2990443D01*
X2636977Y-2986532D01*
X2637739Y-2982620D01*
X2639974Y-2979369D01*
X2643428Y-2975864D01*
X2646730Y-2973679D01*
X2650642Y-2972917D01*
X3907688Y-2972917D01*
X3915156Y-2972104D01*
X3921810Y-2969920D01*
X3928008Y-2966364D01*
X3932174Y-2962808D01*
X4270603Y-2624378D01*
X4275378Y-2618486D01*
X4278528Y-2612288D01*
X4280357Y-2605379D01*
X4280814Y-2599893D01*
X4280814Y-2443886D01*
X4280052Y-2436418D01*
X4277868Y-2429764D01*
X4274312Y-2423566D01*
X4270705Y-2419350D01*
X4262577Y-2411222D01*
X4260545Y-2408275D01*
X4259630Y-2404719D01*
X4260037Y-2401112D01*
X4261713Y-2397861D01*
X4264406Y-2395423D01*
X4264406Y-2344369D01*
X4237990Y-2344369D01*
X4234078Y-2343556D01*
X4230776Y-2341372D01*
X4228592Y-2338070D01*
X4227830Y-2334209D01*
X4227830Y-2281834D01*
X4228592Y-2277922D01*
X4230776Y-2274620D01*
X4234078Y-2272436D01*
X4237990Y-2271674D01*
X4264406Y-2271674D01*
X4264406Y-2222093D01*
X4255058Y-2222093D01*
X4248759Y-2222804D01*
X4239260Y-2226157D01*
X4234992Y-2225802D01*
X4231233Y-2223719D01*
X4228693Y-2220264D01*
X4227830Y-2216048D01*
X4227830Y-2001266D01*
X4227626Y-1997506D01*
X4226153Y-1990648D01*
X4223308Y-1984248D01*
X4219194Y-1978609D01*
X4213961Y-1973884D01*
X4208119Y-1970481D01*
X4202836Y-1968754D01*
X4200093Y-1967331D01*
X4197908Y-1965147D01*
X4196486Y-1962454D01*
X4194657Y-1957324D01*
X4191609Y-1952396D01*
X4187494Y-1948332D01*
X4182618Y-1945233D01*
X4177131Y-1943303D01*
X4170832Y-1942592D01*
X4051960Y-1942592D01*
X4045661Y-1943303D01*
X4040174Y-1945233D01*
X4035298Y-1948332D01*
X4031183Y-1952396D01*
X4028135Y-1957324D01*
X4026204Y-1962759D01*
X4025493Y-1969058D01*
X4025493Y-2032965D01*
X4026204Y-2039264D01*
X4028135Y-2044700D01*
X4031183Y-2049627D01*
X4035298Y-2053691D01*
X4040174Y-2056790D01*
X4045661Y-2058720D01*
X4051960Y-2059432D01*
X4150614Y-2059432D01*
X4154474Y-2060193D01*
X4157776Y-2062378D01*
X4159961Y-2065680D01*
X4160774Y-2069592D01*
X4160774Y-2220417D01*
X4160012Y-2224278D01*
X4157827Y-2227529D01*
X4154627Y-2229764D01*
X4150766Y-2230577D01*
X4146905Y-2229916D01*
X4138676Y-2224735D01*
X4133545Y-2222906D01*
X4130852Y-2221484D01*
X4128668Y-2219299D01*
X4127246Y-2216556D01*
X4125518Y-2211273D01*
X4122115Y-2205431D01*
X4117390Y-2200198D01*
X4111751Y-2196084D01*
X4105351Y-2193239D01*
X4098493Y-2191766D01*
X4094734Y-2191613D01*
X3940708Y-2191613D01*
X3933240Y-2192375D01*
X3926586Y-2194560D01*
X3920388Y-2198116D01*
X3916222Y-2201672D01*
X3888232Y-2229662D01*
X3884523Y-2231999D01*
X3880154Y-2232609D01*
X3876700Y-2232304D01*
X3866896Y-2233168D01*
X3857396Y-2235708D01*
X3848506Y-2239822D01*
X3840429Y-2245461D01*
X3833520Y-2252421D01*
X3827881Y-2260447D01*
X3823715Y-2269388D01*
X3821176Y-2278837D01*
X3820312Y-2288641D01*
X3821176Y-2298446D01*
X3823715Y-2307894D01*
X3827881Y-2316835D01*
X3833520Y-2324862D01*
X3840429Y-2331821D01*
X3848506Y-2337460D01*
X3857396Y-2341575D01*
X3866896Y-2344115D01*
X3876700Y-2344978D01*
X3886454Y-2344115D01*
X3895953Y-2341575D01*
X3904843Y-2337460D01*
X3912920Y-2331821D01*
X3919829Y-2324862D01*
X3925468Y-2316835D01*
X3929634Y-2307894D01*
X3932174Y-2298446D01*
X3933037Y-2288641D01*
X3932732Y-2285136D01*
X3933291Y-2280767D01*
X3935679Y-2277059D01*
X3951122Y-2261616D01*
X3954424Y-2259431D01*
X3958285Y-2258669D01*
X4026408Y-2258669D01*
X4030319Y-2259431D01*
X4033621Y-2261616D01*
X4035806Y-2264918D01*
X4036568Y-2268829D01*
X4036568Y-2367432D01*
X4037279Y-2373731D01*
X4039209Y-2379218D01*
X4042308Y-2384094D01*
X4046372Y-2388209D01*
X4051300Y-2391257D01*
X4056735Y-2393188D01*
X4063034Y-2393899D01*
X4126941Y-2393899D01*
X4133240Y-2393188D01*
X4138676Y-2391257D01*
X4147058Y-2385771D01*
X4150715Y-2384907D01*
X4154474Y-2385517D01*
X4157776Y-2387396D01*
X4160113Y-2390394D01*
X4161180Y-2394000D01*
X4161536Y-2397302D01*
X4163720Y-2403957D01*
X4167225Y-2410104D01*
X4171746Y-2415286D01*
X4173677Y-2418588D01*
X4174236Y-2422398D01*
X4173321Y-2426157D01*
X4171086Y-2429306D01*
X4167886Y-2431389D01*
X4164076Y-2432100D01*
X4159046Y-2432100D01*
X4152747Y-2432812D01*
X4147312Y-2434742D01*
X4142384Y-2437790D01*
X4138320Y-2441905D01*
X4135221Y-2446782D01*
X4133291Y-2452268D01*
X4132579Y-2458567D01*
X4132579Y-2577439D01*
X4133291Y-2583738D01*
X4135221Y-2589225D01*
X4138625Y-2594660D01*
X4139946Y-2597810D01*
X4140149Y-2601214D01*
X4139184Y-2604465D01*
X4137202Y-2607259D01*
X3982516Y-2761945D01*
X3979214Y-2764180D01*
X3975303Y-2764942D01*
X3928262Y-2764942D01*
X3924655Y-2764282D01*
X3921506Y-2762351D01*
X3919220Y-2759405D01*
X3918153Y-2755849D01*
X3918458Y-2752140D01*
X3919880Y-2746806D01*
X3920337Y-2741269D01*
X3920337Y-2559964D01*
X3919575Y-2552496D01*
X3917391Y-2545842D01*
X3913835Y-2539644D01*
X3910228Y-2535478D01*
X3394862Y-2020112D01*
X3392678Y-2016810D01*
X3391915Y-2012950D01*
X3392678Y-2009038D01*
X3394862Y-2005736D01*
X3567176Y-1833473D01*
X3570884Y-1831086D01*
X3575253Y-1830527D01*
X3578758Y-1830832D01*
X3588512Y-1829968D01*
X3598011Y-1827428D01*
X3606901Y-1823262D01*
X3614978Y-1817624D01*
X3621887Y-1810715D01*
X3627526Y-1802638D01*
X3631692Y-1793748D01*
X3634232Y-1784248D01*
X3635095Y-1774494D01*
X3634282Y-1765554D01*
X3634790Y-1761439D01*
X3636924Y-1757832D01*
X3640328Y-1755393D01*
X3644442Y-1754530D01*
X4017568Y-1754530D01*
X4021328Y-1755241D01*
X4024579Y-1757324D01*
X4026814Y-1760474D01*
X4027728Y-1764233D01*
X4027170Y-1768043D01*
X4026204Y-1770735D01*
X4025493Y-1777034D01*
X4025493Y-1786382D01*
X4075074Y-1786382D01*
X4075074Y-1764690D01*
X4075836Y-1760778D01*
X4078020Y-1757527D01*
X4081322Y-1755292D01*
X4085234Y-1754530D01*
X4137609Y-1754530D01*
X4141470Y-1755292D01*
X4144772Y-1757527D01*
X4146956Y-1760778D01*
X4147769Y-1764690D01*
X4147769Y-1786382D01*
X4197299Y-1786382D01*
X4197299Y-1777034D01*
X4196588Y-1770735D01*
X4195622Y-1768043D01*
X4195064Y-1764233D01*
X4195978Y-1760474D01*
X4198213Y-1757324D01*
X4201464Y-1755241D01*
X4205224Y-1754530D01*
X4309313Y-1754530D01*
X4313428Y-1755393D01*
X4316831Y-1757832D01*
X4318965Y-1761439D01*
X4319422Y-1765604D01*
X4318457Y-1776425D01*
X4319320Y-1786178D01*
X4321860Y-1795678D01*
X4326026Y-1804568D01*
X4331665Y-1812645D01*
X4338574Y-1819554D01*
X4346651Y-1825193D01*
X4350969Y-1827225D01*
X4354118Y-1829511D01*
X4356201Y-1832864D01*
X4356862Y-1836674D01*
X4355998Y-1840484D01*
X4353763Y-1843684D01*
X4350512Y-1845868D01*
X4346702Y-1846580D01*
X4261967Y-1846580D01*
X4255668Y-1847291D01*
X4250182Y-1849221D01*
X4245305Y-1852320D01*
X4241190Y-1856384D01*
X4238142Y-1861312D01*
X4236212Y-1866747D01*
X4235500Y-1873046D01*
X4235500Y-1936953D01*
X4236212Y-1943252D01*
X4238142Y-1948688D01*
X4241190Y-1953615D01*
X4245305Y-1957679D01*
X4250182Y-1960778D01*
X4255668Y-1962708D01*
X4261967Y-1963420D01*
X4354982Y-1963420D01*
X4358894Y-1964182D01*
X4362145Y-1966366D01*
X4364380Y-1969668D01*
X4365142Y-1973580D01*
X4364380Y-1977440D01*
X4362145Y-1980742D01*
X4328261Y-2014677D01*
X4323486Y-2020519D01*
X4320336Y-2026767D01*
X4318508Y-2033625D01*
X4318050Y-2039162D01*
X4318050Y-2133041D01*
X4318863Y-2140508D01*
X4320997Y-2147163D01*
X4324553Y-2153361D01*
X4328160Y-2157526D01*
X4717846Y-2547264D01*
X4723739Y-2551988D01*
X4729937Y-2555189D01*
X4736846Y-2557018D01*
X4742332Y-2557475D01*
X4960112Y-2557475D01*
X4967579Y-2556662D01*
X4974285Y-2554478D01*
X4980432Y-2550922D01*
X4984648Y-2547366D01*
X4994198Y-2537764D01*
X4999024Y-2531821D01*
X5001412Y-2527452D01*
X5003596Y-2520696D01*
X5005019Y-2517902D01*
X5007152Y-2515717D01*
X5010353Y-2514092D01*
X5015280Y-2510993D01*
X5019344Y-2506929D01*
X5022443Y-2502001D01*
X5024374Y-2496566D01*
X5025085Y-2490216D01*
X5025085Y-2437384D01*
X5024374Y-2431034D01*
X5022443Y-2425598D01*
X5016652Y-2416911D01*
X5015890Y-2413000D01*
X5016652Y-2409088D01*
X5019344Y-2405329D01*
X5022392Y-2400503D01*
X5024678Y-2397963D01*
X5027676Y-2396286D01*
X5031028Y-2395728D01*
X5083606Y-2395728D01*
X5087467Y-2396490D01*
X5090769Y-2398725D01*
X5144719Y-2452624D01*
X5150561Y-2457399D01*
X5156809Y-2460548D01*
X5163667Y-2462377D01*
X5169204Y-2462834D01*
X5315254Y-2462834D01*
X5319115Y-2463596D01*
X5322417Y-2465832D01*
X5324652Y-2469083D01*
X5325414Y-2472994D01*
X5324652Y-2476906D01*
X5322417Y-2480157D01*
X5321046Y-2481529D01*
X5316321Y-2487422D01*
X5313121Y-2493619D01*
X5311292Y-2500528D01*
X5310886Y-2506014D01*
X5310886Y-2685237D01*
X5310073Y-2689098D01*
X5307888Y-2692400D01*
X5301234Y-2699054D01*
X5295595Y-2707132D01*
X5291429Y-2716022D01*
X5288889Y-2725521D01*
X5288026Y-2735326D01*
X5288889Y-2745079D01*
X5291429Y-2754579D01*
X5295595Y-2763469D01*
X5301234Y-2771546D01*
X5308142Y-2778455D01*
X5316220Y-2784094D01*
X5325110Y-2788259D01*
X5334609Y-2790799D01*
X5344414Y-2791663D01*
X5354167Y-2790799D01*
X5363667Y-2788259D01*
X5372557Y-2784094D01*
X5380634Y-2778455D01*
X5387543Y-2771546D01*
X5393182Y-2763469D01*
X5397347Y-2754579D01*
X5399887Y-2745079D01*
X5400751Y-2735326D01*
X5399887Y-2725521D01*
X5397347Y-2716022D01*
X5393182Y-2707132D01*
X5387543Y-2699054D01*
X5380888Y-2692400D01*
X5378704Y-2689098D01*
X5377942Y-2685237D01*
X5377942Y-2523744D01*
X5378704Y-2519832D01*
X5380888Y-2516530D01*
X5818276Y-2079193D01*
X5821984Y-2076805D01*
X5826302Y-2076246D01*
X5830519Y-2077567D01*
X5833770Y-2080564D01*
X5836259Y-2084120D01*
X5843168Y-2091029D01*
X5850331Y-2096058D01*
X5853328Y-2099310D01*
X5854649Y-2103475D01*
X5854090Y-2107844D01*
X5851702Y-2111552D01*
X5584139Y-2379116D01*
X5580430Y-2381504D01*
X5576062Y-2382062D01*
X5572556Y-2381758D01*
X5562752Y-2382621D01*
X5553303Y-2385161D01*
X5544362Y-2389327D01*
X5536336Y-2394966D01*
X5529376Y-2401874D01*
X5523738Y-2409952D01*
X5519623Y-2418842D01*
X5517083Y-2428341D01*
X5516219Y-2438146D01*
X5517083Y-2447899D01*
X5519623Y-2457399D01*
X5523738Y-2466289D01*
X5529376Y-2474366D01*
X5536336Y-2481275D01*
X5544362Y-2486914D01*
X5553252Y-2491079D01*
X5564073Y-2493873D01*
X5567527Y-2495499D01*
X5570118Y-2498344D01*
X5571540Y-2501900D01*
X5571490Y-2505710D01*
X5570016Y-2509266D01*
X5567324Y-2512009D01*
X5559704Y-2517343D01*
X5552795Y-2524302D01*
X5547156Y-2532329D01*
X5542991Y-2541270D01*
X5540451Y-2550718D01*
X5539587Y-2560523D01*
X5540451Y-2570327D01*
X5542991Y-2579776D01*
X5547156Y-2588717D01*
X5552795Y-2596743D01*
X5559704Y-2603703D01*
X5567781Y-2609342D01*
X5576671Y-2613456D01*
X5586171Y-2615996D01*
X5595975Y-2616860D01*
X5605729Y-2615996D01*
X5615228Y-2613456D01*
X5624118Y-2609342D01*
X5632196Y-2603703D01*
X5639104Y-2596743D01*
X5644743Y-2588717D01*
X5648909Y-2579776D01*
X5651449Y-2570327D01*
X5652312Y-2560523D01*
X5651449Y-2550718D01*
X5648909Y-2541270D01*
X5644743Y-2532329D01*
X5639104Y-2524302D01*
X5632196Y-2517343D01*
X5624118Y-2511704D01*
X5615279Y-2507589D01*
X5604408Y-2504795D01*
X5600954Y-2503119D01*
X5598363Y-2500325D01*
X5596991Y-2496718D01*
X5597042Y-2492908D01*
X5598515Y-2489352D01*
X5601157Y-2486609D01*
X5608777Y-2481275D01*
X5615736Y-2474366D01*
X5621375Y-2466289D01*
X5625490Y-2457399D01*
X5628030Y-2447899D01*
X5628894Y-2438146D01*
X5628589Y-2434640D01*
X5629198Y-2430272D01*
X5631535Y-2426563D01*
X6175298Y-1882800D01*
X6180023Y-1876958D01*
X6183223Y-1870710D01*
X6185052Y-1863852D01*
X6185509Y-1858314D01*
X6185509Y-1682902D01*
X6186322Y-1678889D01*
X6188608Y-1675587D01*
X6192062Y-1673402D01*
X6196076Y-1672742D01*
X6200038Y-1673707D01*
X6210147Y-1678584D01*
X6219596Y-1681073D01*
X6229400Y-1681937D01*
X6239205Y-1681073D01*
X6248654Y-1678533D01*
X6257594Y-1674418D01*
X6265621Y-1668780D01*
X6272580Y-1661820D01*
X6278219Y-1653793D01*
X6282334Y-1644853D01*
X6284874Y-1635404D01*
X6285738Y-1625600D01*
X6285433Y-1622094D01*
X6286042Y-1617726D01*
X6288379Y-1614017D01*
X6447028Y-1455369D01*
X6450736Y-1453032D01*
X6455105Y-1452422D01*
X6459321Y-1453743D01*
X6462522Y-1456740D01*
X6464249Y-1460804D01*
X6463030Y-1475587D01*
X6463893Y-1485392D01*
X6466433Y-1494840D01*
X6470548Y-1503781D01*
X6476187Y-1511808D01*
X6483146Y-1518767D01*
X6491173Y-1524406D01*
X6500114Y-1528521D01*
X6509562Y-1531061D01*
X6519367Y-1531924D01*
X6529171Y-1531061D01*
X6538620Y-1528521D01*
X6547561Y-1524406D01*
X6555587Y-1518767D01*
X6562547Y-1511808D01*
X6568186Y-1503781D01*
X6572300Y-1494840D01*
X6574840Y-1485392D01*
X6575704Y-1475587D01*
X6574840Y-1465783D01*
X6572300Y-1456334D01*
X6568186Y-1447393D01*
X6562547Y-1439367D01*
X6555587Y-1432407D01*
X6547561Y-1426768D01*
X6538620Y-1422654D01*
X6529171Y-1420114D01*
X6519367Y-1419250D01*
X6508953Y-1420266D01*
X6504584Y-1420469D01*
X6500520Y-1418742D01*
X6497523Y-1415542D01*
X6496202Y-1411325D01*
X6496812Y-1406956D01*
X6499148Y-1403248D01*
X6624421Y-1277975D01*
X6627723Y-1275791D01*
X6631635Y-1275029D01*
X6635496Y-1275791D01*
X6638798Y-1277975D01*
X6640982Y-1281277D01*
X6641795Y-1285189D01*
X6641795Y-1407261D01*
X6641033Y-1411020D01*
X6639001Y-1414221D01*
X6635902Y-1416456D01*
X6631178Y-1418640D01*
X6623151Y-1424279D01*
X6616192Y-1431239D01*
X6610553Y-1439265D01*
X6606438Y-1448206D01*
X6603898Y-1457655D01*
X6603034Y-1467459D01*
X6603898Y-1477264D01*
X6606438Y-1486712D01*
X6610553Y-1495653D01*
X6616192Y-1503680D01*
X6621475Y-1508912D01*
X6623456Y-1511808D01*
X6624370Y-1515211D01*
X6624066Y-1518767D01*
X6622592Y-1521917D01*
X6618833Y-1527302D01*
X6614668Y-1536242D01*
X6612128Y-1545691D01*
X6611264Y-1555496D01*
X6612128Y-1565300D01*
X6614210Y-1573022D01*
X6614464Y-1576832D01*
X6613347Y-1580489D01*
X6610908Y-1583436D01*
X6607556Y-1585315D01*
X6603746Y-1585772D01*
X6600037Y-1584807D01*
X6590030Y-1580083D01*
X6580581Y-1577543D01*
X6570776Y-1576679D01*
X6560972Y-1577543D01*
X6551523Y-1580083D01*
X6542582Y-1584248D01*
X6534556Y-1589887D01*
X6527596Y-1596796D01*
X6521957Y-1604873D01*
X6517843Y-1613763D01*
X6515303Y-1623263D01*
X6514439Y-1633067D01*
X6515303Y-1642821D01*
X6517843Y-1652320D01*
X6521957Y-1661210D01*
X6527596Y-1669288D01*
X6534556Y-1676196D01*
X6542582Y-1681835D01*
X6551523Y-1686001D01*
X6560972Y-1688541D01*
X6570776Y-1689404D01*
X6580581Y-1688541D01*
X6590030Y-1686001D01*
X6598970Y-1681835D01*
X6606997Y-1676196D01*
X6613956Y-1669288D01*
X6619595Y-1661210D01*
X6623710Y-1652320D01*
X6626250Y-1642821D01*
X6627114Y-1633067D01*
X6626250Y-1623263D01*
X6624218Y-1615541D01*
X6623913Y-1611680D01*
X6625081Y-1608023D01*
X6627520Y-1605076D01*
X6630873Y-1603248D01*
X6634632Y-1602740D01*
X6638340Y-1603705D01*
X6648399Y-1608480D01*
X6657848Y-1610969D01*
X6667652Y-1611833D01*
X6677406Y-1610969D01*
X6686905Y-1608429D01*
X6695795Y-1604314D01*
X6703872Y-1598676D01*
X6710781Y-1591716D01*
X6716420Y-1583690D01*
X6720586Y-1574749D01*
X6723125Y-1565300D01*
X6723989Y-1555496D01*
X6723684Y-1551990D01*
X6724243Y-1547622D01*
X6726631Y-1543913D01*
X6736181Y-1534363D01*
X6740906Y-1528521D01*
X6744106Y-1522272D01*
X6745935Y-1515414D01*
X6746392Y-1509877D01*
X6746392Y-1445818D01*
X6745579Y-1438351D01*
X6743395Y-1431696D01*
X6739839Y-1425498D01*
X6736283Y-1421333D01*
X6711797Y-1396847D01*
X6709613Y-1393545D01*
X6708851Y-1389684D01*
X6708851Y-1286764D01*
X6709613Y-1282852D01*
X6711797Y-1279550D01*
X6715099Y-1277366D01*
X6719011Y-1276604D01*
X6722872Y-1277366D01*
X6735978Y-1287068D01*
X6746138Y-1292606D01*
X6756908Y-1296619D01*
X6768185Y-1299057D01*
X6780072Y-1299921D01*
X6833260Y-1299921D01*
X6837273Y-1300734D01*
X6840626Y-1303070D01*
X6842759Y-1306474D01*
X6843420Y-1310487D01*
X6842455Y-1314450D01*
X6839966Y-1317701D01*
X6835546Y-1321612D01*
X6829348Y-1329334D01*
X6824472Y-1337970D01*
X6821220Y-1347266D01*
X6819544Y-1357071D01*
X6819544Y-1366926D01*
X6821220Y-1376730D01*
X6824472Y-1386027D01*
X6829348Y-1394663D01*
X6835546Y-1402384D01*
X6842963Y-1408938D01*
X6851396Y-1414119D01*
X6860590Y-1417828D01*
X6870293Y-1419910D01*
X6880148Y-1420317D01*
X6890003Y-1419047D01*
X6899452Y-1416151D01*
X6908292Y-1411681D01*
X6916267Y-1405839D01*
X6923074Y-1398676D01*
X6928662Y-1390446D01*
X6932726Y-1381455D01*
X6935216Y-1371854D01*
X6936079Y-1361998D01*
X6935216Y-1352143D01*
X6932726Y-1342542D01*
X6928662Y-1333550D01*
X6923074Y-1325321D01*
X6916267Y-1318209D01*
X6907275Y-1311656D01*
X6904431Y-1308404D01*
X6903161Y-1304239D01*
X6903770Y-1299921D01*
X6906107Y-1296263D01*
X6909714Y-1293926D01*
X6913321Y-1292606D01*
X6923430Y-1287068D01*
X6932675Y-1280160D01*
X6940854Y-1271981D01*
X6947763Y-1262735D01*
X6953300Y-1252626D01*
X6957314Y-1241806D01*
X6959752Y-1230528D01*
X6960616Y-1218996D01*
X6959752Y-1207516D01*
X6957314Y-1196238D01*
X6953300Y-1185418D01*
X6947763Y-1175308D01*
X6940854Y-1166063D01*
X6932675Y-1157884D01*
X6923430Y-1150975D01*
X6913321Y-1145438D01*
X6902500Y-1141425D01*
X6891223Y-1138936D01*
X6879336Y-1138123D01*
X6780072Y-1138123D01*
X6768185Y-1138936D01*
X6756908Y-1141425D01*
X6751116Y-1143558D01*
X6747256Y-1144219D01*
X6743395Y-1143355D01*
X6740194Y-1141120D01*
X6738112Y-1137818D01*
X6737400Y-1133957D01*
X6738162Y-1130147D01*
X6740347Y-1126896D01*
X6863384Y-1003858D01*
X6866686Y-1001674D01*
X6870547Y-1000912D01*
X6903262Y-1000912D01*
X6907123Y-1001674D01*
X6910425Y-1003858D01*
X6917080Y-1010513D01*
X6925157Y-1016152D01*
X6934047Y-1020318D01*
X6943547Y-1022858D01*
X6953351Y-1023721D01*
X6963105Y-1022858D01*
X6972604Y-1020318D01*
X6981494Y-1016152D01*
X6989572Y-1010513D01*
X6996480Y-1003604D01*
X7002119Y-995527D01*
X7006285Y-986637D01*
X7008825Y-977137D01*
X7009688Y-967384D01*
X7008825Y-957580D01*
X7006285Y-948080D01*
X7002119Y-939190D01*
X6996480Y-931113D01*
X6989572Y-924204D01*
X6981494Y-918565D01*
X6972604Y-914400D01*
X6963105Y-911860D01*
X6953351Y-910996D01*
X6943547Y-911860D01*
X6934047Y-914400D01*
X6925157Y-918565D01*
X6917080Y-924204D01*
X6910425Y-930859D01*
X6907123Y-933043D01*
X6903262Y-933856D01*
X6852970Y-933856D01*
X6845503Y-934618D01*
X6838848Y-936802D01*
X6832650Y-940358D01*
X6828485Y-943914D01*
X6598513Y-1173886D01*
X6593738Y-1179779D01*
X6590588Y-1185976D01*
X6588759Y-1192885D01*
X6588302Y-1198372D01*
X6588302Y-1215085D01*
X6587540Y-1218946D01*
X6585305Y-1222248D01*
X6301486Y-1506118D01*
X6297777Y-1508455D01*
X6293408Y-1509064D01*
X6289192Y-1507744D01*
X6285992Y-1504746D01*
X6281724Y-1498650D01*
X6274765Y-1491742D01*
X6266738Y-1486103D01*
X6257798Y-1481937D01*
X6248349Y-1479397D01*
X6238544Y-1478534D01*
X6228740Y-1479397D01*
X6219291Y-1481937D01*
X6210350Y-1486103D01*
X6202324Y-1491742D01*
X6195415Y-1498650D01*
X6189116Y-1507744D01*
X6185865Y-1510741D01*
X6181699Y-1512062D01*
X6177280Y-1511503D01*
X6173571Y-1509115D01*
X6093256Y-1428800D01*
X6087364Y-1424025D01*
X6081166Y-1420876D01*
X6074257Y-1419047D01*
X6068771Y-1418590D01*
X5947511Y-1418590D01*
X5940044Y-1419402D01*
X5933389Y-1421536D01*
X5927191Y-1425092D01*
X5923026Y-1428699D01*
X5918454Y-1433220D01*
X5913729Y-1439113D01*
X5910478Y-1445463D01*
X5908802Y-1451152D01*
X5907176Y-1454353D01*
X5904585Y-1456791D01*
X5899607Y-1459941D01*
X5895492Y-1464106D01*
X5892393Y-1468983D01*
X5890514Y-1474470D01*
X5889802Y-1480769D01*
X5889802Y-1501597D01*
X5888837Y-1505813D01*
X5886246Y-1509318D01*
X5882386Y-1511350D01*
X5878017Y-1511604D01*
X5874004Y-1510030D01*
X5870143Y-1507439D01*
X5863539Y-1504188D01*
X5863539Y-1553260D01*
X5888228Y-1553260D01*
X5892088Y-1554022D01*
X5895390Y-1556207D01*
X5899607Y-1560423D01*
X5904484Y-1563471D01*
X5909970Y-1565402D01*
X5916269Y-1566113D01*
X5961837Y-1566113D01*
X5965698Y-1566875D01*
X5969000Y-1569110D01*
X5971235Y-1572361D01*
X5971997Y-1576273D01*
X5971997Y-1624126D01*
X5971235Y-1628038D01*
X5969000Y-1631289D01*
X5965698Y-1633524D01*
X5961837Y-1634286D01*
X5916269Y-1634286D01*
X5909970Y-1634998D01*
X5904484Y-1636928D01*
X5899607Y-1639976D01*
X5895390Y-1644192D01*
X5892088Y-1646377D01*
X5888228Y-1647139D01*
X5863539Y-1647139D01*
X5863539Y-1671472D01*
X5862828Y-1675333D01*
X5860948Y-1679956D01*
X5859475Y-1686712D01*
X5859322Y-1690471D01*
X5859322Y-1844700D01*
X5858510Y-1848561D01*
X5856325Y-1851863D01*
X5734050Y-1974189D01*
X5730849Y-1976323D01*
X5727141Y-1977136D01*
X5723382Y-1976526D01*
X5720080Y-1974596D01*
X5717743Y-1971548D01*
X5716727Y-1967890D01*
X5716320Y-1963216D01*
X5713780Y-1953768D01*
X5709615Y-1944827D01*
X5703976Y-1936800D01*
X5697067Y-1929841D01*
X5688990Y-1924202D01*
X5680100Y-1920087D01*
X5670600Y-1917547D01*
X5660847Y-1916684D01*
X5651042Y-1917547D01*
X5641543Y-1920087D01*
X5632653Y-1924202D01*
X5624576Y-1929841D01*
X5617667Y-1936800D01*
X5612028Y-1944827D01*
X5607862Y-1953768D01*
X5605322Y-1963216D01*
X5604459Y-1973021D01*
X5605322Y-1982825D01*
X5607862Y-1992274D01*
X5612028Y-2001215D01*
X5617667Y-2009241D01*
X5624576Y-2016201D01*
X5632653Y-2021839D01*
X5641543Y-2025954D01*
X5651042Y-2028494D01*
X5655665Y-2028901D01*
X5659323Y-2029968D01*
X5662371Y-2032304D01*
X5664352Y-2035556D01*
X5664962Y-2039315D01*
X5664098Y-2043074D01*
X5661964Y-2046224D01*
X5633059Y-2075129D01*
X5629351Y-2077516D01*
X5624982Y-2078075D01*
X5620766Y-2076754D01*
X5617514Y-2073808D01*
X5611469Y-2065121D01*
X5604560Y-2058212D01*
X5596483Y-2052574D01*
X5587593Y-2048408D01*
X5578094Y-2045868D01*
X5568340Y-2045004D01*
X5558536Y-2045868D01*
X5549036Y-2048408D01*
X5540146Y-2052574D01*
X5532069Y-2058212D01*
X5525160Y-2065121D01*
X5519521Y-2073198D01*
X5515356Y-2082088D01*
X5512816Y-2091588D01*
X5511952Y-2101392D01*
X5512358Y-2105558D01*
X5511850Y-2109673D01*
X5509818Y-2113229D01*
X5506516Y-2115667D01*
X5502503Y-2116632D01*
X5498439Y-2115921D01*
X5495036Y-2113635D01*
X5493867Y-2112467D01*
X5488584Y-2108758D01*
X5486095Y-2106269D01*
X5484622Y-2103069D01*
X5484317Y-2099564D01*
X5485180Y-2096160D01*
X5488025Y-2090115D01*
X5490565Y-2080666D01*
X5491429Y-2070862D01*
X5490565Y-2061057D01*
X5488025Y-2051608D01*
X5483860Y-2042668D01*
X5478221Y-2034641D01*
X5471312Y-2027682D01*
X5459120Y-2019300D01*
X5457037Y-2016048D01*
X5456377Y-2012188D01*
X5457190Y-2008428D01*
X5459323Y-2005177D01*
X5553456Y-1911096D01*
X5558180Y-1905254D01*
X5561380Y-1899005D01*
X5563209Y-1892147D01*
X5563666Y-1886610D01*
X5563666Y-1876145D01*
X5564327Y-1872488D01*
X5566257Y-1869338D01*
X5569204Y-1867103D01*
X5572760Y-1866036D01*
X5578195Y-1866798D01*
X5588000Y-1867662D01*
X5597804Y-1866798D01*
X5607253Y-1864258D01*
X5616194Y-1860143D01*
X5624220Y-1854504D01*
X5631180Y-1847545D01*
X5636818Y-1839518D01*
X5640933Y-1830578D01*
X5643473Y-1821129D01*
X5644337Y-1811324D01*
X5643473Y-1801520D01*
X5640933Y-1792071D01*
X5636818Y-1783130D01*
X5631180Y-1775104D01*
X5624220Y-1768144D01*
X5619597Y-1764893D01*
X5616600Y-1761693D01*
X5615279Y-1757476D01*
X5615889Y-1753107D01*
X5618226Y-1749399D01*
X5644896Y-1722729D01*
X5648604Y-1720392D01*
X5652973Y-1719783D01*
X5656478Y-1720088D01*
X5666282Y-1719224D01*
X5675731Y-1716684D01*
X5684672Y-1712569D01*
X5692698Y-1706930D01*
X5699658Y-1699971D01*
X5705297Y-1691944D01*
X5709412Y-1683004D01*
X5711952Y-1673555D01*
X5712358Y-1669084D01*
X5713577Y-1665122D01*
X5716219Y-1661972D01*
X5719978Y-1660143D01*
X5724093Y-1659940D01*
X5727954Y-1661414D01*
X5731662Y-1665376D01*
X5740857Y-1675942D01*
X5751423Y-1685137D01*
X5763056Y-1692960D01*
X5769660Y-1696212D01*
X5769660Y-1647139D01*
X5717133Y-1647139D01*
X5713374Y-1646428D01*
X5710174Y-1644396D01*
X5707938Y-1641297D01*
X5705297Y-1635556D01*
X5699658Y-1627530D01*
X5692698Y-1620570D01*
X5684672Y-1614932D01*
X5675731Y-1610817D01*
X5661964Y-1607210D01*
X5658967Y-1604924D01*
X5656986Y-1601774D01*
X5656326Y-1598066D01*
X5656326Y-1210767D01*
X5655513Y-1203299D01*
X5653328Y-1196644D01*
X5649772Y-1190447D01*
X5646216Y-1186230D01*
X5419750Y-959764D01*
X5417362Y-956056D01*
X5416804Y-951737D01*
X5418124Y-947521D01*
X5421122Y-944270D01*
X5425592Y-941120D01*
X5432552Y-934212D01*
X5438190Y-926134D01*
X5442305Y-917244D01*
X5444845Y-907745D01*
X5445709Y-897991D01*
X5444845Y-888187D01*
X5442305Y-878687D01*
X5438190Y-869797D01*
X5432552Y-861720D01*
X5425592Y-854811D01*
X5417566Y-849172D01*
X5408625Y-845007D01*
X5399176Y-842467D01*
X5389372Y-841603D01*
X5385866Y-841908D01*
X5381498Y-841349D01*
X5377789Y-838962D01*
X5076037Y-537210D01*
X5070144Y-532434D01*
X5063947Y-529285D01*
X5057038Y-527456D01*
X5051552Y-526999D01*
X4320032Y-526999D01*
X4315917Y-526135D01*
X4312513Y-523697D01*
X4310380Y-520090D01*
X4309872Y-515975D01*
X4310684Y-507085D01*
X4309821Y-497281D01*
X4307281Y-487781D01*
X4303115Y-478891D01*
X4297476Y-470814D01*
X4290568Y-463905D01*
X4282490Y-458266D01*
X4273600Y-454101D01*
X4264101Y-451561D01*
X4254347Y-450697D01*
X4244543Y-451561D01*
X4235043Y-454101D01*
X4226153Y-458266D01*
X4218076Y-463905D01*
X4214825Y-467156D01*
X4211523Y-469341D01*
X4207662Y-470154D01*
X2027174Y-470154D01*
X2019706Y-470916D01*
X2013051Y-473100D01*
X2006854Y-476656D01*
X2002688Y-480212D01*
X1695094Y-787806D01*
X1690319Y-793699D01*
X1687118Y-800049D01*
X1685645Y-804875D01*
X1685391Y-807415D01*
X1684070Y-811276D01*
X1681429Y-814324D01*
X1677720Y-816051D01*
X1673656Y-816254D01*
X1669897Y-814832D01*
X1664614Y-811530D01*
X1659128Y-809599D01*
X1652828Y-808888D01*
X1613966Y-808888D01*
X1607667Y-809599D01*
X1602181Y-811530D01*
X1596288Y-815187D01*
X1592783Y-816559D01*
X1589024Y-816559D01*
X1585518Y-815187D01*
X1579626Y-811530D01*
X1574139Y-809599D01*
X1567840Y-808888D01*
X1528978Y-808888D01*
X1522679Y-809599D01*
X1517192Y-811530D01*
X1511249Y-815187D01*
X1507744Y-816559D01*
X1503984Y-816559D01*
X1500479Y-815187D01*
X1494586Y-811530D01*
X1489151Y-809599D01*
X1482852Y-808888D01*
X1443939Y-808888D01*
X1437640Y-809599D01*
X1432153Y-811530D01*
X1426311Y-815187D01*
X1422806Y-816559D01*
X1418996Y-816559D01*
X1415491Y-815187D01*
X1409598Y-811530D01*
X1404162Y-809599D01*
X1397863Y-808888D01*
X1358950Y-808888D01*
X1352651Y-809599D01*
X1347165Y-811530D01*
X1341272Y-815187D01*
X1337767Y-816559D01*
X1334008Y-816559D01*
X1330502Y-815187D01*
X1324610Y-811530D01*
X1319123Y-809599D01*
X1312824Y-808888D01*
X1309725Y-808888D01*
X1309725Y-848461D01*
X1322324Y-848461D01*
X1326235Y-849223D01*
X1329537Y-851408D01*
X1331722Y-854710D01*
X1332484Y-858621D01*
X1332484Y-890981D01*
X1331722Y-894892D01*
X1329537Y-898194D01*
X1326235Y-900379D01*
X1322324Y-901141D01*
X1309725Y-901141D01*
X1309725Y-940714D01*
X1312824Y-940714D01*
X1319123Y-940003D01*
X1324610Y-938072D01*
X1329334Y-935126D01*
X1333347Y-933653D01*
X1337665Y-934008D01*
X1341424Y-936091D01*
X1343964Y-939546D01*
X1344879Y-943762D01*
X1344879Y-957021D01*
X1344523Y-959713D01*
X1341526Y-970534D01*
X1340662Y-980287D01*
X1341526Y-990041D01*
X1344066Y-999540D01*
X1348232Y-1008430D01*
X1353870Y-1016508D01*
X1360779Y-1023416D01*
X1368856Y-1029055D01*
X1377746Y-1033221D01*
X1387246Y-1035761D01*
X1397050Y-1036624D01*
X1406804Y-1035761D01*
X1416304Y-1033221D01*
X1429918Y-1026769D01*
X1434033Y-1026769D01*
X1437792Y-1028395D01*
X1446428Y-1034440D01*
X1455369Y-1038606D01*
X1464818Y-1041146D01*
X1474622Y-1042009D01*
X1484426Y-1041146D01*
X1493875Y-1038606D01*
X1500428Y-1035558D01*
X1504391Y-1034592D01*
X1508353Y-1035253D01*
X1511757Y-1037437D01*
X1514094Y-1040790D01*
X1514906Y-1044752D01*
X1514906Y-1922729D01*
X1515364Y-1928622D01*
X1516176Y-1933041D01*
X1516278Y-1935734D01*
X1515364Y-1946452D01*
X1516227Y-1956206D01*
X1518767Y-1965706D01*
X1522882Y-1974596D01*
X1528521Y-1982673D01*
X1535480Y-1989582D01*
X1543507Y-1995220D01*
X1552448Y-1999386D01*
X1561896Y-2001926D01*
X1571701Y-2002789D01*
X1581505Y-2001926D01*
X1590954Y-1999386D01*
X1599895Y-1995220D01*
X1607921Y-1989582D01*
X1614881Y-1982673D01*
X1620520Y-1974596D01*
X1624634Y-1965706D01*
X1627174Y-1956206D01*
X1628038Y-1946452D01*
X1627174Y-1936648D01*
X1624634Y-1927148D01*
X1620520Y-1918258D01*
X1614881Y-1910181D01*
X1607921Y-1903272D01*
X1599895Y-1897634D01*
X1590954Y-1893468D01*
X1589481Y-1893062D01*
X1585569Y-1891030D01*
X1582877Y-1887575D01*
X1581962Y-1883257D01*
X1581962Y-1835861D01*
X1582724Y-1831949D01*
X1584909Y-1828698D01*
X1588211Y-1826463D01*
X1592122Y-1825701D01*
X1614678Y-1825701D01*
X1614678Y-1776171D01*
X1592122Y-1776171D01*
X1588211Y-1775358D01*
X1584909Y-1773174D01*
X1582724Y-1769872D01*
X1581962Y-1766011D01*
X1581962Y-1713636D01*
X1582724Y-1709724D01*
X1584909Y-1706422D01*
X1588211Y-1704238D01*
X1592122Y-1703476D01*
X1614678Y-1703476D01*
X1614678Y-1611172D01*
X1592122Y-1611172D01*
X1588211Y-1610360D01*
X1584909Y-1608175D01*
X1582724Y-1604873D01*
X1581962Y-1601012D01*
X1581962Y-1548638D01*
X1582724Y-1544726D01*
X1584909Y-1541424D01*
X1588211Y-1539240D01*
X1592122Y-1538478D01*
X1614678Y-1538478D01*
X1614678Y-1446174D01*
X1592122Y-1446174D01*
X1588211Y-1445361D01*
X1584909Y-1443177D01*
X1582724Y-1439875D01*
X1581962Y-1436014D01*
X1581962Y-1383639D01*
X1582724Y-1379728D01*
X1584909Y-1376426D01*
X1588211Y-1374241D01*
X1592122Y-1373479D01*
X1614678Y-1373479D01*
X1614678Y-1323898D01*
X1592122Y-1323898D01*
X1588211Y-1323136D01*
X1584909Y-1320901D01*
X1582724Y-1317650D01*
X1581962Y-1313738D01*
X1581962Y-951839D01*
X1582724Y-947928D01*
X1584960Y-944626D01*
X1588312Y-942390D01*
X1592224Y-941679D01*
X1596136Y-942543D01*
X1599438Y-944829D01*
X1601571Y-948182D01*
X1604365Y-954430D01*
X1608480Y-960119D01*
X1613712Y-964793D01*
X1619758Y-968298D01*
X1626412Y-970483D01*
X1629765Y-970991D01*
X1638757Y-971245D01*
X1642516Y-972058D01*
X1645716Y-974191D01*
X2001774Y-1330248D01*
X2003958Y-1333550D01*
X2004771Y-1337462D01*
X2004771Y-1373479D01*
X2040737Y-1373479D01*
X2044649Y-1374241D01*
X2047951Y-1376426D01*
X2067204Y-1395679D01*
X2069388Y-1398981D01*
X2070201Y-1402892D01*
X2069388Y-1406753D01*
X2061311Y-1418336D01*
X2057196Y-1427276D01*
X2053640Y-1440484D01*
X2051354Y-1443482D01*
X2048205Y-1445463D01*
X2044496Y-1446174D01*
X2004771Y-1446174D01*
X2004771Y-1538478D01*
X2054301Y-1538478D01*
X2054301Y-1515364D01*
X2053589Y-1509064D01*
X2051659Y-1503578D01*
X2048002Y-1497685D01*
X2046630Y-1494180D01*
X2046630Y-1490370D01*
X2048002Y-1486865D01*
X2050186Y-1483360D01*
X2052624Y-1480718D01*
X2055926Y-1479042D01*
X2059533Y-1478635D01*
X2063038Y-1479550D01*
X2066036Y-1481683D01*
X2073960Y-1489710D01*
X2081936Y-1495348D01*
X2090877Y-1499463D01*
X2100326Y-1502003D01*
X2110130Y-1502867D01*
X2119934Y-1502003D01*
X2129383Y-1499463D01*
X2138324Y-1495348D01*
X2146350Y-1489710D01*
X2153310Y-1482750D01*
X2158949Y-1474724D01*
X2163114Y-1465783D01*
X2165400Y-1462633D01*
X2168652Y-1460550D01*
X2172462Y-1459890D01*
X2176272Y-1460703D01*
X2179472Y-1462887D01*
X2343607Y-1626971D01*
X2345791Y-1630273D01*
X2346553Y-1634134D01*
X2345791Y-1638046D01*
X2337054Y-1650238D01*
X2332939Y-1659178D01*
X2330399Y-1668627D01*
X2329535Y-1678432D01*
X2330399Y-1688236D01*
X2332939Y-1697685D01*
X2337054Y-1706625D01*
X2342692Y-1714652D01*
X2349652Y-1721612D01*
X2357678Y-1727250D01*
X2366619Y-1731365D01*
X2376068Y-1733905D01*
X2385872Y-1734769D01*
X2395677Y-1733905D01*
X2405126Y-1731365D01*
X2414066Y-1727250D01*
X2421483Y-1722018D01*
X2425547Y-1720342D01*
X2429967Y-1720545D01*
X2433878Y-1722577D01*
X2436520Y-1726031D01*
X2437485Y-1730349D01*
X2437485Y-1764233D01*
X2438196Y-1770532D01*
X2440127Y-1776018D01*
X2443784Y-1781911D01*
X2445156Y-1785416D01*
X2445156Y-1789226D01*
X2443784Y-1792732D01*
X2440127Y-1798574D01*
X2438196Y-1804060D01*
X2437485Y-1810359D01*
X2437485Y-1849221D01*
X2438196Y-1855571D01*
X2440127Y-1861007D01*
X2443784Y-1866900D01*
X2445156Y-1870405D01*
X2445156Y-1874215D01*
X2443784Y-1877720D01*
X2440127Y-1883562D01*
X2438196Y-1889048D01*
X2437485Y-1895348D01*
X2437485Y-1934210D01*
X2438196Y-1940560D01*
X2440127Y-1945995D01*
X2443784Y-1951939D01*
X2445156Y-1955444D01*
X2445156Y-1959203D01*
X2443784Y-1962708D01*
X2440127Y-1968601D01*
X2438196Y-1974037D01*
X2437485Y-1980387D01*
X2437485Y-2019249D01*
X2438196Y-2025548D01*
X2440127Y-2031034D01*
X2443784Y-2036927D01*
X2445156Y-2040432D01*
X2445156Y-2044192D01*
X2443784Y-2047697D01*
X2440127Y-2053589D01*
X2438196Y-2059025D01*
X2437485Y-2065375D01*
X2437485Y-2104237D01*
X2438196Y-2110536D01*
X2440127Y-2116023D01*
X2443784Y-2121916D01*
X2445156Y-2125421D01*
X2445156Y-2129231D01*
X2443784Y-2132736D01*
X2440127Y-2138578D01*
X2438196Y-2144064D01*
X2437485Y-2150364D01*
X2437485Y-2189226D01*
X2438196Y-2195576D01*
X2439365Y-2200960D01*
X2438501Y-2204669D01*
X2436368Y-2207768D01*
X2433269Y-2209901D01*
X2429560Y-2210765D01*
X2424125Y-2209596D01*
X2417826Y-2208885D01*
X2378964Y-2208885D01*
X2372664Y-2209596D01*
X2367178Y-2211527D01*
X2361285Y-2215184D01*
X2357780Y-2216556D01*
X2354021Y-2216556D01*
X2350516Y-2215184D01*
X2344623Y-2211527D01*
X2339136Y-2209596D01*
X2332837Y-2208885D01*
X2293975Y-2208885D01*
X2287676Y-2209596D01*
X2282190Y-2211527D01*
X2276246Y-2215184D01*
X2272741Y-2216556D01*
X2268982Y-2216556D01*
X2265476Y-2215184D01*
X2259584Y-2211527D01*
X2254148Y-2209596D01*
X2247849Y-2208885D01*
X2208936Y-2208885D01*
X2202637Y-2209596D01*
X2197150Y-2211527D01*
X2191308Y-2215184D01*
X2187803Y-2216556D01*
X2183993Y-2216556D01*
X2180488Y-2215184D01*
X2174595Y-2211527D01*
X2169160Y-2209596D01*
X2162860Y-2208885D01*
X2133346Y-2208885D01*
X2129485Y-2208123D01*
X2126183Y-2205888D01*
X2123948Y-2202637D01*
X2123186Y-2198725D01*
X2123948Y-2194814D01*
X2126183Y-2191562D01*
X2223516Y-2094230D01*
X2226818Y-2091994D01*
X2230678Y-2091232D01*
X2291537Y-2091232D01*
X2295398Y-2091994D01*
X2298700Y-2094230D01*
X2305354Y-2100884D01*
X2313432Y-2106523D01*
X2322322Y-2110638D01*
X2331821Y-2113178D01*
X2341626Y-2114042D01*
X2351379Y-2113178D01*
X2360879Y-2110638D01*
X2369769Y-2106523D01*
X2377846Y-2100884D01*
X2384755Y-2093925D01*
X2390394Y-2085898D01*
X2394559Y-2076957D01*
X2397099Y-2067509D01*
X2397963Y-2057704D01*
X2397099Y-2047900D01*
X2394559Y-2038451D01*
X2390394Y-2029510D01*
X2384755Y-2021484D01*
X2377846Y-2014524D01*
X2369769Y-2008886D01*
X2360879Y-2004771D01*
X2351379Y-2002231D01*
X2341626Y-2001367D01*
X2331821Y-2002231D01*
X2322322Y-2004771D01*
X2313432Y-2008886D01*
X2305354Y-2014524D01*
X2298700Y-2021179D01*
X2295398Y-2023414D01*
X2291537Y-2024176D01*
X2213102Y-2024176D01*
X2205634Y-2024989D01*
X2198979Y-2027123D01*
X2192782Y-2030679D01*
X2188616Y-2034286D01*
X2064562Y-2158339D01*
X2060854Y-2160676D01*
X2056485Y-2161235D01*
X2052320Y-2159914D01*
X2049068Y-2156968D01*
X2043379Y-2148840D01*
X2036470Y-2141931D01*
X2028393Y-2136292D01*
X2019503Y-2132126D01*
X2010003Y-2129586D01*
X2000250Y-2128723D01*
X1990445Y-2129586D01*
X1980946Y-2132126D01*
X1972056Y-2136292D01*
X1963978Y-2141931D01*
X1957070Y-2148840D01*
X1954885Y-2151989D01*
X1952142Y-2154631D01*
X1948586Y-2156104D01*
X1944776Y-2156155D01*
X1941220Y-2154783D01*
X1938426Y-2152192D01*
X1936750Y-2148789D01*
X1935327Y-2143556D01*
X1931212Y-2134666D01*
X1925574Y-2126589D01*
X1918614Y-2119680D01*
X1910588Y-2114042D01*
X1901647Y-2109876D01*
X1892198Y-2107336D01*
X1882393Y-2106472D01*
X1872589Y-2107336D01*
X1863140Y-2109876D01*
X1854200Y-2114042D01*
X1846173Y-2119680D01*
X1839214Y-2126589D01*
X1833575Y-2134666D01*
X1829460Y-2143556D01*
X1826920Y-2153056D01*
X1826056Y-2162860D01*
X1826920Y-2172614D01*
X1829460Y-2182114D01*
X1833575Y-2191004D01*
X1835200Y-2193290D01*
X1836775Y-2196795D01*
X1836928Y-2200656D01*
X1835607Y-2204313D01*
X1833016Y-2207209D01*
X1829562Y-2208885D01*
X1825752Y-2209190D01*
X1822856Y-2208885D01*
X1783943Y-2208885D01*
X1777644Y-2209596D01*
X1772157Y-2211527D01*
X1766316Y-2215184D01*
X1762810Y-2216556D01*
X1759000Y-2216556D01*
X1755495Y-2215184D01*
X1749602Y-2211527D01*
X1744167Y-2209596D01*
X1737868Y-2208885D01*
X1698955Y-2208885D01*
X1692656Y-2209596D01*
X1687169Y-2211527D01*
X1681276Y-2215184D01*
X1677771Y-2216556D01*
X1674012Y-2216556D01*
X1670507Y-2215184D01*
X1664614Y-2211527D01*
X1659128Y-2209596D01*
X1652828Y-2208885D01*
X1623364Y-2208885D01*
X1619504Y-2208123D01*
X1616202Y-2205888D01*
X1613966Y-2202637D01*
X1613204Y-2198725D01*
X1613966Y-2194814D01*
X1616202Y-2191562D01*
X1924862Y-1882902D01*
X1928164Y-1880666D01*
X1932025Y-1879904D01*
X2040229Y-1879904D01*
X2047697Y-1879142D01*
X2054352Y-1876958D01*
X2060549Y-1873402D01*
X2064715Y-1869795D01*
X2082241Y-1852320D01*
X2085949Y-1849932D01*
X2090318Y-1849374D01*
X2093823Y-1849678D01*
X2103577Y-1848815D01*
X2113076Y-1846275D01*
X2121966Y-1842109D01*
X2130044Y-1836470D01*
X2136952Y-1829562D01*
X2142591Y-1821484D01*
X2146757Y-1812594D01*
X2149297Y-1803095D01*
X2150160Y-1793341D01*
X2149297Y-1783537D01*
X2146757Y-1774037D01*
X2142591Y-1765147D01*
X2136952Y-1757070D01*
X2130044Y-1750161D01*
X2121966Y-1744522D01*
X2113076Y-1740357D01*
X2103577Y-1737817D01*
X2093823Y-1736953D01*
X2084019Y-1737817D01*
X2074519Y-1740357D01*
X2065629Y-1744522D01*
X2057552Y-1750161D01*
X2050643Y-1757070D01*
X2045004Y-1765147D01*
X2042617Y-1770278D01*
X2040382Y-1773377D01*
X2037130Y-1775409D01*
X2033371Y-1776171D01*
X2004771Y-1776171D01*
X2004771Y-1802688D01*
X2003958Y-1806600D01*
X2001774Y-1809851D01*
X1998472Y-1812086D01*
X1994611Y-1812848D01*
X1942236Y-1812848D01*
X1938324Y-1812086D01*
X1935022Y-1809851D01*
X1932838Y-1806600D01*
X1932076Y-1802688D01*
X1932076Y-1776171D01*
X1839772Y-1776171D01*
X1839772Y-1825701D01*
X1862683Y-1825701D01*
X1866544Y-1826463D01*
X1869846Y-1828698D01*
X1872081Y-1831949D01*
X1872843Y-1835861D01*
X1872081Y-1839772D01*
X1869846Y-1843024D01*
X1525066Y-2187803D01*
X1520342Y-2193696D01*
X1517091Y-2200046D01*
X1515668Y-2204872D01*
X1515364Y-2207412D01*
X1514094Y-2211273D01*
X1511401Y-2214321D01*
X1507744Y-2216048D01*
X1503680Y-2216251D01*
X1499870Y-2214829D01*
X1494586Y-2211527D01*
X1489151Y-2209596D01*
X1482852Y-2208885D01*
X1479753Y-2208885D01*
X1479753Y-2248458D01*
X1492351Y-2248458D01*
X1496212Y-2249220D01*
X1499514Y-2251405D01*
X1501749Y-2254707D01*
X1502511Y-2258618D01*
X1502511Y-2290978D01*
X1501749Y-2294890D01*
X1499514Y-2298192D01*
X1496212Y-2300376D01*
X1492351Y-2301138D01*
X1479753Y-2301138D01*
X1479753Y-2340711D01*
X1482852Y-2340711D01*
X1489151Y-2340000D01*
X1494586Y-2338070D01*
X1499870Y-2334768D01*
X1503680Y-2333345D01*
X1507744Y-2333548D01*
X1511401Y-2335276D01*
X1514094Y-2338324D01*
X1515364Y-2342184D01*
X1515668Y-2344572D01*
X1517853Y-2351328D01*
X1521409Y-2357475D01*
X1524965Y-2361692D01*
X1562811Y-2399487D01*
X1568653Y-2404262D01*
X1574901Y-2407412D01*
X1581759Y-2409240D01*
X1587296Y-2409698D01*
X1778609Y-2409698D01*
X1782521Y-2410460D01*
X1785823Y-2412695D01*
X1911502Y-2538374D01*
X1915210Y-2541524D01*
X1916988Y-2543454D01*
X1922424Y-2551226D01*
X1929384Y-2558135D01*
X1937410Y-2563774D01*
X1946351Y-2567940D01*
X1955800Y-2570480D01*
X1965604Y-2571343D01*
X1974646Y-2570530D01*
X1978812Y-2571038D01*
X1982419Y-2573172D01*
X1984857Y-2576576D01*
X1985721Y-2580640D01*
X1985721Y-2604262D01*
X1984908Y-2608173D01*
X1982724Y-2611475D01*
X1975764Y-2618435D01*
X1970938Y-2624378D01*
X1968550Y-2628747D01*
X1966366Y-2635504D01*
X1964943Y-2638298D01*
X1962810Y-2640482D01*
X1959152Y-2642260D01*
X1955800Y-2642819D01*
X1952447Y-2642260D01*
X1946554Y-2640228D01*
X1940255Y-2639517D01*
X1884781Y-2639517D01*
X1878482Y-2640228D01*
X1873046Y-2642108D01*
X1870964Y-2643428D01*
X1867814Y-2644698D01*
X1864410Y-2644902D01*
X1861159Y-2643936D01*
X1858365Y-2642006D01*
X1825701Y-2609291D01*
X1823466Y-2605989D01*
X1822704Y-2602128D01*
X1822704Y-2589580D01*
X1823466Y-2585720D01*
X1825701Y-2582418D01*
X1832356Y-2575763D01*
X1837994Y-2567686D01*
X1842109Y-2558796D01*
X1844649Y-2549296D01*
X1845513Y-2539542D01*
X1844649Y-2529738D01*
X1842109Y-2520238D01*
X1837994Y-2511348D01*
X1832356Y-2503271D01*
X1825396Y-2496362D01*
X1817370Y-2490724D01*
X1808429Y-2486558D01*
X1798980Y-2484018D01*
X1789175Y-2483154D01*
X1779371Y-2484018D01*
X1769922Y-2486558D01*
X1760982Y-2490724D01*
X1752955Y-2496362D01*
X1745996Y-2503271D01*
X1740357Y-2511348D01*
X1736242Y-2520238D01*
X1733702Y-2529738D01*
X1732838Y-2539542D01*
X1733702Y-2549296D01*
X1736242Y-2558796D01*
X1740357Y-2567686D01*
X1745996Y-2575763D01*
X1752650Y-2582418D01*
X1754886Y-2585720D01*
X1755648Y-2589580D01*
X1755648Y-2619705D01*
X1756460Y-2627172D01*
X1758594Y-2633827D01*
X1762150Y-2640025D01*
X1765757Y-2644190D01*
X1813102Y-2691536D01*
X1815287Y-2694838D01*
X1816049Y-2698750D01*
X1815287Y-2702610D01*
X1813102Y-2705912D01*
X1809800Y-2708097D01*
X1805889Y-2708910D01*
X1631238Y-2708910D01*
X1627327Y-2708097D01*
X1624025Y-2705912D01*
X1276197Y-2358034D01*
X1273962Y-2354783D01*
X1273200Y-2350871D01*
X1273962Y-2346960D01*
X1276197Y-2343708D01*
X1279499Y-2341473D01*
X1283360Y-2340711D01*
X1312824Y-2340711D01*
X1319123Y-2340000D01*
X1324610Y-2338070D01*
X1330553Y-2334412D01*
X1334058Y-2333040D01*
X1337818Y-2333040D01*
X1341323Y-2334412D01*
X1347216Y-2338070D01*
X1352651Y-2340000D01*
X1358950Y-2340711D01*
X1362049Y-2340711D01*
X1362049Y-2301138D01*
X1349451Y-2301138D01*
X1345590Y-2300376D01*
X1342288Y-2298192D01*
X1340053Y-2294890D01*
X1339291Y-2290978D01*
X1339291Y-2258618D01*
X1340053Y-2254707D01*
X1342288Y-2251405D01*
X1345590Y-2249220D01*
X1349451Y-2248458D01*
X1362049Y-2248458D01*
X1362049Y-2208885D01*
X1358950Y-2208885D01*
X1352651Y-2209596D01*
X1347165Y-2211527D01*
X1341272Y-2215184D01*
X1337767Y-2216556D01*
X1334008Y-2216556D01*
X1330502Y-2215184D01*
X1324610Y-2211527D01*
X1319123Y-2209596D01*
X1312824Y-2208885D01*
X1273962Y-2208885D01*
X1267663Y-2209596D01*
X1262176Y-2211527D01*
X1256284Y-2215184D01*
X1252778Y-2216556D01*
X1249019Y-2216556D01*
X1245514Y-2215184D01*
X1239621Y-2211527D01*
X1234135Y-2209596D01*
X1227836Y-2208885D01*
X1188974Y-2208885D01*
X1182674Y-2209596D01*
X1177239Y-2210765D01*
X1173530Y-2209901D01*
X1170432Y-2207768D01*
X1168298Y-2204669D01*
X1167434Y-2200960D01*
X1168400Y-2196134D01*
X1129436Y-2196134D01*
X1129741Y-2198725D01*
X1129741Y-2248458D01*
X1152347Y-2248458D01*
X1156208Y-2249220D01*
X1159510Y-2251405D01*
X1161745Y-2254707D01*
X1162507Y-2258618D01*
X1162507Y-2290978D01*
X1161745Y-2294890D01*
X1159510Y-2298192D01*
X1156208Y-2300376D01*
X1152347Y-2301138D01*
X1129741Y-2301138D01*
X1129741Y-2340711D01*
X1142847Y-2340711D01*
X1149146Y-2340000D01*
X1154633Y-2338070D01*
X1159865Y-2334768D01*
X1163675Y-2333345D01*
X1167739Y-2333548D01*
X1171397Y-2335276D01*
X1174089Y-2338324D01*
X1175359Y-2342184D01*
X1175664Y-2344572D01*
X1177848Y-2351328D01*
X1181404Y-2357475D01*
X1184960Y-2361692D01*
X1589024Y-2765755D01*
X1594916Y-2770479D01*
X1601114Y-2773680D01*
X1608023Y-2775508D01*
X1613509Y-2775966D01*
X2130907Y-2776016D01*
X2133752Y-2777032D01*
X2136190Y-2778912D01*
X2141372Y-2784195D01*
X2147163Y-2787853D01*
X2149754Y-2790190D01*
X2151430Y-2793288D01*
X2153818Y-2800705D01*
X2157374Y-2806903D01*
X2160981Y-2811068D01*
X2261514Y-2911602D01*
X2267356Y-2916377D01*
X2273604Y-2919526D01*
X2280462Y-2921355D01*
X2286000Y-2921812D01*
X2456992Y-2921812D01*
X2464460Y-2921050D01*
X2471115Y-2918866D01*
X2477312Y-2915310D01*
X2481478Y-2911703D01*
X2513126Y-2880055D01*
X2516428Y-2877870D01*
X2520340Y-2877108D01*
X2524201Y-2877870D01*
X2527503Y-2880055D01*
X2549956Y-2902508D01*
X2552242Y-2905963D01*
X2552954Y-2910027D01*
X2551988Y-2913989D01*
X2550515Y-2917190D01*
X2547975Y-2926689D01*
X2547112Y-2936494D01*
X2547975Y-2946247D01*
X2550515Y-2955747D01*
X2554630Y-2964637D01*
X2560269Y-2972714D01*
X2566924Y-2979369D01*
X2569159Y-2982620D01*
X2569921Y-2986532D01*
X2569159Y-2990443D01*
X2566924Y-2993694D01*
X2563622Y-2995930D01*
X2559761Y-2996692D01*
G37*

%LPC*%
G36*
X5618581Y-2897733D02*
G01*
X5625846Y-2897733D01*
X5625846Y-2864662D01*
X5592114Y-2864662D01*
X5592114Y-2871216D01*
X5592826Y-2877566D01*
X5594756Y-2883001D01*
X5597855Y-2887929D01*
X5601919Y-2891993D01*
X5606846Y-2895092D01*
X5612282Y-2896971D01*
G37*
G36*
X5666790Y-2897733D02*
G01*
X5674055Y-2897733D01*
X5680354Y-2896971D01*
X5686247Y-2894939D01*
X5689600Y-2894380D01*
X5692952Y-2894939D01*
X5698845Y-2896971D01*
X5705144Y-2897733D01*
X5760618Y-2897733D01*
X5766917Y-2896971D01*
X5772353Y-2895092D01*
X5777280Y-2891993D01*
X5781344Y-2887929D01*
X5784392Y-2883103D01*
X5786678Y-2880563D01*
X5789676Y-2878886D01*
X5793028Y-2878328D01*
X5859576Y-2878328D01*
X5867044Y-2877566D01*
X5873699Y-2875381D01*
X5879896Y-2871825D01*
X5884062Y-2868218D01*
X5893409Y-2858871D01*
X5897118Y-2856534D01*
X5901486Y-2855925D01*
X5904992Y-2856230D01*
X5914796Y-2855366D01*
X5924245Y-2852826D01*
X5933186Y-2848711D01*
X5941212Y-2843072D01*
X5948172Y-2836113D01*
X5953810Y-2828086D01*
X5957925Y-2819146D01*
X5960465Y-2809697D01*
X5961329Y-2799892D01*
X5960465Y-2790088D01*
X5957925Y-2780639D01*
X5953810Y-2771698D01*
X5948172Y-2763672D01*
X5941212Y-2756712D01*
X5933186Y-2751074D01*
X5924245Y-2746959D01*
X5914796Y-2744419D01*
X5904992Y-2743555D01*
X5895187Y-2744419D01*
X5885738Y-2746959D01*
X5876798Y-2751074D01*
X5868771Y-2756712D01*
X5861812Y-2763672D01*
X5856173Y-2771698D01*
X5852058Y-2780639D01*
X5849518Y-2790088D01*
X5848146Y-2804363D01*
X5846064Y-2807970D01*
X5842660Y-2810408D01*
X5838545Y-2811272D01*
X5793028Y-2811272D01*
X5789676Y-2810713D01*
X5786678Y-2809036D01*
X5784392Y-2806496D01*
X5781344Y-2801670D01*
X5777280Y-2797606D01*
X5772353Y-2794508D01*
X5766917Y-2792628D01*
X5760618Y-2791917D01*
X5705144Y-2791917D01*
X5698845Y-2792628D01*
X5692952Y-2794660D01*
X5689600Y-2795219D01*
X5686247Y-2794660D01*
X5680354Y-2792628D01*
X5674055Y-2791917D01*
X5666790Y-2791917D01*
X5666790Y-2824937D01*
X5668518Y-2824937D01*
X5672429Y-2825699D01*
X5675731Y-2827934D01*
X5677916Y-2831236D01*
X5678678Y-2835097D01*
X5678678Y-2854502D01*
X5677916Y-2858363D01*
X5675731Y-2861665D01*
X5672429Y-2863900D01*
X5668518Y-2864662D01*
X5666790Y-2864662D01*
G37*
G36*
X5592114Y-2824937D02*
G01*
X5625846Y-2824937D01*
X5625846Y-2791917D01*
X5618581Y-2791917D01*
X5612282Y-2792628D01*
X5606846Y-2794508D01*
X5601919Y-2797606D01*
X5597855Y-2801670D01*
X5594756Y-2806598D01*
X5592826Y-2812034D01*
X5592114Y-2818384D01*
G37*
G36*
X4309618Y-2393899D02*
G01*
X4318965Y-2393899D01*
X4325264Y-2393188D01*
X4330700Y-2391257D01*
X4335627Y-2388209D01*
X4339691Y-2384094D01*
X4342790Y-2379218D01*
X4344720Y-2373731D01*
X4345432Y-2367432D01*
X4345432Y-2344369D01*
X4309618Y-2344369D01*
G37*
G36*
X1394764Y-2340711D02*
G01*
X1397863Y-2340711D01*
X1404162Y-2340000D01*
X1409649Y-2338070D01*
X1415491Y-2334412D01*
X1418996Y-2333040D01*
X1422806Y-2333040D01*
X1426311Y-2334412D01*
X1432204Y-2338070D01*
X1437640Y-2340000D01*
X1443939Y-2340711D01*
X1447038Y-2340711D01*
X1447038Y-2301138D01*
X1394764Y-2301138D01*
G37*
G36*
X4309618Y-2271674D02*
G01*
X4345432Y-2271674D01*
X4345432Y-2248560D01*
X4344720Y-2242261D01*
X4342790Y-2236774D01*
X4339691Y-2231898D01*
X4335627Y-2227783D01*
X4330700Y-2224735D01*
X4325264Y-2222804D01*
X4318965Y-2222093D01*
X4309618Y-2222093D01*
G37*
G36*
X1394764Y-2248458D02*
G01*
X1447038Y-2248458D01*
X1447038Y-2208885D01*
X1443939Y-2208885D01*
X1437640Y-2209596D01*
X1432153Y-2211527D01*
X1426311Y-2215184D01*
X1422806Y-2216556D01*
X1418996Y-2216556D01*
X1415491Y-2215184D01*
X1409598Y-2211527D01*
X1404162Y-2209596D01*
X1397863Y-2208885D01*
X1394764Y-2208885D01*
G37*
G36*
X6780072Y-2163927D02*
G01*
X6879336Y-2163927D01*
X6891223Y-2163064D01*
X6902500Y-2160625D01*
X6913321Y-2156561D01*
X6923430Y-2151075D01*
X6932675Y-2144115D01*
X6940854Y-2135987D01*
X6947763Y-2126742D01*
X6953300Y-2116632D01*
X6957314Y-2105812D01*
X6959752Y-2094534D01*
X6960616Y-2083003D01*
X6959752Y-2071522D01*
X6957314Y-2060244D01*
X6953300Y-2049424D01*
X6947763Y-2039264D01*
X6940854Y-2030018D01*
X6932675Y-2021890D01*
X6923430Y-2014982D01*
X6913321Y-2009444D01*
X6909714Y-2008073D01*
X6906056Y-2005736D01*
X6903720Y-2002078D01*
X6903161Y-1997760D01*
X6904380Y-1993646D01*
X6907275Y-1990394D01*
X6916267Y-1983790D01*
X6923074Y-1976678D01*
X6928662Y-1968449D01*
X6932726Y-1959457D01*
X6935216Y-1949856D01*
X6936079Y-1940001D01*
X6935216Y-1930146D01*
X6932726Y-1920544D01*
X6928662Y-1911553D01*
X6923074Y-1903323D01*
X6916267Y-1896160D01*
X6908292Y-1890318D01*
X6899452Y-1885848D01*
X6890003Y-1882952D01*
X6880148Y-1881682D01*
X6870293Y-1882089D01*
X6860590Y-1884172D01*
X6851396Y-1887880D01*
X6842963Y-1893062D01*
X6835546Y-1899615D01*
X6829348Y-1907336D01*
X6824472Y-1915972D01*
X6821220Y-1925269D01*
X6819544Y-1935073D01*
X6819544Y-1944928D01*
X6821220Y-1954733D01*
X6824472Y-1964029D01*
X6829348Y-1972665D01*
X6835546Y-1980387D01*
X6840016Y-1984298D01*
X6842455Y-1987550D01*
X6843420Y-1991512D01*
X6842810Y-1995525D01*
X6840626Y-1998980D01*
X6837273Y-2001266D01*
X6833311Y-2002078D01*
X6780072Y-2002078D01*
X6768185Y-2002942D01*
X6756908Y-2005380D01*
X6746138Y-2009444D01*
X6735978Y-2014982D01*
X6726732Y-2021890D01*
X6718604Y-2030018D01*
X6711696Y-2039264D01*
X6706158Y-2049424D01*
X6702094Y-2060244D01*
X6699656Y-2071522D01*
X6698843Y-2083003D01*
X6699656Y-2094534D01*
X6702094Y-2105812D01*
X6706158Y-2116632D01*
X6711696Y-2126742D01*
X6718604Y-2135987D01*
X6726732Y-2144115D01*
X6735978Y-2151075D01*
X6746138Y-2156561D01*
X6756908Y-2160625D01*
X6768185Y-2163064D01*
G37*
G36*
X7213092Y-2163927D02*
G01*
X7282332Y-2163927D01*
X7294219Y-2163064D01*
X7305497Y-2160625D01*
X7316317Y-2156561D01*
X7326426Y-2151075D01*
X7335672Y-2144115D01*
X7343851Y-2135987D01*
X7350759Y-2126742D01*
X7356297Y-2116632D01*
X7360310Y-2105812D01*
X7362748Y-2094534D01*
X7363561Y-2083003D01*
X7362748Y-2071522D01*
X7360310Y-2060244D01*
X7356297Y-2049424D01*
X7350759Y-2039264D01*
X7343851Y-2030018D01*
X7335672Y-2021890D01*
X7326426Y-2014982D01*
X7316317Y-2009444D01*
X7305497Y-2005380D01*
X7294219Y-2002942D01*
X7290663Y-2002688D01*
X7287006Y-2001723D01*
X7283958Y-1999488D01*
X7281925Y-1996287D01*
X7281265Y-1992579D01*
X7281265Y-1309471D01*
X7281925Y-1305763D01*
X7283958Y-1302512D01*
X7287006Y-1300276D01*
X7290663Y-1299311D01*
X7294219Y-1299057D01*
X7305497Y-1296619D01*
X7316317Y-1292606D01*
X7326426Y-1287068D01*
X7335672Y-1280160D01*
X7343851Y-1271981D01*
X7350759Y-1262735D01*
X7356297Y-1252626D01*
X7360310Y-1241806D01*
X7362748Y-1230528D01*
X7363561Y-1218996D01*
X7362748Y-1207516D01*
X7360310Y-1196238D01*
X7356297Y-1185418D01*
X7350759Y-1175308D01*
X7343851Y-1166063D01*
X7335672Y-1157884D01*
X7326426Y-1150975D01*
X7316317Y-1145438D01*
X7305497Y-1141425D01*
X7294219Y-1138936D01*
X7282332Y-1138123D01*
X7213092Y-1138123D01*
X7201204Y-1138936D01*
X7189927Y-1141425D01*
X7179106Y-1145438D01*
X7168997Y-1150975D01*
X7159752Y-1157884D01*
X7151573Y-1166063D01*
X7144664Y-1175308D01*
X7139127Y-1185418D01*
X7135114Y-1196238D01*
X7132624Y-1207516D01*
X7131812Y-1218996D01*
X7132624Y-1230528D01*
X7135114Y-1241806D01*
X7139127Y-1252626D01*
X7144664Y-1262735D01*
X7151573Y-1271981D01*
X7159752Y-1280160D01*
X7168997Y-1287068D01*
X7179106Y-1292606D01*
X7189927Y-1296619D01*
X7201204Y-1299057D01*
X7204760Y-1299311D01*
X7208418Y-1300276D01*
X7211466Y-1302512D01*
X7213498Y-1305763D01*
X7214209Y-1309471D01*
X7214209Y-1992579D01*
X7213498Y-1996287D01*
X7211466Y-1999488D01*
X7208418Y-2001723D01*
X7204760Y-2002688D01*
X7201204Y-2002942D01*
X7189927Y-2005380D01*
X7179106Y-2009444D01*
X7168997Y-2014982D01*
X7159752Y-2021890D01*
X7151573Y-2030018D01*
X7144664Y-2039264D01*
X7139127Y-2049424D01*
X7135114Y-2060244D01*
X7132624Y-2071522D01*
X7131812Y-2083003D01*
X7132624Y-2094534D01*
X7135114Y-2105812D01*
X7139127Y-2116632D01*
X7144664Y-2126742D01*
X7151573Y-2135987D01*
X7159752Y-2144115D01*
X7168997Y-2151075D01*
X7179106Y-2156561D01*
X7189927Y-2160625D01*
X7201204Y-2163064D01*
G37*
G36*
X1119733Y-2143455D02*
G01*
X1168400Y-2143455D01*
X1166672Y-2138578D01*
X1163015Y-2132685D01*
X1161643Y-2129180D01*
X1161643Y-2125370D01*
X1163015Y-2121865D01*
X1166672Y-2116023D01*
X1168400Y-2111146D01*
X1119733Y-2111146D01*
G37*
G36*
X1119733Y-2058466D02*
G01*
X1168400Y-2058466D01*
X1166672Y-2053589D01*
X1163015Y-2047697D01*
X1161643Y-2044192D01*
X1161643Y-2040382D01*
X1163015Y-2036876D01*
X1166672Y-2031034D01*
X1168400Y-2026157D01*
X1119733Y-2026157D01*
G37*
G36*
X6357416Y-2036267D02*
G01*
X6367221Y-2035403D01*
X6376670Y-2032863D01*
X6385610Y-2028698D01*
X6393637Y-2023059D01*
X6400596Y-2016150D01*
X6406235Y-2008073D01*
X6410350Y-1999183D01*
X6412890Y-1989683D01*
X6413754Y-1979930D01*
X6412890Y-1970125D01*
X6410350Y-1960625D01*
X6406235Y-1951736D01*
X6400596Y-1943658D01*
X6393637Y-1936750D01*
X6385610Y-1931111D01*
X6376670Y-1926945D01*
X6367221Y-1924405D01*
X6357416Y-1923542D01*
X6347612Y-1924405D01*
X6338163Y-1926945D01*
X6329222Y-1931111D01*
X6321196Y-1936750D01*
X6314236Y-1943658D01*
X6308598Y-1951736D01*
X6304483Y-1960625D01*
X6301943Y-1970125D01*
X6301079Y-1979930D01*
X6301943Y-1989683D01*
X6304483Y-1999183D01*
X6308598Y-2008073D01*
X6314236Y-2016150D01*
X6321196Y-2023059D01*
X6329222Y-2028698D01*
X6338163Y-2032863D01*
X6347612Y-2035403D01*
G37*
G36*
X1119733Y-1973427D02*
G01*
X1168400Y-1973427D01*
X1166672Y-1968601D01*
X1163015Y-1962657D01*
X1161643Y-1959152D01*
X1161643Y-1955393D01*
X1163015Y-1951888D01*
X1166672Y-1945995D01*
X1168400Y-1941169D01*
X1119733Y-1941169D01*
G37*
G36*
X1119733Y-1888439D02*
G01*
X1168400Y-1888439D01*
X1166672Y-1883562D01*
X1163015Y-1877720D01*
X1161643Y-1874164D01*
X1161643Y-1870405D01*
X1163015Y-1866900D01*
X1166672Y-1861007D01*
X1168400Y-1856130D01*
X1119733Y-1856130D01*
G37*
G36*
X4051960Y-1867407D02*
G01*
X4075074Y-1867407D01*
X4075074Y-1831593D01*
X4025493Y-1831593D01*
X4025493Y-1840941D01*
X4026204Y-1847240D01*
X4028135Y-1852675D01*
X4031183Y-1857603D01*
X4035298Y-1861667D01*
X4040174Y-1864766D01*
X4045661Y-1866696D01*
G37*
G36*
X4147769Y-1867407D02*
G01*
X4170832Y-1867407D01*
X4177131Y-1866696D01*
X4182618Y-1864766D01*
X4187494Y-1861667D01*
X4191609Y-1857603D01*
X4194657Y-1852675D01*
X4196588Y-1847240D01*
X4197299Y-1840941D01*
X4197299Y-1831593D01*
X4147769Y-1831593D01*
G37*
G36*
X1687372Y-1825701D02*
G01*
X1710436Y-1825701D01*
X1716684Y-1824989D01*
X1723694Y-1822399D01*
X1727200Y-1821789D01*
X1730705Y-1822399D01*
X1737715Y-1824989D01*
X1743964Y-1825701D01*
X1767078Y-1825701D01*
X1767078Y-1776171D01*
X1687372Y-1776171D01*
G37*
G36*
X1119733Y-1803450D02*
G01*
X1168400Y-1803450D01*
X1166672Y-1798574D01*
X1163015Y-1792681D01*
X1161643Y-1789175D01*
X1161643Y-1785366D01*
X1163015Y-1781860D01*
X1166672Y-1776018D01*
X1168400Y-1771142D01*
X1119733Y-1771142D01*
G37*
G36*
X1119733Y-1718462D02*
G01*
X1168400Y-1718462D01*
X1166672Y-1713585D01*
X1163015Y-1707692D01*
X1161643Y-1704187D01*
X1161643Y-1700377D01*
X1163015Y-1696872D01*
X1166672Y-1691030D01*
X1168400Y-1686153D01*
X1119733Y-1686153D01*
G37*
G36*
X2004771Y-1703476D02*
G01*
X2054301Y-1703476D01*
X2054301Y-1680362D01*
X2053589Y-1674063D01*
X2051659Y-1668576D01*
X2048002Y-1662684D01*
X2046630Y-1659178D01*
X2046630Y-1655368D01*
X2048002Y-1651863D01*
X2051659Y-1646021D01*
X2053589Y-1640535D01*
X2054301Y-1634236D01*
X2054301Y-1611172D01*
X2004771Y-1611172D01*
G37*
G36*
X1687372Y-1703476D02*
G01*
X1767078Y-1703476D01*
X1767078Y-1611172D01*
X1687372Y-1611172D01*
G37*
G36*
X1839772Y-1703476D02*
G01*
X1932076Y-1703476D01*
X1932076Y-1611172D01*
X1839772Y-1611172D01*
G37*
G36*
X2187956Y-1636674D02*
G01*
X2197760Y-1635810D01*
X2207209Y-1633270D01*
X2216150Y-1629156D01*
X2224176Y-1623517D01*
X2231136Y-1616557D01*
X2236774Y-1608531D01*
X2240889Y-1599590D01*
X2243429Y-1590141D01*
X2244293Y-1580337D01*
X2243429Y-1570532D01*
X2240889Y-1561084D01*
X2236774Y-1552143D01*
X2231136Y-1544116D01*
X2224176Y-1537157D01*
X2216150Y-1531518D01*
X2207209Y-1527403D01*
X2197760Y-1524863D01*
X2187956Y-1524000D01*
X2178151Y-1524863D01*
X2168702Y-1527403D01*
X2159762Y-1531518D01*
X2151735Y-1537157D01*
X2144776Y-1544116D01*
X2139137Y-1552143D01*
X2135022Y-1561084D01*
X2132482Y-1570532D01*
X2131618Y-1580337D01*
X2132482Y-1590141D01*
X2135022Y-1599590D01*
X2139137Y-1608531D01*
X2144776Y-1616557D01*
X2151735Y-1623517D01*
X2159762Y-1629156D01*
X2168702Y-1633270D01*
X2178151Y-1635810D01*
G37*
G36*
X1119733Y-1633423D02*
G01*
X1168400Y-1633423D01*
X1166672Y-1628597D01*
X1163015Y-1622653D01*
X1161643Y-1619148D01*
X1161643Y-1615389D01*
X1163015Y-1611884D01*
X1166672Y-1605991D01*
X1168400Y-1601165D01*
X1119733Y-1601165D01*
G37*
G36*
X5720588Y-1553260D02*
G01*
X5769660Y-1553260D01*
X5769660Y-1504188D01*
X5763056Y-1507439D01*
X5751423Y-1515262D01*
X5740857Y-1524457D01*
X5731662Y-1535023D01*
X5723839Y-1546656D01*
G37*
G36*
X1119733Y-1548434D02*
G01*
X1168400Y-1548434D01*
X1166672Y-1543608D01*
X1163015Y-1537665D01*
X1161643Y-1534160D01*
X1161643Y-1530400D01*
X1163015Y-1526895D01*
X1166672Y-1521002D01*
X1168400Y-1516176D01*
X1119733Y-1516176D01*
G37*
G36*
X1687372Y-1538478D02*
G01*
X1767078Y-1538478D01*
X1767078Y-1446174D01*
X1687372Y-1446174D01*
G37*
G36*
X1839772Y-1538478D02*
G01*
X1932076Y-1538478D01*
X1932076Y-1446174D01*
X1839772Y-1446174D01*
G37*
G36*
X1119733Y-1463446D02*
G01*
X1168400Y-1463446D01*
X1166672Y-1458569D01*
X1163015Y-1452676D01*
X1161643Y-1449171D01*
X1161643Y-1445361D01*
X1163015Y-1441856D01*
X1166672Y-1436014D01*
X1168400Y-1431137D01*
X1119733Y-1431137D01*
G37*
G36*
X1119733Y-1378458D02*
G01*
X1168400Y-1378458D01*
X1166672Y-1373581D01*
X1163015Y-1367688D01*
X1161643Y-1364183D01*
X1161643Y-1360373D01*
X1163015Y-1356868D01*
X1166672Y-1351026D01*
X1168400Y-1346149D01*
X1119733Y-1346149D01*
G37*
G36*
X1687372Y-1373479D02*
G01*
X1767078Y-1373479D01*
X1767078Y-1323898D01*
X1743964Y-1323898D01*
X1737715Y-1324610D01*
X1730705Y-1327200D01*
X1727200Y-1327810D01*
X1723694Y-1327200D01*
X1716684Y-1324610D01*
X1710436Y-1323898D01*
X1687372Y-1323898D01*
G37*
G36*
X1839772Y-1373479D02*
G01*
X1932076Y-1373479D01*
X1932076Y-1323898D01*
X1908962Y-1323898D01*
X1902663Y-1324610D01*
X1897176Y-1326540D01*
X1891284Y-1330198D01*
X1887778Y-1331569D01*
X1883968Y-1331569D01*
X1880463Y-1330198D01*
X1874621Y-1326540D01*
X1869135Y-1324610D01*
X1862836Y-1323898D01*
X1839772Y-1323898D01*
G37*
G36*
X1119733Y-1293469D02*
G01*
X1168400Y-1293469D01*
X1166672Y-1288592D01*
X1163015Y-1282700D01*
X1161643Y-1279194D01*
X1161643Y-1275384D01*
X1163015Y-1271879D01*
X1166672Y-1266037D01*
X1168400Y-1261160D01*
X1119733Y-1261160D01*
G37*
G36*
X1119733Y-1208430D02*
G01*
X1168400Y-1208430D01*
X1166672Y-1203604D01*
X1163015Y-1197660D01*
X1161643Y-1194155D01*
X1161643Y-1190396D01*
X1163015Y-1186891D01*
X1166672Y-1180998D01*
X1168400Y-1176172D01*
X1119733Y-1176172D01*
G37*
G36*
X1119733Y-1123442D02*
G01*
X1168400Y-1123442D01*
X1166672Y-1118565D01*
X1163015Y-1112723D01*
X1161643Y-1109167D01*
X1161643Y-1105408D01*
X1163015Y-1101902D01*
X1166672Y-1096010D01*
X1168400Y-1091133D01*
X1119733Y-1091133D01*
G37*
G36*
X1119733Y-1038453D02*
G01*
X1168400Y-1038453D01*
X1166672Y-1033576D01*
X1163015Y-1027684D01*
X1161643Y-1024178D01*
X1161643Y-1020368D01*
X1163015Y-1016863D01*
X1166672Y-1011021D01*
X1168400Y-1006144D01*
X1119733Y-1006144D01*
G37*
G36*
X5619496Y-1030782D02*
G01*
X5629300Y-1029919D01*
X5638749Y-1027379D01*
X5647690Y-1023213D01*
X5655716Y-1017574D01*
X5662676Y-1010666D01*
X5668314Y-1002588D01*
X5672429Y-993698D01*
X5674969Y-984199D01*
X5675833Y-974445D01*
X5674969Y-964641D01*
X5672429Y-955141D01*
X5668314Y-946251D01*
X5662676Y-938174D01*
X5655716Y-931265D01*
X5647690Y-925626D01*
X5638749Y-921461D01*
X5629300Y-918921D01*
X5619496Y-918057D01*
X5609691Y-918921D01*
X5600242Y-921461D01*
X5591302Y-925626D01*
X5583275Y-931265D01*
X5576316Y-938174D01*
X5570677Y-946251D01*
X5566562Y-955141D01*
X5564022Y-964641D01*
X5563158Y-974445D01*
X5564022Y-984199D01*
X5566562Y-993698D01*
X5570677Y-1002588D01*
X5576316Y-1010666D01*
X5583275Y-1017574D01*
X5591302Y-1023213D01*
X5600242Y-1027379D01*
X5609691Y-1029919D01*
G37*
G36*
X1129436Y-953465D02*
G01*
X1168400Y-953465D01*
X1167434Y-948639D01*
X1168298Y-944930D01*
X1170432Y-941832D01*
X1173530Y-939698D01*
X1177239Y-938834D01*
X1182674Y-940003D01*
X1188974Y-940714D01*
X1192072Y-940714D01*
X1192072Y-901141D01*
X1129741Y-901141D01*
X1129741Y-950874D01*
G37*
G36*
X1224737Y-940714D02*
G01*
X1227836Y-940714D01*
X1234135Y-940003D01*
X1239621Y-938072D01*
X1245514Y-934415D01*
X1249019Y-933043D01*
X1252778Y-933043D01*
X1256284Y-934415D01*
X1262176Y-938072D01*
X1267663Y-940003D01*
X1273962Y-940714D01*
X1277061Y-940714D01*
X1277061Y-901141D01*
X1224737Y-901141D01*
G37*
G36*
X1224737Y-848461D02*
G01*
X1277061Y-848461D01*
X1277061Y-808888D01*
X1273962Y-808888D01*
X1267663Y-809599D01*
X1262176Y-811530D01*
X1256284Y-815187D01*
X1252778Y-816559D01*
X1249019Y-816559D01*
X1245514Y-815187D01*
X1239621Y-811530D01*
X1234135Y-809599D01*
X1227836Y-808888D01*
X1224737Y-808888D01*
G37*
G36*
X1129741Y-848461D02*
G01*
X1192072Y-848461D01*
X1192072Y-808888D01*
X1188974Y-808888D01*
X1182674Y-809599D01*
X1177188Y-811530D01*
X1171295Y-815187D01*
X1167790Y-816559D01*
X1163980Y-816559D01*
X1160475Y-815187D01*
X1154633Y-811530D01*
X1149146Y-809599D01*
X1142847Y-808888D01*
X1129741Y-808888D01*
G37*
G36*
X5833262Y-686054D02*
G01*
X5843066Y-685190D01*
X5852515Y-682650D01*
X5861456Y-678535D01*
X5869482Y-672896D01*
X5876442Y-665937D01*
X5882081Y-657910D01*
X5886196Y-648970D01*
X5888736Y-639521D01*
X5889599Y-629716D01*
X5888736Y-619912D01*
X5886196Y-610463D01*
X5882081Y-601522D01*
X5876442Y-593496D01*
X5869482Y-586536D01*
X5861456Y-580898D01*
X5852515Y-576783D01*
X5845403Y-574852D01*
X5841492Y-572820D01*
X5838799Y-569315D01*
X5837885Y-565048D01*
X5837885Y-532384D01*
X5837174Y-526034D01*
X5835243Y-520598D01*
X5832144Y-515670D01*
X5828080Y-511606D01*
X5823153Y-508508D01*
X5817717Y-506628D01*
X5811418Y-505917D01*
X5755944Y-505917D01*
X5749645Y-506628D01*
X5743752Y-508660D01*
X5740400Y-509219D01*
X5737047Y-508660D01*
X5731154Y-506628D01*
X5724855Y-505917D01*
X5717590Y-505917D01*
X5717590Y-538937D01*
X5719318Y-538937D01*
X5723229Y-539699D01*
X5726531Y-541934D01*
X5728716Y-545236D01*
X5729478Y-549097D01*
X5729478Y-568502D01*
X5728716Y-572363D01*
X5726531Y-575665D01*
X5723229Y-577900D01*
X5719318Y-578662D01*
X5717590Y-578662D01*
X5717590Y-611733D01*
X5724855Y-611733D01*
X5731154Y-610971D01*
X5737047Y-608939D01*
X5740400Y-608380D01*
X5744667Y-609244D01*
X5747562Y-610870D01*
X5749848Y-613308D01*
X5751169Y-616356D01*
X5753049Y-622300D01*
X5756554Y-628396D01*
X5761278Y-633577D01*
X5766917Y-637692D01*
X5770067Y-639318D01*
X5773775Y-640740D01*
X5776518Y-642315D01*
X5778652Y-644652D01*
X5780328Y-648970D01*
X5784443Y-657910D01*
X5790082Y-665937D01*
X5797042Y-672896D01*
X5805068Y-678535D01*
X5814009Y-682650D01*
X5823458Y-685190D01*
G37*
G36*
X5669381Y-611733D02*
G01*
X5676646Y-611733D01*
X5676646Y-578662D01*
X5642914Y-578662D01*
X5642914Y-585216D01*
X5643626Y-591566D01*
X5645556Y-597001D01*
X5648655Y-601929D01*
X5652719Y-605993D01*
X5657646Y-609092D01*
X5663082Y-610971D01*
G37*
G36*
X5642914Y-538937D02*
G01*
X5676646Y-538937D01*
X5676646Y-505917D01*
X5669381Y-505917D01*
X5663082Y-506628D01*
X5657646Y-508508D01*
X5652719Y-511606D01*
X5648655Y-515670D01*
X5645556Y-520598D01*
X5643626Y-526034D01*
X5642914Y-532384D01*
G37*

%LPD*%
D10*
X2110130Y-1446530D02*
G01*
X2110130Y-1391208D01*
X1656613Y-937691D01*
X1633397Y-937691D01*
X1633397Y-874801D02*
G01*
X1633397Y-937691D01*
X1633397Y-937691D01*
X4884318Y-2463800D02*
G01*
X4576343Y-2155825D01*
X4465320Y-2155825D01*
X3055518Y-2794000D02*
G01*
X3055518Y-2744114D01*
X2398395Y-2274798D02*
G01*
X2398395Y-2337689D01*
X2398395Y-2337689D01*
X3055518Y-2744114D02*
G01*
X2695981Y-2384577D01*
X2445283Y-2384577D01*
X2398395Y-2337689D01*
X4570958Y-1816100D02*
G01*
X4518025Y-1816100D01*
X4570958Y-1816100D02*
G01*
X4588408Y-1816100D01*
X4588408Y-1816100D02*
G01*
X4658791Y-1816100D01*
X4606798Y-1130300D02*
G01*
X4704689Y-1130300D01*
X2503398Y-1829790D02*
G01*
X2566289Y-1829790D01*
X2566289Y-1829790D01*
X4518025Y-1816100D02*
G01*
X4518025Y-1778152D01*
X4474159Y-1734286D01*
X4428617Y-1734286D01*
X4415332Y-1721002D01*
X3330676Y-1721002D01*
X3203346Y-1848332D01*
X2584831Y-1848332D01*
X2566289Y-1829790D01*
X4704689Y-1130300D02*
G01*
X4748733Y-1130300D01*
X4803317Y-1184884D01*
X4803317Y-1409115D01*
X4727422Y-1485011D01*
X4727422Y-1747469D01*
X4658791Y-1816100D01*
X2143404Y-874801D02*
G01*
X2143404Y-811911D01*
X2143404Y-811911D01*
X2143404Y-811911D02*
G01*
X2158415Y-811911D01*
X2284526Y-685800D01*
X2623718Y-685800D01*
X1208405Y-2337689D02*
G01*
X1613128Y-2742412D01*
X2127783Y-2742412D01*
X2134514Y-2735681D01*
X1208405Y-2274798D02*
G01*
X1208405Y-2337689D01*
X1208405Y-2337689D01*
X2159457Y-2735681D02*
G01*
X2134514Y-2735681D01*
X2159457Y-2735681D02*
G01*
X2184400Y-2735681D01*
X2438400Y-2692400D02*
G01*
X2438400Y-2742285D01*
X2184400Y-2735681D02*
G01*
X2184400Y-2787091D01*
X2285593Y-2888284D01*
X2457500Y-2888284D01*
X2489708Y-2856077D01*
X2489708Y-2743708D01*
X2488285Y-2742285D01*
X2438400Y-2742285D01*
X4437481Y-1447800D02*
G01*
X4437481Y-1397914D01*
X2566289Y-1064793D02*
G01*
X2600858Y-1099362D01*
X3980281Y-1099362D01*
X4056583Y-1175664D01*
X4072204Y-1175664D01*
X4255084Y-1358544D01*
X4398111Y-1358544D01*
X4437481Y-1397914D01*
X2503398Y-1064793D02*
G01*
X2566289Y-1064793D01*
X2566289Y-1064793D01*
X3370681Y-2692400D02*
G01*
X3370681Y-2742285D01*
X4191000Y-2518003D02*
G01*
X4191000Y-2600883D01*
X4191000Y-2600883D02*
G01*
X3993413Y-2798470D01*
X3530346Y-2798470D01*
X3463213Y-2731338D01*
X3418890Y-2731338D01*
X3407943Y-2742285D01*
X3370681Y-2742285D01*
X7247712Y-1218996D02*
G01*
X7247712Y-2083003D01*
X4799660Y-2065858D02*
G01*
X4709744Y-2155774D01*
X4619599Y-2155774D01*
X4551070Y-2087245D01*
X4419879Y-2087245D01*
X4405579Y-2072944D01*
X3142081Y-2744114D02*
G01*
X3151936Y-2734259D01*
X3151936Y-2646654D01*
X5941796Y-1510207D02*
G01*
X5941796Y-1457325D01*
X5572556Y-2438120D02*
G01*
X6151956Y-1858721D01*
X6151956Y-1534922D01*
X6069152Y-1452118D01*
X5947003Y-1452118D01*
X5941796Y-1457325D01*
X3142081Y-2794000D02*
G01*
X3142081Y-2744114D01*
X1999081Y-2692400D02*
G01*
X1999081Y-2642514D01*
X1999081Y-2642514D02*
G01*
X2019223Y-2622372D01*
X2019223Y-2475433D01*
X2053971Y-2440686D01*
X1548409Y-2274798D02*
G01*
X1548409Y-2211908D01*
X1548409Y-2211908D01*
X1548409Y-2243353D02*
G01*
X1548409Y-2243353D01*
X1548409Y-2274798D01*
X1548409Y-2211908D02*
G01*
X1913940Y-1846376D01*
X2040737Y-1846376D01*
X2093798Y-1793316D01*
X1548409Y-2274798D02*
G01*
X1548409Y-2337689D01*
X1548409Y-2337689D01*
X2667000Y-2692400D02*
G01*
X2667000Y-2607919D01*
X2652090Y-2593009D01*
X1548409Y-2337689D02*
G01*
X1586890Y-2376170D01*
X1796719Y-2376170D01*
X1935530Y-2514981D01*
X1965604Y-2514981D01*
X6667627Y-1555496D02*
G01*
X6712839Y-1510284D01*
X6712839Y-1445310D01*
X6675297Y-1407769D01*
X6675297Y-1220139D01*
X4271010Y-1015212D02*
G01*
X4271010Y-1067866D01*
X4203319Y-1135557D01*
X4144264Y-1135557D01*
X4100296Y-1091590D01*
X2398395Y-811911D02*
G01*
X2398522Y-811784D01*
X2732176Y-811784D01*
X2742209Y-821817D01*
X2398395Y-874801D02*
G01*
X2398395Y-811911D01*
X2398395Y-811911D01*
X3258718Y-2843885D02*
G01*
X3300729Y-2885897D01*
X3521405Y-2885897D01*
X3258718Y-2794000D02*
G01*
X3258718Y-2843885D01*
X6023991Y-1690192D02*
G01*
X5995974Y-1718208D01*
X5995974Y-1854047D01*
X5344388Y-2505633D01*
X5344388Y-2735300D01*
X1463395Y-874801D02*
G01*
X1463395Y-974420D01*
X1474622Y-985646D01*
X2735681Y-2843885D02*
G01*
X2745308Y-2853512D01*
X2745308Y-2872943D01*
X2735681Y-2794000D02*
G01*
X2735681Y-2843885D01*
X3280790Y-1651965D02*
G01*
X4018838Y-1651965D01*
X4020718Y-1650085D01*
X4020718Y-1600200D02*
G01*
X4020718Y-1650085D01*
X2742311Y-2618130D02*
G01*
X2742311Y-2606141D01*
X2622143Y-2485974D01*
X2461691Y-2485974D01*
X2313406Y-2337689D01*
X2313406Y-2274798D02*
G01*
X2313406Y-2337689D01*
X2313406Y-2337689D01*
X5941796Y-1690192D02*
G01*
X5892825Y-1690192D01*
X4970881Y-2362200D02*
G01*
X5101691Y-2362200D01*
X5168798Y-2429306D01*
X5326303Y-2429306D01*
X5892825Y-1862785D01*
X5892825Y-1690192D01*
X3988257Y-1338681D02*
G01*
X3963314Y-1338681D01*
X2503398Y-1319809D02*
G01*
X2566289Y-1319809D01*
X2566289Y-1319809D01*
X2566289Y-1319809D02*
G01*
X2585161Y-1338681D01*
X3963314Y-1338681D01*
X3988257Y-1338681D02*
G01*
X4013200Y-1338681D01*
X4675301Y-2092299D02*
G01*
X4588408Y-2005406D01*
X4588408Y-1943100D01*
X4013200Y-1338681D02*
G01*
X4063085Y-1338681D01*
X4459351Y-1646123D02*
G01*
X4384192Y-1646123D01*
X4076750Y-1338681D01*
X4063085Y-1338681D01*
X3697732Y-711682D02*
G01*
X3710889Y-724839D01*
X3942156Y-724839D01*
X3963314Y-703681D01*
X4013200Y-703681D02*
G01*
X3963314Y-703681D01*
X1912518Y-2692400D02*
G01*
X1861362Y-2692400D01*
X1861362Y-2692400D02*
G01*
X1789175Y-2620213D01*
X1789175Y-2539517D01*
X3284118Y-2642514D02*
G01*
X3294735Y-2642514D01*
X3397732Y-2539517D01*
X3284118Y-2692400D02*
G01*
X3284118Y-2642514D01*
X5732881Y-2844800D02*
G01*
X5860084Y-2844800D01*
X5904992Y-2799892D01*
X5783681Y-608685D02*
G01*
X5812231Y-608685D01*
X5833262Y-629716D01*
X5783681Y-558800D02*
G01*
X5783681Y-608685D01*
X4970881Y-2260600D02*
G01*
X4970881Y-2210714D01*
X4970881Y-2210714D02*
G01*
X4970881Y-2161438D01*
X4821834Y-2012391D01*
X4677054Y-2012391D01*
X4674031Y-2015413D01*
X4350918Y-1447800D02*
G01*
X4285234Y-1447800D01*
X4249445Y-1412011D01*
X6953326Y-967359D02*
G01*
X6852462Y-967359D01*
X6621830Y-1197991D01*
X6621830Y-1233170D01*
X6229400Y-1625600D01*
X5334914Y-2278481D02*
G01*
X5320284Y-2293112D01*
X5257825Y-2293112D01*
X5257825Y-2356002D02*
G01*
X5257825Y-2293112D01*
X5376875Y-2278481D02*
G01*
X5334914Y-2278481D01*
X5376875Y-2278481D02*
G01*
X5384800Y-2278481D01*
X5384800Y-2278481D02*
G01*
X5413756Y-2278481D01*
X5568315Y-2123922D01*
X5568315Y-2101367D01*
X5130800Y-2286000D02*
G01*
X5080914Y-2286000D01*
X5434685Y-2191918D02*
G01*
X5434685Y-2178608D01*
X5457647Y-2155647D01*
X5384800Y-2191918D02*
G01*
X5434685Y-2191918D01*
X5080914Y-2286000D02*
G01*
X5055844Y-2260930D01*
X5055844Y-2155647D01*
X4292600Y-1244600D02*
G01*
X4241444Y-1244600D01*
X4241444Y-1244600D02*
G01*
X4241444Y-1220622D01*
X4217390Y-1196568D01*
X4094987Y-2225116D02*
G01*
X3940200Y-2225116D01*
X3876675Y-2288641D01*
X1973402Y-2211908D02*
G01*
X2000224Y-2185085D01*
X4094987Y-2307996D02*
G01*
X4094987Y-2225116D01*
X1973402Y-2274798D02*
G01*
X1973402Y-2211908D01*
X1973402Y-2211908D01*
X1973402Y-2243353D02*
G01*
X1973402Y-2243353D01*
X1973402Y-2274798D01*
X1973402Y-2337689D02*
G01*
X2026615Y-2337689D01*
X2237790Y-2548864D01*
X2237790Y-2782773D01*
X2300071Y-2845054D01*
X2437231Y-2845054D01*
X2438400Y-2843885D01*
X1973402Y-2274798D02*
G01*
X1973402Y-2337689D01*
X1973402Y-2337689D01*
X2438400Y-2794000D02*
G01*
X2438400Y-2843885D01*
X4013200Y-1252118D02*
G01*
X3963314Y-1252118D01*
X5298008Y-1943100D02*
G01*
X5244693Y-1889785D01*
X5244693Y-1257300D01*
X5368391Y-1943100D02*
G01*
X5298008Y-1943100D01*
X5146802Y-1257300D02*
G01*
X5195747Y-1257300D01*
X5195747Y-1257300D02*
G01*
X5244693Y-1257300D01*
X4121759Y-1300861D02*
G01*
X4073017Y-1252118D01*
X4013200Y-1252118D01*
X5195747Y-1257300D02*
G01*
X5116957Y-1336090D01*
X2503398Y-1149807D02*
G01*
X2566289Y-1149807D01*
X2566289Y-1149807D01*
X3963314Y-1252118D02*
G01*
X3861003Y-1149807D01*
X2566289Y-1149807D01*
X2228392Y-874801D02*
G01*
X2228392Y-811911D01*
X2228392Y-811911D01*
X5145989Y-793115D02*
G01*
X5120894Y-768019D01*
X2272284Y-768019D01*
X2228392Y-811911D01*
X6049441Y-1777009D02*
G01*
X6074765Y-1751685D01*
X6074765Y-1601978D01*
X6072987Y-1600200D01*
X6023991Y-1600200D02*
G01*
X6072987Y-1600200D01*
X4107281Y-1600200D02*
G01*
X4217898Y-1600200D01*
X4247972Y-1630273D01*
X3396462Y-2794000D02*
G01*
X3405657Y-2784805D01*
X3441039Y-2784805D01*
X2449347Y-2539441D02*
G01*
X2247595Y-2337689D01*
X2228392Y-2337689D01*
X2228392Y-2274798D02*
G01*
X2228392Y-2337689D01*
X2228392Y-2337689D01*
X3345281Y-2794000D02*
G01*
X3396462Y-2794000D01*
X5368391Y-1562100D02*
G01*
X5438775Y-1562100D01*
X2503398Y-1659788D02*
G01*
X2566289Y-1659788D01*
X2566289Y-1659788D01*
X5438775Y-1562100D02*
G01*
X5438775Y-1453108D01*
X5409514Y-1423847D01*
X5146802Y-876300D02*
G01*
X5244693Y-876300D01*
X5409514Y-1423847D02*
G01*
X5343448Y-1357782D01*
X5343448Y-975055D01*
X5244693Y-876300D01*
X2566289Y-1659788D02*
G01*
X2857322Y-1659788D01*
X3027197Y-1489913D01*
X5195747Y-1130300D02*
G01*
X5244693Y-1130300D01*
X5368391Y-1816100D02*
G01*
X5305602Y-1816100D01*
X5305602Y-1816100D02*
G01*
X5297906Y-1808403D01*
X5297906Y-1183513D01*
X5244693Y-1130300D01*
X5195747Y-1130300D02*
G01*
X5146802Y-1130300D01*
X5146802Y-1130300D02*
G01*
X5127193Y-1130300D01*
X4839944Y-1417548D01*
X4839944Y-1468247D01*
X2672410Y-1588897D02*
G01*
X2580386Y-1588897D01*
X2566289Y-1574800D01*
X2503398Y-1574800D02*
G01*
X2566289Y-1574800D01*
X2503398Y-1404797D02*
G01*
X2566289Y-1404797D01*
X2566289Y-1404797D01*
X5368391Y-1689100D02*
G01*
X5438775Y-1689100D01*
X5438775Y-1689100D02*
G01*
X5438775Y-1618716D01*
X5567451Y-1490040D01*
X5567451Y-1357376D01*
X2566289Y-1404797D02*
G01*
X2829763Y-1404797D01*
X2841599Y-1392961D01*
X3044748Y-1265936D02*
G01*
X2597429Y-1265936D01*
X2566289Y-1234795D01*
X2503398Y-1234795D02*
G01*
X2566289Y-1234795D01*
X2566289Y-1234795D01*
X4606798Y-1257300D02*
G01*
X4704689Y-1257300D01*
X4704689Y-1257300D02*
G01*
X4704689Y-1351280D01*
X4701590Y-1354378D01*
X4884318Y-2260600D02*
G01*
X4833162Y-2260600D01*
X1548409Y-874801D02*
G01*
X1548409Y-1923135D01*
X1571701Y-1946427D01*
X4833162Y-2260600D02*
G01*
X4787646Y-2260600D01*
X4736338Y-2209292D01*
X3683914Y-2641600D02*
G01*
X3127121Y-2084806D01*
X2503398Y-2084806D01*
X3733800Y-2641600D02*
G01*
X3708857Y-2641600D01*
X3708857Y-2641600D02*
G01*
X3683914Y-2641600D01*
X3708857Y-2641600D02*
G01*
X3788079Y-2562377D01*
X3788079Y-2556078D01*
X2058390Y-874801D02*
G01*
X2058390Y-811911D01*
X2058390Y-811911D01*
X2058390Y-811911D02*
G01*
X2058390Y-760679D01*
X2253259Y-565810D01*
X4194175Y-565810D01*
X4219498Y-591134D01*
X5019649Y-591134D01*
X5199456Y-770940D01*
X5199456Y-786917D01*
X5622772Y-1210233D01*
X5622772Y-1620291D01*
X5461965Y-1781098D01*
X2143404Y-2274798D02*
G01*
X2143404Y-2348230D01*
X2172944Y-2377770D01*
X2058390Y-2211908D02*
G01*
X2212594Y-2057704D01*
X2341600Y-2057704D01*
X2058390Y-2274798D02*
G01*
X2058390Y-2211908D01*
X2058390Y-2211908D01*
X4606798Y-1003300D02*
G01*
X4508931Y-1003300D01*
X4623612Y-1689100D02*
G01*
X4658791Y-1689100D01*
X4623612Y-1689100D02*
G01*
X4588408Y-1689100D01*
X4588408Y-1689100D02*
G01*
X4518025Y-1689100D01*
X4518025Y-1689100D02*
G01*
X4507534Y-1699590D01*
X4437202Y-1699590D01*
X4426712Y-1689100D01*
X4383836Y-1689100D01*
X4232960Y-1538224D01*
X3189401Y-1538224D01*
X2986227Y-1741398D01*
X2569692Y-1741398D01*
X2566289Y-1744802D01*
X2503398Y-1744802D02*
G01*
X2566289Y-1744802D01*
X2566289Y-1744802D01*
X4658791Y-1689100D02*
G01*
X4661585Y-1686306D01*
X4661585Y-1518539D01*
X4505833Y-1362786D01*
X4505833Y-1006398D01*
X4508931Y-1003300D01*
X1718411Y-811911D02*
G01*
X2026666Y-503656D01*
X4250918Y-503656D01*
X4254322Y-507060D01*
X1718411Y-874801D02*
G01*
X1718411Y-811911D01*
X1718411Y-811911D01*
X1803400Y-874801D02*
G01*
X1803400Y-1039368D01*
X2385872Y-1621840D01*
X2385872Y-1678432D01*
X2313406Y-874801D02*
G01*
X2313406Y-963041D01*
X2350287Y-999921D01*
X5130800Y-2184400D02*
G01*
X5180685Y-2184400D01*
X5656478Y-1663750D02*
G01*
X5530113Y-1790115D01*
X5530113Y-1887016D01*
X5408193Y-2008936D01*
X5331206Y-2008936D01*
X5180685Y-2159457D01*
X5180685Y-2184400D01*
X2710281Y-685800D02*
G01*
X2761462Y-685800D01*
X2761462Y-685800D02*
G01*
X2793898Y-653364D01*
X3823893Y-653364D01*
X3841902Y-671372D01*
X5146802Y-1003300D02*
G01*
X5048935Y-1003300D01*
X2503398Y-1489811D02*
G01*
X2869006Y-1489811D01*
X2966643Y-1392174D01*
X3578733Y-1392174D01*
X5048935Y-1003300D02*
G01*
X5048935Y-961085D01*
X4893259Y-805408D01*
X3983964Y-805408D01*
X3927094Y-862279D01*
X2946400Y-2794000D02*
G01*
X2946400Y-2734081D01*
X2650363Y-2438044D01*
X1888388Y-2274798D02*
G01*
X1888388Y-2168829D01*
X1882393Y-2162835D01*
X4013200Y-617118D02*
G01*
X3963314Y-617118D01*
X4321403Y-1905000D02*
G01*
X4404283Y-1905000D01*
X3963314Y-617118D02*
G01*
X3920998Y-659434D01*
X3920998Y-669721D01*
X4374819Y-1776399D02*
G01*
X4374819Y-1786204D01*
X4404283Y-1815668D01*
X4404283Y-1905000D01*
X1888388Y-874801D02*
G01*
X1888388Y-984554D01*
X2384501Y-1480667D01*
X4271010Y-965200D02*
G01*
X4328896Y-965200D01*
X4328896Y-965200D02*
G01*
X4328896Y-990574D01*
X4360316Y-1021994D01*
X4360316Y-1038402D01*
X2503398Y-979805D02*
G01*
X3829151Y-979805D01*
X3895242Y-1045895D01*
X4451985Y-1787753D02*
G01*
X4451985Y-1811274D01*
X4513783Y-1873072D01*
X4701311Y-1873072D01*
X4759121Y-1815261D01*
X4111396Y-1808988D02*
G01*
X4194276Y-1808988D01*
X2768600Y-2692400D02*
G01*
X2768600Y-2734691D01*
X3783685Y-2743200D02*
G01*
X3783685Y-2693314D01*
X3785514Y-2691485D01*
X3785514Y-2641600D01*
X3733800Y-2743200D02*
G01*
X3783685Y-2743200D01*
X3810457Y-2641600D02*
G01*
X3785514Y-2641600D01*
X3810457Y-2641600D02*
G01*
X3835400Y-2641600D01*
X1968398Y-1574800D02*
G01*
X1968398Y-1739798D01*
X1968398Y-1739798D01*
X1968398Y-1492300D02*
G01*
X1968398Y-1492300D01*
X1968398Y-1409801D01*
X1968398Y-1409801D02*
G01*
X1968398Y-1492300D01*
X1968398Y-1492300D01*
X1968398Y-1492300D02*
G01*
X1968398Y-1492300D01*
X1968398Y-1574800D01*
X1803400Y-1409801D02*
G01*
X1803400Y-1492300D01*
X1803400Y-1739798D02*
G01*
X1803400Y-1574800D01*
X1803400Y-1533550D02*
G01*
X1762150Y-1574800D01*
X1651000Y-1574800D01*
X1651000Y-1574800D02*
G01*
X1651000Y-1533550D01*
X1651000Y-1574800D02*
G01*
X1651000Y-1409801D01*
X1968398Y-1409801D02*
G01*
X1752600Y-1625600D01*
X1676400Y-1625600D01*
X1803400Y-1533550D02*
G01*
X1803400Y-1574800D01*
X1651000Y-1739798D02*
G01*
X1651000Y-1574800D01*
X1524000Y-1790598D02*
G01*
X1752600Y-1790598D01*
X1803400Y-1739798D01*
X1166291Y-979805D02*
G01*
X1166291Y-1064793D01*
X1103401Y-979805D02*
G01*
X1166291Y-979805D01*
X1166291Y-979805D01*
X1103401Y-1064793D02*
G01*
X1134846Y-1064793D01*
X1134846Y-1064793D01*
X1103401Y-1064793D02*
G01*
X1166291Y-1064793D01*
X1166291Y-1064793D01*
X1103401Y-1064793D02*
G01*
X1166291Y-1127683D01*
X1166291Y-1149807D01*
X1103401Y-1149807D02*
G01*
X1134846Y-1149807D01*
X1134846Y-1149807D01*
X1103401Y-1149807D02*
G01*
X1166291Y-1149807D01*
X1166291Y-1149807D01*
X1103401Y-1149807D02*
G01*
X1166291Y-1212697D01*
X1166291Y-1234795D01*
X1103401Y-1234795D02*
G01*
X1134846Y-1234795D01*
X1134846Y-1234795D01*
X1103401Y-1234795D02*
G01*
X1166291Y-1234795D01*
X1166291Y-1234795D01*
X1103401Y-1234795D02*
G01*
X1166291Y-1297686D01*
X1166291Y-1319809D01*
X1103401Y-1319809D02*
G01*
X1134846Y-1319809D01*
X1134846Y-1319809D01*
X1103401Y-1319809D02*
G01*
X1166291Y-1319809D01*
X1166291Y-1319809D01*
X1103401Y-1319809D02*
G01*
X1166291Y-1382699D01*
X1166291Y-1404797D01*
X1103401Y-1404797D02*
G01*
X1134846Y-1404797D01*
X1134846Y-1404797D01*
X1103401Y-1404797D02*
G01*
X1166291Y-1404797D01*
X1166291Y-1404797D01*
X1103401Y-1404797D02*
G01*
X1166291Y-1467688D01*
X1166291Y-1489811D01*
X1103401Y-1489811D02*
G01*
X1134846Y-1489811D01*
X1134846Y-1489811D01*
X1103401Y-1489811D02*
G01*
X1166291Y-1489811D01*
X1166291Y-1489811D01*
X1103401Y-1489811D02*
G01*
X1166291Y-1552702D01*
X1166291Y-1574800D01*
X1103401Y-1574800D02*
G01*
X1134846Y-1574800D01*
X1103401Y-1574800D02*
G01*
X1166291Y-1574800D01*
X1103401Y-1574800D02*
G01*
X1166291Y-1637690D01*
X1166291Y-1659788D01*
X1103401Y-1659788D02*
G01*
X1134846Y-1659788D01*
X1134846Y-1659788D01*
X1103401Y-1659788D02*
G01*
X1166291Y-1659788D01*
X1166291Y-1659788D01*
X1103401Y-1659788D02*
G01*
X1166291Y-1722678D01*
X1166291Y-1744802D01*
X1103401Y-1744802D02*
G01*
X1134846Y-1744802D01*
X1134846Y-1744802D01*
X1103401Y-1744802D02*
G01*
X1166291Y-1744802D01*
X1166291Y-1744802D01*
X1103401Y-1744802D02*
G01*
X1166291Y-1807692D01*
X1166291Y-1829790D01*
X1103401Y-1829790D02*
G01*
X1134846Y-1829790D01*
X1134846Y-1829790D01*
X1103401Y-1829790D02*
G01*
X1166291Y-1829790D01*
X1166291Y-1829790D01*
X1103401Y-1829790D02*
G01*
X1166291Y-1892681D01*
X1166291Y-1914804D01*
X1103401Y-1914804D02*
G01*
X1134846Y-1914804D01*
X1134846Y-1914804D01*
X1103401Y-1914804D02*
G01*
X1166291Y-1914804D01*
X1166291Y-1914804D01*
X1103401Y-1914804D02*
G01*
X1166291Y-1977694D01*
X1166291Y-1999792D01*
X1103401Y-1999792D02*
G01*
X1134846Y-1999792D01*
X1134846Y-1999792D01*
X1103401Y-1999792D02*
G01*
X1166291Y-1999792D01*
X1166291Y-1999792D01*
X1103401Y-2169795D02*
G01*
X1134846Y-2169795D01*
X1134846Y-2169795D01*
X1103401Y-2169795D02*
G01*
X1166291Y-2169795D01*
X1166291Y-2169795D01*
X1103401Y-2169795D02*
G01*
X1103401Y-2211908D01*
X1103401Y-2211908D01*
X1103401Y-2274798D02*
G01*
X1103401Y-2274798D01*
X1103401Y-2169795D01*
X1378407Y-2211908D02*
G01*
X1463395Y-2211908D01*
X1463395Y-2274798D02*
G01*
X1463395Y-2211908D01*
X1463395Y-2211908D01*
X1378407Y-2274798D02*
G01*
X1378407Y-2243353D01*
X1378407Y-2243353D01*
X1378407Y-2274798D02*
G01*
X1378407Y-2211908D01*
X1378407Y-2211908D01*
X1103401Y-1999792D02*
G01*
X1166291Y-2062683D01*
X1166291Y-2063648D01*
X1378407Y-2211908D02*
G01*
X1230147Y-2063648D01*
X1166291Y-2063648D01*
X1103401Y-2084806D02*
G01*
X1165402Y-2084806D01*
X1165402Y-2084806D01*
X1166291Y-2063648D02*
G01*
X1165402Y-2064537D01*
X1165402Y-2084806D01*
X1165402Y-2084806D02*
G01*
X1166291Y-2085695D01*
X1166291Y-2169795D01*
X1293393Y-811911D02*
G01*
X1208405Y-811911D01*
X1293393Y-874801D02*
G01*
X1293393Y-811911D01*
X1293393Y-811911D01*
X1081405Y-925601D02*
G01*
X1242593Y-925601D01*
X1293393Y-874801D01*
X1261948Y-843356D01*
X1208405Y-843356D01*
X1208405Y-874801D02*
G01*
X1208405Y-811911D01*
X1208405Y-811911D01*
X1103401Y-874801D02*
G01*
X1103401Y-874801D01*
X1208405Y-874801D01*
X1208405Y-874801D02*
G01*
X1208405Y-874801D01*
X1166291Y-874801D01*
X1208405Y-874801D02*
G01*
X1208405Y-937691D01*
X1166291Y-979805D01*
X1968398Y-1739798D02*
G01*
X2051278Y-1739798D01*
X2051278Y-1739798D01*
X4110990Y-965200D02*
G01*
X4053103Y-965200D01*
X4394200Y-1244600D02*
G01*
X4394200Y-1294485D01*
X2336800Y-2692400D02*
G01*
X2336800Y-2794000D01*
X4884318Y-2362200D02*
G01*
X4884318Y-2412085D01*
X5646318Y-2844800D02*
G01*
X5646318Y-2794914D01*
X2844800Y-2818942D02*
G01*
X2844800Y-2843885D01*
X2844800Y-2818942D02*
G01*
X2844800Y-2794000D01*
X2844800Y-2794000D02*
G01*
X2844800Y-2744114D01*
X4518025Y-1562100D02*
G01*
X4518025Y-1418310D01*
X4394200Y-1294485D01*
X4588408Y-1562100D02*
G01*
X4518025Y-1562100D01*
X2534843Y-874801D02*
G01*
X2534843Y-874801D01*
X2503398Y-874801D01*
X2503398Y-874801D02*
G01*
X2566289Y-874801D01*
X2566289Y-874801D01*
X2051278Y-1739798D02*
G01*
X2052700Y-1739798D01*
X2075611Y-1716887D01*
X2403856Y-1221638D02*
G01*
X2383739Y-1221638D01*
X2503398Y-874801D02*
G01*
X2403856Y-974344D01*
X2403856Y-1221638D01*
X4247489Y-1801215D02*
G01*
X4202049Y-1801215D01*
X4194276Y-1808988D01*
X5697118Y-558800D02*
G01*
X5697118Y-1480718D01*
X5816600Y-1600200D01*
X2649118Y-2794000D02*
G01*
X2649118Y-2744114D01*
X2768600Y-2734691D02*
G01*
X2760878Y-2742412D01*
X2650820Y-2742412D01*
X2649118Y-2744114D01*
X2844800Y-2744114D02*
G01*
X2778023Y-2744114D01*
X2768600Y-2734691D01*
X4565446Y-876300D02*
G01*
X4508931Y-876300D01*
X4565446Y-876300D02*
G01*
X4606798Y-876300D01*
X4606798Y-876300D02*
G01*
X4704689Y-876300D01*
X2490114Y-2692400D02*
G01*
X2490114Y-2642514D01*
X2489987Y-2642387D01*
X2336927Y-2642387D01*
X2336800Y-2642514D01*
X2336800Y-2692400D02*
G01*
X2336800Y-2642514D01*
X2499639Y-2692400D02*
G01*
X2490114Y-2692400D01*
X2499639Y-2692400D02*
G01*
X2540000Y-2692400D01*
X2589885Y-2692400D02*
G01*
X2589885Y-2713583D01*
X2620416Y-2744114D01*
X2649118Y-2744114D01*
X2540000Y-2692400D02*
G01*
X2589885Y-2692400D01*
X1463395Y-2211908D02*
G01*
X1803400Y-1871903D01*
X1803400Y-1739798D01*
X4194276Y-1808988D02*
G01*
X4194276Y-1922399D01*
X4287012Y-2015134D01*
X4287012Y-2225116D01*
X4287012Y-2304542D02*
G01*
X4287012Y-2225116D01*
X5646318Y-2794914D02*
G01*
X6156375Y-2284857D01*
X6156375Y-1929942D01*
X4884318Y-2412085D02*
G01*
X4885461Y-2413228D01*
X5012639Y-2413228D01*
X5034661Y-2435250D01*
X5034661Y-2501392D01*
X5034661Y-2501392D02*
G01*
X5328183Y-2794914D01*
X5646318Y-2794914D01*
X4287012Y-2304542D02*
G01*
X4287012Y-2307996D01*
X4287012Y-2390876D02*
G01*
X4457903Y-2561767D01*
X4974285Y-2561767D01*
X5034661Y-2501392D01*
X4287012Y-2307996D02*
G01*
X4287012Y-2390876D01*
X4704689Y-876300D02*
G01*
X4728006Y-899617D01*
X4728006Y-1016838D01*
X2566289Y-874801D02*
G01*
X2607233Y-915746D01*
X4051249Y-915746D01*
X4053103Y-965200D02*
G01*
X4051249Y-963345D01*
X4051249Y-915746D01*
X4051249Y-915746D02*
G01*
X4051249Y-885799D01*
X4101007Y-836041D01*
X4468672Y-836041D01*
X4508931Y-876300D01*
X2503398Y-2274798D02*
G01*
X2408047Y-2179447D01*
X2408047Y-1731899D01*
X2075611Y-1716887D02*
G01*
X2090623Y-1731899D01*
X2408047Y-1731899D01*
X2408047Y-1731899D02*
G01*
X2439339Y-1700606D01*
X2439339Y-1257122D01*
X2403856Y-1221638D01*
X4053103Y-965200D02*
G01*
X4038930Y-979373D01*
X4038930Y-1105839D01*
X4078147Y-1145057D01*
X4090111Y-1145057D01*
X4241927Y-1296873D01*
X4391812Y-1296873D01*
X4394200Y-1294485D01*
X4728006Y-1016838D02*
G01*
X4728006Y-1038098D01*
X4848733Y-1158824D01*
X5007254Y-1158824D01*
X5038547Y-1127531D01*
X5038547Y-1098346D01*
X5078120Y-1058773D01*
X5260060Y-1058773D01*
X5289981Y-1028852D01*
X3733800Y-2743200D02*
G01*
X3683914Y-2743200D01*
X3205403Y-2482519D02*
G01*
X3423234Y-2482519D01*
X3683914Y-2743200D01*
X2503398Y-2274798D02*
G01*
X2855722Y-2274798D01*
X2976549Y-2395626D01*
X3205403Y-2395626D01*
X3205403Y-2482519D01*
X3205403Y-2482519D02*
G01*
X3205403Y-2829534D01*
X3190621Y-2844317D01*
X2845231Y-2844317D01*
X2844800Y-2843885D01*
X4111396Y-2001012D02*
G01*
X4194276Y-2001012D01*
X2540000Y-2794000D02*
G01*
X2540000Y-2845155D01*
X1884553Y-2388387D02*
G01*
X1833854Y-2337689D01*
X1803400Y-2337689D01*
X1803400Y-2274798D02*
G01*
X1803400Y-2337689D01*
X2609875Y-2930042D02*
G01*
X2619197Y-2939364D01*
X3908196Y-2939364D01*
X4247286Y-2600274D01*
X4247286Y-2443353D01*
X4194276Y-2390343D01*
X4194276Y-2001012D01*
X2540000Y-2845155D02*
G01*
X2609875Y-2915031D01*
X2609875Y-2930042D01*
X2609875Y-2930042D02*
G01*
X2603449Y-2936468D01*
X3835400Y-2743200D02*
G01*
X3885285Y-2743200D01*
X2503398Y-1999792D02*
G01*
X2566289Y-1999792D01*
X2566289Y-1999792D01*
X3340277Y-2012924D02*
G01*
X2579420Y-2012924D01*
X2566289Y-1999792D01*
X3578733Y-1774469D02*
G01*
X3340277Y-2012924D01*
X3340277Y-2012924D02*
G01*
X3886809Y-2559456D01*
X3886809Y-2741676D01*
X3885285Y-2743200D01*
X1973402Y-874801D02*
G01*
X1973402Y-811911D01*
X1973402Y-811911D01*
X1973402Y-811911D02*
G01*
X1973402Y-784072D01*
X2223185Y-534289D01*
X4205935Y-534289D01*
X4232173Y-560527D01*
X5051933Y-560527D01*
X5389372Y-897966D01*
X4970881Y-2463800D02*
G01*
X4970881Y-2513685D01*
X4465929Y-1924405D02*
G01*
X4351578Y-2038756D01*
X4351578Y-2133549D01*
X4741951Y-2523921D01*
X4960645Y-2523921D01*
X4970881Y-2513685D01*
X2134514Y-2649118D02*
G01*
X2134514Y-2594127D01*
X2079904Y-2539517D01*
X2184400Y-2649118D02*
G01*
X2134514Y-2649118D01*
X6023991Y-1510207D02*
G01*
X6072987Y-1510207D01*
X6072987Y-1510207D02*
G01*
X6113424Y-1550644D01*
X6113424Y-1813864D01*
X5879414Y-2047875D01*
X1378407Y-874801D02*
G01*
X1378407Y-961644D01*
X1397025Y-980262D01*
X4110990Y-915187D02*
G01*
X4156354Y-869823D01*
X4225645Y-869823D01*
X4271010Y-915187D01*
X4271010Y-915187D02*
G01*
X4347540Y-915187D01*
X4413529Y-981176D01*
X4178376Y-1082065D02*
G01*
X4111523Y-1015212D01*
X4110990Y-1015212D01*
X5435066Y-2070862D02*
G01*
X5340070Y-2070862D01*
X5257825Y-2153107D01*
X5257825Y-2215997D02*
G01*
X5257825Y-2153107D01*
D11*
G01*
X2710282Y-685800D03*
G01*
X2623717Y-685800D03*
D12*
G01*
X2438400Y-2692400D03*
G01*
X2336800Y-2692400D03*
D13*
G01*
X2184400Y-2649118D03*
D14*
G01*
X2184400Y-2735682D03*
D15*
G01*
X1103401Y-874801D03*
G01*
X2503398Y-874801D03*
G01*
X1103401Y-2274798D03*
G01*
X2503398Y-2274798D03*
D16*
G01*
X1208405Y-874801D03*
D17*
G01*
X1293393Y-874801D03*
G01*
X1378407Y-874801D03*
D16*
G01*
X1463395Y-874801D03*
D17*
G01*
X1548409Y-874801D03*
D16*
G01*
X1633397Y-874801D03*
D17*
G01*
X1718411Y-874801D03*
D16*
G01*
X1803400Y-874801D03*
D17*
G01*
X1888388Y-874801D03*
G01*
X1973402Y-874801D03*
G01*
X2058390Y-874801D03*
G01*
X2143404Y-874801D03*
D16*
G01*
X2228392Y-874801D03*
D17*
G01*
X2313406Y-874801D03*
G01*
X2398395Y-874801D03*
D18*
G01*
X2503398Y-979792D03*
G01*
X2503398Y-1064806D03*
G01*
X2503398Y-1149794D03*
G01*
X2503398Y-1234808D03*
G01*
X2503398Y-1319796D03*
D19*
G01*
X2503398Y-1404797D03*
D18*
G01*
X2503398Y-1489798D03*
D19*
G01*
X2503398Y-1574800D03*
D18*
G01*
X2503398Y-1659801D03*
D19*
G01*
X2503398Y-1744802D03*
D18*
G01*
X2503398Y-1829803D03*
G01*
X2503398Y-1914791D03*
G01*
X2503398Y-1999805D03*
G01*
X2503398Y-2084793D03*
G01*
X2503398Y-2169807D03*
D17*
G01*
X2398395Y-2274798D03*
G01*
X2313406Y-2274798D03*
D16*
G01*
X2228392Y-2274798D03*
D17*
G01*
X2143404Y-2274798D03*
G01*
X2058390Y-2274798D03*
G01*
X1973402Y-2274798D03*
G01*
X1888388Y-2274798D03*
D16*
G01*
X1803400Y-2274798D03*
D17*
G01*
X1718411Y-2274798D03*
D16*
G01*
X1633397Y-2274798D03*
D17*
G01*
X1548409Y-2274798D03*
D16*
G01*
X1463395Y-2274798D03*
D17*
G01*
X1378407Y-2274798D03*
G01*
X1293393Y-2274798D03*
D16*
G01*
X1208405Y-2274798D03*
D20*
G01*
X1103401Y-2169807D03*
G01*
X1103401Y-2084793D03*
G01*
X1103401Y-1999805D03*
G01*
X1103401Y-1914791D03*
G01*
X1103401Y-1829803D03*
D21*
G01*
X1103401Y-1744802D03*
D20*
G01*
X1103401Y-1659801D03*
D21*
G01*
X1103401Y-1574800D03*
D20*
G01*
X1103401Y-1489798D03*
D21*
G01*
X1103401Y-1404797D03*
D20*
G01*
X1103401Y-1319796D03*
G01*
X1103401Y-1234808D03*
G01*
X1103401Y-1149794D03*
G01*
X1103401Y-1064806D03*
G01*
X1103401Y-979792D03*
D22*
G01*
X1651000Y-1409801D03*
G01*
X1803400Y-1574800D03*
G01*
X1651000Y-1574800D03*
G01*
X1651000Y-1739798D03*
G01*
X1803400Y-1739798D03*
G01*
X1968398Y-1739798D03*
G01*
X1968398Y-1574800D03*
G01*
X1968398Y-1409801D03*
G01*
X1803400Y-1409801D03*
D23*
G01*
X5130800Y-2286000D03*
G01*
X5130800Y-2184400D03*
D24*
G01*
X5257812Y-2355999D03*
G01*
X5257812Y-2216000D03*
D13*
G01*
X5384800Y-2191918D03*
D14*
G01*
X5384800Y-2278482D03*
D12*
G01*
X4394200Y-1244600D03*
G01*
X4292600Y-1244600D03*
D25*
G01*
X4110990Y-1015212D03*
G01*
X4110990Y-965200D03*
G01*
X4110990Y-915187D03*
G01*
X4271009Y-915187D03*
G01*
X4271009Y-965200D03*
G01*
X4271009Y-1015212D03*
D26*
G01*
X4191000Y-965200D03*
D27*
G01*
X4606798Y-1257300D03*
G01*
X4606798Y-1130300D03*
G01*
X4606798Y-1003300D03*
G01*
X4606798Y-876300D03*
G01*
X5146802Y-876300D03*
G01*
X5146802Y-1003300D03*
G01*
X5146802Y-1130300D03*
G01*
X5146802Y-1257300D03*
D28*
G01*
X4588408Y-1943100D03*
G01*
X4588408Y-1816100D03*
G01*
X4588408Y-1689100D03*
G01*
X4588408Y-1562100D03*
G01*
X5368391Y-1562100D03*
G01*
X5368391Y-1689100D03*
G01*
X5368391Y-1816100D03*
G01*
X5368391Y-1943100D03*
D29*
G01*
X4978400Y-1752600D03*
D30*
G01*
X4350917Y-1447800D03*
G01*
X4437482Y-1447800D03*
D11*
G01*
X4970882Y-2463800D03*
G01*
X4884317Y-2463800D03*
G01*
X4970882Y-2260600D03*
G01*
X4884317Y-2260600D03*
D13*
G01*
X4013200Y-1338681D03*
D14*
G01*
X4013200Y-1252117D03*
D23*
G01*
X3835400Y-2743200D03*
G01*
X3835400Y-2641600D03*
D30*
G01*
X5697117Y-558800D03*
G01*
X5783682Y-558800D03*
D31*
G01*
X3733800Y-2641600D03*
G01*
X3733800Y-2743200D03*
D30*
G01*
X5646317Y-2844800D03*
G01*
X5732882Y-2844800D03*
D32*
G01*
X6023991Y-1690192D03*
G01*
X5941796Y-1690192D03*
G01*
X5941796Y-1510207D03*
G01*
X6023991Y-1510207D03*
G01*
X6023991Y-1600200D03*
D30*
G01*
X3258717Y-2794000D03*
G01*
X3345282Y-2794000D03*
G01*
X3055517Y-2794000D03*
G01*
X3142082Y-2794000D03*
D11*
G01*
X4970882Y-2362200D03*
G01*
X4884317Y-2362200D03*
D30*
G01*
X4020717Y-1600200D03*
G01*
X4107282Y-1600200D03*
D11*
G01*
X2735682Y-2794000D03*
G01*
X2649117Y-2794000D03*
D12*
G01*
X2438400Y-2794000D03*
G01*
X2336800Y-2794000D03*
D33*
G01*
X4094987Y-2307996D03*
G01*
X4287012Y-2307996D03*
G01*
X4191000Y-2518003D03*
D30*
G01*
X3284117Y-2692400D03*
G01*
X3370682Y-2692400D03*
D12*
G01*
X2946400Y-2794000D03*
G01*
X2844800Y-2794000D03*
D30*
G01*
X1912517Y-2692400D03*
G01*
X1999082Y-2692400D03*
D23*
G01*
X2540000Y-2794000D03*
G01*
X2540000Y-2692400D03*
D34*
G01*
X4111396Y-2001012D03*
G01*
X4111396Y-1808988D03*
G01*
X4321403Y-1905000D03*
D13*
G01*
X4013200Y-703681D03*
D14*
G01*
X4013200Y-617117D03*
D12*
G01*
X2667000Y-2692400D03*
G01*
X2768600Y-2692400D03*
D35*
G01*
X5816600Y-1600200D03*
D36*
G01*
X6829704Y-2083003D03*
G01*
X6829704Y-1218996D03*
D37*
G01*
X7247712Y-1218996D03*
G01*
X7247712Y-2083003D03*
D38*
G01*
X4985080Y-1105357D03*
G01*
X5435066Y-2070862D03*
G01*
X4413529Y-981176D03*
G01*
X4178376Y-1082065D03*
G01*
X1397025Y-980262D03*
G01*
X5879414Y-2047875D03*
G01*
X2079904Y-2539517D03*
G01*
X4465929Y-1924405D03*
G01*
X5164353Y-2046071D03*
G01*
X5389372Y-897966D03*
G01*
X3578733Y-1774469D03*
G01*
X1884553Y-2388387D03*
G01*
X2603449Y-2936468D03*
G01*
X5050231Y-2035225D03*
G01*
X4079925Y-1426768D03*
G01*
X2187956Y-1580337D03*
G01*
X2136470Y-758215D03*
G01*
X5289981Y-1028852D03*
G01*
X6156375Y-1929942D03*
G01*
X4728006Y-1016838D03*
G01*
X4247489Y-1801215D03*
G01*
X2383739Y-1221638D03*
G01*
X2075611Y-1716887D03*
G01*
X4759121Y-1815261D03*
G01*
X4451985Y-1787753D03*
G01*
X3895242Y-1045895D03*
G01*
X5565267Y-1272362D03*
G01*
X4360316Y-1038402D03*
G01*
X2384501Y-1480667D03*
G01*
X3920998Y-669721D03*
G01*
X4374819Y-1776399D03*
G01*
X1882393Y-2162835D03*
G01*
X2650363Y-2438044D03*
G01*
X3578733Y-1392174D03*
G01*
X3927094Y-862279D03*
G01*
X4345457Y-1529384D03*
G01*
X3841902Y-671372D03*
G01*
X5656478Y-1663750D03*
G01*
X6238544Y-1534896D03*
G01*
X5399633Y-1170000D03*
G01*
X2350287Y-999921D03*
G01*
X2957245Y-1794865D03*
G01*
X2385872Y-1678432D03*
G01*
X4756099Y-1926564D03*
G01*
X4254322Y-507060D03*
G01*
X6519367Y-1475587D03*
G01*
X6659372Y-1467459D03*
G01*
X2341600Y-2057704D03*
G01*
X2172944Y-2377770D03*
G01*
X6357416Y-1979904D03*
G01*
X5461965Y-1781098D03*
G01*
X5595950Y-2560523D03*
G01*
X3788079Y-2556078D03*
G01*
X4736338Y-2209292D03*
G01*
X1571701Y-1946427D03*
G01*
X3044748Y-1265936D03*
G01*
X4701590Y-1354378D03*
G01*
X2841599Y-1392961D03*
G01*
X5567451Y-1357376D03*
G01*
X2672410Y-1588897D03*
G01*
X4839944Y-1468247D03*
G01*
X3027197Y-1489913D03*
G01*
X5409514Y-1423847D03*
G01*
X2449347Y-2539441D03*
G01*
X3441039Y-2784805D03*
G01*
X6049441Y-1777009D03*
G01*
X4247972Y-1630273D03*
G01*
X5492724Y-1669440D03*
G01*
X5145989Y-793115D03*
G01*
X4121759Y-1300861D03*
G01*
X5116957Y-1336090D03*
G01*
X2000224Y-2185085D03*
G01*
X3876675Y-2288641D03*
G01*
X4747895Y-1205103D03*
G01*
X4217390Y-1196568D03*
G01*
X5055844Y-2155647D03*
G01*
X5457647Y-2155647D03*
G01*
X6570776Y-1633042D03*
G01*
X5568315Y-2101367D03*
G01*
X6229400Y-1625600D03*
G01*
X6953326Y-967359D03*
G01*
X4249445Y-1412011D03*
G01*
X4674031Y-2015413D03*
G01*
X5833262Y-629716D03*
G01*
X5904992Y-2799892D03*
G01*
X3397732Y-2539517D03*
G01*
X1789175Y-2539517D03*
G01*
X3697732Y-711682D03*
G01*
X4675301Y-2092299D03*
G01*
X4459351Y-1646123D03*
G01*
X3280790Y-1651965D03*
G01*
X2742311Y-2618130D03*
G01*
X2745308Y-2872943D03*
G01*
X5588000Y-1811324D03*
G01*
X1474622Y-985646D03*
G01*
X5344388Y-2735300D03*
G01*
X3521405Y-2885897D03*
G01*
X4952644Y-1469237D03*
G01*
X4871745Y-859536D03*
G01*
X2742209Y-821817D03*
G01*
X4872380Y-1105255D03*
G01*
X4100296Y-1091590D03*
G01*
X6675297Y-1220139D03*
G01*
X6667627Y-1555496D03*
G01*
X1965604Y-2514981D03*
G01*
X2652090Y-2593009D03*
G01*
X2093798Y-1793316D03*
G01*
X2053971Y-2440686D03*
G01*
X5572556Y-2438120D03*
G01*
X3151936Y-2646654D03*
G01*
X4799660Y-2065858D03*
G01*
X4405579Y-2072944D03*
G01*
X5401538Y-1283893D03*
G01*
X4335703Y-679577D03*
G01*
X4452366Y-1151432D03*
G01*
X5619496Y-974420D03*
G01*
X3959707Y-1436446D03*
G01*
X2110130Y-1446530D03*
G01*
X4465320Y-2155825D03*
G01*
X5660821Y-1973021D03*
G01*
X4465904Y-2024405D03*
M02*
