G04 Layer: TopPasteMaskLayer*
G04 EasyEDA v6.5.39, 2023-12-28 21:15:06*
G04 35ff57de02ea422eb169f7c644e1f47a,fc83978cdc934b7da63e149a84a413c2,10*
G04 Gerber Generator version 0.2*
G04 Scale: 100 percent, Rotated: No, Reflected: No *
G04 Dimensions in millimeters *
G04 leading zeros omitted , absolute positions ,4 integer and 5 decimal *
%FSLAX45Y45*%
%MOMM*%

%AMMACRO1*21,1,$1,$2,0,0,$3*%
%ADD10R,0.8499X0.3000*%
%ADD11MACRO1,1.1001X0.3X0.0000*%
%ADD12MACRO1,1.1001X0.2997X0.0000*%
%ADD13MACRO1,1.5999X0.8001X0.0000*%
%ADD14MACRO1,1.95X1.3X0.0000*%
%ADD15R,1.0000X0.7000*%
%ADD16R,1.4999X2.5999*%
%ADD17R,1.1999X0.6500*%
%ADD18R,0.0188X0.6500*%

%LPD*%
G36*
X5300726Y-1293774D02*
G01*
X5296712Y-1297787D01*
X5296712Y-1343812D01*
X5300726Y-1347774D01*
X5350764Y-1347774D01*
X5354777Y-1343812D01*
X5354777Y-1297787D01*
X5350764Y-1293774D01*
G37*
G36*
X5215636Y-1293774D02*
G01*
X5211622Y-1297787D01*
X5211622Y-1343812D01*
X5215636Y-1347774D01*
X5265724Y-1347774D01*
X5269687Y-1343812D01*
X5269687Y-1297787D01*
X5265724Y-1293774D01*
G37*
G36*
X6276187Y-1359712D02*
G01*
X6272225Y-1363675D01*
X6272225Y-1413764D01*
X6276187Y-1417777D01*
X6322212Y-1417777D01*
X6326225Y-1413764D01*
X6326225Y-1363675D01*
X6322212Y-1359712D01*
G37*
G36*
X6276187Y-1274622D02*
G01*
X6272225Y-1278636D01*
X6272225Y-1328674D01*
X6276187Y-1332687D01*
X6322212Y-1332687D01*
X6326225Y-1328674D01*
X6326225Y-1278636D01*
X6322212Y-1274622D01*
G37*
G36*
X6519926Y-1115974D02*
G01*
X6515912Y-1119987D01*
X6515912Y-1166012D01*
X6519926Y-1169974D01*
X6569964Y-1169974D01*
X6573977Y-1166012D01*
X6573977Y-1119987D01*
X6569964Y-1115974D01*
G37*
G36*
X6434836Y-1115974D02*
G01*
X6430822Y-1119987D01*
X6430822Y-1166012D01*
X6434836Y-1169974D01*
X6484924Y-1169974D01*
X6488887Y-1166012D01*
X6488887Y-1119987D01*
X6484924Y-1115974D01*
G37*
G36*
X6494526Y-1877974D02*
G01*
X6490512Y-1881987D01*
X6490512Y-1928012D01*
X6494526Y-1931974D01*
X6544564Y-1931974D01*
X6548577Y-1928012D01*
X6548577Y-1881987D01*
X6544564Y-1877974D01*
G37*
G36*
X6409436Y-1877974D02*
G01*
X6405422Y-1881987D01*
X6405422Y-1928012D01*
X6409436Y-1931974D01*
X6459524Y-1931974D01*
X6463487Y-1928012D01*
X6463487Y-1881987D01*
X6459524Y-1877974D01*
G37*
G36*
X6291326Y-1877974D02*
G01*
X6287312Y-1881987D01*
X6287312Y-1928012D01*
X6291326Y-1931974D01*
X6341364Y-1931974D01*
X6345377Y-1928012D01*
X6345377Y-1881987D01*
X6341364Y-1877974D01*
G37*
G36*
X6206236Y-1877974D02*
G01*
X6202222Y-1881987D01*
X6202222Y-1928012D01*
X6206236Y-1931974D01*
X6256324Y-1931974D01*
X6260287Y-1928012D01*
X6260287Y-1881987D01*
X6256324Y-1877974D01*
G37*
G36*
X6715556Y-1811020D02*
G01*
X6715556Y-1840992D01*
X6830568Y-1840992D01*
X6830568Y-1811020D01*
G37*
G36*
X6715556Y-1511046D02*
G01*
X6715556Y-1541018D01*
X6830568Y-1541018D01*
X6830568Y-1511046D01*
G37*
G36*
X6715658Y-1941017D02*
G01*
X6715658Y-2001012D01*
X6830669Y-2001012D01*
X6830669Y-1941017D01*
G37*
G36*
X6715658Y-1611020D02*
G01*
X6715658Y-1640992D01*
X6830669Y-1640992D01*
X6830669Y-1611020D01*
G37*
G36*
X6715658Y-1560982D02*
G01*
X6715658Y-1591005D01*
X6830669Y-1591005D01*
X6830669Y-1560982D01*
G37*
G36*
X6715658Y-1661007D02*
G01*
X6715658Y-1690979D01*
X6830669Y-1690979D01*
X6830669Y-1661007D01*
G37*
G36*
X6715658Y-1461008D02*
G01*
X6715658Y-1490980D01*
X6830669Y-1490980D01*
X6830669Y-1461008D01*
G37*
G36*
X6715658Y-1710994D02*
G01*
X6715658Y-1741017D01*
X6830669Y-1741017D01*
X6830669Y-1710994D01*
G37*
G36*
X6715658Y-1300988D02*
G01*
X6715658Y-1360982D01*
X6830669Y-1360982D01*
X6830669Y-1300988D01*
G37*
G36*
X6715658Y-1861007D02*
G01*
X6715658Y-1921002D01*
X6830669Y-1921002D01*
X6830669Y-1861007D01*
G37*
G36*
X6715658Y-1760982D02*
G01*
X6715658Y-1791004D01*
X6830669Y-1791004D01*
X6830669Y-1760982D01*
G37*
G36*
X6779717Y-2027986D02*
G01*
X6774230Y-2028291D01*
X6768795Y-2029104D01*
X6763512Y-2030425D01*
X6758330Y-2032304D01*
X6753402Y-2034692D01*
X6748729Y-2037537D01*
X6744360Y-2040889D01*
X6740347Y-2044598D01*
X6736689Y-2048713D01*
X6733489Y-2053183D01*
X6730746Y-2057907D01*
X6728510Y-2062886D01*
X6726783Y-2068118D01*
X6725564Y-2073452D01*
X6724853Y-2078888D01*
X6724700Y-2084374D01*
X6725107Y-2089861D01*
X6726072Y-2095246D01*
X6727545Y-2100529D01*
X6729577Y-2105609D01*
X6732066Y-2110486D01*
X6735064Y-2115108D01*
X6738467Y-2119376D01*
X6742277Y-2123338D01*
X6746494Y-2126843D01*
X6751015Y-2129942D01*
X6755841Y-2132533D01*
X6760870Y-2134666D01*
X6766153Y-2136292D01*
X6771487Y-2137410D01*
X6776974Y-2137918D01*
X6879691Y-2138019D01*
X6885178Y-2137714D01*
X6890613Y-2136902D01*
X6895896Y-2135581D01*
X6901078Y-2133701D01*
X6906006Y-2131314D01*
X6910679Y-2128469D01*
X6915048Y-2125116D01*
X6919061Y-2121408D01*
X6922719Y-2117293D01*
X6925919Y-2112822D01*
X6928662Y-2108098D01*
X6930898Y-2103120D01*
X6932675Y-2097887D01*
X6933895Y-2092553D01*
X6934555Y-2087118D01*
X6934708Y-2081631D01*
X6934301Y-2076145D01*
X6933336Y-2070760D01*
X6931863Y-2065477D01*
X6929831Y-2060397D01*
X6927342Y-2055520D01*
X6924344Y-2050897D01*
X6920941Y-2046630D01*
X6917131Y-2042668D01*
X6912914Y-2039162D01*
X6908393Y-2036064D01*
X6903567Y-2033422D01*
X6898538Y-2031339D01*
X6893255Y-2029714D01*
X6887921Y-2028596D01*
X6882434Y-2028088D01*
G37*
G36*
X6779717Y-1163980D02*
G01*
X6774230Y-1164285D01*
X6768795Y-1165098D01*
X6763512Y-1166418D01*
X6758330Y-1168298D01*
X6753402Y-1170686D01*
X6748729Y-1173530D01*
X6744360Y-1176883D01*
X6740347Y-1180592D01*
X6736689Y-1184706D01*
X6733489Y-1189177D01*
X6730746Y-1193901D01*
X6728510Y-1198880D01*
X6726783Y-1204112D01*
X6725564Y-1209446D01*
X6724853Y-1214882D01*
X6724700Y-1220368D01*
X6725107Y-1225854D01*
X6726072Y-1231239D01*
X6727545Y-1236522D01*
X6729577Y-1241602D01*
X6732066Y-1246479D01*
X6735064Y-1251102D01*
X6738467Y-1255369D01*
X6742277Y-1259332D01*
X6746494Y-1262837D01*
X6751015Y-1265936D01*
X6755841Y-1268526D01*
X6760870Y-1270660D01*
X6766153Y-1272286D01*
X6771487Y-1273403D01*
X6776974Y-1273911D01*
X6879691Y-1274013D01*
X6885178Y-1273708D01*
X6890613Y-1272895D01*
X6895896Y-1271574D01*
X6901078Y-1269695D01*
X6906006Y-1267307D01*
X6910679Y-1264462D01*
X6915048Y-1261110D01*
X6919061Y-1257401D01*
X6922719Y-1253286D01*
X6925919Y-1248816D01*
X6928662Y-1244092D01*
X6930898Y-1239113D01*
X6932675Y-1233881D01*
X6933895Y-1228547D01*
X6934555Y-1223111D01*
X6934708Y-1217625D01*
X6934301Y-1212138D01*
X6933336Y-1206754D01*
X6931863Y-1201470D01*
X6929831Y-1196390D01*
X6927342Y-1191514D01*
X6924344Y-1186891D01*
X6920941Y-1182624D01*
X6917131Y-1178661D01*
X6912914Y-1175156D01*
X6908393Y-1172057D01*
X6903567Y-1169416D01*
X6898538Y-1167333D01*
X6893255Y-1165707D01*
X6887921Y-1164590D01*
X6882434Y-1164082D01*
G37*
G36*
X7212736Y-2027986D02*
G01*
X7207250Y-2028291D01*
X7201814Y-2029104D01*
X7196480Y-2030425D01*
X7191349Y-2032304D01*
X7186422Y-2034692D01*
X7181748Y-2037537D01*
X7177379Y-2040889D01*
X7173366Y-2044598D01*
X7169708Y-2048713D01*
X7166508Y-2053183D01*
X7163765Y-2057907D01*
X7161530Y-2062886D01*
X7159752Y-2068118D01*
X7158532Y-2073452D01*
X7157872Y-2078888D01*
X7157720Y-2084374D01*
X7158126Y-2089861D01*
X7159091Y-2095246D01*
X7160564Y-2100529D01*
X7162596Y-2105609D01*
X7165086Y-2110486D01*
X7168032Y-2115108D01*
X7171486Y-2119376D01*
X7175296Y-2123338D01*
X7179513Y-2126843D01*
X7184034Y-2129942D01*
X7188860Y-2132533D01*
X7193889Y-2134666D01*
X7199122Y-2136292D01*
X7204506Y-2137410D01*
X7209993Y-2137918D01*
X7282738Y-2138019D01*
X7288174Y-2137714D01*
X7293609Y-2136902D01*
X7298944Y-2135581D01*
X7304074Y-2133701D01*
X7309002Y-2131314D01*
X7313675Y-2128469D01*
X7318044Y-2125116D01*
X7322108Y-2121408D01*
X7325715Y-2117293D01*
X7328916Y-2112822D01*
X7331659Y-2108098D01*
X7333894Y-2103120D01*
X7335672Y-2097887D01*
X7336891Y-2092553D01*
X7337552Y-2087118D01*
X7337704Y-2081631D01*
X7337298Y-2076145D01*
X7336332Y-2070760D01*
X7334859Y-2065477D01*
X7332827Y-2060397D01*
X7330338Y-2055520D01*
X7327392Y-2050897D01*
X7323937Y-2046630D01*
X7320127Y-2042668D01*
X7315911Y-2039162D01*
X7311390Y-2036064D01*
X7306564Y-2033422D01*
X7301534Y-2031339D01*
X7296302Y-2029714D01*
X7290917Y-2028596D01*
X7285431Y-2028088D01*
G37*
G36*
X7212736Y-1163980D02*
G01*
X7207250Y-1164285D01*
X7201814Y-1165098D01*
X7196480Y-1166418D01*
X7191349Y-1168298D01*
X7186422Y-1170686D01*
X7181748Y-1173530D01*
X7177379Y-1176883D01*
X7173366Y-1180592D01*
X7169708Y-1184706D01*
X7166508Y-1189177D01*
X7163765Y-1193901D01*
X7161530Y-1198880D01*
X7159752Y-1204112D01*
X7158532Y-1209446D01*
X7157872Y-1214882D01*
X7157720Y-1220368D01*
X7158126Y-1225854D01*
X7159091Y-1231239D01*
X7160564Y-1236522D01*
X7162596Y-1241602D01*
X7165086Y-1246479D01*
X7168032Y-1251102D01*
X7171486Y-1255369D01*
X7175296Y-1259332D01*
X7179513Y-1262837D01*
X7184034Y-1265936D01*
X7188860Y-1268526D01*
X7193889Y-1270660D01*
X7199122Y-1272286D01*
X7204506Y-1273403D01*
X7209993Y-1273911D01*
X7282738Y-1274013D01*
X7288174Y-1273708D01*
X7293609Y-1272895D01*
X7298944Y-1271574D01*
X7304074Y-1269695D01*
X7309002Y-1267307D01*
X7313675Y-1264462D01*
X7318044Y-1261110D01*
X7322108Y-1257401D01*
X7325715Y-1253286D01*
X7328916Y-1248816D01*
X7331659Y-1244092D01*
X7333894Y-1239113D01*
X7335672Y-1233881D01*
X7336891Y-1228547D01*
X7337552Y-1223111D01*
X7337704Y-1217625D01*
X7337298Y-1212138D01*
X7336332Y-1206754D01*
X7334859Y-1201470D01*
X7332827Y-1196390D01*
X7330338Y-1191514D01*
X7327392Y-1186891D01*
X7323937Y-1182624D01*
X7320127Y-1178661D01*
X7315911Y-1175156D01*
X7311390Y-1172057D01*
X7306564Y-1169416D01*
X7301534Y-1167333D01*
X7296302Y-1165707D01*
X7290917Y-1164590D01*
X7285431Y-1164082D01*
G37*
G36*
X6715658Y-1380998D02*
G01*
X6715658Y-1440992D01*
X6830669Y-1440992D01*
X6830669Y-1380998D01*
G37*
G36*
X2082393Y-1242517D02*
G01*
X2075383Y-1247495D01*
X2075383Y-1292504D01*
X2082393Y-1297482D01*
X2130399Y-1297482D01*
X2135428Y-1292504D01*
X2135428Y-1247495D01*
X2130399Y-1242517D01*
G37*
G36*
X1984400Y-1242517D02*
G01*
X1979422Y-1247495D01*
X1979422Y-1292504D01*
X1984400Y-1297482D01*
X2032406Y-1297482D01*
X2039416Y-1292504D01*
X2039416Y-1247495D01*
X2032406Y-1242517D01*
G37*
G36*
X1828393Y-1598117D02*
G01*
X1821383Y-1603095D01*
X1821383Y-1648104D01*
X1828393Y-1653082D01*
X1876399Y-1653082D01*
X1881428Y-1648104D01*
X1881428Y-1603095D01*
X1876399Y-1598117D01*
G37*
G36*
X1730400Y-1598117D02*
G01*
X1725422Y-1603095D01*
X1725422Y-1648104D01*
X1730400Y-1653082D01*
X1778406Y-1653082D01*
X1785416Y-1648104D01*
X1785416Y-1603095D01*
X1778406Y-1598117D01*
G37*
G36*
X1904593Y-1140917D02*
G01*
X1897583Y-1145895D01*
X1897583Y-1190904D01*
X1904593Y-1195882D01*
X1952599Y-1195882D01*
X1957628Y-1190904D01*
X1957628Y-1145895D01*
X1952599Y-1140917D01*
G37*
G36*
X1806600Y-1140917D02*
G01*
X1801622Y-1145895D01*
X1801622Y-1190904D01*
X1806600Y-1195882D01*
X1854606Y-1195882D01*
X1861616Y-1190904D01*
X1861616Y-1145895D01*
X1854606Y-1140917D01*
G37*
G36*
X1904593Y-1039317D02*
G01*
X1897583Y-1044295D01*
X1897583Y-1089304D01*
X1904593Y-1094282D01*
X1952599Y-1094282D01*
X1957628Y-1089304D01*
X1957628Y-1044295D01*
X1952599Y-1039317D01*
G37*
G36*
X1806600Y-1039317D02*
G01*
X1801622Y-1044295D01*
X1801622Y-1089304D01*
X1806600Y-1094282D01*
X1854606Y-1094282D01*
X1861616Y-1089304D01*
X1861616Y-1044295D01*
X1854606Y-1039317D01*
G37*
G36*
X6429400Y-1318717D02*
G01*
X6424422Y-1323695D01*
X6424422Y-1368704D01*
X6429400Y-1373682D01*
X6477406Y-1373682D01*
X6484416Y-1368704D01*
X6484416Y-1323695D01*
X6477406Y-1318717D01*
G37*
G36*
X6527393Y-1318717D02*
G01*
X6520383Y-1323695D01*
X6520383Y-1368704D01*
X6527393Y-1373682D01*
X6575399Y-1373682D01*
X6580378Y-1368704D01*
X6580378Y-1323695D01*
X6575399Y-1318717D01*
G37*
G36*
X6429400Y-1217117D02*
G01*
X6424422Y-1222095D01*
X6424422Y-1267104D01*
X6429400Y-1272082D01*
X6477406Y-1272082D01*
X6484416Y-1267104D01*
X6484416Y-1222095D01*
X6477406Y-1217117D01*
G37*
G36*
X6527393Y-1217117D02*
G01*
X6520383Y-1222095D01*
X6520383Y-1267104D01*
X6527393Y-1272082D01*
X6575399Y-1272082D01*
X6580378Y-1267104D01*
X6580378Y-1222095D01*
X6575399Y-1217117D01*
G37*
G36*
X5463387Y-1858822D02*
G01*
X5459425Y-1862836D01*
X5459425Y-1912874D01*
X5463387Y-1916887D01*
X5509412Y-1916887D01*
X5513425Y-1912874D01*
X5513425Y-1862836D01*
X5509412Y-1858822D01*
G37*
G36*
X5463387Y-1943912D02*
G01*
X5459425Y-1947875D01*
X5459425Y-1997964D01*
X5463387Y-2001977D01*
X5509412Y-2001977D01*
X5513425Y-1997964D01*
X5513425Y-1947875D01*
X5509412Y-1943912D01*
G37*
G36*
X5463387Y-1537512D02*
G01*
X5459425Y-1541475D01*
X5459425Y-1591564D01*
X5463387Y-1595577D01*
X5509412Y-1595577D01*
X5513425Y-1591564D01*
X5513425Y-1541475D01*
X5509412Y-1537512D01*
G37*
G36*
X5463387Y-1452422D02*
G01*
X5459425Y-1456436D01*
X5459425Y-1506474D01*
X5463387Y-1510487D01*
X5509412Y-1510487D01*
X5513425Y-1506474D01*
X5513425Y-1456436D01*
X5509412Y-1452422D01*
G37*
G36*
X6866636Y-1014374D02*
G01*
X6862622Y-1018387D01*
X6862622Y-1064412D01*
X6866636Y-1068374D01*
X6916724Y-1068374D01*
X6920687Y-1064412D01*
X6920687Y-1018387D01*
X6916724Y-1014374D01*
G37*
G36*
X6951725Y-1014374D02*
G01*
X6947712Y-1018387D01*
X6947712Y-1064412D01*
X6951725Y-1068374D01*
X7001764Y-1068374D01*
X7005777Y-1064412D01*
X7005777Y-1018387D01*
X7001764Y-1014374D01*
G37*
G36*
X1603400Y-1039317D02*
G01*
X1598422Y-1044295D01*
X1598422Y-1089304D01*
X1603400Y-1094282D01*
X1651406Y-1094282D01*
X1658416Y-1089304D01*
X1658416Y-1044295D01*
X1651406Y-1039317D01*
G37*
G36*
X1701393Y-1039317D02*
G01*
X1694383Y-1044295D01*
X1694383Y-1089304D01*
X1701393Y-1094282D01*
X1749399Y-1094282D01*
X1754378Y-1089304D01*
X1754378Y-1044295D01*
X1749399Y-1039317D01*
G37*
G36*
X5210200Y-1445717D02*
G01*
X5205222Y-1450695D01*
X5205222Y-1495704D01*
X5210200Y-1500682D01*
X5258206Y-1500682D01*
X5265216Y-1495704D01*
X5265216Y-1450695D01*
X5258206Y-1445717D01*
G37*
G36*
X5308193Y-1445717D02*
G01*
X5301183Y-1450695D01*
X5301183Y-1495704D01*
X5308193Y-1500682D01*
X5356199Y-1500682D01*
X5361178Y-1495704D01*
X5361178Y-1450695D01*
X5356199Y-1445717D01*
G37*
G36*
X2285593Y-1242517D02*
G01*
X2278583Y-1247495D01*
X2278583Y-1292504D01*
X2285593Y-1297482D01*
X2333599Y-1297482D01*
X2338628Y-1292504D01*
X2338628Y-1247495D01*
X2333599Y-1242517D01*
G37*
G36*
X2187600Y-1242517D02*
G01*
X2182622Y-1247495D01*
X2182622Y-1292504D01*
X2187600Y-1297482D01*
X2235606Y-1297482D01*
X2242616Y-1292504D01*
X2242616Y-1247495D01*
X2235606Y-1242517D01*
G37*
G36*
X2285593Y-1140917D02*
G01*
X2278583Y-1145895D01*
X2278583Y-1190904D01*
X2285593Y-1195882D01*
X2333599Y-1195882D01*
X2338628Y-1190904D01*
X2338628Y-1145895D01*
X2333599Y-1140917D01*
G37*
G36*
X2187600Y-1140917D02*
G01*
X2182622Y-1145895D01*
X2182622Y-1190904D01*
X2187600Y-1195882D01*
X2235606Y-1195882D01*
X2242616Y-1190904D01*
X2242616Y-1145895D01*
X2235606Y-1140917D01*
G37*
G36*
X5215636Y-1192174D02*
G01*
X5211622Y-1196187D01*
X5211622Y-1242212D01*
X5215636Y-1246174D01*
X5265724Y-1246174D01*
X5269687Y-1242212D01*
X5269687Y-1196187D01*
X5265724Y-1192174D01*
G37*
G36*
X5300726Y-1192174D02*
G01*
X5296712Y-1196187D01*
X5296712Y-1242212D01*
X5300726Y-1246174D01*
X5350764Y-1246174D01*
X5354777Y-1242212D01*
X5354777Y-1196187D01*
X5350764Y-1192174D01*
G37*
G36*
X4945126Y-1293774D02*
G01*
X4941112Y-1297787D01*
X4941112Y-1343812D01*
X4945126Y-1347774D01*
X4995164Y-1347774D01*
X4999177Y-1343812D01*
X4999177Y-1297787D01*
X4995164Y-1293774D01*
G37*
G36*
X4860036Y-1293774D02*
G01*
X4856022Y-1297787D01*
X4856022Y-1343812D01*
X4860036Y-1347774D01*
X4910124Y-1347774D01*
X4914087Y-1343812D01*
X4914087Y-1297787D01*
X4910124Y-1293774D01*
G37*
G36*
X4945126Y-1852574D02*
G01*
X4941112Y-1856587D01*
X4941112Y-1902612D01*
X4945126Y-1906574D01*
X4995164Y-1906574D01*
X4999177Y-1902612D01*
X4999177Y-1856587D01*
X4995164Y-1852574D01*
G37*
G36*
X4860036Y-1852574D02*
G01*
X4856022Y-1856587D01*
X4856022Y-1902612D01*
X4860036Y-1906574D01*
X4910124Y-1906574D01*
X4914087Y-1902612D01*
X4914087Y-1856587D01*
X4910124Y-1852574D01*
G37*
G36*
X5215636Y-1090574D02*
G01*
X5211622Y-1094587D01*
X5211622Y-1140612D01*
X5215636Y-1144574D01*
X5265724Y-1144574D01*
X5269687Y-1140612D01*
X5269687Y-1094587D01*
X5265724Y-1090574D01*
G37*
G36*
X5300726Y-1090574D02*
G01*
X5296712Y-1094587D01*
X5296712Y-1140612D01*
X5300726Y-1144574D01*
X5350764Y-1144574D01*
X5354777Y-1140612D01*
X5354777Y-1094587D01*
X5350764Y-1090574D01*
G37*
G36*
X4860036Y-1192174D02*
G01*
X4856022Y-1196187D01*
X4856022Y-1242212D01*
X4860036Y-1246174D01*
X4910124Y-1246174D01*
X4914087Y-1242212D01*
X4914087Y-1196187D01*
X4910124Y-1192174D01*
G37*
G36*
X4945126Y-1192174D02*
G01*
X4941112Y-1196187D01*
X4941112Y-1242212D01*
X4945126Y-1246174D01*
X4995164Y-1246174D01*
X4999177Y-1242212D01*
X4999177Y-1196187D01*
X4995164Y-1192174D01*
G37*
G36*
X5463387Y-1334312D02*
G01*
X5459425Y-1338275D01*
X5459425Y-1388364D01*
X5463387Y-1392377D01*
X5509412Y-1392377D01*
X5513425Y-1388364D01*
X5513425Y-1338275D01*
X5509412Y-1334312D01*
G37*
G36*
X5463387Y-1249222D02*
G01*
X5459425Y-1253236D01*
X5459425Y-1303274D01*
X5463387Y-1307287D01*
X5509412Y-1307287D01*
X5513425Y-1303274D01*
X5513425Y-1253236D01*
X5509412Y-1249222D01*
G37*
G36*
X1871725Y-1242974D02*
G01*
X1867712Y-1246987D01*
X1867712Y-1293012D01*
X1871725Y-1296974D01*
X1921764Y-1296974D01*
X1925777Y-1293012D01*
X1925777Y-1246987D01*
X1921764Y-1242974D01*
G37*
G36*
X1786636Y-1242974D02*
G01*
X1782622Y-1246987D01*
X1782622Y-1293012D01*
X1786636Y-1296974D01*
X1836724Y-1296974D01*
X1840687Y-1293012D01*
X1840687Y-1246987D01*
X1836724Y-1242974D01*
G37*
G36*
X5215636Y-1547774D02*
G01*
X5211622Y-1551787D01*
X5211622Y-1597812D01*
X5215636Y-1601774D01*
X5265724Y-1601774D01*
X5269687Y-1597812D01*
X5269687Y-1551787D01*
X5265724Y-1547774D01*
G37*
G36*
X5300726Y-1547774D02*
G01*
X5296712Y-1551787D01*
X5296712Y-1597812D01*
X5300726Y-1601774D01*
X5350764Y-1601774D01*
X5354777Y-1597812D01*
X5354777Y-1551787D01*
X5350764Y-1547774D01*
G37*
G36*
X5215636Y-1852574D02*
G01*
X5211622Y-1856587D01*
X5211622Y-1902612D01*
X5215636Y-1906574D01*
X5265724Y-1906574D01*
X5269687Y-1902612D01*
X5269687Y-1856587D01*
X5265724Y-1852574D01*
G37*
G36*
X5300726Y-1852574D02*
G01*
X5296712Y-1856587D01*
X5296712Y-1902612D01*
X5300726Y-1906574D01*
X5350764Y-1906574D01*
X5354777Y-1902612D01*
X5354777Y-1856587D01*
X5350764Y-1852574D01*
G37*
G36*
X5215636Y-1954174D02*
G01*
X5211622Y-1958187D01*
X5211622Y-2004212D01*
X5215636Y-2008174D01*
X5265724Y-2008174D01*
X5269687Y-2004212D01*
X5269687Y-1958187D01*
X5265724Y-1954174D01*
G37*
G36*
X5300726Y-1954174D02*
G01*
X5296712Y-1958187D01*
X5296712Y-2004212D01*
X5300726Y-2008174D01*
X5350764Y-2008174D01*
X5354777Y-2004212D01*
X5354777Y-1958187D01*
X5350764Y-1954174D01*
G37*
G36*
X5215636Y-2055774D02*
G01*
X5211622Y-2059787D01*
X5211622Y-2105812D01*
X5215636Y-2109774D01*
X5265724Y-2109774D01*
X5269687Y-2105812D01*
X5269687Y-2059787D01*
X5265724Y-2055774D01*
G37*
G36*
X5300726Y-2055774D02*
G01*
X5296712Y-2059787D01*
X5296712Y-2105812D01*
X5300726Y-2109774D01*
X5350764Y-2109774D01*
X5354777Y-2105812D01*
X5354777Y-2059787D01*
X5350764Y-2055774D01*
G37*
G36*
X4860036Y-2055774D02*
G01*
X4856022Y-2059787D01*
X4856022Y-2105812D01*
X4860036Y-2109774D01*
X4910124Y-2109774D01*
X4914087Y-2105812D01*
X4914087Y-2059787D01*
X4910124Y-2055774D01*
G37*
G36*
X4945126Y-2055774D02*
G01*
X4941112Y-2059787D01*
X4941112Y-2105812D01*
X4945126Y-2109774D01*
X4995164Y-2109774D01*
X4999177Y-2105812D01*
X4999177Y-2059787D01*
X4995164Y-2055774D01*
G37*
G36*
X4860036Y-1954174D02*
G01*
X4856022Y-1958187D01*
X4856022Y-2004212D01*
X4860036Y-2008174D01*
X4910124Y-2008174D01*
X4914087Y-2004212D01*
X4914087Y-1958187D01*
X4910124Y-1954174D01*
G37*
G36*
X4945126Y-1954174D02*
G01*
X4941112Y-1958187D01*
X4941112Y-2004212D01*
X4945126Y-2008174D01*
X4995164Y-2008174D01*
X4999177Y-2004212D01*
X4999177Y-1958187D01*
X4995164Y-1954174D01*
G37*
G36*
X5564987Y-1943912D02*
G01*
X5561025Y-1947875D01*
X5561025Y-1997964D01*
X5564987Y-2001977D01*
X5611012Y-2001977D01*
X5615025Y-1997964D01*
X5615025Y-1947875D01*
X5611012Y-1943912D01*
G37*
G36*
X5564987Y-1858822D02*
G01*
X5561025Y-1862836D01*
X5561025Y-1912874D01*
X5564987Y-1916887D01*
X5611012Y-1916887D01*
X5615025Y-1912874D01*
X5615025Y-1862836D01*
X5611012Y-1858822D01*
G37*
G36*
X1828393Y-1852117D02*
G01*
X1821383Y-1857095D01*
X1821383Y-1902104D01*
X1828393Y-1907082D01*
X1876399Y-1907082D01*
X1881428Y-1902104D01*
X1881428Y-1857095D01*
X1876399Y-1852117D01*
G37*
G36*
X1730400Y-1852117D02*
G01*
X1725422Y-1857095D01*
X1725422Y-1902104D01*
X1730400Y-1907082D01*
X1778406Y-1907082D01*
X1785416Y-1902104D01*
X1785416Y-1857095D01*
X1778406Y-1852117D01*
G37*
G36*
X1752193Y-1344117D02*
G01*
X1745183Y-1349095D01*
X1745183Y-1394104D01*
X1752193Y-1399082D01*
X1800199Y-1399082D01*
X1805228Y-1394104D01*
X1805228Y-1349095D01*
X1800199Y-1344117D01*
G37*
G36*
X1654200Y-1344117D02*
G01*
X1649222Y-1349095D01*
X1649222Y-1394104D01*
X1654200Y-1399082D01*
X1702206Y-1399082D01*
X1709216Y-1394104D01*
X1709216Y-1349095D01*
X1702206Y-1344117D01*
G37*
G36*
X2100326Y-1039774D02*
G01*
X2096312Y-1043787D01*
X2096312Y-1089812D01*
X2100326Y-1093774D01*
X2150364Y-1093774D01*
X2154377Y-1089812D01*
X2154377Y-1043787D01*
X2150364Y-1039774D01*
G37*
G36*
X2015236Y-1039774D02*
G01*
X2011222Y-1043787D01*
X2011222Y-1089812D01*
X2015236Y-1093774D01*
X2065324Y-1093774D01*
X2069287Y-1089812D01*
X2069287Y-1043787D01*
X2065324Y-1039774D01*
G37*
D10*
G01*
X6480810Y-1675612D03*
G01*
X6480810Y-1625600D03*
G01*
X6480810Y-1575587D03*
G01*
X6320790Y-1575587D03*
G01*
X6320790Y-1625600D03*
G01*
X6320790Y-1675612D03*
D11*
G01*
X4567212Y-974407D03*
G01*
X4567212Y-1024420D03*
G01*
X4567212Y-1074407D03*
G01*
X4567212Y-1124419D03*
G01*
X4567212Y-1174407D03*
G01*
X4567212Y-1224419D03*
G01*
X4567212Y-1274406D03*
G01*
X4567212Y-1324419D03*
G01*
X4567212Y-1374406D03*
G01*
X4567212Y-1424419D03*
G01*
X4567212Y-1474406D03*
G01*
X4567212Y-1524419D03*
G01*
X4567212Y-1574406D03*
D12*
G01*
X4567212Y-1624406D03*
D11*
G01*
X4567212Y-1674406D03*
G01*
X4567212Y-1724418D03*
G01*
X4567212Y-1774405D03*
G01*
X4567212Y-1824418D03*
G01*
X4567212Y-1874405D03*
G01*
X4567212Y-1924418D03*
G01*
X4567212Y-1974405D03*
G01*
X4567212Y-2024418D03*
G01*
X4567212Y-2074405D03*
G01*
X4567212Y-2124417D03*
D13*
G01*
X4472216Y-684403D03*
D14*
G01*
X4454715Y-789406D03*
G01*
X4454715Y-2309393D03*
D13*
G01*
X4472216Y-2414397D03*
D15*
G01*
X5693206Y-476707D03*
G01*
X6143193Y-476707D03*
G01*
X5693206Y-691692D03*
G01*
X6143193Y-691692D03*
G01*
X5693206Y-2584907D03*
G01*
X6143193Y-2584907D03*
G01*
X5693206Y-2799892D03*
G01*
X6143193Y-2799892D03*
D16*
G01*
X3278987Y-2692400D03*
G01*
X3579012Y-2692400D03*
G01*
X1907387Y-2692400D03*
G01*
X2207412Y-2692400D03*
D17*
G01*
X2264003Y-2153412D03*
G01*
X2264003Y-1961388D03*
G01*
X2053996Y-2057400D03*
D16*
G01*
X3579012Y-558800D03*
G01*
X3278987Y-558800D03*
G01*
X2207412Y-558800D03*
G01*
X1907387Y-558800D03*
D17*
G01*
X2264003Y-1670812D03*
G01*
X2264003Y-1478788D03*
G01*
X2053996Y-1574800D03*
M02*
