M48
METRIC,LZ,000.000
;FILE_FORMAT=3:3
;TYPE=PLATED
;Layer: PTH_Through
;EasyEDA v6.5.39, 2024-01-10 16:20:09
;85b321e934e241e88075cb939218c85a,3d9c8b04885e45b7839bd8e85c0fd600,10
;Gerber Generator version 0.2
;Holesize 1 = 0.305 mm
T01C0.305
;Holesize 2 = 0.751 mm
T02C0.751
;Holesize 3 = 1.000 mm
T03C1.000
;Holesize 4 = 1.301 mm
T04C1.301
;Holesize 5 = 1.450 mm
T05C1.450
;Holesize 6 = 1.800 mm
T06C1.800
;Holesize 7 = 2.540 mm
T07C2.540
;Holesize 8 = 2.551 mm
T08C2.551
%
G05
G90
T01
X038481Y007874
X040259Y002413
X032385Y005080
X028448Y002032
T02
X022570Y-008390
X022570Y009390
X045430Y-008389
X045430Y006851
T03
X043500Y017299
X043500Y020699
X043500Y024800
X043500Y028200
T04
X009343Y023909
X004289Y023909
X004289Y016391
X009343Y016391
X029638Y016391
X029638Y023909
T05
X013000Y032201
X013000Y028201
X014224Y-006509
X014224Y-010509
X004300Y032201
X004300Y028201
T06
X008540Y-006200
X008540Y-001120
X008540Y004005G85X008540Y003915
T07
X006000Y-008737G85X006000Y-008743
X006000Y006503G85X006000Y006497
T08
X033000Y030500
X015500Y006000
M30
