G04 Layer: TopSilkscreenLayer*
G04 EasyEDA v6.5.39, 2024-01-10 16:20:09*
G04 85b321e934e241e88075cb939218c85a,3d9c8b04885e45b7839bd8e85c0fd600,10*
G04 Gerber Generator version 0.2*
G04 Scale: 100 percent, Rotated: No, Reflected: No *
G04 Dimensions in millimeters *
G04 leading zeros omitted , absolute positions ,4 integer and 5 decimal *
%FSLAX45Y45*%
%MOMM*%

%ADD10C,0.2032*%
%ADD11C,0.1600*%
%ADD12C,0.1524*%
%ADD13C,0.1000*%
%ADD14C,0.1200*%
%ADD15C,0.2540*%
%ADD16C,0.2000*%
%ADD17C,0.2030*%
%ADD18C,0.1270*%
%ADD19C,0.0148*%

%LPD*%
G36*
X1670812Y-770128D02*
G01*
X1670812Y-788416D01*
X1785874Y-788416D01*
X1670812Y-846836D01*
X1670812Y-874268D01*
X1816100Y-874268D01*
X1816100Y-856234D01*
X1690624Y-856234D01*
X1816100Y-791972D01*
X1816100Y-770128D01*
G37*
G36*
X237236Y703580D02*
G01*
X232765Y693572D01*
X229108Y682752D01*
X226821Y670560D01*
X226060Y655828D01*
X226263Y649478D01*
X226872Y643686D01*
X227939Y638454D01*
X229362Y633730D01*
X231292Y629513D01*
X233629Y625500D01*
X236270Y621639D01*
X239267Y617982D01*
X242214Y614984D01*
X245567Y612394D01*
X249224Y610158D01*
X253238Y608330D01*
X257454Y606755D01*
X261620Y605688D01*
X265836Y604977D01*
X270002Y604774D01*
X276453Y605180D01*
X282448Y606501D01*
X287934Y608634D01*
X292862Y611632D01*
X301040Y620725D01*
X306832Y633730D01*
X314452Y663448D01*
X315874Y667867D01*
X317703Y671677D01*
X319836Y674979D01*
X322326Y677672D01*
X325323Y679805D01*
X328828Y681278D01*
X332689Y682193D01*
X337058Y682498D01*
X341985Y681990D01*
X346405Y680415D01*
X350266Y677773D01*
X353568Y674116D01*
X356362Y669696D01*
X358343Y664667D01*
X359511Y658926D01*
X359918Y652526D01*
X359613Y646633D01*
X358698Y640842D01*
X357225Y635203D01*
X355092Y629666D01*
X352704Y624484D01*
X350062Y619760D01*
X347218Y615594D01*
X344170Y611886D01*
X344170Y610362D01*
X367284Y610362D01*
X369417Y615137D01*
X371297Y620166D01*
X372872Y625297D01*
X375259Y636117D01*
X376021Y641807D01*
X376529Y647700D01*
X376682Y653796D01*
X375920Y664006D01*
X373684Y673201D01*
X369976Y681532D01*
X364744Y688848D01*
X351332Y699109D01*
X335026Y702564D01*
X330962Y702411D01*
X327101Y701903D01*
X323443Y701141D01*
X316890Y698754D01*
X313944Y697179D01*
X311302Y695299D01*
X306476Y690778D01*
X304342Y688238D01*
X302514Y685444D01*
X299516Y679450D01*
X296976Y672744D01*
X289306Y642874D01*
X287731Y638505D01*
X285902Y634746D01*
X283667Y631647D01*
X281178Y629158D01*
X278180Y627278D01*
X274828Y625906D01*
X271068Y625094D01*
X266954Y624840D01*
X261772Y625348D01*
X257098Y626872D01*
X252984Y629412D01*
X249428Y632968D01*
X244297Y643280D01*
X242570Y657352D01*
X242874Y662990D01*
X243840Y668782D01*
X245414Y674674D01*
X247650Y680720D01*
X253542Y692099D01*
X261620Y702310D01*
X261620Y703580D01*
G37*
G36*
X228600Y584962D02*
G01*
X228600Y566928D01*
X353822Y566928D01*
X268732Y529336D01*
X268732Y517651D01*
X353822Y479806D01*
X228600Y479806D01*
X228600Y460501D01*
X373888Y460501D01*
X373888Y487172D01*
X293116Y522224D01*
X373888Y558546D01*
X373888Y584962D01*
G37*
G36*
X301244Y439166D02*
G01*
X284378Y438099D01*
X269240Y434848D01*
X256184Y429310D01*
X245364Y421893D01*
X236728Y412496D01*
X230632Y401574D01*
X226821Y388924D01*
X225552Y374904D01*
X242316Y374904D01*
X243281Y384454D01*
X246125Y392988D01*
X250901Y400558D01*
X257556Y407162D01*
X265887Y412394D01*
X275945Y416102D01*
X287731Y418338D01*
X301244Y419100D01*
X314706Y418338D01*
X326644Y416051D01*
X331978Y414375D01*
X336854Y412292D01*
X341274Y409905D01*
X345186Y407162D01*
X348843Y404012D01*
X351993Y400608D01*
X354584Y397002D01*
X356616Y393192D01*
X358292Y389077D01*
X359460Y384657D01*
X360172Y379933D01*
X360426Y374904D01*
X360172Y369976D01*
X359460Y365252D01*
X358292Y360832D01*
X356616Y356616D01*
X354482Y352704D01*
X351840Y349046D01*
X348742Y345694D01*
X345186Y342646D01*
X341376Y340004D01*
X337058Y337616D01*
X332232Y335534D01*
X326898Y333756D01*
X314909Y331470D01*
X301244Y330708D01*
X287731Y331470D01*
X275996Y333705D01*
X265887Y337413D01*
X257556Y342646D01*
X250901Y349148D01*
X246125Y356666D01*
X243281Y365252D01*
X242316Y374904D01*
X225552Y374904D01*
X226771Y361238D01*
X230378Y348742D01*
X236524Y337769D01*
X245364Y328168D01*
X256184Y320598D01*
X269240Y315214D01*
X284378Y311810D01*
X301244Y310642D01*
X318465Y311759D01*
X333502Y315214D01*
X346608Y320751D01*
X357378Y328168D01*
X361797Y332486D01*
X365709Y337261D01*
X369062Y342493D01*
X371856Y348234D01*
X375666Y360883D01*
X376936Y374904D01*
X375716Y388924D01*
X372110Y401574D01*
X365861Y412445D01*
X357378Y421640D01*
X346456Y429056D01*
X333502Y434593D01*
X318465Y437997D01*
G37*
G36*
X228600Y289306D02*
G01*
X228600Y270002D01*
X286766Y270002D01*
X296164Y261620D01*
X228600Y208534D01*
X228600Y183388D01*
X309118Y247142D01*
X373888Y186944D01*
X373888Y210566D01*
X307086Y270002D01*
X373888Y270002D01*
X373888Y289306D01*
G37*
G36*
X228600Y171958D02*
G01*
X228600Y81026D01*
X245871Y81026D01*
X245871Y152400D01*
X299720Y152400D01*
X299720Y85852D01*
X316992Y85852D01*
X316992Y152400D01*
X356870Y152400D01*
X356870Y81026D01*
X373888Y81026D01*
X373888Y171958D01*
G37*
G36*
X228600Y-2794D02*
G01*
X228600Y-22098D01*
X357378Y-22098D01*
X357276Y-43180D01*
X356260Y-54203D01*
X355346Y-58928D01*
X354177Y-63195D01*
X352653Y-67360D01*
X350875Y-71475D01*
X348742Y-75438D01*
X340664Y-85039D01*
X330200Y-91948D01*
X317042Y-95961D01*
X301498Y-97282D01*
X285902Y-96012D01*
X273050Y-92202D01*
X267614Y-89357D01*
X262788Y-85902D01*
X258470Y-81889D01*
X254762Y-77216D01*
X252272Y-73050D01*
X250190Y-68681D01*
X248462Y-64160D01*
X247142Y-59436D01*
X246278Y-54406D01*
X245617Y-48971D01*
X245110Y-36830D01*
X245110Y-22098D01*
X228600Y-22098D01*
X228600Y-36322D01*
X229158Y-52527D01*
X230886Y-65532D01*
X232308Y-71120D01*
X234391Y-76708D01*
X237032Y-82296D01*
X240284Y-87884D01*
X250952Y-100025D01*
X265176Y-109474D01*
X282194Y-115570D01*
X301244Y-117602D01*
X311454Y-117094D01*
X320954Y-115620D01*
X329742Y-113182D01*
X337820Y-109728D01*
X351739Y-100533D01*
X362458Y-88138D01*
X364998Y-83718D01*
X367233Y-78943D01*
X369163Y-73710D01*
X370840Y-68072D01*
X373126Y-54254D01*
X373888Y-36068D01*
X373888Y-2794D01*
G37*
G36*
X228600Y-138430D02*
G01*
X228600Y-229362D01*
X245871Y-229362D01*
X245871Y-157734D01*
X299720Y-157734D01*
X299720Y-224536D01*
X316992Y-224536D01*
X316992Y-157734D01*
X356870Y-157734D01*
X356870Y-229362D01*
X373888Y-229362D01*
X373888Y-138430D01*
G37*
G36*
X356870Y-235966D02*
G01*
X356870Y-284734D01*
X228600Y-284734D01*
X228600Y-304038D01*
X356870Y-304038D01*
X356870Y-352806D01*
X373888Y-352806D01*
X373888Y-235966D01*
G37*
G36*
X228600Y-367538D02*
G01*
X228600Y-458470D01*
X245871Y-458470D01*
X245871Y-386842D01*
X299720Y-386842D01*
X299720Y-453643D01*
X316992Y-453643D01*
X316992Y-386842D01*
X356870Y-386842D01*
X356870Y-458470D01*
X373888Y-458470D01*
X373888Y-367538D01*
G37*
G36*
X301244Y-471424D02*
G01*
X283870Y-472643D01*
X268732Y-476250D01*
X255727Y-482041D01*
X245110Y-489712D01*
X236677Y-499160D01*
X230632Y-510285D01*
X227228Y-522782D01*
X226060Y-536448D01*
X226314Y-544423D01*
X227075Y-550672D01*
X228346Y-556260D01*
X230124Y-562356D01*
X232156Y-567994D01*
X238506Y-581660D01*
X261620Y-581660D01*
X261620Y-580390D01*
X256032Y-574040D01*
X252984Y-569823D01*
X249936Y-564896D01*
X247091Y-558901D01*
X244602Y-552196D01*
X243078Y-544779D01*
X242570Y-536702D01*
X242824Y-532180D01*
X243535Y-527761D01*
X244703Y-523392D01*
X246379Y-519176D01*
X248412Y-515213D01*
X250901Y-511556D01*
X253847Y-508152D01*
X257302Y-504951D01*
X261213Y-502056D01*
X265480Y-499414D01*
X270205Y-497078D01*
X275336Y-495046D01*
X287274Y-492353D01*
X301244Y-491490D01*
X314502Y-492353D01*
X326390Y-495046D01*
X331774Y-496874D01*
X336702Y-499059D01*
X341172Y-501548D01*
X345186Y-504443D01*
X348640Y-507746D01*
X351688Y-511301D01*
X354228Y-515112D01*
X356362Y-519176D01*
X358038Y-523341D01*
X359206Y-527608D01*
X359918Y-532079D01*
X360172Y-536702D01*
X359664Y-544779D01*
X359003Y-548386D01*
X357174Y-554939D01*
X354736Y-561035D01*
X351688Y-566674D01*
X348386Y-571652D01*
X341122Y-580136D01*
X341122Y-581660D01*
X364236Y-581660D01*
X366826Y-576935D01*
X371144Y-567182D01*
X372872Y-562356D01*
X374345Y-556768D01*
X375666Y-550672D01*
X376428Y-543915D01*
X376682Y-536956D01*
X375412Y-522935D01*
X371602Y-510285D01*
X365201Y-499109D01*
X356616Y-489458D01*
X345643Y-481634D01*
X332994Y-475996D01*
X318312Y-472592D01*
G37*
G36*
X356870Y-584962D02*
G01*
X356870Y-633730D01*
X228600Y-633730D01*
X228600Y-653034D01*
X356870Y-653034D01*
X356870Y-702056D01*
X373888Y-702056D01*
X373888Y-584962D01*
G37*
G36*
X301244Y-708406D02*
G01*
X284378Y-709472D01*
X269240Y-712724D01*
X256184Y-718261D01*
X245364Y-725678D01*
X236728Y-735076D01*
X230632Y-745998D01*
X226821Y-758647D01*
X225552Y-772668D01*
X242316Y-772668D01*
X243281Y-763016D01*
X246125Y-754430D01*
X250901Y-746912D01*
X257556Y-740410D01*
X265887Y-735177D01*
X275945Y-731469D01*
X287731Y-729234D01*
X301244Y-728472D01*
X314706Y-729234D01*
X326644Y-731520D01*
X331978Y-733196D01*
X336854Y-735279D01*
X341274Y-737666D01*
X345186Y-740410D01*
X348843Y-743559D01*
X351993Y-746963D01*
X354584Y-750570D01*
X356616Y-754380D01*
X358292Y-758494D01*
X359460Y-762863D01*
X360172Y-767638D01*
X360426Y-772668D01*
X360172Y-777595D01*
X359460Y-782320D01*
X358292Y-786739D01*
X356616Y-790956D01*
X354482Y-794867D01*
X351840Y-798525D01*
X348742Y-801878D01*
X345186Y-804926D01*
X341376Y-807567D01*
X337058Y-809955D01*
X332232Y-812038D01*
X326898Y-813816D01*
X314909Y-816102D01*
X301244Y-816864D01*
X287731Y-816102D01*
X275996Y-813866D01*
X265887Y-810158D01*
X257556Y-804926D01*
X250901Y-798423D01*
X246125Y-790905D01*
X243281Y-782320D01*
X242316Y-772668D01*
X225552Y-772668D01*
X226771Y-786333D01*
X230378Y-798830D01*
X236524Y-809802D01*
X245364Y-819403D01*
X256184Y-826973D01*
X269240Y-832358D01*
X284378Y-835761D01*
X301244Y-836930D01*
X318465Y-835761D01*
X333502Y-832358D01*
X346608Y-826820D01*
X357378Y-819403D01*
X361797Y-815086D01*
X365709Y-810310D01*
X369062Y-805078D01*
X371856Y-799338D01*
X375666Y-786688D01*
X376936Y-772668D01*
X375716Y-758647D01*
X372110Y-745998D01*
X365861Y-735126D01*
X357378Y-725932D01*
X346456Y-718362D01*
X333502Y-712978D01*
X318465Y-709523D01*
G37*
G36*
X228600Y-858012D02*
G01*
X228600Y-877569D01*
X357378Y-877569D01*
X357327Y-900531D01*
X356819Y-907237D01*
X356362Y-910082D01*
X354787Y-915314D01*
X352552Y-919734D01*
X350824Y-921969D01*
X348843Y-923848D01*
X346760Y-925423D01*
X344424Y-926592D01*
X341782Y-927608D01*
X339039Y-928319D01*
X336092Y-928725D01*
X332994Y-928878D01*
X329336Y-928776D01*
X322681Y-927760D01*
X319786Y-926846D01*
X317093Y-925677D01*
X314604Y-924306D01*
X312267Y-922629D01*
X310134Y-920750D01*
X308051Y-918210D01*
X306324Y-915466D01*
X305003Y-912520D01*
X304038Y-909319D01*
X302869Y-902309D01*
X302514Y-894587D01*
X302514Y-877569D01*
X286512Y-877569D01*
X286512Y-899668D01*
X228600Y-945642D01*
X228600Y-970787D01*
X291846Y-918971D01*
X298500Y-931468D01*
X307848Y-941069D01*
X319836Y-947166D01*
X334518Y-949198D01*
X340004Y-948893D01*
X345084Y-948029D01*
X349656Y-946607D01*
X353822Y-944626D01*
X357479Y-942238D01*
X360730Y-939495D01*
X363677Y-936294D01*
X366268Y-932687D01*
X368554Y-928827D01*
X370382Y-924864D01*
X371754Y-920851D01*
X372618Y-916686D01*
X373583Y-907084D01*
X373888Y-895603D01*
X373888Y-858012D01*
G37*
G36*
X546100Y395224D02*
G01*
X546100Y332232D01*
X559054Y332232D01*
X559054Y380746D01*
X655066Y380746D01*
X655066Y395224D01*
G37*
G36*
X571500Y64262D02*
G01*
X571500Y49530D01*
X601980Y39624D01*
X601980Y35560D01*
X614426Y35560D01*
X665734Y18796D01*
X614426Y2032D01*
X614426Y35560D01*
X601980Y35560D01*
X601980Y-2032D01*
X571500Y-11938D01*
X571500Y-27178D01*
X680466Y9652D01*
X680466Y27432D01*
G37*
G36*
X571500Y-37592D02*
G01*
X571500Y-100584D01*
X584454Y-100584D01*
X584454Y-52069D01*
X680466Y-52069D01*
X680466Y-37592D01*
G37*
G36*
X571500Y-112014D02*
G01*
X571500Y-126746D01*
X668020Y-126746D01*
X667969Y-143865D01*
X667613Y-148945D01*
X666800Y-153111D01*
X665378Y-156667D01*
X664464Y-158242D01*
X663143Y-159918D01*
X660095Y-162560D01*
X658368Y-163576D01*
X654354Y-164896D01*
X652221Y-165252D01*
X647141Y-165252D01*
X644550Y-164998D01*
X639826Y-163830D01*
X637844Y-162966D01*
X634136Y-160528D01*
X632460Y-159004D01*
X630936Y-157124D01*
X629716Y-155143D01*
X628802Y-152958D01*
X627583Y-148031D01*
X626973Y-142443D01*
X626872Y-126746D01*
X614934Y-126746D01*
X614934Y-143256D01*
X571500Y-177800D01*
X571500Y-196596D01*
X618998Y-157734D01*
X621182Y-162661D01*
X623874Y-167081D01*
X627126Y-170942D01*
X630936Y-174244D01*
X635254Y-176936D01*
X640029Y-178816D01*
X645261Y-179984D01*
X651002Y-180340D01*
X655116Y-180136D01*
X658876Y-179527D01*
X662228Y-178460D01*
X665226Y-177038D01*
X668020Y-175209D01*
X670560Y-173126D01*
X672846Y-170637D01*
X674878Y-167894D01*
X676503Y-165049D01*
X677773Y-162102D01*
X678789Y-159105D01*
X679907Y-152603D01*
X680415Y-144729D01*
X680466Y-112014D01*
G37*
G36*
X571500Y-205232D02*
G01*
X571500Y-218694D01*
X665480Y-218694D01*
X601472Y-246888D01*
X601472Y-255778D01*
X665480Y-284226D01*
X571500Y-284226D01*
X571500Y-298704D01*
X680466Y-298704D01*
X680466Y-278638D01*
X619760Y-252221D01*
X680466Y-225044D01*
X680466Y-205232D01*
G37*
G36*
X571500Y-557276D02*
G01*
X571500Y-570738D01*
X665480Y-570738D01*
X571500Y-618998D01*
X571500Y-635254D01*
X680466Y-635254D01*
X680466Y-621538D01*
X594106Y-621538D01*
X680466Y-577850D01*
X680466Y-557276D01*
G37*
D10*
X1243584Y-495300D02*
G01*
X1100328Y-495300D01*
X1243584Y-495300D02*
G01*
X1100328Y-590804D01*
X1243584Y-590804D02*
G01*
X1100328Y-590804D01*
X1281684Y393700D02*
G01*
X1138428Y393700D01*
X1138428Y393700D02*
G01*
X1138428Y311912D01*
D11*
X1218437Y65278D02*
G01*
X1122934Y101600D01*
X1218437Y65278D02*
G01*
X1122934Y28955D01*
X1154937Y87884D02*
G01*
X1154937Y42418D01*
X1218437Y-1015D02*
G01*
X1122934Y-1015D01*
X1122934Y-1015D02*
G01*
X1122934Y-55626D01*
X1218437Y-121920D02*
G01*
X1122934Y-85597D01*
X1218437Y-121920D02*
G01*
X1122934Y-158495D01*
X1154937Y-99313D02*
G01*
X1154937Y-144779D01*
X1218437Y-188468D02*
G01*
X1122934Y-188468D01*
X1218437Y-188468D02*
G01*
X1218437Y-229362D01*
X1213865Y-242823D01*
X1209294Y-247395D01*
X1200404Y-251968D01*
X1191260Y-251968D01*
X1182115Y-247395D01*
X1177544Y-242823D01*
X1172971Y-229362D01*
X1172971Y-188468D01*
X1172971Y-220218D02*
G01*
X1122934Y-251968D01*
X1218437Y-281939D02*
G01*
X1122934Y-281939D01*
X1218437Y-281939D02*
G01*
X1122934Y-318515D01*
X1218437Y-354837D02*
G01*
X1122934Y-318515D01*
X1218437Y-354837D02*
G01*
X1122934Y-354837D01*
D12*
X2590800Y1192784D02*
G01*
X2590800Y1301750D01*
X2590800Y1192784D02*
G01*
X2549143Y1301750D01*
X2507741Y1192784D02*
G01*
X2549143Y1301750D01*
X2507741Y1192784D02*
G01*
X2507741Y1301750D01*
X2431795Y1192784D02*
G01*
X2473452Y1301750D01*
X2431795Y1192784D02*
G01*
X2390140Y1301750D01*
X2457704Y1265428D02*
G01*
X2405888Y1265428D01*
X2319527Y1192784D02*
G01*
X2319527Y1301750D01*
X2355850Y1192784D02*
G01*
X2283206Y1192784D01*
X2248915Y1192784D02*
G01*
X2248915Y1301750D01*
X2176272Y1192784D02*
G01*
X2176272Y1301750D01*
X2248915Y1244600D02*
G01*
X2176272Y1244600D01*
X2141981Y1192784D02*
G01*
X2141981Y1301750D01*
X2107691Y1192784D02*
G01*
X2107691Y1301750D01*
X2107691Y1192784D02*
G01*
X2040127Y1192784D01*
X2107691Y1244600D02*
G01*
X2066036Y1244600D01*
X2107691Y1301750D02*
G01*
X2040127Y1301750D01*
X2005838Y1192784D02*
G01*
X2005838Y1270762D01*
X2000504Y1286255D01*
X1990090Y1296670D01*
X1974595Y1301750D01*
X1964181Y1301750D01*
X1948688Y1296670D01*
X1938274Y1286255D01*
X1932940Y1270762D01*
X1932940Y1192784D01*
X1818639Y1192784D02*
G01*
X1818639Y1301750D01*
X1818639Y1192784D02*
G01*
X1751329Y1192784D01*
X1818639Y1244600D02*
G01*
X1777237Y1244600D01*
X1717039Y1192784D02*
G01*
X1717039Y1301750D01*
X1717039Y1192784D02*
G01*
X1670050Y1192784D01*
X1654555Y1197863D01*
X1649476Y1203197D01*
X1644142Y1213612D01*
X1644142Y1224026D01*
X1649476Y1234439D01*
X1654555Y1239520D01*
X1670050Y1244600D01*
X1717039Y1244600D01*
X1680463Y1244600D02*
G01*
X1644142Y1301750D01*
X1609852Y1192784D02*
G01*
X1609852Y1301750D01*
X1609852Y1192784D02*
G01*
X1542287Y1192784D01*
X1609852Y1244600D02*
G01*
X1568450Y1244600D01*
X1609852Y1301750D02*
G01*
X1542287Y1301750D01*
X1430020Y1218692D02*
G01*
X1435354Y1208278D01*
X1445768Y1197863D01*
X1456181Y1192784D01*
X1477010Y1192784D01*
X1487170Y1197863D01*
X1497584Y1208278D01*
X1502918Y1218692D01*
X1507997Y1234439D01*
X1507997Y1260347D01*
X1502918Y1275842D01*
X1497584Y1286255D01*
X1487170Y1296670D01*
X1477010Y1301750D01*
X1456181Y1301750D01*
X1445768Y1296670D01*
X1435354Y1286255D01*
X1430020Y1275842D01*
X1430020Y1260347D01*
X1456181Y1260347D02*
G01*
X1430020Y1260347D01*
X1395729Y1192784D02*
G01*
X1395729Y1301750D01*
X1395729Y1192784D02*
G01*
X1328420Y1192784D01*
X1395729Y1244600D02*
G01*
X1354328Y1244600D01*
X1395729Y1301750D02*
G01*
X1328420Y1301750D01*
X1252473Y1192784D02*
G01*
X1294129Y1301750D01*
X1252473Y1192784D02*
G01*
X1210818Y1301750D01*
X1278381Y1265428D02*
G01*
X1226565Y1265428D01*
X1176528Y1192784D02*
G01*
X1176528Y1270762D01*
X1171447Y1286255D01*
X1161034Y1296670D01*
X1145539Y1301750D01*
X1135126Y1301750D01*
X1119378Y1296670D01*
X1108963Y1286255D01*
X1103884Y1270762D01*
X1103884Y1192784D01*
X953262Y1171955D02*
G01*
X963676Y1182370D01*
X974089Y1197863D01*
X984250Y1218692D01*
X989584Y1244600D01*
X989584Y1265428D01*
X984250Y1291589D01*
X974089Y1312163D01*
X963676Y1327912D01*
X953262Y1338326D01*
X840994Y1218692D02*
G01*
X846073Y1208278D01*
X856487Y1197863D01*
X866902Y1192784D01*
X887729Y1192784D01*
X898144Y1197863D01*
X908557Y1208278D01*
X913637Y1218692D01*
X918971Y1234439D01*
X918971Y1260347D01*
X913637Y1275842D01*
X908557Y1286255D01*
X898144Y1296670D01*
X887729Y1301750D01*
X866902Y1301750D01*
X856487Y1296670D01*
X846073Y1286255D01*
X840994Y1275842D01*
X806704Y1171955D02*
G01*
X796289Y1182370D01*
X785876Y1197863D01*
X775462Y1218692D01*
X770381Y1244600D01*
X770381Y1265428D01*
X775462Y1291589D01*
X785876Y1312163D01*
X796289Y1327912D01*
X806704Y1338326D01*
X650747Y1218692D02*
G01*
X650747Y1213612D01*
X645668Y1203197D01*
X640334Y1197863D01*
X629920Y1192784D01*
X609345Y1192784D01*
X598931Y1197863D01*
X593597Y1203197D01*
X588518Y1213612D01*
X588518Y1224026D01*
X593597Y1234439D01*
X604012Y1249934D01*
X656081Y1301750D01*
X583184Y1301750D01*
X517905Y1192784D02*
G01*
X533400Y1197863D01*
X543813Y1213612D01*
X548894Y1239520D01*
X548894Y1255013D01*
X543813Y1281176D01*
X533400Y1296670D01*
X517905Y1301750D01*
X507492Y1301750D01*
X491744Y1296670D01*
X481329Y1281176D01*
X476250Y1255013D01*
X476250Y1239520D01*
X481329Y1213612D01*
X491744Y1197863D01*
X507492Y1192784D01*
X517905Y1192784D01*
X436879Y1218692D02*
G01*
X436879Y1213612D01*
X431545Y1203197D01*
X426465Y1197863D01*
X416052Y1192784D01*
X395223Y1192784D01*
X384810Y1197863D01*
X379729Y1203197D01*
X374395Y1213612D01*
X374395Y1224026D01*
X379729Y1234439D01*
X389889Y1249934D01*
X441960Y1301750D01*
X369315Y1301750D01*
X335026Y1213612D02*
G01*
X324612Y1208278D01*
X308863Y1192784D01*
X308863Y1301750D01*
X1966722Y1028192D02*
G01*
X1972056Y1017778D01*
X1982470Y1007363D01*
X1992629Y1002284D01*
X2013458Y1002284D01*
X2023872Y1007363D01*
X2034286Y1017778D01*
X2039620Y1028192D01*
X2044700Y1043939D01*
X2044700Y1069847D01*
X2039620Y1085342D01*
X2034286Y1095755D01*
X2023872Y1106170D01*
X2013458Y1111250D01*
X1992629Y1111250D01*
X1982470Y1106170D01*
X1972056Y1095755D01*
X1966722Y1085342D01*
X1901189Y1002284D02*
G01*
X1911604Y1007363D01*
X1922018Y1017778D01*
X1927352Y1028192D01*
X1932431Y1043939D01*
X1932431Y1069847D01*
X1927352Y1085342D01*
X1922018Y1095755D01*
X1911604Y1106170D01*
X1901189Y1111250D01*
X1880615Y1111250D01*
X1870202Y1106170D01*
X1859787Y1095755D01*
X1854454Y1085342D01*
X1849373Y1069847D01*
X1849373Y1043939D01*
X1854454Y1028192D01*
X1859787Y1017778D01*
X1870202Y1007363D01*
X1880615Y1002284D01*
X1901189Y1002284D01*
X1815084Y1002284D02*
G01*
X1815084Y1111250D01*
X1815084Y1002284D02*
G01*
X1742439Y1111250D01*
X1742439Y1002284D02*
G01*
X1742439Y1111250D01*
X1671573Y1002284D02*
G01*
X1671573Y1111250D01*
X1708150Y1002284D02*
G01*
X1635252Y1002284D01*
X1600962Y1002284D02*
G01*
X1600962Y1111250D01*
X1600962Y1002284D02*
G01*
X1554226Y1002284D01*
X1538731Y1007363D01*
X1533397Y1012697D01*
X1528318Y1023112D01*
X1528318Y1033526D01*
X1533397Y1043939D01*
X1538731Y1049020D01*
X1554226Y1054100D01*
X1600962Y1054100D01*
X1564639Y1054100D02*
G01*
X1528318Y1111250D01*
X1462786Y1002284D02*
G01*
X1473200Y1007363D01*
X1483613Y1017778D01*
X1488694Y1028192D01*
X1494028Y1043939D01*
X1494028Y1069847D01*
X1488694Y1085342D01*
X1483613Y1095755D01*
X1473200Y1106170D01*
X1462786Y1111250D01*
X1441957Y1111250D01*
X1431544Y1106170D01*
X1421129Y1095755D01*
X1416050Y1085342D01*
X1410970Y1069847D01*
X1410970Y1043939D01*
X1416050Y1028192D01*
X1421129Y1017778D01*
X1431544Y1007363D01*
X1441957Y1002284D01*
X1462786Y1002284D01*
X1376679Y1002284D02*
G01*
X1376679Y1111250D01*
X1376679Y1111250D02*
G01*
X1314195Y1111250D01*
X1279905Y1002284D02*
G01*
X1279905Y1111250D01*
X1279905Y1111250D02*
G01*
X1217676Y1111250D01*
X1183386Y1002284D02*
G01*
X1183386Y1111250D01*
X1183386Y1002284D02*
G01*
X1115821Y1002284D01*
X1183386Y1054100D02*
G01*
X1141729Y1054100D01*
X1183386Y1111250D02*
G01*
X1115821Y1111250D01*
X1081531Y1002284D02*
G01*
X1081531Y1111250D01*
X1081531Y1002284D02*
G01*
X1045210Y1002284D01*
X1029462Y1007363D01*
X1019047Y1017778D01*
X1013968Y1028192D01*
X1008634Y1043939D01*
X1008634Y1069847D01*
X1013968Y1085342D01*
X1019047Y1095755D01*
X1029462Y1106170D01*
X1045210Y1111250D01*
X1081531Y1111250D01*
X863345Y1002284D02*
G01*
X873760Y1007363D01*
X883920Y1017778D01*
X889254Y1028192D01*
X894334Y1043939D01*
X894334Y1069847D01*
X889254Y1085342D01*
X883920Y1095755D01*
X873760Y1106170D01*
X863345Y1111250D01*
X842518Y1111250D01*
X832104Y1106170D01*
X821689Y1095755D01*
X816610Y1085342D01*
X811276Y1069847D01*
X811276Y1043939D01*
X816610Y1028192D01*
X821689Y1017778D01*
X832104Y1007363D01*
X842518Y1002284D01*
X863345Y1002284D01*
X776986Y1002284D02*
G01*
X776986Y1080262D01*
X771905Y1095755D01*
X761492Y1106170D01*
X745744Y1111250D01*
X735329Y1111250D01*
X719836Y1106170D01*
X709421Y1095755D01*
X704342Y1080262D01*
X704342Y1002284D01*
X633729Y1002284D02*
G01*
X633729Y1111250D01*
X670052Y1002284D02*
G01*
X597154Y1002284D01*
X562863Y1002284D02*
G01*
X562863Y1111250D01*
X562863Y1111250D02*
G01*
X500634Y1111250D01*
X466344Y1002284D02*
G01*
X466344Y1111250D01*
X466344Y1002284D02*
G01*
X398779Y1002284D01*
X466344Y1054100D02*
G01*
X424687Y1054100D01*
X466344Y1111250D02*
G01*
X398779Y1111250D01*
X328168Y1002284D02*
G01*
X328168Y1111250D01*
X364489Y1002284D02*
G01*
X291845Y1002284D01*
X1715515Y3225800D02*
G01*
X1606550Y3225800D01*
X1715515Y3225800D02*
G01*
X1606550Y3184144D01*
X1715515Y3142742D02*
G01*
X1606550Y3184144D01*
X1715515Y3142742D02*
G01*
X1606550Y3142742D01*
X1715515Y3066795D02*
G01*
X1606550Y3108452D01*
X1715515Y3066795D02*
G01*
X1606550Y3025139D01*
X1642871Y3092704D02*
G01*
X1642871Y3040887D01*
X1715515Y2990850D02*
G01*
X1606550Y2990850D01*
X1715515Y2956560D02*
G01*
X1606550Y2956560D01*
X1715515Y2956560D02*
G01*
X1606550Y2883915D01*
X1715515Y2883915D02*
G01*
X1606550Y2883915D01*
X1715515Y2849626D02*
G01*
X1606550Y2849626D01*
X1606550Y2849626D02*
G01*
X1606550Y2787395D01*
X826515Y3181857D02*
G01*
X821436Y3192271D01*
X811021Y3202686D01*
X800607Y3208020D01*
X784860Y3213100D01*
X758952Y3213100D01*
X743457Y3208020D01*
X733044Y3202686D01*
X722629Y3192271D01*
X717550Y3181857D01*
X717550Y3161029D01*
X722629Y3150870D01*
X733044Y3140455D01*
X743457Y3135121D01*
X758952Y3130042D01*
X784860Y3130042D01*
X800607Y3135121D01*
X811021Y3140455D01*
X821436Y3150870D01*
X826515Y3161029D01*
X826515Y3181857D01*
X826515Y3095752D02*
G01*
X748537Y3095752D01*
X733044Y3090418D01*
X722629Y3080004D01*
X717550Y3064510D01*
X717550Y3054095D01*
X722629Y3038602D01*
X733044Y3028187D01*
X748537Y3022854D01*
X826515Y3022854D01*
X826515Y2952242D02*
G01*
X717550Y2952242D01*
X826515Y2988563D02*
G01*
X826515Y2915920D01*
X826515Y2881629D02*
G01*
X717550Y2881629D01*
X717550Y2881629D02*
G01*
X717550Y2819400D01*
D13*
X3975100Y758952D02*
G01*
X3975100Y701802D01*
X3975100Y758952D02*
G01*
X3999738Y758952D01*
X4007865Y756412D01*
X4010659Y753618D01*
X4013200Y748029D01*
X4013200Y742695D01*
X4010659Y737107D01*
X4007865Y734568D01*
X3999738Y731773D01*
X3975100Y731773D01*
X3994150Y731773D02*
G01*
X4013200Y701802D01*
X4069588Y758952D02*
G01*
X4042156Y701802D01*
X4031234Y758952D02*
G01*
X4069588Y758952D01*
X4178300Y1203452D02*
G01*
X4178300Y1146302D01*
X4178300Y1203452D02*
G01*
X4202938Y1203452D01*
X4211065Y1200912D01*
X4213859Y1198118D01*
X4216400Y1192529D01*
X4216400Y1187195D01*
X4213859Y1181607D01*
X4211065Y1179068D01*
X4202938Y1176273D01*
X4178300Y1176273D01*
X4197350Y1176273D02*
G01*
X4216400Y1146302D01*
X4248150Y1203452D02*
G01*
X4240022Y1200912D01*
X4237227Y1195323D01*
X4237227Y1189989D01*
X4240022Y1184402D01*
X4245356Y1181607D01*
X4256277Y1179068D01*
X4264406Y1176273D01*
X4269993Y1170939D01*
X4272788Y1165352D01*
X4272788Y1157223D01*
X4269993Y1151636D01*
X4267200Y1149095D01*
X4259072Y1146302D01*
X4248150Y1146302D01*
X4240022Y1149095D01*
X4237227Y1151636D01*
X4234434Y1157223D01*
X4234434Y1165352D01*
X4237227Y1170939D01*
X4242561Y1176273D01*
X4250943Y1179068D01*
X4261865Y1181607D01*
X4267200Y1184402D01*
X4269993Y1189989D01*
X4269993Y1195323D01*
X4267200Y1200912D01*
X4259072Y1203452D01*
X4248150Y1203452D01*
X4314952Y-457200D02*
G01*
X4257802Y-457200D01*
X4314952Y-457200D02*
G01*
X4314952Y-481837D01*
X4312411Y-489965D01*
X4309618Y-492760D01*
X4304029Y-495300D01*
X4298695Y-495300D01*
X4293108Y-492760D01*
X4290568Y-489965D01*
X4287774Y-481837D01*
X4287774Y-457200D01*
X4287774Y-476250D02*
G01*
X4257802Y-495300D01*
X4304029Y-513334D02*
G01*
X4306824Y-518921D01*
X4314952Y-527050D01*
X4257802Y-527050D01*
X4314952Y-550418D02*
G01*
X4314952Y-580389D01*
X4293108Y-564134D01*
X4293108Y-572262D01*
X4290568Y-577850D01*
X4287774Y-580389D01*
X4279645Y-583184D01*
X4274058Y-583184D01*
X4265929Y-580389D01*
X4260595Y-575055D01*
X4257802Y-566928D01*
X4257802Y-558545D01*
X4260595Y-550418D01*
X4263136Y-547623D01*
X4268724Y-545084D01*
X3495547Y2222500D02*
G01*
X3552697Y2222500D01*
X3495547Y2222500D02*
G01*
X3495547Y2247137D01*
X3498088Y2255265D01*
X3500881Y2258060D01*
X3506470Y2260600D01*
X3511804Y2260600D01*
X3517391Y2258060D01*
X3519931Y2255265D01*
X3522725Y2247137D01*
X3522725Y2222500D01*
X3522725Y2241550D02*
G01*
X3552697Y2260600D01*
X3506470Y2278634D02*
G01*
X3503675Y2284221D01*
X3495547Y2292350D01*
X3552697Y2292350D01*
X3506470Y2310384D02*
G01*
X3503675Y2315718D01*
X3495547Y2323845D01*
X3552697Y2323845D01*
X3927347Y3111500D02*
G01*
X3984497Y3111500D01*
X3927347Y3111500D02*
G01*
X3927347Y3136137D01*
X3929888Y3144265D01*
X3932681Y3147060D01*
X3938270Y3149600D01*
X3943604Y3149600D01*
X3949191Y3147060D01*
X3951731Y3144265D01*
X3954525Y3136137D01*
X3954525Y3111500D01*
X3954525Y3130550D02*
G01*
X3984497Y3149600D01*
X3938270Y3167634D02*
G01*
X3935475Y3173221D01*
X3927347Y3181350D01*
X3984497Y3181350D01*
X3940809Y3201923D02*
G01*
X3938270Y3201923D01*
X3932681Y3204718D01*
X3929888Y3207512D01*
X3927347Y3212845D01*
X3927347Y3223768D01*
X3929888Y3229355D01*
X3932681Y3232150D01*
X3938270Y3234689D01*
X3943604Y3234689D01*
X3949191Y3232150D01*
X3957320Y3226562D01*
X3984497Y3199384D01*
X3984497Y3237484D01*
X3393947Y1435100D02*
G01*
X3451097Y1435100D01*
X3393947Y1435100D02*
G01*
X3393947Y1459737D01*
X3396488Y1467865D01*
X3399281Y1470660D01*
X3404870Y1473200D01*
X3410204Y1473200D01*
X3415791Y1470660D01*
X3418331Y1467865D01*
X3421125Y1459737D01*
X3421125Y1435100D01*
X3421125Y1454150D02*
G01*
X3451097Y1473200D01*
X3412997Y1526794D02*
G01*
X3421125Y1524000D01*
X3426459Y1518665D01*
X3429254Y1510284D01*
X3429254Y1507744D01*
X3426459Y1499362D01*
X3421125Y1494028D01*
X3412997Y1491234D01*
X3410204Y1491234D01*
X3402075Y1494028D01*
X3396488Y1499362D01*
X3393947Y1507744D01*
X3393947Y1510284D01*
X3396488Y1518665D01*
X3402075Y1524000D01*
X3412997Y1526794D01*
X3426459Y1526794D01*
X3440175Y1524000D01*
X3448304Y1518665D01*
X3451097Y1510284D01*
X3451097Y1504950D01*
X3448304Y1496821D01*
X3442970Y1494028D01*
X3889247Y1308100D02*
G01*
X3946397Y1308100D01*
X3889247Y1308100D02*
G01*
X3889247Y1332737D01*
X3891788Y1340865D01*
X3894581Y1343660D01*
X3900170Y1346200D01*
X3905504Y1346200D01*
X3911091Y1343660D01*
X3913631Y1340865D01*
X3916425Y1332737D01*
X3916425Y1308100D01*
X3916425Y1327150D02*
G01*
X3946397Y1346200D01*
X3900170Y1364234D02*
G01*
X3897375Y1369821D01*
X3889247Y1377950D01*
X3946397Y1377950D01*
X3889247Y1412239D02*
G01*
X3891788Y1404112D01*
X3900170Y1398523D01*
X3913631Y1395984D01*
X3921759Y1395984D01*
X3935475Y1398523D01*
X3943604Y1404112D01*
X3946397Y1412239D01*
X3946397Y1417828D01*
X3943604Y1425955D01*
X3935475Y1431289D01*
X3921759Y1434084D01*
X3913631Y1434084D01*
X3900170Y1431289D01*
X3891788Y1425955D01*
X3889247Y1417828D01*
X3889247Y1412239D01*
D14*
X3925315Y1574800D02*
G01*
X3925315Y1640331D01*
X3881627Y1749297D02*
G01*
X3958081Y1720342D01*
X3881627Y1749297D02*
G01*
X3958081Y1778507D01*
X3932681Y1731263D02*
G01*
X3932681Y1767586D01*
X3881627Y1802384D02*
G01*
X3958081Y1802384D01*
X3881627Y1802384D02*
G01*
X3958081Y1831594D01*
X3881627Y1860550D02*
G01*
X3958081Y1831594D01*
X3881627Y1860550D02*
G01*
X3958081Y1860550D01*
X3881627Y1884679D02*
G01*
X3958081Y1884679D01*
X3881627Y1884679D02*
G01*
X3881627Y1917445D01*
X3885184Y1928368D01*
X3888993Y1931923D01*
X3896106Y1935479D01*
X3903472Y1935479D01*
X3910838Y1931923D01*
X3914393Y1928368D01*
X3917950Y1917445D01*
X3917950Y1884679D02*
G01*
X3917950Y1917445D01*
X3921759Y1928368D01*
X3925315Y1931923D01*
X3932681Y1935479D01*
X3943604Y1935479D01*
X3950715Y1931923D01*
X3954525Y1928368D01*
X3958081Y1917445D01*
X3958081Y1884679D01*
X3881627Y1959610D02*
G01*
X3958081Y1959610D01*
X3881627Y1959610D02*
G01*
X3881627Y2006854D01*
X3917950Y1959610D02*
G01*
X3917950Y1988565D01*
X3958081Y1959610D02*
G01*
X3958081Y2006854D01*
X3881627Y2030729D02*
G01*
X3958081Y2030729D01*
X3881627Y2030729D02*
G01*
X3881627Y2063495D01*
X3885184Y2074418D01*
X3888993Y2077973D01*
X3896106Y2081784D01*
X3903472Y2081784D01*
X3910838Y2077973D01*
X3914393Y2074418D01*
X3917950Y2063495D01*
X3917950Y2030729D01*
X3917950Y2056129D02*
G01*
X3958081Y2081784D01*
X3892550Y2194560D02*
G01*
X3958081Y2194560D01*
X3925315Y2161794D02*
G01*
X3925315Y2227071D01*
D12*
X4056964Y1696796D02*
G01*
X4165930Y1696796D01*
X4165930Y1696796D02*
G01*
X4165930Y1759026D01*
X4056964Y1793316D02*
G01*
X4165930Y1793316D01*
X4056964Y1793316D02*
G01*
X4056964Y1860880D01*
X4108780Y1793316D02*
G01*
X4108780Y1834972D01*
X4165930Y1793316D02*
G01*
X4165930Y1860880D01*
X4056964Y1895170D02*
G01*
X4165930Y1895170D01*
X4056964Y1895170D02*
G01*
X4056964Y1931746D01*
X4062044Y1947240D01*
X4072458Y1957654D01*
X4082872Y1962734D01*
X4098366Y1968068D01*
X4124528Y1968068D01*
X4140022Y1962734D01*
X4150436Y1957654D01*
X4160850Y1947240D01*
X4165930Y1931746D01*
X4165930Y1895170D01*
X4077538Y2002358D02*
G01*
X4072458Y2012772D01*
X4056964Y2028266D01*
X4165930Y2028266D01*
X4056964Y2104212D02*
G01*
X4165930Y2062556D01*
X4056964Y2104212D02*
G01*
X4165930Y2145614D01*
X4129608Y2078050D02*
G01*
X4129608Y2130120D01*
D14*
X3925315Y2349500D02*
G01*
X3925315Y2415031D01*
X3899915Y2549397D02*
G01*
X3892550Y2545842D01*
X3885184Y2538476D01*
X3881627Y2531363D01*
X3881627Y2516886D01*
X3885184Y2509520D01*
X3892550Y2502154D01*
X3899915Y2498597D01*
X3910838Y2495042D01*
X3928872Y2495042D01*
X3939793Y2498597D01*
X3947159Y2502154D01*
X3954525Y2509520D01*
X3958081Y2516886D01*
X3958081Y2531363D01*
X3954525Y2538476D01*
X3947159Y2545842D01*
X3939793Y2549397D01*
X3928872Y2549397D01*
X3928872Y2531363D02*
G01*
X3928872Y2549397D01*
X3881627Y2573528D02*
G01*
X3958081Y2573528D01*
X3881627Y2573528D02*
G01*
X3881627Y2606294D01*
X3885184Y2617215D01*
X3888993Y2620771D01*
X3896106Y2624328D01*
X3903472Y2624328D01*
X3910838Y2620771D01*
X3914393Y2617215D01*
X3917950Y2606294D01*
X3917950Y2573528D01*
X3917950Y2598928D02*
G01*
X3958081Y2624328D01*
X3881627Y2648457D02*
G01*
X3958081Y2648457D01*
X3881627Y2648457D02*
G01*
X3881627Y2695702D01*
X3917950Y2648457D02*
G01*
X3917950Y2677413D01*
X3958081Y2648457D02*
G01*
X3958081Y2695702D01*
X3881627Y2719578D02*
G01*
X3958081Y2719578D01*
X3881627Y2719578D02*
G01*
X3881627Y2767076D01*
X3917950Y2719578D02*
G01*
X3917950Y2748787D01*
X3958081Y2719578D02*
G01*
X3958081Y2767076D01*
X3881627Y2790952D02*
G01*
X3958081Y2790952D01*
X3881627Y2790952D02*
G01*
X3958081Y2841752D01*
X3881627Y2841752D02*
G01*
X3958081Y2841752D01*
X3892550Y2954528D02*
G01*
X3958081Y2954528D01*
X3925315Y2921762D02*
G01*
X3925315Y2987294D01*
D12*
X4056837Y2408631D02*
G01*
X4166057Y2408631D01*
X4166057Y2408631D02*
G01*
X4166057Y2470861D01*
X4056837Y2505151D02*
G01*
X4166057Y2505151D01*
X4056837Y2505151D02*
G01*
X4056837Y2572715D01*
X4108907Y2505151D02*
G01*
X4108907Y2546807D01*
X4166057Y2505151D02*
G01*
X4166057Y2572715D01*
X4056837Y2607005D02*
G01*
X4166057Y2607005D01*
X4056837Y2607005D02*
G01*
X4056837Y2643581D01*
X4062171Y2659075D01*
X4072331Y2669489D01*
X4082745Y2674569D01*
X4098493Y2679903D01*
X4124401Y2679903D01*
X4139895Y2674569D01*
X4150309Y2669489D01*
X4160723Y2659075D01*
X4166057Y2643581D01*
X4166057Y2607005D01*
X4082745Y2719273D02*
G01*
X4077665Y2719273D01*
X4067251Y2724607D01*
X4062171Y2729687D01*
X4056837Y2740101D01*
X4056837Y2760929D01*
X4062171Y2771343D01*
X4067251Y2776423D01*
X4077665Y2781757D01*
X4088079Y2781757D01*
X4098493Y2776423D01*
X4113987Y2766009D01*
X4166057Y2714193D01*
X4166057Y2786837D01*
X4056837Y2862783D02*
G01*
X4166057Y2821127D01*
X4056837Y2862783D02*
G01*
X4166057Y2904185D01*
X4129481Y2836621D02*
G01*
X4129481Y2888691D01*
D13*
X3546347Y79755D02*
G01*
X3548888Y74421D01*
X3554475Y68834D01*
X3559809Y66294D01*
X3568191Y63500D01*
X3581654Y63500D01*
X3589781Y66294D01*
X3595370Y68834D01*
X3600704Y74421D01*
X3603497Y79755D01*
X3603497Y90678D01*
X3600704Y96265D01*
X3595370Y101600D01*
X3589781Y104394D01*
X3581654Y107187D01*
X3568191Y107187D01*
X3559809Y104394D01*
X3554475Y101600D01*
X3548888Y96265D01*
X3546347Y90678D01*
X3546347Y79755D01*
X3592575Y88137D02*
G01*
X3609086Y104394D01*
X3559809Y127762D02*
G01*
X3557270Y127762D01*
X3551681Y130555D01*
X3548888Y133350D01*
X3546347Y138684D01*
X3546347Y149605D01*
X3548888Y155194D01*
X3551681Y157987D01*
X3557270Y160528D01*
X3562604Y160528D01*
X3568191Y157987D01*
X3576320Y152400D01*
X3603497Y125221D01*
X3603497Y163321D01*
X3394456Y1038352D02*
G01*
X3389122Y1035812D01*
X3383534Y1030223D01*
X3380993Y1024889D01*
X3378200Y1016507D01*
X3378200Y1003045D01*
X3380993Y994918D01*
X3383534Y989329D01*
X3389122Y983995D01*
X3394456Y981202D01*
X3405377Y981202D01*
X3410965Y983995D01*
X3416300Y989329D01*
X3419093Y994918D01*
X3421888Y1003045D01*
X3421888Y1016507D01*
X3419093Y1024889D01*
X3416300Y1030223D01*
X3410965Y1035812D01*
X3405377Y1038352D01*
X3394456Y1038352D01*
X3402838Y992123D02*
G01*
X3419093Y975613D01*
X3467100Y1038352D02*
G01*
X3439922Y1000252D01*
X3480815Y1000252D01*
X3467100Y1038352D02*
G01*
X3467100Y981202D01*
X2768600Y974852D02*
G01*
X2768600Y917702D01*
X2768600Y974852D02*
G01*
X2793238Y974852D01*
X2801365Y972312D01*
X2804159Y969518D01*
X2806700Y963929D01*
X2806700Y958595D01*
X2804159Y953007D01*
X2801365Y950468D01*
X2793238Y947673D01*
X2768600Y947673D01*
X2787650Y947673D02*
G01*
X2806700Y917702D01*
X2830322Y974852D02*
G01*
X2860293Y974852D01*
X2843784Y953007D01*
X2852165Y953007D01*
X2857500Y950468D01*
X2860293Y947673D01*
X2863088Y939545D01*
X2863088Y933957D01*
X2860293Y925829D01*
X2854706Y920495D01*
X2846577Y917702D01*
X2838450Y917702D01*
X2830322Y920495D01*
X2827527Y923036D01*
X2824734Y928623D01*
X2517647Y495300D02*
G01*
X2574797Y495300D01*
X2517647Y495300D02*
G01*
X2517647Y519937D01*
X2520188Y528065D01*
X2522981Y530860D01*
X2528570Y533400D01*
X2533904Y533400D01*
X2539491Y530860D01*
X2542031Y528065D01*
X2544825Y519937D01*
X2544825Y495300D01*
X2544825Y514350D02*
G01*
X2574797Y533400D01*
X2517647Y578865D02*
G01*
X2555747Y551434D01*
X2555747Y592328D01*
X2517647Y578865D02*
G01*
X2574797Y578865D01*
X3711447Y1003300D02*
G01*
X3768597Y1003300D01*
X3711447Y1003300D02*
G01*
X3711447Y1027937D01*
X3713988Y1036065D01*
X3716781Y1038860D01*
X3722370Y1041400D01*
X3727704Y1041400D01*
X3733291Y1038860D01*
X3735831Y1036065D01*
X3738625Y1027937D01*
X3738625Y1003300D01*
X3738625Y1022350D02*
G01*
X3768597Y1041400D01*
X3711447Y1092200D02*
G01*
X3711447Y1065021D01*
X3735831Y1062228D01*
X3733291Y1065021D01*
X3730497Y1073150D01*
X3730497Y1081278D01*
X3733291Y1089405D01*
X3738625Y1094994D01*
X3746754Y1097787D01*
X3752341Y1097787D01*
X3760470Y1094994D01*
X3765804Y1089405D01*
X3768597Y1081278D01*
X3768597Y1073150D01*
X3765804Y1065021D01*
X3763263Y1062228D01*
X3757675Y1059434D01*
X3565652Y520700D02*
G01*
X3508502Y520700D01*
X3565652Y520700D02*
G01*
X3565652Y496062D01*
X3563111Y487934D01*
X3560318Y485139D01*
X3554729Y482600D01*
X3549395Y482600D01*
X3543808Y485139D01*
X3541268Y487934D01*
X3538474Y496062D01*
X3538474Y520700D01*
X3538474Y501650D02*
G01*
X3508502Y482600D01*
X3557524Y431800D02*
G01*
X3563111Y434594D01*
X3565652Y442721D01*
X3565652Y448055D01*
X3563111Y456437D01*
X3554729Y461771D01*
X3541268Y464565D01*
X3527552Y464565D01*
X3516629Y461771D01*
X3511295Y456437D01*
X3508502Y448055D01*
X3508502Y445515D01*
X3511295Y437134D01*
X3516629Y431800D01*
X3524758Y429005D01*
X3527552Y429005D01*
X3535679Y431800D01*
X3541268Y437134D01*
X3543808Y445515D01*
X3543808Y448055D01*
X3541268Y456437D01*
X3535679Y461771D01*
X3527552Y464565D01*
X3311652Y872744D02*
G01*
X3309111Y878078D01*
X3303524Y883665D01*
X3298190Y886205D01*
X3289808Y889000D01*
X3276345Y889000D01*
X3268218Y886205D01*
X3262629Y883665D01*
X3257295Y878078D01*
X3254502Y872744D01*
X3254502Y861821D01*
X3257295Y856234D01*
X3262629Y850900D01*
X3268218Y848105D01*
X3276345Y845312D01*
X3289808Y845312D01*
X3298190Y848105D01*
X3303524Y850900D01*
X3309111Y856234D01*
X3311652Y861821D01*
X3311652Y872744D01*
X3265424Y864362D02*
G01*
X3248913Y848105D01*
X3300729Y827278D02*
G01*
X3303524Y821944D01*
X3311652Y813815D01*
X3254502Y813815D01*
X2936747Y130555D02*
G01*
X2939288Y125221D01*
X2944875Y119634D01*
X2950209Y117094D01*
X2958591Y114300D01*
X2972054Y114300D01*
X2980181Y117094D01*
X2985770Y119634D01*
X2991104Y125221D01*
X2993897Y130555D01*
X2993897Y141478D01*
X2991104Y147065D01*
X2985770Y152400D01*
X2980181Y155194D01*
X2972054Y157987D01*
X2958591Y157987D01*
X2950209Y155194D01*
X2944875Y152400D01*
X2939288Y147065D01*
X2936747Y141478D01*
X2936747Y130555D01*
X2982975Y138937D02*
G01*
X2999486Y155194D01*
X2936747Y181355D02*
G01*
X2936747Y211328D01*
X2958591Y195071D01*
X2958591Y203200D01*
X2961131Y208787D01*
X2963925Y211328D01*
X2972054Y214121D01*
X2977641Y214121D01*
X2985770Y211328D01*
X2991104Y205994D01*
X2993897Y197865D01*
X2993897Y189484D01*
X2991104Y181355D01*
X2988563Y178562D01*
X2982975Y176021D01*
X2327071Y-512902D02*
G01*
X2384221Y-512902D01*
X2327071Y-512902D02*
G01*
X2327071Y-488264D01*
X2329865Y-480136D01*
X2332405Y-477342D01*
X2337993Y-474802D01*
X2343327Y-474802D01*
X2348915Y-477342D01*
X2351709Y-480136D01*
X2354249Y-488264D01*
X2354249Y-512902D01*
X2354249Y-493852D02*
G01*
X2384221Y-474802D01*
X2340787Y-453974D02*
G01*
X2337993Y-453974D01*
X2332405Y-451180D01*
X2329865Y-448640D01*
X2327071Y-443052D01*
X2327071Y-432130D01*
X2329865Y-426796D01*
X2332405Y-424002D01*
X2337993Y-421208D01*
X2343327Y-421208D01*
X2348915Y-424002D01*
X2357043Y-429336D01*
X2384221Y-456768D01*
X2384221Y-418414D01*
X2593771Y-660400D02*
G01*
X2650921Y-660400D01*
X2593771Y-660400D02*
G01*
X2593771Y-641350D01*
X2596565Y-633221D01*
X2601899Y-627634D01*
X2607487Y-624839D01*
X2615615Y-622300D01*
X2629331Y-622300D01*
X2637459Y-624839D01*
X2642793Y-627634D01*
X2648381Y-633221D01*
X2650921Y-641350D01*
X2650921Y-660400D01*
X2604693Y-604265D02*
G01*
X2601899Y-598678D01*
X2593771Y-590550D01*
X2650921Y-590550D01*
X2790952Y2032000D02*
G01*
X2733802Y2032000D01*
X2790952Y2032000D02*
G01*
X2790952Y2012950D01*
X2788411Y2004821D01*
X2782824Y1999234D01*
X2777490Y1996439D01*
X2769108Y1993900D01*
X2755645Y1993900D01*
X2747518Y1996439D01*
X2741929Y1999234D01*
X2736595Y2004821D01*
X2733802Y2012950D01*
X2733802Y2032000D01*
X2777490Y1973071D02*
G01*
X2780029Y1973071D01*
X2785618Y1970278D01*
X2788411Y1967737D01*
X2790952Y1962150D01*
X2790952Y1951228D01*
X2788411Y1945894D01*
X2785618Y1943100D01*
X2780029Y1940305D01*
X2774695Y1940305D01*
X2769108Y1943100D01*
X2760979Y1948434D01*
X2733802Y1975865D01*
X2733802Y1937512D01*
X4104805Y148589D02*
G01*
X4102265Y153923D01*
X4096677Y159512D01*
X4091343Y162052D01*
X4080421Y162052D01*
X4074833Y159512D01*
X4069499Y153923D01*
X4066705Y148589D01*
X4063911Y140207D01*
X4063911Y126745D01*
X4066705Y118618D01*
X4069499Y113029D01*
X4074833Y107695D01*
X4080421Y104902D01*
X4091343Y104902D01*
X4096677Y107695D01*
X4102265Y113029D01*
X4104805Y118618D01*
X4125633Y148589D02*
G01*
X4125633Y151129D01*
X4128427Y156718D01*
X4130967Y159512D01*
X4136555Y162052D01*
X4147477Y162052D01*
X4152811Y159512D01*
X4155605Y156718D01*
X4158399Y151129D01*
X4158399Y145795D01*
X4155605Y140207D01*
X4150271Y132079D01*
X4122839Y104902D01*
X4161193Y104902D01*
X1514347Y-76149D02*
G01*
X1571497Y-76149D01*
X1514347Y-76149D02*
G01*
X1514347Y-51765D01*
X1516887Y-43383D01*
X1519681Y-40843D01*
X1525270Y-38049D01*
X1530604Y-38049D01*
X1536192Y-40843D01*
X1538731Y-43383D01*
X1541526Y-51765D01*
X1541526Y-76149D01*
X1541526Y-57099D02*
G01*
X1571497Y-38049D01*
X1525270Y-20015D02*
G01*
X1522476Y-14681D01*
X1514347Y-6299D01*
X1571497Y-6299D01*
D12*
X3189462Y-12181D02*
G01*
X3184128Y-1767D01*
X3173714Y8646D01*
X3163554Y13726D01*
X3142726Y13726D01*
X3132312Y8646D01*
X3121898Y-1767D01*
X3116564Y-12181D01*
X3111484Y-27929D01*
X3111484Y-53837D01*
X3116564Y-69331D01*
X3121898Y-79745D01*
X3132312Y-90159D01*
X3142726Y-95239D01*
X3163554Y-95239D01*
X3173714Y-90159D01*
X3184128Y-79745D01*
X3189462Y-69331D01*
X3223752Y-7101D02*
G01*
X3234166Y-1767D01*
X3249660Y13726D01*
X3249660Y-95239D01*
D13*
X2362200Y352552D02*
G01*
X2362200Y311657D01*
X2364993Y303529D01*
X2370327Y298195D01*
X2378456Y295402D01*
X2384043Y295402D01*
X2392172Y298195D01*
X2397759Y303529D01*
X2400300Y311657D01*
X2400300Y352552D01*
X2418334Y341629D02*
G01*
X2423922Y344423D01*
X2432050Y352552D01*
X2432050Y295402D01*
X3619500Y2105152D02*
G01*
X3619500Y2048002D01*
X3619500Y2048002D02*
G01*
X3652265Y2048002D01*
X3670300Y2105152D02*
G01*
X3670300Y2048002D01*
X3670300Y2105152D02*
G01*
X3705606Y2105152D01*
X3670300Y2077973D02*
G01*
X3692143Y2077973D01*
X3670300Y2048002D02*
G01*
X3705606Y2048002D01*
X3723640Y2105152D02*
G01*
X3723640Y2048002D01*
X3723640Y2105152D02*
G01*
X3742690Y2105152D01*
X3751072Y2102612D01*
X3756406Y2097023D01*
X3759200Y2091689D01*
X3761740Y2083307D01*
X3761740Y2069845D01*
X3759200Y2061718D01*
X3756406Y2056129D01*
X3751072Y2050795D01*
X3742690Y2048002D01*
X3723640Y2048002D01*
X3779774Y2094229D02*
G01*
X3785361Y2097023D01*
X3793490Y2105152D01*
X3793490Y2048002D01*
X3619500Y2879852D02*
G01*
X3619500Y2822702D01*
X3619500Y2822702D02*
G01*
X3652265Y2822702D01*
X3670300Y2879852D02*
G01*
X3670300Y2822702D01*
X3670300Y2879852D02*
G01*
X3705606Y2879852D01*
X3670300Y2852673D02*
G01*
X3692143Y2852673D01*
X3670300Y2822702D02*
G01*
X3705606Y2822702D01*
X3723640Y2879852D02*
G01*
X3723640Y2822702D01*
X3723640Y2879852D02*
G01*
X3742690Y2879852D01*
X3751072Y2877312D01*
X3756406Y2871723D01*
X3759200Y2866389D01*
X3761740Y2858007D01*
X3761740Y2844545D01*
X3759200Y2836418D01*
X3756406Y2830829D01*
X3751072Y2825495D01*
X3742690Y2822702D01*
X3723640Y2822702D01*
X3782568Y2866389D02*
G01*
X3782568Y2868929D01*
X3785361Y2874518D01*
X3788156Y2877312D01*
X3793490Y2879852D01*
X3804411Y2879852D01*
X3809745Y2877312D01*
X3812540Y2874518D01*
X3815334Y2868929D01*
X3815334Y2863595D01*
X3812540Y2858007D01*
X3807206Y2849879D01*
X3779774Y2822702D01*
X3818127Y2822702D01*
X4570222Y1158747D02*
G01*
X4570222Y1202181D01*
X4572761Y1210563D01*
X4575556Y1213104D01*
X4581143Y1215897D01*
X4586477Y1215897D01*
X4592065Y1213104D01*
X4594606Y1210563D01*
X4597400Y1202181D01*
X4597400Y1196847D01*
X4552188Y1158747D02*
G01*
X4552188Y1215897D01*
X4552188Y1158747D02*
G01*
X4527550Y1158747D01*
X4519422Y1161287D01*
X4516627Y1164081D01*
X4513834Y1169670D01*
X4513834Y1177797D01*
X4516627Y1183131D01*
X4519422Y1185926D01*
X4527550Y1188720D01*
X4552188Y1188720D01*
X4496054Y1169670D02*
G01*
X4490465Y1166876D01*
X4482338Y1158747D01*
X4482338Y1215897D01*
X4442459Y1158747D02*
G01*
X4464304Y1215897D01*
X4442459Y1158747D02*
G01*
X4420615Y1215897D01*
X4456175Y1196847D02*
G01*
X4428743Y1196847D01*
X4446777Y3375152D02*
G01*
X4446777Y3331718D01*
X4444238Y3323336D01*
X4441443Y3320795D01*
X4435856Y3318002D01*
X4430522Y3318002D01*
X4424934Y3320795D01*
X4422393Y3323336D01*
X4419600Y3331718D01*
X4419600Y3337052D01*
X4464811Y3375152D02*
G01*
X4464811Y3318002D01*
X4464811Y3375152D02*
G01*
X4489450Y3375152D01*
X4497577Y3372612D01*
X4500372Y3369818D01*
X4503165Y3364229D01*
X4503165Y3356102D01*
X4500372Y3350768D01*
X4497577Y3347973D01*
X4489450Y3345179D01*
X4464811Y3345179D01*
X4523740Y3361689D02*
G01*
X4523740Y3364229D01*
X4526534Y3369818D01*
X4529327Y3372612D01*
X4534661Y3375152D01*
X4545584Y3375152D01*
X4551172Y3372612D01*
X4553711Y3369818D01*
X4556506Y3364229D01*
X4556506Y3358895D01*
X4553711Y3353307D01*
X4548377Y3345179D01*
X4520945Y3318002D01*
X4559300Y3318002D01*
X4599177Y3375152D02*
G01*
X4577334Y3318002D01*
X4599177Y3375152D02*
G01*
X4620768Y3318002D01*
X4585461Y3337052D02*
G01*
X4612640Y3337052D01*
G36*
X3032760Y-627380D02*
G01*
X3053080Y-680720D01*
X3068320Y-718820D01*
X3086100Y-756920D01*
X3108960Y-789940D01*
X3141980Y-828040D01*
X3172460Y-850900D01*
X3205480Y-876300D01*
X3230880Y-886460D01*
X3271520Y-904240D01*
X3296920Y-911860D01*
X3296920Y-731520D01*
X3489960Y-731520D01*
X3489960Y-911860D01*
X3553460Y-883919D01*
X3614420Y-858519D01*
X3647440Y-820419D01*
X3683000Y-782320D01*
X3703320Y-744220D01*
X3728720Y-695960D01*
X3738879Y-668020D01*
X3759200Y-627380D01*
G37*
D15*
X1049985Y3270046D02*
G01*
X1549984Y3270046D01*
X1549984Y2770047D01*
X1049985Y2770047D01*
X1049985Y3270046D01*
X1172413Y-600913D02*
G01*
X1672412Y-600913D01*
X1672412Y-1100912D01*
X1172413Y-1100912D01*
X1172413Y-600913D01*
X180035Y3270046D02*
G01*
X680034Y3270046D01*
X680034Y2770047D01*
X180035Y2770047D01*
X180035Y3270046D01*
D12*
X4108320Y463590D02*
G01*
X4244312Y463590D01*
X4244312Y679409D01*
X4108320Y679409D01*
X3918079Y463590D02*
G01*
X3782087Y463590D01*
X3782087Y679409D01*
X3918079Y679409D01*
X4311520Y908090D02*
G01*
X4447512Y908090D01*
X4447512Y1123909D01*
X4311520Y1123909D01*
X4121279Y908090D02*
G01*
X3985287Y908090D01*
X3985287Y1123909D01*
X4121279Y1123909D01*
X4222709Y-425579D02*
G01*
X4222709Y-289587D01*
X4006890Y-289587D01*
X4006890Y-425579D01*
X4222709Y-615820D02*
G01*
X4222709Y-751812D01*
X4006890Y-751812D01*
X4006890Y-615820D01*
X3678478Y2339360D02*
G01*
X3582591Y2339360D01*
X3582591Y2207239D01*
X3678478Y2207239D01*
X3763721Y2339360D02*
G01*
X3859608Y2339360D01*
X3859608Y2207239D01*
X3763721Y2207239D01*
X4195521Y3108939D02*
G01*
X4291408Y3108939D01*
X4291408Y3241060D01*
X4195521Y3241060D01*
X4110278Y3108939D02*
G01*
X4014391Y3108939D01*
X4014391Y3241060D01*
X4110278Y3241060D01*
X3662121Y1419839D02*
G01*
X3758008Y1419839D01*
X3758008Y1551960D01*
X3662121Y1551960D01*
X3576878Y1419839D02*
G01*
X3480991Y1419839D01*
X3480991Y1551960D01*
X3576878Y1551960D01*
X4157421Y1305539D02*
G01*
X4253308Y1305539D01*
X4253308Y1437660D01*
X4157421Y1437660D01*
X4072178Y1305539D02*
G01*
X3976291Y1305539D01*
X3976291Y1437660D01*
X4072178Y1437660D01*
D15*
X4570003Y1559920D02*
G01*
X4570003Y2239919D01*
X4009999Y1559915D02*
G01*
X4009999Y2239924D01*
X4709998Y2239924D01*
X4709998Y1559915D01*
X4009999Y1559915D01*
X4570003Y2309982D02*
G01*
X4570003Y2989981D01*
X4009999Y2309977D02*
G01*
X4009999Y2989986D01*
X4709998Y2989986D01*
X4709998Y2309977D01*
X4009999Y2309977D01*
X3750309Y95300D02*
G01*
X3668801Y95300D01*
X3668801Y161289D01*
X3668801Y321310D02*
G01*
X3668801Y387299D01*
X3668801Y321310D01*
X3668801Y387299D01*
X3750309Y387299D01*
D16*
X3823792Y211302D02*
G01*
X3823792Y271297D01*
D15*
X3410000Y847089D02*
G01*
X3410000Y928598D01*
X3475990Y928598D01*
X3636009Y928598D02*
G01*
X3701999Y928598D01*
X3636009Y928598D01*
X3701999Y928598D01*
X3701999Y847089D01*
D16*
X3526002Y773607D02*
G01*
X3585997Y773607D01*
D12*
X2745978Y788339D02*
G01*
X2674175Y788339D01*
X2674175Y888060D01*
X2745978Y888060D01*
X2791221Y788339D02*
G01*
X2863024Y788339D01*
X2863024Y888060D01*
X2791221Y888060D01*
X2745760Y537921D02*
G01*
X2745760Y633808D01*
X2613639Y633808D01*
X2613639Y537921D01*
X2745760Y452678D02*
G01*
X2745760Y356791D01*
X2613639Y356791D01*
X2613639Y452678D01*
X3798239Y1000521D02*
G01*
X3798239Y1072324D01*
X3897960Y1072324D01*
X3897960Y1000521D01*
X3798239Y955278D02*
G01*
X3798239Y883475D01*
X3897960Y883475D01*
X3897960Y955278D01*
X3466160Y459978D02*
G01*
X3466160Y388175D01*
X3366439Y388175D01*
X3366439Y459978D01*
X3466160Y505221D02*
G01*
X3466160Y577024D01*
X3366439Y577024D01*
X3366439Y505221D01*
D15*
X3120390Y895299D02*
G01*
X3201898Y895299D01*
X3201898Y829310D01*
X3201898Y669289D02*
G01*
X3201898Y603300D01*
X3201898Y669289D01*
X3201898Y603300D01*
X3120390Y603300D01*
D16*
X3046907Y779297D02*
G01*
X3046907Y719302D01*
D15*
X3128009Y146100D02*
G01*
X3046501Y146100D01*
X3046501Y212089D01*
X3046501Y372110D02*
G01*
X3046501Y438099D01*
X3046501Y372110D01*
X3046501Y438099D01*
X3128009Y438099D01*
D16*
X3201492Y262102D02*
G01*
X3201492Y322097D01*
D15*
X2421963Y-662995D02*
G01*
X2581968Y-662995D01*
X2581457Y-477934D02*
G01*
X2581457Y-352938D01*
X2421453Y-477934D02*
G01*
X2421453Y-352938D01*
X2581968Y-537992D02*
G01*
X2581968Y-662995D01*
X2421963Y-537992D02*
G01*
X2421963Y-662995D01*
X2421453Y-352938D02*
G01*
X2581457Y-352938D01*
X2875953Y-432196D02*
G01*
X2875953Y-732195D01*
X2687985Y-433532D02*
G01*
X2687985Y-733531D01*
X2781300Y-508000D02*
G01*
X2781300Y-660400D01*
X2832100Y-533400D02*
G01*
X2730500Y-533400D01*
X2740659Y-635000D02*
G01*
X2781300Y-533400D01*
X2821940Y-635000D02*
G01*
X2740659Y-635000D01*
X2781300Y-533400D02*
G01*
X2821940Y-635000D01*
X2698153Y2158603D02*
G01*
X2698153Y1858604D01*
X2510185Y2157267D02*
G01*
X2510185Y1857268D01*
X2603500Y2082800D02*
G01*
X2603500Y1930400D01*
X2654300Y2057400D02*
G01*
X2552700Y2057400D01*
X2562859Y1955800D02*
G01*
X2603500Y2057400D01*
X2644140Y1955800D02*
G01*
X2562859Y1955800D01*
X2603500Y2057400D02*
G01*
X2644140Y1955800D01*
X4184599Y-105067D02*
G01*
X4184599Y-185069D01*
X4073618Y-216049D02*
G01*
X4153618Y-216049D01*
X4042636Y-105067D02*
G01*
X4042636Y-185069D01*
X4185183Y-47477D02*
G01*
X4185183Y32517D01*
X4043220Y-47477D02*
G01*
X4043220Y32517D01*
X4074200Y63500D02*
G01*
X4154203Y63500D01*
X1607200Y-288104D02*
G01*
X1847199Y-288104D01*
X1847199Y61894D02*
G01*
X1847199Y211894D01*
X1607200Y61894D02*
G01*
X1607200Y211894D01*
X1847199Y-138104D02*
G01*
X1847199Y-288104D01*
X1607200Y-138104D02*
G01*
X1607200Y-288104D01*
X1607200Y211894D02*
G01*
X1847199Y211894D01*
X3805427Y-268731D02*
G01*
X3805427Y-968755D01*
X2975356Y-268731D02*
G01*
X2975356Y-968755D01*
X3089402Y-137668D02*
G01*
X2975356Y-268731D01*
X3690365Y-137668D02*
G01*
X3805427Y-267715D01*
X3805427Y-968755D02*
G01*
X3473450Y-968755D01*
X3307334Y-968755D02*
G01*
X2975356Y-968755D01*
X3690365Y-137668D02*
G01*
X3474465Y-137668D01*
X3308350Y-137668D02*
G01*
X3084055Y-137668D01*
X2446091Y266700D02*
G01*
X2562859Y266700D01*
X2562859Y-247299D01*
X2562859Y-247299D02*
G01*
X2239284Y-247299D01*
X2239284Y-247299D02*
G01*
X2239284Y264160D01*
X2354579Y264160D01*
X3794759Y2018029D02*
G01*
X3622040Y2018029D01*
X3622040Y2018029D02*
G01*
X3622040Y1870710D01*
X3794759Y2018029D02*
G01*
X3794759Y1870710D01*
X3622040Y1812289D02*
G01*
X3622040Y1695450D01*
X3794759Y1809750D02*
G01*
X3794759Y1695450D01*
X3794759Y1695450D02*
G01*
X3759200Y1659889D01*
X3657600Y1659889D01*
X3622040Y1695450D01*
D17*
X3749040Y1849120D02*
G01*
X3670300Y1849120D01*
X3709195Y1849120D02*
G01*
X3709195Y1831583D01*
D15*
X3807459Y2792729D02*
G01*
X3634740Y2792729D01*
X3634740Y2792729D02*
G01*
X3634740Y2645410D01*
X3807459Y2792729D02*
G01*
X3807459Y2645410D01*
X3634740Y2586989D02*
G01*
X3634740Y2470150D01*
X3807459Y2584450D02*
G01*
X3807459Y2470150D01*
X3807459Y2470150D02*
G01*
X3771900Y2434589D01*
X3670300Y2434589D01*
X3634740Y2470150D01*
D17*
X3761740Y2623820D02*
G01*
X3683000Y2623820D01*
X3721895Y2623820D02*
G01*
X3721895Y2606283D01*
D18*
X4343400Y1485900D02*
G01*
X4648200Y1485900D01*
X4648200Y1257300D01*
X4343400Y1257300D01*
X4343400Y1485900D01*
X4356100Y3289300D02*
G01*
X4660900Y3289300D01*
X4660900Y3060700D01*
X4356100Y3060700D01*
X4356100Y3289300D01*
D15*
G75*
G01*
X4073619Y-216052D02*
G02*
X4042636Y-185069I0J30983D01*
G75*
G01*
X4184602Y-185069D02*
G02*
X4153619Y-216052I-30983J0D01*
G75*
G01*
X4043218Y32517D02*
G02*
X4074201Y63500I30983J0D01*
G75*
G01*
X4154200Y63500D02*
G02*
X4185183Y32517I0J-30983D01*
G75*
G01*
X3489960Y-914400D02*
G03*
X3494380Y-214640I-99061J350520D01*
G75*
G01*
X3299460Y-213360D02*
G03*
X3295109Y-913237I91435J-350520D01*
G75*
G01*
X2354580Y264160D02*
G03*
X2446091Y266700I45720J2551D01*
M02*
