G04 Layer: BottomLayer*
G04 EasyEDA v6.5.39, 2024-01-10 16:20:09*
G04 85b321e934e241e88075cb939218c85a,3d9c8b04885e45b7839bd8e85c0fd600,10*
G04 Gerber Generator version 0.2*
G04 Scale: 100 percent, Rotated: No, Reflected: No *
G04 Dimensions in millimeters *
G04 leading zeros omitted , absolute positions ,4 integer and 5 decimal *
%FSLAX45Y45*%
%MOMM*%

%AMMACRO1*4,1,4,-1.25,-1.325,-1.25,1.325,1.25,1.325,1.25,-1.325,-1.25,-1.325,0*%
%ADD10C,3.0000*%
%ADD11C,2.0000*%
%ADD12C,0.4000*%
%ADD13O,2.999994X4.9999899999999995*%
%ADD14C,2.5000*%
%ADD15C,3.5000*%
%ADD16MACRO1*%
%ADD17C,2.1800*%
%ADD18C,4.5000*%
%ADD19C,0.6096*%
%ADD20C,0.0111*%

%LPD*%
G36*
X4437735Y-676046D02*
G01*
X4433773Y-675284D01*
X4430420Y-673100D01*
X3952697Y-195326D01*
X3950462Y-192024D01*
X3949700Y-188163D01*
X3949700Y10109D01*
X3948684Y11125D01*
X3750411Y11125D01*
X3746550Y11887D01*
X3743248Y14071D01*
X3695039Y62280D01*
X3686352Y69748D01*
X3676904Y75488D01*
X3666693Y79756D01*
X3655923Y82296D01*
X3644493Y83210D01*
X3068726Y83210D01*
X3064814Y83972D01*
X3061512Y86207D01*
X2924556Y223164D01*
X2922270Y226720D01*
X2918104Y237591D01*
X2912313Y247853D01*
X2905099Y257251D01*
X2896616Y265430D01*
X2886964Y272338D01*
X2876448Y277723D01*
X2865272Y281533D01*
X2853639Y283667D01*
X2841853Y284124D01*
X2830068Y282803D01*
X2818638Y279857D01*
X2807766Y275234D01*
X2797708Y269036D01*
X2788615Y261467D01*
X2780690Y252679D01*
X2774188Y242824D01*
X2769158Y232105D01*
X2765755Y220827D01*
X2764028Y209092D01*
X2764028Y197307D01*
X2765755Y185572D01*
X2769158Y174294D01*
X2774188Y163576D01*
X2780690Y153720D01*
X2788615Y144881D01*
X2797708Y137363D01*
X2807766Y131165D01*
X2818638Y126542D01*
X2822600Y125171D01*
X2824734Y123545D01*
X2919831Y28448D01*
X2922016Y25146D01*
X2922778Y21285D01*
X2922016Y17373D01*
X2919831Y14071D01*
X2916529Y11887D01*
X2912618Y11125D01*
X2473960Y11125D01*
X2470048Y11887D01*
X2466797Y14071D01*
X2464562Y17373D01*
X2463800Y21285D01*
X2463800Y559765D01*
X2464562Y563626D01*
X2466797Y566928D01*
X2470048Y569163D01*
X2473960Y569925D01*
X2538780Y569925D01*
X2540660Y570687D01*
X2666339Y721563D01*
X2667000Y723087D01*
X2667000Y1496009D01*
X2666288Y1497736D01*
X2604211Y1559814D01*
X2602585Y1560525D01*
X2486355Y1563420D01*
X2482545Y1564284D01*
X2479344Y1566468D01*
X2477211Y1569720D01*
X2476449Y1573530D01*
X2463850Y3344214D01*
X2464612Y3348126D01*
X2466797Y3351428D01*
X2470099Y3353663D01*
X2473960Y3354425D01*
X4713935Y3367024D01*
X4717846Y3366262D01*
X4721148Y3364077D01*
X4723384Y3360775D01*
X4724146Y3356864D01*
X4724146Y3290366D01*
X4715662Y774496D01*
X4714646Y770178D01*
X4711954Y766724D01*
X4708042Y764692D01*
X4703673Y764540D01*
X4699609Y766216D01*
X4696663Y769518D01*
X4691075Y779322D01*
X4680610Y794054D01*
X4668672Y807618D01*
X4655413Y819912D01*
X4640986Y830732D01*
X4625492Y840028D01*
X4611827Y846429D01*
X4611827Y753973D01*
X4705400Y753973D01*
X4709261Y753211D01*
X4712563Y750976D01*
X4714798Y747674D01*
X4715560Y743762D01*
X4715154Y626414D01*
X4714341Y622503D01*
X4712157Y619252D01*
X4708855Y617067D01*
X4704994Y616254D01*
X4611827Y616254D01*
X4611827Y523849D01*
X4625492Y530199D01*
X4640986Y539496D01*
X4655413Y550367D01*
X4668672Y562610D01*
X4680610Y576224D01*
X4691075Y590956D01*
X4696053Y599643D01*
X4699000Y602945D01*
X4703064Y604672D01*
X4707483Y604469D01*
X4711395Y602437D01*
X4714087Y598932D01*
X4715052Y594614D01*
X4711700Y-388061D01*
X4710988Y-391820D01*
X4708906Y-395020D01*
X4444949Y-672896D01*
X4441647Y-675182D01*
G37*

%LPC*%
G36*
X4022953Y160375D02*
G01*
X4034739Y160832D01*
X4046372Y162966D01*
X4057548Y166776D01*
X4068064Y172161D01*
X4077715Y179070D01*
X4086199Y187248D01*
X4093413Y196596D01*
X4099204Y206908D01*
X4103420Y217982D01*
X4106011Y229514D01*
X4106875Y241300D01*
X4106011Y253085D01*
X4103420Y264617D01*
X4099204Y275691D01*
X4096765Y280720D01*
X4096410Y283311D01*
X4096410Y545693D01*
X4095546Y557123D01*
X4092956Y567893D01*
X4088688Y578104D01*
X4082948Y587552D01*
X4075480Y596239D01*
X3925315Y746404D01*
X3923182Y749604D01*
X3922369Y753414D01*
X3923029Y757224D01*
X3925620Y764082D01*
X3928211Y775614D01*
X3929075Y787400D01*
X3928211Y799185D01*
X3925620Y810717D01*
X3921404Y821791D01*
X3915613Y832053D01*
X3908399Y841451D01*
X3899915Y849630D01*
X3890264Y856538D01*
X3879748Y861923D01*
X3868572Y865733D01*
X3856939Y867867D01*
X3845153Y868324D01*
X3833368Y867003D01*
X3821937Y864057D01*
X3811066Y859434D01*
X3801008Y853236D01*
X3791915Y845667D01*
X3783990Y836879D01*
X3777487Y827024D01*
X3772458Y816305D01*
X3769055Y805027D01*
X3767328Y793292D01*
X3767328Y781507D01*
X3769055Y769772D01*
X3772458Y758494D01*
X3776624Y749604D01*
X3777589Y745286D01*
X3777589Y724306D01*
X3778504Y712876D01*
X3781044Y702106D01*
X3785311Y691896D01*
X3791051Y682447D01*
X3798519Y673760D01*
X3952392Y519887D01*
X3954627Y516585D01*
X3955389Y512673D01*
X3955389Y283413D01*
X3954424Y279095D01*
X3950258Y270205D01*
X3946855Y258927D01*
X3945128Y247192D01*
X3945128Y235407D01*
X3946855Y223672D01*
X3950258Y212394D01*
X3955287Y201676D01*
X3961790Y191820D01*
X3969715Y182981D01*
X3978808Y175463D01*
X3988866Y169265D01*
X3999737Y164642D01*
X4011168Y161696D01*
G37*
G36*
X3235553Y427075D02*
G01*
X3247339Y427532D01*
X3258972Y429666D01*
X3270148Y433476D01*
X3280664Y438861D01*
X3290315Y445770D01*
X3298799Y453948D01*
X3306013Y463296D01*
X3311804Y473608D01*
X3316020Y484682D01*
X3318611Y496214D01*
X3319475Y508000D01*
X3318611Y519785D01*
X3316020Y531317D01*
X3311804Y542391D01*
X3309365Y547420D01*
X3309010Y550011D01*
X3309010Y1198473D01*
X3309772Y1202385D01*
X3312007Y1205687D01*
X3351580Y1245260D01*
X3359048Y1253947D01*
X3364788Y1263396D01*
X3369056Y1273606D01*
X3371646Y1284376D01*
X3372510Y1295806D01*
X3372510Y2052167D01*
X3371646Y2063597D01*
X3369056Y2074367D01*
X3364788Y2084578D01*
X3359048Y2094026D01*
X3351580Y2102713D01*
X3151225Y2303068D01*
X3149092Y2306218D01*
X3148279Y2309926D01*
X3148838Y2313686D01*
X3155645Y2332736D01*
X3160420Y2351786D01*
X3163316Y2371242D01*
X3164281Y2390902D01*
X3163316Y2410561D01*
X3160420Y2430018D01*
X3155645Y2449118D01*
X3149041Y2467660D01*
X3140608Y2485440D01*
X3130499Y2502306D01*
X3118764Y2518105D01*
X3105556Y2532684D01*
X3090976Y2545892D01*
X3075178Y2557627D01*
X3058312Y2567736D01*
X3040532Y2576169D01*
X3021990Y2582773D01*
X3002889Y2587599D01*
X2983433Y2590444D01*
X2963773Y2591409D01*
X2944114Y2590444D01*
X2924657Y2587599D01*
X2905556Y2582773D01*
X2887065Y2576169D01*
X2869285Y2567736D01*
X2852369Y2557627D01*
X2836570Y2545892D01*
X2821990Y2532684D01*
X2808782Y2518105D01*
X2797048Y2502306D01*
X2786938Y2485440D01*
X2778556Y2467660D01*
X2771902Y2449118D01*
X2767126Y2430018D01*
X2764231Y2410561D01*
X2763266Y2390902D01*
X2764231Y2371242D01*
X2767126Y2351786D01*
X2771902Y2332736D01*
X2778556Y2314194D01*
X2786938Y2296414D01*
X2797048Y2279548D01*
X2808782Y2263698D01*
X2821990Y2249119D01*
X2836570Y2235911D01*
X2852369Y2224227D01*
X2869285Y2214067D01*
X2887065Y2205685D01*
X2905556Y2199030D01*
X2924657Y2194255D01*
X2944114Y2191359D01*
X2963773Y2190394D01*
X2983433Y2191359D01*
X3002889Y2194255D01*
X3021990Y2199030D01*
X3040837Y2205786D01*
X3044596Y2206396D01*
X3048304Y2205532D01*
X3051454Y2203399D01*
X3228492Y2026361D01*
X3230727Y2023059D01*
X3231489Y2019147D01*
X3231489Y1328826D01*
X3230727Y1324914D01*
X3228492Y1321612D01*
X3188919Y1282039D01*
X3181451Y1273352D01*
X3175711Y1263904D01*
X3171444Y1253693D01*
X3168904Y1242923D01*
X3167989Y1231493D01*
X3167989Y550113D01*
X3167024Y545795D01*
X3162858Y536905D01*
X3159455Y525627D01*
X3157728Y513892D01*
X3157728Y502107D01*
X3159455Y490372D01*
X3162858Y479094D01*
X3167888Y468376D01*
X3174390Y458520D01*
X3182315Y449681D01*
X3191408Y442163D01*
X3201466Y435965D01*
X3212338Y431342D01*
X3223768Y428396D01*
G37*
G36*
X4474159Y523900D02*
G01*
X4474159Y616254D01*
X4381652Y616254D01*
X4382160Y614832D01*
X4390237Y598678D01*
X4399940Y583438D01*
X4411167Y569264D01*
X4423765Y556310D01*
X4437634Y544728D01*
X4452670Y534670D01*
X4468622Y526186D01*
G37*
G36*
X4381652Y753973D02*
G01*
X4474159Y753973D01*
X4474159Y846328D01*
X4468622Y844092D01*
X4452670Y835609D01*
X4437634Y825500D01*
X4423765Y813917D01*
X4411167Y800963D01*
X4399940Y786841D01*
X4390237Y771550D01*
X4382160Y755396D01*
G37*
G36*
X3045155Y1456029D02*
G01*
X3058312Y1462227D01*
X3075178Y1472387D01*
X3090976Y1484071D01*
X3105556Y1497279D01*
X3118764Y1511858D01*
X3130499Y1527708D01*
X3140608Y1544574D01*
X3146856Y1557731D01*
X3045155Y1557731D01*
G37*
G36*
X2882442Y1456029D02*
G01*
X2882442Y1557731D01*
X2780741Y1557731D01*
X2786938Y1544574D01*
X2797048Y1527708D01*
X2808782Y1511858D01*
X2821990Y1497279D01*
X2836570Y1484071D01*
X2852369Y1472387D01*
X2869285Y1462227D01*
G37*
G36*
X4350004Y1570431D02*
G01*
X4367225Y1571345D01*
X4384294Y1574139D01*
X4400956Y1578762D01*
X4416958Y1585163D01*
X4432249Y1593240D01*
X4446524Y1602943D01*
X4459681Y1614119D01*
X4471568Y1626666D01*
X4482033Y1640382D01*
X4490923Y1655216D01*
X4498187Y1670862D01*
X4503674Y1687271D01*
X4507433Y1704136D01*
X4509262Y1721307D01*
X4509262Y1738579D01*
X4507433Y1755749D01*
X4503674Y1772615D01*
X4498187Y1788972D01*
X4490923Y1804619D01*
X4482033Y1819452D01*
X4471568Y1833168D01*
X4459681Y1845716D01*
X4446524Y1856892D01*
X4432249Y1866595D01*
X4416958Y1874672D01*
X4400956Y1881073D01*
X4384294Y1885696D01*
X4367225Y1888489D01*
X4350004Y1889404D01*
X4332782Y1888489D01*
X4315714Y1885696D01*
X4299051Y1881073D01*
X4283049Y1874672D01*
X4267758Y1866595D01*
X4253484Y1856892D01*
X4240326Y1845716D01*
X4228439Y1833168D01*
X4217974Y1819452D01*
X4209084Y1804619D01*
X4201820Y1788972D01*
X4196334Y1772615D01*
X4192574Y1755749D01*
X4190746Y1738579D01*
X4190746Y1721307D01*
X4192574Y1704136D01*
X4196334Y1687271D01*
X4201820Y1670862D01*
X4209084Y1655216D01*
X4217974Y1640382D01*
X4228439Y1626666D01*
X4240326Y1614119D01*
X4253484Y1602943D01*
X4267758Y1593240D01*
X4283049Y1585163D01*
X4299051Y1578762D01*
X4315714Y1574139D01*
X4332782Y1571345D01*
G37*
G36*
X3045155Y1720443D02*
G01*
X3146856Y1720443D01*
X3140608Y1733600D01*
X3130499Y1750466D01*
X3118764Y1766265D01*
X3105556Y1780844D01*
X3090976Y1794052D01*
X3075178Y1805787D01*
X3058312Y1815896D01*
X3045155Y1822145D01*
G37*
G36*
X2780741Y1720443D02*
G01*
X2882442Y1720443D01*
X2882442Y1822145D01*
X2869285Y1815896D01*
X2852369Y1805787D01*
X2836570Y1794052D01*
X2821990Y1780844D01*
X2808782Y1766265D01*
X2797048Y1750466D01*
X2786938Y1733600D01*
G37*
G36*
X4350004Y1910435D02*
G01*
X4367225Y1911350D01*
X4384294Y1914143D01*
X4400956Y1918766D01*
X4416958Y1925167D01*
X4432249Y1933244D01*
X4446524Y1942947D01*
X4459681Y1954123D01*
X4471568Y1966671D01*
X4482033Y1980387D01*
X4490923Y1995220D01*
X4498187Y2010867D01*
X4503674Y2027224D01*
X4507433Y2044090D01*
X4509262Y2061260D01*
X4509262Y2078532D01*
X4507433Y2095703D01*
X4503674Y2112568D01*
X4498187Y2128977D01*
X4490923Y2144623D01*
X4482033Y2159457D01*
X4471568Y2173173D01*
X4459681Y2185720D01*
X4446524Y2196896D01*
X4432249Y2206599D01*
X4416958Y2214676D01*
X4400956Y2221077D01*
X4384294Y2225700D01*
X4367225Y2228494D01*
X4350004Y2229408D01*
X4332782Y2228494D01*
X4315714Y2225700D01*
X4299051Y2221077D01*
X4283049Y2214676D01*
X4267758Y2206599D01*
X4253484Y2196896D01*
X4240326Y2185720D01*
X4228439Y2173173D01*
X4217974Y2159457D01*
X4209084Y2144623D01*
X4201820Y2128977D01*
X4196334Y2112568D01*
X4192574Y2095703D01*
X4190746Y2078532D01*
X4190746Y2061260D01*
X4192574Y2044090D01*
X4196334Y2027224D01*
X4201820Y2010867D01*
X4209084Y1995220D01*
X4217974Y1980387D01*
X4228439Y1966671D01*
X4240326Y1954123D01*
X4253484Y1942947D01*
X4267758Y1933244D01*
X4283049Y1925167D01*
X4299051Y1918766D01*
X4315714Y1914143D01*
X4332782Y1911350D01*
G37*
G36*
X4350004Y2320493D02*
G01*
X4367225Y2321407D01*
X4384294Y2324201D01*
X4400956Y2328824D01*
X4416958Y2335225D01*
X4432249Y2343302D01*
X4446524Y2353005D01*
X4459681Y2364181D01*
X4471568Y2376728D01*
X4482033Y2390444D01*
X4490923Y2405278D01*
X4498187Y2420924D01*
X4503674Y2437333D01*
X4507433Y2454198D01*
X4509262Y2471369D01*
X4509262Y2488641D01*
X4507433Y2505811D01*
X4503674Y2522677D01*
X4498187Y2539034D01*
X4490923Y2554681D01*
X4482033Y2569514D01*
X4471568Y2583230D01*
X4459681Y2595778D01*
X4446524Y2606954D01*
X4432249Y2616657D01*
X4416958Y2624734D01*
X4400956Y2631135D01*
X4384294Y2635758D01*
X4367225Y2638552D01*
X4350004Y2639466D01*
X4332782Y2638552D01*
X4315714Y2635758D01*
X4299051Y2631135D01*
X4283049Y2624734D01*
X4267758Y2616657D01*
X4253484Y2606954D01*
X4240326Y2595778D01*
X4228439Y2583230D01*
X4217974Y2569514D01*
X4209084Y2554681D01*
X4201820Y2539034D01*
X4196334Y2522677D01*
X4192574Y2505811D01*
X4190746Y2488641D01*
X4190746Y2471369D01*
X4192574Y2454198D01*
X4196334Y2437333D01*
X4201820Y2420924D01*
X4209084Y2405278D01*
X4217974Y2390444D01*
X4228439Y2376728D01*
X4240326Y2364181D01*
X4253484Y2353005D01*
X4267758Y2343302D01*
X4283049Y2335225D01*
X4299051Y2328824D01*
X4315714Y2324201D01*
X4332782Y2321407D01*
G37*
G36*
X4350004Y2660497D02*
G01*
X4367225Y2661412D01*
X4384294Y2664206D01*
X4400956Y2668828D01*
X4416958Y2675229D01*
X4432249Y2683306D01*
X4446524Y2693009D01*
X4459681Y2704185D01*
X4471568Y2716733D01*
X4482033Y2730449D01*
X4490923Y2745282D01*
X4498187Y2760929D01*
X4503674Y2777286D01*
X4507433Y2794152D01*
X4509262Y2811322D01*
X4509262Y2828594D01*
X4507433Y2845765D01*
X4503674Y2862630D01*
X4498187Y2879039D01*
X4490923Y2894685D01*
X4482033Y2909519D01*
X4471568Y2923235D01*
X4459681Y2935782D01*
X4446524Y2946958D01*
X4432249Y2956661D01*
X4416958Y2964738D01*
X4400956Y2971139D01*
X4384294Y2975762D01*
X4367225Y2978556D01*
X4350004Y2979470D01*
X4332782Y2978556D01*
X4315714Y2975762D01*
X4299051Y2971139D01*
X4283049Y2964738D01*
X4267758Y2956661D01*
X4253484Y2946958D01*
X4240326Y2935782D01*
X4228439Y2923235D01*
X4217974Y2909519D01*
X4209084Y2894685D01*
X4201820Y2879039D01*
X4196334Y2862630D01*
X4192574Y2845765D01*
X4190746Y2828594D01*
X4190746Y2811322D01*
X4192574Y2794152D01*
X4196334Y2777286D01*
X4201820Y2760929D01*
X4209084Y2745282D01*
X4217974Y2730449D01*
X4228439Y2716733D01*
X4240326Y2704185D01*
X4253484Y2693009D01*
X4267758Y2683306D01*
X4283049Y2675229D01*
X4299051Y2668828D01*
X4315714Y2664206D01*
X4332782Y2661412D01*
G37*
G36*
X3294176Y2774543D02*
G01*
X3317240Y2775051D01*
X3340201Y2777439D01*
X3362858Y2781757D01*
X3385108Y2787954D01*
X3406749Y2796032D01*
X3427628Y2805836D01*
X3447592Y2817368D01*
X3466541Y2830525D01*
X3484321Y2845257D01*
X3500780Y2861411D01*
X3515868Y2878836D01*
X3529431Y2897530D01*
X3541369Y2917240D01*
X3551631Y2937916D01*
X3560165Y2959404D01*
X3566820Y2981452D01*
X3571595Y3004058D01*
X3574491Y3026918D01*
X3575456Y3049981D01*
X3574491Y3073044D01*
X3571595Y3095955D01*
X3566820Y3118510D01*
X3560165Y3140608D01*
X3551631Y3162046D01*
X3541369Y3182721D01*
X3529431Y3202482D01*
X3515868Y3221126D01*
X3500780Y3238601D01*
X3484321Y3254756D01*
X3466541Y3269437D01*
X3447592Y3282594D01*
X3427628Y3294176D01*
X3406749Y3303981D01*
X3385108Y3312007D01*
X3362858Y3318205D01*
X3340201Y3322574D01*
X3317240Y3324961D01*
X3294176Y3325469D01*
X3271164Y3323996D01*
X3248355Y3320643D01*
X3225850Y3315360D01*
X3203905Y3308248D01*
X3182670Y3299307D01*
X3162198Y3288588D01*
X3142742Y3276244D01*
X3124352Y3262274D01*
X3107182Y3246831D01*
X3091383Y3230016D01*
X3077057Y3211931D01*
X3064306Y3192729D01*
X3053181Y3172510D01*
X3043783Y3151428D01*
X3036214Y3129635D01*
X3030474Y3107283D01*
X3026613Y3084525D01*
X3024682Y3061512D01*
X3024682Y3038449D01*
X3026613Y3015488D01*
X3030474Y2992729D01*
X3036214Y2970377D01*
X3043783Y2948584D01*
X3053181Y2927502D01*
X3064306Y2907284D01*
X3077057Y2888030D01*
X3091383Y2869946D01*
X3107182Y2853131D01*
X3124352Y2837688D01*
X3142742Y2823768D01*
X3162198Y2811373D01*
X3182670Y2800705D01*
X3203905Y2791764D01*
X3225850Y2784652D01*
X3248355Y2779369D01*
X3271164Y2776016D01*
G37*

%LPD*%
D10*
X1300007Y2869996D02*
G01*
X1300007Y3169996D01*
X429999Y2869986D02*
G01*
X429999Y3169986D01*
X934313Y2390927D02*
G01*
X1300007Y2869996D01*
X934313Y1639087D02*
G01*
X934313Y2390927D01*
X428853Y2390927D02*
G01*
X429999Y2869986D01*
X428853Y1639087D02*
G01*
X428853Y2390927D01*
D11*
X934212Y1639062D02*
G01*
X934212Y476250D01*
X853947Y395986D01*
D12*
X4025900Y241300D02*
G01*
X4025900Y546100D01*
X3848100Y723900D01*
X3848100Y787400D01*
X4543043Y-838962D02*
G01*
X4496561Y-838962D01*
X3644900Y12700D01*
X3035300Y12700D01*
X2844800Y203200D01*
D11*
X934321Y1639079D02*
G01*
X934321Y1639079D01*
X2257000Y938999D01*
D12*
X3302000Y1803400D02*
G01*
X3302000Y2052573D01*
X2963672Y2390902D01*
X3238500Y508000D02*
G01*
X3238500Y1231900D01*
X3302000Y1295400D01*
X3302000Y1803400D01*
D11*
X2257000Y-839000D02*
G01*
X2256993Y-839012D01*
X1422400Y-650900D01*
X854024Y-620013D02*
G01*
X1422400Y-650900D01*
X1422400Y-1050899D02*
G01*
X1422400Y-650900D01*
D13*
G01*
X934313Y2390927D03*
G01*
X428853Y2390927D03*
G01*
X428853Y1639087D03*
G01*
X934313Y1639087D03*
D10*
G01*
X2963773Y1639087D03*
G01*
X2963773Y2390927D03*
D14*
G01*
X2256993Y-839012D03*
G01*
X2256993Y938987D03*
G01*
X4542993Y-839012D03*
G01*
X4542993Y684987D03*
D10*
G01*
X854024Y-620013D03*
G01*
X854024Y-112013D03*
G01*
X854024Y395986D03*
D15*
G01*
X600024Y-874013D03*
G01*
X600024Y649986D03*
D16*
G01*
X1299971Y3212572D03*
G01*
X1299971Y2827572D03*
G01*
X1422400Y-658387D03*
G01*
X1422400Y-1043387D03*
G01*
X430021Y3212572D03*
G01*
X430021Y2827572D03*
D17*
G01*
X4350004Y1729917D03*
G01*
X4350004Y2069922D03*
G01*
X4350004Y2479979D03*
G01*
X4350004Y2819984D03*
D18*
G01*
X3299993Y3050006D03*
G01*
X1550009Y599998D03*
D19*
G01*
X3848100Y787400D03*
G01*
X4025900Y241300D03*
G01*
X3238500Y508000D03*
G01*
X2844800Y203200D03*
M02*
