G04 Layer: TopSolderMaskLayer*
G04 EasyEDA v6.5.39, 2024-01-10 16:20:09*
G04 85b321e934e241e88075cb939218c85a,3d9c8b04885e45b7839bd8e85c0fd600,10*
G04 Gerber Generator version 0.2*
G04 Scale: 100 percent, Rotated: No, Reflected: No *
G04 Dimensions in millimeters *
G04 leading zeros omitted , absolute positions ,4 integer and 5 decimal *
%FSLAX45Y45*%
%MOMM*%

%AMMACRO1*4,1,4,-1.3515,-1.4266,-1.3515,1.4266,1.3515,1.4266,1.3515,-1.4266,-1.3515,-1.4266,0*%
%AMMACRO2*1,1,$1,$2,$3*1,1,$1,$4,$5*1,1,$1,0-$2,0-$3*1,1,$1,0-$4,0-$5*20,1,$1,$2,$3,$4,$5,0*20,1,$1,$4,$5,0-$2,0-$3,0*20,1,$1,0-$2,0-$3,0-$4,0-$5,0*20,1,$1,0-$4,0-$5,$2,$3,0*4,1,4,$2,$3,$4,$5,0-$2,0-$3,0-$4,0-$5,$2,$3,0*%
%AMMACRO3*4,1,5,-0.6173,-0.9906,-0.6173,0.9906,0.0512,0.9906,0.6173,0,0.0512,-0.9906,-0.6173,-0.9906,0*%
%AMMACRO4*4,1,5,-0.7733,-0.9906,-0.2071,0,-0.7733,0.9906,0.7733,0.9906,0.7733,-0.9906,-0.7733,-0.9906,0*%
%ADD10C,3.1016*%
%ADD11O,3.2031940000000003X5.20319*%
%ADD12C,3.2032*%
%ADD13C,2.7032*%
%ADD14C,3.7032*%
%ADD15MACRO1*%
%ADD16MACRO2,0.1016X-0.6038X-0.8505X-0.6038X0.8505*%
%ADD17MACRO2,0.1016X0.6038X-0.8505X0.6038X0.8505*%
%ADD18R,1.8026X1.3091*%
%ADD19MACRO2,0.1016X0.4032X0.432X0.4032X-0.432*%
%ADD20MACRO2,0.1016X-0.4032X0.432X-0.4032X-0.432*%
%ADD21MACRO2,0.1016X-0.4032X-0.432X-0.4032X0.432*%
%ADD22MACRO2,0.1016X0.4032X-0.432X0.4032X0.432*%
%ADD23C,2.3832*%
%ADD24MACRO2,0.2032X0.625X0.35X0.625X-0.35*%
%ADD25MACRO2,0.2032X0.35X-0.625X-0.35X-0.625*%
%ADD26MACRO2,0.1016X-0.2828X-0.27X-0.2828X0.27*%
%ADD27MACRO2,0.1016X0.2828X-0.27X0.2828X0.27*%
%ADD28R,0.9656X0.9081*%
%ADD29MACRO2,0.1016X-0.27X0.2828X0.27X0.2828*%
%ADD30MACRO2,0.1016X-0.27X-0.2828X0.27X-0.2828*%
%ADD31R,0.6416X0.6673*%
%ADD32R,1.4532X0.9032*%
%ADD33R,1.2016X1.1016*%
%ADD34MACRO2,0.1016X0.6X0.5X0.6X-0.5*%
%ADD35R,1.1032X1.0032*%
%ADD36R,2.1032X1.4032*%
%ADD37MACRO2,0.2032X-0.5994X-1.4503X-0.5994X1.4503*%
%ADD38MACRO2,0.2032X0.775X0.325X0.775X-0.325*%
%ADD39MACRO2,0.1016X0.4X-0.4X-0.4X-0.4*%
%ADD40MACRO3*%
%ADD41MACRO4*%
%ADD42C,4.7032*%
%ADD43C,4.7040*%

%LPD*%
D10*
X429999Y2869986D02*
G01*
X428752Y2390902D01*
X428861Y1639079D02*
G01*
X428861Y2390919D01*
X934321Y2390919D02*
G01*
X1300007Y2869996D01*
X934321Y2390919D02*
G01*
X934321Y1639079D01*
D11*
G01*
X934313Y2390927D03*
G01*
X428853Y2390927D03*
G01*
X428853Y1639087D03*
G01*
X934313Y1639087D03*
D12*
G01*
X2963773Y1639087D03*
G01*
X2963773Y2390927D03*
D13*
G01*
X2256993Y-839012D03*
G01*
X2256993Y938987D03*
G01*
X4542993Y-839012D03*
G01*
X4542993Y684987D03*
D12*
G01*
X854024Y-620013D03*
G01*
X854024Y-112013D03*
G01*
X854024Y395986D03*
D14*
G01*
X600024Y-874013D03*
G01*
X600024Y649986D03*
D15*
G01*
X1299972Y3212579D03*
G01*
X1299972Y2827566D03*
G01*
X1422400Y-658380D03*
G01*
X1422400Y-1043393D03*
G01*
X430022Y3212579D03*
G01*
X430022Y2827566D03*
D16*
G01*
X4161076Y571500D03*
D17*
G01*
X3865323Y571500D03*
D16*
G01*
X4364276Y1016000D03*
D17*
G01*
X4068523Y1016000D03*
D18*
G01*
X4114800Y-372821D03*
G01*
X4114800Y-668578D03*
D19*
G01*
X3645775Y2273300D03*
D20*
G01*
X3796424Y2273300D03*
D21*
G01*
X4228224Y3175000D03*
D22*
G01*
X4077575Y3175000D03*
D21*
G01*
X3694824Y1485900D03*
D22*
G01*
X3544175Y1485900D03*
D21*
G01*
X4190124Y1371600D03*
D22*
G01*
X4039475Y1371600D03*
D23*
G01*
X4350004Y1729917D03*
G01*
X4350004Y2069922D03*
G01*
X4350004Y2479979D03*
G01*
X4350004Y2819984D03*
D24*
G01*
X3608831Y241300D03*
G01*
X3858768Y336296D03*
G01*
X3858768Y146303D03*
D25*
G01*
X3556000Y988568D03*
G01*
X3650996Y738631D03*
G01*
X3461003Y738631D03*
D26*
G01*
X2811882Y838200D03*
D27*
G01*
X2725317Y838200D03*
D28*
G01*
X2679700Y570636D03*
G01*
X2679700Y419963D03*
D29*
G01*
X3848100Y934617D03*
D30*
G01*
X3848100Y1021182D03*
D31*
G01*
X3416300Y525881D03*
G01*
X3416300Y439318D03*
D32*
G01*
X3261868Y749300D03*
G01*
X3011931Y654304D03*
G01*
X3011931Y844295D03*
D24*
G01*
X2986531Y292100D03*
G01*
X3236468Y387096D03*
G01*
X3236468Y197103D03*
D33*
G01*
X2501976Y-427989D03*
G01*
X2501976Y-587984D03*
D34*
G01*
X2781300Y-739190D03*
G01*
X2781300Y-429209D03*
G01*
X2603500Y1851609D03*
G01*
X2603500Y2161590D03*
D35*
G01*
X4114800Y-146202D03*
G01*
X4114800Y-6197D03*
D36*
G01*
X1727200Y121894D03*
G01*
X1727200Y-198120D03*
D37*
G01*
X3391407Y-208788D03*
G01*
X3390392Y-908811D03*
D38*
G01*
X2128300Y203200D03*
G01*
X2128300Y76200D03*
G01*
X2128300Y-50800D03*
G01*
X2128300Y-177800D03*
G01*
X2672299Y-177800D03*
G01*
X2672299Y-50800D03*
G01*
X2672299Y76200D03*
G01*
X2672299Y203200D03*
D39*
G01*
X3708400Y1926589D03*
G01*
X3708400Y1756410D03*
G01*
X3721100Y2701289D03*
G01*
X3721100Y2531110D03*
D40*
G01*
X4420374Y1371600D03*
D41*
G01*
X4555629Y1371600D03*
D40*
G01*
X4433074Y3175000D03*
D41*
G01*
X4568329Y3175000D03*
D42*
G01*
X3299993Y3050006D03*
D43*
G01*
X1550009Y599998D03*
M02*
